<svg width="163" height="163" viewBox="0 0 163 163" fill="none" xmlns="http://www.w3.org/2000/svg">
<rect x="0.484619" y="0.486328" width="162" height="162" rx="32.4" fill="#FA467B"/>
<path d="M153.15 32.2682L153.15 32.2684C156.305 44.9034 154.334 55.6744 148.117 61.2351L148.115 61.2374C146.137 63.0288 143.7 64.2352 141.075 64.7218L141.074 64.722C140.894 64.756 140.712 64.7868 140.529 64.8144L140.529 64.8145C138.206 65.1669 135.753 64.9982 133.212 64.3094L132.839 64.2084L132.621 64.5274L130.318 67.8967C130.318 67.8967 130.318 67.8968 130.318 67.8968C130.254 67.9911 130.17 68.0711 130.074 68.1317C129.977 68.1925 129.868 68.2326 129.755 68.2495C129.642 68.2665 129.527 68.26 129.417 68.2305C129.308 68.2014 129.207 68.1507 129.118 68.0813C128.954 67.9424 128.847 67.7471 128.819 67.5335C128.79 67.3179 128.843 67.0994 128.969 66.9215L128.969 66.9216L128.973 66.9156L130.919 64.0679L130.919 64.0679L130.921 64.0645L143.614 45.1902C143.614 45.1896 143.615 45.189 143.615 45.1884C143.757 44.9808 143.856 44.7473 143.908 44.5013C143.959 44.2547 143.962 44.0002 143.915 43.7525C143.869 43.5048 143.774 43.2687 143.636 43.0577C143.498 42.8467 143.32 42.6648 143.112 42.5226C142.904 42.3804 142.67 42.2806 142.423 42.2288C142.177 42.1771 141.922 42.1744 141.674 42.221C141.427 42.2676 141.191 42.3625 140.98 42.5004C140.769 42.6382 140.587 42.8162 140.444 43.0243L140.442 43.0277L128.826 60.3052L128.826 60.3057C128.812 60.3259 128.794 60.3423 128.772 60.3535C128.751 60.3646 128.727 60.3701 128.702 60.3695C128.678 60.3688 128.654 60.362 128.633 60.3497C128.612 60.3374 128.595 60.32 128.583 60.2991L128.583 60.2991L128.578 60.2921C127.616 58.7275 126.914 57.0167 126.5 55.2268C125.86 52.4423 126.061 49.5304 127.077 46.8602L127.077 46.8602L127.079 46.8572C130.001 39.0449 139.322 33.2971 152.238 31.6446L152.238 31.6445C152.44 31.6186 152.645 31.6678 152.813 31.7828C152.981 31.8977 153.101 32.0705 153.15 32.2682ZM148.48 61.6402C154.917 55.8825 156.853 44.8554 153.678 32.1367L140.61 65.3519C140.799 65.3233 140.988 65.2914 141.175 65.2562C143.898 64.7513 146.427 63.4994 148.48 61.6402Z" fill="url(#paint0_linear_713_954)" stroke="#242728" stroke-width="1.08711"/>
<path fill-rule="evenodd" clip-rule="evenodd" d="M125.381 95.4355C122.033 97.035 118.419 98.293 114.625 99.0919C115.222 104.207 118.326 108.709 121.618 108.37C121.632 108.368 121.648 108.366 121.663 108.364C125.981 107.6 126.963 100.622 125.381 95.4355Z" fill="#FF85D0"/>
<path fill-rule="evenodd" clip-rule="evenodd" d="M107.946 111.529C104.805 110.503 100.917 113.594 99.2497 118.463C97.5808 123.333 98.757 128.157 101.871 129.269C101.887 129.275 101.904 129.28 101.921 129.287C108.717 131.17 114.67 114.83 108.288 111.714L107.946 111.529Z" fill="#FF85D0"/>
<path fill-rule="evenodd" clip-rule="evenodd" d="M121.618 108.366C118.326 108.705 115.222 104.203 114.625 99.0879C112.547 99.5246 110.413 99.8244 108.241 99.9647C108.248 99.9959 108.253 100.025 108.258 100.057C108.321 100.526 108.05 100.975 107.606 101.143C106.737 101.474 105.866 101.751 104.987 101.964C103.594 103.903 102.029 105.713 100.317 107.369L102.48 108.548C108.829 109.161 115.21 109.067 121.618 108.366Z" fill="#FF85D0"/>
<path fill-rule="evenodd" clip-rule="evenodd" d="M125.47 95.3191C136.767 89.9265 145.019 80.6627 146.846 72.1665C146.961 71.6345 148.078 68.6904 147.001 65.6804C145.255 60.8111 140.653 58.6242 136.854 58.9448C135.688 59.0435 133.271 59.5426 131.599 62.5162C131.585 62.5439 131.58 62.6097 131.582 62.7033L131.7 64.0307C131.805 64.963 131.937 66.0304 131.901 66.3077C131.899 66.332 131.894 66.351 131.889 66.3631C129.382 71.3832 125.171 74.4209 120.168 76.1174C117.764 76.9335 115.176 77.4396 112.504 77.7082C112.348 72.6517 111.243 67.8153 109.362 63.3809C109.976 63.1192 111.527 62.3984 112.249 61.5025C113.711 59.6899 114.008 56.5898 113.489 54.3198C110.419 53.0167 107.282 50.9997 104.09 48.416C103.733 48.1283 103.604 47.6432 103.773 47.2169C103.941 46.7906 104.366 46.522 104.822 46.5532C107.147 46.7143 109.433 46.7195 111.675 46.5271L107.577 28.58C106.927 25.726 104.666 23.5131 101.795 22.9188C98.9222 22.3261 95.9696 23.4611 94.2365 25.8248L83.5153 40.4518C80.0839 39.4745 76.4652 38.9493 72.7249 38.9493C56.7127 38.9493 41.6772 48.2028 34.7033 61.7156L31.8478 62.1661C27.9358 62.7795 25.1011 66.2193 25.2468 70.1737L26.1576 94.7039C26.2755 97.8906 28.255 100.71 31.2128 101.909C32.0577 102.251 32.9372 102.441 33.8167 102.49C35.9557 108.756 39.2745 114.06 44.0747 119.628L43.9584 132.709C44.0364 136.116 48.8211 138.867 54.7038 138.867C60.6351 138.867 65.4492 136.071 65.4492 132.624C67.0851 133.353 69.2883 133.981 71.5071 133.981C76.8624 133.981 81.2116 131.453 81.2116 128.34L81.1144 118.853C87.5835 123.185 94.5592 126.569 101.96 129.158C98.8459 128.046 97.6696 123.222 99.3385 118.352C101.006 113.483 104.893 110.391 108.035 111.417L100.405 107.257C102.118 105.6 103.682 103.791 105.076 101.852C101.696 102.672 98.2317 102.599 94.6754 101.592C94.6042 101.571 94.5348 101.55 94.4654 101.526C93.4575 101.185 92.7411 100.512 92.3143 99.7101C91.3723 97.9426 91.8216 95.5375 93.5825 94.6035C94.3631 94.1893 95.2808 94.1737 96.0615 94.5289C96.2679 94.6242 96.4657 94.7455 96.6478 94.8911C97.7928 95.8026 98.9534 96.5321 100.13 97.1109C102.515 98.2823 104.959 98.8368 107.433 99.0656C107.875 99.1072 108.235 99.4278 108.33 99.8523C110.502 99.7119 112.636 99.4121 114.714 98.9755C118.508 98.1766 122.122 96.9186 125.47 95.3191Z" fill="#FF85D0"/>
<path fill-rule="evenodd" clip-rule="evenodd" d="M113.228 54.4096C113.746 56.6804 113.45 59.7799 111.989 61.5929C111.079 62.7216 109.365 63.5747 109.365 63.5747M83.2663 40.5165C86.2351 36.4648 90.2723 30.956 93.9692 25.9097C95.7018 23.5461 98.6535 22.4118 101.525 23.0055C104.395 23.6 106.657 25.8128 107.31 28.6684C108.655 34.5622 112.024 49.1541 113.277 54.6381" fill="#FF85D0"/>
<path d="M113.228 54.4096C113.746 56.6804 113.45 59.7799 111.989 61.5929C111.079 62.7216 109.365 63.5747 109.365 63.5747M83.2663 40.5165C86.2351 36.4648 90.2723 30.956 93.9692 25.9097C95.7018 23.5461 98.6535 22.4118 101.525 23.0055C104.395 23.6 106.657 25.8128 107.31 28.6684C108.655 34.5622 112.024 49.1541 113.277 54.6381" stroke="#242728" stroke-width="1.1016" stroke-miterlimit="1.5" stroke-linejoin="round"/>
<path fill-rule="evenodd" clip-rule="evenodd" d="M107.823 111.516C104.674 110.439 100.753 113.541 99.0752 118.437C97.3972 123.333 98.593 128.182 101.742 129.258" fill="#FF85D0"/>
<path d="M107.823 111.516C104.674 110.439 100.753 113.541 99.0752 118.437C97.3972 123.333 98.593 128.182 101.742 129.258" stroke="#242728" stroke-width="1.1016" stroke-miterlimit="1.5" stroke-linejoin="round"/>
<path fill-rule="evenodd" clip-rule="evenodd" d="M114.451 99.0631C115.052 104.203 118.181 108.723 121.488 108.337Z" fill="#FF85D0"/>
<path d="M114.451 99.0631C115.052 104.203 118.181 108.723 121.488 108.337" stroke="#242728" stroke-width="1.1016" stroke-miterlimit="1.5" stroke-linejoin="round"/>
<path fill-rule="evenodd" clip-rule="evenodd" d="M94.34 104.187L108.11 111.699C114.491 114.818 108.543 131.159 101.748 129.272C91.9183 125.838 82.8399 121 74.7001 114.404" fill="#FF85D0"/>
<path d="M94.34 104.187L108.11 111.699C114.491 114.818 108.543 131.159 101.748 129.272C91.9183 125.838 82.8399 121 74.7001 114.404" stroke="#242728" stroke-width="1.1016" stroke-miterlimit="1.5" stroke-linejoin="round"/>
<path fill-rule="evenodd" clip-rule="evenodd" d="M125.205 95.4001C126.787 100.585 125.804 107.565 121.487 108.328C115.063 109.036 108.668 109.13 102.303 108.516" fill="#FF85D0"/>
<path d="M125.205 95.4001C126.787 100.585 125.804 107.565 121.487 108.328C115.063 109.036 108.668 109.13 102.303 108.516" stroke="#242728" stroke-width="1.1016" stroke-miterlimit="1.5" stroke-linejoin="round"/>
<path fill-rule="evenodd" clip-rule="evenodd" d="M57.4757 58.1775C57.4757 58.1775 41.19 60.7413 31.5902 62.2529C27.6782 62.8688 24.8437 66.3096 24.9887 70.2635C25.2216 76.6078 25.5792 86.2775 25.8932 94.796C26.0093 97.9819 27.9878 100.802 30.9456 101.999C33.9014 103.195 37.2875 102.547 39.5943 100.342C44.5992 95.5541 49.1327 91.2159 49.1327 91.2159" fill="#FF85D0"/>
<path d="M57.4757 58.1775C57.4757 58.1775 41.19 60.7413 31.5902 62.2529C27.6782 62.8688 24.8437 66.3096 24.9887 70.2635C25.2216 76.6078 25.5792 86.2775 25.8932 94.796C26.0093 97.9819 27.9878 100.802 30.9456 101.999C33.9014 103.195 37.2875 102.547 39.5943 100.342C44.5992 95.5541 49.1327 91.2159 49.1327 91.2159" stroke="#242728" stroke-width="1.1016" stroke-miterlimit="1.5" stroke-linejoin="round"/>
<path fill-rule="evenodd" clip-rule="evenodd" d="M100.104 107.381C100.117 107.37 100.128 107.359 100.141 107.347C101.853 105.69 103.416 103.881 104.81 101.942M33.5118 102.47C36.1553 110.274 40.6203 116.581 47.4812 123.743ZM65.3415 117.926C67.2156 118.345 69.3528 118.624 72.461 118.548C74.8239 118.49 77.1409 118.342 79.3942 117.946M112.239 77.5471C111.579 56.1827 94.0081 39.041 72.461 39.041C56.4113 39.041 41.3437 48.3342 34.3907 61.8982" fill="#FF85D0"/>
<path d="M100.104 107.381C100.117 107.37 100.128 107.359 100.141 107.347C101.853 105.69 103.416 103.881 104.81 101.942M33.5118 102.47C36.1553 110.274 40.6203 116.581 47.4812 123.743M65.3415 117.926C67.2156 118.345 69.3528 118.624 72.461 118.548C74.8239 118.49 77.1409 118.342 79.3942 117.946M112.239 77.5471C111.579 56.1827 94.0081 39.041 72.461 39.041C56.4113 39.041 41.3437 48.3342 34.3907 61.8982" stroke="#242728" stroke-width="1.1016" stroke-miterlimit="1.5" stroke-linejoin="round"/>
<path d="M52.0164 59.8066L33.6675 61.9337" stroke="#242728" stroke-width="1.1016" stroke-miterlimit="1.5" stroke-linejoin="round"/>
<path d="M94.876 34.2148L90.5777 43.0976" stroke="#242728" stroke-width="1.1016" stroke-miterlimit="1.5" stroke-linejoin="round"/>
<path fill-rule="evenodd" clip-rule="evenodd" d="M119.935 76.1858C116.989 77.6467 116.145 80.8576 117.82 83.4246Z" fill="#FF85D0"/>
<path d="M119.935 76.1858C116.989 77.6467 116.145 80.8576 117.82 83.4246" stroke="#242728" stroke-width="1.1016" stroke-miterlimit="1.5" stroke-linejoin="round"/>
<path fill-rule="evenodd" clip-rule="evenodd" d="M58.7249 101.24C58.7249 101.24 62.1395 108.43 63.9306 112.198C64.6323 113.676 65.0032 115.289 65.0221 116.924C65.0753 121.921 65.1876 132.717 65.1876 132.717C65.1882 136.164 60.375 138.96 54.4438 138.959C48.5151 138.957 43.6993 136.158 43.6986 132.712" fill="#FF85D0"/>
<path d="M58.7249 101.24C58.7249 101.24 62.1395 108.43 63.9306 112.198C64.6323 113.676 65.0032 115.289 65.0221 116.924C65.0753 121.921 65.1876 132.717 65.1876 132.717C65.1882 136.164 60.375 138.96 54.4438 138.959C48.5151 138.957 43.6993 136.158 43.6986 132.712" stroke="#242728" stroke-width="1.1016" stroke-miterlimit="1.5" stroke-linejoin="round"/>
<path fill-rule="evenodd" clip-rule="evenodd" d="M80.8528 119.498C80.8989 123.837 80.9467 128.427 80.9467 128.427C80.9473 131.54 76.5995 134.066 71.242 134.065C69.0251 134.064 66.9784 133.63 65.3422 132.901" fill="#FF85D0"/>
<path d="M80.8528 119.498C80.8989 123.837 80.9467 128.427 80.9467 128.427C80.9473 131.54 76.5995 134.066 71.242 134.065C69.0251 134.064 66.9784 133.63 65.3422 132.901" stroke="#242728" stroke-width="1.1016" stroke-miterlimit="1.5" stroke-linejoin="round"/>
<path d="M43.8074 119.895L43.6956 132.908" stroke="#242728" stroke-width="1.1016" stroke-miterlimit="1.5" stroke-linejoin="round"/>
<path fill-rule="evenodd" clip-rule="evenodd" d="M93.3179 94.683C94.3066 94.1594 95.511 94.2727 96.3833 94.9712C99.8484 97.7328 103.474 98.8165 107.17 99.1457C107.641 99.1907 108.02 99.5546 108.081 100.024C108.144 100.493 107.874 100.945 107.431 101.112C103.228 102.726 98.8917 102.94 94.4102 101.673C90.9808 100.702 90.7036 96.0742 93.3179 94.683Z" fill="white" stroke="#242728" stroke-width="1.1016" stroke-miterlimit="1.5" stroke-linejoin="round"/>
<path fill-rule="evenodd" clip-rule="evenodd" d="M95.7951 94.6234C94.0574 93.5879 93.1308 92.5092 91.9703 91.277Z" fill="#FF85D0"/>
<path d="M95.7951 94.6234C94.0574 93.5879 93.1308 92.5092 91.9703 91.277" stroke="#242728" stroke-width="1.1016" stroke-miterlimit="1.5" stroke-linejoin="round"/>
<path fill-rule="evenodd" clip-rule="evenodd" d="M94.2012 101.622C92.2381 101.126 90.1838 100.083 88.7191 99.233Z" fill="#FF85D0"/>
<path d="M94.2012 101.622C92.2381 101.126 90.1838 100.083 88.7191 99.233" stroke="#242728" stroke-width="1.1016" stroke-miterlimit="1.5" stroke-linejoin="round"/>
<path fill-rule="evenodd" clip-rule="evenodd" d="M95.1843 82.6193C96.2828 79.6384 97.8811 77.5034 101.591 77.8948C102.511 77.9651 104.14 78.0288 107.028 78.0353C111.517 78.0452 115.957 77.5393 119.904 76.2004C124.907 74.5027 129.116 71.4663 131.623 66.4448C131.749 66.1931 131.215 62.8564 131.333 62.5995C133.006 59.6258 135.422 59.1264 136.589 59.0279C140.387 58.7073 144.991 60.8929 146.735 65.7636C147.813 68.7734 146.696 71.7163 146.582 72.2484C144.754 80.7458 136.503 90.0085 125.205 95.4026C121.858 97.0006 118.243 98.2592 114.449 99.0576C112.37 99.4951 110.238 99.7944 108.065 99.9359" fill="#FF85D0"/>
<path d="M95.1843 82.6193C96.2828 79.6384 97.8811 77.5034 101.591 77.8948C102.511 77.9651 104.14 78.0288 107.028 78.0353C111.517 78.0452 115.957 77.5393 119.904 76.2004C124.907 74.5027 129.116 71.4663 131.623 66.4448C131.749 66.1931 131.215 62.8564 131.333 62.5995C133.006 59.6258 135.422 59.1264 136.589 59.0279C140.387 58.7073 144.991 60.8929 146.735 65.7636C147.813 68.7734 146.696 71.7163 146.582 72.2484C144.754 80.7458 136.503 90.0085 125.205 95.4026C121.858 97.0006 118.243 98.2592 114.449 99.0576C112.37 99.4951 110.238 99.7944 108.065 99.9359" stroke="#242728" stroke-width="1.1016" stroke-miterlimit="1.5" stroke-linejoin="round"/>
<defs>
<linearGradient id="paint0_linear_713_954" x1="137.974" y1="33.6787" x2="144.073" y2="66.1104" gradientUnits="userSpaceOnUse">
<stop stop-color="#3CCC8C"/>
<stop offset="1" stop-color="#12D2A4"/>
</linearGradient>
</defs>
</svg>
