<svg width="1016" height="644" viewBox="0 0 1016 644" fill="none" xmlns="http://www.w3.org/2000/svg">
<rect width="1016" height="644" fill="#5D5FEF"/>
<path fill-rule="evenodd" clip-rule="evenodd" d="M356.365 322.918C340.559 324.109 325.37 320.675 312.542 309.758C311.898 309.204 309.447 299.366 308.817 298.792C308.741 298.736 308.665 298.681 308.595 298.625L294.694 249.679C293.635 245.962 294.597 241.953 297.228 239.122L338.524 194.627C339.881 193.166 341.93 192.543 343.875 193.014C345.821 193.478 347.365 194.959 347.912 196.884L375.722 294.811C376.781 298.536 375.812 302.551 373.174 305.389L356.877 322.877C356.704 322.891 356.538 322.904 356.365 322.918Z" fill="#E9FC87"/>
<path fill-rule="evenodd" clip-rule="evenodd" d="M476.736 465.438C480.537 467.978 484.857 470.92 487.246 472.45C497.028 478.716 508.873 480.89 520.241 478.508C523.744 477.774 529.428 476.957 534.212 476.085C532.488 480.848 531.574 485.881 531.519 490.976L531.498 493.337C529.532 502.545 517.389 510.271 503.065 511.019C487.696 511.822 475.594 504.29 476.065 494.21L476.736 465.438Z" fill="#FF85D0"/>
<path fill-rule="evenodd" clip-rule="evenodd" d="M394.525 471.217C389.955 458.52 390.302 443.996 399.842 439.33L400.866 438.776C410.289 435.695 421.947 444.979 426.952 459.6C431.958 474.222 428.427 488.705 419.088 492.042C419.039 492.056 418.991 492.077 418.942 492.09C408.717 494.929 399.129 483.997 394.525 471.217Z" fill="#FF85D0"/>
<path fill-rule="evenodd" clip-rule="evenodd" d="M391.534 410.945C392.192 411.485 392.891 411.998 393.625 412.461L419.129 428.807L399.842 439.33C390.302 443.996 389.955 458.521 394.525 471.218C381.322 466.614 373.188 456.43 376.345 448.42L391.534 410.945Z" fill="#FF85D0"/>
<path fill-rule="evenodd" clip-rule="evenodd" d="M308.596 298.626C308.665 298.682 308.741 298.737 308.817 298.792C309.447 299.367 311.898 309.205 312.542 309.759C325.37 320.676 340.559 324.11 356.365 322.919C356.51 322.926 356.662 322.933 356.808 322.947L356.877 322.878C368.266 321.943 379.959 318.627 391.306 313.988L405.989 167.455C406.945 157.908 413.937 150.064 423.304 148.022L515.049 127.986C526.583 125.466 538.642 127.654 548.556 134.058L642.509 194.794C649.488 199.301 653.358 207.339 652.527 215.605L651.246 228.433L658.322 229.541C670.056 231.389 678.558 241.718 678.115 253.585L675.387 327.239C675.027 336.807 669.094 345.274 660.226 348.874C653.309 351.671 645.618 351.11 639.29 347.593C636.341 377.217 632.879 415.578 632.879 415.578C632.056 426.516 630.872 435.267 629.356 442.169C628.144 447.701 626.067 453.011 623.194 457.892C617.856 466.968 606.849 484.892 595.523 499.063V535.936C595.523 546.286 581.074 554.683 563.289 554.683C545.503 554.683 531.062 546.286 531.062 535.936L531.519 490.977C531.574 485.881 532.488 480.849 534.212 476.085C529.428 476.958 523.744 477.775 520.241 478.509C508.873 480.89 497.028 478.716 487.246 472.451C484.857 470.921 480.537 467.979 476.736 465.438C476.439 465.237 476.141 465.043 475.85 464.849C458.086 476.079 439.109 485.037 419.088 492.043C428.427 488.706 431.958 474.223 426.953 459.602C421.947 444.98 410.289 435.696 400.866 438.777L419.129 428.808L393.625 412.462C392.891 411.999 392.192 411.486 391.534 410.946C385.836 406.28 382.783 399.039 383.531 391.603C383.759 389.291 384.022 385.137 384.299 381.675C339.168 385.961 295.788 368.425 278.113 343.377C277.165 342.041 270.622 335.229 270.055 325.647C269.127 310.146 279.256 298.695 290.111 295.109C293.413 294.022 300.565 292.575 308.596 298.626Z" fill="#FF85D0"/>
<path fill-rule="evenodd" clip-rule="evenodd" d="M480.952 135.427L423.304 148.02C413.937 150.062 406.945 157.906 405.989 167.453L402.251 204.755C400.672 203.869 397.287 201.799 395.245 199.265C390.862 193.823 389.969 184.519 391.52 177.699L396.969 154.306L409.257 100.417C411.209 91.8464 417.987 85.2 426.599 83.4208C435.212 81.6416 444.073 85.0478 449.266 92.1439L480.952 135.427Z" fill="#FF85D0"/>
<path d="M474.954 465.853C479.114 468.519 482.961 470.987 486.361 473.165C496.141 479.432 507.99 481.611 519.359 479.227C523.573 478.343 528.367 477.34 533.529 476.258M650.315 229.163L651.598 216.336C652.425 208.069 648.555 200.033 641.577 195.521C619.819 181.455 572.257 150.705 547.615 134.776C537.702 128.366 525.64 126.176 514.111 128.693C489.487 134.068 445.73 143.619 422.373 148.716C413.004 150.76 406.013 158.605 405.058 168.15L390.399 314.685M383.629 382.352L382.634 392.298C381.804 400.598 385.706 408.665 392.733 413.166C399.33 417.394 408.286 423.132 418.238 429.512M586.627 509.034C600.458 494.579 615.696 469.833 622.3 458.628C625.167 453.743 627.247 448.437 628.463 442.903C629.964 435.999 631.157 427.253 631.981 416.314C631.981 416.314 635.396 378.287 638.392 348.339" stroke="#242728" stroke-width="4" stroke-miterlimit="1.5" stroke-linejoin="round"/>
<path d="M443.549 175.781C479.461 198.797 482.413 200.685 509.567 218.087C520.736 225.242 534.265 227.728 547.244 225.011" stroke="#242728" stroke-width="4" stroke-miterlimit="1.5" stroke-linejoin="round"/>
<path d="M402.195 205.928C402.195 205.928 397.053 203.365 394.322 199.975C389.938 194.529 389.047 185.222 390.597 178.404L396.042 155.008C399.794 138.542 404.292 118.812 408.321 101.116C410.276 92.5418 417.057 85.8997 425.664 84.1177C434.277 82.338 443.131 85.747 448.33 92.8461C459.423 108.003 471.537 124.548 480.445 136.718" stroke="#242728" stroke-width="4" stroke-miterlimit="1.5" stroke-linejoin="round"/>
<path d="M579.736 218.022C579.736 218.022 628.588 225.706 657.384 230.237C669.119 232.083 677.62 242.411 677.181 254.281C676.478 273.329 675.397 302.361 674.449 327.936C674.098 337.501 668.161 345.969 659.287 349.565C650.419 353.16 640.262 351.215 633.344 344.596C618.334 330.227 604.737 317.206 604.737 317.206" stroke="#242728" stroke-width="4" stroke-miterlimit="1.5" stroke-linejoin="round"/>
<path d="M675.755 304.554C677.203 303.637 678.77 302.81 680.483 302.106C688.787 298.704 697.639 301.166 705.004 300.619" stroke="#242728" stroke-width="4" stroke-miterlimit="1.5" stroke-linejoin="round"/>
<path fill-rule="evenodd" clip-rule="evenodd" d="M723.662 303.179C723.366 306.101 711.186 307.25 708.262 306.954C705.338 306.658 703.204 304.047 703.499 301.125C703.795 298.198 706.409 296.066 709.333 296.362C712.257 296.658 723.958 300.252 723.662 303.179Z" fill="#FF85D0" stroke="#242728" stroke-width="4" stroke-miterlimit="1.5" stroke-linejoin="round"/>
<path d="M407.937 306.76C405.483 308.036 401.063 310.129 393.103 313.546C365.046 325.587 334.554 330.005 311.612 310.472C310.969 309.924 308.515 300.079 307.886 299.509C299.772 293.263 292.519 294.727 289.184 295.828C278.33 299.411 268.202 310.865 269.123 326.372C269.692 335.954 276.237 342.768 277.179 344.103C304.955 383.47 396.214 404.278 457.992 350.953" stroke="#242728" stroke-width="4" stroke-miterlimit="1.5" stroke-linejoin="round"/>
<path d="M355.326 323.598C365.174 324.171 371.284 332.049 369.69 341.107" stroke="#242728" stroke-width="4" stroke-miterlimit="1.5" stroke-linejoin="round"/>
<path fill-rule="evenodd" clip-rule="evenodd" d="M454.543 365.351C450.35 363.814 445.649 364.915 442.579 368.152C430.374 380.959 416.626 387.212 402.192 390.517C400.352 390.95 399.051 392.596 399.064 394.486C399.07 396.377 400.382 398.02 402.225 398.44C419.717 402.549 436.977 401.049 454.01 393.605C467.044 387.906 465.633 369.441 454.543 365.351Z" fill="white" stroke="#242728" stroke-width="4" stroke-miterlimit="1.5" stroke-linejoin="round"/>
<path d="M444.706 366.403C451.016 361.363 454.095 356.592 458.016 351.086" stroke="#242728" stroke-width="4" stroke-miterlimit="1.5" stroke-linejoin="round"/>
<path d="M458.051 391.688C465.537 388.663 469.851 384.971 475.181 380.815" stroke="#242728" stroke-width="4" stroke-miterlimit="1.5" stroke-linejoin="round"/>
<path d="M549.479 442.131C549.479 442.131 540.475 461.121 534.931 472.81C532.139 478.709 530.654 485.142 530.591 491.671C530.427 507.477 530.138 536.638 530.138 536.638C530.141 546.987 544.58 555.39 562.37 555.395C580.151 555.397 594.591 546.999 594.589 536.65L594.579 500.873" stroke="#242728" stroke-width="4" stroke-miterlimit="1.5" stroke-linejoin="round"/>
<path d="M390.712 411.35L375.411 449.114C372.236 457.175 380.479 467.424 393.812 471.99" stroke="#242728" stroke-width="4" stroke-miterlimit="1.5" stroke-linejoin="round"/>
<path d="M475.808 466.619L475.131 494.902C474.666 504.986 486.764 512.522 502.136 511.722C517.502 510.92 530.359 502.085 530.824 492" stroke="#242728" stroke-width="4" stroke-miterlimit="1.5" stroke-linejoin="round"/>
<path d="M399.78 439.518C409.229 436.284 420.989 445.592 426.02 460.291C431.05 474.99 427.459 489.552 418.009 492.786" stroke="#242728" stroke-width="4" stroke-miterlimit="1.5" stroke-linejoin="round"/>
<path d="M440.202 417.494L398.916 440.031C379.783 449.387 397.644 498.457 418.02 492.802C447.492 482.505 474.712 467.989 499.114 448.198" stroke="#242728" stroke-width="4" stroke-miterlimit="1.5" stroke-linejoin="round"/>
<path d="M311.634 310.242C311.634 310.242 299.622 269.389 294.603 252.317C293.26 247.741 294.381 242.798 297.559 239.246C306.614 229.153 325.528 208.065 336.508 195.818C338.211 193.928 340.801 193.104 343.279 193.658C345.757 194.219 347.737 196.081 348.464 198.518C355.401 222.022 370.542 273.335 376.205 292.505C377.562 297.109 376.42 302.094 373.194 305.653C367.295 312.146 358.496 321.839 358.496 321.839" stroke="#242728" stroke-width="4" stroke-miterlimit="1.5" stroke-linecap="round" stroke-linejoin="round"/>
<path d="M316.5 305C316.5 305 306.238 270.687 301.219 253.615C299.876 249.039 299.185 246.5 304.463 241.222C307.398 237.955 310.5 234.5 310.5 234.5" stroke="#242728" stroke-width="4" stroke-miterlimit="1.5" stroke-linecap="round" stroke-linejoin="round"/>
<path d="M324.411 238.178L311.912 251.645" stroke="#242728" stroke-width="4" stroke-miterlimit="1.5" stroke-linecap="round" stroke-linejoin="round"/>
<path d="M335.671 272.137L323.172 285.604" stroke="#242728" stroke-width="4" stroke-miterlimit="1.5" stroke-linecap="round" stroke-linejoin="round"/>
<path d="M346.886 260.87L340.605 267.637" stroke="#242728" stroke-width="4" stroke-miterlimit="1.5" stroke-linecap="round" stroke-linejoin="round"/>
<path d="M330.839 259.516L318.341 272.982" stroke="#242728" stroke-width="4" stroke-miterlimit="1.5" stroke-linecap="round" stroke-linejoin="round"/>
<path d="M342.099 293.467L329.6 306.934" stroke="#242728" stroke-width="4" stroke-miterlimit="1.5" stroke-linecap="round" stroke-linejoin="round"/>
<path d="M341.488 236.856L328.99 250.322" stroke="#242728" stroke-width="4" stroke-miterlimit="1.5" stroke-linecap="round" stroke-linejoin="round"/>
<path d="M340.609 282.581L334.001 289.699" stroke="#242728" stroke-width="4" stroke-miterlimit="1.5" stroke-linecap="round" stroke-linejoin="round"/>
<path d="M352.53 270.555L345.923 277.674" stroke="#242728" stroke-width="4" stroke-miterlimit="1.5" stroke-linecap="round" stroke-linejoin="round"/>
</svg>
