<svg width="360" height="180" viewBox="0 0 360 180" fill="none" xmlns="http://www.w3.org/2000/svg">
<rect width="360" height="180" fill="#5D5FEF"/>
<path fill-rule="evenodd" clip-rule="evenodd" d="M135.821 90.2557C131.19 90.5843 126.74 89.6366 122.981 86.6233C122.793 86.4705 122.074 83.7553 121.89 83.5967C121.868 83.5814 121.845 83.5661 121.825 83.5508L117.752 70.0417C117.441 69.0156 117.723 67.9093 118.494 67.1278L130.594 54.8473C130.992 54.4441 131.592 54.2721 132.162 54.402C132.732 54.5301 133.184 54.9389 133.345 55.4701L141.493 82.498C141.803 83.526 141.519 84.6342 140.746 85.4176L135.971 90.2443C135.921 90.2481 135.872 90.2518 135.821 90.2557Z" fill="#E9FC87"/>
<path fill-rule="evenodd" clip-rule="evenodd" d="M171.09 129.59C172.204 130.291 173.47 131.103 174.17 131.525C177.036 133.255 180.506 133.855 183.837 133.197C184.864 132.995 186.529 132.769 187.931 132.529C187.426 133.843 187.158 135.232 187.142 136.639L187.135 137.29C186.559 139.832 183.001 141.964 178.805 142.17C174.301 142.392 170.756 140.313 170.894 137.531L171.09 129.59Z" fill="#FF85D0"/>
<path fill-rule="evenodd" clip-rule="evenodd" d="M147.002 131.187C145.663 127.683 145.765 123.674 148.56 122.386L148.86 122.233C151.621 121.383 155.037 123.945 156.503 127.981C157.97 132.016 156.935 136.014 154.199 136.935C154.185 136.938 154.171 136.944 154.156 136.948C151.16 137.731 148.351 134.714 147.002 131.187Z" fill="#FF85D0"/>
<path fill-rule="evenodd" clip-rule="evenodd" d="M146.126 114.551C146.318 114.7 146.523 114.841 146.738 114.969L154.211 119.481L148.56 122.385C145.765 123.673 145.663 127.682 147.002 131.186C143.134 129.915 140.75 127.105 141.675 124.894L146.126 114.551Z" fill="#FF85D0"/>
<path fill-rule="evenodd" clip-rule="evenodd" d="M121.825 83.5504C121.845 83.5657 121.868 83.581 121.89 83.5963C122.074 83.7549 122.793 86.4701 122.981 86.6229C126.74 89.6362 131.19 90.5839 135.821 90.2553C135.864 90.2572 135.909 90.2591 135.951 90.2629L135.971 90.2439C139.308 89.9859 142.734 89.0706 146.059 87.7904L150.361 47.3471C150.641 44.7122 152.69 42.5472 155.435 41.9835L182.316 36.4538C185.695 35.7582 189.229 36.362 192.133 38.1295L219.662 54.8927C221.706 56.1366 222.84 58.355 222.597 60.6365L222.222 64.1771L224.295 64.4828C227.733 64.993 230.224 67.8439 230.094 71.1189L229.295 91.4476C229.189 94.0883 227.451 96.4252 224.853 97.4188C222.826 98.1907 220.572 98.0359 218.718 97.0653C217.854 105.241 216.84 115.829 216.84 115.829C216.599 118.848 216.252 121.263 215.808 123.168C215.453 124.695 214.844 126.161 214.002 127.508C212.438 130.013 209.213 134.96 205.895 138.871V149.048C205.895 151.904 201.661 154.222 196.45 154.222C191.239 154.222 187.007 151.904 187.007 149.048L187.141 136.639C187.158 135.233 187.425 133.844 187.93 132.529C186.529 132.77 184.863 132.995 183.837 133.198C180.506 133.855 177.036 133.255 174.169 131.526C173.47 131.104 172.204 130.292 171.09 129.59C171.003 129.535 170.916 129.481 170.831 129.428C165.625 132.527 160.065 135 154.199 136.933C156.936 136.012 157.97 132.015 156.504 127.98C155.037 123.944 151.621 121.382 148.86 122.232L154.211 119.481L146.738 114.969C146.523 114.841 146.319 114.7 146.126 114.551C144.456 113.263 143.562 111.264 143.781 109.212C143.848 108.574 143.925 107.427 144.006 106.472C130.783 107.655 118.072 102.815 112.894 95.9016C112.616 95.5329 110.699 93.6527 110.532 91.0082C110.261 86.73 113.228 83.5695 116.409 82.5797C117.377 82.2797 119.472 81.8804 121.825 83.5504Z" fill="#FF85D0"/>
<path fill-rule="evenodd" clip-rule="evenodd" d="M172.326 38.5076L155.435 41.9833C152.69 42.547 150.641 44.712 150.361 47.3469L149.266 57.6421C148.804 57.3975 147.812 56.8262 147.213 56.1268C145.929 54.625 145.668 52.0569 146.122 50.1748L147.718 43.7183L151.319 28.8449C151.891 26.4794 153.877 24.645 156.4 24.1539C158.924 23.6629 161.52 24.603 163.041 26.5615L172.326 38.5076Z" fill="#FF85D0"/>
<path d="M170.568 129.704C171.787 130.44 172.914 131.121 173.91 131.722C176.775 133.452 180.247 134.053 183.578 133.395C184.813 133.151 186.218 132.875 187.73 132.576M221.948 64.3778L222.324 60.8376C222.567 58.556 221.433 56.3378 219.388 55.0926C213.013 51.2103 199.077 42.7233 191.857 38.3269C188.953 36.5579 185.419 35.9534 182.041 36.6482C174.826 38.1315 162.005 40.7677 155.161 42.1745C152.416 42.7385 150.368 44.9037 150.088 47.5383L145.793 87.9818M143.809 106.658L143.518 109.403C143.275 111.694 144.418 113.92 146.477 115.163C148.41 116.33 151.034 117.913 153.95 119.674M203.288 141.622C207.34 137.633 211.805 130.803 213.74 127.71C214.58 126.362 215.189 124.897 215.546 123.37C215.986 121.464 216.335 119.051 216.577 116.031C216.577 116.031 217.577 105.536 218.455 97.2704" stroke="#242728" stroke-width="2" stroke-miterlimit="1.5" stroke-linejoin="round"/>
<path d="M161.366 49.6445C171.888 55.9969 172.753 56.5181 180.709 61.321C183.982 63.2957 187.946 63.9817 191.749 63.2319" stroke="#242728" stroke-width="2" stroke-miterlimit="1.5" stroke-linejoin="round"/>
<path d="M149.249 57.9658C149.249 57.9658 147.743 57.2583 146.943 56.3227C145.658 54.8197 145.397 52.2509 145.851 50.3691L147.447 43.9118C148.546 39.3672 149.864 33.9217 151.044 29.0376C151.617 26.6711 153.604 24.8379 156.126 24.346C158.649 23.8548 161.244 24.7957 162.767 26.7551C166.017 30.9383 169.567 35.5049 172.177 38.8637" stroke="#242728" stroke-width="2" stroke-miterlimit="1.5" stroke-linejoin="round"/>
<path d="M201.269 61.3037C201.269 61.3037 215.583 63.4246 224.02 64.6751C227.458 65.1846 229.949 68.0351 229.821 71.3114C229.615 76.5686 229.298 84.5813 229.02 91.6402C228.917 94.2801 227.178 96.6172 224.578 97.6097C221.979 98.602 219.003 98.0651 216.976 96.2384C212.578 92.2724 208.595 88.6787 208.595 88.6787" stroke="#242728" stroke-width="2" stroke-miterlimit="1.5" stroke-linejoin="round"/>
<path d="M229.403 85.1861C229.827 84.933 230.286 84.7049 230.788 84.5103C233.221 83.5716 235.815 84.2509 237.973 84.1002" stroke="#242728" stroke-width="2" stroke-miterlimit="1.5" stroke-linejoin="round"/>
<path fill-rule="evenodd" clip-rule="evenodd" d="M243.439 84.8063C243.353 85.6128 239.784 85.93 238.927 85.8484C238.07 85.7667 237.445 85.046 237.532 84.2395C237.618 83.4316 238.384 82.8434 239.241 82.925C240.098 83.0066 243.526 83.9985 243.439 84.8063Z" fill="#FF85D0" stroke="#242728" stroke-width="2" stroke-miterlimit="1.5" stroke-linejoin="round"/>
<path d="M150.932 85.7956C150.213 86.1478 148.918 86.7255 146.586 87.6685C138.365 90.9919 129.431 92.2112 122.709 86.82C122.52 86.6689 121.801 83.9518 121.617 83.7943C119.24 82.0705 117.115 82.4744 116.137 82.7784C112.957 83.7673 109.99 86.9287 110.259 91.2084C110.426 93.853 112.344 95.7338 112.62 96.1023C120.758 106.968 147.497 112.71 165.598 97.9928" stroke="#242728" stroke-width="2" stroke-miterlimit="1.5" stroke-linejoin="round"/>
<path d="M135.517 90.4431C138.403 90.6013 140.193 92.7755 139.726 95.2756" stroke="#242728" stroke-width="2" stroke-miterlimit="1.5" stroke-linejoin="round"/>
<path fill-rule="evenodd" clip-rule="evenodd" d="M164.587 101.967C163.359 101.543 161.982 101.847 161.082 102.74C157.506 106.275 153.477 108.001 149.249 108.913C148.709 109.033 148.328 109.487 148.332 110.008C148.334 110.53 148.718 110.984 149.258 111.1C154.383 112.234 159.441 111.82 164.431 109.765C168.25 108.192 167.837 103.096 164.587 101.967Z" fill="white" stroke="#242728" stroke-width="2" stroke-miterlimit="1.5" stroke-linejoin="round"/>
<path d="M161.705 102.255C163.554 100.865 164.456 99.5476 165.605 98.028" stroke="#242728" stroke-width="2" stroke-miterlimit="1.5" stroke-linejoin="round"/>
<path d="M165.616 109.234C167.809 108.399 169.073 107.38 170.635 106.233" stroke="#242728" stroke-width="2" stroke-miterlimit="1.5" stroke-linejoin="round"/>
<path d="M192.404 123.158C192.404 123.158 189.766 128.399 188.141 131.625C187.323 133.253 186.888 135.029 186.869 136.831C186.821 141.193 186.737 149.241 186.737 149.241C186.737 152.098 190.968 154.417 196.181 154.418C201.391 154.419 205.621 152.101 205.621 149.245L205.618 139.371" stroke="#242728" stroke-width="2" stroke-miterlimit="1.5" stroke-linejoin="round"/>
<path d="M145.885 114.662L141.402 125.085C140.471 127.31 142.887 130.139 146.793 131.399" stroke="#242728" stroke-width="2" stroke-miterlimit="1.5" stroke-linejoin="round"/>
<path d="M170.818 129.918L170.62 137.724C170.483 140.507 174.028 142.587 178.532 142.366C183.034 142.145 186.801 139.706 186.938 136.923" stroke="#242728" stroke-width="2" stroke-miterlimit="1.5" stroke-linejoin="round"/>
<path d="M148.542 122.438C151.311 121.545 154.757 124.114 156.23 128.171C157.704 132.228 156.652 136.247 153.883 137.139" stroke="#242728" stroke-width="2" stroke-miterlimit="1.5" stroke-linejoin="round"/>
<path d="M160.385 116.358L148.289 122.578C142.683 125.16 147.916 138.703 153.886 137.143C162.522 134.301 170.497 130.294 177.647 124.832" stroke="#242728" stroke-width="2" stroke-miterlimit="1.5" stroke-linejoin="round"/>
<path d="M122.715 86.7554C122.715 86.7554 119.196 75.48 117.725 70.768C117.331 69.505 117.66 68.1407 118.591 67.1605C121.244 64.3746 126.786 58.5544 130.003 55.1742C130.502 54.6526 131.261 54.4252 131.987 54.5781C132.713 54.7328 133.293 55.2468 133.506 55.9194C135.539 62.4065 139.975 76.5691 141.634 81.86C142.032 83.1306 141.697 84.5064 140.752 85.4886C139.024 87.2809 136.446 89.9559 136.446 89.9559" stroke="#242728" stroke-width="2" stroke-miterlimit="1.5" stroke-linecap="round" stroke-linejoin="round"/>
<path d="M124.141 85.3096C124.141 85.3096 121.134 75.8393 119.664 71.1273C119.27 69.8643 119.068 69.1636 120.614 67.7069C121.474 66.805 122.383 65.8516 122.383 65.8516" stroke="#242728" stroke-width="2" stroke-miterlimit="1.5" stroke-linecap="round" stroke-linejoin="round"/>
<path d="M126.459 66.8673L122.797 70.584" stroke="#242728" stroke-width="2" stroke-miterlimit="1.5" stroke-linecap="round" stroke-linejoin="round"/>
<path d="M129.758 76.2403L126.096 79.957" stroke="#242728" stroke-width="2" stroke-miterlimit="1.5" stroke-linecap="round" stroke-linejoin="round"/>
<path d="M133.044 73.1284L131.204 74.9961" stroke="#242728" stroke-width="2" stroke-miterlimit="1.5" stroke-linecap="round" stroke-linejoin="round"/>
<path d="M128.342 72.7559L124.68 76.4727" stroke="#242728" stroke-width="2" stroke-miterlimit="1.5" stroke-linecap="round" stroke-linejoin="round"/>
<path d="M131.642 82.127L127.979 85.8438" stroke="#242728" stroke-width="2" stroke-miterlimit="1.5" stroke-linecap="round" stroke-linejoin="round"/>
<path d="M131.462 66.502L127.8 70.2188" stroke="#242728" stroke-width="2" stroke-miterlimit="1.5" stroke-linecap="round" stroke-linejoin="round"/>
<path d="M131.205 79.1212L129.269 81.0859" stroke="#242728" stroke-width="2" stroke-miterlimit="1.5" stroke-linecap="round" stroke-linejoin="round"/>
<path d="M134.698 75.8028L132.762 77.7676" stroke="#242728" stroke-width="2" stroke-miterlimit="1.5" stroke-linecap="round" stroke-linejoin="round"/>
</svg>
