<svg width="3080" height="1500" viewBox="0 0 3080 1500" fill="none" xmlns="http://www.w3.org/2000/svg">
<rect width="3080" height="1500" fill="#5D5FEF"/>
<path fill-rule="evenodd" clip-rule="evenodd" d="M1204.16 748.417C1169.43 750.882 1136.05 743.775 1107.86 721.175C1106.44 720.028 1101.06 699.665 1099.67 698.475C1099.51 698.361 1099.34 698.246 1099.19 698.131L1068.64 596.813C1066.31 589.117 1068.43 580.82 1074.21 574.958L1164.95 482.855C1167.94 479.831 1172.44 478.541 1176.71 479.515C1180.99 480.476 1184.38 483.542 1185.58 487.526L1246.7 690.235C1249.02 697.945 1246.89 706.257 1241.1 712.132L1205.29 748.332C1204.91 748.361 1204.54 748.389 1204.16 748.417Z" fill="#E9FC87"/>
<path fill-rule="evenodd" clip-rule="evenodd" d="M1468.68 1043.45C1477.03 1048.71 1486.52 1054.8 1491.77 1057.97C1513.27 1070.94 1539.3 1075.44 1564.28 1070.51C1571.98 1068.99 1584.47 1067.3 1594.98 1065.49C1591.19 1075.35 1589.18 1085.77 1589.06 1096.32L1589.02 1101.21C1584.69 1120.27 1558.01 1136.26 1526.53 1137.81C1492.76 1139.47 1466.17 1123.88 1467.2 1103.01L1468.68 1043.45Z" fill="#FF85D0"/>
<path fill-rule="evenodd" clip-rule="evenodd" d="M1288.02 1055.4C1277.97 1029.12 1278.73 999.055 1299.7 989.396L1301.95 988.249C1322.66 981.872 1348.28 1001.09 1359.28 1031.36C1370.27 1061.62 1362.52 1091.6 1341.99 1098.51C1341.89 1098.54 1341.78 1098.58 1341.67 1098.61C1319.2 1104.49 1298.13 1081.86 1288.02 1055.4Z" fill="#FF85D0"/>
<path fill-rule="evenodd" clip-rule="evenodd" d="M1281.44 930.66C1282.89 931.778 1284.42 932.838 1286.04 933.799L1342.08 967.633L1299.7 989.416C1278.73 999.075 1277.97 1029.14 1288.01 1055.42C1259 1045.89 1241.13 1024.81 1248.06 1008.23L1281.44 930.66Z" fill="#FF85D0"/>
<path fill-rule="evenodd" clip-rule="evenodd" d="M1099.19 698.128C1099.34 698.243 1099.51 698.358 1099.67 698.472C1101.06 699.662 1106.44 720.025 1107.86 721.172C1136.05 743.772 1169.43 750.879 1204.16 748.414C1204.48 748.429 1204.81 748.443 1205.13 748.472L1205.28 748.329C1230.31 746.394 1256.01 739.529 1280.94 729.928L1313.21 426.603C1315.31 406.841 1330.67 390.604 1351.26 386.376L1552.87 344.903C1578.21 339.687 1604.71 344.215 1626.5 357.471L1832.96 483.195C1848.3 492.524 1856.8 509.163 1854.98 526.274L1852.16 552.828L1867.71 555.121C1893.5 558.947 1912.18 580.329 1911.2 604.892L1905.21 757.357C1904.42 777.162 1891.38 794.689 1871.89 802.141C1856.69 807.93 1839.79 806.769 1825.89 799.489C1819.41 860.811 1811.8 940.218 1811.8 940.218C1809.99 962.861 1807.39 980.974 1804.06 995.262C1801.39 1006.71 1796.83 1017.7 1790.52 1027.81C1778.79 1046.6 1754.6 1083.7 1729.71 1113.03V1189.36C1729.71 1210.78 1697.96 1228.17 1658.87 1228.17C1619.79 1228.17 1588.05 1210.78 1588.05 1189.36L1589.06 1096.29C1589.18 1085.75 1591.19 1075.33 1594.98 1065.47C1584.46 1067.27 1571.97 1068.97 1564.28 1070.48C1539.3 1075.41 1513.27 1070.91 1491.77 1057.95C1486.52 1054.78 1477.03 1048.69 1468.67 1043.43C1468.02 1043.01 1467.37 1042.61 1466.73 1042.21C1427.69 1065.45 1385.99 1084 1341.99 1098.5C1362.52 1091.59 1370.27 1061.61 1359.28 1031.35C1348.28 1001.08 1322.66 981.863 1301.95 988.24L1342.08 967.604L1286.04 933.769C1284.42 932.809 1282.89 931.748 1281.44 930.631C1268.92 920.972 1262.21 905.982 1263.86 890.591C1264.36 885.804 1264.94 877.205 1265.54 870.04C1166.37 878.911 1071.04 842.611 1032.2 790.762C1030.12 787.996 1015.74 773.895 1014.49 754.061C1012.45 721.975 1034.71 698.271 1058.57 690.848C1065.82 688.598 1081.54 685.603 1099.19 698.128Z" fill="#FF85D0"/>
<path fill-rule="evenodd" clip-rule="evenodd" d="M1477.94 360.32L1351.26 386.388C1330.68 390.615 1315.31 406.852 1313.21 426.615L1305 503.829C1301.53 501.994 1294.09 497.709 1289.6 492.464C1279.97 481.2 1278.01 461.94 1281.42 447.824L1293.39 399.4L1320.39 287.85C1324.68 270.108 1339.58 256.35 1358.5 252.667C1377.43 248.984 1396.9 256.035 1408.31 270.724L1477.94 360.32Z" fill="#FF85D0"/>
<path d="M1464.76 1044.31C1473.9 1049.83 1482.35 1054.94 1489.82 1059.45C1511.32 1072.42 1537.35 1076.93 1562.34 1071.99C1571.6 1070.17 1582.13 1068.09 1593.48 1065.85M1850.11 554.363L1852.93 527.812C1854.75 510.699 1846.25 494.063 1830.91 484.724C1783.1 455.607 1678.58 391.954 1624.43 358.981C1602.65 345.714 1576.14 341.18 1550.81 346.391C1496.69 357.515 1400.54 377.287 1349.21 387.838C1328.62 392.068 1313.26 408.307 1311.16 428.067L1278.95 731.393M1264.07 871.465L1261.88 892.053C1260.06 909.234 1268.64 925.931 1284.08 935.249C1298.57 944.002 1318.25 955.879 1340.12 969.085M1710.16 1133.7C1740.55 1103.77 1774.04 1052.55 1788.55 1029.36C1794.85 1019.24 1799.42 1008.26 1802.1 996.805C1805.39 982.513 1808.01 964.408 1809.83 941.764C1809.83 941.764 1817.33 863.05 1823.91 801.057" stroke="#242728" stroke-width="15" stroke-miterlimit="1.5" stroke-linejoin="round"/>
<path d="M1395.75 443.863C1474.66 491.506 1481.15 495.415 1540.82 531.437C1565.36 546.247 1595.1 551.392 1623.61 545.768" stroke="#242728" stroke-width="15" stroke-miterlimit="1.5" stroke-linejoin="round"/>
<path d="M1304.87 506.258C1304.87 506.258 1293.57 500.952 1287.57 493.935C1277.94 482.662 1275.98 463.396 1279.39 449.283L1291.35 400.853C1299.6 366.769 1309.48 325.927 1318.33 289.296C1322.63 271.548 1337.53 257.799 1356.45 254.11C1375.37 250.426 1394.83 257.483 1406.25 272.178C1430.63 303.552 1457.25 337.801 1476.83 362.992" stroke="#242728" stroke-width="15" stroke-miterlimit="1.5" stroke-linejoin="round"/>
<path d="M1695.02 531.291C1695.02 531.291 1802.37 547.197 1865.65 556.576C1891.44 560.397 1910.12 581.776 1909.15 606.349C1907.61 645.777 1905.23 705.873 1903.15 758.814C1902.38 778.613 1889.33 796.141 1869.83 803.586C1850.34 811.028 1828.02 807.001 1812.82 793.301C1779.84 763.556 1749.96 736.603 1749.96 736.603" stroke="#242728" stroke-width="15" stroke-miterlimit="1.5" stroke-linejoin="round"/>
<path d="M1906.02 710.396C1909.2 708.497 1912.65 706.787 1916.41 705.328C1934.66 698.287 1954.11 703.382 1970.3 702.251" stroke="#242728" stroke-width="15" stroke-miterlimit="1.5" stroke-linejoin="round"/>
<path fill-rule="evenodd" clip-rule="evenodd" d="M2011.29 707.577C2010.64 713.626 1983.88 716.004 1977.45 715.392C1971.03 714.78 1966.34 709.374 1966.99 703.325C1967.64 697.266 1973.38 692.854 1979.81 693.466C1986.23 694.079 2011.94 701.518 2011.29 707.577Z" fill="#FF85D0" stroke="#242728" stroke-width="15" stroke-miterlimit="1.5" stroke-linejoin="round"/>
<path d="M1317.49 714.996C1312.1 717.638 1302.38 721.971 1284.89 729.043C1223.24 753.968 1156.23 763.113 1105.82 722.68C1104.4 721.546 1099.01 701.167 1097.63 699.987C1079.8 687.058 1063.86 690.087 1056.53 692.367C1032.68 699.784 1010.42 723.495 1012.45 755.592C1013.7 775.427 1028.08 789.533 1030.15 792.297C1091.19 873.786 1291.73 916.858 1427.49 806.475" stroke="#242728" stroke-width="15" stroke-miterlimit="1.5" stroke-linejoin="round"/>
<path d="M1201.88 749.836C1223.52 751.023 1236.95 767.329 1233.44 786.08" stroke="#242728" stroke-width="15" stroke-miterlimit="1.5" stroke-linejoin="round"/>
<path fill-rule="evenodd" clip-rule="evenodd" d="M1419.91 836.253C1410.69 833.072 1400.36 835.351 1393.61 842.052C1366.79 868.562 1336.58 881.506 1304.86 888.347C1300.82 889.245 1297.96 892.651 1297.99 896.563C1298 900.478 1300.89 903.879 1304.94 904.749C1343.37 913.255 1381.3 910.148 1418.74 894.74C1447.38 882.942 1444.28 844.719 1419.91 836.253Z" fill="white" stroke="#242728" stroke-width="15" stroke-miterlimit="1.5" stroke-linejoin="round"/>
<path d="M1398.29 838.445C1412.15 828.013 1418.92 818.136 1427.54 806.74" stroke="#242728" stroke-width="15" stroke-miterlimit="1.5" stroke-linejoin="round"/>
<path d="M1427.62 890.788C1444.07 884.524 1453.55 876.882 1465.26 868.281" stroke="#242728" stroke-width="15" stroke-miterlimit="1.5" stroke-linejoin="round"/>
<path d="M1628.53 995.195C1628.53 995.195 1608.74 1034.5 1596.56 1058.7C1590.42 1070.91 1587.16 1084.23 1587.02 1097.74C1586.66 1130.46 1586.02 1190.82 1586.02 1190.82C1586.03 1212.25 1617.76 1229.64 1656.85 1229.65C1695.93 1229.65 1727.66 1212.27 1727.65 1190.85L1727.63 1116.79" stroke="#242728" stroke-width="15" stroke-miterlimit="1.5" stroke-linejoin="round"/>
<path d="M1279.64 931.48L1246.01 1009.65C1239.04 1026.34 1257.15 1047.55 1286.45 1057.01" stroke="#242728" stroke-width="15" stroke-miterlimit="1.5" stroke-linejoin="round"/>
<path d="M1466.63 1045.88L1465.15 1104.43C1464.12 1125.3 1490.71 1140.9 1524.49 1139.25C1558.26 1137.59 1586.51 1119.3 1587.53 1098.42" stroke="#242728" stroke-width="15" stroke-miterlimit="1.5" stroke-linejoin="round"/>
<path d="M1299.56 989.781C1320.33 983.087 1346.17 1002.35 1357.23 1032.78C1368.28 1063.21 1360.39 1093.35 1339.62 1100.05" stroke="#242728" stroke-width="15" stroke-miterlimit="1.5" stroke-linejoin="round"/>
<path d="M1388.39 944.212L1297.66 990.864C1255.62 1010.23 1294.87 1111.81 1339.64 1100.1C1404.41 1078.78 1464.22 1048.74 1517.85 1007.77" stroke="#242728" stroke-width="15" stroke-miterlimit="1.5" stroke-linejoin="round"/>
<path d="M1105.86 722.197C1105.86 722.197 1079.47 637.631 1068.44 602.291C1065.48 592.819 1067.95 582.587 1074.93 575.235C1094.83 554.341 1136.39 510.689 1160.52 485.338C1164.27 481.426 1169.96 479.72 1175.4 480.867C1180.85 482.027 1185.2 485.882 1186.8 490.927C1202.04 539.58 1235.31 645.799 1247.76 685.481C1250.74 695.011 1248.23 705.33 1241.14 712.696C1228.18 726.138 1208.84 746.201 1208.84 746.201" stroke="#242728" stroke-width="15" stroke-miterlimit="1.5" stroke-linecap="round" stroke-linejoin="round"/>
<path d="M1116.56 711.322C1116.56 711.322 1094.01 640.295 1082.98 604.955C1080.03 595.482 1078.51 590.227 1090.11 579.302C1096.56 572.538 1103.37 565.387 1103.37 565.387" stroke="#242728" stroke-width="15" stroke-miterlimit="1.5" stroke-linecap="round" stroke-linejoin="round"/>
<path d="M1133.94 573.019L1106.48 600.895" stroke="#242728" stroke-width="15" stroke-miterlimit="1.5" stroke-linecap="round" stroke-linejoin="round"/>
<path d="M1158.68 643.304L1131.22 671.18" stroke="#242728" stroke-width="15" stroke-miterlimit="1.5" stroke-linecap="round" stroke-linejoin="round"/>
<path d="M1183.33 619.992L1169.53 634" stroke="#242728" stroke-width="15" stroke-miterlimit="1.5" stroke-linecap="round" stroke-linejoin="round"/>
<path d="M1148.07 617.199L1120.6 645.074" stroke="#242728" stroke-width="15" stroke-miterlimit="1.5" stroke-linecap="round" stroke-linejoin="round"/>
<path d="M1172.81 687.453L1145.35 715.328" stroke="#242728" stroke-width="15" stroke-miterlimit="1.5" stroke-linecap="round" stroke-linejoin="round"/>
<path d="M1171.47 570.265L1144 598.141" stroke="#242728" stroke-width="15" stroke-miterlimit="1.5" stroke-linecap="round" stroke-linejoin="round"/>
<path d="M1169.54 664.936L1155.02 679.672" stroke="#242728" stroke-width="15" stroke-miterlimit="1.5" stroke-linecap="round" stroke-linejoin="round"/>
<path d="M1195.73 640.038L1181.21 654.773" stroke="#242728" stroke-width="15" stroke-miterlimit="1.5" stroke-linecap="round" stroke-linejoin="round"/>
</svg>
