<svg width="56" height="56" viewBox="0 0 56 56" fill="none" xmlns="http://www.w3.org/2000/svg">
<path d="M13 26C15.2867 27.1433 17.2467 28.87 18.67 31.0167C19.4867 32.23 19.4867 33.7933 18.67 35.0067C17.2467 37.13 15.2867 38.8567 13 40" stroke="#FA467B" stroke-width="2.8" stroke-linecap="round" stroke-linejoin="round"/>
<path d="M27 33H36.3333" stroke="#FA467B" stroke-width="2.8" stroke-linecap="round" stroke-linejoin="round"/>
<path d="M8 15.95C8 6.7 12.6 3 24.1 3H37.9C49.4 3 54 6.7 54 15.95V27.05C54 32.5014 52.4023 36.0252 48.7361 38" stroke="#FA467B" stroke-width="2.8" stroke-linecap="round" stroke-linejoin="round" stroke-dasharray="4 7"/>
<path d="M18.1 51H31.9C43.4 51 48 47.4 48 38.4V27.6C48 18.6 43.4 15 31.9 15H18.1C6.6 15 2 18.6 2 27.6V38.4C2 47.4 6.6 51 18.1 51Z" stroke="#A38297" stroke-width="2.8" stroke-linecap="round" stroke-linejoin="round"/>
</svg>
