<svg width="56" height="56" viewBox="0 0 56 56" fill="none" xmlns="http://www.w3.org/2000/svg">
<path d="M18.668 26.6C18.668 28.3967 20.068 29.8667 21.7713 29.8667H25.2713C26.7646 29.8667 27.978 28.5834 27.978 27.02C27.978 25.3167 27.2313 24.71 26.1346 24.3134L20.5346 22.3534C19.4146 21.9567 18.668 21.35 18.668 19.6467C18.668 18.0834 19.8813 16.8 21.3746 16.8H24.8746C26.6013 16.8234 28.0013 18.2701 28.0013 20.0667" stroke="#45DEF2" stroke-width="2.8" stroke-linecap="round" stroke-linejoin="round"/>
<path d="M23.332 29.9833V31.7099" stroke="#45DEF2" stroke-width="2" stroke-linecap="round" stroke-linejoin="round"/>
<path d="M23.332 14.9567V16.7767" stroke="#45DEF2" stroke-width="2" stroke-linecap="round" stroke-linejoin="round"/>
<path d="M23.3113 40.9532C33.6077 40.9532 41.9546 32.6063 41.9546 22.3098C41.9546 12.0134 33.6077 3.6665 23.3113 3.6665C13.0149 3.6665 4.66797 12.0134 4.66797 22.3098C4.66797 32.6063 13.0149 40.9532 23.3113 40.9532Z" stroke="#45DEF2" stroke-width="2.8" stroke-linecap="round" stroke-linejoin="round" stroke-dasharray="4 14"/>
<path d="M30.2852 46.3867C32.3852 49.35 35.8152 51.2867 39.7352 51.2867C46.1052 51.2867 51.2852 46.1067 51.2852 39.7367C51.2852 35.8634 49.3718 32.4334 46.4552 30.3334" stroke="#45DEF2" stroke-opacity="0.55" stroke-width="2" stroke-linecap="round" stroke-linejoin="round"/>
</svg>
