<svg width="56" height="56" viewBox="0 0 56 56" fill="none" xmlns="http://www.w3.org/2000/svg">
<path d="M18.668 26.5998C18.668 28.3965 20.068 29.8665 21.7713 29.8665H25.2713C26.7646 29.8665 27.978 28.5831 27.978 27.0198C27.978 25.3165 27.2313 24.7098 26.1346 24.3131L20.5346 22.3531C19.4146 21.9565 18.668 21.3498 18.668 19.6465C18.668 18.0831 19.8813 16.7998 21.3746 16.7998H24.8746C26.6013 16.8231 28.0013 18.2698 28.0013 20.0665" stroke="#E9FC87" stroke-width="2.8" stroke-linecap="round" stroke-linejoin="round"/>
<path d="M23.332 29.9834V31.7101" stroke="#E9FC87" stroke-width="2" stroke-linecap="round" stroke-linejoin="round"/>
<path d="M23.332 14.957V16.777" stroke="#E9FC87" stroke-width="2" stroke-linecap="round" stroke-linejoin="round"/>
<path d="M23.3113 40.9527C33.6077 40.9527 41.9546 32.6058 41.9546 22.3093C41.9546 12.0129 33.6077 3.66602 23.3113 3.66602C13.0149 3.66602 4.66797 12.0129 4.66797 22.3093C4.66797 32.6058 13.0149 40.9527 23.3113 40.9527Z" stroke="#E9FC87" stroke-width="2.8" stroke-linecap="round" stroke-linejoin="round" stroke-dasharray="4 14"/>
<path d="M30.2852 46.3863C32.3852 49.3497 35.8152 51.2863 39.7352 51.2863C46.1052 51.2863 51.2852 46.1063 51.2852 39.7363C51.2852 35.863 49.3718 32.433 46.4552 30.333" stroke="#9CA377" stroke-width="2" stroke-linecap="round" stroke-linejoin="round"/>
</svg>
