<svg width="22" height="22" viewBox="0 0 22 22" fill="none" xmlns="http://www.w3.org/2000/svg">
<path d="M17.2734 6.36377L6.36371 17.2734C6.11521 17.5219 5.70307 17.5219 5.45457 17.2734C5.20607 17.0249 5.20607 16.6128 5.45457 16.3643L16.3642 5.45463C16.6127 5.20614 17.0249 5.20613 17.2734 5.45463C17.5219 5.70313 17.5218 6.11527 17.2734 6.36377Z" fill="#292D32"/>
<path d="M17.2734 16.3643L6.36371 5.45461C6.11521 5.20611 5.70307 5.20611 5.45457 5.45461C5.20607 5.70311 5.20607 6.11525 5.45457 6.36375L16.3642 17.2734C16.6127 17.5219 17.0249 17.5219 17.2734 17.2734C17.5219 17.0249 17.5218 16.6128 17.2734 16.3643Z" fill="#292D32"/>
</svg>

