<svg width="974" height="412" viewBox="0 0 974 412" fill="none" xmlns="http://www.w3.org/2000/svg">
<path d="M574.211 82.1484C706.179 137.399 815.82 210.785 886.411 284.73C921.708 321.704 947.207 358.781 960.874 393.765C974.539 428.743 976.354 461.566 964.398 490.125C952.441 518.685 927.782 540.424 893.273 555.233C858.758 570.045 814.449 577.896 763.338 578.694C661.121 580.289 531.9 553.672 399.932 498.421C267.963 443.171 158.323 369.785 87.7317 295.84C52.4351 258.866 26.9353 221.788 13.2684 186.804C-0.396193 151.826 -2.21168 119.004 9.74524 90.4445C21.7022 61.8849 46.3606 40.1462 80.8694 25.3369C115.384 10.5249 159.694 2.67412 210.804 1.87621C313.022 0.28052 442.243 26.8977 574.211 82.1484Z" stroke="url(#paint0_linear_111_7619)" stroke-width="2"/>
<defs>
<linearGradient id="paint0_linear_111_7619" x1="8.82282" y1="90.0583" x2="965.32" y2="490.512" gradientUnits="userSpaceOnUse">
<stop/>
<stop offset="1" stop-color="#525252" stop-opacity="0"/>
</linearGradient>
</defs>
</svg>
