<svg width="500" height="500" viewBox="0 0 500 500" fill="none" xmlns="http://www.w3.org/2000/svg">
<path d="M500 251.039C500 277.649 495.872 303.302 488.233 327.367C481.616 348.232 472.349 367.918 460.826 386.005C421.907 447.188 357.302 490.297 282.267 500V465.59C343.721 456.354 396.709 421.127 429.791 371.41C441.663 353.545 450.977 333.812 457.186 312.748C462.965 293.19 466.058 272.477 466.058 251.039C466.058 229.602 462.965 208.888 457.186 189.33L488.233 174.712C495.872 198.776 500 224.429 500 251.039ZM433.314 301.516C437.698 285.437 440.035 268.507 440.035 251.039C440.035 233.572 437.698 216.641 433.314 200.563C427.523 179.3 418.163 159.521 405.907 141.913C377.419 100.941 333.326 71.7272 282.267 62.9583V96.9478C320.035 104.888 352.814 126.465 375.244 156.333C388.14 173.486 397.605 193.382 402.651 214.983C405.349 226.566 406.779 238.639 406.779 251.039C406.779 263.439 405.349 275.513 402.651 287.095L433.314 301.516ZM405.907 360.165L375.244 345.745C352.814 375.613 320.035 397.191 282.267 405.131C271.86 407.314 261.058 408.47 250 408.47C238.942 408.47 228.151 407.326 217.744 405.131C179.965 397.202 147.186 375.613 124.756 345.745L94.093 360.165C122.581 401.137 166.686 430.363 217.744 439.12C228.221 440.93 239 441.864 250 441.864C261 441.864 271.779 440.93 282.267 439.12C333.326 430.351 377.419 401.137 405.907 360.165ZM70.2093 371.41C58.3372 353.545 49.0233 333.824 42.814 312.76C37.0349 293.19 33.9419 272.477 33.9419 251.039C33.9419 229.602 37.0349 208.888 42.814 189.319L11.7674 174.712C4.12791 198.776 0 224.429 0 251.039C0 277.649 4.12791 303.302 11.7674 327.367C18.3837 348.232 27.6512 367.918 39.1744 386.005C78.093 447.188 142.709 490.297 217.744 500V465.59C156.291 456.354 103.302 421.127 70.2093 371.41ZM217.744 36.4883C228.267 34.9003 239.035 34.083 250 34.083C260.965 34.083 271.744 34.9003 282.267 36.4883C343.721 45.7242 396.709 80.9514 429.791 130.669L460.826 116.074C421.907 54.89 357.302 11.7813 282.267 2.07837C271.709 0.700573 260.93 0 250 0C239.07 0 228.302 0.700573 217.744 2.07837C142.709 11.7813 78.093 54.89 39.1744 116.074L70.2093 130.669C103.302 80.9514 156.291 45.7242 217.744 36.4883ZM121.558 275.699C120.035 267.713 119.244 259.469 119.244 251.039C119.244 242.609 120.035 234.366 121.558 226.379C125.709 204.393 135.337 184.345 148.953 167.718C166.372 146.432 190.326 130.751 217.744 123.768C228.058 121.141 238.872 119.74 250 119.74C261.128 119.74 271.953 121.141 282.267 123.768C309.674 130.762 333.628 146.432 351.046 167.718C364.663 184.345 374.291 204.393 378.442 226.379C379.965 234.366 380.756 242.609 380.756 251.039C380.756 259.469 379.965 267.713 378.442 275.699C374.291 297.686 364.663 317.734 351.046 334.361C333.628 355.647 309.674 371.316 282.267 378.31C271.953 380.937 261.14 382.339 250 382.339C238.86 382.339 228.058 380.937 217.744 378.31C190.326 371.328 166.372 355.647 148.953 334.361C135.337 317.734 125.709 297.686 121.558 275.699ZM152.988 241.161C152.663 244.407 152.5 247.7 152.5 251.039C152.5 254.379 152.663 257.671 152.988 260.917C155.256 283.674 165.291 304.119 180.384 319.567C190.733 330.192 203.477 338.436 217.744 343.445C227.837 347.006 238.698 348.944 250 348.944C261.302 348.944 272.174 347.006 282.267 343.445C296.523 338.436 309.267 330.181 319.628 319.567C334.709 304.119 344.744 283.674 347.012 260.917C347.337 257.671 347.5 254.379 347.5 251.039C347.5 247.7 347.337 244.407 347.012 241.161C344.744 218.404 334.709 197.959 319.628 182.511C309.267 171.898 296.523 163.643 282.267 158.633C272.174 155.072 261.314 153.134 250 153.134C238.686 153.134 227.837 155.072 217.744 158.633C203.477 163.643 190.733 171.886 180.384 182.511C165.291 197.959 155.256 218.404 152.988 241.161ZM124.756 156.333C147.186 126.465 179.965 104.876 217.744 96.9478V62.9583C166.686 71.7155 122.581 100.941 94.093 141.913C81.8372 159.521 72.4767 179.3 66.686 200.551C62.3023 216.629 59.9651 233.56 59.9651 251.039C59.9651 268.519 62.3023 285.449 66.686 301.527L97.3488 287.095C94.6512 275.513 93.2209 263.439 93.2209 251.039C93.2209 238.639 94.6512 226.566 97.3488 214.983C102.395 193.382 111.86 173.486 124.756 156.333Z" fill="url(#paint0_linear_35_40)"/>
<defs>
<linearGradient id="paint0_linear_35_40" x1="357.605" y1="471.23" x2="141.226" y2="35.5085" gradientUnits="userSpaceOnUse">
<stop offset="0.109375" stop-color="#F900E1"/>
<stop offset="0.29" stop-color="#ED03DD"/>
<stop offset="0.432292" stop-color="#D00ED4"/>
<stop offset="0.859375" stop-color="#A01EC5"/>
<stop offset="1" stop-color="#9423C2"/>
</linearGradient>
</defs>
</svg>
