<svg width="24" height="24" viewBox="0 0 24 24" fill="none" xmlns="http://www.w3.org/2000/svg">
<path opacity="0.4" d="M11.96 8.92C13.5948 8.92 14.92 7.59476 14.92 5.96C14.92 4.32524 13.5948 3 11.96 3C10.3252 3 9 4.32524 9 5.96C9 7.59476 10.3252 8.92 11.96 8.92Z" fill="#292D32"/>
<path d="M3.96 20.92C5.59476 20.92 6.92 19.5948 6.92 17.96C6.92 16.3252 5.59476 15 3.96 15C2.32524 15 1 16.3252 1 17.96C1 19.5948 2.32524 20.92 3.96 20.92Z" fill="#292D32"/>
<path d="M19.5381 21.1104C21.1729 21.1104 22.4981 19.7852 22.4981 18.1504C22.4981 16.5157 21.1729 15.1904 19.5381 15.1904C17.9034 15.1904 16.5781 16.5157 16.5781 18.1504C16.5781 19.7852 17.9034 21.1104 19.5381 21.1104Z" fill="#292D32"/>
</svg>
