<svg width="289" height="91" viewBox="0 0 289 91" fill="none" xmlns="http://www.w3.org/2000/svg">
<rect width="289" height="91" rx="45.5" fill="black"/>
<rect x="8.5" y="8.5" width="272" height="74" rx="37" stroke="white"/>
<circle cx="47.5" cy="44.5" r="26.5" fill="white" fill-opacity="0.14"/>
<path d="M42.6654 34.8281H57.1773M57.1773 34.8281L57.1773 49.34M57.1773 34.8281L37.8281 54.1773" stroke="white" stroke-width="1.68254"/>
<path d="M105.326 50L103.292 45.5H101.78V50H99.44V37.4H104.39C105.026 37.4 105.614 37.556 106.154 37.868C106.694 38.18 107.12 38.606 107.432 39.146C107.744 39.686 107.9 40.274 107.9 40.91V41.99C107.9 42.722 107.696 43.382 107.288 43.97C106.892 44.546 106.37 44.966 105.722 45.23L107.9 50H105.326ZM104.39 43.16C104.726 43.16 105.002 43.052 105.218 42.836C105.446 42.608 105.56 42.326 105.56 41.99V40.91C105.56 40.574 105.446 40.298 105.218 40.082C105.002 39.854 104.726 39.74 104.39 39.74H101.78V43.16H104.39ZM119.238 45.626H113.118V46.472C113.118 46.796 113.232 47.072 113.46 47.3C113.688 47.528 113.964 47.642 114.288 47.642H115.728C116.052 47.642 116.328 47.528 116.556 47.3C116.784 47.072 116.898 46.796 116.898 46.472V46.292H119.238V46.472C119.238 47.108 119.082 47.696 118.77 48.236C118.458 48.776 118.032 49.208 117.492 49.532C116.952 49.844 116.364 50 115.728 50H114.288C113.652 50 113.064 49.844 112.524 49.532C111.996 49.208 111.57 48.776 111.246 48.236C110.934 47.696 110.778 47.108 110.778 46.472V44.186C110.778 43.55 110.934 42.968 111.246 42.44C111.57 41.9 111.996 41.474 112.524 41.162C113.064 40.838 113.652 40.676 114.288 40.676H115.728C116.364 40.676 116.946 40.832 117.474 41.144C118.014 41.456 118.44 41.876 118.752 42.404C119.076 42.932 119.238 43.514 119.238 44.15V45.626ZM116.898 44.456V44.186C116.898 43.862 116.784 43.586 116.556 43.358C116.34 43.13 116.064 43.016 115.728 43.016H114.288C113.964 43.016 113.688 43.13 113.46 43.358C113.232 43.586 113.118 43.862 113.118 44.186V44.456H116.898ZM128.236 53.924V49.046L126.814 50H125.626C124.99 50 124.402 49.844 123.862 49.532C123.334 49.208 122.908 48.782 122.584 48.254C122.272 47.714 122.116 47.126 122.116 46.49V44.186C122.116 43.55 122.272 42.968 122.584 42.44C122.908 41.9 123.334 41.474 123.862 41.162C124.402 40.838 124.99 40.676 125.626 40.676H126.814L128.236 41.63V40.676H130.576V53.924H128.236ZM124.456 46.49C124.456 46.814 124.57 47.09 124.798 47.318C125.026 47.546 125.302 47.66 125.626 47.66H126.094L128.236 46.22V44.456L126.094 43.016H125.626C125.302 43.016 125.026 43.136 124.798 43.376C124.57 43.604 124.456 43.874 124.456 44.186V46.49ZM139.574 50V49.046L138.152 50H136.964C136.328 50 135.74 49.844 135.2 49.532C134.672 49.208 134.246 48.782 133.922 48.254C133.61 47.714 133.454 47.126 133.454 46.49V40.676H135.794V46.49C135.794 46.802 135.908 47.078 136.136 47.318C136.364 47.546 136.64 47.66 136.964 47.66H137.432L139.574 46.22V40.676H141.914V50H139.574ZM153.252 45.626H147.132V46.472C147.132 46.796 147.246 47.072 147.474 47.3C147.702 47.528 147.978 47.642 148.302 47.642H149.742C150.066 47.642 150.342 47.528 150.57 47.3C150.798 47.072 150.912 46.796 150.912 46.472V46.292H153.252V46.472C153.252 47.108 153.096 47.696 152.784 48.236C152.472 48.776 152.046 49.208 151.506 49.532C150.966 49.844 150.378 50 149.742 50H148.302C147.666 50 147.078 49.844 146.538 49.532C146.01 49.208 145.584 48.776 145.26 48.236C144.948 47.696 144.792 47.108 144.792 46.472V44.186C144.792 43.55 144.948 42.968 145.26 42.44C145.584 41.9 146.01 41.474 146.538 41.162C147.078 40.838 147.666 40.676 148.302 40.676H149.742C150.378 40.676 150.96 40.832 151.488 41.144C152.028 41.456 152.454 41.876 152.766 42.404C153.09 42.932 153.252 43.514 153.252 44.15V45.626ZM150.912 44.456V44.186C150.912 43.862 150.798 43.586 150.57 43.358C150.354 43.13 150.078 43.016 149.742 43.016H148.302C147.978 43.016 147.702 43.13 147.474 43.358C147.246 43.586 147.132 43.862 147.132 44.186V44.456H150.912ZM158.469 46.832V47.066C158.469 47.234 158.553 47.378 158.721 47.498C158.889 47.606 159.129 47.66 159.441 47.66H161.403C161.967 47.66 162.249 47.492 162.249 47.156C162.249 46.868 162.087 46.676 161.763 46.58C161.451 46.472 160.947 46.382 160.251 46.31C159.447 46.25 158.775 46.154 158.235 46.022C157.695 45.878 157.227 45.602 156.831 45.194C156.447 44.774 156.255 44.168 156.255 43.376C156.255 42.572 156.549 41.924 157.137 41.432C157.725 40.928 158.481 40.676 159.405 40.676H161.133C161.709 40.676 162.237 40.808 162.717 41.072C163.197 41.336 163.575 41.696 163.851 42.152C164.139 42.596 164.283 43.088 164.283 43.628V43.79H161.943V43.628C161.943 43.46 161.865 43.316 161.709 43.196C161.565 43.076 161.373 43.016 161.133 43.016H159.405C158.865 43.016 158.595 43.184 158.595 43.52C158.595 43.76 158.739 43.922 159.027 44.006C159.327 44.078 159.795 44.138 160.431 44.186C161.271 44.258 161.967 44.36 162.519 44.492C163.071 44.624 163.551 44.9 163.959 45.32C164.379 45.74 164.589 46.364 164.589 47.192C164.589 48.044 164.295 48.728 163.707 49.244C163.131 49.748 162.363 50 161.403 50H159.441C158.817 50 158.253 49.874 157.749 49.622C157.245 49.37 156.849 49.022 156.561 48.578C156.273 48.122 156.129 47.618 156.129 47.066V46.832H158.469ZM173.767 50C173.131 50 172.543 49.844 172.003 49.532C171.463 49.22 171.037 48.794 170.725 48.254C170.413 47.714 170.257 47.126 170.257 46.49V43.016H167.467V40.676H170.257V38.336H172.597V40.676H175.927V43.016H172.597V46.49C172.597 46.826 172.705 47.108 172.921 47.336C173.149 47.552 173.431 47.66 173.767 47.66H175.927V50H173.767ZM198.603 50H196.263V49.046L194.859 50H193.653C193.017 50 192.429 49.844 191.889 49.532C191.361 49.208 190.935 48.782 190.611 48.254C190.299 47.714 190.143 47.126 190.143 46.49V44.186C190.143 43.55 190.299 42.968 190.611 42.44C190.935 41.9 191.361 41.474 191.889 41.162C192.429 40.838 193.017 40.676 193.653 40.676H194.859L196.263 41.63V40.676H198.603V50ZM192.483 46.49C192.483 46.814 192.597 47.09 192.825 47.318C193.053 47.546 193.329 47.66 193.653 47.66H194.139L196.263 46.22V44.456L194.139 43.016H193.653C193.329 43.016 193.053 43.136 192.825 43.376C192.597 43.604 192.483 43.874 192.483 44.186V46.49ZM207.601 44.186C207.601 43.862 207.487 43.586 207.259 43.358C207.043 43.13 206.767 43.016 206.431 43.016H204.991C204.667 43.016 204.391 43.13 204.163 43.358C203.935 43.586 203.821 43.862 203.821 44.186V46.472C203.821 46.796 203.935 47.072 204.163 47.3C204.391 47.528 204.667 47.642 204.991 47.642H206.431C206.755 47.642 207.031 47.528 207.259 47.3C207.487 47.072 207.601 46.796 207.601 46.472V46.292H209.941V46.472C209.941 47.108 209.785 47.696 209.473 48.236C209.161 48.776 208.735 49.208 208.195 49.532C207.655 49.844 207.067 50 206.431 50H204.991C204.355 50 203.767 49.844 203.227 49.532C202.699 49.208 202.273 48.776 201.949 48.236C201.637 47.696 201.481 47.108 201.481 46.472V44.186C201.481 43.55 201.637 42.968 201.949 42.44C202.273 41.9 202.699 41.474 203.227 41.162C203.767 40.838 204.355 40.676 204.991 40.676H206.431C207.067 40.676 207.655 40.832 208.195 41.144C208.735 41.456 209.161 41.882 209.473 42.422C209.785 42.962 209.941 43.55 209.941 44.186V44.366H207.601V44.186ZM218.939 44.186C218.939 43.862 218.825 43.586 218.597 43.358C218.381 43.13 218.105 43.016 217.769 43.016H216.329C216.005 43.016 215.729 43.13 215.501 43.358C215.273 43.586 215.159 43.862 215.159 44.186V46.472C215.159 46.796 215.273 47.072 215.501 47.3C215.729 47.528 216.005 47.642 216.329 47.642H217.769C218.093 47.642 218.369 47.528 218.597 47.3C218.825 47.072 218.939 46.796 218.939 46.472V46.292H221.279V46.472C221.279 47.108 221.123 47.696 220.811 48.236C220.499 48.776 220.073 49.208 219.533 49.532C218.993 49.844 218.405 50 217.769 50H216.329C215.693 50 215.105 49.844 214.565 49.532C214.037 49.208 213.611 48.776 213.287 48.236C212.975 47.696 212.819 47.108 212.819 46.472V44.186C212.819 43.55 212.975 42.968 213.287 42.44C213.611 41.9 214.037 41.474 214.565 41.162C215.105 40.838 215.693 40.676 216.329 40.676H217.769C218.405 40.676 218.993 40.832 219.533 41.144C220.073 41.456 220.499 41.882 220.811 42.422C221.123 42.962 221.279 43.55 221.279 44.186V44.366H218.939V44.186ZM232.617 45.626H226.497V46.472C226.497 46.796 226.611 47.072 226.839 47.3C227.067 47.528 227.343 47.642 227.667 47.642H229.107C229.431 47.642 229.707 47.528 229.935 47.3C230.163 47.072 230.277 46.796 230.277 46.472V46.292H232.617V46.472C232.617 47.108 232.461 47.696 232.149 48.236C231.837 48.776 231.411 49.208 230.871 49.532C230.331 49.844 229.743 50 229.107 50H227.667C227.031 50 226.443 49.844 225.903 49.532C225.375 49.208 224.949 48.776 224.625 48.236C224.313 47.696 224.157 47.108 224.157 46.472V44.186C224.157 43.55 224.313 42.968 224.625 42.44C224.949 41.9 225.375 41.474 225.903 41.162C226.443 40.838 227.031 40.676 227.667 40.676H229.107C229.743 40.676 230.325 40.832 230.853 41.144C231.393 41.456 231.819 41.876 232.131 42.404C232.455 42.932 232.617 43.514 232.617 44.15V45.626ZM230.277 44.456V44.186C230.277 43.862 230.163 43.586 229.935 43.358C229.719 43.13 229.443 43.016 229.107 43.016H227.667C227.343 43.016 227.067 43.13 226.839 43.358C226.611 43.586 226.497 43.862 226.497 44.186V44.456H230.277ZM237.835 46.832V47.066C237.835 47.234 237.919 47.378 238.087 47.498C238.255 47.606 238.495 47.66 238.807 47.66H240.769C241.333 47.66 241.615 47.492 241.615 47.156C241.615 46.868 241.453 46.676 241.129 46.58C240.817 46.472 240.313 46.382 239.617 46.31C238.813 46.25 238.141 46.154 237.601 46.022C237.061 45.878 236.593 45.602 236.197 45.194C235.813 44.774 235.621 44.168 235.621 43.376C235.621 42.572 235.915 41.924 236.503 41.432C237.091 40.928 237.847 40.676 238.771 40.676H240.499C241.075 40.676 241.603 40.808 242.083 41.072C242.563 41.336 242.941 41.696 243.217 42.152C243.505 42.596 243.649 43.088 243.649 43.628V43.79H241.309V43.628C241.309 43.46 241.231 43.316 241.075 43.196C240.931 43.076 240.739 43.016 240.499 43.016H238.771C238.231 43.016 237.961 43.184 237.961 43.52C237.961 43.76 238.105 43.922 238.393 44.006C238.693 44.078 239.161 44.138 239.797 44.186C240.637 44.258 241.333 44.36 241.885 44.492C242.437 44.624 242.917 44.9 243.325 45.32C243.745 45.74 243.955 46.364 243.955 47.192C243.955 48.044 243.661 48.728 243.073 49.244C242.497 49.748 241.729 50 240.769 50H238.807C238.183 50 237.619 49.874 237.115 49.622C236.611 49.37 236.215 49.022 235.927 48.578C235.639 48.122 235.495 47.618 235.495 47.066V46.832H237.835ZM249.173 46.832V47.066C249.173 47.234 249.257 47.378 249.425 47.498C249.593 47.606 249.833 47.66 250.145 47.66H252.107C252.671 47.66 252.953 47.492 252.953 47.156C252.953 46.868 252.791 46.676 252.467 46.58C252.155 46.472 251.651 46.382 250.955 46.31C250.151 46.25 249.479 46.154 248.939 46.022C248.399 45.878 247.931 45.602 247.535 45.194C247.151 44.774 246.959 44.168 246.959 43.376C246.959 42.572 247.253 41.924 247.841 41.432C248.429 40.928 249.185 40.676 250.109 40.676H251.837C252.413 40.676 252.941 40.808 253.421 41.072C253.901 41.336 254.279 41.696 254.555 42.152C254.843 42.596 254.987 43.088 254.987 43.628V43.79H252.647V43.628C252.647 43.46 252.569 43.316 252.413 43.196C252.269 43.076 252.077 43.016 251.837 43.016H250.109C249.569 43.016 249.299 43.184 249.299 43.52C249.299 43.76 249.443 43.922 249.731 44.006C250.031 44.078 250.499 44.138 251.135 44.186C251.975 44.258 252.671 44.36 253.223 44.492C253.775 44.624 254.255 44.9 254.663 45.32C255.083 45.74 255.293 46.364 255.293 47.192C255.293 48.044 254.999 48.728 254.411 49.244C253.835 49.748 253.067 50 252.107 50H250.145C249.521 50 248.957 49.874 248.453 49.622C247.949 49.37 247.553 49.022 247.265 48.578C246.977 48.122 246.833 47.618 246.833 47.066V46.832H249.173Z" fill="white"/>
</svg>
