<svg width="24" height="25" viewBox="0 0 24 25" fill="none" xmlns="http://www.w3.org/2000/svg">
<path d="M22 5.02999V16.92C22 17.89 21.21 18.78 20.24 18.9L19.93 18.94C18.29 19.16 15.98 19.84 14.12 20.62C13.47 20.89 12.75 20.4 12.75 19.69V5.77999C12.75 5.40999 12.96 5.06999 13.29 4.88999C15.12 3.89999 17.89 3.01999 19.77 2.85999H19.83C21.03 2.85999 22 3.82999 22 5.02999Z" fill="url(#paint0_linear_139_2599)"/>
<path d="M10.7102 4.88999C8.88023 3.89999 6.11023 3.01999 4.23023 2.85999H4.16023C2.96023 2.85999 1.99023 3.82999 1.99023 5.02999V16.92C1.99023 17.89 2.78023 18.78 3.75023 18.9L4.06023 18.94C5.70023 19.16 8.01023 19.84 9.87023 20.62C10.5202 20.89 11.2402 20.4 11.2402 19.69V5.77999C11.2402 5.39999 11.0402 5.06999 10.7102 4.88999ZM5.00023 7.91998H7.25023C7.66023 7.91998 8.00023 8.25998 8.00023 8.66998C8.00023 9.08998 7.66023 9.41998 7.25023 9.41998H5.00023C4.59023 9.41998 4.25023 9.08998 4.25023 8.66998C4.25023 8.25998 4.59023 7.91998 5.00023 7.91998ZM8.00023 12.42H5.00023C4.59023 12.42 4.25023 12.09 4.25023 11.67C4.25023 11.26 4.59023 10.92 5.00023 10.92H8.00023C8.41023 10.92 8.75023 11.26 8.75023 11.67C8.75023 12.09 8.41023 12.42 8.00023 12.42Z" fill="url(#paint1_linear_139_2599)"/>
<defs>
<linearGradient id="paint0_linear_139_2599" x1="12.75" y1="20.6953" x2="34.4175" y2="16.251" gradientUnits="userSpaceOnUse">
<stop stop-color="#F77577"/>
<stop offset="0.452015" stop-color="#DB39CB"/>
<stop offset="0.973958" stop-color="#CA6FE5"/>
</linearGradient>
<linearGradient id="paint1_linear_139_2599" x1="1.99023" y1="20.6953" x2="23.6577" y2="16.251" gradientUnits="userSpaceOnUse">
<stop stop-color="#F77577"/>
<stop offset="0.452015" stop-color="#DB39CB"/>
<stop offset="0.973958" stop-color="#CA6FE5"/>
</linearGradient>
</defs>
</svg>
