<svg width="24" height="25" viewBox="0 0 24 25" fill="none" xmlns="http://www.w3.org/2000/svg">
<path d="M21.74 13.0899C21.48 12.2299 21.05 11.4799 20.48 10.8699C19.75 10.0399 18.78 9.46991 17.69 9.21991C17.14 6.71991 15.6 4.91991 13.41 4.24991C11.03 3.50991 8.27 4.22991 6.54 6.03991C5.02 7.62991 4.52 9.81991 5.11 12.1499C3.11 12.6399 2.12 14.3099 2.01 15.8999C2 16.0099 2 16.1099 2 16.2099C2 18.0899 3.23 20.1999 5.97 20.3999H16.35C17.77 20.3999 19.13 19.8699 20.17 18.9199C21.8 17.4899 22.4 15.2599 21.74 13.0899Z" fill="url(#paint0_linear_139_2584)"/>
<defs>
<linearGradient id="paint0_linear_139_2584" x1="2" y1="20.3999" x2="41.6451" y2="1.31929" gradientUnits="userSpaceOnUse">
<stop stop-color="#F77577"/>
<stop offset="0.452015" stop-color="#DB39CB"/>
<stop offset="0.973958" stop-color="#CA6FE5"/>
</linearGradient>
</defs>
</svg>
