<svg width="24" height="25" viewBox="0 0 24 25" fill="none" xmlns="http://www.w3.org/2000/svg">
<path d="M16.19 2.17993H7.81C4.17 2.17993 2 4.34993 2 7.98993V16.3599C2 20.0099 4.17 22.1799 7.81 22.1799H16.18C19.82 22.1799 21.99 20.0099 21.99 16.3699V7.98993C22 4.34993 19.83 2.17993 16.19 2.17993ZM9.94 13.4499C9.26 14.4699 8.32 15.2999 7.22 15.8499C7.12 15.8999 7 15.9299 6.89 15.9299C6.61 15.9299 6.35 15.7799 6.22 15.5199C6.03 15.1499 6.18 14.6999 6.56 14.5099C7.43 14.0799 8.17 13.4199 8.7 12.6199C8.88 12.3499 8.88 12.0099 8.7 11.7399C8.16 10.9399 7.42 10.2799 6.56 9.84993C6.18 9.66993 6.03 9.21993 6.22 8.83993C6.4 8.46993 6.85 8.31993 7.22 8.50993C8.32 9.05993 9.26 9.88993 9.94 10.9099C10.46 11.6799 10.46 12.6799 9.94 13.4499ZM17 15.9299H13C12.59 15.9299 12.25 15.5899 12.25 15.1799C12.25 14.7699 12.59 14.4299 13 14.4299H17C17.41 14.4299 17.75 14.7699 17.75 15.1799C17.75 15.5899 17.41 15.9299 17 15.9299Z" fill="url(#paint0_linear_139_2605)"/>
<defs>
<linearGradient id="paint0_linear_139_2605" x1="2" y1="22.1799" x2="44.2011" y2="5.49816" gradientUnits="userSpaceOnUse">
<stop stop-color="#F77577"/>
<stop offset="0.452015" stop-color="#DB39CB"/>
<stop offset="0.973958" stop-color="#CA6FE5"/>
</linearGradient>
</defs>
</svg>
