<svg width="16" height="17" viewBox="0 0 16 17" fill="none" xmlns="http://www.w3.org/2000/svg">
<rect x="1" y="1" width="14" height="14" rx="3" stroke="#E9FC87" stroke-opacity="0.5" stroke-linecap="round" stroke-dasharray="3 3"/>
<path d="M3.9075 9.5875C3.7875 9.6325 3.6825 9.64 3.5925 9.61C3.5075 9.58 3.4375 9.5275 3.3825 9.4525C3.3275 9.3725 3.2975 9.2875 3.2925 9.1975C3.2875 9.1025 3.3075 9.015 3.3525 8.935C3.4025 8.85 3.4825 8.785 3.5925 8.74L6.7575 7.525V8.1775L3.5925 6.9625C3.4825 6.9175 3.4025 6.855 3.3525 6.775C3.3075 6.69 3.2875 6.6 3.2925 6.505C3.2975 6.41 3.3275 6.325 3.3825 6.25C3.4375 6.17 3.5075 6.115 3.5925 6.085C3.6825 6.055 3.7875 6.0625 3.9075 6.1075L6.675 7.195C6.985 7.315 7.14 7.53 7.14 7.84C7.14 8 7.1025 8.135 7.0275 8.245C6.9525 8.35 6.835 8.435 6.675 8.5L3.9075 9.5875ZM8.46557 10.7575C8.35557 10.7575 8.26307 10.7225 8.18807 10.6525C8.11307 10.5825 8.07557 10.4925 8.07557 10.3825C8.07557 10.2725 8.11307 10.18 8.18807 10.105C8.26307 10.035 8.35557 10 8.46557 10H11.2781C11.3881 10 11.4781 10.035 11.5481 10.105C11.6231 10.18 11.6606 10.2725 11.6606 10.3825C11.6606 10.4925 11.6231 10.5825 11.5481 10.6525C11.4781 10.7225 11.3881 10.7575 11.2781 10.7575H8.46557Z" fill="#E9FC87"/>
</svg>
