<svg width="25" height="26" viewBox="0 0 25 26" fill="none" xmlns="http://www.w3.org/2000/svg">
<path fill-rule="evenodd" clip-rule="evenodd" d="M21.9289 12.2484C22.7458 12.3099 23.3076 12.0374 23.9706 11.4731C24.0039 11.4445 24.2996 10.5209 24.3321 10.4912C24.3361 10.4883 24.34 10.4854 24.3436 10.4826L24.8766 8.42685C24.9313 8.23471 24.8816 8.02754 24.7456 7.8812L20.9791 4.17388C20.909 4.09838 20.8031 4.06618 20.7026 4.09051C20.602 4.11448 20.5222 4.19105 20.494 4.29052L19.0567 9.35165C19.0019 9.54415 19.052 9.75167 19.1883 9.89837L20.0306 10.8022C21.9031 12.2484 23.594 13.6408 21.9289 12.2484Z" fill="#E9FC87"/>
<path fill-rule="evenodd" clip-rule="evenodd" d="M13.7888 20.1343C13.5924 20.2656 13.3691 20.4177 13.2457 20.4967C12.7401 20.8205 12.1279 20.9329 11.5404 20.8098C11.3593 20.7719 11.0656 20.7297 10.8183 20.6846C10.9074 20.9307 10.9547 21.1909 10.9575 21.4542L10.9586 21.5762C11.0602 22.0521 11.6878 22.4514 12.4281 22.49C13.2224 22.5316 13.8479 22.1423 13.8235 21.6213L13.7888 20.1343Z" fill="#FF85D0"/>
<path fill-rule="evenodd" clip-rule="evenodd" d="M18.0402 20.4328C18.2763 19.7765 18.2585 19.0259 17.7654 18.7847L17.7124 18.7561C17.2255 18.5969 16.6229 19.0767 16.3642 19.8324C16.1055 20.588 16.288 21.3366 16.7707 21.509C16.7732 21.5097 16.7757 21.5108 16.7782 21.5115C17.3067 21.6582 17.8023 21.0933 18.0402 20.4328Z" fill="#FF85D0"/>
<path fill-rule="evenodd" clip-rule="evenodd" d="M18.1915 17.3179C18.1576 17.3458 18.1214 17.3723 18.0835 17.3962L16.7653 18.241L17.7622 18.7849C18.2552 19.026 18.2731 19.7767 18.037 20.4329C18.7193 20.195 19.1397 19.6686 18.9766 19.2547L18.1915 17.3179Z" fill="#FF85D0"/>
<path fill-rule="evenodd" clip-rule="evenodd" d="M22.4777 11.513C22.4741 11.5159 22.4702 11.5188 22.4663 11.5216C22.4337 11.5513 22.307 12.0598 22.2738 12.0884C21.6107 12.6526 20.8257 12.8301 20.0089 12.7686C20.0013 12.7689 19.9935 12.7693 19.986 12.77L19.9824 12.7664C19.3938 12.7181 18.7895 12.5467 18.203 12.307L17.4441 4.73374C17.3947 4.24033 17.0334 3.83493 16.5492 3.72938L11.8076 2.6939C11.2115 2.56366 10.5882 2.67672 10.0759 3.00769L5.22009 6.1467C4.85943 6.37963 4.65942 6.79504 4.70235 7.22226L4.76855 7.88526L4.40287 7.94251C3.79639 8.03804 3.35701 8.57189 3.37991 9.18516L3.52088 12.9918C3.53949 13.4863 3.84613 13.9239 4.30447 14.11C4.66192 14.2545 5.05944 14.2255 5.38647 14.0438C5.5389 15.5748 5.7178 17.5574 5.7178 17.5574C5.76038 18.1227 5.82156 18.575 5.89992 18.9317C5.96254 19.2176 6.06988 19.4921 6.21837 19.7443C6.49423 20.2134 7.06314 21.1397 7.64851 21.8722V23.7778C7.64851 24.3127 8.39525 24.7467 9.31445 24.7467C10.2336 24.7467 10.98 24.3127 10.98 23.7778L10.9564 21.4542C10.9535 21.1909 10.9063 20.9308 10.8172 20.6846C11.0645 20.7297 11.3582 20.7719 11.5393 20.8098C12.1268 20.9329 12.739 20.8206 13.2446 20.4968C13.368 20.4177 13.5913 20.2656 13.7877 20.1343C13.8031 20.1239 13.8185 20.1139 13.8335 20.1039C14.7516 20.6842 15.7324 21.1472 16.7672 21.5093C16.2845 21.3369 16.102 20.5884 16.3607 19.8327C16.6194 19.077 17.2219 18.5972 17.7089 18.7564L16.765 18.2412L18.0832 17.3964C18.1211 17.3724 18.1572 17.3459 18.1912 17.318C18.4857 17.0769 18.6435 16.7026 18.6048 16.3183C18.593 16.1988 18.5794 15.9841 18.5651 15.8052C20.8976 16.0267 23.1396 15.1204 24.0531 13.8259C24.1021 13.7568 24.4403 13.4047 24.4696 12.9095C24.5175 12.1084 23.9941 11.5166 23.433 11.3313C23.2624 11.2751 22.8928 11.2003 22.4777 11.513Z" fill="#FF85D0"/>
<path fill-rule="evenodd" clip-rule="evenodd" d="M13.5718 3.07859L16.5512 3.72943C17.0353 3.83498 17.3967 4.24039 17.4461 4.7338L17.6393 6.66164C17.7209 6.61584 17.8958 6.50885 18.0014 6.37789C18.2279 6.09666 18.274 5.61577 18.1939 5.26334L17.9123 4.05432L17.2772 1.26919C17.1763 0.826225 16.826 0.482724 16.3809 0.390769C15.9358 0.298813 15.4778 0.474856 15.2095 0.841604L13.5718 3.07859Z" fill="#FF85D0"/>
<path d="M13.8834 20.1556C13.6683 20.2934 13.4695 20.421 13.2938 20.5335C12.7883 20.8574 12.1759 20.97 11.5884 20.8468C11.3706 20.8011 11.1228 20.7493 10.856 20.6934M4.8202 7.92284L4.75388 7.25993C4.71114 6.83267 4.91113 6.4173 5.27177 6.18414C6.39629 5.45716 8.85447 3.8679 10.128 3.04465C10.6403 2.7134 11.2638 2.60021 11.8596 2.7303C13.1322 3.00806 15.3937 3.50171 16.6009 3.76513C17.0851 3.87075 17.4464 4.27621 17.4958 4.76955L18.2534 12.3428M18.6033 15.8401L18.6547 16.3541C18.6976 16.7831 18.4959 17.2 18.1328 17.4326C17.7918 17.6511 17.3289 17.9477 16.8146 18.2774M8.11174 22.3873C7.39693 21.6403 6.60942 20.3613 6.26807 19.7822C6.11989 19.5297 6.01241 19.2555 5.94953 18.9695C5.87197 18.6127 5.81033 18.1607 5.76772 17.5953C5.76772 17.5953 5.59123 15.63 5.43638 14.0822" stroke="#242728" stroke-width="0.206731" stroke-miterlimit="1.5" stroke-linejoin="round"/>
<path d="M15.5039 5.16406C13.6479 6.35358 13.4953 6.45117 12.0919 7.35055C11.5147 7.72033 10.8154 7.84879 10.1447 7.70838" stroke="#242728" stroke-width="0.206731" stroke-miterlimit="1.5" stroke-linejoin="round"/>
<path d="M17.6422 6.72202C17.6422 6.72202 17.9079 6.58953 18.0491 6.41433C18.2757 6.13289 18.3217 5.65186 18.2416 5.29948L17.9602 4.09032C17.7663 3.23931 17.5338 2.2196 17.3256 1.30503C17.2245 0.861888 16.8741 0.518606 16.4293 0.426508C15.9841 0.33453 15.5265 0.510716 15.2578 0.877616C14.6845 1.66094 14.0584 2.51607 13.598 3.14503" stroke="#242728" stroke-width="0.206731" stroke-miterlimit="1.5" stroke-linejoin="round"/>
<path d="M8.46782 7.34675C8.46782 7.34675 5.94301 7.74389 4.45473 7.97806C3.84825 8.07347 3.40892 8.60724 3.43157 9.22075C3.46793 10.2052 3.52377 11.7056 3.5728 13.0274C3.59094 13.5218 3.89779 13.9594 4.35642 14.1453C4.81474 14.3311 5.33969 14.2305 5.69724 13.8885C6.47299 13.1458 7.17569 12.4729 7.17569 12.4729" stroke="#242728" stroke-width="0.206731" stroke-miterlimit="1.5" stroke-linejoin="round"/>
<path d="M3.50441 11.8194C3.42957 11.772 3.34855 11.7293 3.26002 11.6929C2.83085 11.5171 2.37334 11.6443 1.99271 11.6161" stroke="#242728" stroke-width="0.206731" stroke-miterlimit="1.5" stroke-linejoin="round"/>
<path fill-rule="evenodd" clip-rule="evenodd" d="M1.02777 11.7482C1.04304 11.8993 1.67255 11.9586 1.82367 11.9434C1.9748 11.9281 2.08509 11.7931 2.06982 11.6421C2.05453 11.4908 1.91944 11.3807 1.76832 11.3959C1.61719 11.4112 1.01247 11.597 1.02777 11.7482Z" fill="#FF85D0" stroke="#242728" stroke-width="0.206731" stroke-miterlimit="1.5" stroke-linejoin="round"/>
<path d="M17.345 11.9332C17.4718 11.9992 17.7003 12.1074 18.1117 12.2839C19.5617 12.9063 21.1376 13.1346 22.3233 12.125C22.3566 12.0967 22.4834 11.5879 22.5159 11.5585C22.9352 11.2357 23.3101 11.3113 23.4825 11.3682C24.0434 11.5534 24.5669 12.1454 24.5193 12.9468C24.4899 13.442 24.1516 13.7942 24.103 13.8632C22.6674 15.8978 17.9509 16.9732 14.758 14.2172" stroke="#242728" stroke-width="0.206731" stroke-miterlimit="1.5" stroke-linejoin="round"/>
<path d="M20.0648 12.8034C19.5559 12.833 19.2401 13.2402 19.3224 13.7083" stroke="#242728" stroke-width="0.206731" stroke-miterlimit="1.5" stroke-linejoin="round"/>
<path fill-rule="evenodd" clip-rule="evenodd" d="M14.9363 14.9613C15.153 14.8819 15.3959 14.9388 15.5546 15.1061C16.1854 15.768 16.896 16.0912 17.6419 16.262C17.737 16.2844 17.8042 16.3694 17.8036 16.4671C17.8033 16.5648 17.7355 16.6498 17.6402 16.6715C16.7362 16.8838 15.8441 16.8063 14.9638 16.4216C14.2902 16.127 14.3631 15.1727 14.9363 14.9613Z" fill="white" stroke="#242728" stroke-width="0.206731" stroke-miterlimit="1.5" stroke-linejoin="round"/>
<path d="M15.444 15.0156C15.118 14.7551 14.9588 14.5085 14.7561 14.224" stroke="#242728" stroke-width="0.206731" stroke-miterlimit="1.5" stroke-linejoin="round"/>
<path d="M14.7536 16.3224C14.3667 16.166 14.1438 15.9752 13.8683 15.7604" stroke="#242728" stroke-width="0.206731" stroke-miterlimit="1.5" stroke-linejoin="round"/>
<path d="M10.0314 18.9295C10.0314 18.9295 10.4967 19.911 10.7832 20.515C10.9275 20.8199 11.0043 21.1524 11.0076 21.4898C11.016 22.3067 11.031 23.8139 11.031 23.8139C11.0308 24.3487 10.2845 24.783 9.36515 24.7833C8.44614 24.7834 7.69984 24.3493 7.69997 23.8145L7.70047 21.9655" stroke="#242728" stroke-width="0.206731" stroke-miterlimit="1.5" stroke-linejoin="round"/>
<path d="M18.2344 17.3389L19.0251 19.2906C19.1893 19.7072 18.7632 20.2369 18.0742 20.4729" stroke="#242728" stroke-width="0.206731" stroke-miterlimit="1.5" stroke-linejoin="round"/>
<path d="M13.8359 20.1953L13.8709 21.657C13.8949 22.1782 13.2697 22.5677 12.4752 22.5264C11.6811 22.4849 11.0166 22.0283 10.9925 21.5071" stroke="#242728" stroke-width="0.206731" stroke-miterlimit="1.5" stroke-linejoin="round"/>
<path d="M17.7656 18.7944C17.2772 18.6273 16.6694 19.1084 16.4094 19.8681C16.1495 20.6277 16.3351 21.3803 16.8235 21.5475" stroke="#242728" stroke-width="0.206731" stroke-miterlimit="1.5" stroke-linejoin="round"/>
<path d="M15.677 17.6563L17.8108 18.8211C18.7996 19.3047 17.8765 21.8407 16.8235 21.5484C15.3002 21.0163 13.8934 20.2661 12.6323 19.2432" stroke="#242728" stroke-width="0.206731" stroke-miterlimit="1.5" stroke-linejoin="round"/>
</svg>
