<svg width="24" height="25" viewBox="0 0 24 25" fill="none" xmlns="http://www.w3.org/2000/svg">
<g clip-path="url(#clip0_139_2590)">
<path d="M21.1806 15.4243L23.7531 16.7113C24.0831 16.8763 24.0831 17.3473 23.7531 17.5123L12.4011 23.1898C12.2767 23.2517 12.1396 23.2838 12.0006 23.2838C11.8617 23.2838 11.7246 23.2517 11.6001 23.1898L0.248124 17.5123C0.173966 17.4749 0.111643 17.4177 0.0680973 17.347C0.024552 17.2763 0.00149488 17.1949 0.00149488 17.1118C0.00149488 17.0288 0.024552 16.9474 0.0680973 16.8766C0.111643 16.8059 0.173966 16.7487 0.248124 16.7113L2.82212 15.4243L10.7976 19.4128C11.5551 19.7908 12.4476 19.7908 13.2036 19.4128L21.1791 15.4228L21.1806 15.4243ZM11.6001 0.27432C11.7246 0.212479 11.8617 0.180298 12.0006 0.180298C12.1396 0.180298 12.2767 0.212479 12.4011 0.27432L23.7531 5.95032C23.8272 5.98794 23.8895 6.04534 23.9329 6.11617C23.9764 6.18699 23.9994 6.26847 23.9994 6.35157C23.9994 6.43467 23.9764 6.51615 23.9329 6.58697C23.8895 6.6578 23.8272 6.7152 23.7531 6.75282L12.4011 12.4273C12.2767 12.4892 12.1396 12.5213 12.0006 12.5213C11.8617 12.5213 11.7246 12.4892 11.6001 12.4273L0.248124 6.75282C0.173573 6.71559 0.110868 6.65833 0.0670416 6.58745C0.0232151 6.51658 0 6.4349 0 6.35157C0 6.26824 0.0232151 6.18656 0.0670416 6.11569C0.110868 6.04481 0.173573 5.98755 0.248124 5.95032L11.6001 0.27432Z" fill="url(#paint0_linear_139_2590)"/>
<path d="M21.1811 10.0439L23.7536 11.3309C24.0836 11.4959 24.0836 11.9669 23.7536 12.1319L12.4016 17.8079C12.2771 17.8698 12.1401 17.902 12.0011 17.902C11.8621 17.902 11.725 17.8698 11.6006 17.8079L0.248582 12.1319C0.174424 12.0946 0.112101 12.0373 0.0685556 11.9666C0.0250102 11.8959 0.00195312 11.8145 0.00195312 11.7314C0.00195312 11.6484 0.0250102 11.567 0.0685556 11.4963C0.112101 11.4256 0.174424 11.3683 0.248582 11.3309L2.82258 10.0439L10.7981 14.0324C11.5556 14.4104 12.4481 14.4104 13.2041 14.0324L21.1811 10.0439Z" fill="url(#paint1_linear_139_2590)"/>
</g>
<defs>
<linearGradient id="paint0_linear_139_2590" x1="0" y1="23.2838" x2="50.1244" y2="2.69047" gradientUnits="userSpaceOnUse">
<stop stop-color="#F77577"/>
<stop offset="0.452015" stop-color="#DB39CB"/>
<stop offset="0.973958" stop-color="#CA6FE5"/>
</linearGradient>
<linearGradient id="paint1_linear_139_2590" x1="0.00195312" y1="17.902" x2="23.8259" y2="-10.8741" gradientUnits="userSpaceOnUse">
<stop stop-color="#F77577"/>
<stop offset="0.452015" stop-color="#DB39CB"/>
<stop offset="0.973958" stop-color="#CA6FE5"/>
</linearGradient>
<clipPath id="clip0_139_2590">
<rect width="24" height="24" fill="white" transform="translate(0 0.179932)"/>
</clipPath>
</defs>
</svg>
