<svg width="22" height="19" viewBox="0 0 22 19" fill="none" xmlns="http://www.w3.org/2000/svg">
<path d="M1.70598 18.168C1.38598 18.168 1.12998 18.096 0.937984 17.952C0.745984 17.808 0.633984 17.616 0.601984 17.376C0.569984 17.136 0.617984 16.864 0.745984 16.56L7.24998 1.968C7.40998 1.584 7.60998 1.312 7.84998 1.152C8.10598 0.992 8.38598 0.912 8.68998 0.912C8.97798 0.912 9.24198 0.992 9.48198 1.152C9.73798 1.312 9.94598 1.584 10.106 1.968L16.61 16.56C16.754 16.864 16.81 17.144 16.778 17.4C16.746 17.64 16.642 17.832 16.466 17.976C16.29 18.104 16.042 18.168 15.722 18.168C15.37 18.168 15.09 18.08 14.882 17.904C14.674 17.728 14.49 17.456 14.33 17.088L12.65 13.2L13.778 13.872H3.55398L4.65798 13.2L3.00198 17.088C2.84198 17.472 2.66598 17.752 2.47398 17.928C2.28198 18.088 2.02598 18.168 1.70598 18.168ZM8.64198 3.84L5.01798 12.432L4.41798 11.856H12.89L12.338 12.432L8.68998 3.84H8.64198ZM20.7219 18.168C20.3219 18.168 20.0099 18.056 19.7859 17.832C19.5779 17.608 19.4739 17.296 19.4739 16.896V2.184C19.4739 1.768 19.5779 1.456 19.7859 1.248C20.0099 1.024 20.3219 0.912 20.7219 0.912C21.1219 0.912 21.4259 1.024 21.6339 1.248C21.8579 1.456 21.9699 1.768 21.9699 2.184V16.896C21.9699 17.296 21.8659 17.608 21.6579 17.832C21.4499 18.056 21.1379 18.168 20.7219 18.168Z" fill="#F77577"/>
</svg>
