<svg xmlns="http://www.w3.org/2000/svg" width="28" height="28" viewBox="0 0 28 28" fill="none">
<path d="M9.09961 16.0999V11.2" stroke="#FFC6D9" stroke-width="1.5" stroke-linecap="round" stroke-linejoin="round"/>
<path d="M9.27501 20.9999C10.5315 20.9999 11.55 19.9814 11.55 18.7249C11.55 17.4685 10.5315 16.45 9.27501 16.45C8.01857 16.45 7 17.4685 7 18.7249C7 19.9814 8.01857 20.9999 9.27501 20.9999Z" stroke="#FFC6D9" stroke-width="1.5" stroke-linecap="round" stroke-linejoin="round"/>
<path d="M9.09999 11.2C10.2598 11.2 11.2 10.2598 11.2 9.09999C11.2 7.94019 10.2598 7 9.09999 7C7.94019 7 7 7.94019 7 9.09999C7 10.2598 7.94019 11.2 9.09999 11.2Z" stroke="#FFC6D9" stroke-width="1.5" stroke-linecap="round" stroke-linejoin="round"/>
<path d="M18.9008 11.2C20.0606 11.2 21.0008 10.2598 21.0008 9.09999C21.0008 7.94019 20.0606 7 18.9008 7C17.741 7 16.8008 7.94019 16.8008 9.09999C16.8008 10.2598 17.741 11.2 18.9008 11.2Z" stroke="#FFC6D9" stroke-width="1.5" stroke-linecap="round" stroke-linejoin="round"/>
<path d="M9.19336 16.1001C9.50836 14.8751 10.6283 13.9651 11.9467 13.9768L14.35 13.9884C16.1817 14.0001 17.745 12.8218 18.3167 11.1768" stroke="#FFC6D9" stroke-width="1.5" stroke-linecap="round" stroke-linejoin="round"/>
<path d="M10.5007 2.33325H17.5007C23.334 2.33325 25.6673 4.66659 25.6673 10.4999V17.4999C25.6673 23.3333 23.334 25.6666 17.5007 25.6666H10.5007C4.66732 25.6666 2.33398 23.3333 2.33398 17.4999V10.4999C2.33398 4.66659 4.66732 2.33325 10.5007 2.33325Z" stroke="#FFC6D9" stroke-width="1.5" stroke-linecap="round" stroke-linejoin="round"/>
</svg>
