<svg width="40" height="40" viewBox="0 0 40 40" fill="none" xmlns="http://www.w3.org/2000/svg">
<path d="M36.6667 30.417H25C24.3167 30.417 23.75 29.8503 23.75 29.167C23.75 28.4837 24.3167 27.917 25 27.917H36.6667C37.35 27.917 37.9167 28.4837 37.9167 29.167C37.9167 29.8503 37.35 30.417 36.6667 30.417Z" fill="white"/>
<path d="M8.33325 30.417H3.33325C2.64992 30.417 2.08325 29.8503 2.08325 29.167C2.08325 28.4837 2.64992 27.917 3.33325 27.917H8.33325C9.01659 27.917 9.58325 28.4837 9.58325 29.167C9.58325 29.8503 9.01659 30.417 8.33325 30.417Z" fill="white"/>
<path d="M36.6667 12.083H31.6667C30.9834 12.083 30.4167 11.5163 30.4167 10.833C30.4167 10.1497 30.9834 9.58301 31.6667 9.58301H36.6667C37.3501 9.58301 37.9167 10.1497 37.9167 10.833C37.9167 11.5163 37.3501 12.083 36.6667 12.083Z" fill="white"/>
<path d="M14.9999 12.083H3.33325C2.64992 12.083 2.08325 11.5163 2.08325 10.833C2.08325 10.1497 2.64992 9.58301 3.33325 9.58301H14.9999C15.6833 9.58301 16.2499 10.1497 16.2499 10.833C16.2499 11.5163 15.6833 12.083 14.9999 12.083Z" fill="white"/>
<path d="M21.6666 35.417H11.6666C8.79992 35.417 7.08325 33.7003 7.08325 30.8337V27.5003C7.08325 24.6337 8.79992 22.917 11.6666 22.917H21.6666C24.5333 22.917 26.2499 24.6337 26.2499 27.5003V30.8337C26.2499 33.7003 24.5333 35.417 21.6666 35.417ZM11.6666 25.417C10.1833 25.417 9.58325 26.017 9.58325 27.5003V30.8337C9.58325 32.317 10.1833 32.917 11.6666 32.917H21.6666C23.1499 32.917 23.7499 32.317 23.7499 30.8337V27.5003C23.7499 26.017 23.1499 25.417 21.6666 25.417H11.6666Z" fill="white"/>
<path d="M28.3333 17.083H18.3333C15.4667 17.083 13.75 15.3663 13.75 12.4997V9.16634C13.75 6.29967 15.4667 4.58301 18.3333 4.58301H28.3333C31.2 4.58301 32.9167 6.29967 32.9167 9.16634V12.4997C32.9167 15.3663 31.2 17.083 28.3333 17.083ZM18.3333 7.08301C16.85 7.08301 16.25 7.68301 16.25 9.16634V12.4997C16.25 13.983 16.85 14.583 18.3333 14.583H28.3333C29.8167 14.583 30.4167 13.983 30.4167 12.4997V9.16634C30.4167 7.68301 29.8167 7.08301 28.3333 7.08301H18.3333Z" fill="white"/>
</svg>
