<svg width="40" height="40" viewBox="0 0 40 40" fill="none" xmlns="http://www.w3.org/2000/svg">
<path d="M12.4338 32.2329H9.2337C4.3337 31.8829 2.13379 28.1162 2.13379 24.7662C2.13379 21.4162 4.33372 17.6329 9.15039 17.2996C9.83372 17.2329 10.4337 17.7662 10.4837 18.4662C10.5337 19.1496 10.0171 19.7496 9.31712 19.7996C6.08378 20.0329 4.63379 22.4662 4.63379 24.7829C4.63379 27.0996 6.08378 29.5329 9.31712 29.7662H12.4338C13.1171 29.7662 13.6838 30.3329 13.6838 31.0162C13.6838 31.6996 13.1171 32.2329 12.4338 32.2329Z" fill="white"/>
<path d="M27.7832 32.233C27.7499 32.233 27.7333 32.233 27.6999 32.233C27.0166 32.233 26.3833 31.6663 26.3833 30.983C26.3833 30.2663 26.9166 29.733 27.6166 29.733C29.6666 29.733 31.5 29.0163 32.9333 27.733C35.5333 25.4663 35.6999 22.1997 34.9999 19.8997C34.2999 17.6163 32.3499 14.9997 28.9499 14.583C28.3999 14.5163 27.9666 14.0997 27.8666 13.5497C27.1999 9.54969 25.05 6.78301 21.7833 5.78301C18.4166 4.73301 14.4832 5.76634 12.0332 8.33301C9.64989 10.8163 9.0999 14.2997 10.4832 18.133C10.7166 18.783 10.3833 19.4997 9.73332 19.733C9.08332 19.9663 8.36661 19.633 8.13328 18.983C6.44995 14.283 7.21663 9.78301 10.2333 6.61635C13.3166 3.38301 18.2666 2.09967 22.5166 3.39967C26.4166 4.59967 29.1666 7.81634 30.1666 12.283C33.5666 13.0497 36.2999 15.633 37.3833 19.1997C38.5666 23.083 37.4999 27.083 34.5833 29.6164C32.7333 31.283 30.3166 32.233 27.7832 32.233Z" fill="white"/>
<path d="M20.0001 37.1335C16.6501 37.1335 13.5168 35.3501 11.8001 32.4668C11.6168 32.1835 11.4334 31.8501 11.2834 31.4835C10.7168 30.3001 10.4167 28.9501 10.4167 27.5501C10.4167 22.2668 14.7167 17.9668 20.0001 17.9668C25.2834 17.9668 29.5834 22.2668 29.5834 27.5501C29.5834 28.9668 29.2835 30.3001 28.6835 31.5335C28.5501 31.8501 28.3668 32.1835 28.1668 32.5001C26.4835 35.3501 23.3501 37.1335 20.0001 37.1335ZM20.0001 20.4668C16.1001 20.4668 12.9167 23.6501 12.9167 27.5501C12.9167 28.5835 13.1334 29.5501 13.5501 30.4335C13.6834 30.7168 13.8001 30.9501 13.9334 31.1668C15.2001 33.3168 17.5167 34.6335 19.9834 34.6335C22.4501 34.6335 24.7667 33.3168 26.0167 31.2001C26.1667 30.9501 26.3001 30.7168 26.4001 30.4835C26.8501 29.5668 27.0667 28.6001 27.0667 27.5668C27.0834 23.6501 23.9001 20.4668 20.0001 20.4668Z" fill="white"/>
<path d="M19.0499 30.4501C18.7333 30.4501 18.4166 30.3334 18.1666 30.0834L16.5166 28.4334C16.0332 27.9501 16.0332 27.1501 16.5166 26.6667C16.9999 26.1834 17.7999 26.1834 18.2832 26.6667L19.0833 27.4667L21.7499 25.0001C22.2666 24.5334 23.0499 24.5667 23.5166 25.0667C23.9832 25.5667 23.9499 26.3667 23.4499 26.8334L19.8999 30.1167C19.6499 30.3334 19.3499 30.4501 19.0499 30.4501Z" fill="white"/>
</svg>
