<svg xmlns="http://www.w3.org/2000/svg" width="29" height="28" viewBox="0 0 29 28" fill="none">
<path d="M9.03616 22.5632H6.79611C3.36611 22.3182 1.82617 19.6816 1.82617 17.3366C1.82617 14.9916 3.36613 12.3432 6.73779 12.1099C7.21613 12.0632 7.63611 12.4366 7.67111 12.9266C7.70611 13.4049 7.3445 13.8249 6.8545 13.8599C4.59117 14.0232 3.57617 15.7266 3.57617 17.3482C3.57617 18.9699 4.59117 20.6732 6.8545 20.8366H9.03616C9.5145 20.8366 9.91116 21.2332 9.91116 21.7116C9.91116 22.1899 9.5145 22.5632 9.03616 22.5632Z" fill="#F77577"/>
<path d="M19.7811 22.5635C19.7577 22.5635 19.7461 22.5635 19.7227 22.5635C19.2444 22.5635 18.8011 22.1668 18.8011 21.6885C18.8011 21.1868 19.1744 20.8135 19.6644 20.8135C21.0994 20.8135 22.3828 20.3118 23.3861 19.4135C25.2061 17.8268 25.3227 15.5402 24.8327 13.9302C24.3427 12.3318 22.9777 10.5002 20.5977 10.2085C20.2127 10.1618 19.9094 9.87017 19.8394 9.48517C19.3727 6.68517 17.8678 4.7485 15.5811 4.0485C13.2244 3.3135 10.471 4.03683 8.75604 5.8335C7.08771 7.57183 6.70272 10.0102 7.67105 12.6935C7.83439 13.1485 7.60111 13.6502 7.14611 13.8135C6.69111 13.9768 6.18942 13.7435 6.02608 13.2885C4.84775 9.9985 5.38443 6.8485 7.4961 4.63183C9.65443 2.3685 13.1194 1.47016 16.0944 2.38016C18.8244 3.22016 20.7494 5.47183 21.4494 8.59849C23.8294 9.13516 25.7427 10.9435 26.5011 13.4402C27.3294 16.1585 26.5827 18.9585 24.5411 20.7318C23.2461 21.8985 21.5544 22.5635 19.7811 22.5635Z" fill="#F77577"/>
<path d="M14.3324 25.9933C11.9874 25.9933 9.79404 24.745 8.59238 22.7267C8.46404 22.5283 8.33571 22.295 8.23071 22.0383C7.83405 21.21 7.62402 20.265 7.62402 19.285C7.62402 15.5867 10.634 12.5767 14.3324 12.5767C18.0307 12.5767 21.0407 15.5867 21.0407 19.285C21.0407 20.2767 20.8307 21.21 20.4107 22.0733C20.3174 22.295 20.1891 22.5283 20.0491 22.75C18.8707 24.745 16.6774 25.9933 14.3324 25.9933ZM14.3324 14.3267C11.6024 14.3267 9.37402 16.555 9.37402 19.285C9.37402 20.0083 9.5257 20.685 9.81736 21.3033C9.9107 21.5017 9.99234 21.665 10.0857 21.8167C10.9723 23.3217 12.594 24.2433 14.3207 24.2433C16.0473 24.2433 17.669 23.3217 18.544 21.84C18.649 21.665 18.7424 21.5017 18.8124 21.3383C19.1274 20.6967 19.279 20.02 19.279 19.2967C19.2907 16.555 17.0624 14.3267 14.3324 14.3267Z" fill="#F77577"/>
<path d="M13.6677 21.3149C13.4461 21.3149 13.2244 21.2332 13.0494 21.0582L11.8944 19.9032C11.556 19.5649 11.556 19.0049 11.8944 18.6666C12.2327 18.3282 12.7927 18.3282 13.131 18.6666L13.6911 19.2266L15.5577 17.4999C15.9194 17.1732 16.4677 17.1966 16.7944 17.5466C17.1211 17.8966 17.0977 18.4566 16.7477 18.7832L14.2627 21.0816C14.0877 21.2332 13.8777 21.3149 13.6677 21.3149Z" fill="#F77577"/>
</svg>
