<svg xmlns="http://www.w3.org/2000/svg" width="29" height="28" viewBox="0 0 29 28" fill="none">
<path d="M10.0003 17.2085C9.77867 17.2085 9.55701 17.1268 9.382 16.9518L7.04867 14.6185C6.71034 14.2802 6.71034 13.7201 7.04867 13.3818L9.382 11.0484C9.72034 10.7101 10.2803 10.7101 10.6187 11.0484C10.957 11.3868 10.957 11.9468 10.6187 12.2852L8.90367 14.0001L10.6187 15.7151C10.957 16.0534 10.957 16.6135 10.6187 16.9518C10.4437 17.1268 10.222 17.2085 10.0003 17.2085Z" fill="#7CCFE1"/>
<path d="M19.333 17.2085C19.1114 17.2085 18.8897 17.1268 18.7147 16.9518C18.3764 16.6135 18.3764 16.0534 18.7147 15.7151L20.4297 14.0001L18.7147 12.2852C18.3764 11.9468 18.3764 11.3868 18.7147 11.0484C19.053 10.7101 19.613 10.7101 19.9514 11.0484L22.2847 13.3818C22.623 13.7201 22.623 14.2802 22.2847 14.6185L19.9514 16.9518C19.7764 17.1268 19.5547 17.2085 19.333 17.2085Z" fill="#7CCFE1"/>
<path d="M14.6647 26.5418C7.74638 26.5418 2.12305 20.9185 2.12305 14.0002C2.12305 7.08183 7.74638 1.4585 14.6647 1.4585C21.583 1.4585 27.2064 7.08183 27.2064 14.0002C27.2064 20.9185 21.583 26.5418 14.6647 26.5418ZM14.6647 3.2085C8.71471 3.2085 3.87305 8.05016 3.87305 14.0002C3.87305 19.9502 8.71471 24.7918 14.6647 24.7918C20.6147 24.7918 25.4564 19.9502 25.4564 14.0002C25.4564 8.05016 20.6147 3.2085 14.6647 3.2085Z" fill="#7CCFE1"/>
<path d="M13.4992 17.5933C13.3825 17.5933 13.2658 17.5699 13.1608 17.5233C12.7175 17.3366 12.5075 16.8233 12.7058 16.3683L15.0392 10.9199C15.2258 10.4765 15.7392 10.2665 16.1825 10.4649C16.6258 10.6515 16.8358 11.1649 16.6375 11.6199L14.3042 17.0682C14.1642 17.3949 13.8375 17.5933 13.4992 17.5933Z" fill="#7CCFE1"/>
</svg>
