<svg width="40" height="40" viewBox="0 0 40 40" fill="none" xmlns="http://www.w3.org/2000/svg">
<path d="M18.0666 22.5667H15.5666C13.6499 22.5667 12.0999 20.9667 12.0999 18.9833C12.0999 18.3 12.6666 17.7333 13.3499 17.7333C14.0333 17.7333 14.5999 18.3 14.5999 18.9833C14.5999 19.5833 15.0333 20.0667 15.5666 20.0667H18.0666C18.4499 20.0667 18.7499 19.7167 18.7499 19.2833C18.7499 18.7 18.6499 18.6667 18.2666 18.5333L14.2499 17.1333C12.7999 16.6333 12.0833 15.6167 12.0833 14.0333C12.0833 12.2333 13.5166 10.75 15.2666 10.75H17.7666C19.6833 10.75 21.2333 12.35 21.2333 14.3333C21.2333 15.0167 20.6666 15.5833 19.9833 15.5833C19.2999 15.5833 18.7333 15.0167 18.7333 14.3333C18.7333 13.7333 18.2999 13.25 17.7666 13.25H15.2666C14.8833 13.25 14.5833 13.6 14.5833 14.0333C14.5833 14.6167 14.6833 14.65 15.0666 14.7833L19.0833 16.1833C20.5333 16.7 21.2333 17.7167 21.2333 19.2833C21.2499 21.1 19.8166 22.5667 18.0666 22.5667Z" fill="white"/>
<path d="M16.6667 23.9003C15.9834 23.9003 15.4167 23.3337 15.4167 22.6503V21.417C15.4167 20.7337 15.9834 20.167 16.6667 20.167C17.3501 20.167 17.9167 20.7337 17.9167 21.417V22.6503C17.9167 23.3503 17.3501 23.9003 16.6667 23.9003Z" fill="white"/>
<path d="M16.6667 13.2336C15.9834 13.2336 15.4167 12.6669 15.4167 11.9836V10.6836C15.4167 10.0003 15.9834 9.43359 16.6667 9.43359C17.3501 9.43359 17.9167 10.0003 17.9167 10.6836V11.9836C17.9167 12.6669 17.3501 13.2336 16.6667 13.2336Z" fill="white"/>
<path d="M16.6499 31.1997C8.61658 31.1997 2.08325 24.6664 2.08325 16.6331C2.08325 8.59974 8.61658 2.06641 16.6499 2.06641C24.6833 2.06641 31.2166 8.59974 31.2166 16.6331C31.2166 24.6664 24.6666 31.1997 16.6499 31.1997ZM16.6499 4.58307C9.99992 4.58307 4.58325 9.99974 4.58325 16.6497C4.58325 23.2997 9.99992 28.6997 16.6499 28.6997C23.2999 28.6997 28.7166 23.2831 28.7166 16.6331C28.7166 9.98307 23.2999 4.58307 16.6499 4.58307Z" fill="white"/>
<path d="M28.3666 37.8671C25.2833 37.8671 22.3833 36.3671 20.6 33.8338C20.2 33.2671 20.3333 32.4838 20.9 32.0838C21.4666 31.6838 22.25 31.8171 22.65 32.3838C23.9666 34.2505 26.1 35.3505 28.3666 35.3505C32.2333 35.3505 35.3666 32.2171 35.3666 28.3505C35.3666 26.1005 34.2666 23.9671 32.4333 22.6505C31.8666 22.2505 31.75 21.4671 32.15 20.9005C32.55 20.3338 33.3333 20.2171 33.9 20.6171C36.3833 22.4005 37.8666 25.2838 37.8666 28.3505C37.8666 33.6171 33.6166 37.8671 28.3666 37.8671Z" fill="white"/>
</svg>
