<svg width="16" height="9" viewBox="0 0 16 9" fill="none" xmlns="http://www.w3.org/2000/svg">
<path d="M1.74858 8.16335C1.46686 8.16335 1.20881 8.0947 0.974432 7.95739C0.740057 7.81771 0.55303 7.63068 0.413352 7.39631C0.276042 7.16193 0.207386 6.90388 0.207386 6.62216C0.207386 6.33807 0.276042 6.07884 0.413352 5.84446C0.55303 5.61009 0.740057 5.42306 0.974432 5.28338C1.20881 5.1437 1.46686 5.07386 1.74858 5.07386H2.57244V3.64631H1.74858C1.46686 3.64631 1.20881 3.57765 0.974432 3.44034C0.740057 3.30066 0.55303 3.11482 0.413352 2.88281C0.276042 2.64844 0.207386 2.3892 0.207386 2.10511C0.207386 1.82102 0.276042 1.56297 0.413352 1.33097C0.55303 1.09659 0.740057 0.910748 0.974432 0.773438C1.20881 0.633759 1.46686 0.56392 1.74858 0.56392C2.03267 0.56392 2.2919 0.633759 2.52628 0.773438C2.76065 0.910748 2.94768 1.09659 3.08736 1.33097C3.22704 1.56297 3.29688 1.82102 3.29688 2.10511V2.92188H4.72443V2.10511C4.72443 1.82102 4.79309 1.56297 4.9304 1.33097C5.07008 1.09659 5.25592 0.910748 5.48793 0.773438C5.7223 0.633759 5.98153 0.56392 6.26562 0.56392C6.54972 0.56392 6.80777 0.633759 7.03977 0.773438C7.27415 0.910748 7.45999 1.09659 7.5973 1.33097C7.73698 1.56297 7.80682 1.82102 7.80682 2.10511C7.80682 2.3892 7.73698 2.64844 7.5973 2.88281C7.45999 3.11482 7.27415 3.30066 7.03977 3.44034C6.80777 3.57765 6.54972 3.64631 6.26562 3.64631H5.44886V5.07386H6.26562C6.54972 5.07386 6.80777 5.1437 7.03977 5.28338C7.27415 5.42306 7.45999 5.61009 7.5973 5.84446C7.73698 6.07884 7.80682 6.33807 7.80682 6.62216C7.80682 6.90388 7.73698 7.16193 7.5973 7.39631C7.45999 7.63068 7.27415 7.81771 7.03977 7.95739C6.80777 8.0947 6.54972 8.16335 6.26562 8.16335C5.98153 8.16335 5.7223 8.0947 5.48793 7.95739C5.25592 7.81771 5.07008 7.63068 4.9304 7.39631C4.79309 7.16193 4.72443 6.90388 4.72443 6.62216V5.7983H3.29688V6.62216C3.29688 6.90388 3.22704 7.16193 3.08736 7.39631C2.94768 7.63068 2.76065 7.81771 2.52628 7.95739C2.2919 8.0947 2.03267 8.16335 1.74858 8.16335ZM1.74858 7.43892C1.90009 7.43892 2.03741 7.40223 2.16051 7.32884C2.28598 7.25545 2.38542 7.1572 2.45881 7.03409C2.53456 6.90862 2.57244 6.77131 2.57244 6.62216V5.7983H1.74858C1.59943 5.7983 1.46212 5.83617 1.33665 5.91193C1.21354 5.98532 1.11529 6.08475 1.0419 6.21023C0.968513 6.33333 0.931818 6.47064 0.931818 6.62216C0.931818 6.77131 0.968513 6.90862 1.0419 7.03409C1.11529 7.1572 1.21354 7.25545 1.33665 7.32884C1.46212 7.40223 1.59943 7.43892 1.74858 7.43892ZM1.74858 2.92188H2.57244V2.10511C2.57244 1.9536 2.53456 1.81629 2.45881 1.69318C2.38542 1.57008 2.28598 1.47183 2.16051 1.39844C2.03741 1.32505 1.90009 1.28835 1.74858 1.28835C1.59943 1.28835 1.46212 1.32505 1.33665 1.39844C1.21354 1.47183 1.11529 1.57008 1.0419 1.69318C0.968513 1.81629 0.931818 1.9536 0.931818 2.10511C0.931818 2.25663 0.968513 2.39512 1.0419 2.5206C1.11529 2.6437 1.21354 2.74195 1.33665 2.81534C1.46212 2.88636 1.59943 2.92188 1.74858 2.92188ZM5.44886 2.92188H6.26562C6.41714 2.92188 6.55445 2.88636 6.67756 2.81534C6.80066 2.74195 6.89891 2.6437 6.9723 2.5206C7.04569 2.39512 7.08239 2.25663 7.08239 2.10511C7.08239 1.9536 7.04569 1.81629 6.9723 1.69318C6.89891 1.57008 6.80066 1.47183 6.67756 1.39844C6.55445 1.32505 6.41714 1.28835 6.26562 1.28835C6.11411 1.28835 5.97562 1.32505 5.85014 1.39844C5.72704 1.47183 5.62879 1.57008 5.5554 1.69318C5.48438 1.81629 5.44886 1.9536 5.44886 2.10511V2.92188ZM6.26562 7.43892C6.41714 7.43892 6.55445 7.40223 6.67756 7.32884C6.80066 7.25545 6.89891 7.1572 6.9723 7.03409C7.04569 6.90862 7.08239 6.77131 7.08239 6.62216C7.08239 6.47064 7.04569 6.33333 6.9723 6.21023C6.89891 6.08475 6.80066 5.98532 6.67756 5.91193C6.55445 5.83617 6.41714 5.7983 6.26562 5.7983H5.44886V6.62216C5.44886 6.77131 5.48438 6.90862 5.5554 7.03409C5.62879 7.1572 5.72704 7.25545 5.85014 7.32884C5.97562 7.40223 6.11411 7.43892 6.26562 7.43892ZM3.29688 5.07386H4.72443V3.64631H3.29688V5.07386ZM9.89045 8V0.727273H10.7711V4.33523H10.8564L14.1234 0.727273H15.274L12.22 4.00852L15.274 8H14.2086L11.6802 4.61932L10.7711 5.64205V8H9.89045Z" fill="#9EA2A6"/>
</svg>
