<svg width="416" height="387" viewBox="0 0 416 387" fill="none" xmlns="http://www.w3.org/2000/svg">
<path fill-rule="evenodd" clip-rule="evenodd" d="M345.182 237.037C334.624 242.08 323.229 246.047 311.265 248.566C313.147 264.697 322.934 278.893 333.317 277.822C333.36 277.816 333.409 277.811 333.459 277.805C347.074 275.395 350.171 253.391 345.182 237.037Z" fill="#FF85D0"/>
<path fill-rule="evenodd" clip-rule="evenodd" d="M290.205 287.799C280.298 284.564 268.038 294.313 262.781 309.667C257.519 325.022 261.228 340.234 271.047 343.742C271.097 343.758 271.151 343.775 271.206 343.797C292.634 349.736 311.408 298.209 291.282 288.384L290.205 287.799Z" fill="#FF85D0"/>
<path fill-rule="evenodd" clip-rule="evenodd" d="M333.317 277.822C322.934 278.893 313.147 264.697 311.265 248.566C304.712 249.943 297.983 250.889 291.134 251.331C291.156 251.43 291.173 251.522 291.189 251.621C291.386 253.102 290.533 254.517 289.132 255.047C286.392 256.091 283.645 256.965 280.872 257.637C276.479 263.751 271.545 269.456 266.146 274.68L272.967 278.396C292.989 280.33 313.109 280.035 333.317 277.822Z" fill="#FF85D0"/>
<path fill-rule="evenodd" clip-rule="evenodd" d="M345.461 236.674C381.084 219.669 407.106 190.457 412.866 163.666C413.228 161.989 416.751 152.705 413.353 143.213C407.85 127.859 393.337 120.963 381.357 121.974C377.681 122.285 370.061 123.859 364.787 133.235C364.744 133.323 364.727 133.531 364.733 133.826L365.105 138.011C365.438 140.951 365.854 144.317 365.739 145.191C365.734 145.268 365.717 145.328 365.701 145.366C357.796 161.196 344.52 170.775 328.743 176.124C321.161 178.698 312.999 180.294 304.575 181.141C304.082 165.196 300.598 149.945 294.668 135.962C296.605 135.137 301.495 132.864 303.771 130.039C308.382 124.324 309.318 114.548 307.682 107.39C297.999 103.281 288.109 96.9204 278.043 88.7732C276.917 87.8661 276.512 86.3362 277.042 84.992C277.573 83.6478 278.913 82.8008 280.352 82.8991C287.682 83.4073 294.892 83.4235 301.96 82.8169L289.039 26.2239C286.988 17.2244 279.86 10.2466 270.806 8.37233C261.747 6.50356 252.437 10.0826 246.972 17.5359L213.165 63.6596C202.344 60.5777 190.933 58.9219 179.139 58.9219C128.647 58.9219 81.2356 88.1011 59.2447 130.711L50.2405 132.132C37.9048 134.066 28.966 144.913 29.4255 157.382L32.2975 234.734C32.6695 244.782 38.9112 253.673 48.2382 257.454C50.9023 258.53 53.6757 259.132 56.4491 259.285C63.1941 279.043 73.6592 295.769 88.7957 313.326L88.429 354.575C88.6752 365.318 103.763 373.995 122.313 373.995C141.016 373.995 156.196 365.176 156.196 354.308C161.355 356.608 168.302 358.586 175.299 358.586C192.186 358.586 205.9 350.614 205.9 340.8L205.594 310.883C225.993 324.544 247.989 335.216 271.326 343.379C261.507 339.871 257.797 324.659 263.06 309.304C268.317 293.95 280.576 284.201 290.483 287.436L266.424 274.317C271.824 269.093 276.758 263.388 281.151 257.274C270.494 259.858 259.57 259.629 248.356 256.454C248.131 256.388 247.913 256.323 247.694 256.246C244.515 255.17 242.256 253.05 240.911 250.52C237.94 244.946 239.357 237.362 244.909 234.417C247.371 233.111 250.265 233.062 252.727 234.182C253.378 234.482 254.001 234.865 254.576 235.324C258.186 238.198 261.846 240.498 265.555 242.324C273.076 246.017 280.784 247.766 288.585 248.487C289.98 248.618 291.112 249.629 291.413 250.968C298.262 250.526 304.991 249.58 311.544 248.203C323.508 245.684 334.903 241.717 345.461 236.674Z" fill="#FF85D0"/>
<path fill-rule="evenodd" clip-rule="evenodd" d="M306.857 107.691C308.489 114.852 307.557 124.626 302.949 130.343C300.078 133.902 294.674 136.592 294.674 136.592M212.378 63.8822C221.739 51.1057 234.47 33.7346 246.127 17.8222C251.591 10.369 260.898 6.79231 269.954 8.66436C279.004 10.5389 286.136 17.5165 288.195 26.5214C292.437 45.1062 297.174 65.8275 301.124 83.1205" fill="#FF85D0"/>
<path d="M306.857 107.691C308.489 114.852 307.557 124.626 302.949 130.343C300.078 133.902 294.674 136.592 294.674 136.592M212.378 63.8822C221.739 51.1057 234.47 33.7346 246.127 17.8222C251.591 10.369 260.898 6.79231 269.954 8.66436C279.004 10.5389 286.136 17.5165 288.195 26.5214C292.437 45.1062 297.174 65.8275 301.124 83.1205" stroke="#242728" stroke-width="3.47369" stroke-miterlimit="1.5" stroke-linejoin="round"/>
<path fill-rule="evenodd" clip-rule="evenodd" d="M289.815 287.776C279.884 284.383 267.521 294.161 262.229 309.601C256.938 325.04 260.709 340.331 270.64 343.725" fill="#FF85D0"/>
<path d="M289.815 287.776C279.884 284.383 267.521 294.161 262.229 309.601C256.938 325.04 260.709 340.331 270.64 343.725" stroke="#242728" stroke-width="3.47369" stroke-miterlimit="1.5" stroke-linejoin="round"/>
<path fill-rule="evenodd" clip-rule="evenodd" d="M310.716 248.491C312.612 264.699 322.477 278.951 332.905 277.736L310.716 248.491Z" fill="#FF85D0"/>
<path d="M310.716 248.491C312.612 264.699 322.477 278.951 332.905 277.736" stroke="#242728" stroke-width="3.47369" stroke-miterlimit="1.5" stroke-linejoin="round"/>
<path fill-rule="evenodd" clip-rule="evenodd" d="M247.299 264.637L290.719 288.326C310.842 298.161 292.084 349.689 270.657 343.74C239.662 332.912 211.035 317.654 185.368 296.857" fill="#FF85D0"/>
<path d="M247.299 264.637L290.719 288.326C310.842 298.161 292.084 349.689 270.657 343.74C239.662 332.912 211.035 317.654 185.368 296.857" stroke="#242728" stroke-width="3.47369" stroke-miterlimit="1.5" stroke-linejoin="round"/>
<path fill-rule="evenodd" clip-rule="evenodd" d="M344.625 236.97C349.614 253.321 346.514 275.329 332.9 277.736C312.645 279.968 292.478 280.265 272.409 278.33" fill="#FF85D0"/>
<path d="M344.625 236.97C349.614 253.321 346.514 275.329 332.9 277.736C312.645 279.968 292.478 280.265 272.409 278.33" stroke="#242728" stroke-width="3.47369" stroke-miterlimit="1.5" stroke-linejoin="round"/>
<path fill-rule="evenodd" clip-rule="evenodd" d="M131.052 119.571C131.052 119.571 79.6985 127.656 49.4274 132.423C37.0916 134.365 28.1533 145.215 28.6107 157.682C29.3449 177.688 30.4726 208.18 31.4626 235.041C31.8289 245.087 38.0676 253.979 47.3944 257.754C56.7153 261.527 67.3926 259.481 74.6666 252.528C90.4486 237.432 104.744 223.752 104.744 223.752" fill="#FF85D0"/>
<path d="M131.052 119.571C131.052 119.571 79.6985 127.656 49.4274 132.423C37.0916 134.365 28.1533 145.215 28.6107 157.682C29.3449 177.688 30.4726 208.18 31.4627 235.041C31.8289 245.087 38.0676 253.979 47.3945 257.754C56.7153 261.527 67.3926 259.481 74.6666 252.528C90.4486 237.432 104.744 223.752 104.744 223.752" stroke="#242728" stroke-width="3.47369" stroke-miterlimit="1.5" stroke-linejoin="round"/>
<path fill-rule="evenodd" clip-rule="evenodd" d="M265.474 274.719C265.515 274.683 265.55 274.647 265.591 274.611C270.99 269.386 275.918 263.682 280.314 257.566M55.4876 259.232C63.8235 283.841 77.9032 303.727 99.5378 326.313L55.4876 259.232ZM155.857 307.969C161.766 309.289 168.506 310.17 178.307 309.931C185.758 309.749 193.064 309.28 200.17 308.032M303.739 180.642C301.658 113.273 246.252 59.2197 178.307 59.2197C127.697 59.2197 80.1842 88.524 58.2594 131.296" fill="#FF85D0"/>
<path d="M265.474 274.719C265.515 274.683 265.55 274.647 265.591 274.611C270.99 269.386 275.918 263.682 280.314 257.566M55.4876 259.232C63.8235 283.841 77.9032 303.727 99.5378 326.313M155.857 307.969C161.766 309.289 168.506 310.17 178.307 309.931C185.758 309.749 193.064 309.28 200.17 308.032M303.739 180.642C301.658 113.273 246.252 59.2197 178.307 59.2197C127.697 59.2197 80.1842 88.524 58.2594 131.296" stroke="#242728" stroke-width="3.47369" stroke-miterlimit="1.5" stroke-linejoin="round"/>
<path d="M113.838 124.708L55.9781 131.415" stroke="#242728" stroke-width="3.47369" stroke-miterlimit="1.5" stroke-linejoin="round"/>
<path d="M248.988 44.0283L235.434 72.0386" stroke="#242728" stroke-width="3.47369" stroke-miterlimit="1.5" stroke-linejoin="round"/>
<path fill-rule="evenodd" clip-rule="evenodd" d="M249.96 196.657C253.424 187.258 258.464 180.525 270.162 181.76C273.062 181.981 278.2 182.182 287.308 182.202C301.463 182.234 315.464 180.638 327.908 176.416C343.686 171.063 356.959 161.489 364.864 145.654C365.26 144.86 363.577 134.339 363.95 133.529C369.224 124.152 376.843 122.577 380.523 122.266C392.499 121.255 407.016 128.147 412.516 143.506C415.915 152.997 412.393 162.277 412.032 163.955C406.268 190.75 380.25 219.958 344.624 236.967C334.069 242.006 322.672 245.975 310.707 248.492C304.152 249.872 297.428 250.816 290.578 251.262" fill="#FF85D0"/>
<path d="M249.96 196.657C253.424 187.258 258.464 180.525 270.162 181.76C273.062 181.981 278.2 182.182 287.308 182.202C301.463 182.234 315.464 180.638 327.908 176.416C343.686 171.063 356.959 161.489 364.864 145.654C365.26 144.86 363.577 134.339 363.95 133.529C369.224 124.152 376.843 122.577 380.523 122.266C392.499 121.255 407.016 128.147 412.516 143.506C415.915 152.997 412.393 162.277 412.032 163.955C406.268 190.75 380.25 219.958 344.624 236.967C334.069 242.006 322.672 245.975 310.707 248.492C304.152 249.872 297.428 250.816 290.578 251.262" stroke="#242728" stroke-width="3.47369" stroke-miterlimit="1.5" stroke-linejoin="round"/>
<path fill-rule="evenodd" clip-rule="evenodd" d="M328.006 176.373C318.717 180.979 316.057 191.104 321.337 199.199L328.006 176.373Z" fill="#FF85D0"/>
<path d="M328.006 176.373C318.717 180.979 316.057 191.104 321.337 199.199" stroke="#242728" stroke-width="3.47369" stroke-miterlimit="1.5" stroke-linejoin="round"/>
<path fill-rule="evenodd" clip-rule="evenodd" d="M134.993 255.354C134.993 255.354 145.76 278.028 151.408 289.907C153.621 294.568 154.79 299.655 154.85 304.811C155.017 320.566 155.372 354.612 155.372 354.612C155.374 365.48 140.196 374.298 121.493 374.295C102.798 374.288 87.612 365.462 87.61 354.594" fill="#FF85D0"/>
<path d="M134.993 255.354C134.993 255.354 145.76 278.028 151.408 289.907C153.621 294.568 154.79 299.655 154.85 304.811C155.017 320.566 155.372 354.612 155.372 354.612C155.374 365.48 140.196 374.298 121.493 374.295C102.798 374.288 87.612 365.462 87.61 354.594" stroke="#242728" stroke-width="3.47369" stroke-miterlimit="1.5" stroke-linejoin="round"/>
<path fill-rule="evenodd" clip-rule="evenodd" d="M204.77 312.945C204.915 326.628 205.066 341.101 205.066 341.101C205.067 350.919 191.358 358.884 174.464 358.881C167.473 358.877 161.019 357.509 155.86 355.209" fill="#FF85D0"/>
<path d="M204.77 312.945C204.915 326.628 205.066 341.101 205.066 341.101C205.067 350.919 191.358 358.884 174.464 358.881C167.473 358.877 161.019 357.509 155.86 355.209" stroke="#242728" stroke-width="3.47369" stroke-miterlimit="1.5" stroke-linejoin="round"/>
<path d="M87.9534 314.175L87.6008 355.212" stroke="#242728" stroke-width="3.47369" stroke-miterlimit="1.5" stroke-linejoin="round"/>
<path d="M364.905 145.485L357.26 59.457" stroke="#242728" stroke-width="3.47369" stroke-miterlimit="1.5" stroke-linejoin="round"/>
<path fill-rule="evenodd" clip-rule="evenodd" d="M357.26 59.457L361.09 102.471C335.35 121.616 307.021 113.208 277.204 89.0679C276.082 88.1593 275.678 86.6283 276.21 85.2848C276.741 83.9413 278.08 83.0955 279.523 83.1949C307.792 85.1376 334.34 79.8609 357.26 59.457Z" fill="url(#paint0_linear_4002_1381)" stroke="#242728" stroke-width="3.47369" stroke-miterlimit="1.5" stroke-linejoin="round"/>
<path fill-rule="evenodd" clip-rule="evenodd" d="M244.074 234.71C247.192 233.059 250.989 233.416 253.74 235.619C264.667 244.327 276.1 247.744 287.753 248.782C289.24 248.924 290.435 250.072 290.627 251.551C290.825 253.031 289.974 254.457 288.576 254.983C275.323 260.071 261.65 260.746 247.518 256.75C236.704 253.689 235.83 239.097 244.074 234.71Z" fill="white" stroke="#242728" stroke-width="3.47369" stroke-miterlimit="1.5" stroke-linejoin="round"/>
<path fill-rule="evenodd" clip-rule="evenodd" d="M251.886 234.481C246.406 231.215 243.484 227.814 239.825 223.928L251.886 234.481Z" fill="#FF85D0"/>
<path d="M251.886 234.481C246.406 231.215 243.484 227.814 239.825 223.928" stroke="#242728" stroke-width="3.47369" stroke-miterlimit="1.5" stroke-linejoin="round"/>
<path fill-rule="evenodd" clip-rule="evenodd" d="M246.86 256.546C240.67 254.98 234.192 251.692 229.573 249.011L246.86 256.546Z" fill="#FF85D0"/>
<path d="M246.86 256.546C240.67 254.98 234.192 251.692 229.573 249.011" stroke="#242728" stroke-width="3.47369" stroke-miterlimit="1.5" stroke-linejoin="round"/>
<g clip-path="url(#clip0_4002_1381)">
<path d="M67.8188 168.929C68.0185 169.574 68.1936 170.104 68.3325 170.509L77.2203 164.483C77.2152 164.46 77.21 164.436 77.2047 164.412C77.1177 164.012 76.9973 163.424 76.862 162.666C76.5913 161.15 76.2606 158.952 76.0169 156.206C75.5295 150.716 75.389 143.031 76.7755 134.239C79.5506 116.642 88.4444 94.6244 112.864 76.946C137.265 59.2821 163.351 55.4303 183.311 55.9869C193.292 56.2652 201.751 57.6458 207.717 58.9575C210.384 59.5438 212.554 60.1167 214.14 60.5717C213.587 60.1534 212.937 59.7161 212.186 59.2665C210.053 57.9885 207.203 56.6639 203.737 55.4358C196.806 52.9802 187.467 50.9294 176.59 50.3937C154.842 49.3225 126.986 54.3086 99.9648 74.176L99.9645 74.1762C73.0085 93.9791 65.2072 118.294 64.1226 137.66C63.5797 147.355 64.7206 155.815 65.9977 161.852C66.6361 164.869 67.3079 167.278 67.8188 168.929Z" fill="#E9FC87" stroke="#242728" stroke-width="1.5974"/>
<path d="M46.5142 186.883C46.5142 205.542 61.6403 220.668 80.2993 220.668C98.9583 220.668 114.084 205.542 114.084 186.883C114.084 168.224 98.9583 153.098 80.2993 153.098C61.6403 153.098 46.5142 168.224 46.5142 186.883Z" fill="#E9FC87" stroke="#242728" stroke-width="1.5974"/>
<path d="M172.741 231.484L172.732 231.48L172.722 231.476L105.046 205.076C103.74 204.623 102.284 205.315 101.81 206.623C101.351 207.933 102.045 209.395 103.358 209.869L103.367 209.872L103.377 209.876L171.053 236.277C172.359 236.729 173.815 236.037 174.289 234.729C174.748 233.42 174.054 231.958 172.741 231.484Z" fill="#E9FC87" stroke="#242728" stroke-width="1.5974"/>
<path d="M164.843 239.639L164.845 239.64L172.002 240.758L172.002 240.758C175.943 241.376 179.67 238.655 180.274 234.717L180.274 234.714C180.893 230.773 178.172 227.046 174.233 226.442L174.231 226.442L167.075 225.324L167.074 225.323C163.133 224.705 159.406 227.426 158.802 231.365L158.802 231.367C158.184 235.309 160.905 239.035 164.843 239.639Z" fill="#E9FC87" stroke="#242728" stroke-width="1.5974"/>
<path d="M74.4754 211.753C60.7409 208.534 52.2162 194.791 55.4351 181.056C58.654 167.322 72.3975 158.797 86.1321 162.016C99.8666 165.235 108.391 178.978 105.172 192.713C101.954 206.447 88.21 214.972 74.4754 211.753Z" stroke="black" stroke-width="2.39611" stroke-linecap="round" stroke-linejoin="round"/>
</g>
<defs>
<linearGradient id="paint0_linear_4002_1381" x1="360.02" y1="86.2333" x2="275.966" y2="86.1949" gradientUnits="userSpaceOnUse">
<stop stop-color="#FFC6D9"/>
<stop offset="0.333333" stop-color="#7CCFE1"/>
<stop offset="0.640625" stop-color="#89CBA6"/>
<stop offset="1" stop-color="#A5D571"/>
</linearGradient>
<clipPath id="clip0_4002_1381">
<rect width="167.71" height="192.168" fill="white" transform="matrix(-1 0 0 1 213.426 49.4585)"/>
</clipPath>
</defs>
</svg>
