<svg width="40" height="40" viewBox="0 0 40 40" fill="none" xmlns="http://www.w3.org/2000/svg">
<path d="M24.0001 34.5837H16.0001C8.68342 34.5837 5.41675 31.317 5.41675 24.0003V16.0003C5.41675 8.68366 8.68342 5.41699 16.0001 5.41699H24.0001C31.3167 5.41699 34.5834 8.68366 34.5834 16.0003V24.0003C34.5834 31.317 31.3167 34.5837 24.0001 34.5837ZM16.0001 7.91699C10.0334 7.91699 7.91675 10.0337 7.91675 16.0003V24.0003C7.91675 29.967 10.0334 32.0837 16.0001 32.0837H24.0001C29.9667 32.0837 32.0834 29.967 32.0834 24.0003V16.0003C32.0834 10.0337 29.9667 7.91699 24.0001 7.91699H16.0001Z" fill="white"/>
<path d="M22.5001 29.5837H17.5001C12.6667 29.5837 10.4167 27.3337 10.4167 22.5003V17.5003C10.4167 12.667 12.6667 10.417 17.5001 10.417H22.5001C27.3334 10.417 29.5834 12.667 29.5834 17.5003V22.5003C29.5834 27.3337 27.3334 29.5837 22.5001 29.5837ZM17.5001 12.917C14.0334 12.917 12.9167 14.0337 12.9167 17.5003V22.5003C12.9167 25.967 14.0334 27.0837 17.5001 27.0837H22.5001C25.9667 27.0837 27.0834 25.967 27.0834 22.5003V17.5003C27.0834 14.0337 25.9667 12.917 22.5001 12.917H17.5001Z" fill="white"/>
<path d="M13.3501 7.91634C12.6501 7.91634 12.1001 7.34967 12.1001 6.66634V3.33301C12.1001 2.64967 12.6668 2.08301 13.3501 2.08301C14.0334 2.08301 14.6001 2.64967 14.6001 3.33301V6.66634C14.6001 7.34967 14.0334 7.91634 13.3501 7.91634Z" fill="white"/>
<path d="M20 7.91634C19.3167 7.91634 18.75 7.34967 18.75 6.66634V3.33301C18.75 2.64967 19.3167 2.08301 20 2.08301C20.6833 2.08301 21.25 2.64967 21.25 3.33301V6.66634C21.25 7.34967 20.6833 7.91634 20 7.91634Z" fill="white"/>
<path d="M26.6667 7.91634C25.9834 7.91634 25.4167 7.34967 25.4167 6.66634V3.33301C25.4167 2.64967 25.9834 2.08301 26.6667 2.08301C27.3501 2.08301 27.9167 2.64967 27.9167 3.33301V6.66634C27.9167 7.34967 27.3501 7.91634 26.6667 7.91634Z" fill="white"/>
<path d="M36.6666 14.583H33.3333C32.6499 14.583 32.0833 14.0163 32.0833 13.333C32.0833 12.6497 32.6499 12.083 33.3333 12.083H36.6666C37.3499 12.083 37.9166 12.6497 37.9166 13.333C37.9166 14.0163 37.3666 14.583 36.6666 14.583Z" fill="white"/>
<path d="M36.6666 21.25H33.3333C32.6499 21.25 32.0833 20.6833 32.0833 20C32.0833 19.3167 32.6499 18.75 33.3333 18.75H36.6666C37.3499 18.75 37.9166 19.3167 37.9166 20C37.9166 20.6833 37.3666 21.25 36.6666 21.25Z" fill="white"/>
<path d="M36.6666 27.917H33.3333C32.6499 27.917 32.0833 27.3503 32.0833 26.667C32.0833 25.9837 32.6499 25.417 33.3333 25.417H36.6666C37.3499 25.417 37.9166 25.9837 37.9166 26.667C37.9166 27.3503 37.3666 27.917 36.6666 27.917Z" fill="white"/>
<path d="M26.6667 37.9163C25.9834 37.9163 25.4167 37.3497 25.4167 36.6663V33.333C25.4167 32.6497 25.9834 32.083 26.6667 32.083C27.3501 32.083 27.9167 32.6497 27.9167 33.333V36.6663C27.9167 37.3497 27.3501 37.9163 26.6667 37.9163Z" fill="white"/>
<path d="M20.0166 37.9163C19.3333 37.9163 18.7666 37.3497 18.7666 36.6663V33.333C18.7666 32.6497 19.3333 32.083 20.0166 32.083C20.6999 32.083 21.2666 32.6497 21.2666 33.333V36.6663C21.2666 37.3497 20.6999 37.9163 20.0166 37.9163Z" fill="white"/>
<path d="M13.3501 37.9163C12.6668 37.9163 12.1001 37.3497 12.1001 36.6663V33.333C12.1001 32.6497 12.6668 32.083 13.3501 32.083C14.0334 32.083 14.6001 32.6497 14.6001 33.333V36.6663C14.6001 37.3497 14.0334 37.9163 13.3501 37.9163Z" fill="white"/>
<path d="M6.66658 14.583H3.33325C2.64992 14.583 2.08325 14.033 2.08325 13.333C2.08325 12.633 2.64992 12.083 3.33325 12.083H6.66658C7.34992 12.083 7.91658 12.6497 7.91658 13.333C7.91658 14.0163 7.36659 14.583 6.66658 14.583Z" fill="white"/>
<path d="M6.66658 21.25H3.33325C2.64992 21.25 2.08325 20.6833 2.08325 20C2.08325 19.3167 2.64992 18.75 3.33325 18.75H6.66658C7.34992 18.75 7.91658 19.3167 7.91658 20C7.91658 20.6833 7.36659 21.25 6.66658 21.25Z" fill="white"/>
<path d="M6.66658 27.917H3.33325C2.64992 27.917 2.08325 27.3503 2.08325 26.667C2.08325 25.9837 2.64992 25.417 3.33325 25.417H6.66658C7.34992 25.417 7.91658 25.9837 7.91658 26.667C7.91658 27.3503 7.36659 27.917 6.66658 27.917Z" fill="white"/>
<path d="M20 25.0835C19.7833 25.0835 19.5666 25.0335 19.3833 24.9168C18.7833 24.5668 18.5833 23.8002 18.9166 23.2168L20.05 21.2502H19.0666C18.2666 21.2502 17.6166 20.9002 17.2666 20.3002C16.9166 19.7002 16.95 18.9502 17.3333 18.2668L18.9 15.5335C19.25 14.9335 20.0166 14.7335 20.6 15.0668C21.2 15.4168 21.4 16.1835 21.0666 16.7668L19.9333 18.7335H20.9166C21.7166 18.7335 22.3666 19.0835 22.7166 19.6835C23.0666 20.2835 23.0333 21.0335 22.65 21.7168L21.0833 24.4502C20.85 24.8668 20.4333 25.0835 20 25.0835Z" fill="white"/>
</svg>
