<svg width="47" height="47" viewBox="0 0 47 47" fill="none" xmlns="http://www.w3.org/2000/svg">
<path d="M17.1655 44.8768H30.1645C40.997 44.8768 45.33 40.5438 45.33 29.7113V16.7122C45.33 5.87965 40.997 1.54663 30.1645 1.54663H17.1655C6.333 1.54663 2 5.87965 2 16.7122V29.7113C2 40.5438 6.333 44.8768 17.1655 44.8768Z" stroke="#A38297" stroke-width="2.32126" stroke-linecap="round" stroke-linejoin="round"/>
<path d="M19.6034 36.7525H27.7278C34.4981 36.7525 37.2062 34.0444 37.2062 27.274V19.1496C37.2062 12.3793 34.4981 9.67114 27.7278 9.67114H19.6034C12.8331 9.67114 10.125 12.3793 10.125 19.1496V27.274C10.125 34.0444 12.8331 36.7525 19.6034 36.7525Z" stroke="#FA467B" stroke-width="2.8" stroke-linecap="round" stroke-linejoin="round" stroke-dasharray="4.64 5.8"/>
<path d="M23.6644 16.9829L21.1187 21.4243C20.55 22.3992 21.0104 23.2116 22.1478 23.2116H25.1809C26.3183 23.2116 26.7787 24.0241 26.21 24.999L23.6644 29.4403" stroke="#FA467B" stroke-width="2.8" stroke-linecap="round" stroke-linejoin="round"/>
</svg>
