<svg xmlns="http://www.w3.org/2000/svg" width="28" height="28" viewBox="0 0 28 28" fill="none">
<path d="M14 17.2083C13.5217 17.2083 13.125 16.8117 13.125 16.3333V10.5C13.125 10.0217 13.5217 9.625 14 9.625C14.4783 9.625 14.875 10.0217 14.875 10.5V16.3333C14.875 16.8117 14.4783 17.2083 14 17.2083Z" fill="#FA4666"/>
<path d="M13.9997 21.0001C13.9297 21.0001 13.848 20.9884 13.7663 20.9767C13.6963 20.9651 13.6263 20.9417 13.5563 20.9067C13.4863 20.8834 13.4163 20.8484 13.3463 20.8017C13.288 20.7551 13.2297 20.7084 13.1713 20.6617C12.9613 20.4401 12.833 20.1367 12.833 19.8334C12.833 19.5301 12.9613 19.2267 13.1713 19.0051C13.2297 18.9584 13.288 18.9117 13.3463 18.8651C13.4163 18.8184 13.4863 18.7834 13.5563 18.7601C13.6263 18.7251 13.6963 18.7017 13.7663 18.6901C13.918 18.6551 14.0813 18.6551 14.2213 18.6901C14.303 18.7017 14.373 18.7251 14.443 18.7601C14.513 18.7834 14.583 18.8184 14.653 18.8651C14.7113 18.9117 14.7697 18.9584 14.828 19.0051C15.038 19.2267 15.1663 19.5301 15.1663 19.8334C15.1663 20.1367 15.038 20.4401 14.828 20.6617C14.7697 20.7084 14.7113 20.7551 14.653 20.8017C14.583 20.8484 14.513 20.8834 14.443 20.9067C14.373 20.9417 14.303 20.9651 14.2213 20.9767C14.1513 20.9884 14.0697 21.0001 13.9997 21.0001Z" fill="#FA4666"/>
<path d="M21.0702 25.8534H6.93022C4.65522 25.8534 2.91688 25.0251 2.03022 23.5317C1.15522 22.0384 1.27188 20.1134 2.38022 18.1184L9.45022 5.40173C10.6169 3.30173 12.2269 2.14673 14.0002 2.14673C15.7735 2.14673 17.3835 3.30173 18.5502 5.40173L25.6202 18.1301C26.7285 20.1251 26.8569 22.0384 25.9702 23.5434C25.0835 25.0251 23.3452 25.8534 21.0702 25.8534ZM14.0002 3.89673C12.9035 3.89673 11.8302 4.73673 10.9785 6.2534L3.92022 18.9817C3.12688 20.4051 2.99855 21.7117 3.54688 22.6567C4.09522 23.6017 5.30855 24.1151 6.94188 24.1151H21.0819C22.7152 24.1151 23.9169 23.6017 24.4769 22.6567C25.0369 21.7117 24.8969 20.4167 24.1035 18.9817L17.0219 6.2534C16.1702 4.73673 15.0969 3.89673 14.0002 3.89673Z" fill="#FA4666"/>
</svg>
