<svg width="500" height="500" viewBox="0 0 500 500" fill="none" xmlns="http://www.w3.org/2000/svg">
<g clip-path="url(#clip0_466_16195)">
<path fill-rule="evenodd" clip-rule="evenodd" d="M48.7688 297.108C50.3934 296.135 51.9271 294.966 53.3346 293.621L82.2702 265.911L80.3373 263.894L51.3949 291.597C44.7982 297.907 35.113 299.763 26.6466 296.338C18.1872 292.907 12.522 284.826 12.1858 275.701L9.41993 201.198C8.99976 189.902 17.0948 180.07 28.2643 178.313L106.808 165.96L106.374 163.193L36.4506 174.188L35.3024 162.689C34.511 154.853 38.1802 147.234 44.7979 142.955L139.84 81.5266C149.553 75.245 161.374 73.102 172.67 75.567L265.471 95.8331C274.358 97.7729 280.983 105.217 281.893 114.265C282.88 124.16 284.407 135.084 286.2 147.451L269.183 160.854C266.739 162.78 265.618 165.946 266.304 168.978C266.991 172.017 269.365 174.384 272.404 175.07L290.751 179.195C291.865 187.297 292.992 195.925 294.099 205.141C287.173 209.692 279.484 213.551 271.459 216.814C270.541 217.185 269.617 217.556 268.693 217.914C260.569 221.051 255.927 222.662 253.265 223.467L254.078 226.149C256.774 225.33 261.48 223.705 269.701 220.526C270.646 220.161 271.585 219.79 272.516 219.405C280.996 215.96 289.113 211.856 296.368 206.996C299.211 205.091 301.921 203.068 304.47 200.925C308.644 197.423 312.607 191.674 316.088 184.888L355.493 193.754C355.899 193.845 356.333 193.754 356.669 193.488L372.853 180.736C370.311 192.998 366.522 205.715 361.277 215.75C356.739 224.433 351.06 232.99 344.33 241.044C337.874 248.768 330.465 256.037 322.173 262.508L321.011 262.633L321.088 263.341C318.335 265.449 315.486 267.473 312.544 269.391C310.885 263.061 304.309 258.082 297.124 260.743L297.082 260.645C296.823 260.771 296.564 260.904 296.326 261.058C288.475 264.041 279.519 264.65 269.75 264.118C268.525 264.055 267.313 264.167 266.151 264.44C257.698 265.169 251.725 263.81 244.596 262.522L244.098 265.281C249.701 266.289 254.617 267.326 260.485 267.438C260.065 267.816 259.673 268.229 259.302 268.67V268.677C254.897 273.978 254.757 280.575 257.348 286.149C259.61 291.009 263.966 295.071 269.323 296.772C263.139 298.705 257.88 299.097 251.851 299.77L252.166 302.557C259.869 301.688 266.361 301.24 274.939 297.711L274.897 297.62C277.068 297.613 279.323 297.214 281.613 296.345C292.544 292.2 298.91 288.74 307.677 282.277C311.41 279.518 312.958 275.946 312.951 272.465C316.522 270.183 319.96 267.753 323.266 265.203L335.759 263.838C333.903 265.54 332.355 267.718 331.144 270.267C327.727 277.473 327.047 287.704 330.03 298.187C333.006 308.677 338.973 317.018 345.668 321.345C346.907 322.144 348.168 322.809 349.442 323.327C320.871 328.712 304.995 330.183 274.652 330.246L274.659 333.047C278.49 333.033 282.096 333.005 285.527 332.949L266.34 345.239C255.681 339.426 245.807 334.034 245.807 334.034L244.463 336.492L284.134 358.145C281.634 358.488 279.113 359.392 276.655 360.799C269.736 364.77 263.342 372.788 259.813 383.096C256.283 393.411 256.424 403.67 259.456 411.037C260.177 412.788 261.059 414.378 262.089 415.771C232.257 404.448 204.582 389.098 179.553 368.796L177.789 370.974C184.392 376.331 191.178 381.346 198.139 386.038C186.213 391.248 176.458 391.633 169.007 390.071L153.874 386.899C153.475 385.862 153.034 384.84 152.558 383.832L137.922 352.984L135.394 354.189L150.029 385.029C152.684 390.631 154.091 396.738 154.154 402.935L154.617 448.069C154.609 451.808 152.46 455.226 148.923 458.034C143.258 462.529 134.098 465.408 123.797 465.408C113.489 465.408 104.329 462.529 98.664 458.034C95.1275 455.226 92.9704 451.801 92.9704 448.061V420.19C94.8752 422.466 96.7802 424.616 98.664 426.577L100.688 424.644C86.7169 410.05 71.3388 385.029 64.7211 373.803C62.5222 370.057 60.7994 366.058 59.5739 361.885C50.7224 331.969 51.766 327.312 48.7688 297.108ZM243.587 120.665L176.815 163.452C165.828 170.49 152.516 172.934 139.749 170.252L139.168 172.997C152.663 175.826 166.717 173.242 178.328 165.805L245.1 123.025L243.587 120.665Z" fill="#FF85D0"/>
<path fill-rule="evenodd" clip-rule="evenodd" d="M266.605 267.213C266.836 267.192 267.067 267.171 267.298 267.143L267.291 267.06C268.048 266.926 268.818 266.877 269.595 266.919C277.964 267.368 289.889 264.195 296.941 262.319C305.169 260.134 308.587 263.789 310.345 267.493C312.2 271.38 311.955 277.669 306.843 281.149C300.268 285.624 289.448 290.379 280.617 293.726C271.577 297.151 263.167 292.018 259.889 284.966C257.739 280.344 257.802 274.868 261.458 270.463C262.802 268.845 264.616 267.725 266.605 267.213Z" fill="white"/>
<path fill-rule="evenodd" clip-rule="evenodd" d="M357.326 321.807C353.958 322.171 350.471 321.114 347.186 318.992C340.968 314.972 335.492 307.171 332.719 297.424C329.946 287.676 330.499 278.166 333.671 271.471C335.632 267.339 338.594 264.3 342.417 263.11L343.608 262.977C343.629 262.977 343.65 262.969 343.671 262.969C348.02 262.304 352.032 263.894 355.527 266.863C361.073 271.562 365.317 279.65 367.579 288.222C369.847 296.779 370.142 305.841 367.635 312.543C366.066 316.723 363.391 319.959 359.336 321.408C358.657 321.541 357.992 321.674 357.326 321.807Z" fill="#FF85D0"/>
<path fill-rule="evenodd" clip-rule="evenodd" d="M270.415 418.811C266.62 417.431 263.798 414.231 262.047 409.973C259.232 403.125 259.183 393.594 262.46 384.007C265.744 374.42 271.62 366.92 278.048 363.23C282.019 360.954 286.186 360.148 290.009 361.353L291.053 361.92C291.067 361.934 291.088 361.941 291.109 361.948C295.058 363.881 297.446 367.48 298.623 371.906C300.5 378.93 299.372 387.998 296.354 396.325C293.328 404.651 288.405 412.263 282.523 416.332C278.833 418.888 274.778 420.016 270.604 418.874C270.541 418.853 270.478 418.832 270.415 418.811Z" fill="#FF85D0"/>
<path fill-rule="evenodd" clip-rule="evenodd" d="M227.789 403.58L227.845 408.769C227.845 412.508 225.688 415.933 222.152 418.734C216.486 423.23 207.334 426.108 197.026 426.108C186.718 426.108 177.558 423.23 171.892 418.734C168.356 415.926 166.199 412.508 166.199 408.762V392.34L168.433 392.809C176.647 394.532 187.53 394.084 200.891 387.865C209.596 393.594 218.566 398.818 227.789 403.58Z" fill="#FF85D0"/>
<path fill-rule="evenodd" clip-rule="evenodd" d="M397.487 111.947L377.368 149.342L376.878 149.321C376.871 149.65 376.857 149.979 376.843 150.315L355.071 190.785L273.019 172.332C271.037 171.891 269.483 170.344 269.035 168.362C268.586 166.38 269.314 164.314 270.911 163.06L345.022 104.671C347.851 102.444 351.521 101.611 355.029 102.402L397.487 111.947ZM277.879 167.486L351.829 184.111L352.438 181.38L278.488 164.748L277.879 167.486ZM352.613 131.583C353.881 130.582 354.469 128.936 354.105 127.353C353.748 125.771 352.515 124.538 350.932 124.181L338.713 121.436C336.654 120.973 334.497 121.464 332.844 122.766L309.511 141.149C308.236 142.15 307.655 143.796 308.012 145.378C308.369 146.961 309.609 148.194 311.191 148.551L323.404 151.296C325.463 151.758 327.62 151.268 329.28 149.965L352.613 131.583Z" fill="#E9FC87"/>
<path fill-rule="evenodd" clip-rule="evenodd" d="M350.877 129.383L327.543 147.766C326.549 148.55 325.261 148.837 324.021 148.564L311.801 145.812C311.276 145.7 310.862 145.287 310.743 144.762C310.624 144.229 310.821 143.683 311.241 143.347L334.574 124.965C335.569 124.187 336.864 123.893 338.096 124.166L350.316 126.918C350.842 127.031 351.255 127.444 351.374 127.976C351.493 128.501 351.304 129.047 350.877 129.383Z" fill="white"/>
<path fill-rule="evenodd" clip-rule="evenodd" d="M444.807 120.483L360.227 187.115L376.844 156.226C377.923 154.895 378.721 153.438 379.19 151.87L405.122 103.662C405.759 102.479 406.635 101.435 407.692 100.602L485.381 39.3973C485.899 38.9911 486.642 38.9981 487.146 39.4253C487.657 39.8525 487.797 40.5807 487.482 41.162L444.807 120.483ZM428.049 100.035C423.259 103.109 418.399 110.518 417.216 116.582C416.529 120.14 417.286 122.577 418.672 123.725C420.136 124.944 422.559 125.049 425.528 123.144C430.311 120.07 435.178 112.661 436.354 106.596C437.048 103.039 436.291 100.602 434.905 99.4534C433.434 98.2419 431.018 98.1299 428.049 100.035Z" fill="#E9FC87"/>
<path fill-rule="evenodd" clip-rule="evenodd" d="M229.33 85.0765L258.308 58.1717C264.421 52.4924 273.287 50.9026 280.997 54.1098C288.7 57.3171 293.826 64.7262 294.106 73.0736L295.997 128.942L297.398 128.9L295.997 128.949L296.396 139.419L288.742 145.448C287.054 133.781 285.626 123.417 284.68 113.984C283.651 103.732 276.137 95.3008 266.067 93.0949L229.33 85.0765Z" fill="#FF85D0"/>
<path d="M292.008 178.043C293.199 186.685 294.413 195.922 295.591 205.834C295.609 205.967 295.622 206.101 295.639 206.235M35.2097 175.807L33.9098 162.833C33.072 154.471 36.9809 146.343 44.0388 141.78L139.081 80.3505C149.108 73.8692 161.305 71.6561 172.972 74.2035L265.772 94.4703C275.25 96.5425 282.319 104.475 283.286 114.131C284.297 124.217 285.865 135.382 287.705 148.05M99.673 425.615C85.6353 410.944 70.1671 385.804 63.5176 374.519C61.2605 370.672 59.4873 366.563 58.2273 362.286C49.2562 331.957 50.4069 327.487 47.2876 296.354" stroke="#242728" stroke-width="3.99496" stroke-miterlimit="1.5" stroke-linejoin="round"/>
<path d="M244.346 121.85C208.022 145.125 205.037 147.039 177.575 164.633C166.279 171.872 152.593 174.384 139.46 171.631" stroke="#242728" stroke-width="3.99496" stroke-miterlimit="1.5" stroke-linejoin="round"/>
<path d="M297.826 140.081L297.395 128.904C296.819 111.832 296.132 91.3736 295.51 73.0291C295.209 64.1397 289.75 56.2425 281.535 52.8252C273.321 49.4086 263.873 51.0981 257.351 57.152C247.033 66.735 236.013 76.9684 226.45 85.8497" stroke="#242728" stroke-width="3.99958" stroke-miterlimit="1.5" stroke-linejoin="round"/>
<path d="M106.589 164.575C106.589 164.575 57.1743 172.347 28.0462 176.93C16.1762 178.797 7.57202 189.242 8.021 201.252C8.7326 220.519 9.82548 249.885 10.7794 275.753C11.14 285.43 17.1455 293.996 26.1215 297.633C35.0919 301.269 45.366 299.302 52.3583 292.605C67.5466 278.073 81.2996 264.902 81.2996 264.902" stroke="#242728" stroke-width="3.99931" stroke-miterlimit="1.5" stroke-linejoin="round"/>
<path d="M56.469 354.454C55.0038 355.382 53.4223 356.221 51.6859 356.93C43.2859 360.371 34.3315 357.882 26.8818 358.434" stroke="#242728" stroke-width="3.9998" stroke-miterlimit="1.5" stroke-linejoin="round"/>
<path fill-rule="evenodd" clip-rule="evenodd" d="M8.00831 355.85C8.30718 352.895 20.6283 351.727 23.586 352.026C26.5438 352.326 28.702 354.972 28.4031 357.928C28.1042 360.884 25.4599 363.045 22.5022 362.746C19.5444 362.447 7.70943 358.806 8.00831 355.85Z" fill="#FF85D0" stroke="#242728" stroke-width="3.9998" stroke-miterlimit="1.5" stroke-linejoin="round"/>
<path d="M378.282 149.381C378.266 149.815 378.248 150.257 378.227 150.707M374.961 177.297C372.412 190.806 368.348 205.24 362.515 216.407C357.936 225.173 352.198 233.815 345.402 241.951C338.807 249.847 331.215 257.267 322.719 263.862C319.14 266.64 315.401 269.272 311.508 271.73M253.671 224.813C256.347 224 261.024 222.387 269.196 219.226C270.131 218.865 271.061 218.496 271.988 218.119C280.38 214.704 288.406 210.651 295.589 205.838C298.388 203.963 301.058 201.974 303.572 199.861C307.821 196.291 311.834 190.302 315.328 183.292" stroke="#242728" stroke-width="3.99956" stroke-miterlimit="1.5" stroke-linejoin="round"/>
<path d="M425.027 121.863C429.796 118.8 434.615 111.42 435.79 105.379C436.966 99.3376 434.053 96.9237 429.284 99.987C424.515 103.05 419.696 110.431 418.52 116.472C417.345 122.513 420.258 124.927 425.027 121.863Z" fill="white"/>
<path fill-rule="evenodd" clip-rule="evenodd" d="M428.524 98.8096C431.611 96.8264 434.13 96.9285 435.657 98.1928C437.103 99.3908 437.887 101.938 437.165 105.646C435.925 112.018 430.817 119.809 425.782 123.043C422.698 125.024 420.176 124.921 418.652 123.658C417.206 122.46 416.423 119.909 417.144 116.204C418.385 109.829 423.493 102.041 428.524 98.8096ZM430.038 101.167C425.539 104.057 421.004 111.04 419.895 116.74C419.641 118.046 419.59 119.155 419.749 120.046C419.864 120.689 420.069 121.195 420.438 121.502C420.753 121.761 421.175 121.828 421.668 121.77C422.426 121.681 423.295 121.31 424.267 120.685C428.77 117.793 433.305 110.81 434.414 105.111C434.669 103.804 434.716 102.694 434.558 101.804C434.445 101.161 434.237 100.655 433.868 100.351C433.556 100.089 433.132 100.021 432.639 100.08C431.883 100.169 431.014 100.541 430.038 101.167Z" fill="#242728"/>
<path fill-rule="evenodd" clip-rule="evenodd" d="M399.895 109.627L399.281 112.36L355.031 102.41C351.523 101.621 347.849 102.452 345.027 104.675L270.913 163.063C269.315 164.322 268.587 166.386 269.041 168.365C269.487 170.348 271.032 171.896 273.013 172.341L355.457 190.881L445.037 120.309L446.771 122.509L356.667 193.494C356.333 193.757 355.904 193.852 355.493 193.76L272.404 175.075C269.362 174.391 266.992 172.022 266.301 168.989C265.616 165.95 266.737 162.787 269.179 160.863L343.294 102.475C346.777 99.7312 351.316 98.7028 355.646 99.6766L399.895 109.627Z" fill="#242728"/>
<path fill-rule="evenodd" clip-rule="evenodd" d="M277.871 167.483L278.486 164.748L352.437 181.377L351.822 184.113L277.871 167.483Z" fill="#242728"/>
<path fill-rule="evenodd" clip-rule="evenodd" d="M352.61 131.59L329.277 149.972C327.622 151.276 325.467 151.764 323.41 151.302L311.191 148.554C309.61 148.199 308.373 146.965 308.014 145.385C307.654 143.805 308.238 142.158 309.511 141.155L332.845 122.773C334.5 121.469 336.658 120.979 338.715 121.442L350.934 124.19C352.515 124.545 353.751 125.778 354.109 127.36C354.467 128.94 353.883 130.587 352.61 131.59ZM350.878 129.389C351.302 129.056 351.496 128.507 351.377 127.98C351.257 127.453 350.845 127.042 350.317 126.923L338.099 124.176C336.865 123.898 335.572 124.191 334.578 124.974L311.245 143.356C310.821 143.69 310.626 144.239 310.746 144.765C310.865 145.292 311.278 145.703 311.805 145.822L324.024 148.569C325.258 148.847 326.551 148.554 327.545 147.771L350.878 129.389Z" fill="#242728"/>
<path fill-rule="evenodd" clip-rule="evenodd" d="M446.726 122.507L356.622 193.492C356.105 193.9 355.364 193.889 354.858 193.461C354.352 193.033 354.213 192.308 354.523 191.727L402.615 102.338C403.434 100.816 404.559 99.4768 405.915 98.409L483.604 37.2048C485.169 35.9719 487.387 36.0044 488.909 37.2874C490.434 38.566 490.85 40.7402 489.911 42.4926L447.094 122.069C447.004 122.239 446.877 122.389 446.726 122.507ZM444.766 120.485L487.44 41.1674C487.75 40.5865 487.611 39.8618 487.105 39.4338C486.599 39.0059 485.858 38.9952 485.341 39.4027L407.645 100.612C406.591 101.443 405.716 102.483 405.079 103.668L360.182 187.121L444.766 120.485Z" fill="#242728"/>
<path d="M290.738 331.267L267.25 346.316" stroke="#242728" stroke-width="3.99862" stroke-miterlimit="1.5" stroke-linejoin="round"/>
<path d="M201.008 386.27C187.682 392.629 176.855 393.147 168.718 391.445L152.73 388.091" stroke="#242728" stroke-width="3.99862" stroke-miterlimit="1.5" stroke-linejoin="round"/>
<path fill-rule="evenodd" clip-rule="evenodd" d="M260.388 269.574C262.677 266.831 266.118 265.332 269.685 265.521C279.895 266.071 289.234 265.381 297.379 262.151C308.183 257.865 317.477 273.313 306.856 281.149C298.197 287.535 291.921 290.948 281.12 295.037C264.774 301.227 250.314 281.71 260.388 269.574Z" stroke="#242728" stroke-width="3.99883" stroke-miterlimit="1.5" stroke-linejoin="round"/>
<path d="M267.168 265.758C258.103 266.671 251.856 265.252 244.351 263.904" stroke="#242728" stroke-width="3.99883" stroke-miterlimit="1.5" stroke-linejoin="round"/>
<path d="M274.398 296.423C265.972 299.888 259.58 300.313 252.002 301.166" stroke="#242728" stroke-width="3.99883" stroke-miterlimit="1.5" stroke-linejoin="round"/>
<path d="M136.657 353.583C136.657 353.583 145.748 372.758 151.288 384.428C154.031 390.21 155.482 396.52 155.552 402.918C155.71 418.674 156.013 448.06 156.013 448.06C156.012 458.406 141.575 466.803 123.787 466.805C106.007 466.804 91.5662 458.406 91.5671 448.061L91.5654 416.262" stroke="#242728" stroke-width="4.00086" stroke-miterlimit="1.5" stroke-linejoin="round"/>
<path d="M229.181 402.722L229.242 408.77C229.241 419.115 214.804 427.513 197.016 427.515C179.236 427.513 164.795 419.116 164.796 408.77L164.796 390.624" stroke="#242728" stroke-width="4.00086" stroke-miterlimit="1.5" stroke-linejoin="round"/>
<path d="M290.742 360.118C280.082 356.469 266.814 366.97 261.139 383.553C255.464 400.136 259.516 416.563 270.177 420.211" stroke="#242728" stroke-width="3.99605" stroke-miterlimit="1.5" stroke-linejoin="round"/>
<path d="M342.328 261.676C331.491 264.759 326.58 280.95 331.375 297.809C336.17 314.667 348.867 325.851 359.704 322.769" stroke="#242728" stroke-width="3.99605" stroke-miterlimit="1.5" stroke-linejoin="round"/>
<path d="M297.68 261.914C293.38 263.962 291.94 269.936 294.469 275.244C296.997 280.552 302.543 283.198 306.843 281.149" stroke="#242728" stroke-width="3.96303" stroke-miterlimit="1.5" stroke-linejoin="round"/>
<path d="M245.14 335.266L291.726 360.695C313.316 371.252 293.173 426.598 270.181 420.216C236.925 408.596 206.211 392.218 178.674 369.889" stroke="#242728" stroke-width="3.99914" stroke-miterlimit="1.5" stroke-linejoin="round"/>
<path d="M322 264.5L343.459 261.59C367.214 257.95 382.229 314.902 359.703 322.771C324.37 329.768 308.462 331.582 274.656 331.647" stroke="#242728" stroke-width="3.99914" stroke-miterlimit="1.5" stroke-linejoin="round"/>
</g>
<defs>
<clipPath id="clip0_466_16195">
<rect width="500" height="500" fill="white"/>
</clipPath>
</defs>
</svg>
