<svg width="500" height="500" viewBox="0 0 500 500" fill="none" xmlns="http://www.w3.org/2000/svg">
<path fill-rule="evenodd" clip-rule="evenodd" d="M98.3631 250.919C82.5577 252.11 67.3685 248.676 54.5401 237.759C53.8962 237.205 51.4455 227.367 50.8155 226.793C50.7393 226.737 50.6631 226.682 50.5939 226.626L36.6924 177.68C35.6331 173.963 36.5955 169.954 39.2262 167.123L80.5223 122.628C81.8792 121.167 83.9285 120.544 85.8739 121.015C87.8193 121.479 89.3631 122.96 89.91 124.885L117.72 222.812C118.779 226.537 117.81 230.552 115.172 233.39L98.8754 250.878C98.7023 250.892 98.5362 250.905 98.3631 250.919Z" fill="#E9FC87"/>
<path fill-rule="evenodd" clip-rule="evenodd" d="M218.736 393.438C222.536 395.978 226.856 398.92 229.245 400.45C239.027 406.716 250.873 408.89 262.24 406.508C265.743 405.774 271.427 404.957 276.211 404.085C274.487 408.848 273.573 413.881 273.518 418.976L273.497 421.337C271.531 430.545 259.388 438.271 245.064 439.019C229.695 439.822 217.593 432.29 218.064 422.21L218.736 393.438Z" fill="#FF85D0"/>
<path fill-rule="evenodd" clip-rule="evenodd" d="M136.524 399.218C131.955 386.521 132.301 371.997 141.841 367.331L142.866 366.777C152.288 363.696 163.946 372.98 168.952 387.601C173.957 402.223 170.426 416.706 161.087 420.043C161.039 420.057 160.99 420.078 160.942 420.091C150.716 422.93 141.128 411.998 136.524 399.218Z" fill="#FF85D0"/>
<path fill-rule="evenodd" clip-rule="evenodd" d="M133.533 338.946C134.191 339.486 134.89 339.999 135.624 340.462L161.129 356.808L141.841 367.331C132.301 371.997 131.955 386.522 136.524 399.219C123.322 394.615 115.187 384.431 118.344 376.421L133.533 338.946Z" fill="#FF85D0"/>
<path fill-rule="evenodd" clip-rule="evenodd" d="M50.5941 226.626C50.6633 226.682 50.7395 226.737 50.8157 226.792C51.4456 227.367 53.8964 237.205 54.5403 237.759C67.3687 248.676 82.5579 252.11 98.3633 250.919C98.5087 250.926 98.661 250.933 98.8064 250.947L98.8756 250.878C110.264 249.943 121.957 246.627 133.304 241.988L147.988 95.4548C148.943 85.9079 155.936 78.0638 165.303 76.0215L257.047 55.9862C268.581 53.4662 280.641 55.6539 290.555 62.0577L384.508 122.794C391.486 127.301 395.356 135.339 394.526 143.605L393.245 156.433L400.32 157.541C412.055 159.389 420.556 169.718 420.113 181.585L417.386 255.239C417.026 264.807 411.093 273.274 402.224 276.874C395.308 279.671 387.616 279.11 381.289 275.593C378.339 305.217 374.878 343.578 374.878 343.578C374.054 354.516 372.87 363.267 371.354 370.169C370.143 375.701 368.066 381.011 365.193 385.892C359.855 394.968 348.847 412.892 337.521 427.063V463.936C337.521 474.286 323.073 482.683 305.287 482.683C287.502 482.683 273.06 474.286 273.06 463.936L273.517 418.977C273.573 413.881 274.486 408.849 276.21 404.085C271.426 404.958 265.743 405.775 262.24 406.509C250.872 408.89 239.026 406.716 229.244 400.451C226.856 398.921 222.536 395.979 218.735 393.438C218.437 393.237 218.139 393.043 217.849 392.849C200.084 404.079 181.108 413.037 161.086 420.043C170.426 416.706 173.956 402.223 168.951 387.602C163.946 372.98 152.287 363.696 142.865 366.777L161.128 356.808L135.623 340.462C134.89 339.999 134.19 339.486 133.533 338.946C127.835 334.28 124.782 327.039 125.529 319.603C125.758 317.291 126.021 313.137 126.298 309.675C81.1664 313.961 37.7864 296.425 20.1118 271.377C19.1633 270.041 12.621 263.229 12.0533 253.647C11.1256 238.146 21.2541 226.695 32.1095 223.109C35.4118 222.022 42.5633 220.575 50.5941 226.626Z" fill="#FF85D0"/>
<path fill-rule="evenodd" clip-rule="evenodd" d="M222.951 63.428L165.302 76.021C155.935 78.0633 148.943 85.9074 147.987 95.4543L144.249 132.756C142.671 131.87 139.285 129.8 137.243 127.266C132.861 121.824 131.967 112.52 133.518 105.7L138.967 82.3073L151.255 28.4181C153.207 19.8474 159.985 13.201 168.597 11.4218C177.21 9.64254 186.071 13.0488 191.264 20.1449L222.951 63.428Z" fill="#FF85D0"/>
<path d="M216.953 393.853C221.113 396.519 224.96 398.987 228.36 401.165C238.14 407.432 249.989 409.611 261.358 407.227C265.572 406.343 270.366 405.34 275.528 404.258M392.314 157.163L393.597 144.336C394.424 136.069 390.554 128.033 383.576 123.521C361.818 109.455 314.256 78.7046 289.614 62.7756C279.701 56.3664 267.639 54.1763 256.11 56.6934C231.486 62.0677 187.729 71.6193 164.372 76.7162C155.003 78.7598 148.012 86.6049 147.057 96.1505L132.398 242.685M125.628 310.352L124.633 320.298C123.803 328.598 127.705 336.665 134.732 341.166C141.329 345.394 150.285 351.132 160.237 357.512M328.626 437.034C342.457 422.579 357.695 397.833 364.299 386.628C367.166 381.743 369.246 376.437 370.463 370.903C371.963 363.999 373.156 355.253 373.98 344.314C373.98 344.314 377.395 306.287 380.391 276.339" stroke="#242728" stroke-width="4" stroke-miterlimit="1.5" stroke-linejoin="round"/>
<path d="M185.549 103.781C221.461 126.797 224.413 128.685 251.567 146.087C262.735 153.242 276.265 155.728 289.243 153.011" stroke="#242728" stroke-width="4" stroke-miterlimit="1.5" stroke-linejoin="round"/>
<path d="M144.194 133.929C144.194 133.929 139.053 131.366 136.321 127.976C131.937 122.53 131.046 113.223 132.597 106.404L138.041 83.0087C141.793 66.5427 146.292 46.8125 150.32 29.1165C152.276 20.5423 159.057 13.9001 167.663 12.1182C176.276 10.3385 185.13 13.7475 190.329 20.8466C201.422 36.003 213.536 52.5489 222.445 64.7183" stroke="#242728" stroke-width="4" stroke-miterlimit="1.5" stroke-linejoin="round"/>
<path d="M321.736 146.022C321.736 146.022 370.588 153.706 399.384 158.237C411.119 160.083 419.619 170.411 419.181 182.281C418.477 201.329 417.397 230.361 416.448 255.936C416.097 265.501 410.16 273.969 401.286 277.565C392.418 281.16 382.261 279.215 375.343 272.596C360.333 258.227 346.737 245.206 346.737 245.206" stroke="#242728" stroke-width="4" stroke-miterlimit="1.5" stroke-linejoin="round"/>
<path d="M417.753 232.554C419.201 231.637 420.769 230.81 422.482 230.106C430.786 226.704 439.638 229.166 447.003 228.619" stroke="#242728" stroke-width="4" stroke-miterlimit="1.5" stroke-linejoin="round"/>
<path fill-rule="evenodd" clip-rule="evenodd" d="M465.66 231.179C465.365 234.101 453.184 235.25 450.26 234.954C447.336 234.658 445.202 232.047 445.497 229.125C445.793 226.198 448.407 224.066 451.331 224.362C454.255 224.658 465.956 228.252 465.66 231.179Z" fill="#FF85D0" stroke="#242728" stroke-width="4" stroke-miterlimit="1.5" stroke-linejoin="round"/>
<path d="M149.936 234.76C147.482 236.036 143.062 238.129 135.102 241.546C107.045 253.587 76.553 258.005 53.6113 238.472C52.9683 237.924 50.5139 228.079 49.8854 227.509C41.7714 221.263 34.5184 222.727 31.1828 223.828C20.3289 227.411 10.201 238.865 11.1219 254.372C11.691 263.954 18.2355 270.768 19.1776 272.103C46.9544 311.47 138.213 332.278 199.991 278.953" stroke="#242728" stroke-width="4" stroke-miterlimit="1.5" stroke-linejoin="round"/>
<path d="M97.3242 251.598C107.172 252.172 113.282 260.049 111.688 269.108" stroke="#242728" stroke-width="4" stroke-miterlimit="1.5" stroke-linejoin="round"/>
<path fill-rule="evenodd" clip-rule="evenodd" d="M196.543 293.351C192.35 291.814 187.649 292.915 184.578 296.152C172.374 308.959 158.625 315.212 144.192 318.517C142.351 318.951 141.051 320.596 141.064 322.486C141.07 324.378 142.382 326.02 144.225 326.441C161.716 330.55 178.977 329.049 196.01 321.606C209.044 315.906 207.633 297.441 196.543 293.351Z" fill="white" stroke="#242728" stroke-width="4" stroke-miterlimit="1.5" stroke-linejoin="round"/>
<path d="M186.705 294.404C193.014 289.364 196.094 284.593 200.015 279.087" stroke="#242728" stroke-width="4" stroke-miterlimit="1.5" stroke-linejoin="round"/>
<path d="M200.051 319.688C207.537 316.663 211.851 312.971 217.181 308.815" stroke="#242728" stroke-width="4" stroke-miterlimit="1.5" stroke-linejoin="round"/>
<path d="M291.477 370.132C291.477 370.132 282.473 389.122 276.929 400.811C274.137 406.71 272.652 413.143 272.589 419.672C272.425 435.478 272.136 464.639 272.136 464.639C272.139 474.988 286.578 483.391 304.368 483.396C322.149 483.398 336.589 475 336.587 464.651L336.577 428.874" stroke="#242728" stroke-width="4" stroke-miterlimit="1.5" stroke-linejoin="round"/>
<path d="M132.711 339.351L117.41 377.115C114.235 385.176 122.478 395.425 135.811 399.991" stroke="#242728" stroke-width="4" stroke-miterlimit="1.5" stroke-linejoin="round"/>
<path d="M217.807 394.62L217.13 422.903C216.665 432.987 228.763 440.523 244.135 439.723C259.501 438.921 272.358 430.086 272.823 420.001" stroke="#242728" stroke-width="4" stroke-miterlimit="1.5" stroke-linejoin="round"/>
<path d="M141.779 367.518C151.229 364.284 162.989 373.592 168.02 388.292C173.05 402.991 169.458 417.552 160.009 420.786" stroke="#242728" stroke-width="4" stroke-miterlimit="1.5" stroke-linejoin="round"/>
<path d="M182.201 345.494L140.915 368.031C121.782 377.387 139.643 426.457 160.019 420.802C189.491 410.505 216.711 395.989 241.113 376.198" stroke="#242728" stroke-width="4" stroke-miterlimit="1.5" stroke-linejoin="round"/>
<path d="M53.6332 238.243C53.6332 238.243 41.6216 197.39 36.6024 180.318C35.2593 175.742 36.3808 170.799 39.5585 167.247C48.6139 157.154 67.5277 136.066 78.5077 123.819C80.2108 121.929 82.8001 121.105 85.2785 121.659C87.757 122.22 89.737 124.082 90.4639 126.519C97.4008 150.023 112.542 201.336 118.205 220.506C119.562 225.11 118.419 230.095 115.193 233.653C109.295 240.147 100.495 249.84 100.495 249.84" stroke="#242728" stroke-width="4" stroke-miterlimit="1.5" stroke-linecap="round" stroke-linejoin="round"/>
<path d="M58.4995 233C58.4995 233 48.2373 198.687 43.2181 181.615C41.875 177.039 41.1848 174.5 46.4625 169.222C49.3979 165.955 52.4995 162.5 52.4995 162.5" stroke="#242728" stroke-width="4" stroke-miterlimit="1.5" stroke-linecap="round" stroke-linejoin="round"/>
<path d="M66.4109 166.18L53.9121 179.646" stroke="#242728" stroke-width="4" stroke-miterlimit="1.5" stroke-linecap="round" stroke-linejoin="round"/>
<path d="M77.6707 200.137L65.1719 213.604" stroke="#242728" stroke-width="4" stroke-miterlimit="1.5" stroke-linecap="round" stroke-linejoin="round"/>
<path d="M88.8844 188.869L82.6035 195.636" stroke="#242728" stroke-width="4" stroke-miterlimit="1.5" stroke-linecap="round" stroke-linejoin="round"/>
<path d="M72.8386 187.516L60.3398 200.982" stroke="#242728" stroke-width="4" stroke-miterlimit="1.5" stroke-linecap="round" stroke-linejoin="round"/>
<path d="M84.0984 221.467L71.5996 234.934" stroke="#242728" stroke-width="4" stroke-miterlimit="1.5" stroke-linecap="round" stroke-linejoin="round"/>
<path d="M83.4871 164.857L70.9883 178.323" stroke="#242728" stroke-width="4" stroke-miterlimit="1.5" stroke-linecap="round" stroke-linejoin="round"/>
<path d="M82.6071 210.581L76 217.7" stroke="#242728" stroke-width="4" stroke-miterlimit="1.5" stroke-linecap="round" stroke-linejoin="round"/>
<path d="M94.529 198.556L87.9219 205.675" stroke="#242728" stroke-width="4" stroke-miterlimit="1.5" stroke-linecap="round" stroke-linejoin="round"/>
</svg>
