<svg width="500" height="500" viewBox="0 0 500 500" fill="none" xmlns="http://www.w3.org/2000/svg">
<path fill-rule="evenodd" clip-rule="evenodd" d="M279.453 84.2854L293.577 71.9978C300.725 65.7789 315.478 54.5564 325.3 58.1812C340.162 63.656 338.883 82.7631 339.67 92.5318L341.872 124.152C324.698 106.328 303.372 92.5249 279.453 84.2854Z" fill="#FF85D0"/>
<path fill-rule="evenodd" clip-rule="evenodd" d="M71.8065 234.16C71.8065 147.041 142.672 75.4111 229.954 75.4111C248.004 75.4111 265.349 78.4351 281.511 84.0055C305.43 92.245 326.756 106.048 343.93 123.872C349.902 130.071 355.367 136.747 360.271 143.846V144.433C360.271 147.355 360.9 150.181 362.09 152.878C360.9 155.567 360.271 158.4 360.271 161.322V175.446C360.271 193.318 383.902 207.831 413.011 207.831C421.445 207.831 429.413 206.608 436.485 204.451C431.205 225.183 420.562 249.574 400.228 270.183C394.79 275.692 388.655 280.928 381.754 285.754C380.618 286.553 379.162 287.01 378.279 288.103C373.963 293.468 375.502 295.441 370.749 300.527C361.372 301.1 344.149 292.738 337.214 285.488C336.578 284.819 335.716 284.437 334.902 284.061C331.817 282.655 328.206 282.717 325.128 284.348C315.033 289.72 315.867 307.305 328.61 311.626C328.876 311.715 329.157 311.804 329.437 311.879C341.879 315.402 354.039 316.023 365.934 313.859C359.73 324.255 352.364 333.874 344.019 342.551L344.006 342.564C328.493 358.681 309.581 371.529 288.433 379.939L289.302 445.268C289.302 455.665 274.761 464.102 256.854 464.102C238.948 464.102 224.407 455.665 224.407 445.268V390.964C216.507 390.574 208.867 389.332 200.995 387.823L201.446 419.389C201.446 429.786 186.905 438.223 168.998 438.223C151.092 438.223 136.551 429.786 136.551 419.389V395.005L128.036 367.276C126.763 367.371 125.47 367.392 124.171 367.317C112.858 366.682 105.786 357.917 98.9188 348.92C77.2575 320.528 68.4824 281.024 67.7027 260.1C67.3539 250.653 67.7232 241.273 71.8065 234.16Z" fill="#FF85D0"/>
<path fill-rule="evenodd" clip-rule="evenodd" d="M344.013 342.557L344.478 401.074C344.478 411.47 329.937 419.915 312.031 419.915C303.18 419.915 294.747 417.437 288.885 414.098L288.434 379.939C309.582 371.529 328.494 358.681 344.006 342.564L344.013 342.557Z" fill="#FF85D0"/>
<path fill-rule="evenodd" clip-rule="evenodd" d="M224.406 410.296C216.267 410.207 207.082 408.419 201.247 405.517L200.994 387.823C208.867 389.332 216.507 390.574 224.406 390.963V410.296Z" fill="#FF85D0"/>
<path fill-rule="evenodd" clip-rule="evenodd" d="M400.228 270.183C405.255 271.528 410.337 272.354 415.453 272.805C417.313 272.982 418.805 274.423 419.058 276.273C419.304 278.116 418.237 279.897 416.486 280.552C405.16 284.894 393.587 286.669 381.754 285.754C388.655 280.928 394.791 275.692 400.228 270.183Z" fill="white"/>
<path d="M280.177 83.5669C282.944 81.1571 291.575 73.6457 294.285 71.2845C301.429 65.0689 316.165 53.8502 325.989 57.4734C340.846 62.9551 339.582 82.069 340.371 91.8373L342.59 123.464" stroke="#242728" stroke-width="4" stroke-miterlimit="1.5" stroke-linejoin="round"/>
<path d="M223.059 367.092V444.838C223.059 455.235 237.593 463.679 255.5 463.679C273.413 463.679 287.947 455.235 287.947 444.838L287.085 379.516C308.234 371.099 327.139 358.259 342.651 342.141L342.665 342.128C351.016 333.451 358.376 323.826 364.579 313.436M371.432 300.643C373.45 296.425 375.29 292.096 376.932 287.68M361.221 146.85C355.749 138.467 349.504 130.631 342.583 123.449C325.401 105.626 304.075 91.8154 280.157 83.5827C263.994 78.0123 246.656 74.9883 228.606 74.9883C141.318 74.9883 70.4586 145.717 70.4586 232.83M200.091 387.462C207.964 388.964 215.152 390.152 223.059 390.541" stroke="#242728" stroke-width="4" stroke-miterlimit="1.5" stroke-linecap="round" stroke-linejoin="round"/>
<path d="M290.854 249.427C310.721 248.053 335.31 244.218 355.077 231.11C365.44 224.237 374.477 214.816 380.814 201.865M436.8 196.77C432.259 218.884 421.649 246.697 398.886 269.763C393.45 275.271 387.321 280.509 380.416 285.334C373.976 289.833 366.862 293.973 359.005 297.639C358.846 297.713 358.686 297.787 358.526 297.861" stroke="#242728" stroke-width="4" stroke-miterlimit="1.5" stroke-linejoin="round"/>
<path fill-rule="evenodd" clip-rule="evenodd" d="M323.749 283.926C327.648 281.863 332.396 282.309 335.835 285.061C349.496 295.94 363.79 300.209 378.36 301.506C380.22 301.683 381.713 303.117 381.953 304.965C382.201 306.814 381.137 308.595 379.389 309.252C362.819 315.61 345.723 316.455 328.055 311.463C314.534 307.639 313.442 289.408 323.749 283.926Z" fill="white" stroke="#242728" stroke-width="4" stroke-miterlimit="1.5" stroke-linejoin="round"/>
<path d="M398.899 269.757C403.934 271.103 409.015 271.926 414.133 272.381C415.993 272.558 417.486 273.992 417.726 275.841C417.974 277.689 416.91 279.47 415.162 280.128C403.836 284.472 392.261 286.249 380.429 285.335" stroke="#242728" stroke-width="4" stroke-miterlimit="1.5" stroke-linejoin="round"/>
<path d="M333.515 283.639C326.665 279.56 323.011 275.311 318.437 270.456" stroke="#242728" stroke-width="4" stroke-miterlimit="1.5" stroke-linejoin="round"/>
<path d="M327.26 311.205C319.52 309.247 311.421 305.137 305.646 301.787" stroke="#242728" stroke-width="4" stroke-miterlimit="1.5" stroke-linejoin="round"/>
<path d="M165.763 182.637C165.763 182.637 109.877 209.181 79.3524 225.232C66.9131 231.772 65.8414 245.644 66.3609 259.669C67.1378 280.593 75.9181 320.101 97.5788 348.491C104.446 357.488 111.523 366.256 122.831 366.892C134.146 367.528 144.78 361.478 149.992 351.439C161.313 329.647 175.673 303.075 175.673 303.075" stroke="#242728" stroke-width="4" stroke-miterlimit="1.5" stroke-linejoin="round"/>
<path d="M342.641 342.135L343.138 400.662C343.142 411.062 328.612 419.497 310.704 419.49C301.863 419.483 293.833 417.419 287.98 414.074" stroke="#242728" stroke-width="4" stroke-miterlimit="1.5" stroke-linejoin="round"/>
<path d="M189.624 350.413C189.624 350.413 198.497 376.221 199.131 378.063C199.394 378.82 199.535 379.613 199.544 380.414C199.639 387.073 200.108 418.982 200.108 418.982C200.112 429.381 185.583 437.815 167.676 437.808C149.777 437.798 135.236 429.351 135.232 418.952L135.226 394.564L126.697 366.823" stroke="#242728" stroke-width="4" stroke-miterlimit="1.5" stroke-linejoin="round"/>
<path d="M221.478 409.879C212.636 409.872 204.606 407.808 198.752 404.463" stroke="#242728" stroke-width="4" stroke-miterlimit="1.5" stroke-linejoin="round"/>
<path d="M81.708 321.686C77.7429 330.38 51.9625 335.632 36.6104 310.89" stroke="#242728" stroke-width="4" stroke-miterlimit="1.5" stroke-linejoin="round"/>
<path fill-rule="evenodd" clip-rule="evenodd" d="M23.6549 297.577C25.6649 295.488 35.8418 301.998 37.936 304.005C40.0302 306.012 40.0957 309.34 38.0857 311.429C36.0757 313.518 32.741 313.587 30.6468 311.58C28.5526 309.573 21.6449 299.666 23.6549 297.577Z" fill="#FF85D0" stroke="#242728" stroke-width="4" stroke-miterlimit="1.5" stroke-linejoin="round"/>
<path fill-rule="evenodd" clip-rule="evenodd" d="M358.977 160.896C358.977 143.025 382.637 128.512 411.746 128.512C440.855 128.512 464.471 143.025 464.471 160.896V175.02C464.471 192.892 440.855 207.405 411.746 207.405C382.637 207.405 358.977 192.892 358.977 175.02V160.896Z" fill="#E9FC87" stroke="#242728" stroke-width="4" stroke-miterlimit="1.5" stroke-linejoin="round"/>
<path fill-rule="evenodd" clip-rule="evenodd" d="M358.977 129.879C358.977 112.008 382.637 97.4946 411.746 97.4946C440.855 97.4946 464.471 112.008 464.471 129.879V144.003C464.471 161.875 440.855 176.388 411.746 176.388C382.637 176.388 358.977 161.875 358.977 144.003V129.879Z" fill="#E9FC87" stroke="#242728" stroke-width="4" stroke-miterlimit="1.5" stroke-linejoin="round"/>
<path fill-rule="evenodd" clip-rule="evenodd" d="M358.977 87.0819C358.977 69.2103 382.637 54.6973 411.746 54.6973C440.855 54.6973 464.471 69.2103 464.471 87.0819V114.859C464.471 132.73 440.855 147.243 411.746 147.243C382.637 147.243 358.977 132.73 358.977 114.859V87.0819Z" fill="#E9FC87" stroke="#242728" stroke-width="4" stroke-miterlimit="1.5" stroke-linejoin="round"/>
<path fill-rule="evenodd" clip-rule="evenodd" d="M460.337 99.6768C452.299 111.302 433.588 119.46 411.745 119.46C390.991 119.46 373.054 112.101 364.426 101.404" fill="#E9FC87"/>
<path d="M460.337 99.6768C452.299 111.302 433.588 119.46 411.745 119.46C390.991 119.46 373.054 112.101 364.426 101.404" stroke="#242728" stroke-width="4" stroke-miterlimit="1.5" stroke-linejoin="round"/>
</svg>
