<svg width="47" height="43" viewBox="0 0 47 43" fill="none" xmlns="http://www.w3.org/2000/svg">
<path fill-rule="evenodd" clip-rule="evenodd" d="M38.4485 26.4027C37.2725 26.9645 36.0033 27.4064 34.6707 27.687C34.8803 29.4837 35.9704 31.0649 37.1269 30.9456C37.1318 30.945 37.1372 30.9444 37.1427 30.9438C38.6593 30.6754 39.0042 28.2244 38.4485 26.4027Z" fill="#FF85D0"/>
<path fill-rule="evenodd" clip-rule="evenodd" d="M32.3247 32.0569C31.2212 31.6966 29.8557 32.7824 29.2701 34.4927C28.6839 36.203 29.0971 37.8974 30.1908 38.2882C30.1963 38.29 30.2024 38.2919 30.2085 38.2943C32.5952 38.9559 34.6864 33.2164 32.4447 32.122L32.3247 32.0569Z" fill="#FF85D0"/>
<path fill-rule="evenodd" clip-rule="evenodd" d="M37.127 30.9456C35.9705 31.0649 34.8804 29.4836 34.6708 27.6869C33.9408 27.8403 33.1913 27.9456 32.4284 27.9949C32.4309 28.0058 32.4327 28.0162 32.4345 28.0271C32.4564 28.1921 32.3614 28.3497 32.2054 28.4087C31.9001 28.525 31.5943 28.6223 31.2853 28.6972C30.796 29.3783 30.2464 30.0137 29.645 30.5956L30.4048 31.0095C32.635 31.2249 34.8761 31.1921 37.127 30.9456Z" fill="#FF85D0"/>
<path fill-rule="evenodd" clip-rule="evenodd" d="M38.4795 26.3623C42.4474 24.4682 45.346 21.2144 45.9876 18.2302C46.0278 18.0433 46.4202 17.0093 46.0418 15.952C45.4288 14.2418 43.8123 13.4736 42.4778 13.5862C42.0684 13.6209 41.2196 13.7962 40.6322 14.8406C40.6274 14.8504 40.6255 14.8735 40.6261 14.9064L40.6675 15.3726C40.7047 15.7001 40.751 16.075 40.7382 16.1724C40.7376 16.1809 40.7358 16.1876 40.734 16.1918C39.8535 17.9551 38.3747 19.022 36.6174 19.6179C35.7728 19.9046 34.8637 20.0823 33.9253 20.1766C33.8705 18.4006 33.4824 16.7019 32.8219 15.1444C33.0376 15.0525 33.5823 14.7993 33.8358 14.4846C34.3495 13.848 34.4536 12.7591 34.2715 11.9618C33.1929 11.5041 32.0913 10.7956 30.9701 9.88815C30.8446 9.78712 30.7995 9.6167 30.8586 9.46698C30.9177 9.31725 31.067 9.22291 31.2273 9.23386C32.0438 9.29046 32.8469 9.29227 33.6341 9.22471L32.1949 2.92101C31.9664 1.91858 31.1724 1.14135 30.164 0.932584C29.1549 0.724429 28.1179 1.12309 27.5092 1.95328L23.7435 7.09083C22.5382 6.74756 21.2672 6.56312 19.9535 6.56312C14.3294 6.56312 9.04839 9.81329 6.5989 14.5595L5.59595 14.7177C4.22192 14.9332 3.22626 16.1413 3.27744 17.5303L3.59734 26.1462C3.63877 27.2655 4.33402 28.2557 5.37292 28.6769C5.66967 28.7968 5.97858 28.8638 6.28751 28.8808C7.03881 31.0817 8.20447 32.9447 9.89048 34.9003L9.84963 39.4949C9.87705 40.6915 11.5576 41.658 13.6238 41.658C15.7071 41.658 17.398 40.6757 17.398 39.4651C17.9726 39.7213 18.7464 39.9417 19.5258 39.9417C21.4067 39.9417 22.9343 39.0537 22.9343 37.9605L22.9002 34.6282C25.1724 36.1498 27.6225 37.3385 30.2219 38.2478C29.1281 37.8571 28.715 36.1626 29.3012 34.4523C29.8867 32.742 31.2522 31.6562 32.3557 32.0165L29.6759 30.5552C30.2773 29.9733 30.8269 29.3379 31.3162 28.6568C30.1293 28.9447 28.9124 28.9191 27.6633 28.5655C27.6383 28.5582 27.6139 28.5509 27.5896 28.5424C27.2356 28.4225 26.9839 28.1863 26.834 27.9045C26.5031 27.2837 26.661 26.439 27.2794 26.1109C27.5536 25.9654 27.876 25.9599 28.1502 26.0847C28.2227 26.1182 28.2921 26.1608 28.3561 26.2119C28.7583 26.5321 29.1659 26.7883 29.579 26.9916C30.4168 27.403 31.2754 27.5978 32.1443 27.6782C32.2997 27.6928 32.4258 27.8054 32.4593 27.9545C33.2222 27.9052 33.9717 27.7999 34.7016 27.6465C36.0342 27.3659 37.3035 26.924 38.4795 26.3623Z" fill="#FF85D0"/>
<path fill-rule="evenodd" clip-rule="evenodd" d="M34.1798 11.9954C34.3617 12.793 34.2578 13.8816 33.7445 14.5184C33.4248 14.9149 32.8228 15.2145 32.8228 15.2145M23.6561 7.11561C24.6989 5.69248 26.1169 3.75758 27.4154 1.98515C28.0239 1.15497 29.0607 0.756572 30.0694 0.965093C31.0774 1.17389 31.8718 1.9511 32.1011 2.95412C32.5736 5.02422 33.1012 7.33229 33.5413 9.2585" fill="#FF85D0"/>
<path d="M34.1798 11.9954C34.3617 12.793 34.2578 13.8816 33.7445 14.5184C33.4248 14.9149 32.8228 15.2145 32.8228 15.2145M23.6561 7.11561C24.6989 5.69248 26.1169 3.75758 27.4154 1.98515C28.0239 1.15497 29.0607 0.756572 30.0694 0.965093C31.0774 1.17389 31.8718 1.9511 32.1011 2.95412C32.5736 5.02422 33.1012 7.33229 33.5413 9.2585" stroke="#242728" stroke-width="0.386922" stroke-miterlimit="1.5" stroke-linejoin="round"/>
<path fill-rule="evenodd" clip-rule="evenodd" d="M32.2812 32.0544C31.1751 31.6764 29.798 32.7656 29.2086 34.4853C28.6192 36.205 29.0392 37.9083 30.1454 38.2863" fill="#FF85D0"/>
<path d="M32.2812 32.0544C31.1751 31.6764 29.798 32.7656 29.2086 34.4853C28.6192 36.205 29.0392 37.9083 30.1454 38.2863" stroke="#242728" stroke-width="0.386922" stroke-miterlimit="1.5" stroke-linejoin="round"/>
<path fill-rule="evenodd" clip-rule="evenodd" d="M34.6095 27.6785C34.8206 29.4839 35.9195 31.0714 37.081 30.9361L34.6095 27.6785Z" fill="#FF85D0"/>
<path d="M34.6095 27.6785C34.8206 29.4839 35.9195 31.0714 37.081 30.9361" stroke="#242728" stroke-width="0.386922" stroke-miterlimit="1.5" stroke-linejoin="round"/>
<path fill-rule="evenodd" clip-rule="evenodd" d="M27.5453 29.4769L32.3818 32.1155C34.6232 33.211 32.5338 38.9505 30.1471 38.2879C26.6948 37.0818 23.5061 35.3823 20.6471 33.0658" fill="#FF85D0"/>
<path d="M27.5453 29.4769L32.3818 32.1155C34.6232 33.211 32.5338 38.9505 30.1471 38.2879C26.6948 37.0818 23.5061 35.3823 20.6471 33.0658" stroke="#242728" stroke-width="0.386922" stroke-miterlimit="1.5" stroke-linejoin="round"/>
<path fill-rule="evenodd" clip-rule="evenodd" d="M38.3862 26.3953C38.9418 28.2165 38.5966 30.6679 37.0802 30.936C34.824 31.1846 32.5777 31.2177 30.3423 31.0022" fill="#FF85D0"/>
<path d="M38.3862 26.3953C38.9418 28.2165 38.5966 30.6679 37.0802 30.936C34.824 31.1846 32.5777 31.2177 30.3423 31.0022" stroke="#242728" stroke-width="0.386922" stroke-miterlimit="1.5" stroke-linejoin="round"/>
<path fill-rule="evenodd" clip-rule="evenodd" d="M14.5977 13.3187C14.5977 13.3187 8.8776 14.2192 5.5058 14.7502C4.13176 14.9665 3.13616 16.175 3.18711 17.5638C3.26889 19.7921 3.3945 23.1885 3.50478 26.1805C3.54557 27.2995 4.24048 28.2899 5.27936 28.7104C6.31758 29.1307 7.50688 28.9028 8.31711 28.1283C10.075 26.4467 11.6674 24.923 11.6674 24.923" fill="#FF85D0"/>
<path d="M14.5977 13.3187C14.5977 13.3187 8.8776 14.2192 5.5058 14.7502C4.13176 14.9665 3.13616 16.175 3.18711 17.5638C3.26889 19.7921 3.3945 23.1885 3.50478 26.1805C3.54557 27.2995 4.24048 28.2899 5.27936 28.7104C6.31758 29.1307 7.50688 28.9028 8.31711 28.1283C10.075 26.4467 11.6674 24.923 11.6674 24.923" stroke="#242728" stroke-width="0.386922" stroke-miterlimit="1.5" stroke-linejoin="round"/>
<path fill-rule="evenodd" clip-rule="evenodd" d="M29.5699 30.6C29.5745 30.596 29.5783 30.592 29.5829 30.588C30.1842 30.006 30.7332 29.3706 31.2228 28.6895M6.18021 28.8749C7.10871 31.6161 8.677 33.8312 11.0868 36.3469L6.18021 28.8749ZM17.36 34.3036C18.0182 34.4507 18.7689 34.5488 19.8606 34.5221C20.6906 34.5018 21.5044 34.4496 22.2958 34.3106M33.832 20.1211C33.6003 12.6171 27.4288 6.59631 19.8606 6.59631C14.2234 6.59631 8.93107 9.86042 6.48894 14.6246" fill="#FF85D0"/>
<path d="M29.5699 30.6C29.5745 30.596 29.5783 30.592 29.5829 30.588C30.1842 30.006 30.7332 29.3706 31.2228 28.6895M6.18021 28.8749C7.10871 31.6161 8.677 33.8312 11.0868 36.3469M17.36 34.3036C18.0182 34.4507 18.7689 34.5488 19.8606 34.5221C20.6906 34.5018 21.5044 34.4496 22.2958 34.3106M33.832 20.1211C33.6003 12.6171 27.4288 6.59631 19.8606 6.59631C14.2234 6.59631 8.93107 9.86042 6.48894 14.6246" stroke="#242728" stroke-width="0.386922" stroke-miterlimit="1.5" stroke-linejoin="round"/>
<path d="M12.6797 13.8907L6.2349 14.6378" stroke="#242728" stroke-width="0.386922" stroke-miterlimit="1.5" stroke-linejoin="round"/>
<path d="M27.7344 4.90424L26.2247 8.0242" stroke="#242728" stroke-width="0.386922" stroke-miterlimit="1.5" stroke-linejoin="round"/>
<path fill-rule="evenodd" clip-rule="evenodd" d="M27.8417 21.9049C28.2275 20.8579 28.7889 20.108 30.092 20.2455C30.4149 20.2702 30.9873 20.2926 32.0017 20.2948C33.5784 20.2983 35.138 20.1206 36.5241 19.6504C38.2815 19.0541 39.7599 17.9876 40.6404 16.2239C40.6846 16.1354 40.4971 14.9635 40.5386 14.8732C41.1261 13.8288 41.9747 13.6533 42.3847 13.6188C43.7186 13.5062 45.3356 14.2738 45.9482 15.9846C46.3268 17.0418 45.9345 18.0754 45.8943 18.2623C45.2523 21.2469 42.3542 24.5003 38.3859 26.3949C37.2103 26.9562 35.9408 27.3982 34.6081 27.6787C33.8779 27.8323 33.1289 27.9375 32.366 27.9872" fill="#FF85D0"/>
<path d="M27.8417 21.9049C28.2275 20.8579 28.7889 20.108 30.092 20.2455C30.4149 20.2702 30.9873 20.2926 32.0017 20.2948C33.5784 20.2983 35.138 20.1206 36.5241 19.6504C38.2815 19.0541 39.7599 17.9876 40.6404 16.2239C40.6846 16.1354 40.4971 14.9635 40.5386 14.8732C41.1261 13.8288 41.9747 13.6533 42.3847 13.6188C43.7186 13.5062 45.3356 14.2738 45.9482 15.9846C46.3268 17.0418 45.9345 18.0754 45.8943 18.2623C45.2523 21.2469 42.3542 24.5003 38.3859 26.3949C37.2103 26.9562 35.9408 27.3982 34.6081 27.6787C33.8779 27.8323 33.1289 27.9375 32.366 27.9872" stroke="#242728" stroke-width="0.386922" stroke-miterlimit="1.5" stroke-linejoin="round"/>
<path fill-rule="evenodd" clip-rule="evenodd" d="M36.5351 19.6455C35.5004 20.1587 35.2041 21.2864 35.7922 22.1881L36.5351 19.6455Z" fill="#FF85D0"/>
<path d="M36.5351 19.6455C35.5004 20.1587 35.2041 21.2864 35.7922 22.1881" stroke="#242728" stroke-width="0.386922" stroke-miterlimit="1.5" stroke-linejoin="round"/>
<path fill-rule="evenodd" clip-rule="evenodd" d="M15.0362 28.4429C15.0362 28.4429 16.2355 30.9685 16.8646 32.2917C17.1111 32.8109 17.2414 33.3775 17.248 33.9518C17.2667 35.7068 17.3061 39.4989 17.3061 39.4989C17.3064 40.7095 15.6158 41.6918 13.5325 41.6914C11.4501 41.6907 9.75864 40.7076 9.75842 39.497" fill="#FF85D0"/>
<path d="M15.0362 28.4429C15.0362 28.4429 16.2355 30.9685 16.8646 32.2917C17.1111 32.8109 17.2414 33.3775 17.248 33.9518C17.2667 35.7068 17.3061 39.4989 17.3061 39.4989C17.3064 40.7095 15.6158 41.6918 13.5325 41.6914C11.4501 41.6907 9.75864 40.7076 9.75842 39.497" stroke="#242728" stroke-width="0.386922" stroke-miterlimit="1.5" stroke-linejoin="round"/>
<path fill-rule="evenodd" clip-rule="evenodd" d="M22.8086 34.8578C22.8248 36.3819 22.8416 37.994 22.8416 37.994C22.8418 39.0876 21.3147 39.9748 19.4329 39.9744C18.6543 39.974 17.9354 39.8216 17.3607 39.5654" fill="#FF85D0"/>
<path d="M22.8086 34.8578C22.8248 36.3819 22.8416 37.994 22.8416 37.994C22.8418 39.0876 21.3147 39.9748 19.4329 39.9744C18.6543 39.974 17.9354 39.8216 17.3607 39.5654" stroke="#242728" stroke-width="0.386922" stroke-miterlimit="1.5" stroke-linejoin="round"/>
<path d="M9.79688 34.9948L9.7576 39.5658" stroke="#242728" stroke-width="0.386922" stroke-miterlimit="1.5" stroke-linejoin="round"/>
<path d="M41.1699 18.6358L39.5562 0.476562" stroke="#242728" stroke-width="0.733241" stroke-miterlimit="1.5" stroke-linejoin="round"/>
<path fill-rule="evenodd" clip-rule="evenodd" d="M39.5558 0.476562L40.3643 9.55617C34.9309 13.5973 28.9513 11.8226 22.6574 6.72694C22.4205 6.53515 22.3353 6.21198 22.4474 5.92839C22.5595 5.64481 22.8421 5.46627 23.1469 5.48725C29.1139 5.89732 34.7178 4.78349 39.5558 0.476562Z" fill="#84EABD" stroke="#242728" stroke-width="0.733241" stroke-miterlimit="1.5" stroke-linejoin="round"/>
<path fill-rule="evenodd" clip-rule="evenodd" d="M27.1863 26.1435C27.5336 25.9596 27.9566 25.9994 28.263 26.2447C29.4801 27.2147 30.7536 27.5953 32.0516 27.711C32.2173 27.7268 32.3503 27.8546 32.3717 28.0194C32.3938 28.1842 32.299 28.343 32.1433 28.4016C30.6671 28.9683 29.1441 29.0436 27.57 28.5985C26.3654 28.2575 26.2681 26.6322 27.1863 26.1435Z" fill="white" stroke="#242728" stroke-width="0.386922" stroke-miterlimit="1.5" stroke-linejoin="round"/>
<path fill-rule="evenodd" clip-rule="evenodd" d="M28.057 26.1179C27.4466 25.7542 27.1212 25.3753 26.7136 24.9425L28.057 26.1179Z" fill="#FF85D0"/>
<path d="M28.057 26.1179C27.4466 25.7542 27.1212 25.3753 26.7136 24.9425" stroke="#242728" stroke-width="0.386922" stroke-miterlimit="1.5" stroke-linejoin="round"/>
<path fill-rule="evenodd" clip-rule="evenodd" d="M27.4964 28.5758C26.8069 28.4014 26.0854 28.0351 25.5709 27.7365L27.4964 28.5758Z" fill="#FF85D0"/>
<path d="M27.4964 28.5758C26.8069 28.4014 26.0854 28.0351 25.5709 27.7365" stroke="#242728" stroke-width="0.386922" stroke-miterlimit="1.5" stroke-linejoin="round"/>
</svg>
