<svg width="500" height="500" viewBox="0 0 500 500" fill="none" xmlns="http://www.w3.org/2000/svg">
<g clip-path="url(#clip0_466_16132)">
<path fill-rule="evenodd" clip-rule="evenodd" d="M360.861 304.133C373.127 316.738 388.555 325.767 407.212 323.944C407.289 323.936 407.366 323.929 407.443 323.921C408.635 323.814 409.834 323.867 411.019 324.098C412.288 324.344 413.487 324.783 414.61 325.382C422.409 329.566 426.508 341.833 423.931 355.053C421.409 368.035 413.272 377.748 404.651 379.009C404.59 379.017 404.52 379.025 404.451 379.033C403.467 379.056 402.413 379.063 401.306 379.063C381.087 379.002 341.003 374.633 306.541 350.139C305.257 351.054 303.942 351.946 302.604 352.815L303.057 401.497C303.057 413.21 286.707 422.723 266.573 422.723C256.621 422.723 247.239 419.678 240.648 415.917L241.009 451.279C241.009 462.991 224.667 472.505 204.532 472.505C184.398 472.505 168.048 462.991 168.048 451.279V411.833C159.157 411.472 148.344 409.526 142.069 406.519L142.23 422.131C142.23 433.844 125.88 443.349 105.746 443.349C85.6117 443.349 69.2614 433.844 69.2614 422.131V377.356C64.3778 359.398 58.656 340.033 54.3416 324.091C50.304 325.175 46.0046 325.329 41.7594 324.444C32.1076 322.429 24.3095 315.331 21.387 305.91L7.49764 261.035C1.64505 242.123 9.03581 221.62 25.6169 210.792L56.7103 190.488L75.4755 94.0704C87.0422 34.6215 162.957 -0.709346 244.901 15.2411C305.957 27.1232 353.247 64.1384 368.59 106.837C373.396 107.137 375.119 106.675 379.825 106.968C392.207 107.744 401.306 114.427 404.482 123.618C413.095 148.528 373.934 192.08 363.021 200.063L349.424 269.948C349.424 269.948 352.093 274.417 361.237 277.916C370.389 281.415 375.611 282.838 375.611 282.838L387.201 285.26L396.491 286.252L400.444 286.599L402.451 290.29L401.829 293.505L397.522 296.127L383.325 300.58L370.612 301.849L360.861 304.133Z" fill="#FF85D0"/>
<path fill-rule="evenodd" clip-rule="evenodd" d="M336.512 269.709C336.589 269.663 336.673 269.617 336.758 269.571C337.865 269.01 339.08 268.579 340.426 268.287C343.233 267.664 346.179 268.279 348.509 269.979C348.801 270.186 349.086 270.394 349.378 270.594C365.452 281.922 381.779 285.798 398.221 286.306C400.313 286.383 402.082 287.898 402.482 289.959C402.882 292.02 401.813 294.081 399.898 294.942C386.816 300.88 373.235 303.61 359.138 303.018C353.716 297.165 348.932 290.651 344.795 284.145C341.672 279.223 338.911 274.316 336.512 269.709Z" fill="white"/>
<path fill-rule="evenodd" clip-rule="evenodd" d="M352.924 494.131L276.263 476.888C273.948 476.373 272.141 474.566 271.618 472.251C271.088 469.936 271.941 467.521 273.81 466.06L342.188 412.187C345.095 409.895 348.886 409.034 352.501 409.849L393.33 419.032L397.099 412.018C397.899 410.533 398.998 409.226 400.321 408.188L469.822 353.43C470.968 352.531 472.591 352.554 473.706 353.492C474.821 354.43 475.128 356.022 474.436 357.306L436.06 428.637L352.924 494.131Z" fill="#E9FC87"/>
<path d="M349.373 270.595L372.352 152.497C375.3 137.348 373.792 122.086 368.539 107.486C353.2 64.79 305.905 27.7689 244.846 15.8881C162.903 -0.0562217 86.988 35.2672 75.4198 94.7201L56.6589 191.138M54.453 325.185C58.8454 341.706 63.9898 358.796 69.2087 378.002M143.962 366.144C147.103 366.931 156.056 369.542 169.064 372.299M211.684 377.365C248.508 377.884 282.088 368.102 306.488 350.788" stroke="#242728" stroke-width="4" stroke-miterlimit="1.5" stroke-linejoin="round"/>
<path d="M239.858 373.69C239.858 373.69 240.279 388.018 240.322 389.674C240.33 389.776 240.329 389.88 240.328 389.984C240.364 393.396 240.965 451.937 240.965 451.937C240.963 463.65 224.617 473.158 204.478 473.16C184.347 473.158 167.997 463.651 167.998 451.937L167.997 372.385" stroke="#242728" stroke-width="4" stroke-miterlimit="1.5" stroke-linejoin="round"/>
<path d="M302.564 354.38L303.004 402.157C303.002 413.87 286.656 423.378 266.517 423.38C256.574 423.377 247.545 421.057 240.964 417.292" stroke="#242728" stroke-width="4" stroke-miterlimit="1.5" stroke-linejoin="round"/>
<path d="M114.588 162.2C137.501 184.006 169.874 200.849 207.451 208.16C268.262 219.993 325.747 203.586 356.079 170.056M81.6044 109.769C84.1857 119.17 88.3407 128.354 93.8462 137.102" stroke="#242728" stroke-width="4" stroke-miterlimit="1.5" stroke-linejoin="round"/>
<path d="M130.43 328.251C130.43 328.251 136.581 346.186 139.732 355.38C140.938 358.888 141.571 362.568 141.608 366.278C141.761 381.55 142.184 422.787 142.184 422.787C142.183 434.5 125.837 444.008 105.697 444.01C85.5662 444.008 69.2165 434.501 69.2175 422.787L69.2246 378.01" stroke="#242728" stroke-width="4" stroke-miterlimit="1.5" stroke-linejoin="round"/>
<path d="M166.217 412.55C156.273 412.547 147.244 410.226 140.664 406.462" stroke="#242728" stroke-width="4" stroke-miterlimit="1.5" stroke-linejoin="round"/>
<path d="M368.544 107.488C373.344 107.788 375.074 107.326 379.776 107.619C392.163 108.398 401.253 115.077 404.434 124.274C413.174 149.554 372.689 194.052 362.499 201.053" stroke="#242728" stroke-width="4" stroke-miterlimit="1.5" stroke-linejoin="round"/>
<path d="M300.398 234.865C310.783 232.772 319.639 233.577 325.003 244.788C328.979 252.515 355.839 329.616 407.161 324.6C407.238 324.593 407.314 324.585 407.391 324.577C410.438 324.265 412.79 324.82 414.561 326.039M404.604 379.664C404.533 379.681 404.464 379.691 404.398 379.692C403.413 379.712 402.363 379.722 401.253 379.719C379.294 379.653 333.908 374.509 297.731 344.012" stroke="#242728" stroke-width="4" stroke-miterlimit="1.5" stroke-linejoin="round"/>
<path fill-rule="evenodd" clip-rule="evenodd" d="M253.719 296.783C258.617 295.997 263.509 298.195 266.17 302.376C276.762 318.93 290.427 328.666 305.464 335.332C307.379 336.196 308.448 338.266 308.033 340.324C307.625 342.385 305.846 343.898 303.747 343.965C283.802 344.735 265.299 339.436 248.305 327.706C235.302 318.725 240.758 298.89 253.719 296.783Z" fill="white" stroke="#242728" stroke-width="4" stroke-miterlimit="1.5" stroke-linejoin="round"/>
<path d="M336.504 269.705C336.581 269.659 336.666 269.613 336.75 269.574C337.858 269.013 339.073 268.574 340.419 268.282C343.226 267.667 346.171 268.282 348.501 269.974C348.794 270.181 349.078 270.389 349.371 270.597C365.444 281.925 381.771 285.802 398.214 286.301C400.306 286.386 402.075 287.893 402.475 289.954C402.875 292.016 401.806 294.084 399.891 294.938C386.809 300.875 373.227 303.613 359.13 303.013" stroke="#242728" stroke-width="4" stroke-miterlimit="1.5" stroke-linejoin="round"/>
<path d="M264.223 300.018C258.412 293.184 256.067 287.327 252.959 280.492" stroke="#242728" stroke-width="4" stroke-miterlimit="1.5" stroke-linejoin="round"/>
<path d="M247.548 327.133C240.019 322.243 232.89 314.928 227.959 309.266" stroke="#242728" stroke-width="4" stroke-miterlimit="1.5" stroke-linejoin="round"/>
<path d="M345.712 284.681C336.417 278.875 325.896 282.796 321.527 292.032" stroke="#242728" stroke-width="4" stroke-miterlimit="1.5" stroke-linejoin="round"/>
<path d="M400.313 379.566C410.388 381.526 420.943 370.845 423.888 355.707C426.833 340.57 421.054 326.71 410.979 324.75C400.904 322.789 390.349 333.471 387.403 348.608C384.458 363.745 390.238 377.606 400.313 379.566Z" stroke="#242728" stroke-width="4" stroke-miterlimit="1.5" stroke-linejoin="round"/>
<path d="M419.739 420.121C423.914 417.439 428.133 410.978 429.162 405.689C430.191 400.401 427.641 398.288 423.466 400.969C419.291 403.651 415.072 410.112 414.043 415.401C413.014 420.689 415.564 422.803 419.739 420.121Z" fill="white"/>
<path fill-rule="evenodd" clip-rule="evenodd" d="M422.385 399.286C425.478 397.301 428.014 397.534 429.541 398.802C430.956 399.975 431.833 402.445 431.127 406.071C430.005 411.836 425.375 418.878 420.82 421.804C417.729 423.789 415.194 423.554 413.666 422.288C412.252 421.115 411.375 418.645 412.081 415.019C413.203 409.251 417.833 402.212 422.385 399.286ZM424.546 402.653C420.755 405.088 416.942 410.98 416.008 415.783C415.807 416.814 415.757 417.693 415.883 418.393C415.946 418.745 416.017 419.041 416.217 419.208C416.404 419.36 416.671 419.294 416.981 419.22C417.486 419.1 418.045 418.833 418.658 418.439C422.45 416.004 426.265 410.11 427.2 405.308C427.401 404.274 427.448 403.399 427.325 402.694C427.262 402.345 427.19 402.049 426.99 401.882C426.804 401.727 426.537 401.793 426.227 401.867C425.721 401.99 425.16 402.259 424.546 402.653Z" fill="#242728"/>
<path d="M90.0236 169.358C90.0236 169.358 52.7779 193.676 25.5682 211.447C8.98899 222.266 1.59086 242.773 7.44878 261.69C11.6815 275.353 16.7027 291.586 21.3417 306.561C24.2586 315.985 32.0569 323.085 41.711 325.099C51.3711 327.113 61.3586 323.728 67.7987 316.263C78.4776 303.879 87.7131 293.176 87.7131 293.176" stroke="#242728" stroke-width="4" stroke-miterlimit="1.5" stroke-linejoin="round"/>
<path d="M37.9053 203.23C36.8578 201.639 22.9758 199.743 17.4949 183.418C14.3216 173.967 16.114 164.38 15.3629 156.211" stroke="#242728" stroke-width="4" stroke-miterlimit="1.5" stroke-linejoin="round"/>
<path fill-rule="evenodd" clip-rule="evenodd" d="M17.8418 135.439C21.0932 135.71 22.6138 149.217 22.3428 152.47C22.0717 155.724 19.2074 158.145 15.9561 157.874C12.7047 157.603 10.2805 154.742 10.5516 151.488C10.8227 148.234 14.5905 135.168 17.8418 135.439Z" fill="#FF85D0" stroke="#242728" stroke-width="4" stroke-miterlimit="1.5" stroke-linejoin="round"/>
<path fill-rule="evenodd" clip-rule="evenodd" d="M393.715 417.723L392.843 421.626L352.011 412.444C348.984 411.763 345.804 412.486 343.369 414.404L274.99 468.274C273.733 469.264 273.159 470.89 273.508 472.455C273.868 474.017 275.088 475.233 276.65 475.585L352.382 492.615L434.765 427.713L437.24 430.857L354.108 496.349C353.637 496.721 353.026 496.858 352.437 496.726L275.778 479.487C272.705 478.796 270.307 476.404 269.606 473.34C268.911 470.272 270.049 467.077 272.52 465.13L340.894 411.265C344.277 408.6 348.685 407.597 352.884 408.541L393.715 417.723Z" fill="#242728"/>
<path fill-rule="evenodd" clip-rule="evenodd" d="M280.825 472.499L281.705 468.597L349.934 483.94L349.054 487.842L280.825 472.499Z" fill="#242728"/>
<path fill-rule="evenodd" clip-rule="evenodd" d="M349.564 439.882L329.217 455.911C327.289 457.43 324.778 458 322.382 457.462L312.575 455.256C310.664 454.826 309.172 453.336 308.737 451.427C308.304 449.517 309.009 447.527 310.546 446.316L330.893 430.287C332.823 428.766 335.333 428.198 337.727 428.737L347.536 430.942C349.447 431.372 350.939 432.862 351.372 434.772C351.807 436.681 351.103 438.669 349.564 439.882ZM347.088 436.74C347.415 436.483 347.563 436.061 347.473 435.655C347.381 435.251 347.064 434.935 346.66 434.844L336.851 432.638C335.631 432.364 334.352 432.654 333.369 433.428L313.021 449.458C312.695 449.715 312.546 450.137 312.639 450.541C312.73 450.947 313.046 451.263 313.451 451.354L323.26 453.56C324.479 453.834 325.758 453.544 326.741 452.77L347.088 436.74Z" fill="#242728"/>
<path fill-rule="evenodd" clip-rule="evenodd" d="M437.219 430.869L354.087 496.361C353.344 496.946 352.293 496.929 351.567 496.318C350.839 495.711 350.642 494.675 351.093 493.839L395.267 411.729C396.194 410.003 397.474 408.483 399.015 407.269L468.513 352.519C470.403 351.029 473.077 351.072 474.923 352.615C476.76 354.164 477.263 356.794 476.122 358.911L437.745 430.244C437.615 430.486 437.437 430.697 437.219 430.869ZM434.422 427.98L472.603 357.014C472.844 356.567 472.736 356.01 472.345 355.681C471.958 355.351 471.388 355.345 470.99 355.659L401.492 410.41C400.381 411.286 399.462 412.379 398.796 413.621L359.173 487.262L434.422 427.98Z" fill="#242728"/>
</g>
<defs>
<clipPath id="clip0_466_16132">
<rect width="500" height="500" fill="white"/>
</clipPath>
</defs>
</svg>
