<svg width="500" height="500" viewBox="0 0 500 500" fill="none" xmlns="http://www.w3.org/2000/svg">
<path fill-rule="evenodd" clip-rule="evenodd" d="M152.331 362.601C119.144 376.22 85.2967 373.312 68.232 370.046C67.2549 369.861 66.3328 369.668 65.4727 369.482C65.4108 369.462 65.3557 369.441 65.3007 369.428C57.945 366.85 52.4609 356.936 52.4609 345.118C52.4609 333.074 58.1515 323.016 65.7136 320.672C66.8077 320.335 67.9361 320.156 69.0852 320.156C70.1724 320.156 71.2321 320.314 72.2643 320.61C72.3262 320.631 72.395 320.651 72.4638 320.672C88.4826 325.443 103.524 320.205 116.426 311.295C118.525 309.838 120.575 308.291 122.557 306.668C113.447 307.7 104.268 307.101 95.0264 304.929C93.1961 304.51 91.8887 302.887 91.8818 301.01C91.8749 299.127 93.1686 297.49 94.9989 297.064C108.293 294.019 120.995 288.464 132.438 277.547V190.396C124.683 182.511 96.7328 136.561 108.733 115.868C113.096 108.34 122.227 104.029 133.229 105.466L147.067 107.261C161.771 86.3066 186.557 69.6768 216.784 60.7534V67.7036C216.784 70.3092 217.28 72.8391 218.216 75.2658C217.28 77.6926 216.784 80.2294 216.784 82.828V97.0584C216.784 100.001 217.417 102.847 218.608 105.563C217.417 108.271 216.784 111.124 216.784 114.067V128.29C216.784 146.288 240.558 160.904 269.843 160.904C299.128 160.904 322.902 146.288 322.902 128.29V114.067C322.902 111.124 322.269 108.271 321.079 105.563C322.269 102.847 322.902 100.001 322.902 97.0584V82.828C322.902 80.2294 322.407 77.6926 321.464 75.2658C322.407 72.8391 322.902 70.3092 322.902 67.7036V62.0387C370.14 77.3487 403.092 111.729 403.092 151.637V223.56L433.231 235.096C443.869 239.159 449.972 250.832 447.454 262.264L431.82 333.191C429.79 342.403 422.744 349.463 413.82 351.23C406.787 352.626 399.624 350.529 394.319 345.778C387.197 364.766 376.174 381.128 361.793 397.985V437.432C361.793 447.902 347.171 456.406 329.157 456.406C311.143 456.406 296.514 447.902 296.514 437.432L296.658 423.49C290.72 426.432 281.692 428.082 273.414 428.103V463.494C273.414 473.964 258.786 482.468 240.771 482.468C222.757 482.468 208.128 473.964 208.128 463.494L208.445 433.025C202.355 435.851 193.155 437.961 185.263 437.961C167.249 437.961 152.62 429.464 152.62 418.994L152.331 362.601Z" fill="#FF85D0"/>
<path d="M132.211 277.433V151.521C132.211 97.3802 192.846 53.4238 267.537 53.4238C342.227 53.4238 402.863 97.3802 402.863 151.521V223.447M394.086 345.666C386.97 364.653 375.938 381.014 361.568 397.868C355.669 404.784 349.198 411.784 342.211 419.082M234.89 400.235C225.832 398.606 217.128 396.314 208.892 393.435C187.648 386.01 169.475 374.679 156.17 360.73M296.283 401.952C293.39 402.106 285.081 402.869 273.186 403.067" stroke="#242728" stroke-width="4" stroke-miterlimit="1.5" stroke-linejoin="round"/>
<path d="M208.897 393.434C208.897 393.434 208.518 406.242 208.479 407.723C208.472 407.814 208.473 407.908 208.473 408C208.441 411.051 207.892 463.384 207.892 463.384C207.89 473.856 222.512 482.353 240.528 482.35C258.538 482.345 273.166 473.842 273.167 463.371L273.184 392.253" stroke="#242728" stroke-width="4" stroke-miterlimit="1.5" stroke-linejoin="round"/>
<path d="M152.916 362.144L152.385 418.882C152.383 429.354 167.005 437.851 185.023 437.849C193.918 437.844 201.996 435.768 207.885 432.401" stroke="#242728" stroke-width="4" stroke-miterlimit="1.5" stroke-linejoin="round"/>
<path d="M356.97 204.064C333.12 219.286 301.811 228.537 267.56 228.537C212.131 228.537 164.448 204.326 143.539 169.726M394.897 163.69C391.024 171.498 385.805 178.846 379.475 185.583" stroke="#242728" stroke-width="4" stroke-miterlimit="1.5" stroke-linejoin="round"/>
<path d="M315.902 341.693C315.902 341.693 306.692 361.097 301.078 372.91C298.297 378.767 296.824 385.158 296.751 391.638C296.586 407.588 296.276 437.323 296.276 437.323C296.275 447.794 310.895 456.291 328.912 456.288C346.921 456.283 361.549 447.781 361.55 437.309L361.553 397.28" stroke="#242728" stroke-width="4" stroke-miterlimit="1.5" stroke-linejoin="round"/>
<path d="M274.773 428.17C283.669 428.166 291.747 426.089 297.635 422.722" stroke="#242728" stroke-width="4" stroke-miterlimit="1.5" stroke-linejoin="round"/>
<path d="M145.693 107.001C141.426 106.444 137.169 105.891 132.99 105.345C121.98 103.912 112.858 108.219 108.496 115.745C96.5084 136.434 124.469 182.395 132.223 190.279" stroke="#242728" stroke-width="4" stroke-miterlimit="1.5" stroke-linejoin="round"/>
<path fill-rule="evenodd" clip-rule="evenodd" d="M137.018 273.003C139.895 271.181 143.507 270.748 146.796 271.958C148.434 272.556 149.858 273.477 151.049 274.618C144.732 283.521 134.748 296.411 122.328 306.552C113.217 307.583 104.038 306.985 94.7969 304.812C92.9666 304.393 91.6593 302.771 91.6524 300.894C91.6455 299.01 92.939 297.374 94.7694 296.947C108.063 293.909 120.766 288.347 132.209 277.43C133.117 276.571 134.011 275.67 134.906 274.742C135.546 274.069 136.254 273.484 137.018 273.003Z" fill="white"/>
<path d="M181.335 260.044C172.573 256.435 164.658 255.63 158.031 264.551C153.218 270.653 116.451 333.72 72.2366 320.558C72.1702 320.539 72.1041 320.519 72.0378 320.499C69.4152 319.705 67.2549 319.791 65.4917 320.558M65.0708 369.31C65.1298 369.338 65.1885 369.358 65.2462 369.37C66.1085 369.556 67.0288 369.743 68.0042 369.93C87.2999 373.62 128.039 376.854 165.022 356.27" stroke="#242728" stroke-width="4" stroke-miterlimit="1.5" stroke-linejoin="round"/>
<path fill-rule="evenodd" clip-rule="evenodd" d="M211.722 322.343C207.555 320.816 202.883 321.908 199.832 325.123C187.704 337.841 174.04 344.05 159.696 347.33C157.867 347.76 156.575 349.395 156.588 351.272C156.594 353.15 157.898 354.782 159.73 355.2C177.115 359.284 194.27 357.796 211.197 350.406C224.15 344.747 222.745 326.407 211.722 322.343Z" fill="white" stroke="#242728" stroke-width="4" stroke-miterlimit="1.5" stroke-linejoin="round"/>
<path d="M151.05 274.618C149.851 273.477 148.432 272.563 146.795 271.959C143.506 270.753 139.893 271.177 137.018 273.003C136.252 273.486 135.54 274.064 134.904 274.739C134.011 275.669 133.118 276.57 132.211 277.433C120.767 288.351 108.066 293.904 94.7686 296.946C92.9393 297.376 91.6472 299.01 91.6602 300.887C91.6665 302.766 92.9708 304.398 94.8024 304.816C104.047 306.985 113.221 307.584 122.335 306.56" stroke="#242728" stroke-width="4" stroke-miterlimit="1.5" stroke-linejoin="round"/>
<path d="M201.951 323.388C208.221 318.384 211.281 313.646 215.177 308.179" stroke="#242728" stroke-width="4" stroke-miterlimit="1.5" stroke-linejoin="round"/>
<path d="M137.024 273.004C143.293 268 146.353 263.261 150.249 257.794" stroke="#242728" stroke-width="4" stroke-miterlimit="1.5" stroke-linejoin="round"/>
<path d="M211.983 350.036C219.43 347.03 226.941 341.828 232.24 337.7" stroke="#242728" stroke-width="4" stroke-miterlimit="1.5" stroke-linejoin="round"/>
<path d="M116.195 311.178C125.349 307.671 133.919 312.91 136.18 321.761" stroke="#242728" stroke-width="4" stroke-miterlimit="1.5" stroke-linejoin="round"/>
<path d="M362.636 208.054C362.636 208.054 406.901 224.993 432.993 234.979C443.626 239.048 449.733 250.719 447.217 262.151C443.179 280.495 437.017 308.452 431.592 333.081C429.566 342.293 422.518 349.356 413.591 351.122C404.67 352.888 395.529 349.029 390.242 341.265C378.772 324.41 368.384 309.137 368.384 309.137" stroke="#242728" stroke-width="4" stroke-miterlimit="1.5" stroke-linejoin="round"/>
<path d="M68.8546 369.944C59.6714 369.944 52.227 358.769 52.227 344.984C52.227 331.199 59.6714 320.024 68.8546 320.024C78.0379 320.024 85.4824 331.199 85.4824 344.984C85.4824 358.769 78.0379 369.944 68.8546 369.944Z" stroke="#242728" stroke-width="4" stroke-miterlimit="1.5" stroke-linejoin="round"/>
<path fill-rule="evenodd" clip-rule="evenodd" d="M216.607 113.949C216.607 95.9515 240.41 81.3359 269.695 81.3359C298.98 81.3359 322.738 95.9515 322.738 113.949V128.173C322.738 146.171 298.98 160.787 269.695 160.787C240.41 160.787 216.607 146.171 216.607 128.173V113.949Z" fill="#E9FC87" stroke="#242728" stroke-width="4" stroke-miterlimit="1.5" stroke-linejoin="round"/>
<path fill-rule="evenodd" clip-rule="evenodd" d="M216.607 82.7132C216.607 64.7152 240.41 50.0996 269.695 50.0996C298.98 50.0996 322.738 64.7152 322.738 82.7132V96.9369C322.738 114.935 298.98 129.551 269.695 129.551C240.41 129.551 216.607 114.935 216.607 96.9369V82.7132Z" fill="#E9FC87" stroke="#242728" stroke-width="4" stroke-miterlimit="1.5" stroke-linejoin="round"/>
<path fill-rule="evenodd" clip-rule="evenodd" d="M216.607 39.6135C216.607 21.6156 240.41 7 269.695 7C298.98 7 322.738 21.6156 322.738 39.6135V67.5867C322.738 85.5846 298.98 100.2 269.695 100.2C240.41 100.2 216.607 85.5846 216.607 67.5867V39.6135Z" fill="#E9FC87" stroke="#242728" stroke-width="4" stroke-miterlimit="1.5" stroke-linejoin="round"/>
<path fill-rule="evenodd" clip-rule="evenodd" d="M318.579 52.2969C310.492 64.0045 291.669 72.2198 269.694 72.2198C248.816 72.2198 230.77 64.8089 222.09 54.0362" fill="#E9FC87"/>
<path d="M318.579 52.2969C310.492 64.0045 291.669 72.2198 269.694 72.2198C248.816 72.2198 230.77 64.8089 222.09 54.0362" stroke="#242728" stroke-width="4" stroke-miterlimit="1.5" stroke-linejoin="round"/>
</svg>
