<svg width="29" height="28" viewBox="0 0 29 28" fill="none" xmlns="http://www.w3.org/2000/svg">
<g id="vuesax/outline/folder-connection">
<g id="folder-connection">
<path id="Vector" d="M14.3335 23.0415C13.8552 23.0415 13.4585 22.6448 13.4585 22.1665V18.6665C13.4585 18.1882 13.8552 17.7915 14.3335 17.7915C14.8118 17.7915 15.2085 18.1882 15.2085 18.6665V22.1665C15.2085 22.6448 14.8118 23.0415 14.3335 23.0415Z" fill="#F2F2F2"/>
<path id="Vector_2" d="M14.3338 27.7082C12.5605 27.7082 11.1255 26.2732 11.1255 24.4998C11.1255 22.7265 12.5605 21.2915 14.3338 21.2915C16.1072 21.2915 17.5422 22.7265 17.5422 24.4998C17.5422 26.2732 16.1072 27.7082 14.3338 27.7082ZM14.3338 23.0415C13.5288 23.0415 12.8755 23.6948 12.8755 24.4998C12.8755 25.3048 13.5288 25.9582 14.3338 25.9582C15.1388 25.9582 15.7922 25.3048 15.7922 24.4998C15.7922 23.6948 15.1388 23.0415 14.3338 23.0415Z" fill="#F2F2F2"/>
<path id="Vector_3" d="M21.3332 25.375H16.6665C16.1882 25.375 15.7915 24.9783 15.7915 24.5C15.7915 24.0217 16.1882 23.625 16.6665 23.625H21.3332C21.8115 23.625 22.2082 24.0217 22.2082 24.5C22.2082 24.9783 21.8115 25.375 21.3332 25.375Z" fill="#F2F2F2"/>
<path id="Vector_4" d="M12.0002 25.375H7.3335C6.85516 25.375 6.4585 24.9783 6.4585 24.5C6.4585 24.0217 6.85516 23.625 7.3335 23.625H12.0002C12.4785 23.625 12.8752 24.0217 12.8752 24.5C12.8752 24.9783 12.4785 25.375 12.0002 25.375Z" fill="#F2F2F2"/>
<path id="Vector_5" d="M18.4165 19.5418H10.2498C6.49317 19.5418 5.2915 18.3402 5.2915 14.5835V6.41683C5.2915 2.66016 6.49317 1.4585 10.2498 1.4585H11.4748C13.0265 1.4585 13.5282 1.98351 14.1349 2.78851L15.3598 4.42188C15.5932 4.72521 15.5932 4.72522 15.9665 4.72522H18.4165C22.1732 4.72522 23.3748 5.92689 23.3748 9.68355V14.5835C23.3748 18.3402 22.1732 19.5418 18.4165 19.5418ZM10.2498 3.2085C7.4615 3.2085 7.0415 3.6285 7.0415 6.41683V14.5835C7.0415 17.3718 7.4615 17.7918 10.2498 17.7918H18.4165C21.2048 17.7918 21.6248 17.3718 21.6248 14.5835V9.68355C21.6248 6.89522 21.2048 6.47522 18.4165 6.47522H15.9665C14.8115 6.47522 14.3915 6.04344 13.9715 5.48344L12.7348 3.83854C12.3265 3.29021 12.2682 3.2085 11.4748 3.2085H10.2498Z" fill="#F2F2F2"/>
</g>
</g>
</svg>
