<svg xmlns="http://www.w3.org/2000/svg" width="29" height="28" viewBox="0 0 29 28" fill="none">
<path d="M14.333 23.0415C13.8547 23.0415 13.458 22.6448 13.458 22.1665V18.6665C13.458 18.1882 13.8547 17.7915 14.333 17.7915C14.8113 17.7915 15.208 18.1882 15.208 18.6665V22.1665C15.208 22.6448 14.8113 23.0415 14.333 23.0415Z" fill="#CA6FE5"/>
<path d="M14.3324 27.7082C12.559 27.7082 11.124 26.2732 11.124 24.4998C11.124 22.7265 12.559 21.2915 14.3324 21.2915C16.1057 21.2915 17.5407 22.7265 17.5407 24.4998C17.5407 26.2732 16.1057 27.7082 14.3324 27.7082ZM14.3324 23.0415C13.5274 23.0415 12.874 23.6948 12.874 24.4998C12.874 25.3048 13.5274 25.9582 14.3324 25.9582C15.1374 25.9582 15.7907 25.3048 15.7907 24.4998C15.7907 23.6948 15.1374 23.0415 14.3324 23.0415Z" fill="#CA6FE5"/>
<path d="M21.3337 25.375H16.667C16.1887 25.375 15.792 24.9783 15.792 24.5C15.792 24.0217 16.1887 23.625 16.667 23.625H21.3337C21.812 23.625 22.2087 24.0217 22.2087 24.5C22.2087 24.9783 21.812 25.375 21.3337 25.375Z" fill="#CA6FE5"/>
<path d="M11.9997 25.375H7.33301C6.85467 25.375 6.45801 24.9783 6.45801 24.5C6.45801 24.0217 6.85467 23.625 7.33301 23.625H11.9997C12.478 23.625 12.8747 24.0217 12.8747 24.5C12.8747 24.9783 12.478 25.375 11.9997 25.375Z" fill="#CA6FE5"/>
<path d="M18.417 19.5418H10.2503C6.49366 19.5418 5.29199 18.3402 5.29199 14.5835V6.41683C5.29199 2.66016 6.49366 1.4585 10.2503 1.4585H11.4753C13.027 1.4585 13.5287 1.98351 14.1353 2.78851L15.3603 4.42188C15.5937 4.72521 15.5937 4.72522 15.967 4.72522H18.417C22.1737 4.72522 23.3753 5.92689 23.3753 9.68355V14.5835C23.3753 18.3402 22.1737 19.5418 18.417 19.5418ZM10.2503 3.2085C7.46199 3.2085 7.04199 3.6285 7.04199 6.41683V14.5835C7.04199 17.3718 7.46199 17.7918 10.2503 17.7918H18.417C21.2053 17.7918 21.6253 17.3718 21.6253 14.5835V9.68355C21.6253 6.89522 21.2053 6.47522 18.417 6.47522H15.967C14.812 6.47522 14.392 6.04344 13.972 5.48344L12.7353 3.83854C12.327 3.29021 12.2686 3.2085 11.4753 3.2085H10.2503Z" fill="#CA6FE5"/>
</svg>
