<svg width="27" height="28" viewBox="0 0 27 28" fill="none" xmlns="http://www.w3.org/2000/svg">
<path id="Union" fill-rule="evenodd" clip-rule="evenodd" d="M15.2774 4.88348C15.317 4.85448 15.3558 4.82444 15.3938 4.79338L20.8621 8.04679C20.8254 8.22428 20.8061 8.40813 20.8061 8.59649C20.8061 9.8334 21.6373 10.8762 22.7716 11.1967V17.2233L15.2774 4.88348ZM16.3853 2.70175C16.3853 3.00971 16.3337 3.30563 16.2388 3.58137L21.546 6.73892C22.0384 6.21903 22.7353 5.89473 23.5079 5.89473C25 5.89473 26.2096 7.10435 26.2096 8.59649C26.2096 9.83296 25.379 10.8754 24.2453 11.1964V17.2949C25.379 17.6158 26.2096 18.6583 26.2096 19.8948C26.2096 21.3869 25 22.5965 23.5079 22.5965C22.7963 22.5965 22.149 22.3215 21.6664 21.8718L16.361 24.9349C16.377 25.0538 16.3853 25.1751 16.3853 25.2983C16.3853 26.7905 15.1756 28.0001 13.6835 28.0001C12.1914 28.0001 10.9817 26.7905 10.9817 25.2983C10.9817 25.2679 10.9823 25.2376 10.9832 25.2074L5.27322 21.8102C4.78469 22.2962 4.11131 22.5965 3.36777 22.5965C1.87563 22.5965 0.666016 21.3869 0.666016 19.8948C0.666016 18.6579 1.49722 17.6151 2.63153 17.2946V11.1967C1.49722 10.8762 0.666016 9.8334 0.666016 8.59649C0.666016 7.10435 1.87563 5.89473 3.36777 5.89473C4.02865 5.89473 4.63412 6.13202 5.1036 6.52605L11.013 3.11424C10.9924 2.97975 10.9817 2.842 10.9817 2.70175C10.9817 1.20962 12.1914 0 13.6835 0C15.1756 0 16.3853 1.20962 16.3853 2.70175ZM15.7659 23.5768L20.8671 20.6317H6.17458L11.4536 23.7725C11.9404 23.0624 12.7576 22.5966 13.6835 22.5966C14.5215 22.5966 15.2703 22.9781 15.7659 23.5768ZM6.06952 8.59649C6.06952 8.30025 6.02185 8.01515 5.93375 7.74843L11.4304 4.57493L4.10522 17.2625V11.1964C5.23891 10.8754 6.06952 9.83296 6.06952 8.59649ZM5.3482 18.057C5.63474 18.3656 5.85001 18.7414 5.96784 19.158H20.9078C21.0278 18.7336 21.2489 18.3517 21.5434 18.0399L13.8654 5.39748C13.8053 5.40148 13.7446 5.40351 13.6835 5.40351C13.3552 5.40351 13.0405 5.34494 12.7494 5.23769L5.3482 18.057Z" fill="#FFB492"/>
</svg>
