<svg xmlns="http://www.w3.org/2000/svg" width="28" height="28" viewBox="0 0 28 28" fill="none">
<path d="M19.5297 22.8552H8.48141C7.55974 22.8552 6.89473 22.8202 6.32306 22.7385C2.27473 22.2952 1.46973 19.8685 1.46973 15.8435V8.47017C1.46973 4.44517 2.26307 2.01847 6.3464 1.57513C6.9064 1.49347 7.5714 1.4585 8.48141 1.4585H19.5297C20.4397 1.4585 21.1047 1.49347 21.6881 1.57513C25.7481 2.01847 26.5414 4.44517 26.5414 8.47017V15.8435C26.5414 19.8685 25.7481 22.2952 21.6647 22.7385C21.1164 22.8202 20.4514 22.8552 19.5297 22.8552ZM8.46973 3.2085C7.64139 3.2085 7.04639 3.24353 6.55639 3.31353C4.03639 3.59353 3.20807 4.37519 3.20807 8.48185V15.8552C3.20807 19.9502 4.03641 20.7435 6.53307 21.0118C7.04641 21.0818 7.64141 21.1168 8.48141 21.1168H19.5297C20.3697 21.1168 20.9531 21.0818 21.4431 21.0118C23.9631 20.7318 24.7914 19.9502 24.7914 15.8435V8.47017C24.7914 4.37517 23.9631 3.58186 21.4664 3.31353C20.9414 3.24353 20.3581 3.2085 19.5181 3.2085H8.46973Z" fill="#FFC6D9"/>
<path d="M20.1371 10.5818H15.8438C15.3654 10.5818 14.9688 10.1851 14.9688 9.70679C14.9688 9.22845 15.3654 8.83179 15.8438 8.83179H20.1371C20.6154 8.83179 21.0121 9.22845 21.0121 9.70679C21.0121 10.1851 20.6271 10.5818 20.1371 10.5818Z" fill="#FFC6D9"/>
<path d="M11.6667 10.8734C11.025 10.8734 10.5 10.3484 10.5 9.70671C10.5 9.06504 11.0133 8.54004 11.6667 8.54004C12.3083 8.54004 12.8333 9.06504 12.8333 9.70671C12.8333 10.3484 12.32 10.8734 11.6667 10.8734Z" fill="#FFC6D9"/>
<path d="M7.99186 10.8734C7.3502 10.8734 6.8252 10.3484 6.8252 9.70671C6.8252 9.06504 7.33853 8.54004 7.99186 8.54004H8.00352C8.64519 8.54004 9.17019 9.06504 9.17019 9.70671C9.17019 10.3484 8.63353 10.8734 7.99186 10.8734Z" fill="#FFC6D9"/>
<path d="M20.1366 17.3367H7.87494C7.39661 17.3367 6.98828 16.94 6.98828 16.4617C6.98828 15.9833 7.37327 15.5867 7.8516 15.5867H20.1366C20.6149 15.5867 21.0116 15.9833 21.0116 16.4617C21.0116 16.94 20.6266 17.3367 20.1366 17.3367Z" fill="#FFC6D9"/>
<path d="M19.8337 26.5415H8.16699C7.68866 26.5415 7.29199 26.1448 7.29199 25.6665C7.29199 25.1882 7.68866 24.7915 8.16699 24.7915H19.8337C20.312 24.7915 20.7087 25.1882 20.7087 25.6665C20.7087 26.1448 20.312 26.5415 19.8337 26.5415Z" fill="#FFC6D9"/>
</svg>
