<svg width="164" height="163" viewBox="0 0 164 163" fill="none" xmlns="http://www.w3.org/2000/svg">
<rect x="0.363281" width="163" height="163" rx="32.6" fill="#FA467B"/>
<path fill-rule="evenodd" clip-rule="evenodd" d="M98.8086 135.294C98.8409 135.293 98.8732 135.292 98.9015 135.291C101.857 135.101 104.332 132.981 104.971 130.095C106.06 125.188 107.302 119.635 108.625 113.749C109.046 113.596 109.465 113.43 109.883 113.253C121.852 116.618 133.272 112.922 138.532 110.556C138.796 110.47 139.047 110.354 139.282 110.209C139.298 110.198 139.314 110.189 139.328 110.179C141.253 108.943 142.144 105.74 141.338 102.364C140.518 98.925 138.205 96.4379 135.886 96.2839C135.551 96.2614 135.216 96.2874 134.885 96.3658C134.577 96.4394 134.284 96.5569 134.01 96.712C133.992 96.7227 133.974 96.7315 133.959 96.7421C131.224 98.3176 128.325 98.687 125.462 98.3039C126.218 98.0751 126.969 97.804 127.716 97.4968C128.227 97.2888 128.527 96.7571 128.441 96.2128C128.353 95.6685 127.903 95.2564 127.352 95.2174C123.038 94.9362 118.786 93.7722 114.669 90.6543C114.594 90.5984 114.519 90.5425 114.444 90.4846C114.29 90.3648 114.125 90.2616 113.952 90.1789C118.321 70.8525 121.478 57.0405 123.962 46.1689C124.969 41.7564 122.3 37.337 117.923 36.1715L74.9116 24.7127C72.8678 24.1672 70.6964 24.4098 68.8244 25.3932L23.5249 49.1613C19.8801 51.0741 18.1555 55.3363 19.4434 59.2392L27.2632 82.922C23.955 86.4447 22.7068 91.5362 24.1787 96.289L28.5961 110.537C29.4897 113.42 31.8728 115.597 34.8277 116.23C35.9792 116.478 37.148 116.475 38.2661 116.243L38.8649 118.062C38.9123 118.199 39.1138 122.089 39.1138 122.089L39.1131 140.723C39.1142 144.326 44.149 147.251 50.3515 147.252C56.554 147.254 61.5884 144.328 61.5873 140.725L61.5373 135.867L61.5138 135.719L61.4201 126.686C61.4077 125.543 61.2137 124.413 60.8435 123.333L58.0227 115.122L57.9996 114.987L60.8657 123.332C61.2379 124.412 61.432 125.544 61.4444 126.685L61.5373 135.867C63.5664 136.965 66.5687 137.62 69.5415 137.621L69.5414 149.693C69.5426 153.296 74.5773 156.222 80.7798 156.222C86.9802 156.222 92.0166 153.297 92.0156 149.696L91.8558 134.105C91.8965 134.113 91.9353 134.122 91.9761 134.131L92.0635 142.649C93.707 143.197 95.6111 143.511 97.6396 143.511C103.842 143.511 108.876 140.586 108.877 136.983L108.774 113.737C108.764 113.742 108.754 113.744 108.744 113.748C107.421 119.634 106.179 125.188 105.092 130.094C104.451 132.981 101.979 135.101 99.0208 135.291C98.9602 135.295 98.8895 135.295 98.8086 135.294Z" fill="#FF85D0"/>
<g clip-path="url(#clip0_4204_11010)">
<path d="M37.999 59.0368C37.999 59.0368 57.9674 63.4187 67.5646 65.5237C70.8126 66.2348 74.2097 65.7686 77.1428 64.2075C86.141 59.4158 105.364 49.1826 105.364 49.1826" stroke="black" stroke-width="1.26112" stroke-miterlimit="1.5" stroke-linecap="round" stroke-linejoin="round"/>
</g>
<path d="M108.665 113.733C107.34 119.623 106.097 125.181 105.007 130.089C104.367 132.978 101.894 135.095 98.9375 135.287C97.9804 135.348 95.1234 134.774 87.6161 133.224M69.5738 129.493C66.84 128.902 64.1488 128.317 61.6211 127.766M27.2992 82.9235C24.8331 75.4548 20.9929 63.8248 19.4791 59.2423C18.1904 55.3389 19.9174 51.0758 23.5609 49.1642C35.3656 42.9707 60.3513 29.8597 68.8631 25.3932C70.7346 24.4114 72.907 24.1702 74.9515 24.7143C83.2713 26.9287 105.886 32.9542 117.963 36.1693C122.343 37.3356 125.011 41.7547 124.004 46.1668C121.403 57.539 118.069 72.1309 113.376 92.8856M58.0345 114.986C58.0345 114.986 59.9297 120.503 60.901 123.33C61.2705 124.409 61.4671 125.542 61.4766 126.683C61.5192 130.771 61.6211 140.721 61.6211 140.721C61.6211 144.324 56.587 147.251 50.3826 147.251C44.1806 147.251 39.1465 144.324 39.1465 140.721V122.088C39.1465 122.088 38.9451 118.199 38.8977 118.06C37.9549 115.202 39.0707 118.585 38.2984 116.243" stroke="black" stroke-width="1.26112" stroke-miterlimit="1.5" stroke-linecap="round" stroke-linejoin="round"/>
<path d="M77.4209 82.9287L86.9684 107.67" stroke="black" stroke-width="1.26112" stroke-miterlimit="1.5" stroke-linecap="round" stroke-linejoin="round"/>
<path d="M91.886 134.112L92.0509 149.702C92.0518 153.306 87.0186 156.23 80.816 156.228C74.6161 156.226 69.5798 153.299 69.5789 149.695L69.5721 129.495" stroke="black" stroke-width="1.26112" stroke-miterlimit="1.5" stroke-linejoin="round"/>
<path d="M108.688 113.729L108.797 136.977C108.797 140.58 103.764 143.504 97.5613 143.503C95.5343 143.501 93.6316 143.187 91.9865 142.64" stroke="black" stroke-width="1.26112" stroke-miterlimit="1.5" stroke-linejoin="round"/>
<path d="M69.2614 137.62C66.1988 137.618 63.4176 136.903 61.3902 135.744" stroke="black" stroke-width="1.26112" stroke-miterlimit="1.5" stroke-linejoin="round"/>
<path fill-rule="evenodd" clip-rule="evenodd" d="M113.953 90.5684L113.041 92.7402L117.715 95.6524L123.022 97.8099L125.644 98.3376L127.137 97.5497L128.312 96.7477L128.167 95.7517L127.762 95.3401L126.265 95.1366C126.265 95.1366 122.602 94.7415 120.705 93.9206C118.807 93.0997 113.953 90.5684 113.953 90.5684Z" fill="white"/>
<path d="M98.7042 86.8879C100.962 85.2604 103.169 84.4913 105.67 86.5881C107.461 88.003 122.261 103.512 133.999 96.7416C134.017 96.7314 134.035 96.7212 134.052 96.7111C134.747 96.3057 135.371 96.1831 135.927 96.2822M139.367 110.178C139.352 110.19 139.336 110.199 139.321 110.207C139.087 110.319 138.837 110.435 138.571 110.555C133.308 112.923 121.887 116.621 109.918 113.26" stroke="black" stroke-width="1.26112" stroke-miterlimit="1.5" stroke-linejoin="round"/>
<path fill-rule="evenodd" clip-rule="evenodd" d="M93.7806 107.127C94.9061 106.079 96.6016 105.93 97.8914 106.767C101.927 109.359 105.952 110.262 109.975 110.34C110.625 110.355 111.177 110.818 111.307 111.454C111.435 112.092 111.106 112.732 110.511 112.997C106.069 115.025 101.346 115.625 96.3267 114.722C92.4858 114.031 91.5056 109.284 93.7806 107.127Z" fill="white" stroke="black" stroke-width="1.26112" stroke-miterlimit="1.5" stroke-linejoin="round"/>
<path d="M113.953 90.1748C114.138 90.2599 114.317 90.367 114.482 90.4959C114.557 90.553 114.63 90.6101 114.705 90.6672C118.824 93.7836 123.077 94.9475 127.391 95.2268C127.94 95.2678 128.391 95.6792 128.477 96.2234C128.563 96.7677 128.264 97.3007 127.753 97.5074C126.939 97.843 126.12 98.134 125.294 98.3763" stroke="black" stroke-width="1.26112" stroke-miterlimit="1.5" stroke-linejoin="round"/>
<path d="M97.1249 106.376C94.9919 105.374 93.7943 104.228 92.3082 102.932" stroke="black" stroke-width="1.26112" stroke-miterlimit="1.5" stroke-linejoin="round"/>
<path d="M96.0768 114.657C93.744 114.305 91.2433 113.329 89.4481 112.51" stroke="black" stroke-width="1.26112" stroke-miterlimit="1.5" stroke-linejoin="round"/>
<path d="M114.794 94.0306C111.939 93.6514 109.848 95.73 109.805 98.4112" stroke="black" stroke-width="1.26112" stroke-miterlimit="1.5" stroke-linejoin="round"/>
<path d="M138.33 110.646C140.953 110.022 142.317 106.324 141.377 102.387C140.436 98.4491 137.547 95.7629 134.924 96.3868C132.301 97.0108 130.937 100.709 131.878 104.646C132.818 108.584 135.707 111.27 138.33 110.646Z" stroke="black" stroke-width="1.26112" stroke-miterlimit="1.5" stroke-linejoin="round"/>
<path d="M49.8714 67.0151C49.8714 67.0151 37.9576 75.2231 29.5014 81.0476C24.5887 84.4351 22.4461 90.6141 24.2094 96.3101C25.5469 100.623 27.1533 105.806 28.6271 110.559C29.52 113.442 31.9035 115.618 34.8568 116.253C37.8119 116.885 40.879 115.875 42.8778 113.613C47.5252 108.35 52.068 103.208 52.068 103.208" stroke="black" stroke-width="1.26112" stroke-miterlimit="1.5" stroke-linejoin="round"/>
<path fill-rule="evenodd" clip-rule="evenodd" d="M88.3408 39.8128C88.3408 34.1782 80.8812 29.6025 71.7037 29.6025C62.5261 29.6025 55.0805 34.1782 55.0805 39.8128V44.2658C55.0805 49.9003 62.5261 54.4761 71.7037 54.4761C80.8812 54.4761 88.3408 49.9003 88.3408 44.2658V39.8128Z" fill="#E9FC87" stroke="#242728" stroke-width="1.26112" stroke-miterlimit="1.5" stroke-linejoin="round"/>
<path fill-rule="evenodd" clip-rule="evenodd" d="M88.3398 30.0432C88.3398 24.4087 80.8802 19.833 71.7027 19.833C62.5251 19.833 55.0795 24.4087 55.0795 30.0432V34.4962C55.0795 40.1308 62.5251 44.7065 71.7027 44.7065C80.8802 44.7065 88.3398 40.1308 88.3398 34.4962V30.0432Z" fill="#E9FC87" stroke="#242728" stroke-width="1.26112" stroke-miterlimit="1.5" stroke-linejoin="round"/>
<path fill-rule="evenodd" clip-rule="evenodd" d="M88.3398 16.552C88.3398 10.9175 80.8802 6.3418 71.7027 6.3418C62.5251 6.3418 55.0795 10.9175 55.0795 16.552V25.3095C55.0795 30.9441 62.5251 35.5198 71.7027 35.5198C80.8802 35.5198 88.3398 30.9441 88.3398 25.3095V16.552Z" fill="#E9FC87" stroke="#242728" stroke-width="1.26112" stroke-miterlimit="1.5" stroke-linejoin="round"/>
<path fill-rule="evenodd" clip-rule="evenodd" d="M56.3823 20.4893C58.9165 24.1545 64.8156 26.7265 71.7023 26.7265C78.2454 26.7265 83.9008 24.4064 86.6211 21.0338" fill="#E9FC87"/>
<path d="M56.3823 20.4893C58.9165 24.1545 64.8156 26.7265 71.7023 26.7265C78.2454 26.7265 83.9008 24.4064 86.6211 21.0338" stroke="#242728" stroke-width="1.26112" stroke-miterlimit="1.5" stroke-linejoin="round"/>
<defs>
<clipPath id="clip0_4204_11010">
<rect width="68.4159" height="18.6015" fill="white" transform="matrix(-1 0 0 1 106.309 48.2598)"/>
</clipPath>
</defs>
</svg>
