<svg xmlns="http://www.w3.org/2000/svg" width="29" height="28" viewBox="0 0 29 28" fill="none">
<path d="M17.7047 21.2566H7.44973C6.84307 21.2566 6.27138 21.1983 5.75805 21.0816C5.48972 21.0466 5.16307 20.9533 4.82473 20.8249C3.27307 20.2416 1.44141 18.8066 1.44141 15.2366V9.22826C1.44141 5.41326 3.63473 3.21997 7.44973 3.21997H17.7047C20.9247 3.21997 23.0014 4.75994 23.5614 7.55994C23.6664 8.07327 23.7131 8.62159 23.7131 9.22826V15.2366C23.7131 19.075 21.5314 21.2566 17.7047 21.2566ZM7.46137 4.99333C4.59137 4.99333 3.20305 6.38162 3.20305 9.25162V15.26C3.20305 17.3483 3.93806 18.6317 5.44306 19.2033C5.6764 19.285 5.89807 19.3433 6.10807 19.3783C6.55141 19.4716 6.98304 19.5183 7.46137 19.5183H17.7164C20.5864 19.5183 21.9747 18.13 21.9747 15.26V9.25162C21.9747 8.76162 21.9397 8.32995 21.8581 7.93328C21.4614 5.94994 20.1081 4.99333 17.7164 4.99333H7.46137Z" fill="#89CBA6"/>
<path d="M21.205 24.7567H10.9499C9.95828 24.7567 9.0716 24.6167 8.31327 24.3251C6.59827 23.6834 5.47825 22.3301 5.09325 20.3934C5.03492 20.1017 5.12828 19.7984 5.33828 19.6001C5.54828 19.3901 5.85162 19.3084 6.14328 19.3784C6.52828 19.4601 6.95994 19.5067 7.44994 19.5067H17.705C20.575 19.5067 21.9633 18.1184 21.9633 15.2484V9.24006C21.9633 8.75006 21.9283 8.31839 21.8466 7.92172C21.7883 7.63006 21.8816 7.3384 22.08 7.1284C22.29 6.9184 22.5816 6.82505 22.8733 6.89505C25.6733 7.46672 27.2133 9.5434 27.2133 12.7401V18.7484C27.2133 22.5751 25.0316 24.7567 21.205 24.7567ZM7.23995 21.2567C7.61329 21.9334 8.17328 22.4118 8.94328 22.6918C9.50328 22.9018 10.1799 23.0067 10.9616 23.0067H21.2166C24.0866 23.0067 25.4749 21.6184 25.4749 18.7484V12.7401C25.4749 10.8967 24.9033 9.67174 23.7249 9.03007C23.7249 9.10007 23.7249 9.17006 23.7249 9.24006V15.2484C23.7249 19.0634 21.5316 21.2567 17.7166 21.2567H7.46159C7.37992 21.2567 7.30995 21.2567 7.23995 21.2567Z" fill="#89CBA6"/>
<path d="M12.5829 16.205C10.4013 16.205 8.62793 14.4316 8.62793 12.2499C8.62793 10.0683 10.4013 8.29492 12.5829 8.29492C14.7646 8.29492 16.538 10.0683 16.538 12.2499C16.538 14.4316 14.7646 16.205 12.5829 16.205ZM12.5829 10.0449C11.3696 10.0449 10.3779 11.0366 10.3779 12.2499C10.3779 13.4633 11.3696 14.455 12.5829 14.455C13.7963 14.455 14.788 13.4633 14.788 12.2499C14.788 11.0366 13.7963 10.0449 12.5829 10.0449Z" fill="#89CBA6"/>
<path d="M5.91016 15.6917C5.43182 15.6917 5.03516 15.295 5.03516 14.8167V9.68335C5.03516 9.20502 5.43182 8.80835 5.91016 8.80835C6.38849 8.80835 6.78516 9.20502 6.78516 9.68335V14.8167C6.78516 15.295 6.40016 15.6917 5.91016 15.6917Z" fill="#89CBA6"/>
<path d="M19.2441 15.6917C18.7658 15.6917 18.3691 15.295 18.3691 14.8167V9.68335C18.3691 9.20502 18.7658 8.80835 19.2441 8.80835C19.7225 8.80835 20.1191 9.20502 20.1191 9.68335V14.8167C20.1191 15.295 19.7341 15.6917 19.2441 15.6917Z" fill="#89CBA6"/>
</svg>
