<svg width="29" height="28" viewBox="0 0 29 28" fill="none" xmlns="http://www.w3.org/2000/svg">
<g id="vuesax/outline/moneys">
<g id="moneys">
<path id="Vector" d="M17.7057 21.2566H7.45071C6.84404 21.2566 6.27236 21.1983 5.75903 21.0816C5.49069 21.0466 5.16404 20.9533 4.82571 20.8249C3.27404 20.2416 1.44238 18.8066 1.44238 15.2366V9.22826C1.44238 5.41326 3.63571 3.21997 7.45071 3.21997H17.7057C20.9257 3.21997 23.0024 4.75994 23.5624 7.55994C23.6674 8.07327 23.714 8.62159 23.714 9.22826V15.2366C23.714 19.075 21.5324 21.2566 17.7057 21.2566ZM7.46235 4.99333C4.59235 4.99333 3.20403 6.38162 3.20403 9.25162V15.26C3.20403 17.3483 3.93904 18.6317 5.44404 19.2033C5.67737 19.285 5.89905 19.3433 6.10905 19.3783C6.55238 19.4716 6.98402 19.5183 7.46235 19.5183H17.7174C20.5874 19.5183 21.9757 18.13 21.9757 15.26V9.25162C21.9757 8.76162 21.9407 8.32995 21.859 7.93328C21.4624 5.94994 20.109 4.99333 17.7174 4.99333H7.46235Z" fill="#F2F2F2"/>
<path id="Vector_2" d="M21.205 24.7567H10.9499C9.95828 24.7567 9.0716 24.6167 8.31327 24.3251C6.59827 23.6834 5.47825 22.3301 5.09325 20.3934C5.03492 20.1017 5.12828 19.7984 5.33828 19.6001C5.54828 19.3901 5.85162 19.3084 6.14328 19.3784C6.52828 19.4601 6.95994 19.5067 7.44994 19.5067H17.705C20.575 19.5067 21.9633 18.1184 21.9633 15.2484V9.24006C21.9633 8.75006 21.9283 8.31839 21.8466 7.92172C21.7883 7.63006 21.8816 7.3384 22.08 7.1284C22.29 6.9184 22.5816 6.82505 22.8733 6.89505C25.6733 7.46672 27.2133 9.5434 27.2133 12.7401V18.7484C27.2133 22.5751 25.0316 24.7567 21.205 24.7567ZM7.23995 21.2567C7.61329 21.9334 8.17328 22.4118 8.94328 22.6918C9.50328 22.9018 10.1799 23.0067 10.9616 23.0067H21.2166C24.0866 23.0067 25.4749 21.6184 25.4749 18.7484V12.7401C25.4749 10.8967 24.9033 9.67174 23.7249 9.03007C23.7249 9.10007 23.7249 9.17006 23.7249 9.24006V15.2484C23.7249 19.0634 21.5316 21.2567 17.7166 21.2567H7.46159C7.37992 21.2567 7.30995 21.2567 7.23995 21.2567Z" fill="#F2F2F2"/>
<path id="Vector_3" d="M12.5834 16.205C10.4018 16.205 8.62842 14.4316 8.62842 12.2499C8.62842 10.0683 10.4018 8.29492 12.5834 8.29492C14.7651 8.29492 16.5385 10.0683 16.5385 12.2499C16.5385 14.4316 14.7651 16.205 12.5834 16.205ZM12.5834 10.0449C11.3701 10.0449 10.3784 11.0366 10.3784 12.2499C10.3784 13.4633 11.3701 14.455 12.5834 14.455C13.7968 14.455 14.7885 13.4633 14.7885 12.2499C14.7885 11.0366 13.7968 10.0449 12.5834 10.0449Z" fill="#F2F2F2"/>
<path id="Vector_4" d="M5.91016 15.6917C5.43182 15.6917 5.03516 15.295 5.03516 14.8167V9.68335C5.03516 9.20502 5.43182 8.80835 5.91016 8.80835C6.38849 8.80835 6.78516 9.20502 6.78516 9.68335V14.8167C6.78516 15.295 6.40016 15.6917 5.91016 15.6917Z" fill="#F2F2F2"/>
<path id="Vector_5" d="M19.2451 15.6917C18.7668 15.6917 18.3701 15.295 18.3701 14.8167V9.68335C18.3701 9.20502 18.7668 8.80835 19.2451 8.80835C19.7235 8.80835 20.1201 9.20502 20.1201 9.68335V14.8167C20.1201 15.295 19.7351 15.6917 19.2451 15.6917Z" fill="#F2F2F2"/>
</g>
</g>
</svg>
