<svg xmlns="http://www.w3.org/2000/svg" width="28" height="28" viewBox="0 0 28 28" fill="none">
<path d="M17.3727 21.2566H7.1177C6.51103 21.2566 5.93935 21.1983 5.42602 21.0816C5.15769 21.0466 4.83103 20.9533 4.4927 20.8249C2.94103 20.2416 1.10938 18.8066 1.10938 15.2366V9.22826C1.10938 5.41326 3.3027 3.21997 7.1177 3.21997H17.3727C20.5927 3.21997 22.6694 4.75994 23.2294 7.55994C23.3344 8.07327 23.381 8.62159 23.381 9.22826V15.2366C23.381 19.075 21.1994 21.2566 17.3727 21.2566ZM7.12934 4.99333C4.25934 4.99333 2.87102 6.38162 2.87102 9.25162V15.26C2.87102 17.3483 3.60603 18.6317 5.11103 19.2033C5.34437 19.285 5.56604 19.3433 5.77604 19.3783C6.21938 19.4716 6.65101 19.5183 7.12934 19.5183H17.3844C20.2544 19.5183 21.6427 18.13 21.6427 15.26V9.25162C21.6427 8.76162 21.6077 8.32995 21.526 7.93328C21.1294 5.94994 19.776 4.99333 17.3844 4.99333H7.12934Z" fill="#A2FFB8"/>
<path d="M20.871 24.7567H10.616C9.62429 24.7567 8.73761 24.6167 7.97928 24.3251C6.26428 23.6834 5.14427 22.3301 4.75927 20.3934C4.70094 20.1017 4.7943 19.7984 5.0043 19.6001C5.2143 19.3901 5.51763 19.3084 5.8093 19.3784C6.1943 19.4601 6.62596 19.5067 7.11596 19.5067H17.371C20.241 19.5067 21.6293 18.1184 21.6293 15.2484V9.24006C21.6293 8.75006 21.5943 8.31839 21.5126 7.92172C21.4543 7.63006 21.5476 7.3384 21.746 7.1284C21.956 6.9184 22.2476 6.82505 22.5393 6.89505C25.3393 7.46672 26.8793 9.5434 26.8793 12.7401V18.7484C26.8793 22.5751 24.6976 24.7567 20.871 24.7567ZM6.90597 21.2567C7.2793 21.9334 7.83929 22.4118 8.60929 22.6918C9.16929 22.9018 9.84593 23.0067 10.6276 23.0067H20.8826C23.7526 23.0067 25.1409 21.6184 25.1409 18.7484V12.7401C25.1409 10.8967 24.5693 9.67174 23.3909 9.03007C23.3909 9.10007 23.3909 9.17006 23.3909 9.24006V15.2484C23.3909 19.0634 21.1976 21.2567 17.3826 21.2567H7.1276C7.04593 21.2567 6.97597 21.2567 6.90597 21.2567Z" fill="#A2FFB8"/>
<path d="M12.2499 16.205C10.0683 16.205 8.29492 14.4316 8.29492 12.2499C8.29492 10.0683 10.0683 8.29492 12.2499 8.29492C14.4316 8.29492 16.205 10.0683 16.205 12.2499C16.205 14.4316 14.4316 16.205 12.2499 16.205ZM12.2499 10.0449C11.0366 10.0449 10.0449 11.0366 10.0449 12.2499C10.0449 13.4633 11.0366 14.455 12.2499 14.455C13.4633 14.455 14.455 13.4633 14.455 12.2499C14.455 11.0366 13.4633 10.0449 12.2499 10.0449Z" fill="#A2FFB8"/>
<path d="M5.57617 15.6917C5.09784 15.6917 4.70117 15.295 4.70117 14.8167V9.68335C4.70117 9.20502 5.09784 8.80835 5.57617 8.80835C6.05451 8.80835 6.45117 9.20502 6.45117 9.68335V14.8167C6.45117 15.295 6.06617 15.6917 5.57617 15.6917Z" fill="#A2FFB8"/>
<path d="M18.9121 15.6917C18.4338 15.6917 18.0371 15.295 18.0371 14.8167V9.68335C18.0371 9.20502 18.4338 8.80835 18.9121 8.80835C19.3904 8.80835 19.7871 9.20502 19.7871 9.68335V14.8167C19.7871 15.295 19.4021 15.6917 18.9121 15.6917Z" fill="#A2FFB8"/>
</svg>
