<svg width="40" height="40" viewBox="0 0 40 40" fill="none" xmlns="http://www.w3.org/2000/svg">
<path d="M29.2666 29.9497H10.7333C4.09992 29.9497 2.08325 27.933 2.08325 21.2997V10.733C2.08325 4.09967 4.09992 2.08301 10.7333 2.08301H29.2499C35.8833 2.08301 37.8999 4.09967 37.8999 10.733V21.283C37.9166 27.933 35.8999 29.9497 29.2666 29.9497ZM10.7333 4.58301C5.49992 4.58301 4.58325 5.49967 4.58325 10.733V21.283C4.58325 26.5163 5.49992 27.433 10.7333 27.433H29.2499C34.4833 27.433 35.3999 26.5163 35.3999 21.283V10.733C35.3999 5.49967 34.4833 4.58301 29.2499 4.58301H10.7333Z" fill="white"/>
<path d="M20 37.9169C19.3167 37.9169 18.75 37.3502 18.75 36.6669V28.7002C18.75 28.0169 19.3167 27.4502 20 27.4502C20.6833 27.4502 21.25 28.0169 21.25 28.7002V36.6669C21.25 37.3502 20.6833 37.9169 20 37.9169Z" fill="white"/>
<path d="M36.6666 22.917H3.33325C2.64992 22.917 2.08325 22.3503 2.08325 21.667C2.08325 20.9837 2.64992 20.417 3.33325 20.417H36.6666C37.3499 20.417 37.9166 20.9837 37.9166 21.667C37.9166 22.3503 37.3499 22.917 36.6666 22.917Z" fill="white"/>
<path d="M27.5 37.917H12.5C11.8167 37.917 11.25 37.3503 11.25 36.667C11.25 35.9837 11.8167 35.417 12.5 35.417H27.5C28.1833 35.417 28.75 35.9837 28.75 36.667C28.75 37.3503 28.1833 37.917 27.5 37.917Z" fill="white"/>
</svg>
