<svg width="164" height="163" viewBox="0 0 164 163" fill="none" xmlns="http://www.w3.org/2000/svg">
<rect x="0.181641" width="163" height="163" rx="32.6" fill="#5D5FEF"/>
<path fill-rule="evenodd" clip-rule="evenodd" d="M121.772 82.0049C126.496 82.3609 131.037 81.3344 134.872 78.0708C135.064 77.9052 135.797 74.9644 135.985 74.7927C136.008 74.7761 136.031 74.7595 136.051 74.7429L140.207 60.1114C140.524 59 140.236 57.8018 139.45 56.9553L127.105 43.6544C126.699 43.2177 126.087 43.0315 125.505 43.1722C124.924 43.3109 124.462 43.7537 124.299 44.329L115.985 73.6027C115.669 74.7161 115.958 75.9164 116.747 76.7649L121.619 81.9926C121.67 81.9967 121.72 82.0008 121.772 82.0049Z" fill="#E9FC87"/>
<path fill-rule="evenodd" clip-rule="evenodd" d="M85.7885 124.613C84.6523 125.373 83.3609 126.252 82.6469 126.71C79.7226 128.583 76.1816 129.232 72.7835 128.521C71.7363 128.301 70.0372 128.057 68.6071 127.796C69.1225 129.22 69.3956 130.725 69.4122 132.248L69.4184 132.953C70.0062 135.706 73.6361 138.016 77.918 138.239C82.5124 138.479 86.1299 136.228 85.9892 133.214L85.7885 124.613Z" fill="#FF85D0"/>
<path fill-rule="evenodd" clip-rule="evenodd" d="M110.365 126.334C111.731 122.539 111.627 118.197 108.775 116.802L108.469 116.636C105.652 115.715 102.167 118.491 100.671 122.862C99.1748 127.232 100.23 131.562 103.022 132.559C103.037 132.563 103.051 132.57 103.066 132.574C106.122 133.422 108.989 130.155 110.365 126.334Z" fill="#FF85D0"/>
<path fill-rule="evenodd" clip-rule="evenodd" d="M111.259 108.317C111.062 108.479 110.853 108.632 110.634 108.771L103.009 113.657L108.775 116.802C111.627 118.197 111.73 122.539 110.365 126.335C114.311 124.959 116.743 121.914 115.799 119.52L111.259 108.317Z" fill="#FF85D0"/>
<path fill-rule="evenodd" clip-rule="evenodd" d="M136.051 74.7381C136.03 74.7547 136.008 74.7713 135.985 74.7878C135.796 74.9596 135.064 77.9004 134.871 78.066C131.037 81.3296 126.496 82.3561 121.771 82.0001C121.728 82.0022 121.682 82.0042 121.639 82.0084L121.618 81.9878C118.214 81.7084 114.718 80.717 111.326 79.3304L106.937 35.5266C106.651 32.6728 104.561 30.3279 101.761 29.7174L74.3353 23.7282C70.8875 22.9748 67.2824 23.6288 64.3188 25.5431L36.2331 43.6992C34.147 45.0465 32.9901 47.4492 33.2385 49.9202L33.6213 53.755L31.5063 54.0862C27.9984 54.6388 25.457 57.7265 25.5895 61.2737L26.4049 83.2915C26.5125 86.1516 28.2861 88.6827 30.9371 89.7588C33.0046 90.5949 35.3039 90.4273 37.1954 89.376C38.077 98.2315 39.1118 109.699 39.1118 109.699C39.3581 112.969 39.712 115.585 40.1652 117.648C40.5274 119.301 41.1482 120.889 42.0071 122.348C43.6027 125.061 46.8933 130.419 50.279 134.655V145.678C50.279 148.772 54.5982 151.282 59.9148 151.282C65.2315 151.282 69.5485 148.772 69.5485 145.678L69.4119 132.238C69.3954 130.715 69.1222 129.21 68.6069 127.787C70.0369 128.047 71.736 128.292 72.7832 128.511C76.1814 129.223 79.7224 128.573 82.6466 126.7C83.3606 126.243 84.652 125.363 85.7882 124.604C85.8772 124.544 85.9662 124.486 86.0531 124.428C91.3635 127.785 97.0361 130.462 103.021 132.557C100.229 131.559 99.1739 127.23 100.67 122.859C102.166 118.488 105.652 115.713 108.468 116.634L103.009 113.654L110.633 108.768C110.852 108.629 111.061 108.476 111.258 108.314C112.961 106.919 113.874 104.755 113.65 102.532C113.582 101.841 113.503 100.599 113.421 99.5643C126.912 100.845 139.88 95.6032 145.163 88.1156C145.447 87.7162 147.402 85.6798 147.572 82.8156C147.849 78.1819 144.822 74.7588 141.577 73.6868C140.59 73.3619 138.452 72.9293 136.051 74.7381Z" fill="#FF85D0"/>
<path fill-rule="evenodd" clip-rule="evenodd" d="M84.5278 25.9522L101.761 29.7167C104.561 30.3272 106.651 32.6721 106.937 35.5259L108.054 46.6766C108.526 46.4117 109.538 45.7929 110.149 45.0354C111.459 43.4088 111.726 40.6273 111.262 38.5888L109.633 31.5958L105.96 15.4866C105.376 12.9245 103.35 10.9377 100.776 10.4058C98.2012 9.87395 95.5522 10.8922 94.0001 13.0135L84.5278 25.9522Z" fill="#FF85D0"/>
<path d="M86.3226 124.721C85.0788 125.518 83.9289 126.255 82.9127 126.907C79.989 128.78 76.4469 129.431 73.0485 128.718C71.7888 128.454 70.3557 128.154 68.8123 127.831M33.9013 53.9662L33.5177 50.1319C33.2705 47.6606 34.4273 45.2581 36.5132 43.9095C43.0174 39.7046 57.2355 30.5123 64.6016 25.7506C67.5649 23.8347 71.1708 23.18 74.6171 23.9325C81.9781 25.539 95.0584 28.3943 102.041 29.9179C104.841 30.5288 106.931 32.874 107.217 35.7275L111.599 79.5314M113.623 99.7595L113.92 102.733C114.168 105.214 113.002 107.625 110.901 108.971C108.929 110.235 106.252 111.95 103.277 113.857M52.9396 137.629C48.8051 133.308 44.2501 125.911 42.2758 122.561C41.4187 121.1 40.7971 119.514 40.4334 117.86C39.9848 115.796 39.6282 113.182 39.3818 109.912C39.3818 109.912 38.3609 98.5444 37.4653 89.5919" stroke="#242728" stroke-width="1.19573" stroke-miterlimit="1.5" stroke-linejoin="round"/>
<path d="M95.709 38.0078C84.9738 44.888 84.0913 45.4525 75.9741 50.6545C72.6354 52.7933 68.5909 53.5363 64.7113 52.7241" stroke="#242728" stroke-width="1.19573" stroke-miterlimit="1.5" stroke-linejoin="round"/>
<path d="M108.071 47.0296C108.071 47.0296 109.608 46.2634 110.425 45.25C111.735 43.6221 112.001 40.8398 111.538 38.8016L109.91 31.8079C108.789 26.8856 107.444 20.9876 106.24 15.6977C105.655 13.1346 103.628 11.149 101.055 10.6163C98.4808 10.0843 95.8341 11.1034 94.2799 13.2256C90.9639 17.7563 87.3425 22.7024 84.6795 26.3403" stroke="#242728" stroke-width="1.19573" stroke-miterlimit="1.5" stroke-linejoin="round"/>
<path d="M54.9979 50.6415C54.9979 50.6415 40.3944 52.9386 31.7863 54.293C28.2783 54.8448 25.7373 57.9322 25.8683 61.4808C26.0786 67.1748 26.4016 75.8533 26.6852 83.4986C26.7901 86.3579 28.5649 88.8892 31.2176 89.9642C33.8685 91.0389 36.9048 90.4574 38.9729 88.4789C43.4599 84.1834 47.5243 80.291 47.5243 80.291" stroke="#242728" stroke-width="1.19573" stroke-miterlimit="1.5" stroke-linejoin="round"/>
<path d="M26.2953 76.5101C25.8624 76.2359 25.3938 75.9889 24.8818 75.7782C22.3994 74.7615 19.7532 75.4972 17.5516 75.3339" stroke="#242728" stroke-width="1.19573" stroke-miterlimit="1.5" stroke-linejoin="round"/>
<path fill-rule="evenodd" clip-rule="evenodd" d="M11.9741 76.1108C12.0624 76.9843 15.7035 77.3278 16.5776 77.2394C17.4517 77.151 18.0897 76.3704 18.0013 75.4968C17.9129 74.6218 17.1315 73.9847 16.2574 74.0731C15.3833 74.1615 11.8856 75.2358 11.9741 76.1108Z" fill="#FF85D0" stroke="#242728" stroke-width="1.19573" stroke-miterlimit="1.5" stroke-linejoin="round"/>
<path d="M106.355 77.1662C107.089 77.5477 108.41 78.1735 110.79 79.1947C119.177 82.7943 128.292 84.1149 135.15 78.2758C135.342 78.1121 136.076 75.1692 136.264 74.9987C138.689 73.1316 140.857 73.5691 141.855 73.8984C145.099 74.9695 148.127 78.3935 147.852 83.0288C147.681 85.8932 145.725 87.9302 145.443 88.3293C137.14 100.097 109.86 106.317 91.3922 90.3769" stroke="#242728" stroke-width="1.19573" stroke-miterlimit="1.5" stroke-linejoin="round"/>
<path d="M122.082 82.1989C119.138 82.3703 117.311 84.7251 117.788 87.4329" stroke="#242728" stroke-width="1.19573" stroke-miterlimit="1.5" stroke-linejoin="round"/>
<path fill-rule="evenodd" clip-rule="evenodd" d="M92.4233 94.6909C93.6767 94.2316 95.0819 94.5606 95.9998 95.5283C99.6482 99.3567 103.758 101.226 108.073 102.214C108.623 102.344 109.012 102.835 109.008 103.4C109.006 103.966 108.614 104.457 108.063 104.583C102.834 105.811 97.6742 105.362 92.5825 103.137C88.6863 101.433 89.108 95.9136 92.4233 94.6909Z" fill="white" stroke="#242728" stroke-width="1.19573" stroke-miterlimit="1.5" stroke-linejoin="round"/>
<path d="M95.363 95.0038C93.4768 93.4973 92.5562 92.0709 91.3841 90.4251" stroke="#242728" stroke-width="1.19573" stroke-miterlimit="1.5" stroke-linejoin="round"/>
<path d="M91.3735 102.562C89.1357 101.658 87.8461 100.554 86.2528 99.3118" stroke="#242728" stroke-width="1.19573" stroke-miterlimit="1.5" stroke-linejoin="round"/>
<path d="M64.0435 117.646C64.0435 117.646 66.735 123.323 68.3923 126.817C69.2269 128.581 69.6709 130.504 69.6899 132.455C69.7388 137.18 69.8252 145.898 69.8252 145.898C69.8244 148.991 65.5079 151.503 60.1901 151.505C54.8746 151.505 50.558 148.995 50.5588 145.901L50.5616 135.206" stroke="#242728" stroke-width="1.19573" stroke-miterlimit="1.5" stroke-linejoin="round"/>
<path d="M111.503 108.441L116.077 119.73C117.026 122.14 114.562 125.204 110.577 126.569" stroke="#242728" stroke-width="1.19573" stroke-miterlimit="1.5" stroke-linejoin="round"/>
<path d="M86.0649 124.959L86.2673 133.414C86.4062 136.428 82.7896 138.681 78.1944 138.442C73.6011 138.202 69.7576 135.561 69.6187 132.546" stroke="#242728" stroke-width="1.19573" stroke-miterlimit="1.5" stroke-linejoin="round"/>
<path d="M108.793 116.854C105.969 115.887 102.453 118.669 100.949 123.063C99.4456 127.457 100.519 131.81 103.344 132.777" stroke="#242728" stroke-width="1.19573" stroke-miterlimit="1.5" stroke-linejoin="round"/>
<path d="M96.7102 110.275L109.052 117.012C114.771 119.809 109.432 134.477 103.341 132.787C94.5307 129.709 86.3939 125.369 79.0993 119.453" stroke="#242728" stroke-width="1.19573" stroke-miterlimit="1.5" stroke-linejoin="round"/>
<path d="M135.143 78.2103C135.143 78.2103 138.734 65.998 140.234 60.8945C140.636 59.5265 140.3 58.0489 139.351 56.9872C136.644 53.9698 130.99 47.666 127.707 44.005C127.198 43.44 126.424 43.1937 125.683 43.3593C124.942 43.5269 124.351 44.0836 124.133 44.8121C122.06 51.8382 117.533 67.1776 115.841 72.9081C115.435 74.2843 115.776 75.7745 116.741 76.8382C118.504 78.7794 121.134 81.6768 121.134 81.6768" stroke="#242728" stroke-width="1.19573" stroke-miterlimit="1.5" stroke-linecap="round" stroke-linejoin="round"/>
<path d="M133.69 76.6481C133.69 76.6481 136.758 66.3909 138.258 61.2874C138.659 59.9194 138.866 59.1604 137.288 57.5828C136.411 56.6059 135.483 55.5732 135.483 55.5732" stroke="#242728" stroke-width="1.19573" stroke-miterlimit="1.5" stroke-linecap="round" stroke-linejoin="round"/>
<path d="M131.323 56.6619L135.059 60.6875" stroke="#242728" stroke-width="1.19573" stroke-miterlimit="1.5" stroke-linecap="round" stroke-linejoin="round"/>
<path d="M127.958 66.8201L131.694 70.8457" stroke="#242728" stroke-width="1.19573" stroke-miterlimit="1.5" stroke-linecap="round" stroke-linejoin="round"/>
<path d="M124.605 63.4468L126.482 65.4697" stroke="#242728" stroke-width="1.19573" stroke-miterlimit="1.5" stroke-linecap="round" stroke-linejoin="round"/>
<path d="M129.402 63.0448L133.139 67.0703" stroke="#242728" stroke-width="1.19573" stroke-miterlimit="1.5" stroke-linecap="round" stroke-linejoin="round"/>
<path d="M126.035 73.1922L129.771 77.2178" stroke="#242728" stroke-width="1.19573" stroke-miterlimit="1.5" stroke-linecap="round" stroke-linejoin="round"/>
<path d="M126.218 56.2791L129.955 60.3047" stroke="#242728" stroke-width="1.19573" stroke-miterlimit="1.5" stroke-linecap="round" stroke-linejoin="round"/>
<path d="M126.481 69.9355L128.457 72.0635" stroke="#242728" stroke-width="1.19573" stroke-miterlimit="1.5" stroke-linecap="round" stroke-linejoin="round"/>
<path d="M122.918 66.3427L124.893 68.4707" stroke="#242728" stroke-width="1.19573" stroke-miterlimit="1.5" stroke-linecap="round" stroke-linejoin="round"/>
</svg>
