<svg width="29" height="28" viewBox="0 0 29 28" fill="none" xmlns="http://www.w3.org/2000/svg">
<g id="vuesax/outline/note-2">
<g id="note-2">
<path id="Vector" d="M19.1116 23.5432C18.8083 23.5432 18.4933 23.5315 18.1549 23.4965C17.5483 23.4499 16.8599 23.3332 16.1483 23.1582L14.1883 22.6915C8.80992 21.4199 7.04825 18.5732 8.30825 13.2065L9.45159 8.31819C9.70825 7.20986 10.0116 6.31152 10.3849 5.56486C12.3916 1.42319 16.2299 1.79652 18.9599 2.43819L20.9083 2.89319C23.6383 3.53485 25.3649 4.54985 26.3333 6.10152C27.2899 7.65319 27.4416 9.64819 26.7999 12.3782L25.6566 17.2549C24.6533 21.5249 22.5649 23.5432 19.1116 23.5432ZM15.9733 3.79152C14.0249 3.79152 12.7883 4.59652 11.9599 6.32319C11.6566 6.95319 11.3883 7.73485 11.1549 8.71485L10.0116 13.6032C8.97325 18.0132 10.1749 19.9382 14.5849 20.9882L16.5449 21.4549C17.1749 21.6065 17.7699 21.6999 18.3066 21.7465C21.4799 22.0615 23.0549 20.6732 23.9416 16.8582L25.0849 11.9815C25.6099 9.72986 25.5399 8.15485 24.8399 7.02319C24.1399 5.89152 22.7633 5.12152 20.4999 4.59652L18.5516 4.14152C17.5833 3.90819 16.7199 3.79152 15.9733 3.79152Z" fill="#F2F2F2"/>
<path id="Vector_2" d="M10.3846 25.9585C7.38624 25.9585 5.4729 24.1618 4.24791 20.3701L2.75457 15.7618C1.09791 10.6285 2.57957 7.73512 7.68957 6.07845L9.5329 5.48345C10.1396 5.29679 10.5946 5.16845 11.0029 5.09845C11.3412 5.02845 11.6679 5.15679 11.8662 5.42512C12.0646 5.69345 12.0996 6.04345 11.9596 6.34679C11.6562 6.96512 11.3879 7.74679 11.1662 8.72679L10.0229 13.6151C8.98457 18.0251 10.1862 19.9501 14.5962 21.0001L16.5562 21.4668C17.1862 21.6185 17.7812 21.7118 18.3179 21.7585C18.6912 21.7935 18.9946 22.0501 19.0996 22.4118C19.1929 22.7735 19.0529 23.1468 18.7496 23.3568C17.9796 23.8818 17.0112 24.3251 15.7862 24.7218L13.9429 25.3285C12.6012 25.7485 11.4346 25.9585 10.3846 25.9585ZM9.74291 7.25679L8.2379 7.74679C4.0729 9.08845 3.08124 11.0485 4.42291 15.2251L5.91624 19.8335C7.26957 23.9985 9.22957 25.0018 13.3946 23.6601L15.2379 23.0535C15.3079 23.0301 15.3662 23.0068 15.4362 22.9835L14.1996 22.6918C8.82124 21.4201 7.05957 18.5735 8.31957 13.2068L9.4629 8.31845C9.54457 7.94512 9.63791 7.58345 9.74291 7.25679Z" fill="#F2F2F2"/>
<path id="Vector_3" d="M21.0716 12.2617C21.0016 12.2617 20.9316 12.25 20.8499 12.2383L15.1916 10.8033C14.7249 10.6867 14.4449 10.2083 14.5616 9.74165C14.6783 9.27498 15.1566 8.99498 15.6233 9.11165L21.2816 10.5467C21.7483 10.6633 22.0283 11.1417 21.9116 11.6083C21.8183 11.9933 21.4566 12.2617 21.0716 12.2617Z" fill="#F2F2F2"/>
<path id="Vector_4" d="M17.653 16.2051C17.583 16.2051 17.513 16.1935 17.4313 16.1818L14.0363 15.3185C13.5697 15.2018 13.2897 14.7235 13.4063 14.2568C13.523 13.7901 14.0013 13.5101 14.468 13.6268L17.863 14.4901C18.3297 14.6068 18.6097 15.0851 18.493 15.5518C18.3997 15.9485 18.0497 16.2051 17.653 16.2051Z" fill="#F2F2F2"/>
</g>
</g>
</svg>
