<svg xmlns="http://www.w3.org/2000/svg" width="29" height="28" viewBox="0 0 29 28" fill="none">
<path d="M19.1121 23.5432C18.8087 23.5432 18.4937 23.5315 18.1554 23.4965C17.5487 23.4499 16.8604 23.3332 16.1487 23.1582L14.1887 22.6915C8.81041 21.4199 7.04874 18.5732 8.30874 13.2065L9.45208 8.31819C9.70874 7.20986 10.0121 6.31152 10.3854 5.56486C12.3921 1.42319 16.2304 1.79652 18.9604 2.43819L20.9087 2.89319C23.6387 3.53485 25.3654 4.54985 26.3337 6.10152C27.2904 7.65319 27.4421 9.64819 26.8004 12.3782L25.6571 17.2549C24.6537 21.5249 22.5654 23.5432 19.1121 23.5432ZM15.9737 3.79152C14.0254 3.79152 12.7887 4.59652 11.9604 6.32319C11.6571 6.95319 11.3887 7.73485 11.1554 8.71485L10.0121 13.6032C8.97374 18.0132 10.1754 19.9382 14.5854 20.9882L16.5454 21.4549C17.1754 21.6065 17.7704 21.6999 18.3071 21.7465C21.4804 22.0615 23.0554 20.6732 23.9421 16.8582L25.0854 11.9815C25.6104 9.72986 25.5404 8.15485 24.8404 7.02319C24.1404 5.89152 22.7637 5.12152 20.5004 4.59652L18.5521 4.14152C17.5837 3.90819 16.7204 3.79152 15.9737 3.79152Z" fill="#F59897"/>
<path d="M10.3855 25.9585C7.38721 25.9585 5.47388 24.1618 4.24888 20.3701L2.75555 15.7618C1.09888 10.6285 2.58055 7.73512 7.69055 6.07845L9.53388 5.48345C10.1405 5.29679 10.5955 5.16845 11.0039 5.09845C11.3422 5.02845 11.6689 5.15679 11.8672 5.42512C12.0655 5.69345 12.1005 6.04345 11.9605 6.34679C11.6572 6.96512 11.3889 7.74679 11.1672 8.72679L10.0239 13.6151C8.98555 18.0251 10.1872 19.9501 14.5972 21.0001L16.5572 21.4668C17.1872 21.6185 17.7822 21.7118 18.3189 21.7585C18.6922 21.7935 18.9955 22.0501 19.1005 22.4118C19.1939 22.7735 19.0539 23.1468 18.7505 23.3568C17.9805 23.8818 17.0122 24.3251 15.7872 24.7218L13.9439 25.3285C12.6022 25.7485 11.4355 25.9585 10.3855 25.9585ZM9.74388 7.25679L8.23888 7.74679C4.07388 9.08845 3.08222 11.0485 4.42388 15.2251L5.91721 19.8335C7.27055 23.9985 9.23055 25.0018 13.3955 23.6601L15.2389 23.0535C15.3089 23.0301 15.3672 23.0068 15.4372 22.9835L14.2005 22.6918C8.82222 21.4201 7.06055 18.5735 8.32055 13.2068L9.46388 8.31845C9.54555 7.94512 9.63888 7.58345 9.74388 7.25679Z" fill="#F59897"/>
<path d="M21.0716 12.2617C21.0016 12.2617 20.9316 12.25 20.8499 12.2383L15.1916 10.8033C14.7249 10.6867 14.4449 10.2083 14.5616 9.74165C14.6783 9.27498 15.1566 8.99498 15.6233 9.11165L21.2816 10.5467C21.7483 10.6633 22.0283 11.1417 21.9116 11.6083C21.8183 11.9933 21.4566 12.2617 21.0716 12.2617Z" fill="#F59897"/>
<path d="M17.653 16.2051C17.583 16.2051 17.513 16.1935 17.4313 16.1818L14.0363 15.3185C13.5697 15.2018 13.2897 14.7235 13.4063 14.2568C13.523 13.7901 14.0013 13.5101 14.468 13.6268L17.863 14.4901C18.3297 14.6068 18.6097 15.0851 18.493 15.5518C18.3997 15.9485 18.0497 16.2051 17.653 16.2051Z" fill="#F59897"/>
</svg>
