<svg width="164" height="164" viewBox="0 0 164 164" fill="none" xmlns="http://www.w3.org/2000/svg">
<g clip-path="url(#clip0_4182_10157)">
<rect x="0.175293" width="163.61" height="163.61" rx="32.722" fill="#E9FC87"/>
<path fill-rule="evenodd" clip-rule="evenodd" d="M119.78 95.8006C123.012 99.1213 127.076 101.5 131.991 101.02C132.011 101.018 132.032 101.016 132.052 101.014C132.366 100.985 132.682 100.999 132.994 101.06C133.328 101.125 133.644 101.241 133.94 101.399C135.994 102.501 137.074 105.732 136.396 109.215C135.731 112.635 133.588 115.194 131.316 115.526C131.3 115.528 131.282 115.53 131.264 115.532C131.004 115.539 130.727 115.541 130.435 115.541C125.108 115.524 114.549 114.373 105.47 107.92C105.132 108.162 104.785 108.397 104.433 108.626L104.552 121.451C104.552 124.536 100.245 127.042 94.9405 127.042C92.3188 127.042 89.847 126.24 88.1107 125.249L88.2058 134.565C88.2058 137.651 83.9005 140.157 78.5963 140.157C73.2921 140.157 68.9846 137.651 68.9846 134.565V124.174C66.6425 124.078 63.7939 123.566 62.1406 122.774L62.1832 126.886C62.1832 129.972 57.8758 132.476 52.5716 132.476C47.2674 132.476 42.96 129.972 42.96 126.886V115.091C41.6734 110.36 40.1661 105.258 39.0294 101.058C37.9658 101.344 36.8331 101.384 35.7147 101.151C33.172 100.621 31.1177 98.7505 30.3478 96.2686L26.6887 84.4465C25.1469 79.4644 27.0939 74.0629 31.4621 71.2102L39.6535 65.8615L44.597 40.4607C47.6442 24.7992 67.6434 15.4915 89.231 19.6935C105.316 22.8238 117.774 32.5753 121.816 43.824C123.082 43.903 123.536 43.7814 124.776 43.8584C128.038 44.063 130.435 45.8237 131.272 48.2448C133.541 54.8072 123.224 66.2809 120.349 68.3839L116.767 86.7947C116.767 86.7947 117.47 87.9719 119.879 88.8938C122.29 89.8156 123.666 90.1904 123.666 90.1904L126.719 90.8286L129.167 91.09L130.208 91.1812L130.737 92.1537L130.573 93.0006L129.438 93.6914L125.698 94.8645L122.349 95.1988L119.78 95.8006Z" fill="#FF85D0"/>
<path fill-rule="evenodd" clip-rule="evenodd" d="M113.367 86.7352C113.387 86.723 113.41 86.7109 113.432 86.6988C113.724 86.5509 114.044 86.4374 114.398 86.3604C115.138 86.1963 115.914 86.3584 116.528 86.8061C116.605 86.8608 116.68 86.9156 116.757 86.9683C120.991 89.9527 125.293 90.9737 129.624 91.1074C130.175 91.1277 130.641 91.5268 130.747 92.0698C130.852 92.6128 130.57 93.1558 130.066 93.3827C126.62 94.9468 123.042 95.6661 119.328 95.5101C117.899 93.9682 116.639 92.2522 115.549 90.5381C114.727 89.2414 113.999 87.9488 113.367 86.7352Z" fill="white"/>
<path fill-rule="evenodd" clip-rule="evenodd" d="M117.692 145.871L97.4961 141.329C96.8863 141.193 96.4101 140.717 96.2724 140.107C96.1326 139.497 96.3574 138.861 96.8497 138.476L114.863 124.284C115.629 123.68 116.628 123.453 117.58 123.668L128.337 126.087L129.329 124.239C129.54 123.848 129.83 123.503 130.178 123.23L148.488 108.804C148.79 108.567 149.217 108.573 149.511 108.821C149.805 109.068 149.886 109.487 149.703 109.826L139.593 128.617L117.692 145.871Z" fill="#E9FC87"/>
<path d="M116.755 86.9829L122.808 55.8705C123.585 51.8796 123.187 47.859 121.804 44.0126C117.763 32.7647 105.303 23.0117 89.2175 19.8817C67.6302 15.6813 47.6308 24.9871 44.5832 40.6496L39.6408 66.0504M39.0597 101.364C40.2168 105.717 41.5721 110.219 42.9469 115.279M62.6403 112.155C63.4678 112.362 65.8264 113.05 69.2532 113.776M80.4811 115.111C90.1822 115.248 99.0286 112.671 105.457 108.109" stroke="#242728" stroke-width="1.05378" stroke-miterlimit="1.5" stroke-linejoin="round"/>
<path d="M87.9055 114.147C87.9055 114.147 88.0166 117.921 88.0277 118.358C88.0299 118.385 88.0297 118.412 88.0294 118.439C88.0388 119.338 88.1971 134.76 88.1971 134.76C88.1968 137.846 83.8905 140.351 78.5848 140.352C73.2814 140.351 68.9742 137.847 68.9745 134.761L68.9741 113.803" stroke="#242728" stroke-width="1.05378" stroke-miterlimit="1.5" stroke-linejoin="round"/>
<path d="M104.424 109.051L104.54 121.637C104.539 124.723 100.233 127.228 94.9273 127.228C92.3078 127.228 89.9292 126.616 88.1955 125.625" stroke="#242728" stroke-width="1.05378" stroke-miterlimit="1.5" stroke-linejoin="round"/>
<path d="M54.904 58.4149C60.9404 64.1598 69.4689 68.5968 79.3682 70.523C95.3885 73.6402 110.533 69.3179 118.524 60.4845M46.2148 44.6024C46.8948 47.079 47.9894 49.4983 49.4398 51.803" stroke="#242728" stroke-width="1.05378" stroke-miterlimit="1.5" stroke-linejoin="round"/>
<path d="M59.0752 102.165C59.0752 102.165 60.6957 106.89 61.5259 109.312C61.8436 110.236 62.0103 111.206 62.0201 112.183C62.0604 116.206 62.1718 127.07 62.1718 127.07C62.1716 130.156 57.8653 132.661 52.5596 132.661C47.2562 132.661 42.949 130.156 42.9492 127.07L42.9511 115.274" stroke="#242728" stroke-width="1.05378" stroke-miterlimit="1.5" stroke-linejoin="round"/>
<path d="M68.5062 124.366C65.8867 124.366 63.5081 123.754 61.7744 122.763" stroke="#242728" stroke-width="1.05378" stroke-miterlimit="1.5" stroke-linejoin="round"/>
<path d="M121.807 44.0386C123.071 44.1177 123.527 43.9959 124.766 44.0731C128.029 44.2783 130.424 46.0378 131.262 48.4607C133.564 55.1207 122.899 66.8433 120.214 68.6877" stroke="#242728" stroke-width="1.05378" stroke-miterlimit="1.5" stroke-linejoin="round"/>
<path d="M103.855 77.5807C106.591 77.0294 108.924 77.2414 110.337 80.1949C111.385 82.2307 118.461 102.543 131.981 101.221C132.001 101.219 132.021 101.217 132.042 101.215C132.844 101.133 133.464 101.279 133.93 101.6M131.307 115.727C131.289 115.732 131.271 115.734 131.253 115.735C130.993 115.74 130.717 115.742 130.424 115.742C124.64 115.724 112.683 114.369 103.152 106.335" stroke="#242728" stroke-width="1.05378" stroke-miterlimit="1.5" stroke-linejoin="round"/>
<path fill-rule="evenodd" clip-rule="evenodd" d="M91.5566 93.8923C92.847 93.6852 94.1358 94.2642 94.8369 95.3658C97.6271 99.7269 101.227 102.292 105.189 104.048C105.693 104.275 105.975 104.821 105.865 105.363C105.758 105.906 105.289 106.304 104.736 106.322C99.4817 106.525 94.6073 105.129 90.1303 102.039C86.7048 99.6728 88.1422 94.4473 91.5566 93.8923Z" fill="white" stroke="#242728" stroke-width="1.05378" stroke-miterlimit="1.5" stroke-linejoin="round"/>
<path d="M113.367 86.7341C113.387 86.722 113.41 86.7098 113.432 86.6997C113.724 86.5518 114.044 86.4363 114.399 86.3593C115.138 86.1972 115.914 86.3592 116.528 86.805C116.605 86.8597 116.68 86.9144 116.757 86.9691C120.991 89.9535 125.293 90.9747 129.624 91.1064C130.175 91.1287 130.641 91.5258 130.747 92.0688C130.852 92.6118 130.571 93.1568 130.066 93.3817C126.62 94.9458 123.042 95.6671 119.328 95.509" stroke="#242728" stroke-width="1.05378" stroke-miterlimit="1.5" stroke-linejoin="round"/>
<path d="M94.3227 94.7363C92.7919 92.9359 92.1739 91.393 91.3554 89.5923" stroke="#242728" stroke-width="1.05378" stroke-miterlimit="1.5" stroke-linejoin="round"/>
<path d="M89.9285 101.887C87.9451 100.598 86.067 98.6713 84.768 97.1795" stroke="#242728" stroke-width="1.05378" stroke-miterlimit="1.5" stroke-linejoin="round"/>
<path d="M115.792 90.7028C113.343 89.1732 110.572 90.2062 109.421 92.6393" stroke="#242728" stroke-width="1.05378" stroke-miterlimit="1.5" stroke-linejoin="round"/>
<path d="M130.174 115.707C132.828 116.224 135.609 113.41 136.385 109.422C137.161 105.434 135.638 101.783 132.984 101.266C130.33 100.75 127.549 103.564 126.773 107.552C125.997 111.539 127.52 115.191 130.174 115.707Z" stroke="#242728" stroke-width="1.05378" stroke-miterlimit="1.5" stroke-linejoin="round"/>
<path d="M135.296 126.377C136.396 125.671 137.507 123.969 137.778 122.576C138.049 121.182 137.378 120.626 136.278 121.332C135.178 122.039 134.066 123.741 133.795 125.134C133.524 126.527 134.196 127.084 135.296 126.377Z" fill="white"/>
<path fill-rule="evenodd" clip-rule="evenodd" d="M135.991 120.879C136.806 120.356 137.474 120.417 137.876 120.751C138.249 121.06 138.48 121.711 138.294 122.666C137.998 124.185 136.778 126.04 135.578 126.811C134.764 127.334 134.096 127.272 133.694 126.938C133.321 126.63 133.09 125.979 133.276 125.023C133.572 123.504 134.791 121.65 135.991 120.879ZM136.56 121.766C135.561 122.407 134.557 123.959 134.311 125.225C134.258 125.496 134.245 125.728 134.278 125.912C134.294 126.005 134.313 126.083 134.366 126.127C134.415 126.167 134.486 126.15 134.567 126.13C134.7 126.099 134.847 126.028 135.009 125.925C136.008 125.283 137.013 123.73 137.259 122.465C137.312 122.193 137.325 121.962 137.292 121.777C137.275 121.685 137.257 121.607 137.204 121.563C137.155 121.522 137.085 121.539 137.003 121.559C136.87 121.591 136.722 121.662 136.56 121.766Z" fill="#242728"/>
<path d="M48.4313 60.3295C48.4313 60.3295 38.6192 66.7362 31.451 71.4178C27.0833 74.268 25.1343 79.6704 26.6775 84.654C27.7926 88.2534 29.1154 92.53 30.3375 96.475C31.1059 98.9578 33.1604 100.828 35.7036 101.359C38.2485 101.889 40.8797 100.998 42.5763 99.0308C45.3896 95.7684 47.8226 92.9489 47.8226 92.9489" stroke="#242728" stroke-width="1.05378" stroke-miterlimit="1.5" stroke-linejoin="round"/>
<path d="M34.7017 69.2282C34.4258 68.8091 30.7686 68.3096 29.3247 64.0088C28.4888 61.5191 28.961 58.9935 28.7631 56.8413" stroke="#242728" stroke-width="1.05378" stroke-miterlimit="1.5" stroke-linejoin="round"/>
<path fill-rule="evenodd" clip-rule="evenodd" d="M29.4169 51.3719C30.2734 51.4433 30.674 55.0015 30.6026 55.8587C30.5312 56.7158 29.7767 57.3536 28.9201 57.2823C28.0635 57.2109 27.4249 56.457 27.4963 55.5999C27.5677 54.7427 28.5603 51.3006 29.4169 51.3719Z" fill="#FF85D0" stroke="#242728" stroke-width="1.05378" stroke-miterlimit="1.5" stroke-linejoin="round"/>
<path fill-rule="evenodd" clip-rule="evenodd" d="M128.437 125.72L128.207 126.749L117.45 124.33C116.653 124.15 115.815 124.341 115.174 124.846L97.1595 139.038C96.8285 139.298 96.6774 139.727 96.7693 140.139C96.8642 140.551 97.1856 140.871 97.5971 140.964L117.548 145.45L139.251 128.352L139.904 129.181L118.003 146.434C117.879 146.532 117.718 146.568 117.563 146.533L97.3672 141.992C96.5576 141.81 95.9261 141.179 95.7413 140.372C95.5581 139.564 95.8579 138.722 96.5089 138.21L114.522 124.019C115.413 123.317 116.574 123.053 117.68 123.301L128.437 125.72Z" fill="#242728"/>
<path fill-rule="evenodd" clip-rule="evenodd" d="M98.6953 140.189L98.9272 139.161L116.902 143.203L116.67 144.231L98.6953 140.189Z" fill="#242728"/>
<path fill-rule="evenodd" clip-rule="evenodd" d="M116.804 131.575L111.443 135.797C110.935 136.198 110.274 136.348 109.643 136.206L107.059 135.625C106.556 135.512 106.163 135.119 106.048 134.616C105.934 134.113 106.12 133.589 106.525 133.27L111.885 129.047C112.393 128.646 113.055 128.496 113.685 128.638L116.269 129.219C116.773 129.333 117.166 129.725 117.28 130.228C117.395 130.731 117.209 131.255 116.804 131.575ZM116.151 130.747C116.237 130.679 116.277 130.568 116.253 130.461C116.229 130.355 116.145 130.271 116.039 130.247L113.454 129.666C113.133 129.594 112.796 129.67 112.537 129.874L107.177 134.097C107.091 134.165 107.052 134.276 107.076 134.383C107.1 134.49 107.183 134.573 107.29 134.597L109.874 135.178C110.195 135.25 110.532 135.174 110.791 134.97L116.151 130.747Z" fill="#242728"/>
<path fill-rule="evenodd" clip-rule="evenodd" d="M139.898 129.192L117.998 146.445C117.802 146.6 117.525 146.595 117.334 146.434C117.142 146.274 117.09 146.001 117.209 145.781L128.846 124.15C129.091 123.695 129.428 123.294 129.834 122.975L148.142 108.551C148.641 108.159 149.345 108.17 149.831 108.576C150.315 108.984 150.448 109.677 150.147 110.235L140.037 129.027C140.003 129.091 139.956 129.147 139.898 129.192ZM139.162 128.431L149.22 109.735C149.284 109.617 149.255 109.471 149.152 109.384C149.05 109.297 148.9 109.296 148.795 109.378L130.486 123.802C130.193 124.033 129.952 124.321 129.776 124.648L119.338 144.048L139.162 128.431Z" fill="#242728"/>
</g>
<defs>
<clipPath id="clip0_4182_10157">
<rect x="0.175293" width="163.61" height="163.61" rx="32.722" fill="white"/>
</clipPath>
</defs>
</svg>
