<svg width="164" height="163" viewBox="0 0 164 163" fill="none" xmlns="http://www.w3.org/2000/svg">
<g clip-path="url(#clip0_4204_10953)">
<rect x="0.818359" width="163" height="163" rx="32.6" fill="#E9FC87"/>
<rect x="131.829" y="33.2109" width="19.1525" height="15.0775" rx="7.53875" fill="white"/>
<rect x="131.829" y="33.2109" width="19.1525" height="15.0775" rx="7.53875" stroke="black" stroke-width="1.2225"/>
<rect x="82.9296" y="16.9111" width="27.3025" height="19.1525" rx="3.46375" fill="white"/>
<rect x="82.9296" y="16.9111" width="27.3025" height="19.1525" rx="3.46375" stroke="black" stroke-width="1.2225"/>
<circle cx="96.5805" cy="26.4877" r="2.0375" fill="black"/>
<path d="M128.799 29.2267C129.086 29.0515 129.176 28.6772 129.001 28.3905L126.147 23.7197C125.971 23.4331 125.597 23.3428 125.31 23.5179C125.024 23.6931 124.933 24.0674 125.109 24.354L127.646 28.5059L123.494 31.0431C123.207 31.2182 123.117 31.5926 123.292 31.8792C123.467 32.1658 123.842 32.2562 124.128 32.081L128.799 29.2267ZM110.701 25.0414L128.339 29.2989L128.625 28.1165L110.986 23.859L110.701 25.0414Z" fill="black"/>
<rect x="82.9296" y="45.4364" width="27.3025" height="19.1525" rx="3.46375" fill="white"/>
<rect x="82.9296" y="45.4364" width="27.3025" height="19.1525" rx="3.46375" stroke="black" stroke-width="1.2225"/>
<circle cx="96.5805" cy="55.0131" r="2.0375" fill="black"/>
<path d="M128.799 52.2733C129.086 52.4485 129.176 52.8228 129.001 53.1095L126.147 57.7803C125.971 58.0669 125.597 58.1572 125.31 57.9821C125.024 57.8069 124.933 57.4326 125.109 57.146L127.646 52.9941L123.494 50.4569C123.207 50.2818 123.117 49.9074 123.292 49.6208C123.467 49.3342 123.842 49.2438 124.128 49.419L128.799 52.2733ZM110.701 56.4586L128.339 52.2011L128.625 53.3835L110.986 57.641L110.701 56.4586Z" fill="black"/>
<path fill-rule="evenodd" clip-rule="evenodd" d="M87.1412 73.692L116.722 53.4414C117.392 52.9837 118.215 52.8125 119.011 52.9668L150.201 58.999C150.716 59.0977 151.118 59.4973 151.225 60.0099C151.332 60.5225 151.122 61.0495 150.69 61.3457L121.109 81.5964C120.439 82.0541 119.616 82.2252 118.82 82.0709L87.6298 76.0387C87.1152 75.94 86.711 75.5399 86.606 75.0279C86.4985 74.5153 86.7094 73.9882 87.1412 73.692Z" fill="white"/>
<path fill-rule="evenodd" clip-rule="evenodd" d="M79.1185 147.443C80.9053 148.434 83.3242 149.034 85.9832 149.035C89.2716 149.035 92.1936 148.116 94.0012 146.682C95.1303 145.786 95.8194 144.691 95.8193 143.495C95.8193 143.495 95.6987 127.865 95.6735 124.882L78.6516 135.477L78.9074 135.47L79.0397 139.968C79.0423 140.001 79.0422 140.032 79.0423 140.064L79.1185 147.443Z" fill="#FF85D0"/>
<path fill-rule="evenodd" clip-rule="evenodd" d="M109.303 106.554C112.56 106.643 115.758 106.071 118.891 104.867C118.894 104.866 118.894 104.866 118.894 104.866C119.26 104.729 119.48 104.358 119.431 103.97C119.378 103.584 119.067 103.284 118.679 103.247C117.119 103.107 115.569 102.861 114.031 102.465C112.607 103.895 111.036 105.266 109.303 106.554Z" fill="white"/>
<path fill-rule="evenodd" clip-rule="evenodd" d="M11.4317 89.5446C12.1169 88.8163 12.9302 88.1882 13.8588 87.6994L39.9135 73.9731L40.3182 74.7389L14.2612 88.4646C10.5189 90.4366 8.83971 94.8963 10.3539 98.8481L20.2332 124.634C21.4564 127.824 24.4369 129.999 27.846 130.191C31.2575 130.384 34.4627 128.556 36.0353 125.523L42.8669 112.35L43.6363 112.75L36.8047 125.923C35.0748 129.258 31.5478 131.267 27.7988 131.057C27.7558 131.053 27.7131 131.051 27.6702 131.048L30.8553 141.443C30.8685 141.484 30.875 141.527 30.8745 141.571L30.8739 149.302C30.8765 150.498 31.564 151.594 32.6933 152.491C34.5016 153.924 37.4234 154.843 40.7118 154.843C44.0002 154.844 46.9221 153.925 48.7296 152.491C49.8587 151.594 50.5482 150.502 50.5505 149.307C50.5481 149.306 50.5231 147.441 50.4888 145.169C50.4399 145.141 50.3885 145.112 50.3392 145.083L50.485 144.829C54.9154 146.456 53.1602 146.148 58.6825 146.159L58.6824 157.509C58.6827 158.706 59.37 159.8 60.5017 160.697C62.3079 162.131 65.2318 163.05 68.5202 163.05C71.8086 163.05 74.7305 162.131 76.538 160.697C77.6671 159.801 78.3563 158.706 78.3562 157.511L78.1771 140.074C78.1779 140.048 78.1761 140.021 78.1769 139.994L78.0554 135.851L77.7513 136.039L77.2924 135.306L95.5606 123.935C98.1133 122.345 99.7124 119.616 99.8741 116.638C97.0869 116.773 94.2555 116.44 91.3753 115.625C91.2843 115.6 91.1953 115.573 91.1083 115.542C88.6257 114.91 86.0241 113.596 84.1725 112.519L84.6094 111.769C85.7328 112.423 87.1414 113.171 88.627 113.788C87.7761 112.672 87.4152 111.255 87.5348 109.914C87.6769 108.331 88.4887 106.86 89.9252 106.095C90.3881 105.849 90.8825 105.704 91.3819 105.654C90.1171 104.671 89.2012 103.64 88.1323 102.501L88.7625 101.909C90.1786 103.415 91.308 104.736 93.4236 106.002C93.705 106.133 93.9773 106.299 94.2267 106.5C96.5158 108.325 98.8614 109.553 101.248 110.36C103.65 109.227 105.827 107.952 107.805 106.569C109.968 105.054 111.886 103.41 113.593 101.68C120.37 94.7976 123.714 86.5679 125.253 79.8069L121.598 82.3098C120.736 82.8988 119.677 83.1176 118.655 82.9198L108.425 80.9423C106.392 84.9727 103.537 87.9239 100.276 90.0903C93.9521 94.2926 86.093 95.534 79.7381 95.976L79.6768 95.1119C85.838 94.6829 93.4457 93.5086 99.6048 89.4968L99.6471 79.2445L87.4628 76.8891C86.6058 76.7235 85.9333 76.0574 85.7555 75.2022C85.5757 74.3483 85.9319 73.4704 86.6522 72.9762L99.7057 64.0392L99.7686 48.6103C99.7746 47.1098 99.2679 45.7108 98.4008 44.597C98.6984 43.6891 101.445 38.8032 95.3504 35.9651C92.2683 35.2029 88.8291 36.0987 84.6477 40.4249L57.5449 35.5262C54.0268 34.8898 50.398 35.6854 47.4686 37.7334L6.96172 65.972C4.40989 67.7558 3.48467 71.0967 4.75227 73.9385C4.75257 73.9404 4.75275 73.9424 4.75304 73.9444L11.4317 89.5446Z" fill="#FF85D0"/>
<path d="M84.9194 39.8135C86.0032 39.0019 87.0848 38.193 88.1462 37.3977C90.9434 35.3044 94.195 34.9416 96.4704 36.4683C98.7436 37.9952 99.6221 41.1305 98.7154 44.4908" stroke="#242728" stroke-width="1.06979" stroke-miterlimit="1.5" stroke-linejoin="round"/>
<path d="M100.086 78.9116L100.044 89.7555M11.3131 90.3752L4.36125 74.1392C3.01089 71.1076 4.00001 67.5437 6.72003 65.6417L47.2258 37.4028C50.2511 35.2885 53.9954 34.4676 57.6276 35.1262L94.5112 41.7898C96.2453 42.103 97.7314 43.0466 98.7498 44.3559C99.673 45.5449 100.214 47.0375 100.208 48.6357L100.145 64.2918M100.326 116.202C100.316 119.505 98.6058 122.578 95.7948 124.326L77.5286 135.697M58.392 133.497L49.2683 132.039" stroke="#242728" stroke-width="1.20465" stroke-miterlimit="1.5" stroke-linejoin="round"/>
<path d="M86.4727 52.3584C73.0826 61.6395 71.9818 62.4009 61.8571 69.4182C57.6927 72.3034 52.5621 73.4388 47.5697 72.5805C41.5459 71.5432 36.6685 70.8458 28.9348 69.5144" stroke="#242728" stroke-width="1.20364" stroke-miterlimit="1.5" stroke-linejoin="round"/>
<path d="M79.7148 95.5674C86.0032 95.1302 93.7862 93.9125 100.043 89.7543C103.324 87.5743 106.185 84.5862 108.192 80.4787M125.912 78.859C124.473 85.8719 121.113 94.6923 113.907 102.008C112.186 103.755 110.245 105.417 108.06 106.947C106.021 108.374 103.769 109.688 101.282 110.851C101.231 110.874 101.181 110.898 101.13 110.921" stroke="#242728" stroke-width="1.20419" stroke-miterlimit="1.5" stroke-linejoin="round"/>
<path fill-rule="evenodd" clip-rule="evenodd" d="M89.5816 106.864C90.8892 105.864 92.7122 105.882 93.9994 106.91C97.8399 109.948 101.83 111.349 105.899 111.911C106.659 112.015 107.243 112.633 107.306 113.396C107.368 114.159 106.893 114.865 106.161 115.09C101.412 116.59 96.5272 116.662 91.497 115.237C87.4751 114.097 86.9281 108.926 89.5816 106.864Z" fill="white" stroke="#242728" stroke-width="1.20465" stroke-miterlimit="1.5" stroke-linejoin="round"/>
<path d="M113.903 102.012C115.496 102.439 117.105 102.7 118.725 102.844C119.313 102.901 119.786 103.355 119.862 103.942C119.941 104.528 119.604 105.092 119.051 105.301C115.466 106.678 111.802 107.241 108.057 106.95" stroke="#242728" stroke-width="1.20465" stroke-miterlimit="1.5" stroke-linejoin="round"/>
<path d="M93.2263 106.414C91.0577 105.121 89.9011 103.773 88.4528 102.234" stroke="#242728" stroke-width="1.20465" stroke-miterlimit="1.5" stroke-linejoin="round"/>
<path d="M91.2355 115.155C88.7855 114.535 86.222 113.233 84.3943 112.171" stroke="#242728" stroke-width="1.20465" stroke-miterlimit="1.5" stroke-linejoin="round"/>
<path d="M40.1232 74.3813C40.1232 74.3813 23.7308 83.0165 14.0683 88.1072C10.1307 90.1815 8.36614 94.8721 9.95778 99.0282C12.5118 105.697 16.4074 115.86 19.8381 124.814C21.1198 128.163 24.2495 130.448 27.8311 130.649C31.4106 130.851 34.7767 128.932 36.429 125.748C40.0127 118.837 43.2584 112.575 43.2584 112.575" stroke="#242728" stroke-width="1.2039" stroke-miterlimit="1.5" stroke-linejoin="round"/>
<path d="M78.484 135.508C78.484 135.508 78.6017 139.531 78.6163 140.005C78.6165 140.036 78.6168 140.066 78.617 140.096C78.6281 141.075 78.7955 157.534 78.7955 157.534C78.7952 160.832 74.1938 163.508 68.5246 163.509C62.8577 163.508 58.2554 160.832 58.2557 157.534L58.2568 132.877" stroke="#242728" stroke-width="1.2038" stroke-miterlimit="1.5" stroke-linejoin="round"/>
<path d="M96.1064 124.414L96.2563 143.518C96.256 146.815 91.6547 149.492 85.9855 149.492C83.1865 149.491 80.6449 148.838 78.7924 147.778" stroke="#242728" stroke-width="1.2038" stroke-miterlimit="1.5" stroke-linejoin="round"/>
<path d="M47.6798 127.588C47.6798 127.588 50.4768 135.746 50.6789 136.334C50.7665 136.587 50.8131 136.852 50.8155 137.119C50.8468 139.274 50.9889 149.327 50.9889 149.327C50.9886 152.625 46.3873 155.301 40.7181 155.302C35.0512 155.301 30.4488 152.625 30.4491 149.328L30.4509 141.595L27.1352 130.783" stroke="#242728" stroke-width="1.2038" stroke-miterlimit="1.5" stroke-linejoin="round"/>
<path d="M57.7553 146.448C54.9563 146.447 52.4147 145.794 50.5622 144.734" stroke="#242728" stroke-width="1.2038" stroke-miterlimit="1.5" stroke-linejoin="round"/>
<path fill-rule="evenodd" clip-rule="evenodd" d="M87.285 77.0073L118.219 82.9895C119.532 83.2435 120.895 82.9602 121.998 82.2046L150.263 62.8539C151.19 62.2196 151.645 61.0928 151.418 59.9939C151.187 58.8956 150.324 58.0413 149.222 57.8281L119.593 52.0982C118.28 51.8442 116.917 52.1275 115.814 52.8831L86.4501 72.9859C85.7093 73.4931 85.3475 74.3951 85.5302 75.2751C85.7118 76.1533 86.4047 76.837 87.285 77.0073ZM87.4961 75.9145C87.0545 75.8291 86.7086 75.4882 86.6186 75.0485C86.5287 74.6088 86.7082 74.1575 87.0778 73.9045L116.443 53.8005C117.3 53.2136 118.361 52.9934 119.382 53.1909L149.011 58.9208C149.672 59.0486 150.19 59.5607 150.327 60.2199C150.464 60.8792 150.191 61.5552 149.634 61.9365L121.369 81.2873C120.51 81.8753 119.454 82.0948 118.433 81.8973L87.4961 75.9145Z" fill="#242728"/>
</g>
<defs>
<clipPath id="clip0_4204_10953">
<rect x="0.818359" width="163" height="163" rx="32.6" fill="white"/>
</clipPath>
</defs>
</svg>
