<svg xmlns="http://www.w3.org/2000/svg" width="29" height="28" viewBox="0 0 29 28" fill="none">
<path d="M14.6671 26.5533C13.3955 26.5533 12.1355 26.1799 11.1438 25.4449L6.12712 21.6999C4.79712 20.7083 3.75879 18.6316 3.75879 16.9866V8.3066C3.75879 6.50993 5.07712 4.5966 6.76879 3.9666L12.5905 1.78493C13.7455 1.35326 15.5655 1.35326 16.7205 1.78493L22.5421 3.9666C24.2338 4.5966 25.5521 6.50993 25.5521 8.3066V16.9749C25.5521 18.6316 24.5138 20.6966 23.1838 21.6883L18.1671 25.4333C17.1988 26.1799 15.9388 26.5533 14.6671 26.5533ZM13.2088 3.42993L7.38712 5.6116C6.39546 5.98493 5.52046 7.24493 5.52046 8.31826V16.9866C5.52046 18.0949 6.30212 19.6466 7.17712 20.2999L12.1938 24.0449C13.5355 25.0483 15.7988 25.0483 17.1521 24.0449L22.1688 20.2999C23.0555 19.6349 23.8255 18.0949 23.8255 16.9866V8.3066C23.8255 7.24493 22.9505 5.98493 21.9588 5.59993L16.1371 3.41827C15.3438 3.13827 13.9905 3.13827 13.2088 3.42993Z" fill="#7CCFE1"/>
</svg>
