<svg width="40" height="40" viewBox="0 0 40 40" fill="none" xmlns="http://www.w3.org/2000/svg">
<path d="M20.0001 37.9337C18.1834 37.9337 16.3834 37.4004 14.9667 36.3504L7.80008 31.0004C5.90008 29.5837 4.41675 26.6171 4.41675 24.2671V11.8671C4.41675 9.30039 6.30008 6.56706 8.71675 5.66706L17.0334 2.55039C18.6834 1.93372 21.2834 1.93372 22.9334 2.55039L31.2501 5.66706C33.6667 6.56706 35.5501 9.30039 35.5501 11.8671V24.2504C35.5501 26.6171 34.0667 29.5671 32.1667 30.9837L25.0001 36.3337C23.6167 37.4004 21.8167 37.9337 20.0001 37.9337ZM17.9167 4.90039L9.60008 8.01706C8.18341 8.55039 6.93341 10.3504 6.93341 11.8837V24.2671C6.93341 25.8504 8.05008 28.0671 9.30008 29.0004L16.4667 34.3504C18.3834 35.7837 21.6167 35.7837 23.5501 34.3504L30.7167 29.0004C31.9834 28.0504 33.0834 25.8504 33.0834 24.2671V11.8671C33.0834 10.3504 31.8334 8.55039 30.4167 8.00039L22.1001 4.88372C20.9667 4.48372 19.0334 4.48372 17.9167 4.90039Z" fill="white"/>
</svg>
