<svg xmlns="http://www.w3.org/2000/svg" width="28" height="28" viewBox="0 0 28 28" fill="none">
<path d="M8.02637 22.05C7.54803 22.05 7.15137 21.6533 7.15137 21.175V18.76C7.15137 18.2817 7.54803 17.885 8.02637 17.885C8.5047 17.885 8.90137 18.2817 8.90137 18.76V21.175C8.90137 21.665 8.5047 22.05 8.02637 22.05Z" fill="#A5D571"/>
<path d="M14 22.0499C13.5217 22.0499 13.125 21.6533 13.125 21.1749V16.3333C13.125 15.8549 13.5217 15.4583 14 15.4583C14.4783 15.4583 14.875 15.8549 14.875 16.3333V21.1749C14.875 21.6649 14.4783 22.0499 14 22.0499Z" fill="#A5D571"/>
<path d="M19.9736 22.0499C19.4953 22.0499 19.0986 21.6532 19.0986 21.1749V13.9182C19.0986 13.4399 19.4953 13.0432 19.9736 13.0432C20.452 13.0432 20.8486 13.4399 20.8486 13.9182V21.1749C20.8486 21.6649 20.4636 22.0499 19.9736 22.0499Z" fill="#A5D571"/>
<path d="M8.02651 15.3767C7.62984 15.3767 7.27984 15.1083 7.17484 14.7117C7.05817 14.245 7.33817 13.7667 7.81651 13.65C12.1098 12.5767 15.8898 10.2317 18.7715 6.88332L19.3082 6.25332C19.6232 5.89165 20.1715 5.84499 20.5448 6.15999C20.9065 6.47499 20.9532 7.02332 20.6382 7.39665L20.1015 8.02665C16.9865 11.6667 12.8798 14.1983 8.23651 15.3533C8.16651 15.3767 8.09651 15.3767 8.02651 15.3767Z" fill="#A5D571"/>
<path d="M19.973 11.1069C19.4947 11.1069 19.098 10.7102 19.098 10.2319V7.7002H16.5547C16.0764 7.7002 15.6797 7.30353 15.6797 6.8252C15.6797 6.34686 16.0764 5.9502 16.5547 5.9502H19.973C20.4514 5.9502 20.848 6.34686 20.848 6.8252V10.2435C20.848 10.7219 20.463 11.1069 19.973 11.1069Z" fill="#A5D571"/>
<path d="M17.4997 26.5416H10.4997C4.16467 26.5416 1.45801 23.8349 1.45801 17.4999V10.4999C1.45801 4.16492 4.16467 1.45825 10.4997 1.45825H17.4997C23.8347 1.45825 26.5413 4.16492 26.5413 10.4999V17.4999C26.5413 23.8349 23.8347 26.5416 17.4997 26.5416ZM10.4997 3.20825C5.12134 3.20825 3.20801 5.12159 3.20801 10.4999V17.4999C3.20801 22.8783 5.12134 24.7916 10.4997 24.7916H17.4997C22.878 24.7916 24.7913 22.8783 24.7913 17.4999V10.4999C24.7913 5.12159 22.878 3.20825 17.4997 3.20825H10.4997Z" fill="#A5D571"/>
</svg>
