<svg width="28" height="28" viewBox="0 0 28 28" fill="none" xmlns="http://www.w3.org/2000/svg">
<g id="vuesax/outline/task-square">
<g id="task-square">
<path id="Vector" d="M20.5566 11.2234H14.4316C13.9533 11.2234 13.5566 10.8267 13.5566 10.3484C13.5566 9.87006 13.9533 9.47339 14.4316 9.47339H20.5566C21.035 9.47339 21.4316 9.87006 21.4316 10.3484C21.4316 10.8267 21.0466 11.2234 20.5566 11.2234Z" fill="#FF5A8F"/>
<path id="Vector_2" d="M8.30763 12.1101C8.08596 12.1101 7.8643 12.0285 7.6893 11.8535L6.8143 10.9785C6.47596 10.6401 6.47596 10.0801 6.8143 9.74179C7.15263 9.40345 7.71263 9.40345 8.05096 9.74179L8.30763 9.99845L10.3143 7.99179C10.6526 7.65345 11.2126 7.65345 11.551 7.99179C11.8893 8.33012 11.8893 8.89012 11.551 9.22845L8.92596 11.8535C8.76263 12.0168 8.54096 12.1101 8.30763 12.1101Z" fill="#FF5A8F"/>
<path id="Vector_3" d="M20.5566 19.3899H14.4316C13.9533 19.3899 13.5566 18.9932 13.5566 18.5149C13.5566 18.0366 13.9533 17.6399 14.4316 17.6399H20.5566C21.035 17.6399 21.4316 18.0366 21.4316 18.5149C21.4316 18.9932 21.0466 19.3899 20.5566 19.3899Z" fill="#FF5A8F"/>
<path id="Vector_4" d="M8.30763 20.2766C8.08596 20.2766 7.8643 20.195 7.6893 20.02L6.8143 19.145C6.47596 18.8066 6.47596 18.2466 6.8143 17.9083C7.15263 17.57 7.71263 17.57 8.05096 17.9083L8.30763 18.165L10.3143 16.1583C10.6526 15.82 11.2126 15.82 11.551 16.1583C11.8893 16.4966 11.8893 17.0566 11.551 17.395L8.92596 20.02C8.76263 20.1833 8.54096 20.2766 8.30763 20.2766Z" fill="#FF5A8F"/>
<path id="Vector_5" d="M17.5007 26.5416H10.5007C4.16565 26.5416 1.45898 23.8349 1.45898 17.4999V10.4999C1.45898 4.16492 4.16565 1.45825 10.5007 1.45825H17.5007C23.8356 1.45825 26.5423 4.16492 26.5423 10.4999V17.4999C26.5423 23.8349 23.8356 26.5416 17.5007 26.5416ZM10.5007 3.20825C5.12232 3.20825 3.20898 5.12158 3.20898 10.4999V17.4999C3.20898 22.8783 5.12232 24.7916 10.5007 24.7916H17.5007C22.879 24.7916 24.7923 22.8783 24.7923 17.4999V10.4999C24.7923 5.12158 22.879 3.20825 17.5007 3.20825H10.5007Z" fill="#FF5A8F"/>
</g>
</g>
</svg>
