<svg width="16" height="17" viewBox="0 0 16 17" fill="none" xmlns="http://www.w3.org/2000/svg">
<path d="M11.7466 6.91333H8.24658C7.97325 6.91333 7.74658 6.68666 7.74658 6.41333C7.74658 6.14 7.97325 5.91333 8.24658 5.91333H11.7466C12.0199 5.91333 12.2466 6.14 12.2466 6.41333C12.2466 6.68666 12.0266 6.91333 11.7466 6.91333Z" fill="#F2F2F2"/>
<path d="M4.74687 7.41996C4.6202 7.41996 4.49354 7.3733 4.39354 7.2733L3.89354 6.7733C3.7002 6.57996 3.7002 6.25996 3.89354 6.06663C4.08687 5.8733 4.40687 5.8733 4.6002 6.06663L4.74687 6.2133L5.89353 5.06663C6.08687 4.8733 6.40687 4.8733 6.6002 5.06663C6.79353 5.25996 6.79353 5.57996 6.6002 5.7733L5.1002 7.2733C5.00687 7.36663 4.8802 7.41996 4.74687 7.41996Z" fill="#F2F2F2"/>
<path d="M11.7466 11.5801H8.24658C7.97325 11.5801 7.74658 11.3534 7.74658 11.0801C7.74658 10.8067 7.97325 10.5801 8.24658 10.5801H11.7466C12.0199 10.5801 12.2466 10.8067 12.2466 11.0801C12.2466 11.3534 12.0266 11.5801 11.7466 11.5801Z" fill="#F2F2F2"/>
<path d="M4.74687 12.0867C4.6202 12.0867 4.49354 12.04 4.39354 11.94L3.89354 11.44C3.7002 11.2467 3.7002 10.9267 3.89354 10.7334C4.08687 10.54 4.40687 10.54 4.6002 10.7334L4.74687 10.88L5.89353 9.73338C6.08687 9.54005 6.40687 9.54005 6.6002 9.73338C6.79353 9.92671 6.79353 10.2467 6.6002 10.44L5.1002 11.94C5.00687 12.0334 4.8802 12.0867 4.74687 12.0867Z" fill="#F2F2F2"/>
<path d="M10.0002 15.6666H6.00016C2.38016 15.6666 0.833496 14.1199 0.833496 10.4999V6.49992C0.833496 2.87992 2.38016 1.33325 6.00016 1.33325H10.0002C13.6202 1.33325 15.1668 2.87992 15.1668 6.49992V10.4999C15.1668 14.1199 13.6202 15.6666 10.0002 15.6666ZM6.00016 2.33325C2.92683 2.33325 1.8335 3.42659 1.8335 6.49992V10.4999C1.8335 13.5733 2.92683 14.6666 6.00016 14.6666H10.0002C13.0735 14.6666 14.1668 13.5733 14.1668 10.4999V6.49992C14.1668 3.42659 13.0735 2.33325 10.0002 2.33325H6.00016Z" fill="#F2F2F2"/>
</svg>
