<svg xmlns="http://www.w3.org/2000/svg" width="28" height="28" viewBox="0 0 28 28" fill="none">
<path d="M10.1146 13.6517C11.0222 15.5073 12.5264 17.0046 14.3861 17.9038C14.5221 17.9682 14.6726 17.9962 14.8228 17.9848C14.9729 17.9735 15.1175 17.9232 15.2423 17.839L17.9806 16.013C18.1017 15.9323 18.241 15.883 18.386 15.8697C18.5309 15.8564 18.6769 15.8794 18.8107 15.9368L23.9335 18.1323C24.1075 18.2062 24.2528 18.3347 24.3475 18.4983C24.4421 18.662 24.481 18.852 24.4583 19.0397C24.2964 20.3067 23.6782 21.4713 22.7195 22.3153C21.7608 23.1593 20.5273 23.625 19.25 23.625C15.3049 23.625 11.5214 22.0579 8.73179 19.2683C5.94218 16.4787 4.375 12.6951 4.375 8.75005C4.37507 7.47274 4.84071 6.23925 5.68475 5.28054C6.52878 4.32182 7.69332 3.70364 8.96033 3.54172C9.14803 3.519 9.33803 3.5579 9.5017 3.65256C9.66538 3.74722 9.79385 3.8925 9.86778 4.06652L12.0652 9.19379C12.122 9.32641 12.1452 9.47103 12.1326 9.61477C12.12 9.75851 12.0721 9.8969 11.9931 10.0176L10.1735 12.7979C10.0906 12.923 10.0417 13.0674 10.0314 13.217C10.021 13.3667 10.0497 13.5165 10.1146 13.6517V13.6517Z" stroke="#F59897" stroke-width="2" stroke-linecap="round" stroke-linejoin="round"/>
</svg>
