<svg width="134" height="54" viewBox="0 0 134 54" fill="none" xmlns="http://www.w3.org/2000/svg">
<rect width="134" height="54" rx="27" fill="#E9FC87"/>
<path d="M32.3024 22.6094V20.9091H42.4338V22.6094H38.3493V34H36.3805V22.6094H32.3024ZM43.4996 34V24.1818H45.3469V25.7415H45.4492C45.6282 25.2131 45.9435 24.7976 46.3952 24.495C46.8512 24.1882 47.3668 24.0348 47.9421 24.0348C48.0614 24.0348 48.2021 24.0391 48.364 24.0476C48.5302 24.0561 48.6602 24.0668 48.7539 24.0795V25.9077C48.6772 25.8864 48.5408 25.8629 48.3448 25.8374C48.1488 25.8075 47.9528 25.7926 47.7567 25.7926C47.305 25.7926 46.9023 25.8885 46.5487 26.0803C46.1992 26.2678 45.9222 26.5298 45.7177 26.8665C45.5131 27.1989 45.4109 27.5781 45.4109 28.0043V34H43.4996ZM51.9148 37.6818C51.6293 37.6818 51.3693 37.6584 51.1349 37.6115C50.9006 37.5689 50.7259 37.522 50.6108 37.4709L51.071 35.9048C51.4205 35.9986 51.7315 36.0391 52.0043 36.0263C52.277 36.0135 52.5178 35.9112 52.7266 35.7195C52.9396 35.5277 53.1271 35.2145 53.2891 34.7798L53.5256 34.1278L49.9332 24.1818H51.9787L54.4652 31.8011H54.5675L57.054 24.1818H59.1058L55.0597 35.3104C54.8722 35.8217 54.6335 36.2543 54.3438 36.608C54.054 36.9659 53.7088 37.2344 53.3082 37.4134C52.9077 37.5923 52.4432 37.6818 51.9148 37.6818ZM65.8191 34V20.9091H73.937V22.6094H67.7942V26.598H73.3553V28.2919H67.7942V34H65.8191ZM76.0895 34V24.1818H77.9368V25.7415H78.0391C78.218 25.2131 78.5334 24.7976 78.9851 24.495C79.4411 24.1882 79.9567 24.0348 80.532 24.0348C80.6513 24.0348 80.7919 24.0391 80.9538 24.0476C81.12 24.0561 81.25 24.0668 81.3438 24.0795V25.9077C81.267 25.8864 81.1307 25.8629 80.9347 25.8374C80.7386 25.8075 80.5426 25.7926 80.3466 25.7926C79.8949 25.7926 79.4922 25.8885 79.1385 26.0803C78.7891 26.2678 78.5121 26.5298 78.3075 26.8665C78.103 27.1989 78.0007 27.5781 78.0007 28.0043V34H76.0895ZM86.8777 34.1982C85.9103 34.1982 85.0772 33.9915 84.3784 33.5781C83.6838 33.1605 83.1468 32.5746 82.7676 31.8203C82.3926 31.0618 82.2051 30.1733 82.2051 29.1548C82.2051 28.1491 82.3926 27.2628 82.7676 26.4957C83.1468 25.7287 83.6752 25.13 84.3528 24.6996C85.0346 24.2692 85.8315 24.054 86.7434 24.054C87.2974 24.054 87.8343 24.1456 88.3542 24.3288C88.8741 24.5121 89.3407 24.7997 89.7541 25.1918C90.1674 25.5838 90.4934 26.093 90.7321 26.7195C90.9707 27.3416 91.09 28.098 91.09 28.9886V29.6662H83.2853V28.2344H89.2172C89.2172 27.7315 89.1149 27.2862 88.9103 26.8984C88.7058 26.5064 88.4181 26.1974 88.0474 25.9716C87.6809 25.7457 87.2505 25.6328 86.7562 25.6328C86.2193 25.6328 85.7505 25.7649 85.35 26.0291C84.9537 26.2891 84.6468 26.63 84.4295 27.0518C84.2164 27.4695 84.1099 27.9233 84.1099 28.4134V29.532C84.1099 30.1882 84.225 30.7464 84.4551 31.2067C84.6895 31.6669 85.0154 32.0185 85.4331 32.2614C85.8507 32.5 86.3386 32.6193 86.8968 32.6193C87.2591 32.6193 87.5893 32.5682 87.8876 32.4659C88.1859 32.3594 88.4437 32.2017 88.661 31.9929C88.8784 31.7841 89.0446 31.5263 89.1596 31.2195L90.9686 31.5455C90.8237 32.0781 90.5637 32.5447 90.1887 32.9453C89.818 33.3416 89.3514 33.6506 88.7889 33.8722C88.2306 34.0895 87.5936 34.1982 86.8777 34.1982ZM97.4421 34.1982C96.4748 34.1982 95.6417 33.9915 94.9428 33.5781C94.2482 33.1605 93.7113 32.5746 93.332 31.8203C92.957 31.0618 92.7695 30.1733 92.7695 29.1548C92.7695 28.1491 92.957 27.2628 93.332 26.4957C93.7113 25.7287 94.2397 25.13 94.9173 24.6996C95.5991 24.2692 96.396 24.054 97.3079 24.054C97.8619 24.054 98.3988 24.1456 98.9187 24.3288C99.4386 24.5121 99.9052 24.7997 100.319 25.1918C100.732 25.5838 101.058 26.093 101.297 26.7195C101.535 27.3416 101.654 28.098 101.654 28.9886V29.6662H93.8498V28.2344H99.7816C99.7816 27.7315 99.6793 27.2862 99.4748 26.8984C99.2702 26.5064 98.9826 26.1974 98.6119 25.9716C98.2454 25.7457 97.815 25.6328 97.3207 25.6328C96.7837 25.6328 96.315 25.7649 95.9144 26.0291C95.5181 26.2891 95.2113 26.63 94.994 27.0518C94.7809 27.4695 94.6744 27.9233 94.6744 28.4134V29.532C94.6744 30.1882 94.7894 30.7464 95.0195 31.2067C95.2539 31.6669 95.5799 32.0185 95.9975 32.2614C96.4151 32.5 96.9031 32.6193 97.4613 32.6193C97.8235 32.6193 98.1538 32.5682 98.4521 32.4659C98.7504 32.3594 99.0082 32.2017 99.2255 31.9929C99.4428 31.7841 99.609 31.5263 99.7241 31.2195L101.533 31.5455C101.388 32.0781 101.128 32.5447 100.753 32.9453C100.382 33.3416 99.9158 33.6506 99.3533 33.8722C98.7951 34.0895 98.158 34.1982 97.4421 34.1982Z" fill="black"/>
</svg>
