<svg width="276" height="58" viewBox="0 0 276 58" fill="none" xmlns="http://www.w3.org/2000/svg">
<rect width="276" height="58" rx="29" fill="#E9FC87"/>
<path fill-rule="evenodd" clip-rule="evenodd" d="M45.7889 36.1348C45.5925 36.2661 45.3692 36.4182 45.2458 36.4972C44.7402 36.821 44.128 36.9334 43.5405 36.8103C43.3594 36.7724 43.0657 36.7302 42.8184 36.6851C42.9075 36.9312 42.9548 37.1914 42.9576 37.4547L42.9587 37.5767C43.0603 38.0526 43.6879 38.4519 44.4282 38.4905C45.2225 38.5321 45.848 38.1428 45.8236 37.6218L45.7889 36.1348Z" fill="#FF85D0"/>
<path fill-rule="evenodd" clip-rule="evenodd" d="M50.0402 36.4338C50.2763 35.7775 50.2585 35.0269 49.7654 34.7857L49.7124 34.7571C49.2255 34.5979 48.6229 35.0777 48.3642 35.8334C48.1055 36.589 48.288 37.3376 48.7707 37.51C48.7732 37.5107 48.7757 37.5118 48.7782 37.5125C49.3067 37.6592 49.8023 37.0943 50.0402 36.4338Z" fill="#FF85D0"/>
<path fill-rule="evenodd" clip-rule="evenodd" d="M50.1913 33.3184C50.1574 33.3463 50.1212 33.3728 50.0833 33.3967L48.7651 34.2415L49.762 34.7854C50.255 35.0265 50.2729 35.7772 50.0368 36.4334C50.7191 36.1955 51.1395 35.6691 50.9764 35.2552L50.1913 33.3184Z" fill="#FF85D0"/>
<path fill-rule="evenodd" clip-rule="evenodd" d="M54.4776 27.5125C54.474 27.5154 54.4701 27.5183 54.4662 27.5211C54.4336 27.5508 54.3069 28.0593 54.2737 28.0879C53.6106 28.6521 52.8256 28.8296 52.0088 28.7681C52.0012 28.7684 51.9934 28.7688 51.9859 28.7695L51.9823 28.7659C51.3937 28.7176 50.7894 28.5462 50.2029 28.3065L49.444 20.7333C49.3946 20.2398 49.0333 19.8344 48.5491 19.7289L43.8075 18.6934C43.2114 18.5632 42.5881 18.6762 42.0758 19.0072L37.2199 22.1462C36.8593 22.3791 36.6593 22.7946 36.7022 23.2218L36.7684 23.8848L36.4027 23.942C35.7962 24.0376 35.3569 24.5714 35.3798 25.1847L35.5207 28.9913C35.5393 29.4858 35.846 29.9234 36.3043 30.1095C36.6618 30.254 37.0593 30.225 37.3863 30.0433C37.5388 31.5743 37.7177 33.5569 37.7177 33.5569C37.7602 34.1222 37.8214 34.5745 37.8998 34.9312C37.9624 35.2171 38.0697 35.4916 38.2182 35.7438C38.4941 36.2129 39.063 37.1392 39.6484 37.8717V39.7773C39.6484 40.3122 40.3951 40.7462 41.3143 40.7462C42.2335 40.7462 42.9799 40.3122 42.9799 39.7773L42.9563 37.4537C42.9534 37.1904 42.9062 36.9303 42.8171 36.6841C43.0644 36.7292 43.3581 36.7714 43.5392 36.8093C44.1267 36.9324 44.7389 36.8201 45.2445 36.4963C45.3679 36.4172 45.5912 36.2651 45.7876 36.1338C45.803 36.1234 45.8184 36.1134 45.8334 36.1034C46.7515 36.6837 47.7323 37.1467 48.7671 37.5088C48.2844 37.3364 48.1019 36.5879 48.3606 35.8322C48.6193 35.0765 49.2218 34.5967 49.7088 34.7559L48.7649 34.2407L50.0831 33.3959C50.121 33.3719 50.1571 33.3454 50.1911 33.3175C50.4856 33.0764 50.6434 32.7021 50.6047 32.3178C50.5929 32.1983 50.5793 31.9836 50.565 31.8047C52.8975 32.0262 55.1395 31.1199 56.053 29.8254C56.102 29.7563 56.4402 29.4042 56.4695 28.909C56.5174 28.1079 55.994 27.5161 55.4329 27.3308C55.2623 27.2746 54.8927 27.1998 54.4776 27.5125Z" fill="#FF85D0"/>
<path fill-rule="evenodd" clip-rule="evenodd" d="M45.5718 19.0791L48.5512 19.7299C49.0353 19.8355 49.3967 20.2409 49.4461 20.7343L49.6393 22.6621C49.7209 22.6163 49.8958 22.5093 50.0014 22.3784C50.2279 22.0971 50.274 21.6163 50.1939 21.2638L49.9123 20.0548L49.2772 17.2697C49.1763 16.8267 48.826 16.4832 48.3809 16.3913C47.9358 16.2993 47.4778 16.4753 47.2095 16.8421L45.5718 19.0791Z" fill="#FF85D0"/>
<path d="M45.8833 36.1557C45.6682 36.2935 45.4694 36.4211 45.2937 36.5336C44.7882 36.8575 44.1758 36.9701 43.5883 36.8469C43.3705 36.8012 43.1227 36.7494 42.8559 36.6935M36.8201 23.9229L36.7537 23.26C36.711 22.8328 36.911 22.4174 37.2716 22.1842C38.3962 21.4573 40.8543 19.868 42.1279 19.0447C42.6402 18.7135 43.2637 18.6003 43.8595 18.7304C45.1321 19.0082 47.3936 19.5018 48.6008 19.7652C49.085 19.8708 49.4463 20.2763 49.4957 20.7696L50.2533 28.3429M50.6032 31.8402L50.6546 32.3542C50.6975 32.7832 50.4958 33.2001 50.1327 33.4327C49.7917 33.6512 49.3288 33.9478 48.8145 34.2775M40.1116 38.3874C39.3968 37.6404 38.6093 36.3614 38.2679 35.7823C38.1198 35.5298 38.0123 35.2556 37.9494 34.9696C37.8718 34.6128 37.8102 34.1608 37.7676 33.5954C37.7676 33.5954 37.5911 31.6301 37.4362 30.0823" stroke="#242728" stroke-width="0.206731" stroke-miterlimit="1.5" stroke-linejoin="round"/>
<path d="M47.5037 21.1641C45.6477 22.3536 45.4951 22.4512 44.0917 23.3506C43.5145 23.7203 42.8152 23.8488 42.1445 23.7084" stroke="#242728" stroke-width="0.206731" stroke-miterlimit="1.5" stroke-linejoin="round"/>
<path d="M49.6423 22.7219C49.6423 22.7219 49.908 22.5894 50.0492 22.4142C50.2758 22.1328 50.3218 21.6518 50.2417 21.2994L49.9603 20.0902C49.7664 19.2392 49.5339 18.2195 49.3257 17.3049C49.2246 16.8618 48.8742 16.5185 48.4294 16.4264C47.9842 16.3344 47.5266 16.5106 47.2579 16.8775C46.6846 17.6608 46.0585 18.516 45.5981 19.1449" stroke="#242728" stroke-width="0.206731" stroke-miterlimit="1.5" stroke-linejoin="round"/>
<path d="M40.4678 23.3477C40.4678 23.3477 37.9429 23.7448 36.4547 23.979C35.8482 24.0744 35.4089 24.6081 35.4315 25.2217C35.4679 26.2061 35.5237 27.7065 35.5727 29.0283C35.5909 29.5227 35.8977 29.9603 36.3564 30.1462C36.8147 30.332 37.3396 30.2314 37.6972 29.8894C38.4729 29.1467 39.1756 28.4738 39.1756 28.4738" stroke="#242728" stroke-width="0.206731" stroke-miterlimit="1.5" stroke-linejoin="round"/>
<path d="M35.5044 27.8193C35.4295 27.7719 35.3485 27.7292 35.26 27.6928C34.8308 27.517 34.3733 27.6442 33.9927 27.616" stroke="#242728" stroke-width="0.206731" stroke-miterlimit="1.5" stroke-linejoin="round"/>
<path fill-rule="evenodd" clip-rule="evenodd" d="M33.0276 27.7482C33.0429 27.8993 33.6724 27.9586 33.8235 27.9434C33.9747 27.9281 34.0849 27.7931 34.0697 27.6421C34.0544 27.4908 33.9193 27.3807 33.7682 27.3959C33.617 27.4112 33.0123 27.597 33.0276 27.7482Z" fill="#FF85D0" stroke="#242728" stroke-width="0.206731" stroke-miterlimit="1.5" stroke-linejoin="round"/>
<path d="M49.3448 27.9341C49.4716 28.0001 49.7001 28.1083 50.1115 28.2848C51.5615 28.9072 53.1374 29.1355 54.3231 28.1259C54.3564 28.0976 54.4832 27.5888 54.5157 27.5594C54.935 27.2366 55.3099 27.3122 55.4823 27.3691C56.0432 27.5543 56.5667 28.1463 56.5191 28.9477C56.4897 29.4429 56.1514 29.7951 56.1028 29.8641C54.6672 31.8987 49.9507 32.9741 46.7578 30.2181" stroke="#242728" stroke-width="0.206731" stroke-miterlimit="1.5" stroke-linejoin="round"/>
<path d="M52.065 28.8027C51.5561 28.8323 51.2403 29.2395 51.3226 29.7076" stroke="#242728" stroke-width="0.206731" stroke-miterlimit="1.5" stroke-linejoin="round"/>
<path fill-rule="evenodd" clip-rule="evenodd" d="M46.9364 30.9611C47.1531 30.8817 47.396 30.9386 47.5547 31.1059C48.1855 31.7678 48.8961 32.091 49.642 32.2618C49.7371 32.2842 49.8043 32.3692 49.8037 32.4669C49.8034 32.5646 49.7356 32.6496 49.6403 32.6713C48.7363 32.8836 47.8442 32.8061 46.9639 32.4214C46.2903 32.1268 46.3632 31.1725 46.9364 30.9611Z" fill="white" stroke="#242728" stroke-width="0.206731" stroke-miterlimit="1.5" stroke-linejoin="round"/>
<path d="M47.4438 31.0162C47.1178 30.7557 46.9586 30.5091 46.7559 30.2246" stroke="#242728" stroke-width="0.206731" stroke-miterlimit="1.5" stroke-linejoin="round"/>
<path d="M46.7535 32.3218C46.3666 32.1654 46.1437 31.9746 45.8682 31.7598" stroke="#242728" stroke-width="0.206731" stroke-miterlimit="1.5" stroke-linejoin="round"/>
<path d="M42.0316 34.9297C42.0316 34.9297 42.4969 35.9112 42.7834 36.5152C42.9277 36.8201 43.0045 37.1526 43.0078 37.49C43.0162 38.3069 43.0312 39.8141 43.0312 39.8141C43.031 40.3489 42.2847 40.7832 41.3654 40.7835C40.4464 40.7836 39.7001 40.3495 39.7002 39.8147L39.7007 37.9657" stroke="#242728" stroke-width="0.206731" stroke-miterlimit="1.5" stroke-linejoin="round"/>
<path d="M50.2344 33.3398L51.0251 35.2915C51.1893 35.7081 50.7632 36.2378 50.0742 36.4738" stroke="#242728" stroke-width="0.206731" stroke-miterlimit="1.5" stroke-linejoin="round"/>
<path d="M45.8361 36.1953L45.8711 37.657C45.8951 38.1782 45.2699 38.5677 44.4754 38.5264C43.6813 38.4849 43.0168 38.0283 42.9927 37.5071" stroke="#242728" stroke-width="0.206731" stroke-miterlimit="1.5" stroke-linejoin="round"/>
<path d="M49.7657 34.7949C49.2773 34.6278 48.6695 35.1089 48.4095 35.8686C48.1496 36.6282 48.3352 37.3808 48.8236 37.548" stroke="#242728" stroke-width="0.206731" stroke-miterlimit="1.5" stroke-linejoin="round"/>
<path d="M47.677 33.6562L49.8108 34.8211C50.7996 35.3047 49.8765 37.8407 48.8235 37.5484C47.3002 37.0163 45.8934 36.2661 44.6323 35.2432" stroke="#242728" stroke-width="0.206731" stroke-miterlimit="1.5" stroke-linejoin="round"/>
<path d="M65.9342 24.6094V22.9091H76.0656V24.6094H71.9811V36H70.0123V24.6094H65.9342ZM77.1315 36V26.1818H78.9788V27.7415H79.0811C79.26 27.2131 79.5754 26.7976 80.0271 26.495C80.483 26.1882 80.9987 26.0348 81.574 26.0348C81.6933 26.0348 81.8339 26.0391 81.9958 26.0476C82.162 26.0561 82.292 26.0668 82.3857 26.0795V27.9077C82.309 27.8864 82.1727 27.8629 81.9767 27.8374C81.7806 27.8075 81.5846 27.7926 81.3886 27.7926C80.9369 27.7926 80.5342 27.8885 80.1805 28.0803C79.8311 28.2678 79.5541 28.5298 79.3495 28.8665C79.145 29.1989 79.0427 29.5781 79.0427 30.0043V36H77.1315ZM85.5466 39.6818C85.2611 39.6818 85.0012 39.6584 84.7668 39.6115C84.5324 39.5689 84.3577 39.522 84.2426 39.4709L84.7029 37.9048C85.0523 37.9986 85.3634 38.0391 85.6361 38.0263C85.9088 38.0135 86.1496 37.9112 86.3584 37.7195C86.5715 37.5277 86.759 37.2145 86.9209 36.7798L87.1574 36.1278L83.5651 26.1818H85.6105L88.097 33.8011H88.1993L90.6858 26.1818H92.7377L88.6915 37.3104C88.504 37.8217 88.2654 38.2543 87.9756 38.608C87.6858 38.9659 87.3406 39.2344 86.9401 39.4134C86.5395 39.5923 86.075 39.6818 85.5466 39.6818ZM103.433 36.1982C102.513 36.1982 101.709 35.9872 101.023 35.5653C100.337 35.1435 99.8046 34.5533 99.4253 33.7947C99.0461 33.0362 98.8564 32.1499 98.8564 31.1357C98.8564 30.1172 99.0461 29.2266 99.4253 28.4638C99.8046 27.701 100.337 27.1087 101.023 26.6868C101.709 26.2649 102.513 26.054 103.433 26.054C104.354 26.054 105.157 26.2649 105.843 26.6868C106.529 27.1087 107.062 27.701 107.441 28.4638C107.82 29.2266 108.01 30.1172 108.01 31.1357C108.01 32.1499 107.82 33.0362 107.441 33.7947C107.062 34.5533 106.529 35.1435 105.843 35.5653C105.157 35.9872 104.354 36.1982 103.433 36.1982ZM103.44 34.5938C104.036 34.5938 104.53 34.4361 104.922 34.1207C105.315 33.8054 105.604 33.3857 105.792 32.8615C105.984 32.3374 106.079 31.7599 106.079 31.1293C106.079 30.5028 105.984 29.9276 105.792 29.4034C105.604 28.875 105.315 28.451 104.922 28.1314C104.53 27.8118 104.036 27.652 103.44 27.652C102.839 27.652 102.34 27.8118 101.944 28.1314C101.552 28.451 101.26 28.875 101.068 29.4034C100.881 29.9276 100.787 30.5028 100.787 31.1293C100.787 31.7599 100.881 32.3374 101.068 32.8615C101.26 33.3857 101.552 33.8054 101.944 34.1207C102.34 34.4361 102.839 34.5938 103.44 34.5938ZM112.054 30.1705V36H110.143V26.1818H111.978V27.7798H112.099C112.325 27.2599 112.679 26.8423 113.16 26.527C113.646 26.2116 114.258 26.054 114.995 26.054C115.664 26.054 116.25 26.1946 116.753 26.4759C117.255 26.7528 117.645 27.1662 117.922 27.7159C118.199 28.2656 118.338 28.9453 118.338 29.755V36H116.427V29.9851C116.427 29.2734 116.241 28.7173 115.87 28.3168C115.5 27.9119 114.991 27.7095 114.343 27.7095C113.9 27.7095 113.505 27.8054 113.16 27.9972C112.819 28.1889 112.549 28.4702 112.348 28.8409C112.152 29.2074 112.054 29.6506 112.054 30.1705ZM125.172 24.6094V22.9091H135.304V24.6094H131.219V36H129.251V24.6094H125.172ZM140.197 36.1982C139.23 36.1982 138.397 35.9915 137.698 35.5781C137.003 35.1605 136.466 34.5746 136.087 33.8203C135.712 33.0618 135.524 32.1733 135.524 31.1548C135.524 30.1491 135.712 29.2628 136.087 28.4957C136.466 27.7287 136.995 27.13 137.672 26.6996C138.354 26.2692 139.151 26.054 140.063 26.054C140.617 26.054 141.154 26.1456 141.674 26.3288C142.193 26.5121 142.66 26.7997 143.073 27.1918C143.487 27.5838 143.813 28.093 144.051 28.7195C144.29 29.3416 144.409 30.098 144.409 30.9886V31.6662H136.605V30.2344H142.536C142.536 29.7315 142.434 29.2862 142.23 28.8984C142.025 28.5064 141.737 28.1974 141.367 27.9716C141 27.7457 140.57 27.6328 140.076 27.6328C139.539 27.6328 139.07 27.7649 138.669 28.0291C138.273 28.2891 137.966 28.63 137.749 29.0518C137.536 29.4695 137.429 29.9233 137.429 30.4134V31.532C137.429 32.1882 137.544 32.7464 137.774 33.2067C138.009 33.6669 138.335 34.0185 138.752 34.2614C139.17 34.5 139.658 34.6193 140.216 34.6193C140.578 34.6193 140.909 34.5682 141.207 34.4659C141.505 34.3594 141.763 34.2017 141.98 33.9929C142.198 33.7841 142.364 33.5263 142.479 33.2195L144.288 33.5455C144.143 34.0781 143.883 34.5447 143.508 34.9453C143.137 35.3416 142.671 35.6506 142.108 35.8722C141.55 36.0895 140.913 36.1982 140.197 36.1982ZM146.53 36V26.1818H148.364V27.7798H148.486C148.69 27.2386 149.025 26.8168 149.489 26.5142C149.954 26.2074 150.51 26.054 151.158 26.054C151.814 26.054 152.364 26.2074 152.807 26.5142C153.254 26.821 153.585 27.2429 153.798 27.7798H153.9C154.134 27.2557 154.507 26.8381 155.019 26.527C155.53 26.2116 156.139 26.054 156.847 26.054C157.737 26.054 158.464 26.3331 159.026 26.8913C159.593 27.4496 159.877 28.2912 159.877 29.4162V36H157.965V29.5952C157.965 28.9304 157.784 28.4489 157.422 28.1506C157.06 27.8523 156.627 27.7031 156.124 27.7031C155.502 27.7031 155.019 27.8949 154.673 28.2784C154.328 28.6577 154.156 29.1456 154.156 29.7422V36H152.251V29.4737C152.251 28.9411 152.085 28.5128 151.752 28.1889C151.42 27.8651 150.987 27.7031 150.455 27.7031C150.092 27.7031 149.758 27.799 149.451 27.9908C149.149 28.1783 148.903 28.4403 148.716 28.777C148.533 29.1136 148.441 29.5036 148.441 29.9467V36H146.53ZM162.592 36V22.9091H164.503V27.7734H164.618C164.729 27.5689 164.888 27.3324 165.097 27.0639C165.306 26.7955 165.596 26.5611 165.967 26.3608C166.337 26.1562 166.827 26.054 167.437 26.054C168.229 26.054 168.937 26.2543 169.559 26.6548C170.181 27.0554 170.669 27.6328 171.023 28.3871C171.381 29.1413 171.56 30.049 171.56 31.1101C171.56 32.1712 171.383 33.081 171.029 33.8395C170.675 34.5937 170.19 35.1754 169.572 35.5845C168.954 35.9893 168.248 36.1918 167.456 36.1918C166.859 36.1918 166.371 36.0916 165.992 35.8913C165.617 35.6911 165.323 35.4567 165.11 35.1882C164.897 34.9197 164.733 34.6811 164.618 34.4723H164.458V36H162.592ZM164.464 31.0909C164.464 31.7812 164.565 32.3864 164.765 32.9062C164.965 33.4261 165.255 33.8331 165.634 34.1271C166.013 34.4169 166.478 34.5618 167.028 34.5618C167.599 34.5618 168.076 34.4105 168.459 34.108C168.843 33.8011 169.133 33.3857 169.329 32.8615C169.529 32.3374 169.629 31.7472 169.629 31.0909C169.629 30.4432 169.531 29.8615 169.335 29.3459C169.143 28.8303 168.854 28.4233 168.466 28.125C168.082 27.8267 167.603 27.6776 167.028 27.6776C166.474 27.6776 166.005 27.8203 165.621 28.1058C165.242 28.3913 164.954 28.7898 164.758 29.3011C164.562 29.8125 164.464 30.4091 164.464 31.0909ZM177.841 36.1982C176.921 36.1982 176.118 35.9872 175.432 35.5653C174.745 35.1435 174.213 34.5533 173.834 33.7947C173.454 33.0362 173.265 32.1499 173.265 31.1357C173.265 30.1172 173.454 29.2266 173.834 28.4638C174.213 27.701 174.745 27.1087 175.432 26.6868C176.118 26.2649 176.921 26.054 177.841 26.054C178.762 26.054 179.565 26.2649 180.251 26.6868C180.937 27.1087 181.47 27.701 181.849 28.4638C182.228 29.2266 182.418 30.1172 182.418 31.1357C182.418 32.1499 182.228 33.0362 181.849 33.7947C181.47 34.5533 180.937 35.1435 180.251 35.5653C179.565 35.9872 178.762 36.1982 177.841 36.1982ZM177.848 34.5938C178.444 34.5938 178.939 34.4361 179.331 34.1207C179.723 33.8054 180.013 33.3857 180.2 32.8615C180.392 32.3374 180.488 31.7599 180.488 31.1293C180.488 30.5028 180.392 29.9276 180.2 29.4034C180.013 28.875 179.723 28.451 179.331 28.1314C178.939 27.8118 178.444 27.652 177.848 27.652C177.247 27.652 176.748 27.8118 176.352 28.1314C175.96 28.451 175.668 28.875 175.476 29.4034C175.289 29.9276 175.195 30.5028 175.195 31.1293C175.195 31.7599 175.289 32.3374 175.476 32.8615C175.668 33.3857 175.96 33.8054 176.352 34.1207C176.748 34.4361 177.247 34.5938 177.848 34.5938ZM200.341 27.1662H198.347C198.27 26.7401 198.128 26.3651 197.919 26.0412C197.71 25.7173 197.454 25.4425 197.152 25.2166C196.849 24.9908 196.51 24.8203 196.135 24.7053C195.765 24.5902 195.37 24.5327 194.953 24.5327C194.199 24.5327 193.523 24.7223 192.927 25.1016C192.334 25.4808 191.866 26.0369 191.52 26.7699C191.179 27.5028 191.009 28.3977 191.009 29.4545C191.009 30.5199 191.179 31.419 191.52 32.152C191.866 32.8849 192.336 33.4389 192.933 33.8139C193.53 34.1889 194.201 34.3764 194.946 34.3764C195.36 34.3764 195.752 34.321 196.123 34.2102C196.498 34.0952 196.836 33.9268 197.139 33.7053C197.441 33.4837 197.697 33.2131 197.906 32.8935C198.119 32.5696 198.266 32.1989 198.347 31.7812L200.341 31.7876C200.235 32.4311 200.028 33.0234 199.721 33.5646C199.419 34.1016 199.029 34.5661 198.552 34.9581C198.079 35.3459 197.537 35.6463 196.928 35.8594C196.319 36.0724 195.654 36.179 194.934 36.179C193.8 36.179 192.79 35.9105 191.904 35.3736C191.017 34.8324 190.319 34.0589 189.807 33.0533C189.3 32.0476 189.047 30.848 189.047 29.4545C189.047 28.0568 189.302 26.8572 189.814 25.8558C190.325 24.8501 191.024 24.0788 191.91 23.5419C192.797 23.0007 193.804 22.7301 194.934 22.7301C195.628 22.7301 196.276 22.8303 196.877 23.0305C197.482 23.2266 198.025 23.5163 198.507 23.8999C198.988 24.2791 199.387 24.7436 199.702 25.2933C200.017 25.8388 200.231 26.4631 200.341 27.1662ZM204.463 22.9091V36H202.551V22.9091H204.463ZM211.169 36.1982C210.249 36.1982 209.446 35.9872 208.76 35.5653C208.074 35.1435 207.541 34.5533 207.162 33.7947C206.782 33.0362 206.593 32.1499 206.593 31.1357C206.593 30.1172 206.782 29.2266 207.162 28.4638C207.541 27.701 208.074 27.1087 208.76 26.6868C209.446 26.2649 210.249 26.054 211.169 26.054C212.09 26.054 212.893 26.2649 213.579 26.6868C214.265 27.1087 214.798 27.701 215.177 28.4638C215.557 29.2266 215.746 30.1172 215.746 31.1357C215.746 32.1499 215.557 33.0362 215.177 33.7947C214.798 34.5533 214.265 35.1435 213.579 35.5653C212.893 35.9872 212.09 36.1982 211.169 36.1982ZM211.176 34.5938C211.772 34.5938 212.267 34.4361 212.659 34.1207C213.051 33.8054 213.341 33.3857 213.528 32.8615C213.72 32.3374 213.816 31.7599 213.816 31.1293C213.816 30.5028 213.72 29.9276 213.528 29.4034C213.341 28.875 213.051 28.451 212.659 28.1314C212.267 27.8118 211.772 27.652 211.176 27.652C210.575 27.652 210.076 27.8118 209.68 28.1314C209.288 28.451 208.996 28.875 208.804 29.4034C208.617 29.9276 208.523 30.5028 208.523 31.1293C208.523 31.7599 208.617 32.3374 208.804 32.8615C208.996 33.3857 209.288 33.8054 209.68 34.1207C210.076 34.4361 210.575 34.5938 211.176 34.5938ZM224.099 31.9283V26.1818H226.017V36H224.137V34.2997H224.035C223.809 34.8239 223.447 35.2607 222.948 35.6101C222.454 35.9553 221.838 36.1278 221.101 36.1278C220.47 36.1278 219.912 35.9893 219.426 35.7124C218.945 35.4311 218.566 35.0156 218.289 34.4659C218.016 33.9162 217.88 33.2365 217.88 32.4268V26.1818H219.791V32.1967C219.791 32.8658 219.976 33.3984 220.347 33.7947C220.718 34.1911 221.199 34.3892 221.791 34.3892C222.149 34.3892 222.505 34.2997 222.859 34.1207C223.217 33.9418 223.513 33.6712 223.747 33.3089C223.986 32.9467 224.103 32.4865 224.099 31.9283ZM232.26 36.1918C231.467 36.1918 230.76 35.9893 230.138 35.5845C229.52 35.1754 229.034 34.5937 228.68 33.8395C228.331 33.081 228.156 32.1712 228.156 31.1101C228.156 30.049 228.333 29.1413 228.687 28.3871C229.045 27.6328 229.535 27.0554 230.157 26.6548C230.779 26.2543 231.484 26.054 232.273 26.054C232.882 26.054 233.372 26.1562 233.743 26.3608C234.118 26.5611 234.408 26.7955 234.612 27.0639C234.821 27.3324 234.983 27.5689 235.098 27.7734H235.213V22.9091H237.124V36H235.258V34.4723H235.098C234.983 34.6811 234.817 34.9197 234.6 35.1882C234.386 35.4567 234.092 35.6911 233.717 35.8913C233.342 36.0916 232.857 36.1918 232.26 36.1918ZM232.682 34.5618C233.232 34.5618 233.696 34.4169 234.075 34.1271C234.459 33.8331 234.749 33.4261 234.945 32.9062C235.145 32.3864 235.245 31.7812 235.245 31.0909C235.245 30.4091 235.147 29.8125 234.951 29.3011C234.755 28.7898 234.467 28.3913 234.088 28.1058C233.709 27.8203 233.24 27.6776 232.682 27.6776C232.107 27.6776 231.627 27.8267 231.244 28.125C230.86 28.4233 230.57 28.8303 230.374 29.3459C230.183 29.8615 230.087 30.4432 230.087 31.0909C230.087 31.7472 230.185 32.3374 230.381 32.8615C230.577 33.3857 230.867 33.8011 231.25 34.108C231.638 34.4105 232.115 34.5618 232.682 34.5618ZM242.262 22.9091L242.096 32.2351H240.325L240.159 22.9091H242.262ZM241.214 36.1214C240.86 36.1214 240.557 35.9979 240.306 35.7507C240.055 35.4993 239.931 35.1967 239.935 34.843C239.931 34.4936 240.055 34.1953 240.306 33.9482C240.557 33.6967 240.86 33.571 241.214 33.571C241.559 33.571 241.857 33.6967 242.109 33.9482C242.36 34.1953 242.488 34.4936 242.492 34.843C242.488 35.0774 242.426 35.2926 242.307 35.4886C242.192 35.6804 242.038 35.8338 241.847 35.9489C241.655 36.0639 241.444 36.1214 241.214 36.1214Z" fill="black"/>
</svg>
