<svg width="1440" height="683" viewBox="0 0 1440 683" fill="none" xmlns="http://www.w3.org/2000/svg">
<g opacity="0.4" clip-path="url(#clip0_5819_41362)">
<path d="M1028.93 451.665H1211.37V279.237H1028.93V451.665Z" fill="#414141"/>
<path opacity="0.5" d="M1028.93 451.665H1211.37V279.237H1028.93V451.665Z" fill="white"/>
<path d="M1031.58 279.237H1215L1206.11 263.184H1031.58V279.237Z" fill="#414141"/>
<path d="M1032.61 386.619H1210.38C1210.94 386.619 1211.4 386.16 1211.4 385.594V385.51C1211.4 384.944 1210.94 384.485 1210.38 384.485H1032.61C1032.04 384.485 1031.58 384.944 1031.58 385.51V385.594C1031.58 386.16 1032.04 386.619 1032.61 386.619Z" fill="white"/>
<path opacity="0.3" d="M1028.76 451.665H1211.21V385.538H1028.76V451.665Z" fill="white"/>
<path d="M1171.62 324.181H1185.96V295.235H1171.62V324.181Z" fill="black"/>
<path opacity="0.2" d="M1171.62 299.976L1185.96 312.064C1185.96 312.064 1185.96 319.301 1185.96 319.245C1185.96 319.19 1171.62 307.933 1171.62 307.989C1171.62 308.044 1171.62 299.976 1171.62 299.976Z" fill="white"/>
<path d="M1142.85 324.181H1157.19V295.235H1142.85V324.181Z" fill="black"/>
<path opacity="0.4" d="M1142.85 324.181H1157.19V295.235H1142.85V324.181Z" fill="white"/>
<path opacity="0.2" d="M1142.88 299.976L1157.22 312.064C1157.22 312.064 1157.22 319.301 1157.22 319.245C1157.22 319.19 1142.88 307.933 1142.88 307.989C1142.88 308.044 1142.88 299.976 1142.88 299.976Z" fill="white"/>
<path d="M1114.14 324.181H1128.48V295.235H1114.14V324.181Z" fill="black"/>
<path opacity="0.4" d="M1114.14 324.181H1128.48V295.235H1114.14V324.181Z" fill="white"/>
<path opacity="0.2" d="M1114.11 299.976L1128.46 312.064C1128.46 312.064 1128.46 319.301 1128.46 319.245C1128.46 319.19 1114.11 307.933 1114.11 307.989C1114.11 308.044 1114.11 299.976 1114.11 299.976Z" fill="white"/>
<path d="M1085.38 324.181H1099.72V295.235H1085.38V324.181Z" fill="black"/>
<path opacity="0.4" d="M1085.38 324.181H1099.72V295.235H1085.38V324.181Z" fill="white"/>
<path opacity="0.2" d="M1085.38 299.976L1099.72 312.064C1099.72 312.064 1099.72 319.301 1099.72 319.245C1099.72 319.19 1085.38 307.933 1085.38 307.989C1085.38 308.044 1085.38 299.976 1085.38 299.976Z" fill="white"/>
<path d="M1169.13 326.232H1187.62V324.097H1169.13V326.232Z" fill="white"/>
<path d="M1140.61 326.232H1159.1V324.097H1140.61V326.232Z" fill="white"/>
<path d="M1112.12 326.232H1130.62V324.097H1112.12V326.232Z" fill="white"/>
<path d="M1083.63 326.232H1102.13V324.097H1083.63V326.232Z" fill="white"/>
<path d="M1057.11 324.181H1071.45V295.235H1057.11V324.181Z" fill="black"/>
<path opacity="0.4" d="M1057.11 324.181H1071.45V295.235H1057.11V324.181Z" fill="white"/>
<path opacity="0.2" d="M1057.11 299.976L1071.45 312.064C1071.45 312.064 1071.45 319.301 1071.45 319.245C1071.45 319.19 1057.11 307.933 1057.11 307.989C1057.11 308.044 1057.11 299.976 1057.11 299.976Z" fill="white"/>
<path d="M1055.34 326.232H1073.83V324.097H1055.34V326.232Z" fill="white"/>
<path opacity="0.4" d="M1171.62 324.181H1185.96V295.235H1171.62V324.181Z" fill="white"/>
<path d="M1171.62 371.759H1185.96V342.813H1171.62V371.759Z" fill="black"/>
<path opacity="0.2" d="M1171.62 347.554L1185.96 359.642C1185.96 359.642 1185.96 366.879 1185.96 366.823C1185.96 366.768 1171.62 355.511 1171.62 355.594C1171.62 355.677 1171.62 347.581 1171.62 347.581V347.554Z" fill="white"/>
<path d="M1142.85 371.759H1157.19V342.813H1142.85V371.759Z" fill="black"/>
<path opacity="0.4" d="M1142.85 371.759H1157.19V342.813H1142.85V371.759Z" fill="white"/>
<path opacity="0.2" d="M1142.88 347.554L1157.22 359.642C1157.22 359.642 1157.22 366.879 1157.22 366.823C1157.22 366.768 1142.88 355.511 1142.88 355.594C1142.88 355.677 1142.88 347.581 1142.88 347.581V347.554Z" fill="white"/>
<path d="M1114.14 371.759H1128.48V342.813H1114.14V371.759Z" fill="black"/>
<path opacity="0.4" d="M1114.14 371.759H1128.48V342.813H1114.14V371.759Z" fill="white"/>
<path opacity="0.2" d="M1114.11 347.554L1128.46 359.642C1128.46 359.642 1128.46 366.879 1128.46 366.823C1128.46 366.768 1114.11 355.511 1114.11 355.594C1114.11 355.677 1114.11 347.581 1114.11 347.581V347.554Z" fill="white"/>
<path d="M1085.38 371.759H1099.72V342.813H1085.38V371.759Z" fill="black"/>
<path opacity="0.4" d="M1085.38 371.759H1099.72V342.813H1085.38V371.759Z" fill="white"/>
<path opacity="0.2" d="M1085.38 347.554L1099.72 359.642C1099.72 359.642 1099.72 366.879 1099.72 366.823C1099.72 366.768 1085.38 355.511 1085.38 355.594C1085.38 355.677 1085.38 347.581 1085.38 347.581V347.554Z" fill="white"/>
<path d="M1169.13 373.838H1187.62V371.703H1169.13V373.838Z" fill="white"/>
<path d="M1140.61 373.838H1159.1V371.703H1140.61V373.838Z" fill="white"/>
<path d="M1112.12 373.838H1130.62V371.703H1112.12V373.838Z" fill="white"/>
<path d="M1083.63 373.838H1102.13V371.703H1083.63V373.838Z" fill="white"/>
<path d="M1057.11 371.759H1071.45V342.813H1057.11V371.759Z" fill="black"/>
<path opacity="0.4" d="M1057.11 371.759H1071.45V342.813H1057.11V371.759Z" fill="white"/>
<path opacity="0.2" d="M1057.11 347.554L1071.45 359.642C1071.45 359.642 1071.45 366.879 1071.45 366.823C1071.45 366.768 1057.11 355.511 1057.11 355.594C1057.11 355.677 1057.11 347.581 1057.11 347.581V347.554Z" fill="white"/>
<path d="M1055.34 373.838H1073.83V371.703H1055.34V373.838Z" fill="white"/>
<path opacity="0.4" d="M1171.62 371.759H1185.96V342.813H1171.62V371.759Z" fill="white"/>
<path d="M1171.62 430.094H1185.96V401.148H1171.62V430.094Z" fill="black"/>
<path opacity="0.2" d="M1171.62 405.917L1185.96 418.005C1185.96 418.005 1185.96 425.242 1185.96 425.186C1185.96 425.131 1171.62 413.874 1171.62 413.929C1171.62 413.985 1171.62 405.917 1171.62 405.917Z" fill="white"/>
<path d="M1142.85 430.094H1157.19V401.148H1142.85V430.094Z" fill="black"/>
<path opacity="0.4" d="M1142.85 430.094H1157.19V401.148H1142.85V430.094Z" fill="white"/>
<path opacity="0.2" d="M1142.88 405.917L1157.22 418.005C1157.22 418.005 1157.22 425.242 1157.22 425.186C1157.22 425.131 1142.88 413.874 1142.88 413.929C1142.88 413.985 1142.88 405.917 1142.88 405.917Z" fill="white"/>
<path d="M1114.14 430.094H1128.48V401.148H1114.14V430.094Z" fill="black"/>
<path opacity="0.4" d="M1114.14 430.094H1128.48V401.148H1114.14V430.094Z" fill="white"/>
<path opacity="0.2" d="M1114.11 405.917L1128.46 418.005C1128.46 418.005 1128.46 425.242 1128.46 425.186C1128.46 425.131 1114.11 413.874 1114.11 413.929C1114.11 413.985 1114.11 405.917 1114.11 405.917Z" fill="white"/>
<path d="M1085.38 430.094H1099.72V401.148H1085.38V430.094Z" fill="black"/>
<path opacity="0.4" d="M1085.38 430.094H1099.72V401.148H1085.38V430.094Z" fill="white"/>
<path opacity="0.2" d="M1085.38 405.917L1099.72 418.005C1099.72 418.005 1099.72 425.242 1099.72 425.186C1099.72 425.131 1085.38 413.874 1085.38 413.929C1085.38 413.985 1085.38 405.917 1085.38 405.917Z" fill="white"/>
<path d="M1169.13 432.173H1187.62V430.038H1169.13V432.173Z" fill="white"/>
<path d="M1140.61 432.173H1159.1V430.038H1140.61V432.173Z" fill="white"/>
<path d="M1112.12 432.173H1130.62V430.038H1112.12V432.173Z" fill="white"/>
<path d="M1083.63 432.173H1102.13V430.038H1083.63V432.173Z" fill="white"/>
<path d="M1057.11 430.094H1071.45V401.148H1057.11V430.094Z" fill="black"/>
<path opacity="0.4" d="M1057.11 430.094H1071.45V401.148H1057.11V430.094Z" fill="white"/>
<path opacity="0.2" d="M1057.11 405.917L1071.45 418.005C1071.45 418.005 1071.45 425.242 1071.45 425.186C1071.45 425.131 1057.11 413.874 1057.11 413.929C1057.11 413.985 1057.11 405.917 1057.11 405.917Z" fill="white"/>
<path d="M1055.34 432.173H1073.83V430.038H1055.34V432.173Z" fill="white"/>
<path opacity="0.4" d="M1171.62 430.094H1185.96V401.148H1171.62V430.094Z" fill="white"/>
<path opacity="0.3" d="M1031.58 279.237H1215L1206.11 263.184H1031.58V279.237Z" fill="white"/>
<path opacity="0.2" d="M1028.93 281.677H1211.37V279.265H1028.93V281.677Z" fill="black"/>
<path opacity="0.1" d="M1071.95 451.332H1083.6V263.156H1071.95V451.332Z" fill="black"/>
<path d="M351.046 279.237H168.599V451.665H351.046V279.237Z" fill="#414141"/>
<path opacity="0.5" d="M351.046 279.237H168.599V451.665H351.046V279.237Z" fill="white"/>
<path d="M348.416 279.237H165L173.887 263.184H348.416V279.237Z" fill="#414141"/>
<path d="M347.392 384.485H169.623C169.058 384.485 168.599 384.944 168.599 385.51V385.594C168.599 386.16 169.058 386.619 169.623 386.619H347.392C347.958 386.619 348.416 386.16 348.416 385.594V385.51C348.416 384.944 347.958 384.485 347.392 384.485Z" fill="white"/>
<path opacity="0.3" d="M351.24 385.538H168.793V451.664H351.24V385.538Z" fill="white"/>
<path d="M208.383 295.207H194.042V324.153H208.383V295.207Z" fill="black"/>
<path opacity="0.2" d="M208.383 299.976L194.042 312.064C194.042 312.064 194.042 319.301 194.042 319.245C194.042 319.19 208.383 307.933 208.383 307.989C208.383 308.044 208.383 299.976 208.383 299.976Z" fill="white"/>
<path d="M237.121 295.207H222.78V324.153H237.121V295.207Z" fill="black"/>
<path opacity="0.4" d="M237.121 295.207H222.78V324.153H237.121V295.207Z" fill="white"/>
<path opacity="0.2" d="M237.121 299.976L222.78 312.064C222.78 312.064 222.78 319.301 222.78 319.245C222.78 319.19 237.121 307.933 237.121 307.989C237.121 308.044 237.121 299.976 237.121 299.976Z" fill="white"/>
<path d="M265.886 295.207H251.545V324.153H265.886V295.207Z" fill="black"/>
<path opacity="0.4" d="M265.886 295.207H251.545V324.153H265.886V295.207Z" fill="white"/>
<path opacity="0.2" d="M265.858 299.976L251.517 312.064C251.517 312.064 251.517 319.301 251.517 319.245C251.517 319.19 265.858 307.933 265.858 307.989C265.858 308.044 265.858 299.976 265.858 299.976Z" fill="white"/>
<path d="M294.623 295.207H280.282V324.153H294.623V295.207Z" fill="black"/>
<path opacity="0.4" d="M294.623 295.207H280.282V324.153H294.623V295.207Z" fill="white"/>
<path opacity="0.2" d="M294.623 299.976L280.282 312.064C280.282 312.064 280.282 319.301 280.282 319.245C280.282 319.19 294.623 307.933 294.623 307.989C294.623 308.044 294.623 299.976 294.623 299.976Z" fill="white"/>
<path d="M210.875 324.098H192.381V326.232H210.875V324.098Z" fill="white"/>
<path d="M239.363 324.098H220.869V326.232H239.363V324.098Z" fill="white"/>
<path d="M267.879 324.098H249.385V326.232H267.879V324.098Z" fill="white"/>
<path d="M296.367 324.098H277.874V326.232H296.367V324.098Z" fill="white"/>
<path d="M322.89 295.207H308.549V324.153H322.89V295.207Z" fill="black"/>
<path opacity="0.4" d="M322.89 295.207H308.549V324.153H322.89V295.207Z" fill="white"/>
<path opacity="0.2" d="M322.89 299.976L308.549 312.064C308.549 312.064 308.549 319.301 308.549 319.245C308.549 319.19 322.89 307.933 322.89 307.989C322.89 308.044 322.89 299.976 322.89 299.976Z" fill="white"/>
<path d="M324.635 324.098H306.141V326.232H324.635V324.098Z" fill="white"/>
<path opacity="0.4" d="M208.383 295.207H194.042V324.153H208.383V295.207Z" fill="white"/>
<path d="M208.383 342.785H194.042V371.731H208.383V342.785Z" fill="black"/>
<path opacity="0.2" d="M208.383 347.554L194.042 359.642C194.042 359.642 194.042 366.879 194.042 366.823C194.042 366.768 208.383 355.511 208.383 355.594C208.383 355.677 208.383 347.581 208.383 347.581V347.554Z" fill="white"/>
<path d="M237.121 342.785H222.78V371.731H237.121V342.785Z" fill="black"/>
<path opacity="0.4" d="M237.121 342.785H222.78V371.731H237.121V342.785Z" fill="white"/>
<path opacity="0.2" d="M237.121 347.554L222.78 359.642C222.78 359.642 222.78 366.879 222.78 366.823C222.78 366.768 237.121 355.511 237.121 355.594C237.121 355.677 237.121 347.581 237.121 347.581V347.554Z" fill="white"/>
<path d="M265.886 342.785H251.545V371.731H265.886V342.785Z" fill="black"/>
<path opacity="0.4" d="M265.886 342.785H251.545V371.731H265.886V342.785Z" fill="white"/>
<path opacity="0.2" d="M265.858 347.554L251.517 359.642C251.517 359.642 251.517 366.879 251.517 366.823C251.517 366.768 265.858 355.511 265.858 355.594C265.858 355.677 265.858 347.581 265.858 347.581V347.554Z" fill="white"/>
<path d="M294.623 342.785H280.282V371.731H294.623V342.785Z" fill="black"/>
<path opacity="0.4" d="M294.623 342.785H280.282V371.731H294.623V342.785Z" fill="white"/>
<path opacity="0.2" d="M294.623 347.554L280.282 359.642C280.282 359.642 280.282 366.879 280.282 366.823C280.282 366.768 294.623 355.511 294.623 355.594C294.623 355.677 294.623 347.581 294.623 347.581V347.554Z" fill="white"/>
<path d="M210.875 371.675H192.381V373.81H210.875V371.675Z" fill="white"/>
<path d="M239.363 371.675H220.869V373.81H239.363V371.675Z" fill="white"/>
<path d="M267.879 371.675H249.385V373.81H267.879V371.675Z" fill="white"/>
<path d="M296.367 371.675H277.874V373.81H296.367V371.675Z" fill="white"/>
<path d="M322.89 342.785H308.549V371.731H322.89V342.785Z" fill="black"/>
<path opacity="0.4" d="M322.89 342.785H308.549V371.731H322.89V342.785Z" fill="white"/>
<path opacity="0.2" d="M322.89 347.554L308.549 359.642C308.549 359.642 308.549 366.879 308.549 366.823C308.549 366.768 322.89 355.511 322.89 355.594C322.89 355.677 322.89 347.581 322.89 347.581V347.554Z" fill="white"/>
<path d="M324.635 371.675H306.141V373.81H324.635V371.675Z" fill="white"/>
<path opacity="0.4" d="M208.383 342.785H194.042V371.731H208.383V342.785Z" fill="white"/>
<path d="M208.383 401.148H194.042V430.094H208.383V401.148Z" fill="black"/>
<path opacity="0.2" d="M208.383 405.917L194.042 418.005C194.042 418.005 194.042 425.242 194.042 425.186C194.042 425.131 208.383 413.874 208.383 413.929C208.383 413.985 208.383 405.917 208.383 405.917Z" fill="white"/>
<path d="M237.121 401.148H222.78V430.094H237.121V401.148Z" fill="black"/>
<path opacity="0.4" d="M237.121 401.148H222.78V430.094H237.121V401.148Z" fill="white"/>
<path opacity="0.2" d="M237.121 405.917L222.78 418.005C222.78 418.005 222.78 425.242 222.78 425.186C222.78 425.131 237.121 413.874 237.121 413.929C237.121 413.985 237.121 405.917 237.121 405.917Z" fill="white"/>
<path d="M265.886 401.148H251.545V430.094H265.886V401.148Z" fill="black"/>
<path opacity="0.4" d="M265.886 401.148H251.545V430.094H265.886V401.148Z" fill="white"/>
<path opacity="0.2" d="M265.858 405.917L251.517 418.005C251.517 418.005 251.517 425.242 251.517 425.186C251.517 425.131 265.858 413.874 265.858 413.929C265.858 413.985 265.858 405.917 265.858 405.917Z" fill="white"/>
<path d="M294.623 401.148H280.282V430.094H294.623V401.148Z" fill="black"/>
<path opacity="0.4" d="M294.623 401.148H280.282V430.094H294.623V401.148Z" fill="white"/>
<path opacity="0.2" d="M294.623 405.917L280.282 418.005C280.282 418.005 280.282 425.242 280.282 425.186C280.282 425.131 294.623 413.874 294.623 413.929C294.623 413.985 294.623 405.917 294.623 405.917Z" fill="white"/>
<path d="M210.875 430.038H192.381V432.173H210.875V430.038Z" fill="white"/>
<path d="M239.363 430.038H220.869V432.173H239.363V430.038Z" fill="white"/>
<path d="M267.879 430.038H249.385V432.173H267.879V430.038Z" fill="white"/>
<path d="M296.367 430.038H277.874V432.173H296.367V430.038Z" fill="white"/>
<path d="M322.89 401.148H308.549V430.094H322.89V401.148Z" fill="black"/>
<path opacity="0.4" d="M322.89 401.148H308.549V430.094H322.89V401.148Z" fill="white"/>
<path opacity="0.2" d="M322.89 405.917L308.549 418.005C308.549 418.005 308.549 425.242 308.549 425.186C308.549 425.131 322.89 413.874 322.89 413.929C322.89 413.985 322.89 405.917 322.89 405.917Z" fill="white"/>
<path d="M324.635 430.038H306.141V432.173H324.635V430.038Z" fill="white"/>
<path opacity="0.4" d="M208.383 401.148H194.042V430.094H208.383V401.148Z" fill="white"/>
<path opacity="0.3" d="M348.416 279.237H165L173.887 263.184H348.416V279.237Z" fill="white"/>
<path opacity="0.2" d="M351.046 279.237H168.599V281.649H351.046V279.237Z" fill="black"/>
<path d="M812.868 188.961H568.82V427.044H812.868V188.961Z" fill="#414141"/>
<path opacity="0.5" d="M812.868 188.961H568.82V427.044H812.868V188.961Z" fill="white"/>
<path opacity="0.3" d="M801.822 337.378H582.58V422.525H801.822V337.378Z" fill="white"/>
<path d="M800.382 337.378H584.685V342.286H800.382V337.378Z" fill="white"/>
<path opacity="0.1" d="M592.824 422.386C595.288 422.386 592.824 213.665 592.824 213.665L605.725 203.296H785.847L792.298 209.756V422.414H814.945V185.107H579.452C579.452 185.107 575.825 428.68 579.452 425.048C583.079 421.416 592.852 422.386 592.852 422.386H592.824Z" fill="black"/>
<path d="M557.248 216.216H308.079V451.665H557.248V216.216Z" fill="#414141"/>
<path opacity="0.5" d="M557.248 216.216H308.079V451.665H557.248V216.216Z" fill="white"/>
<path d="M553.649 216.216H303.178L315.304 194.257H553.649V216.216Z" fill="#414141"/>
<path d="M309.491 359.92H552.237C553.012 359.92 553.649 360.557 553.649 361.334V361.445C553.649 362.221 553.012 362.859 552.237 362.859H309.491C308.715 362.859 308.079 362.221 308.079 361.445V361.334C308.079 360.557 308.715 359.92 309.491 359.92Z" fill="white"/>
<path opacity="0.3" d="M557.525 361.361H308.355V451.665H557.525V361.361Z" fill="white"/>
<path d="M362.398 238.009H342.824V277.546H362.398V238.009Z" fill="black"/>
<path opacity="0.2" d="M362.398 244.524L342.824 261.021C342.824 261.021 342.824 270.892 342.824 270.809C342.824 270.725 362.398 255.365 362.398 255.448C362.398 255.532 362.398 244.497 362.398 244.497V244.524Z" fill="white"/>
<path d="M401.656 238.009H382.082V277.546H401.656V238.009Z" fill="black"/>
<path opacity="0.4" d="M401.656 238.009H382.082V277.546H401.656V238.009Z" fill="white"/>
<path opacity="0.2" d="M401.656 244.524L382.082 261.021C382.082 261.021 382.082 270.892 382.082 270.809C382.082 270.725 401.656 255.365 401.656 255.448C401.656 255.532 401.656 244.497 401.656 244.497V244.524Z" fill="white"/>
<path d="M440.914 238.009H421.34V277.546H440.914V238.009Z" fill="black"/>
<path opacity="0.4" d="M440.914 238.009H421.34V277.546H440.914V238.009Z" fill="white"/>
<path opacity="0.2" d="M440.914 244.524L421.34 261.021C421.34 261.021 421.34 270.892 421.34 270.809C421.34 270.725 440.914 255.365 440.914 255.448C440.914 255.532 440.914 244.497 440.914 244.497V244.524Z" fill="white"/>
<path d="M480.172 238.009H460.598V277.546H480.172V238.009Z" fill="black"/>
<path opacity="0.4" d="M480.172 238.009H460.598V277.546H480.172V238.009Z" fill="white"/>
<path opacity="0.2" d="M480.172 244.524L460.598 261.021C460.598 261.021 460.598 270.892 460.598 270.809C460.598 270.725 480.172 255.365 480.172 255.448C480.172 255.532 480.172 244.497 480.172 244.497V244.524Z" fill="white"/>
<path d="M365.803 277.463H340.554V280.374H365.803V277.463Z" fill="white"/>
<path d="M404.729 277.463H379.479V280.374H404.729V277.463Z" fill="white"/>
<path d="M443.654 277.463H418.405V280.374H443.654V277.463Z" fill="white"/>
<path d="M482.58 277.463H457.331V280.374H482.58V277.463Z" fill="white"/>
<path d="M518.766 238.009H499.192V277.546H518.766V238.009Z" fill="black"/>
<path opacity="0.4" d="M518.766 238.009H499.192V277.546H518.766V238.009Z" fill="white"/>
<path opacity="0.2" d="M518.766 244.524L499.192 261.021C499.192 261.021 499.192 270.892 499.192 270.809C499.192 270.725 518.766 255.365 518.766 255.448C518.766 255.532 518.766 244.497 518.766 244.497V244.524Z" fill="white"/>
<path d="M521.174 277.463H495.925V280.374H521.174V277.463Z" fill="white"/>
<path opacity="0.4" d="M362.398 238.009H342.824V277.546H362.398V238.009Z" fill="white"/>
<path d="M362.398 302.998H342.824V342.535H362.398V302.998Z" fill="black"/>
<path opacity="0.2" d="M362.398 309.486L342.824 325.983C342.824 325.983 342.824 335.853 342.824 335.77C342.824 335.687 362.398 320.327 362.398 320.41C362.398 320.493 362.398 309.458 362.398 309.458V309.486Z" fill="white"/>
<path d="M401.656 302.998H382.082V342.535H401.656V302.998Z" fill="black"/>
<path opacity="0.4" d="M401.656 302.998H382.082V342.535H401.656V302.998Z" fill="white"/>
<path opacity="0.2" d="M401.656 309.486L382.082 325.983C382.082 325.983 382.082 335.853 382.082 335.77C382.082 335.687 401.656 320.327 401.656 320.41C401.656 320.493 401.656 309.458 401.656 309.458V309.486Z" fill="white"/>
<path d="M440.914 302.998H421.34V342.535H440.914V302.998Z" fill="black"/>
<path opacity="0.4" d="M440.914 302.998H421.34V342.535H440.914V302.998Z" fill="white"/>
<path opacity="0.2" d="M440.914 309.486L421.34 325.983C421.34 325.983 421.34 335.853 421.34 335.77C421.34 335.687 440.914 320.327 440.914 320.41C440.914 320.493 440.914 309.458 440.914 309.458V309.486Z" fill="white"/>
<path d="M480.172 302.998H460.598V342.535H480.172V302.998Z" fill="black"/>
<path opacity="0.4" d="M480.172 302.998H460.598V342.535H480.172V302.998Z" fill="white"/>
<path opacity="0.2" d="M480.172 309.486L460.598 325.983C460.598 325.983 460.598 335.853 460.598 335.77C460.598 335.687 480.172 320.327 480.172 320.41C480.172 320.493 480.172 309.458 480.172 309.458V309.486Z" fill="white"/>
<path d="M365.803 342.452H340.554V345.363H365.803V342.452Z" fill="white"/>
<path d="M404.729 342.452H379.479V345.363H404.729V342.452Z" fill="white"/>
<path d="M443.654 342.452H418.405V345.363H443.654V342.452Z" fill="white"/>
<path d="M482.58 342.452H457.331V345.363H482.58V342.452Z" fill="white"/>
<path d="M518.766 302.998H499.192V342.535H518.766V302.998Z" fill="black"/>
<path opacity="0.4" d="M518.766 302.998H499.192V342.535H518.766V302.998Z" fill="white"/>
<path opacity="0.2" d="M518.766 309.486L499.192 325.983C499.192 325.983 499.192 335.853 499.192 335.77C499.192 335.687 518.766 320.327 518.766 320.41C518.766 320.493 518.766 309.458 518.766 309.458V309.486Z" fill="white"/>
<path d="M521.174 342.452H495.925V345.363H521.174V342.452Z" fill="white"/>
<path opacity="0.4" d="M362.398 302.998H342.824V342.535H362.398V302.998Z" fill="white"/>
<path d="M362.398 382.682H342.824V422.22H362.398V382.682Z" fill="black"/>
<path opacity="0.2" d="M362.398 389.17L342.824 405.667C342.824 405.667 342.824 415.538 342.824 415.454C342.824 415.371 362.398 400.011 362.398 400.094C362.398 400.177 362.398 389.143 362.398 389.143V389.17Z" fill="white"/>
<path d="M401.656 382.682H382.082V422.22H401.656V382.682Z" fill="black"/>
<path opacity="0.4" d="M401.656 382.682H382.082V422.22H401.656V382.682Z" fill="white"/>
<path opacity="0.2" d="M401.656 389.17L382.082 405.667C382.082 405.667 382.082 415.538 382.082 415.454C382.082 415.371 401.656 400.011 401.656 400.094C401.656 400.177 401.656 389.143 401.656 389.143V389.17Z" fill="white"/>
<path d="M440.914 382.682H421.34V422.22H440.914V382.682Z" fill="black"/>
<path opacity="0.4" d="M440.914 382.682H421.34V422.22H440.914V382.682Z" fill="white"/>
<path opacity="0.2" d="M440.914 389.17L421.34 405.667C421.34 405.667 421.34 415.538 421.34 415.454C421.34 415.371 440.914 400.011 440.914 400.094C440.914 400.177 440.914 389.143 440.914 389.143V389.17Z" fill="white"/>
<path d="M480.172 382.682H460.598V422.22H480.172V382.682Z" fill="black"/>
<path opacity="0.4" d="M480.172 382.682H460.598V422.22H480.172V382.682Z" fill="white"/>
<path opacity="0.2" d="M480.172 389.17L460.598 405.667C460.598 405.667 460.598 415.538 460.598 415.454C460.598 415.371 480.172 400.011 480.172 400.094C480.172 400.177 480.172 389.143 480.172 389.143V389.17Z" fill="white"/>
<path d="M365.803 422.136H340.554V425.048H365.803V422.136Z" fill="white"/>
<path d="M404.729 422.136H379.479V425.048H404.729V422.136Z" fill="white"/>
<path d="M443.654 422.136H418.405V425.048H443.654V422.136Z" fill="white"/>
<path d="M482.58 422.136H457.331V425.048H482.58V422.136Z" fill="white"/>
<path d="M518.766 382.682H499.192V422.22H518.766V382.682Z" fill="black"/>
<path opacity="0.4" d="M518.766 382.682H499.192V422.22H518.766V382.682Z" fill="white"/>
<path opacity="0.2" d="M518.766 389.17L499.192 405.667C499.192 405.667 499.192 415.538 499.192 415.454C499.192 415.371 518.766 400.011 518.766 400.094C518.766 400.177 518.766 389.143 518.766 389.143V389.17Z" fill="white"/>
<path d="M521.174 422.136H495.925V425.048H521.174V422.136Z" fill="white"/>
<path opacity="0.4" d="M362.398 382.682H342.824V422.22H362.398V382.682Z" fill="white"/>
<path opacity="0.3" d="M553.649 216.216H303.178L315.304 194.257H553.649V216.216Z" fill="white"/>
<path opacity="0.2" d="M557.248 216.216H308.079V219.515H557.248V216.216Z" fill="black"/>
<path d="M825.133 450.556L1074.3 450.556V215.107L825.133 215.107V450.556Z" fill="#414141"/>
<path opacity="0.5" d="M825.133 450.556L1074.3 450.556V215.107L825.133 215.107V450.556Z" fill="white"/>
<path d="M828.759 215.107H1079.23L1067.08 193.148H828.759V215.107Z" fill="#414141"/>
<path d="M1072.92 361.722L830.172 361.722C829.397 361.722 828.76 361.084 828.76 360.308V360.197C828.76 359.42 829.397 358.783 830.172 358.783L1072.92 358.783C1073.69 358.783 1074.33 359.42 1074.33 360.197V360.308C1074.33 361.084 1073.69 361.722 1072.92 361.722Z" fill="white"/>
<path opacity="0.3" d="M824.856 450.556L1074.03 450.556V360.252H824.856V450.556Z" fill="white"/>
<path d="M1019.98 276.437H1039.56V236.899H1019.98V276.437Z" fill="black"/>
<path opacity="0.2" d="M1019.98 243.415L1039.56 259.912C1039.56 259.912 1039.56 269.782 1039.56 269.699C1039.56 269.616 1019.98 254.256 1019.98 254.339C1019.98 254.422 1019.98 243.387 1019.98 243.387V243.415Z" fill="white"/>
<path d="M980.726 276.437H1000.3V236.899H980.726V276.437Z" fill="black"/>
<path opacity="0.4" d="M980.726 276.437H1000.3V236.899H980.726V276.437Z" fill="white"/>
<path opacity="0.2" d="M980.726 243.415L1000.3 259.912C1000.3 259.912 1000.3 269.782 1000.3 269.699C1000.3 269.616 980.726 254.256 980.726 254.339C980.726 254.422 980.726 243.387 980.726 243.387V243.415Z" fill="white"/>
<path d="M941.467 276.437H961.041V236.899H941.467V276.437Z" fill="black"/>
<path opacity="0.4" d="M941.467 276.437H961.041V236.899H941.467V276.437Z" fill="white"/>
<path opacity="0.2" d="M941.467 243.415L961.041 259.912C961.041 259.912 961.041 269.782 961.041 269.699C961.041 269.616 941.467 254.256 941.467 254.339C941.467 254.422 941.467 243.387 941.467 243.387V243.415Z" fill="white"/>
<path d="M902.21 276.437H921.783V236.899H902.21V276.437Z" fill="black"/>
<path opacity="0.4" d="M902.21 276.437H921.783V236.899H902.21V276.437Z" fill="white"/>
<path opacity="0.2" d="M902.209 243.415L921.783 259.912C921.783 259.912 921.783 269.782 921.783 269.699C921.783 269.616 902.209 254.256 902.209 254.339C902.209 254.422 902.209 243.387 902.209 243.387V243.415Z" fill="white"/>
<path d="M1016.61 279.292H1041.85V276.381H1016.61V279.292Z" fill="white"/>
<path d="M977.68 279.292H1002.93V276.381H977.68V279.292Z" fill="white"/>
<path d="M938.754 279.292H964.003V276.381H938.754V279.292Z" fill="white"/>
<path d="M899.828 279.292H925.078V276.381H899.828V279.292Z" fill="white"/>
<path d="M863.616 276.437H883.189V236.899H863.616V276.437Z" fill="black"/>
<path opacity="0.4" d="M863.616 276.437H883.189V236.899H863.616V276.437Z" fill="white"/>
<path opacity="0.2" d="M863.616 243.415L883.189 259.912C883.189 259.912 883.189 269.782 883.189 269.699C883.189 269.616 863.616 254.256 863.616 254.339C863.616 254.422 863.616 243.387 863.616 243.387V243.415Z" fill="white"/>
<path d="M861.235 279.292H886.484V276.381H861.235V279.292Z" fill="white"/>
<path opacity="0.4" d="M1019.98 276.437H1039.56V236.899H1019.98V276.437Z" fill="white"/>
<path d="M1019.98 341.426H1039.56V301.889H1019.98V341.426Z" fill="black"/>
<path opacity="0.2" d="M1019.98 308.405L1039.56 324.902C1039.56 324.902 1039.56 334.772 1039.56 334.689C1039.56 334.606 1019.98 319.245 1019.98 319.329C1019.98 319.412 1019.98 308.377 1019.98 308.377V308.405Z" fill="white"/>
<path d="M980.726 341.426H1000.3V301.889H980.726V341.426Z" fill="black"/>
<path opacity="0.4" d="M980.726 341.426H1000.3V301.889H980.726V341.426Z" fill="white"/>
<path opacity="0.2" d="M980.726 308.405L1000.3 324.902C1000.3 324.902 1000.3 334.772 1000.3 334.689C1000.3 334.606 980.726 319.245 980.726 319.329C980.726 319.412 980.726 308.377 980.726 308.377V308.405Z" fill="white"/>
<path d="M941.467 341.426H961.041V301.889H941.467V341.426Z" fill="black"/>
<path opacity="0.4" d="M941.467 341.426H961.041V301.889H941.467V341.426Z" fill="white"/>
<path opacity="0.2" d="M941.467 308.405L961.041 324.902C961.041 324.902 961.041 334.772 961.041 334.689C961.041 334.606 941.467 319.245 941.467 319.329C941.467 319.412 941.467 308.377 941.467 308.377V308.405Z" fill="white"/>
<path d="M902.21 341.426H921.783V301.889H902.21V341.426Z" fill="black"/>
<path opacity="0.4" d="M902.21 341.426H921.783V301.889H902.21V341.426Z" fill="white"/>
<path opacity="0.2" d="M902.209 308.405L921.783 324.902C921.783 324.902 921.783 334.772 921.783 334.689C921.783 334.606 902.209 319.245 902.209 319.329C902.209 319.412 902.209 308.377 902.209 308.377V308.405Z" fill="white"/>
<path d="M1016.61 344.254H1041.85V341.343H1016.61V344.254Z" fill="white"/>
<path d="M977.68 344.254H1002.93V341.343H977.68V344.254Z" fill="white"/>
<path d="M938.754 344.254H964.003V341.343H938.754V344.254Z" fill="white"/>
<path d="M899.828 344.254H925.078V341.343H899.828V344.254Z" fill="white"/>
<path d="M863.616 341.426H883.189V301.889H863.616V341.426Z" fill="black"/>
<path opacity="0.4" d="M863.616 341.426H883.189V301.889H863.616V341.426Z" fill="white"/>
<path opacity="0.2" d="M863.616 308.405L883.189 324.902C883.189 324.902 883.189 334.772 883.189 334.689C883.189 334.606 863.616 319.245 863.616 319.329C863.616 319.412 863.616 308.377 863.616 308.377V308.405Z" fill="white"/>
<path d="M861.235 344.254H886.484V341.343H861.235V344.254Z" fill="white"/>
<path opacity="0.4" d="M1019.98 341.426H1039.56V301.889H1019.98V341.426Z" fill="white"/>
<path d="M1019.98 421.11H1039.56V381.573H1019.98V421.11Z" fill="black"/>
<path opacity="0.2" d="M1019.98 388.089L1039.56 404.586C1039.56 404.586 1039.56 414.456 1039.56 414.373C1039.56 414.29 1019.98 398.93 1019.98 399.013C1019.98 399.096 1019.98 388.061 1019.98 388.061V388.089Z" fill="white"/>
<path d="M980.726 421.11H1000.3V381.573H980.726V421.11Z" fill="black"/>
<path opacity="0.4" d="M980.726 421.11H1000.3V381.573H980.726V421.11Z" fill="white"/>
<path opacity="0.2" d="M980.935 387.434L1000.51 403.931C1000.51 403.931 1000.51 413.802 1000.51 413.718C1000.51 413.635 980.935 398.275 980.935 398.358C980.935 398.441 980.935 387.407 980.935 387.407V387.434Z" fill="white"/>
<path d="M941.467 421.11H961.041V381.573H941.467V421.11Z" fill="black"/>
<path opacity="0.4" d="M941.467 421.11H961.041V381.573H941.467V421.11Z" fill="white"/>
<path opacity="0.2" d="M941.467 388.089L961.041 404.586C961.041 404.586 961.041 414.456 961.041 414.373C961.041 414.29 941.467 398.93 941.467 399.013C941.467 399.096 941.467 388.061 941.467 388.061V388.089Z" fill="white"/>
<path d="M902.21 421.11H921.783V381.573H902.21V421.11Z" fill="black"/>
<path opacity="0.4" d="M902.21 421.11H921.783V381.573H902.21V421.11Z" fill="white"/>
<path opacity="0.2" d="M902.209 388.089L921.783 404.586C921.783 404.586 921.783 414.456 921.783 414.373C921.783 414.29 902.209 398.93 902.209 399.013C902.209 399.096 902.209 388.061 902.209 388.061V388.089Z" fill="white"/>
<path d="M1016.61 423.939H1041.85V421.027H1016.61V423.939Z" fill="white"/>
<path d="M977.68 423.939H1002.93V421.027H977.68V423.939Z" fill="white"/>
<path d="M938.754 423.939H964.003V421.027H938.754V423.939Z" fill="white"/>
<path d="M899.828 423.939H925.078V421.027H899.828V423.939Z" fill="white"/>
<path d="M863.616 421.11H883.189V381.573H863.616V421.11Z" fill="black"/>
<path opacity="0.4" d="M863.616 421.11H883.189V381.573H863.616V421.11Z" fill="white"/>
<path opacity="0.2" d="M863.616 388.089L883.189 404.586C883.189 404.586 883.189 414.456 883.189 414.373C883.189 414.29 863.616 398.93 863.616 399.013C863.616 399.096 863.616 388.061 863.616 388.061V388.089Z" fill="white"/>
<path d="M861.235 423.939H886.484V421.027H861.235V423.939Z" fill="white"/>
<path opacity="0.4" d="M1019.98 421.11H1039.56V381.573H1019.98V421.11Z" fill="white"/>
<path opacity="0.3" d="M828.759 215.107H1079.23L1067.08 193.148H828.759V215.107Z" fill="white"/>
<path opacity="0.2" d="M825.133 218.406L1074.3 218.406V215.107L825.133 215.107V218.406Z" fill="black"/>
<path d="M639.751 235.236H618.405V291.076H639.751V235.236Z" fill="black"/>
<path opacity="0.4" d="M639.751 235.236H618.405V291.076H639.751V235.236Z" fill="white"/>
<path opacity="0.2" d="M639.751 244.441L618.405 267.758C618.405 267.758 618.405 281.732 618.405 281.594C618.405 281.455 639.751 259.773 639.751 259.912C639.751 260.051 639.751 244.441 639.751 244.441Z" fill="white"/>
<path d="M682.553 235.236H661.208V291.076H682.553V235.236Z" fill="black"/>
<path opacity="0.4" d="M682.553 235.236H661.208V291.076H682.553V235.236Z" fill="white"/>
<path opacity="0.2" d="M682.525 244.441L661.18 267.758C661.18 267.758 661.18 281.732 661.18 281.594C661.18 281.455 682.525 259.773 682.525 259.912C682.525 260.051 682.525 244.441 682.525 244.441Z" fill="white"/>
<path d="M725.327 235.236H703.981V291.076H725.327V235.236Z" fill="black"/>
<path opacity="0.4" d="M725.327 235.236H703.981V291.076H725.327V235.236Z" fill="white"/>
<path opacity="0.2" d="M725.299 244.441L703.954 267.758C703.954 267.758 703.954 281.732 703.954 281.594C703.954 281.455 725.299 259.773 725.299 259.912C725.299 260.051 725.299 244.441 725.299 244.441Z" fill="white"/>
<path d="M768.101 235.236H746.755V291.076H768.101V235.236Z" fill="black"/>
<path opacity="0.4" d="M768.101 235.236H746.755V291.076H768.101V235.236Z" fill="white"/>
<path opacity="0.2" d="M768.073 244.441L746.728 267.758C746.728 267.758 746.728 281.732 746.728 281.594C746.728 281.455 768.073 259.773 768.073 259.912C768.073 260.051 768.073 244.441 768.073 244.441Z" fill="white"/>
<path d="M643.461 291.02H615.941V294.181H643.461V291.02Z" fill="white"/>
<path d="M685.875 291.02H658.355V294.181H685.875V291.02Z" fill="white"/>
<path d="M728.289 291.02H700.77V294.181H728.289V291.02Z" fill="white"/>
<path d="M770.703 291.02H743.184V294.181H770.703V291.02Z" fill="white"/>
<path d="M546.146 197.889V188.961H592.824V197.889L584.02 203.296H553.649L546.146 197.889Z" fill="#414141"/>
<path d="M584.02 203.296H553.649V432.201H584.02V203.296Z" fill="#414141"/>
<g opacity="0.4">
<path d="M546.146 197.889V188.961H592.824V197.889L584.02 203.296H553.649L546.146 197.889Z" fill="white"/>
<path d="M584.02 203.296H553.649V432.201H584.02V203.296Z" fill="white"/>
</g>
<path opacity="0.2" d="M546.146 197.889H592.824L584.02 203.296H553.649L546.146 197.889Z" fill="black"/>
<path opacity="0.2" d="M560.903 209.118H560.792C560.104 209.118 559.546 209.677 559.546 210.366V425.103C559.546 425.792 560.104 426.351 560.792 426.351H560.903C561.591 426.351 562.148 425.792 562.148 425.103V210.366C562.148 209.677 561.591 209.118 560.903 209.118Z" fill="black"/>
<path opacity="0.2" d="M569.568 209.118H569.457C568.769 209.118 568.211 209.677 568.211 210.366V425.103C568.211 425.792 568.769 426.351 569.457 426.351H569.568C570.256 426.351 570.814 425.792 570.814 425.103V210.366C570.814 209.677 570.256 209.118 569.568 209.118Z" fill="black"/>
<path opacity="0.2" d="M578.206 209.118H578.095C577.407 209.118 576.849 209.677 576.849 210.366V425.103C576.849 425.792 577.407 426.351 578.095 426.351H578.206C578.894 426.351 579.452 425.792 579.452 425.103V210.366C579.452 209.677 578.894 209.118 578.206 209.118Z" fill="black"/>
<path d="M792.879 197.889V188.961H839.557V197.889L830.753 203.296H800.382L792.879 197.889Z" fill="#414141"/>
<path d="M830.753 203.296H800.382V432.201H830.753V203.296Z" fill="#414141"/>
<g opacity="0.4">
<path d="M792.879 197.889V188.961H839.557V197.889L830.753 203.296H800.382L792.879 197.889Z" fill="white"/>
<path d="M830.753 203.296H800.382V432.201H830.753V203.296Z" fill="white"/>
</g>
<path opacity="0.2" d="M792.879 197.889H839.557L830.753 203.296H800.382L792.879 197.889Z" fill="black"/>
<path opacity="0.2" d="M807.636 209.118H807.525C806.837 209.118 806.279 209.677 806.279 210.366V425.103C806.279 425.792 806.837 426.351 807.525 426.351H807.636C808.324 426.351 808.882 425.792 808.882 425.103V210.366C808.882 209.677 808.324 209.118 807.636 209.118Z" fill="black"/>
<path opacity="0.2" d="M816.301 209.118H816.191C815.503 209.118 814.945 209.677 814.945 210.366V425.103C814.945 425.792 815.503 426.351 816.191 426.351H816.301C816.989 426.351 817.547 425.792 817.547 425.103V210.366C817.547 209.677 816.989 209.118 816.301 209.118Z" fill="black"/>
<path opacity="0.2" d="M824.939 209.118H824.828C824.14 209.118 823.583 209.677 823.583 210.366V425.103C823.583 425.792 824.14 426.351 824.828 426.351H824.939C825.627 426.351 826.185 425.792 826.185 425.103V210.366C826.185 209.677 825.627 209.118 824.939 209.118Z" fill="black"/>
<path d="M868.239 432.173H507.054V441.96H868.239V432.173Z" fill="#414141"/>
<path d="M854.59 422.386H521.533V432.173H854.59V422.386Z" fill="#414141"/>
<path d="M880.088 441.849H492.824V451.637H880.088V441.849Z" fill="#414141"/>
<path d="M531.362 171.328C532.968 171.328 694.319 94 694.319 94L856.196 171.328H531.362Z" fill="#414141"/>
<path opacity="0.2" d="M568.405 163.148C591.689 152.169 630.199 133.787 694.347 103.039L820.177 163.148H568.405Z" fill="white"/>
<path opacity="0.3" d="M531.362 171.328C532.968 171.328 694.319 94 694.319 94L856.196 171.328H531.362Z" fill="white"/>
<path d="M856.224 188.961H534.601H530.892V171.328H856.224V188.961Z" fill="#414141"/>
<path opacity="0.3" d="M856.224 188.961H534.601H530.892V171.328H856.224V188.961Z" fill="white"/>
<path opacity="0.2" d="M856.196 171.328H530.892V173.49H856.196V171.328Z" fill="black"/>
<path opacity="0.2" d="M576.019 159.544C577.403 158.823 811.927 159.211 811.927 159.211L820.15 163.149H568.378L575.991 159.544H576.019Z" fill="black"/>
<g opacity="0.3">
<path d="M868.239 432.173H507.054V441.96H868.239V432.173Z" fill="white"/>
<path d="M854.59 422.386H521.533V432.173H854.59V422.386Z" fill="white"/>
<path d="M880.088 441.849H492.824V451.637H880.088V441.849Z" fill="white"/>
</g>
<path opacity="0.2" d="M854.59 429.955H521.534V432.201H854.59V429.955Z" fill="black"/>
<path opacity="0.2" d="M868.239 439.631H507.054V441.877H868.239V439.631Z" fill="black"/>
<path opacity="0.2" d="M880.089 449.447H492.935V451.692H880.089V449.447Z" fill="black"/>
<path d="M772.724 355.899H619.347V422.33H772.724V355.899Z" fill="#414141"/>
<path opacity="0.5" d="M772.724 355.899H619.347V422.33H772.724V355.899Z" fill="white"/>
<path d="M654.396 359.892H623.527V422.358H654.396V359.892Z" fill="black"/>
<path opacity="0.4" d="M654.396 359.892H623.527V422.358H654.396V359.892Z" fill="white"/>
<path d="M769.263 359.892H737.176V422.358H769.263V359.892Z" fill="black"/>
<path d="M693.544 359.892H658.521V422.358H693.544V359.892Z" fill="black"/>
<path opacity="0.4" d="M693.544 359.892H658.521V422.358H693.544V359.892Z" fill="white"/>
<path d="M733.245 359.892H698.223V422.358H733.245V359.892Z" fill="black"/>
<path opacity="0.4" d="M769.263 359.892H737.176V422.358H769.263V359.892Z" fill="white"/>
<path opacity="0.4" d="M733.245 359.892H698.223V422.358H733.245V359.892Z" fill="white"/>
<path d="M733.605 365.908H657.525V368.015H733.605V365.908Z" fill="#414141"/>
<path opacity="0.5" d="M733.605 365.908H657.525V368.015H733.605V365.908Z" fill="white"/>
<path opacity="0.2" d="M654.424 365.936C654.424 365.714 623.555 388.505 623.555 389.142V404.863L654.424 381.629V365.908V365.936Z" fill="white"/>
<path opacity="0.2" d="M654.424 389.143L623.527 411.712V416.314L654.424 393.551V390.113" fill="white"/>
<path opacity="0.2" d="M769.263 365.936C769.263 365.714 737.176 388.505 737.176 389.142V404.863L769.263 381.629V365.908V365.936Z" fill="white"/>
<path opacity="0.2" d="M769.263 389.143L737.176 411.712V416.314L769.263 393.551V390.113" fill="white"/>
<path opacity="0.2" d="M693.544 373.921L658.521 394.549V408.246L693.544 386.314V373.921Z" fill="white"/>
<path opacity="0.2" d="M733.272 382.849L698.223 405.251V418.948L733.272 397.017V382.849Z" fill="white"/>
<path d="M693.571 388.006H688.145V404.863H693.571V388.006Z" fill="#414141"/>
<path opacity="0.7" d="M693.571 388.006H688.145V404.863H693.571V388.006Z" fill="white"/>
<path d="M703.677 388.006H698.25V404.863H703.677V388.006Z" fill="#414141"/>
<path opacity="0.7" d="M703.677 388.006H698.25V404.863H703.677V388.006Z" fill="white"/>
<path opacity="0.1" d="M308.023 263.184H296.368V451.36H308.023V263.184Z" fill="black"/>
</g>
<path d="M418.508 530.967L-351.783 338.287L-318.436 202.085L-312.929 179.645C-293.33 171.537 -272.588 166.349 -251.549 164.461L-252.99 321.305L-231.681 163.624C-225.739 163.605 -219.779 163.94 -213.856 164.534C-198.109 166.054 -182.61 169.528 -167.629 174.646L-206.864 326.687L-150.327 181.501C-132.31 189.556 -115.366 200.192 -100.263 212.948C-117.063 250.386 -140.915 303.506 -146.792 315.773C-140.293 304.441 -111.05 258.96 -88.2862 223.767C-77.3603 234.511 -67.6319 246.407 -59.3527 259.392C-49.7984 274.443 -41.9079 291.013 -28.5724 302.709C-27.0383 304.061 -25.4977 305.28 -23.9066 306.403L-32.1674 393.424L-12.6732 313.138C11.6277 324.835 41.6875 322.811 70.8986 320.01C58.6834 355.907 45.0278 395.636 42.0015 404.1C45.8585 395.844 65.99 357.062 86.0015 318.546C88.5827 318.278 91.1449 318.085 93.7323 317.899C113.021 316.273 132.491 316.385 151.838 318.16L115.907 413.581L163.23 319.342C187.159 322.263 210.782 327.796 233.457 335.834C235.716 336.641 237.974 337.448 240.17 338.292C240.837 338.513 241.435 338.797 242.064 339.062L233.029 435.163L250.268 342.297C265.568 348.705 280.401 356.34 294.489 365.24L267.21 463.713L306.269 372.998C309.476 375.252 312.62 377.544 315.752 379.887C351.552 406.987 380.926 442.775 400.543 483.247C408.001 498.554 413.997 514.57 418.533 530.973L418.508 530.967Z" fill="#2C2C2C"/>
<path d="M417.622 531.084L-352.669 338.404L-387.376 474.267L-393.083 496.656C-379.609 513.038 -363.753 527.38 -346.08 538.952L-273.507 399.9L-328.947 549.044C-323.713 551.858 -318.297 554.369 -312.792 556.633C-298.184 562.706 -282.875 566.939 -267.248 569.477L-230.278 416.869L-248.757 571.575C-229.069 572.952 -209.113 571.546 -189.783 567.402C-186.978 526.464 -183.011 468.37 -182.42 454.781C-182.022 467.838 -177.637 521.731 -174.123 563.497C-159.425 559.163 -145.242 553.248 -131.824 545.69C-116.309 536.91 -101.546 526.006 -84.2739 521.966C-82.2842 521.496 -80.3512 521.146 -78.4184 520.904L-44.7355 440.243L-65.3372 520.251C-38.3911 521.373 -12.8243 537.311 11.628 553.535C17.752 516.116 24.4101 474.636 25.7249 465.744C25.2407 474.843 24.7422 518.536 24.2628 561.938C26.4137 563.39 28.5836 564.766 30.7786 566.148C47.0301 576.665 64.2593 585.733 82.164 593.276L95.391 492.176L92.7711 597.596C115.257 606.285 138.703 612.526 162.492 616.111C164.864 616.463 167.237 616.814 169.572 617.103C170.264 617.222 170.925 617.253 171.605 617.315L208.881 528.279L180.366 618.324C196.881 619.875 213.562 620.122 230.181 618.903L252.477 519.184L244.226 617.605C248.117 617.126 251.97 616.585 255.836 615.992C300.179 608.939 342.943 591.195 379.305 564.726C393.091 554.733 405.922 543.427 417.647 531.091L417.622 531.084Z" fill="#2C2C2C" fill-opacity="0.3"/>
<path d="M931.511 583.454L1851.08 325.577L1897.43 487.744L1905.06 514.469C1889.42 534.623 1870.84 552.407 1849.99 566.921L1758 402.207L1829.73 579.638C1823.53 583.2 1817.11 586.403 1810.56 589.312C1793.21 597.112 1774.94 602.722 1756.24 606.305L1706.6 424.081L1734.08 609.457C1710.46 611.782 1686.42 610.77 1663.04 606.447C1658.27 557.322 1651.52 487.61 1650.35 471.292C1650.32 487.003 1646.88 551.949 1644.07 602.284C1626.26 597.573 1609 590.945 1592.61 582.315C1573.66 572.286 1555.54 559.678 1534.63 555.409C1532.23 554.912 1529.89 554.557 1527.56 554.331L1484.32 458.498L1511.81 553.992C1479.45 556.258 1449.25 576.291 1420.4 596.629C1411.77 551.847 1402.35 502.202 1400.47 491.556C1401.36 502.48 1403.45 554.995 1405.5 607.162C1402.96 608.981 1400.4 610.709 1397.81 612.446C1378.63 625.643 1358.22 637.132 1336.95 646.811L1317.61 525.706L1324.35 652.365C1297.61 663.578 1269.63 671.879 1241.15 676.999C1238.31 677.503 1235.47 678.006 1232.67 678.432C1231.84 678.599 1231.05 678.659 1230.23 678.757L1182.39 572.976L1219.73 680.268C1199.93 682.694 1179.88 683.56 1159.86 682.66L1129.66 563.525L1142.93 681.576C1138.24 681.134 1133.58 680.614 1128.92 680.033C1075.36 673.062 1023.34 653.184 978.724 622.597C961.808 611.052 945.997 597.895 931.48 583.462L931.511 583.454Z" fill="#2C2C2C" fill-opacity="0.3"/>
<path d="M930.348 583.62L1849.92 325.743L1805.19 163.12L1797.81 136.328C1773.96 127.246 1748.85 121.715 1723.49 120.161L1730.56 308.688L1699.57 119.831C1692.43 120.01 1685.27 120.616 1678.17 121.532C1659.29 123.895 1640.78 128.599 1622.94 135.263L1675.29 316.729L1602.37 144.093C1580.98 154.391 1560.97 167.756 1543.25 183.607C1564.72 228.047 1595.21 291.102 1602.69 305.65C1594.49 292.248 1557.78 238.56 1529.22 197.022C1516.45 210.311 1505.15 224.945 1495.64 240.838C1484.67 259.26 1475.74 279.451 1460.11 293.968C1458.31 295.645 1456.5 297.162 1454.62 298.568L1467.52 402.912L1441.35 307.047C1412.53 321.937 1376.32 320.527 1341.1 318.154C1357.01 360.897 1374.78 408.199 1378.71 418.272C1373.79 408.477 1348.26 362.535 1322.89 316.908C1319.78 316.673 1316.69 316.529 1313.58 316.393C1290.33 315.094 1266.93 315.891 1243.72 318.684L1290.17 432.187L1230.07 320.493C1201.4 324.82 1173.18 332.276 1146.19 342.711C1143.51 343.758 1140.82 344.805 1138.21 345.896C1137.41 346.184 1136.7 346.545 1135.96 346.885L1150.09 462.121L1126.2 351.054C1108.03 359.279 1090.45 368.963 1073.82 380.144L1109.97 497.61L1059.92 389.873C1056.14 392.692 1052.44 395.554 1048.75 398.477C1006.63 432.279 972.531 476.307 950.323 525.635C941.877 544.291 935.212 563.752 930.318 583.628L930.348 583.62Z" fill="#2C2C2C"/>
<path fill-rule="evenodd" clip-rule="evenodd" d="M608.856 301.168C610.109 300.417 611.292 299.515 612.377 298.478L634.694 277.107L633.203 275.551L610.881 296.918C605.793 301.784 598.324 303.215 591.794 300.574C585.269 297.928 580.9 291.695 580.641 284.657L578.508 227.196C578.184 218.484 584.427 210.902 593.041 209.546L653.619 200.019L653.284 197.885L599.355 206.365L598.47 197.496C597.859 191.453 600.689 185.576 605.793 182.276L679.095 134.899C686.586 130.055 695.703 128.402 704.415 130.303L775.989 145.933C782.842 147.429 787.952 153.171 788.654 160.149C789.415 167.78 790.593 176.206 791.975 185.744L778.851 196.081C776.966 197.567 776.102 200.008 776.631 202.346C777.161 204.69 778.991 206.516 781.335 207.045L795.486 210.226C796.345 216.475 797.214 223.129 798.068 230.237C792.726 233.748 786.796 236.724 780.607 239.241C779.899 239.527 779.186 239.813 778.473 240.088C772.208 242.508 768.627 243.75 766.575 244.371L767.201 246.44C769.281 245.808 772.91 244.555 779.251 242.103C779.98 241.822 780.704 241.536 781.422 241.239C787.963 238.581 794.222 235.417 799.818 231.668C802.01 230.199 804.101 228.638 806.067 226.986C809.286 224.285 812.343 219.851 815.027 214.617L845.418 221.455C845.731 221.525 846.066 221.455 846.325 221.25L858.807 211.415C856.847 220.872 853.925 230.68 849.879 238.42C846.379 245.117 841.999 251.717 836.809 257.928C831.829 263.885 826.115 269.491 819.72 274.482L818.824 274.579L818.883 275.125C816.76 276.75 814.562 278.311 812.294 279.791C811.014 274.909 805.942 271.068 800.401 273.121L800.369 273.045C800.169 273.142 799.969 273.245 799.785 273.364C793.731 275.665 786.823 276.134 779.289 275.724C778.344 275.675 777.409 275.762 776.513 275.972C769.994 276.534 765.386 275.486 759.888 274.493L759.505 276.621C763.826 277.398 767.617 278.198 772.143 278.284C771.819 278.576 771.517 278.894 771.23 279.235V279.24C767.833 283.329 767.725 288.416 769.723 292.715C771.468 296.464 774.827 299.596 778.959 300.909C774.19 302.399 770.134 302.702 765.484 303.22L765.727 305.37C771.668 304.7 776.674 304.355 783.291 301.633L783.258 301.562C784.933 301.557 786.672 301.249 788.438 300.579C796.869 297.382 801.778 294.714 808.54 289.729C811.419 287.601 812.613 284.846 812.607 282.162C815.362 280.401 818.014 278.527 820.563 276.561L830.198 275.508C828.767 276.82 827.573 278.5 826.639 280.466C824.003 286.024 823.479 293.914 825.78 302C828.075 310.09 832.677 316.523 837.84 319.861C838.796 320.477 839.769 320.989 840.752 321.389C818.716 325.542 806.472 326.677 783.069 326.725L783.075 328.886C786.029 328.875 788.811 328.853 791.457 328.81L776.658 338.289C768.438 333.806 760.823 329.647 760.823 329.647L759.786 331.543L790.382 348.243C788.454 348.507 786.51 349.204 784.614 350.29C779.278 353.352 774.347 359.536 771.625 367.486C768.902 375.442 769.011 383.354 771.349 389.036C771.906 390.387 772.586 391.613 773.38 392.687C750.372 383.954 729.027 372.115 709.724 356.458L708.363 358.137C713.456 362.269 718.69 366.136 724.058 369.755C714.86 373.773 707.337 374.07 701.59 372.866L689.919 370.419C689.611 369.62 689.271 368.831 688.903 368.054L677.615 344.262L675.666 345.191L686.954 368.977C689 373.298 690.086 378.008 690.135 382.787L690.491 417.597C690.486 420.481 688.828 423.117 686.1 425.282C681.731 428.75 674.666 430.969 666.721 430.969C658.771 430.969 651.707 428.75 647.338 425.282C644.61 423.117 642.946 420.475 642.946 417.591V396.095C644.415 397.851 645.885 399.509 647.338 401.021L648.898 399.53C638.123 388.275 626.263 368.977 621.159 360.319C619.463 357.43 618.134 354.346 617.189 351.127C610.362 328.054 611.167 324.462 608.856 301.168ZM759.111 165.085L707.612 198.085C699.138 203.513 688.871 205.398 679.025 203.329L678.577 205.446C688.984 207.628 699.824 205.636 708.779 199.9L760.277 166.905L759.111 165.085Z" fill="#FF85D0"/>
<path fill-rule="evenodd" clip-rule="evenodd" d="M776.864 278.111C777.043 278.095 777.221 278.079 777.399 278.057L777.394 277.993C777.977 277.89 778.571 277.852 779.171 277.885C785.625 278.23 794.822 275.784 800.261 274.336C806.607 272.651 809.243 275.47 810.599 278.327C812.03 281.325 811.841 286.175 807.898 288.859C802.827 292.31 794.482 295.978 787.672 298.56C780.699 301.201 774.213 297.242 771.685 291.803C770.027 288.238 770.075 284.015 772.895 280.618C773.932 279.37 775.33 278.506 776.864 278.111Z" fill="white"/>
<path fill-rule="evenodd" clip-rule="evenodd" d="M846.833 320.217C844.235 320.498 841.546 319.682 839.013 318.046C834.217 314.946 829.993 308.929 827.854 301.411C825.716 293.893 826.142 286.558 828.589 281.395C830.101 278.208 832.386 275.864 835.334 274.946L836.253 274.844C836.269 274.844 836.285 274.838 836.301 274.838C839.655 274.325 842.75 275.551 845.445 277.841C849.723 281.465 852.996 287.703 854.74 294.314C856.49 300.914 856.717 307.903 854.784 313.072C853.574 316.296 851.51 318.791 848.383 319.909C847.859 320.012 847.346 320.115 846.833 320.217Z" fill="#FF85D0"/>
<path fill-rule="evenodd" clip-rule="evenodd" d="M779.801 395.032C776.874 393.968 774.697 391.5 773.347 388.216C771.176 382.934 771.138 375.583 773.666 368.189C776.199 360.795 780.73 355.011 785.688 352.164C788.75 350.409 791.964 349.788 794.913 350.717L795.718 351.154C795.729 351.165 795.745 351.171 795.761 351.176C798.807 352.667 800.649 355.443 801.556 358.856C803.004 364.273 802.134 371.267 799.806 377.689C797.473 384.111 793.676 389.982 789.139 393.12C786.293 395.091 783.166 395.961 779.947 395.08C779.898 395.064 779.85 395.048 779.801 395.032Z" fill="#FF85D0"/>
<path fill-rule="evenodd" clip-rule="evenodd" d="M746.926 383.284L746.969 387.286C746.969 390.171 745.306 392.812 742.579 394.972C738.209 398.439 731.15 400.659 723.2 400.659C715.25 400.659 708.185 398.439 703.816 394.972C701.088 392.806 699.425 390.17 699.425 387.281V374.616L701.148 374.978C707.483 376.306 715.876 375.96 726.181 371.164C732.895 375.582 739.813 379.612 746.926 383.284Z" fill="#FF85D0"/>
<path fill-rule="evenodd" clip-rule="evenodd" d="M877.808 158.361L862.291 187.202L861.913 187.186C861.908 187.44 861.897 187.694 861.886 187.953L845.094 219.166L781.811 204.934C780.283 204.594 779.084 203.4 778.738 201.872C778.393 200.343 778.954 198.75 780.185 197.783L837.344 152.75C839.526 151.032 842.356 150.389 845.062 151L877.808 158.361ZM785.56 201.196L842.594 214.018L843.064 211.912L786.029 199.085L785.56 201.196ZM843.199 173.506C844.176 172.733 844.63 171.464 844.349 170.243C844.074 169.023 843.123 168.072 841.902 167.797L832.478 165.68C830.89 165.323 829.226 165.701 827.952 166.706L809.956 180.883C808.973 181.656 808.524 182.925 808.8 184.145C809.075 185.366 810.031 186.317 811.252 186.592L820.671 188.709C822.259 189.066 823.923 188.688 825.203 187.683L843.199 173.506Z" fill="#E9FC87"/>
<path fill-rule="evenodd" clip-rule="evenodd" d="M841.859 171.809L823.863 185.987C823.096 186.592 822.102 186.813 821.146 186.602L811.722 184.48C811.316 184.393 810.998 184.075 810.906 183.67C810.814 183.259 810.966 182.838 811.29 182.579L829.286 168.401C830.052 167.802 831.052 167.575 832.002 167.785L841.427 169.908C841.832 169.994 842.151 170.313 842.242 170.723C842.334 171.128 842.188 171.55 841.859 171.809Z" fill="white"/>
<path fill-rule="evenodd" clip-rule="evenodd" d="M914.303 164.945L849.07 216.335L861.886 192.511C862.718 191.485 863.334 190.362 863.696 189.152L883.695 151.971C884.187 151.059 884.862 150.254 885.678 149.611L945.596 102.407C945.996 102.094 946.568 102.099 946.957 102.428C947.351 102.758 947.459 103.32 947.216 103.768L914.303 164.945ZM901.378 149.174C897.684 151.545 893.936 157.259 893.023 161.936C892.494 164.68 893.077 166.559 894.146 167.445C895.275 168.385 897.144 168.466 899.434 166.997C903.123 164.626 906.876 158.912 907.784 154.234C908.318 151.491 907.735 149.611 906.666 148.725C905.532 147.791 903.668 147.705 901.378 149.174Z" fill="#E9FC87"/>
<path fill-rule="evenodd" clip-rule="evenodd" d="M748.115 137.637L770.464 116.887C775.179 112.506 782.017 111.28 787.963 113.754C793.905 116.228 797.858 121.942 798.074 128.38L799.533 171.469L800.613 171.436L799.533 171.474L799.84 179.549L793.937 184.199C792.635 175.201 791.534 167.207 790.805 159.932C790.011 152.025 784.215 145.523 776.449 143.821L748.115 137.637Z" fill="#FF85D0"/>
<path d="M796.456 209.338C797.375 216.004 798.312 223.127 799.22 230.772C799.233 230.875 799.244 230.978 799.257 231.081M598.399 207.614L597.397 197.607C596.751 191.158 599.765 184.889 605.209 181.37L678.511 133.992C686.244 128.993 695.651 127.287 704.649 129.251L776.222 144.882C783.532 146.48 788.984 152.599 789.73 160.045C790.509 167.825 791.719 176.435 793.138 186.206M648.117 400.279C637.29 388.964 625.36 369.575 620.232 360.871C618.491 357.904 617.124 354.735 616.152 351.436C609.233 328.045 610.12 324.598 607.715 300.586" stroke="#242728" stroke-width="3.02711" stroke-miterlimit="1.5" stroke-linejoin="round"/>
<path d="M759.696 165.999C731.682 183.95 729.379 185.426 708.199 198.995C699.487 204.578 688.932 206.516 678.803 204.392" stroke="#242728" stroke-width="3.02711" stroke-miterlimit="1.5" stroke-linejoin="round"/>
<path d="M800.943 180.06L800.611 171.44C800.166 158.272 799.637 142.494 799.157 128.345C798.924 121.49 794.714 115.399 788.379 112.763C782.043 110.128 774.757 111.431 769.726 116.1C761.769 123.491 753.269 131.384 745.894 138.233" stroke="#242728" stroke-width="3.03061" stroke-miterlimit="1.5" stroke-linejoin="round"/>
<path d="M653.451 198.951C653.451 198.951 615.34 204.945 592.875 208.48C583.72 209.92 577.084 217.976 577.43 227.238C577.979 242.098 578.822 264.747 579.558 284.698C579.836 292.161 584.468 298.767 591.39 301.573C598.309 304.377 606.233 302.86 611.626 297.695C623.34 286.487 633.947 276.329 633.947 276.329" stroke="#242728" stroke-width="3.0304" stroke-miterlimit="1.5" stroke-linejoin="round"/>
<path d="M614.795 345.396C613.665 346.112 612.445 346.759 611.106 347.306C604.627 349.96 597.721 348.04 591.975 348.466" stroke="#242728" stroke-width="3.03077" stroke-miterlimit="1.5" stroke-linejoin="round"/>
<path fill-rule="evenodd" clip-rule="evenodd" d="M577.421 346.473C577.651 344.193 587.154 343.293 589.435 343.524C591.716 343.754 593.381 345.796 593.15 348.075C592.92 350.355 590.88 352.022 588.599 351.791C586.318 351.56 577.19 348.753 577.421 346.473Z" fill="#FF85D0" stroke="#242728" stroke-width="3.03077" stroke-miterlimit="1.5" stroke-linejoin="round"/>
<path d="M862.995 187.233C862.983 187.567 862.969 187.908 862.953 188.255M860.434 208.763C858.468 219.181 855.334 230.314 850.835 238.926C847.303 245.688 842.878 252.353 837.637 258.627C832.55 264.717 826.695 270.44 820.142 275.526C817.382 277.669 814.498 279.699 811.495 281.595M766.888 245.41C768.953 244.783 772.56 243.538 778.862 241.101C779.583 240.822 780.301 240.537 781.015 240.247C787.488 237.613 793.678 234.487 799.218 230.775C801.377 229.329 803.436 227.795 805.375 226.165C808.652 223.412 811.747 218.793 814.442 213.386" stroke="#242728" stroke-width="3.03059" stroke-miterlimit="1.5" stroke-linejoin="round"/>
<path d="M899.047 166.009C902.725 163.647 906.442 157.955 907.349 153.295C908.255 148.636 906.008 146.774 902.33 149.137C898.652 151.5 894.935 157.192 894.029 161.851C893.122 166.51 895.369 168.372 899.047 166.009Z" fill="white"/>
<path fill-rule="evenodd" clip-rule="evenodd" d="M901.745 148.229C904.126 146.699 906.069 146.778 907.247 147.753C908.362 148.677 908.966 150.641 908.409 153.502C907.453 158.416 903.513 164.425 899.63 166.919C897.251 168.447 895.306 168.367 894.131 167.393C893.016 166.469 892.412 164.502 892.968 161.644C893.925 156.727 897.864 150.721 901.745 148.229ZM902.913 150.047C899.443 152.276 895.945 157.661 895.09 162.057C894.893 163.065 894.855 163.921 894.977 164.607C895.066 165.103 895.224 165.493 895.508 165.73C895.752 165.93 896.077 165.982 896.457 165.937C897.042 165.869 897.712 165.582 898.462 165.1C901.935 162.87 905.433 157.484 906.288 153.088C906.484 152.081 906.52 151.224 906.398 150.538C906.312 150.043 906.151 149.652 905.866 149.417C905.626 149.216 905.299 149.163 904.918 149.208C904.336 149.277 903.665 149.564 902.913 150.047Z" fill="#242728"/>
<path fill-rule="evenodd" clip-rule="evenodd" d="M879.664 156.572L879.19 158.68L845.063 151.005C842.357 150.397 839.524 151.038 837.347 152.753L780.186 197.785C778.954 198.755 778.392 200.348 778.742 201.873C779.086 203.403 780.278 204.597 781.806 204.94L845.391 219.239L914.48 164.81L915.817 166.507L846.324 221.254C846.066 221.457 845.735 221.531 845.418 221.46L781.336 207.049C778.99 206.522 777.162 204.694 776.629 202.355C776.101 200.011 776.965 197.572 778.849 196.088L836.01 151.056C838.697 148.94 842.197 148.146 845.537 148.897L879.664 156.572Z" fill="#242728"/>
<path fill-rule="evenodd" clip-rule="evenodd" d="M785.553 201.194L786.028 199.084L843.063 211.91L842.588 214.019L785.553 201.194Z" fill="#242728"/>
<path fill-rule="evenodd" clip-rule="evenodd" d="M843.196 173.511L825.2 187.688C823.924 188.694 822.262 189.07 820.676 188.714L811.252 186.595C810.032 186.32 809.078 185.369 808.801 184.15C808.524 182.931 808.974 181.661 809.956 180.888L827.952 166.711C829.228 165.705 830.893 165.327 832.479 165.684L841.903 167.803C843.123 168.077 844.076 169.029 844.352 170.249C844.628 171.467 844.178 172.737 843.196 173.511ZM841.86 171.814C842.187 171.556 842.337 171.133 842.245 170.727C842.152 170.32 841.835 170.003 841.427 169.912L832.005 167.793C831.053 167.579 830.055 167.805 829.289 168.408L811.293 182.585C810.966 182.843 810.815 183.266 810.908 183.672C811 184.078 811.319 184.396 811.725 184.487L821.149 186.606C822.101 186.82 823.098 186.594 823.864 185.991L841.86 171.814Z" fill="#242728"/>
<path fill-rule="evenodd" clip-rule="evenodd" d="M915.783 166.506L846.29 221.253C845.891 221.568 845.319 221.559 844.929 221.229C844.539 220.899 844.432 220.34 844.671 219.892L881.762 150.95C882.394 149.776 883.262 148.743 884.307 147.92L944.225 100.716C945.432 99.7649 947.143 99.7899 948.317 100.779C949.493 101.766 949.814 103.442 949.089 104.794L916.067 166.168C915.997 166.299 915.899 166.414 915.783 166.506ZM914.272 164.946L947.184 103.772C947.423 103.324 947.316 102.765 946.926 102.435C946.535 102.105 945.964 102.097 945.565 102.411L885.642 149.619C884.828 150.26 884.154 151.062 883.663 151.976L849.036 216.339L914.272 164.946Z" fill="#242728"/>
<path d="M795.476 327.512L777.361 339.119" stroke="#242728" stroke-width="3.02987" stroke-miterlimit="1.5" stroke-linejoin="round"/>
<path d="M726.272 369.934C715.993 374.838 707.643 375.238 701.368 373.926L689.037 371.339" stroke="#242728" stroke-width="3.02987" stroke-miterlimit="1.5" stroke-linejoin="round"/>
<path fill-rule="evenodd" clip-rule="evenodd" d="M772.067 279.931C773.832 277.816 776.486 276.66 779.238 276.806C787.112 277.23 794.315 276.698 800.597 274.206C808.929 270.901 816.098 282.815 807.906 288.859C801.228 293.784 796.387 296.417 788.057 299.57C775.45 304.344 764.298 289.292 772.067 279.931Z" stroke="#242728" stroke-width="3.03004" stroke-miterlimit="1.5" stroke-linejoin="round"/>
<path d="M777.297 276.989C770.306 277.693 765.488 276.598 759.7 275.559" stroke="#242728" stroke-width="3.03004" stroke-miterlimit="1.5" stroke-linejoin="round"/>
<path d="M782.874 300.639C776.376 303.311 771.446 303.639 765.602 304.297" stroke="#242728" stroke-width="3.03004" stroke-miterlimit="1.5" stroke-linejoin="round"/>
<path d="M676.641 344.724C676.641 344.724 683.653 359.513 687.925 368.513C690.041 372.973 691.16 377.839 691.214 382.774C691.336 394.926 691.569 417.59 691.569 417.59C691.569 425.569 680.434 432.046 666.715 432.047C653.002 432.046 641.864 425.57 641.865 417.591L641.864 393.066" stroke="#242728" stroke-width="3.03158" stroke-miterlimit="1.5" stroke-linejoin="round"/>
<path d="M748 382.623L748.047 387.287C748.046 395.266 736.912 401.743 723.193 401.744C709.479 401.743 698.342 395.267 698.343 387.288L698.342 373.293" stroke="#242728" stroke-width="3.03158" stroke-miterlimit="1.5" stroke-linejoin="round"/>
<path d="M795.481 349.764C787.259 346.95 777.027 355.049 772.65 367.839C768.273 380.628 771.398 393.298 779.62 396.112" stroke="#242728" stroke-width="3.02793" stroke-miterlimit="1.5" stroke-linejoin="round"/>
<path d="M835.266 273.841C826.907 276.218 823.12 288.706 826.818 301.708C830.516 314.71 840.308 323.336 848.667 320.958" stroke="#242728" stroke-width="3.02793" stroke-miterlimit="1.5" stroke-linejoin="round"/>
<path d="M800.83 274.024C797.513 275.604 796.403 280.211 798.353 284.305C800.303 288.399 804.581 290.439 807.897 288.859" stroke="#242728" stroke-width="3.00291" stroke-miterlimit="1.5" stroke-linejoin="round"/>
<path d="M760.309 330.597L796.239 350.209C812.89 358.351 797.354 401.038 779.622 396.115C753.973 387.153 730.284 374.521 709.047 357.3" stroke="#242728" stroke-width="3.03027" stroke-miterlimit="1.5" stroke-linejoin="round"/>
<path d="M819.587 276.018L836.137 273.774C854.459 270.967 866.04 314.892 848.666 320.96C821.415 326.357 809.146 327.756 783.073 327.806" stroke="#242728" stroke-width="3.03027" stroke-miterlimit="1.5" stroke-linejoin="round"/>
<g clip-path="url(#clip1_5819_41362)">
<path d="M475.996 165.121C477.404 164.927 581.138 140.505 581.138 140.505L735.831 91.8989L834.527 48.0868L832.226 42.0207L629.851 93.6953L474.365 160.777L476.014 165.071L475.996 165.121Z" fill="#34227C"/>
<path d="M620.875 116.224C647.173 103.594 687.183 90.7703 742.035 90.01L787.049 152.548C786.976 152.535 786.903 152.521 786.827 152.507C784.788 152.137 781.798 151.656 777.98 151.212C770.343 150.325 759.386 149.584 746.079 150.164C719.519 151.323 683.579 157.747 645.978 178.784C645.928 178.787 645.871 178.791 645.809 178.794C645.522 178.812 645.102 178.842 644.566 178.887C643.494 178.977 641.954 179.132 640.071 179.389C636.307 179.902 631.16 180.826 625.634 182.472C615.451 185.504 603.742 191.055 597.2 201.227L582.418 140.88C582.45 140.851 582.484 140.819 582.519 140.787C582.908 140.427 583.497 139.896 584.289 139.216C585.873 137.857 588.266 135.906 591.486 133.556C597.927 128.857 607.676 122.564 620.875 116.224Z" fill="#432F94" stroke="black" stroke-width="2.30769"/>
<path d="M597.419 200.395L594.058 186.039C594.129 185.959 594.208 185.872 594.295 185.777C594.782 185.249 595.518 184.482 596.503 183.552C598.472 181.691 601.429 179.179 605.352 176.602C613.198 171.449 624.899 166.046 640.316 165.065L640.76 165.037L641.115 164.77L641.115 164.77L641.115 164.77L641.117 164.769L641.126 164.762L641.167 164.731C641.205 164.703 641.263 164.66 641.342 164.603C641.499 164.489 641.737 164.318 642.054 164.097C642.689 163.653 643.641 163.007 644.896 162.203C647.406 160.596 651.127 158.364 655.944 155.878C665.581 150.907 679.596 144.931 697.084 140.929C714.558 136.933 734.03 135.555 749.168 135.18C756.729 134.993 763.194 135.056 767.766 135.167C770.052 135.222 771.864 135.289 773.103 135.342C773.62 135.364 774.036 135.383 774.346 135.399L786.355 152.096C784.338 151.74 781.545 151.304 778.065 150.898C770.412 150.006 759.437 149.261 746.108 149.841C719.522 150.996 683.555 157.423 645.932 178.478C645.902 178.48 645.871 178.482 645.838 178.484C645.549 178.502 645.127 178.531 644.589 178.576C643.513 178.667 641.968 178.821 640.08 179.078C636.307 179.592 631.146 180.518 625.602 182.168C615.624 185.139 604.113 190.543 597.419 200.395Z" fill="url(#paint0_linear_5819_41362)" stroke="black" stroke-width="2.96703"/>
<mask id="path-387-inside-1_5819_41362" fill="white">
<path d="M646.323 179.956C646.083 180.067 644.367 176.259 641.819 170.017C639.321 163.794 636.009 155.086 632.56 145.448C629.286 136.102 626.288 127.623 623.846 120.71C621.657 114.344 620.419 117.299 620.659 117.188C620.899 117.077 622.615 113.985 625.163 120.227C627.661 126.45 630.972 135.158 634.422 144.796C637.696 154.142 640.694 162.622 643.135 169.534C645.325 175.9 646.563 179.846 646.323 179.956Z"/>
</mask>
<path d="M646.323 179.956C646.083 180.067 644.367 176.259 641.819 170.017C639.321 163.794 636.009 155.086 632.56 145.448C629.286 136.102 626.288 127.623 623.846 120.71C621.657 114.344 620.419 117.299 620.659 117.188C620.899 117.077 622.615 113.985 625.163 120.227C627.661 126.45 630.972 135.158 634.422 144.796C637.696 154.142 640.694 162.622 643.135 169.534C645.325 175.9 646.563 179.846 646.323 179.956Z" fill="#432F94"/>
<path d="M641.819 170.017L639.065 171.123L639.069 171.131L639.072 171.139L641.819 170.017ZM632.56 145.448L629.759 146.429L629.763 146.439L629.766 146.448L632.56 145.448ZM623.846 120.71L621.041 121.675L621.045 121.687L621.049 121.698L623.846 120.71ZM625.163 120.227L627.916 119.122L627.913 119.113L627.91 119.105L625.163 120.227ZM634.422 144.796L637.222 143.815L637.219 143.806L637.216 143.796L634.422 144.796ZM643.135 169.534L645.941 168.569L645.937 168.558L645.933 168.546L643.135 169.534ZM645.08 177.262C646.048 176.815 646.933 177.014 647.398 177.2C647.834 177.375 648.116 177.611 648.226 177.709C648.459 177.915 648.584 178.099 648.586 178.102C648.622 178.153 648.596 178.123 648.493 177.93C648.306 177.579 648.021 176.99 647.64 176.146C646.885 174.477 645.835 172.004 644.566 168.896L639.072 171.139C640.351 174.273 641.433 176.824 642.233 178.592C642.629 179.467 642.978 180.199 643.259 180.726C643.391 180.972 643.558 181.27 643.744 181.532C643.821 181.641 644.01 181.902 644.295 182.154C644.432 182.275 644.738 182.528 645.195 182.71C645.681 182.905 646.583 183.104 647.566 182.65L645.08 177.262ZM644.572 168.912C642.091 162.729 638.792 154.057 635.353 144.448L629.766 146.448C633.226 156.116 636.551 164.859 639.065 171.123L644.572 168.912ZM635.36 144.468C632.085 135.117 629.085 126.633 626.644 119.722L621.049 121.698C623.491 128.612 626.487 137.087 629.759 146.429L635.36 144.468ZM626.652 119.745C626.067 118.045 625.478 116.756 624.847 115.825C624.284 114.995 623.291 113.862 621.719 113.66C619.936 113.432 618.794 114.525 618.339 115.157C618.107 115.48 617.89 115.889 617.767 116.357C617.734 116.484 617.695 116.663 617.675 116.878C617.658 117.06 617.637 117.446 617.757 117.912C617.87 118.356 618.251 119.353 619.393 119.882C620.519 120.404 621.511 120.062 621.902 119.882L619.415 114.494C619.791 114.32 620.771 113.98 621.888 114.498C623.02 115.022 623.395 116.009 623.505 116.44C623.701 117.204 623.52 117.812 623.507 117.863C623.414 118.216 623.272 118.461 623.156 118.623C622.934 118.931 622.194 119.704 620.964 119.546C619.945 119.416 619.657 118.744 619.935 119.154C620.144 119.463 620.531 120.192 621.041 121.675L626.652 119.745ZM621.902 119.882C622.116 119.783 622.278 119.678 622.377 119.608C622.481 119.535 622.563 119.468 622.62 119.419C622.728 119.326 622.81 119.242 622.851 119.2C622.925 119.124 623.008 119.031 623.019 119.019C623.084 118.947 623.088 118.946 623.074 118.958C623.06 118.97 622.976 119.044 622.822 119.12C622.656 119.201 622.397 119.289 622.071 119.292C621.733 119.295 621.462 119.205 621.29 119.114C621.137 119.033 621.115 118.979 621.204 119.078C621.405 119.303 621.836 119.929 622.416 121.348L627.91 119.105C627.215 117.404 626.477 116.075 625.632 115.128C624.761 114.152 623.547 113.345 622.02 113.358C620.586 113.371 619.596 114.111 619.137 114.519C618.888 114.739 618.699 114.949 618.614 115.043C618.55 115.113 618.569 115.092 618.59 115.07C618.605 115.055 618.664 114.994 618.751 114.919C618.806 114.872 619.046 114.665 619.415 114.494L621.902 119.882ZM622.409 121.332C624.891 127.515 628.189 136.187 631.629 145.796L637.216 143.796C633.755 134.128 630.43 125.385 627.916 119.122L622.409 121.332ZM631.622 145.777C634.897 155.128 637.897 163.611 640.338 170.522L645.933 168.546C643.491 161.632 640.494 153.157 637.222 143.815L631.622 145.777ZM640.33 170.499C641.422 173.675 642.266 176.216 642.805 177.964C643.077 178.848 643.255 179.479 643.349 179.87C643.4 180.082 643.403 180.13 643.397 180.079C643.397 180.075 643.371 179.88 643.398 179.601C643.411 179.467 643.451 179.151 643.61 178.775C643.767 178.405 644.174 177.681 645.08 177.262L647.566 182.65C648.487 182.225 648.906 181.487 649.072 181.094C649.241 180.697 649.287 180.351 649.304 180.181C649.338 179.829 649.308 179.531 649.292 179.397C649.256 179.083 649.184 178.756 649.119 178.483C648.98 177.904 648.757 177.13 648.476 176.217C647.908 174.374 647.038 171.76 645.941 168.569L640.33 170.499Z" fill="black" mask="url(#path-387-inside-1_5819_41362)"/>
<path d="M833.223 47.3564L631.276 99.4253L631.208 99.4428L631.143 99.4699L476.561 163.814L475.621 161.309L630.84 93.8287L831.603 43.1599L833.223 47.3564Z" fill="#6448D4" stroke="black" stroke-width="1.97802"/>
<path d="M631.721 98.5126C631.721 98.5126 631.72 98.5121 631.719 98.5109C631.72 98.512 631.721 98.5125 631.721 98.5126Z" fill="#432F94" stroke="black" stroke-width="2.96703"/>
<path d="M510.271 195.839L504.96 198.125C500.016 203.1 500.675 208.764 501.751 213.53C505.813 231.796 511.172 249.628 517.732 266.906C523.325 264.781 528.937 262.605 534.53 260.479C535.881 259.98 516.456 218.346 538.311 258.485C539.061 259.839 548.146 255.273 547.043 253.875C533.522 236.66 525.621 219.09 517.767 202.615C516.345 199.625 514.542 196.438 510.271 195.839Z" fill="url(#paint1_linear_5819_41362)"/>
<path d="M506.963 188.581C504.922 183.349 503.206 178.008 501.814 172.558C500.711 168.094 499.545 163.494 499.865 158.87C500.178 154.499 501.706 150.147 505.275 147.422C509.728 143.999 515.83 143.877 521.174 144.187C524.209 144.361 524.667 139.674 521.632 139.5C515.444 139.165 508.812 139.491 503.41 143.02C498.87 145.986 496.31 150.897 495.445 156.145C494.543 161.493 495.6 166.848 496.831 172.04C498.33 178.352 500.272 184.542 502.641 190.576C503.731 193.388 508.018 191.409 506.928 188.597L506.963 188.581Z" fill="url(#paint2_linear_5819_41362)"/>
<path d="M512.851 189.8C514.437 193.958 512.205 198.677 507.859 200.351C503.514 202.025 498.7 199.978 497.114 195.821C495.528 191.663 497.76 186.944 502.105 185.27C506.451 183.596 511.265 185.642 512.851 189.8Z" fill="url(#paint3_linear_5819_41362)"/>
<path d="M512.851 189.8C512.851 189.8 512.364 189.196 511.551 188.246C510.738 187.295 509.308 186.09 507.178 185.622C505.117 185.123 502.316 185.546 500.177 187.403C498.042 189.176 496.834 192.51 497.987 195.459C499.106 198.424 502.225 200.133 504.999 200.013C507.805 199.962 510.169 198.414 511.393 196.648C512.667 194.9 512.965 193.022 512.903 191.807C512.876 190.576 512.664 189.845 512.801 189.782C512.904 189.735 513.356 190.354 513.65 191.711C513.927 193.033 513.855 195.221 512.533 197.406C511.246 199.575 508.527 201.617 505.041 201.817C501.637 202.104 497.6 200.03 496.14 196.146C494.662 192.311 496.287 188.08 498.99 186.003C501.681 183.808 505.085 183.522 507.51 184.268C509.969 184.998 511.453 186.592 512.158 187.758C512.844 188.975 512.904 189.735 512.835 189.766L512.851 189.8Z" fill="#432F94"/>
<path d="M518.654 252.226C518.414 252.336 516.897 249.68 515.053 245.144C513.209 240.608 511.038 234.192 509.129 226.991C507.255 219.776 505.971 213.116 505.456 208.215C505.233 205.749 505.147 203.758 505.328 202.348C505.425 200.936 505.922 200.209 505.988 200.262C506.188 200.335 505.963 201.019 506.088 202.371C506.112 203.686 506.42 205.615 506.815 208.003C507.638 212.761 509.112 219.291 511.005 226.457C512.898 233.623 514.815 240.032 516.319 244.642C517.823 249.253 518.913 252.065 518.638 252.191L518.654 252.226Z" fill="#432F94"/>
<path d="M521.817 237.173C521.337 237.395 517.001 229.533 513.12 219.141C509.205 208.764 507.264 199.963 507.776 199.81C508.322 199.64 511.083 208.146 514.951 218.42C518.819 228.694 522.316 236.902 521.817 237.173Z" fill="#432F94"/>
<path d="M515.522 208.749C515.042 208.971 513.587 206.99 512.256 204.289C510.961 201.571 510.279 199.192 510.793 198.955C511.274 198.733 512.729 200.714 514.059 203.415C515.354 206.133 516.036 208.512 515.556 208.733L515.522 208.749Z" fill="#432F94"/>
<path d="M513.188 144.102L525.544 138.689L527.405 142.72L513.694 147.722L513.188 144.102Z" fill="#455A64"/>
</g>
<defs>
<linearGradient id="paint0_linear_5819_41362" x1="601.482" y1="208.542" x2="777.286" y2="127.198" gradientUnits="userSpaceOnUse">
<stop stop-color="#FFC6D9"/>
<stop offset="0.333333" stop-color="#7CCFE1"/>
<stop offset="0.640625" stop-color="#89CBA6"/>
<stop offset="1" stop-color="#A5D571"/>
</linearGradient>
<linearGradient id="paint1_linear_5819_41362" x1="504.303" y1="236.848" x2="533.072" y2="223.565" gradientUnits="userSpaceOnUse">
<stop stop-color="#FFC6D9"/>
<stop offset="0.333333" stop-color="#7CCFE1"/>
<stop offset="0.640625" stop-color="#89CBA6"/>
<stop offset="1" stop-color="#A5D571"/>
</linearGradient>
<linearGradient id="paint2_linear_5819_41362" x1="494.541" y1="171.846" x2="530.252" y2="155.353" gradientUnits="userSpaceOnUse">
<stop stop-color="#FFC6D9"/>
<stop offset="0.333333" stop-color="#7CCFE1"/>
<stop offset="0.640625" stop-color="#89CBA6"/>
<stop offset="1" stop-color="#A5D571"/>
</linearGradient>
<linearGradient id="paint3_linear_5819_41362" x1="497.526" y1="196.252" x2="512.631" y2="189.275" gradientUnits="userSpaceOnUse">
<stop stop-color="#FFC6D9"/>
<stop offset="0.333333" stop-color="#7CCFE1"/>
<stop offset="0.640625" stop-color="#89CBA6"/>
<stop offset="1" stop-color="#A5D571"/>
</linearGradient>
<clipPath id="clip0_5819_41362">
<rect width="1050" height="357.692" fill="white" transform="translate(165 94)"/>
</clipPath>
<clipPath id="clip1_5819_41362">
<rect width="379.789" height="130.375" fill="white" transform="translate(468 159.156) rotate(-24.7755)"/>
</clipPath>
</defs>
</svg>
