<svg width="323" height="144" viewBox="0 0 323 144" fill="none" xmlns="http://www.w3.org/2000/svg">
<path d="M0 16C0 7.16344 7.16344 0 16 0H306.667C315.503 0 322.667 7.16344 322.667 16V128C322.667 136.837 315.503 144 306.667 144H16C7.16342 144 0 136.837 0 128V16Z" fill="white" fill-opacity="0.1"/>
<path d="M138.257 73.2665C138.257 65.865 143.578 62.1045 148.649 62.1045C152.563 62.1045 155.29 64.2579 156.073 65.9479H156.197V62.5166H160.733V84.0188H156.197V80.5875H156.073C155.288 82.2848 152.57 84.4309 148.649 84.4309C143.578 84.4309 138.257 80.668 138.257 73.2665ZM149.514 80.2924C152.981 80.2924 156.316 77.8976 156.316 73.2665C156.316 68.6354 152.974 66.2405 149.514 66.2405C146.055 66.2405 142.749 68.6354 142.749 73.2665C142.749 77.8976 146.092 80.2924 149.514 80.2924Z" fill="white"/>
<path d="M164.61 62.5142H169.108V68.0476C169.842 64.8261 171.969 62.1045 175.848 62.1045C176.335 62.1045 176.75 62.1484 177.2 62.2654V66.6015C176.75 66.521 176.386 66.4771 175.892 66.4771C171.847 66.4771 169.108 69.4499 169.108 73.9469V83.9773H164.61V62.5069V62.5142Z" fill="white"/>
<path d="M178.996 73.2665C178.996 66.0284 184.553 62.1045 190.11 62.1045C193.83 62.1045 197.267 63.8823 199.226 67.3965L195.876 69.506C194.649 67.5209 192.563 66.2796 190.152 66.2796C186.717 66.2796 183.447 68.8451 183.447 73.2689C183.447 77.6927 186.717 80.2583 190.152 80.2583C192.563 80.2583 194.649 79.017 195.876 77.0318L199.226 79.1413C197.264 82.6165 193.83 84.4333 190.11 84.4333C184.553 84.4333 178.996 80.5021 178.996 73.2689V73.2665Z" fill="white"/>
<path fill-rule="evenodd" clip-rule="evenodd" d="M116.294 68.2041L112.176 72.3328L118.059 78.215L112.176 84.0947L116.294 88.2235L126.307 78.215L116.294 68.2041Z" fill="#3A64FA"/>
<path fill-rule="evenodd" clip-rule="evenodd" d="M106.157 72.3333C106.157 66.7267 110.688 62.181 116.277 62.181C121.865 62.181 126.397 66.7267 126.397 72.3333C126.397 72.3675 126.397 72.3992 126.394 72.4333H132.272C132.272 63.5125 125.111 56.2793 116.277 56.2793C107.443 56.2793 100.281 63.5125 100.281 72.4333H106.159C106.159 72.3992 106.157 72.3675 106.157 72.3333Z" fill="#3A64FA"/>
<path d="M202.527 56.1836H207.046V65.7287C208.191 63.7485 210.455 62.095 213.909 62.095C218.304 62.095 222.084 64.8605 222.084 71.3426V83.98H217.529V72.0913C217.529 68.3333 215.477 66.2286 212.309 66.2286C209.142 66.2286 207.054 68.3357 207.054 72.0913V83.98H202.535L202.527 56.186V56.1836Z" fill="white"/>
</svg>
