<svg width="568" height="277" viewBox="0 0 568 277" fill="none" xmlns="http://www.w3.org/2000/svg">
<path d="M0 16C0 7.16344 7.16344 0 16 0H552C560.837 0 568 7.16344 568 16V261C568 269.837 560.837 277 552 277H16C7.16346 277 0 269.837 0 261V16Z" fill="white" fill-opacity="0.1"/>
<path d="M261.258 140.266C261.258 132.865 266.579 129.104 271.65 129.104C275.564 129.104 278.291 131.258 279.074 132.948H279.198V129.517H283.734V151.019H279.198V147.587H279.074C278.289 149.285 275.571 151.431 271.65 151.431C266.579 151.431 261.258 147.668 261.258 140.266ZM272.515 147.292C275.982 147.292 279.317 144.898 279.317 140.266C279.317 135.635 275.975 133.241 272.515 133.241C269.056 133.241 265.75 135.635 265.75 140.266C265.75 144.898 269.093 147.292 272.515 147.292Z" fill="white"/>
<path d="M287.611 129.514H292.109V135.048C292.843 131.826 294.97 129.104 298.849 129.104C299.336 129.104 299.751 129.148 300.201 129.265V133.601C299.751 133.521 299.387 133.477 298.893 133.477C294.848 133.477 292.109 136.45 292.109 140.947V150.977H287.611V129.507V129.514Z" fill="white"/>
<path d="M301.998 140.266C301.998 133.028 307.555 129.104 313.112 129.104C316.831 129.104 320.268 130.882 322.228 134.396L318.878 136.506C317.65 134.521 315.564 133.28 313.153 133.28C309.718 133.28 306.449 135.845 306.449 140.269C306.449 144.693 309.718 147.258 313.153 147.258C315.564 147.258 317.65 146.017 318.878 144.032L322.228 146.141C320.266 149.616 316.831 151.433 313.112 151.433C307.555 151.433 301.998 147.502 301.998 140.269V140.266Z" fill="white"/>
<path fill-rule="evenodd" clip-rule="evenodd" d="M239.295 135.204L235.177 139.333L241.06 145.215L235.177 151.095L239.295 155.223L249.308 145.215L239.295 135.204Z" fill="#3A64FA"/>
<path fill-rule="evenodd" clip-rule="evenodd" d="M229.158 139.333C229.158 133.727 233.689 129.181 239.278 129.181C244.866 129.181 249.398 133.727 249.398 139.333C249.398 139.367 249.398 139.399 249.395 139.433H255.273C255.273 130.513 248.112 123.279 239.278 123.279C230.444 123.279 223.282 130.513 223.282 139.433H229.16C229.16 139.399 229.158 139.367 229.158 139.333Z" fill="#3A64FA"/>
<path d="M325.529 123.184H330.048V132.729C331.193 130.748 333.456 129.095 336.91 129.095C341.305 129.095 345.086 131.861 345.086 138.343V150.98H340.53V139.091C340.53 135.333 338.478 133.229 335.311 133.229C332.143 133.229 330.055 135.336 330.055 139.091V150.98H325.536L325.529 123.186V123.184Z" fill="white"/>
</svg>
