<svg width="714" height="352" viewBox="0 0 714 352" fill="none" xmlns="http://www.w3.org/2000/svg">
<rect width="972" height="352" rx="16" fill="url(#paint0_linear_4936_27183)"/>
<g filter="url(#filter0_b_4936_27183)">
<path fill-rule="evenodd" clip-rule="evenodd" d="M710.35 152.588L682.742 180.268L722.182 219.704L682.742 259.123L710.35 286.804L777.48 219.704L710.35 152.588Z" fill="#3A64FA" fill-opacity="0.02"/>
<path fill-rule="evenodd" clip-rule="evenodd" d="M642.391 180.271C642.391 142.682 672.77 112.206 710.238 112.206C747.706 112.206 778.085 142.682 778.085 180.271C778.085 180.499 778.085 180.712 778.068 180.941H817.476C817.476 121.133 769.463 72.6396 710.238 72.6396C651.013 72.6396 603 121.133 603 180.941H642.408C642.408 180.712 642.391 180.499 642.391 180.271Z" fill="#3A64FA" fill-opacity="0.02"/>
</g>
<g filter="url(#filter1_b_4936_27183)">
<path fill-rule="evenodd" clip-rule="evenodd" d="M604.35 151.588L576.742 179.268L616.182 218.704L576.742 258.123L604.35 285.804L671.48 218.704L604.35 151.588Z" fill="#3A64FA" fill-opacity="0.05"/>
<path fill-rule="evenodd" clip-rule="evenodd" d="M536.391 179.271C536.391 141.682 566.77 111.206 604.238 111.206C641.706 111.206 672.085 141.682 672.085 179.271C672.085 179.499 672.085 179.712 672.068 179.941H711.476C711.476 120.133 663.463 71.6396 604.238 71.6396C545.013 71.6396 497 120.133 497 179.941H536.408C536.408 179.712 536.391 179.499 536.391 179.271Z" fill="#3A64FA" fill-opacity="0.05"/>
</g>
<g filter="url(#filter2_b_4936_27183)">
<path fill-rule="evenodd" clip-rule="evenodd" d="M498.35 150.588L470.742 178.268L510.182 217.704L470.742 257.123L498.35 284.804L565.48 217.704L498.35 150.588Z" fill="#3A64FA" fill-opacity="0.1"/>
<path fill-rule="evenodd" clip-rule="evenodd" d="M430.391 178.271C430.391 140.682 460.77 110.206 498.238 110.206C535.706 110.206 566.085 140.682 566.085 178.271C566.085 178.499 566.085 178.712 566.068 178.941H605.476C605.476 119.133 557.463 70.6396 498.238 70.6396C439.013 70.6396 391 119.133 391 178.941H430.408C430.408 178.712 430.391 178.499 430.391 178.271Z" fill="#3A64FA" fill-opacity="0.1"/>
</g>
<g filter="url(#filter3_b_4936_27183)">
<path fill-rule="evenodd" clip-rule="evenodd" d="M392.35 149.588L364.742 177.268L404.182 216.704L364.742 256.123L392.35 283.804L459.48 216.704L392.35 149.588Z" fill="#3A64FA" fill-opacity="0.2"/>
<path fill-rule="evenodd" clip-rule="evenodd" d="M324.391 177.271C324.391 139.682 354.77 109.206 392.238 109.206C429.706 109.206 460.085 139.682 460.085 177.271C460.085 177.499 460.085 177.712 460.068 177.941H499.476C499.476 118.133 451.463 69.6396 392.238 69.6396C333.013 69.6396 285 118.133 285 177.941H324.408C324.408 177.712 324.391 177.499 324.391 177.271Z" fill="#3A64FA" fill-opacity="0.2"/>
</g>
<g filter="url(#filter4_b_4936_27183)">
<path fill-rule="evenodd" clip-rule="evenodd" d="M286.35 148.588L258.742 176.268L298.182 215.704L258.742 255.123L286.35 282.804L353.48 215.704L286.35 148.588Z" fill="#3A64FA" fill-opacity="0.3"/>
<path fill-rule="evenodd" clip-rule="evenodd" d="M218.391 176.271C218.391 138.682 248.77 108.206 286.238 108.206C323.706 108.206 354.085 138.682 354.085 176.271C354.085 176.499 354.085 176.712 354.068 176.941H393.476C393.476 117.133 345.463 68.6396 286.238 68.6396C227.013 68.6396 179 117.133 179 176.941H218.408C218.408 176.712 218.391 176.499 218.391 176.271Z" fill="#3A64FA" fill-opacity="0.3"/>
</g>
<path fill-rule="evenodd" clip-rule="evenodd" d="M167.35 148.588L139.742 176.268L179.182 215.704L139.742 255.123L167.35 282.804L234.48 215.704L167.35 148.588Z" fill="#3A64FA"/>
<path fill-rule="evenodd" clip-rule="evenodd" d="M99.3912 176.271C99.3912 138.682 129.77 108.206 167.238 108.206C204.706 108.206 235.085 138.682 235.085 176.271C235.085 176.499 235.085 176.712 235.068 176.941H274.476C274.476 117.133 226.463 68.6396 167.238 68.6396C108.013 68.6396 60 117.133 60 176.941H99.4075C99.4075 176.712 99.3912 176.499 99.3912 176.271Z" fill="#3A64FA"/>
<defs>
<filter id="filter0_b_4936_27183" x="551" y="20" width="319" height="319" filterUnits="userSpaceOnUse" color-interpolation-filters="sRGB">
<feFlood flood-opacity="0" result="BackgroundImageFix"/>
<feGaussianBlur in="BackgroundImageFix" stdDeviation="26"/>
<feComposite in2="SourceAlpha" operator="in" result="effect1_backgroundBlur_4936_27183"/>
<feBlend mode="normal" in="SourceGraphic" in2="effect1_backgroundBlur_4936_27183" result="shape"/>
</filter>
<filter id="filter1_b_4936_27183" x="445" y="19" width="319" height="319" filterUnits="userSpaceOnUse" color-interpolation-filters="sRGB">
<feFlood flood-opacity="0" result="BackgroundImageFix"/>
<feGaussianBlur in="BackgroundImageFix" stdDeviation="26"/>
<feComposite in2="SourceAlpha" operator="in" result="effect1_backgroundBlur_4936_27183"/>
<feBlend mode="normal" in="SourceGraphic" in2="effect1_backgroundBlur_4936_27183" result="shape"/>
</filter>
<filter id="filter2_b_4936_27183" x="339" y="18" width="319" height="319" filterUnits="userSpaceOnUse" color-interpolation-filters="sRGB">
<feFlood flood-opacity="0" result="BackgroundImageFix"/>
<feGaussianBlur in="BackgroundImageFix" stdDeviation="26"/>
<feComposite in2="SourceAlpha" operator="in" result="effect1_backgroundBlur_4936_27183"/>
<feBlend mode="normal" in="SourceGraphic" in2="effect1_backgroundBlur_4936_27183" result="shape"/>
</filter>
<filter id="filter3_b_4936_27183" x="233" y="17" width="319" height="319" filterUnits="userSpaceOnUse" color-interpolation-filters="sRGB">
<feFlood flood-opacity="0" result="BackgroundImageFix"/>
<feGaussianBlur in="BackgroundImageFix" stdDeviation="26"/>
<feComposite in2="SourceAlpha" operator="in" result="effect1_backgroundBlur_4936_27183"/>
<feBlend mode="normal" in="SourceGraphic" in2="effect1_backgroundBlur_4936_27183" result="shape"/>
</filter>
<filter id="filter4_b_4936_27183" x="127" y="16" width="319" height="319" filterUnits="userSpaceOnUse" color-interpolation-filters="sRGB">
<feFlood flood-opacity="0" result="BackgroundImageFix"/>
<feGaussianBlur in="BackgroundImageFix" stdDeviation="26"/>
<feComposite in2="SourceAlpha" operator="in" result="effect1_backgroundBlur_4936_27183"/>
<feBlend mode="normal" in="SourceGraphic" in2="effect1_backgroundBlur_4936_27183" result="shape"/>
</filter>
<linearGradient id="paint0_linear_4936_27183" x1="-3.62098e-06" y1="176" x2="771" y2="176" gradientUnits="userSpaceOnUse">
<stop stop-color="white" stop-opacity="0.1"/>
<stop offset="1" stop-color="#999999" stop-opacity="0"/>
</linearGradient>
</defs>
</svg>
