<svg width="84" height="23" viewBox="0 0 84 23" fill="none" xmlns="http://www.w3.org/2000/svg">
<path d="M26.1895 12.2308C26.1895 7.14855 29.8592 4.56641 33.3563 4.56641C36.0554 4.56641 37.9363 6.04503 38.4761 7.20548H38.5616V4.8494H41.6899V19.6138H38.5616V17.2578H38.4761C37.9347 18.4232 36.0604 19.8968 33.3563 19.8968C29.8592 19.8968 26.1895 17.313 26.1895 12.2308ZM33.9531 17.0551C36.3437 17.0551 38.6438 15.4107 38.6438 12.2308C38.6438 9.05083 36.3387 7.40643 33.9531 7.40643C31.5675 7.40643 29.2875 9.05083 29.2875 12.2308C29.2875 15.4107 31.5926 17.0551 33.9531 17.0551Z" fill="white"/>
<path d="M44.3638 4.84773H47.4652V8.64726C47.9715 6.43519 49.4384 4.56641 52.114 4.56641C52.4493 4.56641 52.736 4.59655 53.0461 4.67693V7.65426C52.736 7.599 52.4845 7.56886 52.1442 7.56886C49.3546 7.56886 47.4652 9.61013 47.4652 12.698V19.5854H44.3638V4.84271V4.84773Z" fill="white"/>
<path d="M54.2849 12.2308C54.2849 7.26074 58.1173 4.56641 61.9496 4.56641C64.5146 4.56641 66.8851 5.78715 68.2363 8.20016L65.9262 9.64864C65.0796 8.28556 63.6412 7.43322 61.9781 7.43322C59.6093 7.43322 57.3545 9.19484 57.3545 12.2325C57.3545 15.2701 59.6093 17.0317 61.9781 17.0317C63.6412 17.0317 65.0796 16.1794 65.9262 14.8163L68.2363 16.2648C66.8834 18.651 64.5146 19.8985 61.9496 19.8985C58.1173 19.8985 54.2849 17.1992 54.2849 12.2325V12.2308Z" fill="white"/>
<path fill-rule="evenodd" clip-rule="evenodd" d="M11.0428 8.75391L8.20288 11.5889L12.2599 15.6279L8.20288 19.6652L11.0428 22.5002L17.9481 15.6279L11.0428 8.75391Z" fill="white"/>
<path fill-rule="evenodd" clip-rule="evenodd" d="M4.05198 11.5889C4.05198 7.73917 7.17688 4.61782 11.031 4.61782C14.8852 4.61782 18.0101 7.73917 18.0101 11.5889C18.0101 11.6124 18.0101 11.6342 18.0084 11.6576H22.0621C22.0621 5.53212 17.1232 0.56543 11.031 0.56543C4.93882 0.56543 0 5.53212 0 11.6576H4.05365C4.05365 11.6342 4.05198 11.6124 4.05198 11.5889Z" fill="white"/>
<path d="M70.5129 0.5H73.6295V7.05416C74.4191 5.69443 75.9798 4.55909 78.3621 4.55909C81.3931 4.55909 84 6.45802 84 10.909V19.5864H80.8583V11.423C80.8583 8.84257 79.4434 7.39744 77.259 7.39744C75.0746 7.39744 73.6345 8.84424 73.6345 11.423V19.5864H70.518L70.5129 0.501675V0.5Z" fill="white"/>
</svg>
