<svg width="17" height="17" viewBox="0 0 17 17" fill="none" xmlns="http://www.w3.org/2000/svg">
<path d="M7.52965 0.895919C7.78148 -0.115167 9.21852 -0.115169 9.47035 0.895917L10.6478 5.62348C10.7373 5.98246 11.0175 6.26274 11.3765 6.35215L16.1041 7.52965C17.1152 7.78148 17.1152 9.21852 16.1041 9.47035L11.3765 10.6478C11.0175 10.7373 10.7373 11.0175 10.6478 11.3765L9.47035 16.1041C9.21852 17.1152 7.78148 17.1152 7.52965 16.1041L6.35215 11.3765C6.26274 11.0175 5.98246 10.7373 5.62348 10.6478L0.895919 9.47035C-0.115167 9.21852 -0.115169 7.78148 0.895917 7.52965L5.62348 6.35215C5.98246 6.26274 6.26274 5.98246 6.35215 5.62348L7.52965 0.895919Z" fill="black"/>
</svg>
