<svg width="20" height="20" viewBox="0 0 20 20" fill="none" xmlns="http://www.w3.org/2000/svg">
<path d="M5.25915 3.51C7.21248 4.97667 9.31332 7.94917 10.0841 9.545C10.8558 7.94917 12.9567 4.97584 14.91 3.51C16.3192 2.45167 18.6025 1.63334 18.6025 4.23834C18.6025 4.75834 18.3042 8.60834 18.13 9.23334C17.5217 11.4067 15.305 11.9608 13.335 11.625C16.78 12.2117 17.6567 14.1542 15.7633 16.0967C12.1683 19.785 10.5967 15.1708 10.1933 13.9883C10.12 13.7717 10.085 13.67 10.085 13.7567C10.085 13.67 10.05 13.7717 9.97582 13.9883C9.57332 15.1708 8.00082 19.785 4.40582 16.0967C2.51332 14.1542 3.38915 12.2117 6.83498 11.625C4.86415 11.9608 2.64748 11.4067 2.03998 9.23334C1.86498 8.60834 1.56665 4.75834 1.56665 4.23834C1.56665 1.63334 3.84998 2.45167 5.25915 3.51Z" stroke="#E9FC87" stroke-width="1.66667" stroke-linejoin="round"/>
</svg>
