<svg width="26" height="27" viewBox="0 0 26 27" fill="none" xmlns="http://www.w3.org/2000/svg">
<path d="M13.0003 24.3332C18.9834 24.3332 23.8337 19.4829 23.8337 13.4998C23.8337 7.51675 18.9834 2.6665 13.0003 2.6665C7.01724 2.6665 2.16699 7.51675 2.16699 13.4998C2.16699 19.4829 7.01724 24.3332 13.0003 24.3332Z" fill="#CFF4FF"/>
<path d="M11.4616 17.3786C11.2449 17.3786 11.0391 17.2919 10.8874 17.1402L7.82156 14.0744C7.5074 13.7602 7.5074 13.2402 7.82156 12.9261C8.13573 12.6119 8.65573 12.6119 8.9699 12.9261L11.4616 15.4177L17.0299 9.84939C17.3441 9.53523 17.8641 9.53523 18.1782 9.84939C18.4924 10.1636 18.4924 10.6836 18.1782 10.9977L12.0357 17.1402C11.8841 17.2919 11.6782 17.3786 11.4616 17.3786Z" fill="#1C1C1C"/>
</svg>
