<svg width="633" height="346" viewBox="0 0 633 346" fill="none" xmlns="http://www.w3.org/2000/svg">
<g filter="url(#filter0_b_6720_2458)">
<path d="M126.443 178.883C133.815 220.472 174.631 251.792 220.666 257.854C250.865 261.836 284.138 242.314 322.809 233.605C386.508 219.274 468.074 270.206 498.476 192.426C525.479 123.285 439.123 42.135 322.531 24.0208C219.519 8.0083 109.882 85.4206 126.459 178.864L126.443 178.883Z" fill="white" fill-opacity="0.12"/>
</g>
<path d="M415.351 95.6368L407.419 90.4616C406.582 89.916 406.342 88.7935 406.884 87.9628C407.19 87.495 407.696 87.2159 408.243 87.1586C409.322 87.0468 410.351 86.4643 410.987 85.4884C412.124 83.7463 411.627 81.4213 409.881 80.2824C408.136 79.1435 405.808 79.6252 404.671 81.3673C404.034 82.3432 403.915 83.5189 404.248 84.5524C404.419 85.0892 404.359 85.6597 404.059 86.1194C403.517 86.9501 402.393 87.1827 401.557 86.6371L393.625 81.4618L398.766 73.5821C399.308 72.7513 399.068 71.6289 398.232 71.0833C397.761 70.7761 397.183 70.7211 396.66 70.8853C395.625 71.2109 394.446 71.0852 393.463 70.4442C391.71 69.3001 391.213 66.975 392.344 65.241C393.475 63.5069 395.804 63.0253 397.557 64.1695C398.54 64.8104 399.13 65.8394 399.249 66.9172C399.312 67.4761 399.6 67.9746 400.063 68.2766C400.899 68.8222 402.023 68.5896 402.565 67.7589L407.706 59.8792L415.638 65.0544C416.475 65.6 416.715 66.7224 416.173 67.5532C415.867 68.021 415.361 68.3001 414.815 68.3574C413.735 68.4692 412.706 69.0516 412.07 70.0275C410.933 71.7696 411.43 74.0947 413.176 75.2336C414.921 76.3724 417.249 75.8908 418.386 74.1487C419.023 73.1728 419.142 71.997 418.809 70.9635C418.638 70.4268 418.698 69.8563 418.998 69.3966C419.54 68.5658 420.664 68.3333 421.5 68.8789L429.432 74.0542L424.291 81.9339C423.749 82.7646 423.989 83.8871 424.825 84.4327C425.296 84.7399 425.874 84.7948 426.398 84.6307C427.432 84.3051 428.611 84.4308 429.594 85.0717C431.347 86.2159 431.844 88.541 430.713 90.275C429.582 92.009 427.253 92.4907 425.5 91.3465C424.517 90.7056 423.927 89.6765 423.809 88.5988C423.745 88.0398 423.457 87.5413 422.994 87.2394C422.158 86.6938 421.034 86.9263 420.492 87.757L415.351 95.6368Z" fill="white"/>
<path d="M415.372 95.7389L410.197 103.671C409.651 104.507 408.529 104.747 407.698 104.205C407.23 103.9 406.951 103.394 406.894 102.847C406.782 101.767 406.199 100.739 405.224 100.102C403.481 98.9654 401.156 99.4625 400.018 101.208C398.879 102.954 399.36 105.282 401.102 106.418C402.078 107.055 403.254 107.174 404.288 106.841C404.824 106.671 405.395 106.73 405.855 107.03C406.685 107.572 406.918 108.696 406.372 109.533L401.197 117.465L393.317 112.323C392.486 111.781 391.364 112.021 390.818 112.858C390.511 113.329 390.456 113.906 390.62 114.43C390.946 115.464 390.82 116.644 390.179 117.626C389.035 119.38 386.71 119.877 384.976 118.746C383.242 117.614 382.76 115.286 383.905 113.532C384.545 112.55 385.575 111.96 386.652 111.841C387.211 111.777 387.71 111.489 388.012 111.026C388.557 110.19 388.325 109.066 387.494 108.524L379.614 103.383L384.789 95.451C385.335 94.6147 386.458 94.3748 387.288 94.9168C387.756 95.222 388.035 95.7282 388.092 96.2749C388.204 97.3548 388.787 98.3831 389.763 99.0198C391.505 100.156 393.83 99.6594 394.969 97.9138C396.108 96.1683 395.626 93.84 393.884 92.7034C392.908 92.0667 391.732 91.9477 390.699 92.2805C390.162 92.4511 389.591 92.3914 389.132 92.0915C388.301 91.5495 388.068 90.4255 388.614 89.5892L393.789 81.6572L401.669 86.7984C402.5 87.3404 403.622 87.1004 404.168 86.2642C404.475 85.7933 404.53 85.2157 404.366 84.6919C404.04 83.6576 404.166 82.478 404.807 81.4956C405.951 79.742 408.276 79.245 410.01 80.3763C411.744 81.5077 412.226 83.836 411.082 85.5896C410.441 86.572 409.412 87.1623 408.334 87.2809C407.775 87.3445 407.276 87.6327 406.974 88.0955C406.429 88.9317 406.661 90.0557 407.492 90.5977L415.372 95.7389Z" fill="url(#paint0_linear_6720_2458)"/>
<path d="M182.219 38.4334L190.096 43.5727C190.926 44.1145 191.162 45.2338 190.62 46.0646C190.314 46.5323 189.81 46.8125 189.266 46.8714C188.19 46.9864 187.165 47.5709 186.529 48.5468C185.392 50.2889 185.879 52.6076 187.613 53.7385C189.346 54.8695 191.665 54.3815 192.801 52.6394C193.438 51.6635 193.56 50.4898 193.232 49.4595C193.064 48.9244 193.125 48.3549 193.425 47.8951C193.967 47.0644 195.087 46.8288 195.917 47.3706L203.794 52.5099L198.653 60.3897C198.111 61.2204 198.346 62.3398 199.176 62.8816C199.644 63.1867 200.219 63.2396 200.74 63.0741C201.771 62.7459 202.944 62.8677 203.92 63.5042C205.661 64.6404 206.148 66.959 205.017 68.6931C203.886 70.4271 201.567 70.9152 199.826 69.7789C198.85 69.1424 198.266 68.1174 198.151 67.0423C198.09 66.4847 197.805 65.9881 197.345 65.6883C196.515 65.1465 195.395 65.3821 194.853 66.2128L189.712 74.0926L181.835 68.9533C181.005 68.4115 180.77 67.2921 181.312 66.4614C181.617 65.9936 182.122 65.7134 182.666 65.6545C183.741 65.5396 184.766 64.955 185.403 63.9791C186.539 62.237 186.052 59.9184 184.319 58.7874C182.585 57.6564 180.267 58.1445 179.13 59.8866C178.493 60.8625 178.371 62.0362 178.699 63.0665C178.867 63.6016 178.806 64.1711 178.506 64.6308C177.964 65.4615 176.845 65.6972 176.014 65.1553L168.137 60.016L173.279 52.1363C173.821 51.3055 173.585 50.1862 172.755 49.6444C172.287 49.3393 171.713 49.2863 171.191 49.4518C170.161 49.78 168.987 49.6583 168.012 49.0218C166.27 47.8856 165.783 45.5669 166.914 43.8329C168.046 42.0989 170.364 41.6108 172.106 42.747C173.081 43.3835 173.665 44.4085 173.78 45.4837C173.841 46.0413 174.127 46.5378 174.586 46.8377C175.417 47.3795 176.536 47.1439 177.078 46.3131L182.219 38.4334Z" fill="white"/>
<path d="M362.626 61.9774C360.01 92.649 340.548 98.8531 337.506 107.09C335.893 111.55 333.911 122.841 333.911 122.841L301.959 123.783C301.959 123.783 299.294 112.629 297.378 108.281C293.851 100.222 273.999 95.1976 269.481 64.7367C266.492 44.7248 280.597 12.5707 314.413 11.5663C348.229 10.5619 364.313 41.8135 362.614 61.9693L362.626 61.9774Z" fill="url(#paint1_linear_6720_2458)"/>
<path d="M299.586 75.0239L298.554 75.2482L309.633 125.753L310.665 125.528L299.586 75.0239Z" fill="white"/>
<path d="M334.278 74.1882L333.234 74.0251L325.337 125.09L326.382 125.253L334.278 74.1882Z" fill="white"/>
<path d="M316.94 91.362C313.558 91.4657 310.914 87.9382 309.642 85.8302C309.547 85.6806 309.472 85.5267 309.376 85.377C308.521 86.4465 307.587 87.0447 306.659 87.0694C301.991 87.209 299.786 77.5268 299.696 77.1005L300.211 76.9819C300.211 76.9819 302.404 86.6561 306.641 86.5325C307.463 86.5089 308.303 85.9196 309.098 84.8629C307.528 81.9481 306.497 78.5281 306.4 75.9092C306.314 73.1926 307.234 71.6751 308.984 71.6267C310.091 71.5964 310.963 72.0605 311.539 72.9787C313.034 75.3897 312.137 80.5275 310.381 83.8099C310.17 84.2145 309.95 84.5786 309.713 84.9143C311.59 88.2738 314.216 90.9146 316.922 90.8252C318.957 90.7702 320.95 89.1129 322.527 86.186C322.67 85.9122 322.814 85.6383 322.953 85.3442C321.002 83.3888 319.827 80.084 319.719 76.916C319.605 73.4633 320.827 71.2678 322.882 71.2086C323.671 71.1812 324.347 71.5697 324.803 72.3222C326.295 74.7129 325.674 80.6089 323.559 85.2492C324.504 86.1112 325.65 86.6135 326.989 86.577C330.623 86.4629 333.058 76.7104 333.077 76.6004L333.591 76.7259C333.49 77.1499 331.04 86.9798 327.002 87.0935C325.61 87.1305 324.375 86.6046 323.328 85.711C323.208 85.948 323.088 86.185 322.969 86.422C321.787 88.609 319.78 91.255 316.923 91.3337L316.94 91.362ZM322.9 71.7454C320.824 71.8089 320.165 74.459 320.248 76.9112C320.329 79.5018 321.294 82.8614 323.172 84.8744C325.119 80.439 325.722 74.8117 324.367 72.615C323.998 72.0244 323.523 71.7317 322.9 71.7454ZM309.002 72.1636C307.105 72.2213 306.894 74.5338 306.929 75.9044C307.013 78.4095 307.964 81.6025 309.435 84.4002C309.603 84.1424 309.779 83.8723 309.919 83.5781C311.587 80.4837 312.474 75.4965 311.09 73.2634C310.621 72.5029 309.917 72.1309 309.002 72.1636Z" fill="white"/>
<path d="M337.621 121.359L298.201 122.533L298.444 130.229L337.864 129.055L337.621 121.359Z" fill="#DBDBDB"/>
<path d="M337.907 130.307L298.487 131.481L298.73 139.177L338.15 138.004L337.907 130.307Z" fill="#DBDBDB"/>
<path d="M338.189 139.249L298.769 140.423L299.012 148.119L338.432 146.946L338.189 139.249Z" fill="#DBDBDB"/>
<path d="M276.945 54.7481C277.102 39.081 287.677 21.5829 304.253 19.5867C289.657 25.9382 281.682 40.2316 276.945 54.7481Z" fill="white"/>
<path d="M427.513 198.153C429.007 196.74 430.193 195.081 431.026 193.264L435.011 193.974L436.349 188.751L432.462 187.416C432.563 185.416 432.272 183.365 431.566 181.409L434.787 179.173L432.037 174.52L428.507 176.262C427.081 174.643 425.367 173.378 423.495 172.465L424.142 168.842L418.928 167.492L417.739 170.981C415.593 170.826 413.411 171.132 411.306 171.883L409.322 169.05L404.688 171.786L406.228 174.916C404.544 176.441 403.241 178.258 402.349 180.255L399.008 179.658L397.667 184.865L401.017 186.01C400.907 188.181 401.278 190.358 402.106 192.466L399.233 194.46L401.983 199.112L405.313 197.475C406.82 199.059 408.595 200.276 410.537 201.103L409.885 204.781L415.108 206.137L416.394 202.389C418.419 202.435 420.485 202.083 422.44 201.336L424.715 204.579L429.342 201.853L427.53 198.15L427.513 198.153ZM409.746 195.091C405.179 191.086 404.712 184.127 408.702 179.564C412.71 174.998 419.673 174.543 424.246 178.539C428.824 182.551 429.291 189.509 425.283 194.076C421.283 198.632 414.32 199.086 409.743 195.074L409.746 195.091Z" fill="#DBDBDB"/>
<path d="M419.476 195.797L416.938 195.973L416.503 189.754L416.342 187.48C416.629 187.535 416.936 187.559 417.243 187.54C417.846 187.493 418.389 187.291 418.856 186.98L419.029 189.394L419.486 195.804L419.476 195.797Z" fill="#DBDBDB"/>
<path d="M422.52 183.817C422.283 180.76 419.616 178.478 416.557 178.71C413.499 178.942 411.219 181.603 411.457 184.659C411.664 187.403 413.845 189.529 416.496 189.764C416.803 189.789 417.107 189.796 417.413 189.777C417.982 189.737 418.523 189.606 419.032 189.411C421.238 188.55 422.711 186.316 422.524 183.834L422.52 183.817ZM417.242 187.54C416.936 187.56 416.622 187.546 416.342 187.48C414.914 187.193 413.8 185.997 413.685 184.486C413.539 182.662 414.916 181.069 416.741 180.926C418.567 180.784 420.164 182.162 420.31 183.987C420.408 185.209 419.82 186.335 418.873 186.977C418.406 187.288 417.862 187.49 417.259 187.537L417.242 187.54Z" fill="#DBDBDB"/>
<path d="M199.732 140.466C201.091 140.005 202.307 139.288 203.364 138.366L205.689 139.956L208.044 137.023L205.96 135.062C206.594 133.82 206.995 132.44 207.116 130.995L209.807 130.494L209.399 126.754L206.655 126.84C206.227 125.403 205.484 124.112 204.565 122.999L206.018 120.885L203.088 118.533L201.326 120.402C200.002 119.685 198.535 119.256 196.983 119.137L196.528 116.773L192.796 117.182L192.873 119.606C191.368 120.09 190.013 120.862 188.879 121.88L186.928 120.549L184.58 123.472L186.385 125.163C185.7 126.504 185.297 128 185.229 129.567L182.827 130.008L183.235 133.748L185.818 133.66C186.325 135.089 187.102 136.373 188.096 137.461L186.622 139.607L189.546 141.968L191.429 139.959C192.704 140.571 194.116 140.95 195.579 141.025L196.1 143.739L199.814 143.334L199.732 140.466ZM189.331 133.431C187.574 129.573 189.277 125.028 193.128 123.29C196.985 121.542 201.537 123.251 203.3 127.098C205.057 130.956 203.354 135.501 199.496 137.25C195.639 138.998 191.087 137.288 189.331 133.431Z" fill="#DBDBDB"/>
<path d="M234.348 156.754C236.335 157.178 238.336 157.196 240.285 156.849L241.951 160.468L246.938 158.616L245.829 154.716C247.506 153.672 249.011 152.288 250.205 150.617L253.83 151.965L256.068 147.135L252.669 145.25C253.179 143.196 253.24 141.097 252.926 139.066L256.224 137.543L254.386 132.565L250.89 133.565C249.816 131.743 248.339 130.156 246.547 128.863L247.721 125.664L242.896 123.45L241.214 126.442C239.034 125.933 236.815 125.897 234.703 126.304L233.298 123.27L228.321 125.108L229.265 128.465C227.454 129.587 225.878 131.112 224.647 132.966L221.429 131.759L219.191 136.589L222.391 138.365C221.954 140.467 221.96 142.589 222.376 144.624L219.03 146.157L220.859 151.149L224.619 150.094C225.711 151.762 227.153 153.242 228.867 154.402L227.514 158.065L232.324 160.27L234.319 156.735L234.348 156.754ZM226.855 140.655C227.538 134.707 232.921 130.435 238.868 131.118C244.816 131.802 249.113 137.179 248.429 143.127C247.745 149.074 242.368 153.371 236.406 152.678C230.458 151.994 226.186 146.612 226.855 140.655Z" fill="url(#paint2_linear_6720_2458)"/>
<path d="M215.552 181.878C216.508 180.054 217.09 178.104 217.283 176.12L221.282 175.504L220.856 170.126L216.745 170.126C216.185 168.193 215.255 166.355 213.942 164.721L216.267 161.563L212.159 158.047L209.383 160.838C207.514 159.765 205.479 159.126 203.417 158.865L202.852 155.229L197.488 155.642L197.493 159.324C195.417 159.874 193.45 160.863 191.703 162.258L188.909 160.216L185.422 164.3L187.889 166.775C186.782 168.764 186.151 170.902 185.963 173.081L182.611 173.605L183.034 178.966L186.575 178.961C187.184 181.044 188.228 183 189.692 184.717L187.622 187.529L191.731 191.045L194.355 188.419C196.288 189.416 198.367 190.011 200.469 190.166L201.044 193.853L206.419 193.447L206.417 189.489C208.346 188.872 210.187 187.874 211.795 186.534L215.004 188.863L218.491 184.778L215.583 181.854L215.552 181.878ZM197.764 184.723C192.135 182.413 189.444 175.982 191.746 170.361C194.048 164.741 200.485 162.053 206.115 164.363C211.744 166.673 214.445 173.11 212.137 178.741C209.835 184.362 203.404 187.039 197.764 184.723Z" fill="url(#paint3_linear_6720_2458)"/>
<g opacity="0.6">
<path d="M208.289 174.443C207.598 175.501 206.17 175.8 205.109 175.108C204.048 174.416 203.746 172.988 204.437 171.929C205.128 170.871 206.557 170.572 207.617 171.264C208.678 171.956 208.98 173.384 208.289 174.443Z" fill="#F957E9"/>
<path d="M206.229 180.661L205.773 181.36L199.11 177.012L199.566 176.313C200.759 174.484 203.225 173.967 205.069 175.17C206.913 176.373 207.423 178.831 206.229 180.661Z" fill="#F957E9"/>
</g>
<path d="M202.588 172.38C201.897 173.438 200.469 173.737 199.408 173.045C198.347 172.353 198.045 170.925 198.736 169.866C199.427 168.808 200.855 168.509 201.916 169.201C202.977 169.893 203.279 171.321 202.588 172.38Z" fill="#F957E9"/>
<path d="M200.545 178.594L200.089 179.293L193.425 174.945L193.881 174.246C195.075 172.416 197.541 171.9 199.384 173.103C201.228 174.306 201.739 176.764 200.545 178.594Z" fill="#F957E9"/>
<path d="M507.651 142.517L511.244 138.325L506.68 133.565C508.381 131.039 509.66 128.326 510.513 125.544L517.035 126.094L518.038 120.666L511.708 118.826C511.916 115.851 511.676 112.863 510.986 109.949L516.932 107.169L515.079 101.958L508.673 103.511C507.404 100.865 505.699 98.4067 503.622 96.1953L507.365 90.8076L503.163 87.2097L498.407 91.7617C495.876 90.058 493.159 88.7745 490.365 87.9303L490.912 81.4015L485.478 80.3902L483.636 86.7032C480.67 86.4984 477.672 86.7448 474.765 87.4169L471.965 81.4828L466.74 83.3173L468.334 89.705C465.673 90.9923 463.211 92.6719 461.014 94.7512L455.607 91.0139L452.022 95.1938L456.578 99.9665C454.877 102.492 453.606 105.193 452.77 108.003L446.223 107.437L445.233 112.873L451.554 114.725C451.354 117.688 451.606 120.684 452.272 123.582L446.358 126.365L448.204 131.589L454.585 130.02C455.862 132.653 457.572 135.132 459.661 137.352L455.926 142.727L460.115 146.317L464.876 141.785C467.415 143.477 470.12 144.752 472.934 145.592L472.386 152.121L477.82 153.132L479.651 146.811C482.629 147.024 485.618 146.79 488.534 146.106L491.326 152.052L496.526 150.201L494.965 143.818C497.585 142.539 500.063 140.835 502.285 138.771L507.671 142.513L507.651 142.517ZM471.03 133.025C462.039 127.158 459.494 115.117 465.349 106.143C471.203 97.1699 483.25 94.6484 492.241 100.514C501.232 106.381 503.777 118.422 497.922 127.396C492.067 136.369 480.02 138.891 471.03 133.025Z" fill="url(#paint4_linear_6720_2458)"/>
<path d="M490.647 110.259C489.448 112.097 486.973 112.615 485.131 111.413C483.289 110.211 482.766 107.738 483.966 105.899C485.165 104.06 487.64 103.542 489.482 104.745C491.324 105.947 491.847 108.42 490.647 110.259Z" fill="#7CCFE1"/>
<path d="M488.991 113.199L481.928 108.591L481.264 109.608L488.327 114.216L488.991 113.199Z" fill="#7CCFE1"/>
<path opacity="0.1" d="M488.991 113.199L481.928 108.591L481.264 109.608L488.327 114.216L488.991 113.199Z" fill="black"/>
<path d="M483.494 129.568L469.173 120.224L468.509 121.242L482.83 130.586L483.494 129.568Z" fill="#7CCFE1"/>
<path opacity="0.1" d="M483.494 129.568L469.173 120.224L468.509 121.242L482.83 130.586L483.494 129.568Z" fill="black"/>
<path d="M481.63 132.426L467.309 123.082L466.645 124.099L480.966 133.443L481.63 132.426Z" fill="#7CCFE1"/>
<path opacity="0.1" d="M481.63 132.426L467.309 123.082L466.645 124.099L480.966 133.443L481.63 132.426Z" fill="black"/>
<path d="M482.301 130.242L469.048 121.595L467.849 123.434L481.101 132.081L482.301 130.242Z" fill="#7CCFE1"/>
<path d="M487.688 113.8L481.915 110.034L481.251 111.051L487.024 114.817L487.688 113.8Z" fill="#7CCFE1"/>
<path d="M482.192 128.719L470.474 121.074C470.474 121.074 474.875 120.153 477.528 117.322C479.754 114.93 482.199 111.666 482.199 111.666L486.068 114.191C486.068 114.191 484.07 117.763 482.785 120.752C481.258 124.3 482.192 128.719 482.192 128.719Z" fill="#7CCFE1"/>
<path fill-rule="evenodd" clip-rule="evenodd" d="M23.5977 261.974C24.151 261.642 24.6734 261.244 25.1529 260.786L35.0088 251.347L34.3504 250.66L24.4921 260.097C22.2452 262.246 18.9463 262.878 16.0625 261.711C13.1811 260.543 11.2514 257.79 11.1369 254.682L10.1948 229.305C10.0517 225.458 12.809 222.109 16.6135 221.51L43.3668 217.302L43.2189 216.36L19.4019 220.105L19.0108 216.188C18.7412 213.519 19.991 210.924 22.2451 209.467L54.6182 188.543C57.9266 186.403 61.9529 185.673 65.8003 186.513L97.4101 193.416C100.437 194.077 102.694 196.612 103.004 199.694C103.34 203.065 103.86 206.786 104.471 210.998L98.6743 215.563C97.8419 216.219 97.4601 217.298 97.6939 218.33C97.9277 219.366 98.7363 220.172 99.7715 220.405L106.021 221.81C106.4 224.57 106.784 227.509 107.161 230.648C104.802 232.198 102.183 233.513 99.4495 234.624C99.1371 234.751 98.8222 234.877 98.5073 234.999C95.7404 236.067 94.159 236.616 93.2526 236.89L93.5292 237.804C94.4475 237.525 96.0505 236.971 98.8508 235.888C99.1728 235.764 99.4924 235.638 99.8097 235.507C102.698 234.333 105.463 232.935 107.934 231.28C108.902 230.631 109.825 229.942 110.694 229.212C112.115 228.019 113.465 226.061 114.651 223.75L128.073 226.769C128.211 226.8 128.359 226.769 128.474 226.679L133.986 222.335C133.12 226.512 131.83 230.844 130.043 234.262C128.497 237.219 126.563 240.134 124.271 242.877C122.072 245.508 119.548 247.984 116.724 250.188L116.328 250.231L116.354 250.472C115.417 251.19 114.446 251.879 113.444 252.533C112.879 250.377 110.639 248.681 108.192 249.587L108.177 249.554C108.089 249.597 108.001 249.642 107.92 249.694C105.246 250.71 102.195 250.918 98.8676 250.737C98.4501 250.715 98.0374 250.753 97.6415 250.846C94.7625 251.095 92.7277 250.632 90.2995 250.193L90.1302 251.133C92.0384 251.476 93.7129 251.829 95.7117 251.867C95.5686 251.996 95.435 252.137 95.3086 252.287V252.29C93.8083 254.095 93.7606 256.342 94.6431 258.241C95.4136 259.896 96.8972 261.28 98.722 261.859C96.6158 262.518 94.8245 262.651 92.7708 262.88L92.878 263.83C95.5018 263.534 97.713 263.381 100.635 262.179L100.621 262.148C101.36 262.145 102.128 262.01 102.908 261.714C106.632 260.302 108.8 259.123 111.786 256.922C113.058 255.982 113.585 254.765 113.582 253.58C114.799 252.802 115.97 251.975 117.096 251.106L121.351 250.641C120.719 251.221 120.192 251.963 119.779 252.831C118.615 255.286 118.384 258.77 119.4 262.341C120.414 265.914 122.446 268.755 124.726 270.229C125.148 270.501 125.578 270.728 126.012 270.904C116.28 272.739 110.873 273.24 100.537 273.261L100.54 274.215C101.844 274.21 103.073 274.201 104.242 274.182L97.7059 278.368C94.0755 276.388 90.7122 274.551 90.7122 274.551L90.2542 275.389L103.767 282.764C102.915 282.881 102.057 283.188 101.219 283.668C98.8627 285.02 96.6849 287.751 95.4827 291.263C94.2806 294.776 94.3283 298.271 95.3611 300.78C95.6068 301.376 95.9073 301.918 96.2579 302.392C86.0967 298.535 76.6701 293.307 68.1451 286.392L67.544 287.134C69.7933 288.958 72.1047 290.666 74.4756 292.264C70.4135 294.039 67.0908 294.17 64.5528 293.638L59.3983 292.558C59.2623 292.205 59.1121 291.857 58.9499 291.513L53.9647 281.006L53.1035 281.416L58.0887 291.921C58.9927 293.829 59.4722 295.909 59.4937 298.02L59.6511 313.393C59.6487 314.667 58.9165 315.831 57.7119 316.788C55.7822 318.319 52.6622 319.299 49.1535 319.299C45.6423 319.299 42.5225 318.319 40.5928 316.788C39.3882 315.831 38.6535 314.665 38.6535 313.391V303.897C39.3022 304.673 39.9511 305.405 40.5928 306.073L41.282 305.414C36.5234 300.444 31.2854 291.921 29.0313 288.097C28.2823 286.821 27.6955 285.459 27.2781 284.038C24.2631 273.848 24.6186 272.261 23.5977 261.974ZM89.9561 201.874L67.2124 216.448C63.4699 218.846 58.9356 219.678 54.5872 218.764L54.3892 219.699C58.9856 220.663 63.7729 219.783 67.7277 217.25L90.4713 202.678L89.9561 201.874Z" fill="#FF85D0"/>
<path fill-rule="evenodd" clip-rule="evenodd" d="M97.7967 251.791C97.8754 251.784 97.9542 251.777 98.0329 251.767L98.0304 251.739C98.288 251.693 98.5504 251.677 98.8152 251.691C101.666 251.844 105.728 250.763 108.13 250.124C110.932 249.38 112.096 250.625 112.695 251.887C113.327 253.21 113.244 255.352 111.502 256.538C109.263 258.062 105.577 259.682 102.57 260.822C99.4902 261.988 96.6255 260.24 95.5092 257.838C94.7769 256.264 94.7984 254.398 96.0435 252.898C96.5014 252.347 97.1193 251.965 97.7967 251.791Z" fill="white"/>
<path fill-rule="evenodd" clip-rule="evenodd" d="M128.698 270.387C127.551 270.511 126.363 270.15 125.244 269.428C123.126 268.059 121.261 265.401 120.316 262.081C119.372 258.761 119.56 255.522 120.641 253.241C121.309 251.834 122.318 250.799 123.62 250.393L124.025 250.348C124.033 250.348 124.04 250.345 124.047 250.345C125.528 250.119 126.895 250.66 128.085 251.672C129.974 253.272 131.42 256.027 132.19 258.947C132.963 261.862 133.063 264.948 132.209 267.231C131.675 268.655 130.764 269.757 129.383 270.251C129.151 270.296 128.925 270.341 128.698 270.387Z" fill="#FF85D0"/>
<path fill-rule="evenodd" clip-rule="evenodd" d="M99.094 303.428C97.8012 302.958 96.84 301.868 96.2437 300.417C95.2848 298.085 95.2681 294.838 96.3844 291.573C97.5031 288.307 99.5043 285.753 101.694 284.496C103.046 283.72 104.466 283.446 105.768 283.856L106.124 284.05C106.128 284.054 106.135 284.057 106.143 284.059C107.488 284.717 108.301 285.943 108.702 287.451C109.341 289.843 108.957 292.932 107.929 295.768C106.899 298.605 105.222 301.197 103.218 302.583C101.961 303.454 100.58 303.838 99.1584 303.449C99.137 303.442 99.1155 303.435 99.094 303.428Z" fill="#FF85D0"/>
<path fill-rule="evenodd" clip-rule="evenodd" d="M84.5756 298.24L84.5947 300.007C84.5947 301.281 83.8601 302.447 82.6555 303.401C80.7258 304.933 77.6083 305.913 74.0972 305.913C70.586 305.913 67.4661 304.933 65.5364 303.401C64.3318 302.445 63.5972 301.281 63.5972 300.005V294.411L64.3581 294.571C67.156 295.158 70.8627 295.005 75.4139 292.887C78.3788 294.838 81.4342 296.618 84.5756 298.24Z" fill="#FF85D0"/>
<path fill-rule="evenodd" clip-rule="evenodd" d="M142.378 198.905L135.525 211.642L135.358 211.635C135.355 211.747 135.351 211.859 135.346 211.974L127.93 225.758L99.9817 219.473C99.3066 219.323 98.7771 218.796 98.6245 218.121C98.4718 217.446 98.7198 216.742 99.2636 216.315L124.507 196.427C125.471 195.668 126.721 195.384 127.916 195.654L142.378 198.905ZM101.637 217.823L126.826 223.485L127.033 222.555L101.845 216.89L101.637 217.823ZM127.093 205.593C127.524 205.252 127.725 204.692 127.601 204.153C127.479 203.614 127.059 203.194 126.52 203.072L122.358 202.137C121.657 201.98 120.922 202.147 120.359 202.59L112.411 208.852C111.977 209.193 111.779 209.753 111.901 210.292C112.022 210.831 112.445 211.251 112.984 211.373L117.144 212.308C117.845 212.465 118.58 212.298 119.145 211.855L127.093 205.593Z" fill="#E9FC87"/>
<path fill-rule="evenodd" clip-rule="evenodd" d="M126.502 204.844L118.554 211.106C118.215 211.373 117.776 211.471 117.354 211.378L113.192 210.44C113.013 210.402 112.872 210.261 112.832 210.082C112.791 209.901 112.858 209.715 113.001 209.6L120.949 203.339C121.287 203.074 121.729 202.974 122.148 203.067L126.311 204.005C126.49 204.043 126.63 204.183 126.671 204.365C126.711 204.544 126.647 204.73 126.502 204.844Z" fill="white"/>
<path fill-rule="evenodd" clip-rule="evenodd" d="M158.495 201.813L129.686 224.509L135.346 213.987C135.713 213.534 135.985 213.038 136.145 212.503L144.978 196.083C145.195 195.68 145.493 195.325 145.853 195.041L172.315 174.193C172.492 174.055 172.745 174.057 172.916 174.203C173.091 174.349 173.138 174.597 173.031 174.795L158.495 201.813ZM152.787 194.848C151.155 195.895 149.5 198.418 149.097 200.484C148.863 201.696 149.121 202.526 149.593 202.917C150.092 203.332 150.917 203.368 151.928 202.719C153.557 201.672 155.215 199.148 155.616 197.083C155.852 195.871 155.594 195.041 155.122 194.65C154.621 194.237 153.798 194.199 152.787 194.848Z" fill="#E9FC87"/>
<path fill-rule="evenodd" clip-rule="evenodd" d="M85.1001 189.752L94.9704 180.588C97.0527 178.654 100.072 178.112 102.699 179.205C105.322 180.297 107.069 182.821 107.164 185.664L107.808 204.694L108.285 204.679L107.808 204.696L107.944 208.262L105.337 210.316C104.762 206.342 104.275 202.812 103.953 199.599C103.603 196.107 101.043 193.235 97.6133 192.484L85.1001 189.752Z" fill="#FF85D0"/>
<path d="M106.45 221.418C106.856 224.362 107.269 227.508 107.671 230.884C107.676 230.929 107.681 230.975 107.687 231.02M18.9803 220.656L18.5376 216.237C18.2522 213.389 19.5837 210.62 21.9877 209.066L54.3607 188.142C57.776 185.935 61.9307 185.181 65.9044 186.049L97.5138 192.952C100.742 193.658 103.15 196.36 103.479 199.648C103.824 203.084 104.358 206.887 104.984 211.202M40.9376 305.745C36.1561 300.748 30.8874 292.185 28.6225 288.341C27.8537 287.031 27.2497 285.631 26.8205 284.174C23.7648 273.844 24.1568 272.321 23.0943 261.717" stroke="#242728" stroke-width="2.02" stroke-miterlimit="1.5" stroke-linejoin="round"/>
<path d="M90.2148 202.278C77.8425 210.206 76.8256 210.857 67.4717 216.85C63.624 219.316 58.9624 220.172 54.4891 219.234" stroke="#242728" stroke-width="2.02" stroke-miterlimit="1.5" stroke-linejoin="round"/>
<path d="M108.431 208.488L108.284 204.681C108.088 198.866 107.854 191.897 107.642 185.649C107.54 182.621 105.68 179.931 102.882 178.767C100.084 177.603 96.8664 178.179 94.6446 180.241C91.1303 183.505 87.3765 186.99 84.1194 190.016" stroke="#242728" stroke-width="2.02234" stroke-miterlimit="1.5" stroke-linejoin="round"/>
<path d="M43.2932 216.831C43.2932 216.831 26.4618 219.478 16.5402 221.039C12.4971 221.675 9.56641 225.233 9.71934 229.323C9.96172 235.886 10.334 245.889 10.6589 254.7C10.7817 257.996 12.8273 260.914 15.8847 262.153C18.9401 263.391 22.4397 262.721 24.8214 260.44C29.9947 255.49 34.6793 251.004 34.6793 251.004" stroke="#242728" stroke-width="2.0222" stroke-miterlimit="1.5" stroke-linejoin="round"/>
<path d="M26.221 281.507C25.7219 281.823 25.1832 282.109 24.5918 282.35C21.7306 283.522 18.6806 282.674 16.1431 282.863" stroke="#242728" stroke-width="2.02245" stroke-miterlimit="1.5" stroke-linejoin="round"/>
<path fill-rule="evenodd" clip-rule="evenodd" d="M9.7149 281.983C9.8167 280.976 14.0135 280.578 15.0209 280.68C16.0284 280.782 16.7635 281.683 16.6617 282.69C16.5599 283.697 15.6592 284.433 14.6517 284.331C13.6443 284.229 9.6131 282.989 9.7149 281.983Z" fill="#FF85D0" stroke="#242728" stroke-width="2.02245" stroke-miterlimit="1.5" stroke-linejoin="round"/>
<path d="M135.835 211.656C135.83 211.803 135.824 211.954 135.817 212.107M134.704 221.164C133.836 225.766 132.452 230.682 130.465 234.486C128.905 237.472 126.951 240.415 124.636 243.186C122.39 245.876 119.804 248.403 116.91 250.65C115.691 251.596 114.417 252.492 113.091 253.33M93.3907 237.349C94.3025 237.072 95.8955 236.523 98.6789 235.446C98.9973 235.323 99.3144 235.197 99.6298 235.069C102.488 233.906 105.222 232.525 107.669 230.886C108.622 230.247 109.532 229.57 110.388 228.85C111.835 227.634 113.202 225.594 114.392 223.206" stroke="#242728" stroke-width="2.02233" stroke-miterlimit="1.5" stroke-linejoin="round"/>
<path d="M151.758 202.282C153.382 201.239 155.024 198.725 155.424 196.667C155.825 194.61 154.832 193.787 153.208 194.831C151.583 195.874 149.942 198.388 149.542 200.446C149.141 202.504 150.134 203.326 151.758 202.282Z" fill="white"/>
<path fill-rule="evenodd" clip-rule="evenodd" d="M152.949 194.43C154.001 193.755 154.859 193.79 155.379 194.22C155.871 194.628 156.138 195.496 155.892 196.759C155.47 198.929 153.73 201.583 152.015 202.685C150.965 203.359 150.106 203.324 149.587 202.894C149.094 202.486 148.827 201.617 149.073 200.355C149.496 198.184 151.235 195.531 152.949 194.43ZM153.465 195.233C151.933 196.218 150.388 198.596 150.01 200.538C149.923 200.983 149.906 201.36 149.96 201.664C150 201.883 150.069 202.055 150.195 202.16C150.302 202.248 150.446 202.271 150.614 202.251C150.872 202.221 151.168 202.094 151.499 201.881C153.033 200.896 154.578 198.518 154.956 196.576C155.042 196.132 155.058 195.753 155.004 195.45C154.966 195.231 154.895 195.059 154.769 194.955C154.663 194.866 154.519 194.843 154.351 194.863C154.093 194.893 153.797 195.02 153.465 195.233Z" fill="#242728"/>
<path fill-rule="evenodd" clip-rule="evenodd" d="M143.197 198.115L142.988 199.045L127.916 195.656C126.721 195.387 125.469 195.671 124.508 196.428L99.2635 216.316C98.7194 216.745 98.4715 217.448 98.6259 218.122C98.778 218.797 99.3041 219.324 99.9789 219.476L128.061 225.791L158.573 201.753L159.164 202.502L128.473 226.681C128.359 226.771 128.213 226.803 128.073 226.772L99.7716 220.407C98.7353 220.174 97.9281 219.367 97.6927 218.334C97.4594 217.299 97.8412 216.222 98.6731 215.566L123.918 195.679C125.104 194.744 126.65 194.394 128.125 194.725L143.197 198.115Z" fill="#242728"/>
<path fill-rule="evenodd" clip-rule="evenodd" d="M101.634 217.822L101.844 216.89L127.033 222.554L126.823 223.486L101.634 217.822Z" fill="#242728"/>
<path fill-rule="evenodd" clip-rule="evenodd" d="M127.092 205.596L119.145 211.857C118.581 212.301 117.847 212.468 117.146 212.31L112.984 211.374C112.446 211.253 112.024 210.833 111.902 210.295C111.779 209.756 111.978 209.196 112.412 208.854L120.36 202.593C120.923 202.149 121.659 201.982 122.359 202.139L126.521 203.075C127.06 203.196 127.481 203.616 127.603 204.155C127.725 204.693 127.526 205.254 127.092 205.596ZM126.502 204.846C126.646 204.733 126.713 204.546 126.672 204.366C126.631 204.187 126.491 204.047 126.311 204.006L122.15 203.071C121.729 202.976 121.289 203.076 120.95 203.342L113.002 209.604C112.858 209.717 112.792 209.904 112.833 210.084C112.873 210.263 113.014 210.403 113.193 210.443L117.355 211.379C117.775 211.474 118.216 211.374 118.554 211.107L126.502 204.846Z" fill="#242728"/>
<path fill-rule="evenodd" clip-rule="evenodd" d="M159.149 202.502L128.458 226.681C128.282 226.819 128.03 226.816 127.857 226.67C127.685 226.524 127.638 226.277 127.743 226.079L144.124 195.632C144.403 195.114 144.786 194.657 145.248 194.294L171.71 173.446C172.243 173.027 172.999 173.038 173.517 173.475C174.037 173.91 174.178 174.651 173.858 175.248L159.274 202.353C159.244 202.411 159.2 202.462 159.149 202.502ZM158.482 201.813L173.017 174.796C173.122 174.598 173.075 174.351 172.903 174.206C172.73 174.06 172.478 174.056 172.302 174.195L145.837 195.044C145.478 195.327 145.18 195.681 144.963 196.085L129.671 224.51L158.482 201.813Z" fill="#242728"/>
<path d="M106.017 273.608L98.0166 278.734" stroke="#242728" stroke-width="2.02185" stroke-miterlimit="1.5" stroke-linejoin="round"/>
<path d="M75.4534 292.344C70.9143 294.51 67.2266 294.686 64.4549 294.107L59.0093 292.964" stroke="#242728" stroke-width="2.02185" stroke-miterlimit="1.5" stroke-linejoin="round"/>
<path fill-rule="evenodd" clip-rule="evenodd" d="M95.6788 252.595C96.4583 251.661 97.6304 251.15 98.8457 251.215C102.323 251.402 105.504 251.167 108.279 250.067C111.959 248.607 115.124 253.869 111.506 256.538C108.557 258.713 106.42 259.876 102.741 261.268C97.1726 263.377 92.2476 256.729 95.6788 252.595Z" stroke="#242728" stroke-width="2.02196" stroke-miterlimit="1.5" stroke-linejoin="round"/>
<path d="M97.9881 251.295C94.9007 251.606 92.7726 251.123 90.2163 250.664" stroke="#242728" stroke-width="2.02196" stroke-miterlimit="1.5" stroke-linejoin="round"/>
<path d="M100.451 261.741C97.5815 262.921 95.404 263.065 92.8231 263.356" stroke="#242728" stroke-width="2.02196" stroke-miterlimit="1.5" stroke-linejoin="round"/>
<path d="M53.5345 281.21C53.5345 281.21 56.631 287.741 58.518 291.716C59.4523 293.685 59.9465 295.835 59.9701 298.014C60.0243 303.381 60.1273 313.39 60.1273 313.39C60.127 316.914 55.2094 319.775 49.1506 319.775C43.0943 319.775 38.1756 316.914 38.176 313.391L38.1754 302.559" stroke="#242728" stroke-width="2.02298" stroke-miterlimit="1.5" stroke-linejoin="round"/>
<path d="M85.0499 297.948L85.0707 300.008C85.0703 303.532 80.1528 306.392 74.0939 306.393C68.0376 306.392 63.119 303.532 63.1193 300.008L63.1191 293.827" stroke="#242728" stroke-width="2.02298" stroke-miterlimit="1.5" stroke-linejoin="round"/>
<path d="M106.019 283.436C102.387 282.193 97.8684 285.77 95.9353 291.418C94.0023 297.067 95.3825 302.662 99.0136 303.905" stroke="#242728" stroke-width="2.02055" stroke-miterlimit="1.5" stroke-linejoin="round"/>
<path d="M123.589 249.905C119.898 250.955 118.225 256.471 119.859 262.213C121.492 267.955 125.816 271.764 129.508 270.714" stroke="#242728" stroke-width="2.02055" stroke-miterlimit="1.5" stroke-linejoin="round"/>
<path d="M108.381 249.986C106.916 250.684 106.426 252.718 107.287 254.527C108.148 256.335 110.037 257.236 111.502 256.538" stroke="#242728" stroke-width="2.00385" stroke-miterlimit="1.5" stroke-linejoin="round"/>
<path d="M90.4854 274.971L106.354 283.633C113.707 287.229 106.846 306.081 99.0149 303.907C87.6873 299.949 77.2255 294.37 67.8461 286.765" stroke="#242728" stroke-width="2.02211" stroke-miterlimit="1.5" stroke-linejoin="round"/>
<path d="M116.665 250.867L123.974 249.876C132.066 248.636 137.18 268.035 129.507 270.715C117.472 273.099 112.054 273.717 100.539 273.739" stroke="#242728" stroke-width="2.02211" stroke-miterlimit="1.5" stroke-linejoin="round"/>
<path fill-rule="evenodd" clip-rule="evenodd" d="M362.111 257.247C365.441 260.669 369.629 263.12 374.694 262.625C374.714 262.623 374.735 262.621 374.756 262.619C375.08 262.59 375.405 262.604 375.727 262.667C376.071 262.734 376.397 262.853 376.702 263.016C378.819 264.151 379.932 267.481 379.232 271.07C378.547 274.594 376.339 277.231 373.998 277.573C373.982 277.575 373.963 277.577 373.944 277.579C373.677 277.586 373.391 277.588 373.09 277.588C367.602 277.571 356.72 276.385 347.365 269.736C347.017 269.984 346.66 270.226 346.297 270.462L346.42 283.678C346.42 286.857 341.981 289.44 336.516 289.44C333.814 289.44 331.267 288.613 329.478 287.592L329.576 297.191C329.576 300.371 325.14 302.953 319.674 302.953C314.208 302.953 309.77 300.371 309.77 297.191V286.483C307.357 286.385 304.421 285.857 302.718 285.041L302.762 289.279C302.762 292.458 298.323 295.039 292.857 295.039C287.392 295.039 282.953 292.458 282.953 289.279V277.124C281.628 272.249 280.075 266.993 278.903 262.665C277.807 262.959 276.64 263.001 275.488 262.761C272.868 262.214 270.751 260.287 269.957 257.729L266.187 245.548C264.598 240.414 266.605 234.848 271.106 231.909L279.546 226.397L284.64 200.224C287.78 184.086 308.388 174.495 330.632 178.825C347.207 182.05 360.044 192.098 364.209 203.689C365.514 203.771 365.981 203.645 367.259 203.725C370.62 203.936 373.09 205.75 373.952 208.245C376.291 215.007 365.66 226.829 362.697 228.996L359.006 247.967C359.006 247.967 359.731 249.18 362.213 250.13C364.698 251.08 366.115 251.466 366.115 251.466L369.261 252.124L371.783 252.393L372.856 252.487L373.401 253.489L373.232 254.362L372.063 255.074L368.209 256.283L364.758 256.627L362.111 257.247Z" fill="#FF85D0"/>
<path fill-rule="evenodd" clip-rule="evenodd" d="M355.501 247.903C355.522 247.89 355.545 247.878 355.568 247.865C355.868 247.713 356.198 247.596 356.564 247.517C357.326 247.348 358.125 247.515 358.758 247.976C358.837 248.032 358.914 248.089 358.994 248.143C363.357 251.218 367.789 252.27 372.253 252.408C372.821 252.429 373.301 252.84 373.409 253.4C373.518 253.959 373.228 254.519 372.708 254.753C369.157 256.364 365.47 257.106 361.643 256.945C360.171 255.356 358.873 253.588 357.749 251.822C356.902 250.485 356.152 249.153 355.501 247.903Z" fill="white"/>
<path d="M358.993 248.143L365.231 216.084C366.031 211.972 365.621 207.829 364.195 203.866C360.031 192.275 347.193 182.226 330.618 179C308.374 174.672 287.766 184.261 284.625 200.4L279.532 226.574M278.934 262.962C280.126 267.447 281.522 272.086 282.939 277.3M303.232 274.081C304.085 274.295 306.515 275.003 310.046 275.752M321.615 277.127C331.612 277.268 340.727 274.612 347.351 269.913" stroke="#242728" stroke-width="1.6119" stroke-miterlimit="1.5" stroke-linejoin="round"/>
<path d="M329.263 276.129C329.263 276.129 329.378 280.019 329.389 280.468C329.391 280.496 329.391 280.524 329.391 280.552C329.4 281.479 329.563 297.37 329.563 297.37C329.563 300.55 325.126 303.131 319.659 303.131C314.194 303.131 309.756 300.55 309.756 297.37L309.756 275.775" stroke="#242728" stroke-width="1.6119" stroke-miterlimit="1.5" stroke-linejoin="round"/>
<path d="M346.286 270.888L346.405 283.857C346.405 287.037 341.967 289.618 336.5 289.618C333.801 289.617 331.35 288.987 329.564 287.966" stroke="#242728" stroke-width="1.6119" stroke-miterlimit="1.5" stroke-linejoin="round"/>
<path d="M295.258 218.718C301.478 224.638 310.266 229.21 320.466 231.194C336.974 234.406 352.579 229.953 360.813 220.851M286.304 204.485C287.005 207.037 288.133 209.53 289.627 211.905" stroke="#242728" stroke-width="1.6119" stroke-miterlimit="1.5" stroke-linejoin="round"/>
<path d="M299.558 263.794C299.558 263.794 301.227 268.663 302.083 271.159C302.41 272.111 302.582 273.11 302.592 274.117C302.634 278.263 302.748 289.457 302.748 289.457C302.748 292.637 298.311 295.218 292.844 295.218C287.379 295.218 282.941 292.637 282.941 289.457L282.943 277.302" stroke="#242728" stroke-width="1.6119" stroke-miterlimit="1.5" stroke-linejoin="round"/>
<path d="M309.273 286.678C306.574 286.677 304.123 286.047 302.336 285.025" stroke="#242728" stroke-width="1.6119" stroke-miterlimit="1.5" stroke-linejoin="round"/>
<path d="M364.197 203.866C365.5 203.948 365.969 203.822 367.246 203.902C370.609 204.113 373.076 205.926 373.939 208.423C376.312 215.286 365.322 227.365 362.556 229.265" stroke="#242728" stroke-width="1.6119" stroke-miterlimit="1.5" stroke-linejoin="round"/>
<path d="M345.698 238.444C348.517 237.876 350.921 238.094 352.377 241.137C353.456 243.235 360.748 264.165 374.679 262.803C374.7 262.801 374.721 262.799 374.742 262.797C375.569 262.712 376.208 262.863 376.688 263.194M373.985 277.751C373.966 277.756 373.947 277.758 373.929 277.759C373.662 277.764 373.377 277.767 373.076 277.766C367.115 277.748 354.794 276.351 344.974 268.073" stroke="#242728" stroke-width="1.6119" stroke-miterlimit="1.5" stroke-linejoin="round"/>
<path fill-rule="evenodd" clip-rule="evenodd" d="M333.026 255.252C334.356 255.039 335.684 255.635 336.407 256.771C339.282 261.264 342.991 263.907 347.073 265.717C347.593 265.951 347.883 266.513 347.77 267.072C347.66 267.631 347.177 268.042 346.607 268.06C341.193 268.269 336.17 266.831 331.557 263.647C328.027 261.209 329.508 255.824 333.026 255.252Z" fill="white" stroke="#242728" stroke-width="1.6119" stroke-miterlimit="1.5" stroke-linejoin="round"/>
<path d="M355.499 247.901C355.52 247.889 355.543 247.876 355.566 247.866C355.867 247.713 356.196 247.594 356.562 247.515C357.324 247.348 358.123 247.515 358.756 247.974C358.835 248.031 358.913 248.087 358.992 248.143C363.355 251.218 367.787 252.271 372.251 252.406C372.819 252.429 373.299 252.839 373.407 253.398C373.516 253.958 373.226 254.519 372.706 254.751C369.155 256.363 365.468 257.106 361.641 256.943" stroke="#242728" stroke-width="1.6119" stroke-miterlimit="1.5" stroke-linejoin="round"/>
<path d="M335.878 256.13C334.3 254.275 333.664 252.685 332.82 250.83" stroke="#242728" stroke-width="1.6119" stroke-miterlimit="1.5" stroke-linejoin="round"/>
<path d="M331.351 263.491C329.307 262.163 327.372 260.178 326.033 258.641" stroke="#242728" stroke-width="1.6119" stroke-miterlimit="1.5" stroke-linejoin="round"/>
<path d="M357.999 251.966C355.476 250.39 352.62 251.455 351.433 253.962" stroke="#242728" stroke-width="1.6119" stroke-miterlimit="1.5" stroke-linejoin="round"/>
<path d="M372.82 277.724C375.555 278.256 378.421 275.357 379.22 271.248C380.02 267.138 378.451 263.376 375.716 262.844C372.981 262.312 370.116 265.211 369.316 269.32C368.516 273.43 370.085 277.192 372.82 277.724Z" stroke="#242728" stroke-width="1.6119" stroke-miterlimit="1.5" stroke-linejoin="round"/>
<path d="M288.59 220.661C288.59 220.661 278.479 227.262 271.093 232.087C266.592 235.023 264.584 240.59 266.174 245.725C267.323 249.434 268.686 253.841 269.945 257.906C270.737 260.464 272.854 262.392 275.475 262.938C278.097 263.485 280.808 262.566 282.556 260.54C285.455 257.178 287.962 254.273 287.962 254.273" stroke="#242728" stroke-width="1.6119" stroke-miterlimit="1.5" stroke-linejoin="round"/>
<path d="M274.441 229.856C274.157 229.424 270.388 228.91 268.901 224.478C268.039 221.913 268.526 219.31 268.322 217.092" stroke="#242728" stroke-width="1.6119" stroke-miterlimit="1.5" stroke-linejoin="round"/>
<path fill-rule="evenodd" clip-rule="evenodd" d="M268.996 211.454C269.878 211.527 270.291 215.194 270.217 216.077C270.144 216.96 269.366 217.618 268.484 217.544C267.601 217.471 266.943 216.694 267.017 215.81C267.09 214.927 268.113 211.38 268.996 211.454Z" fill="#FF85D0" stroke="#242728" stroke-width="1.6119" stroke-miterlimit="1.5" stroke-linejoin="round"/>
<path fill-rule="evenodd" clip-rule="evenodd" d="M365.539 318.138L344.728 313.458C344.1 313.318 343.609 312.827 343.467 312.199C343.323 311.57 343.555 310.915 344.062 310.518L362.624 295.894C363.413 295.272 364.443 295.038 365.424 295.259L376.507 297.752L377.53 295.848C377.748 295.445 378.046 295.09 378.405 294.808L397.272 279.944C397.583 279.699 398.023 279.706 398.326 279.96C398.629 280.215 398.712 280.647 398.524 280.996L388.107 300.359L365.539 318.138Z" fill="#E9FC87"/>
<path fill-rule="evenodd" clip-rule="evenodd" d="M384.394 292.391C385.234 291.853 385.923 291.916 386.337 292.26C386.721 292.578 386.959 293.249 386.768 294.233C386.463 295.798 385.206 297.71 383.97 298.504C383.131 299.043 382.442 298.979 382.028 298.636C381.644 298.317 381.406 297.647 381.597 296.662C381.902 295.097 383.159 293.186 384.394 292.391ZM384.981 293.305C383.952 293.967 382.917 295.566 382.663 296.87C382.609 297.15 382.595 297.388 382.629 297.578C382.647 297.674 382.666 297.754 382.72 297.8C382.771 297.841 382.843 297.823 382.928 297.803C383.065 297.77 383.216 297.698 383.383 297.591C384.412 296.93 385.448 295.33 385.702 294.026C385.756 293.745 385.769 293.508 385.736 293.317C385.718 293.222 385.699 293.142 385.645 293.096C385.594 293.054 385.522 293.072 385.437 293.092C385.3 293.125 385.148 293.199 384.981 293.305Z" fill="#242728"/>
<path fill-rule="evenodd" clip-rule="evenodd" d="M376.612 297.396L376.375 298.456L365.291 295.963C364.469 295.778 363.606 295.975 362.945 296.495L344.383 311.119C344.042 311.388 343.886 311.829 343.981 312.254C344.078 312.678 344.41 313.008 344.834 313.103L365.392 317.726L387.755 300.108L388.427 300.962L365.86 318.74C365.732 318.841 365.566 318.878 365.407 318.843L344.597 314.163C343.763 313.975 343.112 313.326 342.921 312.494C342.733 311.661 343.042 310.794 343.712 310.266L362.273 295.643C363.191 294.92 364.388 294.648 365.528 294.904L376.612 297.396Z" fill="#242728"/>
<path fill-rule="evenodd" clip-rule="evenodd" d="M345.967 312.266L346.206 311.207L364.727 315.372L364.488 316.431L345.967 312.266Z" fill="#242728"/>
<path fill-rule="evenodd" clip-rule="evenodd" d="M364.627 303.412L359.103 307.763C358.58 308.175 357.898 308.33 357.248 308.184L354.586 307.585C354.067 307.468 353.662 307.064 353.544 306.545C353.426 306.027 353.618 305.487 354.035 305.158L359.558 300.807C360.082 300.394 360.763 300.24 361.413 300.386L364.076 300.985C364.595 301.101 365 301.506 365.118 302.024C365.236 302.543 365.044 303.082 364.627 303.412ZM363.955 302.559C364.043 302.489 364.084 302.374 364.059 302.264C364.034 302.155 363.948 302.069 363.838 302.044L361.176 301.445C360.845 301.371 360.497 301.449 360.23 301.66L354.707 306.011C354.618 306.081 354.578 306.195 354.603 306.305C354.628 306.415 354.713 306.501 354.824 306.526L357.486 307.125C357.817 307.199 358.164 307.12 358.431 306.91L363.955 302.559Z" fill="#242728"/>
<path fill-rule="evenodd" clip-rule="evenodd" d="M388.421 300.965L365.854 318.743C365.652 318.902 365.367 318.898 365.17 318.732C364.972 318.567 364.919 318.286 365.042 318.059L377.033 295.769C377.284 295.301 377.632 294.888 378.05 294.559L396.916 279.696C397.429 279.292 398.155 279.303 398.656 279.722C399.155 280.143 399.291 280.856 398.982 281.431L388.564 300.795C388.529 300.861 388.48 300.918 388.421 300.965ZM387.662 300.181L398.027 280.916C398.092 280.795 398.063 280.644 397.956 280.554C397.851 280.465 397.697 280.463 397.589 280.548L378.723 295.411C378.421 295.649 378.172 295.946 377.991 296.283L367.235 316.273L387.662 300.181Z" fill="#242728"/>
<path fill-rule="evenodd" clip-rule="evenodd" d="M514.124 257.177C517.729 258.9 521.621 260.255 525.707 261.115C525.064 266.624 521.722 271.472 518.176 271.107C518.161 271.105 518.144 271.103 518.127 271.101C513.477 270.278 512.42 262.763 514.124 257.177Z" fill="#FF85D0"/>
<path fill-rule="evenodd" clip-rule="evenodd" d="M532.9 274.514C536.283 273.409 540.47 276.739 542.266 281.983C544.063 287.227 542.796 292.422 539.443 293.62C539.426 293.626 539.407 293.631 539.388 293.639C532.07 295.667 525.659 278.069 532.532 274.714L532.9 274.514Z" fill="#FF85D0"/>
<path fill-rule="evenodd" clip-rule="evenodd" d="M518.176 271.106C521.722 271.472 525.065 266.624 525.707 261.115C527.946 261.585 530.244 261.908 532.583 262.059C532.575 262.092 532.57 262.124 532.564 262.158C532.497 262.663 532.788 263.147 533.266 263.328C534.202 263.684 535.14 263.983 536.088 264.212C537.588 266.301 539.273 268.249 541.117 270.033L538.787 271.302C531.949 271.963 525.078 271.862 518.176 271.106Z" fill="#FF85D0"/>
<path fill-rule="evenodd" clip-rule="evenodd" d="M514.029 257.053C501.862 251.245 492.975 241.269 491.008 232.119C490.884 231.546 489.681 228.375 490.841 225.133C492.721 219.89 497.678 217.534 501.769 217.88C503.025 217.986 504.203 217.32 506.004 220.523C504.758 219.498 505.097 221.355 506.362 222.044L507.32 223.357C507.206 224.361 507.064 225.51 507.103 225.809C507.105 225.835 507.11 225.856 507.116 225.869C509.816 231.275 514.35 234.547 519.738 236.374C522.328 237.252 525.115 237.797 527.992 238.087C528.16 232.641 529.35 227.433 531.376 222.657C530.714 222.375 529.044 221.599 528.267 220.634C526.692 218.682 526.372 215.343 526.931 212.899C530.238 211.495 533.616 209.323 537.053 206.541C537.438 206.231 537.577 205.708 537.395 205.249C537.214 204.79 536.756 204.501 536.265 204.535C533.761 204.708 531.299 204.714 528.885 204.506L533.298 185.178C533.999 182.105 536.433 179.722 539.525 179.082C542.619 178.443 545.799 179.666 547.665 182.211L559.211 197.964C562.907 196.911 566.804 196.346 570.832 196.346C588.076 196.346 604.269 206.311 611.779 220.864L614.854 221.349C619.067 222.009 622.12 225.714 621.963 229.973L620.982 256.39C620.855 259.822 618.724 262.858 615.538 264.15C614.628 264.517 613.681 264.723 612.734 264.775C610.43 271.523 606.856 277.235 601.687 283.232L601.812 297.319C601.728 300.988 596.575 303.952 590.24 303.952C583.852 303.952 578.668 300.94 578.668 297.228C576.906 298.014 574.533 298.689 572.144 298.689C566.376 298.689 561.692 295.966 561.692 292.615L561.797 282.397C554.83 287.063 547.318 290.707 539.348 293.496C542.701 292.297 543.968 287.102 542.171 281.858C540.375 276.614 536.188 273.285 532.805 274.39L541.022 269.909C539.178 268.125 537.492 266.176 535.992 264.088C539.632 264.971 543.363 264.893 547.193 263.808C547.269 263.786 547.344 263.764 547.419 263.737C548.504 263.37 549.276 262.646 549.735 261.782C550.75 259.878 550.266 257.288 548.37 256.282C547.529 255.836 546.541 255.819 545.7 256.202C545.478 256.304 545.265 256.435 545.068 256.592C543.835 257.573 542.585 258.359 541.319 258.982C538.75 260.244 536.117 260.841 533.453 261.087C532.977 261.132 532.59 261.477 532.487 261.935C530.148 261.784 527.85 261.461 525.612 260.99C521.526 260.13 517.634 258.775 514.029 257.053Z" fill="#FF85D0"/>
<path fill-rule="evenodd" clip-rule="evenodd" d="M527.213 213.002C526.655 215.448 526.974 218.786 528.548 220.738C529.528 221.954 531.374 222.873 531.374 222.873M559.48 198.04C556.283 193.677 551.935 187.744 547.954 182.309C546.088 179.764 542.909 178.542 539.816 179.182C536.725 179.822 534.29 182.205 533.587 185.28C532.138 191.628 528.424 207.835 527.075 213.741" fill="#FF85D0"/>
<path d="M527.213 213.002C526.655 215.448 526.974 218.786 528.548 220.738C529.528 221.954 531.374 222.873 531.374 222.873M559.48 198.04C556.283 193.677 551.935 187.744 547.954 182.309C546.088 179.764 542.909 178.542 539.816 179.182C536.725 179.822 534.29 182.205 533.587 185.28C532.138 191.628 528.424 207.835 527.075 213.741" stroke="#242728" stroke-width="1.61136" stroke-miterlimit="1.5" stroke-linejoin="round"/>
<path fill-rule="evenodd" clip-rule="evenodd" d="M533.033 274.506C536.425 273.347 540.647 276.687 542.454 281.96C544.261 287.233 542.974 292.455 539.582 293.614" fill="#FF85D0"/>
<path d="M533.033 274.506C536.425 273.347 540.647 276.687 542.454 281.96C544.261 287.233 542.974 292.455 539.582 293.614" stroke="#242728" stroke-width="1.61136" stroke-miterlimit="1.5" stroke-linejoin="round"/>
<path fill-rule="evenodd" clip-rule="evenodd" d="M525.895 261.089C525.247 266.624 521.878 271.492 518.317 271.077L525.895 261.089Z" fill="#FF85D0"/>
<path d="M525.895 261.089C525.247 266.624 521.878 271.492 518.317 271.077" stroke="#242728" stroke-width="1.61136" stroke-miterlimit="1.5" stroke-linejoin="round"/>
<path fill-rule="evenodd" clip-rule="evenodd" d="M547.554 266.603L532.724 274.693C525.852 278.052 532.258 295.651 539.576 293.619C550.162 289.921 559.938 284.71 568.705 277.607" fill="#FF85D0"/>
<path d="M547.554 266.603L532.724 274.693C525.852 278.052 532.258 295.651 539.576 293.619C550.162 289.921 559.938 284.71 568.705 277.607" stroke="#242728" stroke-width="1.61136" stroke-miterlimit="1.5" stroke-linejoin="round"/>
<path fill-rule="evenodd" clip-rule="evenodd" d="M514.314 257.155C512.61 262.739 513.669 270.255 518.318 271.077C525.236 271.839 532.124 271.941 538.978 271.28" fill="#FF85D0"/>
<path d="M514.314 257.155C512.61 262.739 513.669 270.255 518.318 271.077C525.236 271.839 532.124 271.941 538.978 271.28" stroke="#242728" stroke-width="1.61136" stroke-miterlimit="1.5" stroke-linejoin="round"/>
<path fill-rule="evenodd" clip-rule="evenodd" d="M587.255 217.06C587.255 217.06 604.794 219.821 615.132 221.449C619.345 222.112 622.398 225.818 622.242 230.076C621.991 236.908 621.606 247.322 621.268 256.496C621.143 259.927 619.012 262.964 615.827 264.253C612.643 265.542 608.997 264.843 606.512 262.468C601.122 257.312 596.24 252.64 596.24 252.64" fill="#FF85D0"/>
<path d="M587.255 217.06C587.255 217.06 604.794 219.821 615.132 221.449C619.345 222.112 622.398 225.818 622.242 230.076C621.991 236.908 621.606 247.322 621.268 256.496C621.143 259.927 619.012 262.964 615.827 264.253C612.643 265.542 608.997 264.843 606.512 262.468C601.122 257.312 596.24 252.64 596.24 252.64" stroke="#242728" stroke-width="1.61136" stroke-miterlimit="1.5" stroke-linejoin="round"/>
<path fill-rule="evenodd" clip-rule="evenodd" d="M541.346 270.046C541.332 270.034 541.32 270.022 541.306 270.01C539.463 268.225 537.779 266.277 536.278 264.188M613.062 264.757C610.215 273.162 605.407 279.954 598.018 287.667L613.062 264.757ZM578.784 281.402C576.765 281.853 574.464 282.154 571.116 282.072C568.571 282.01 566.076 281.85 563.65 281.424M528.278 237.916C528.988 214.908 547.911 196.448 571.116 196.448C588.401 196.448 604.628 206.456 612.116 221.063" fill="#FF85D0"/>
<path d="M541.346 270.046C541.332 270.034 541.32 270.022 541.306 270.01C539.463 268.225 537.779 266.277 536.278 264.188M613.062 264.757C610.215 273.162 605.407 279.954 598.018 287.667M578.784 281.402C576.765 281.853 574.464 282.154 571.116 282.072C568.571 282.01 566.076 281.85 563.65 281.424M528.278 237.916C528.988 214.908 547.911 196.448 571.116 196.448C588.401 196.448 604.628 206.456 612.116 221.063" stroke="#242728" stroke-width="1.61136" stroke-miterlimit="1.5" stroke-linejoin="round"/>
<path d="M593.135 218.814L612.895 221.104" stroke="#242728" stroke-width="1.61136" stroke-miterlimit="1.5" stroke-linejoin="round"/>
<path d="M546.977 191.259L551.606 200.826" stroke="#242728" stroke-width="1.61136" stroke-miterlimit="1.5" stroke-linejoin="round"/>
<path fill-rule="evenodd" clip-rule="evenodd" d="M546.645 243.386C545.462 240.176 543.74 237.877 539.745 238.298C538.755 238.374 537 238.443 533.889 238.45C529.055 238.46 524.273 237.915 520.023 236.474C514.635 234.645 510.102 231.375 507.402 225.967C507.266 225.696 505.862 219.725 505.735 219.449C503.934 216.246 503.311 218.086 502.054 217.98C497.964 217.634 493.006 219.988 491.127 225.234C489.967 228.475 491.169 231.644 491.293 232.217C493.261 241.369 502.147 251.344 514.314 257.153C517.919 258.874 521.812 260.23 525.898 261.089C528.136 261.561 530.433 261.883 532.772 262.035" fill="#FF85D0"/>
<path d="M546.645 243.386C545.462 240.176 543.74 237.877 539.745 238.298C538.755 238.374 537 238.443 533.889 238.45C529.055 238.46 524.273 237.915 520.023 236.474C514.635 234.645 510.102 231.375 507.402 225.967C507.266 225.696 505.862 219.725 505.735 219.449C503.934 216.246 503.311 218.086 502.054 217.98C497.964 217.634 493.006 219.988 491.127 225.234C489.967 228.475 491.169 231.644 491.293 232.217C493.261 241.369 502.147 251.344 514.314 257.153C517.919 258.874 521.812 260.23 525.898 261.089C528.136 261.561 530.433 261.883 532.772 262.035" stroke="#242728" stroke-width="1.61136" stroke-miterlimit="1.5" stroke-linejoin="round"/>
<path fill-rule="evenodd" clip-rule="evenodd" d="M519.99 236.459C523.163 238.032 524.071 241.49 522.268 244.254L519.99 236.459Z" fill="#FF85D0"/>
<path d="M519.99 236.459C523.163 238.032 524.071 241.49 522.268 244.254" stroke="#242728" stroke-width="1.61136" stroke-miterlimit="1.5" stroke-linejoin="round"/>
<path fill-rule="evenodd" clip-rule="evenodd" d="M585.909 263.433C585.909 263.433 582.232 271.177 580.303 275.234C579.547 276.826 579.148 278.563 579.128 280.324C579.07 285.705 578.949 297.332 578.949 297.332C578.949 301.044 584.132 304.056 590.52 304.055C596.905 304.052 602.091 301.038 602.092 297.326" fill="#FF85D0"/>
<path d="M585.909 263.433C585.909 263.433 582.232 271.177 580.303 275.234C579.547 276.826 579.148 278.563 579.128 280.324C579.07 285.705 578.949 297.332 578.949 297.332C578.949 301.044 584.132 304.056 590.52 304.054C596.905 304.052 602.091 301.038 602.092 297.326" stroke="#242728" stroke-width="1.61136" stroke-miterlimit="1.5" stroke-linejoin="round"/>
<path fill-rule="evenodd" clip-rule="evenodd" d="M562.079 283.102C562.029 287.775 561.977 292.718 561.977 292.718C561.977 296.071 566.659 298.791 572.429 298.79C574.816 298.789 577.021 298.322 578.783 297.536" fill="#FF85D0"/>
<path d="M562.079 283.102C562.029 287.775 561.977 292.718 561.977 292.718C561.977 296.071 566.659 298.791 572.429 298.79C574.816 298.789 577.021 298.322 578.783 297.536" stroke="#242728" stroke-width="1.61136" stroke-miterlimit="1.5" stroke-linejoin="round"/>
<path d="M601.975 283.522L602.095 297.537" stroke="#242728" stroke-width="1.61136" stroke-miterlimit="1.5" stroke-linejoin="round"/>
<path fill-rule="evenodd" clip-rule="evenodd" d="M548.656 256.382C547.591 255.819 546.294 255.941 545.354 256.693C541.623 259.667 537.718 260.834 533.738 261.189C533.23 261.237 532.822 261.629 532.757 262.134C532.689 262.64 532.98 263.126 533.457 263.306C537.983 265.044 542.653 265.275 547.479 263.91C551.173 262.864 551.471 257.881 548.656 256.382Z" fill="white" stroke="#242728" stroke-width="1.61136" stroke-miterlimit="1.5" stroke-linejoin="round"/>
<path fill-rule="evenodd" clip-rule="evenodd" d="M545.987 256.304C547.859 255.189 548.857 254.027 550.106 252.7L545.987 256.304Z" fill="#FF85D0"/>
<path d="M545.987 256.304C547.859 255.189 548.857 254.027 550.106 252.7" stroke="#242728" stroke-width="1.61136" stroke-miterlimit="1.5" stroke-linejoin="round"/>
<path fill-rule="evenodd" clip-rule="evenodd" d="M547.704 263.84C549.818 263.305 552.03 262.182 553.608 261.267L547.704 263.84Z" fill="#FF85D0"/>
<path d="M547.704 263.84C549.818 263.305 552.03 262.182 553.608 261.267" stroke="#242728" stroke-width="1.61136" stroke-miterlimit="1.5" stroke-linejoin="round"/>
<path fill-rule="evenodd" clip-rule="evenodd" d="M497.557 231.167L518.367 226.486C518.996 226.346 519.486 225.856 519.628 225.227C519.772 224.599 519.541 223.943 519.033 223.547L500.472 208.922C499.682 208.3 498.653 208.066 497.672 208.288L486.588 210.78L485.565 208.876C485.348 208.473 485.05 208.118 484.691 207.837L465.824 192.972C465.513 192.728 465.072 192.734 464.77 192.989C464.467 193.244 464.383 193.676 464.571 194.024L474.989 213.388L497.557 231.167Z" fill="#E9FC87"/>
<path fill-rule="evenodd" clip-rule="evenodd" d="M478.701 205.42C477.861 204.881 477.173 204.945 476.759 205.289C476.375 205.607 476.137 206.278 476.328 207.262C476.633 208.827 477.89 210.739 479.126 211.533C479.965 212.072 480.653 212.008 481.068 211.664C481.452 211.346 481.69 210.675 481.498 209.691C481.194 208.125 479.937 206.214 478.701 205.42ZM478.114 206.334C479.144 206.995 480.179 208.595 480.432 209.898C480.487 210.178 480.501 210.417 480.466 210.607C480.449 210.703 480.43 210.783 480.375 210.828C480.325 210.87 480.252 210.852 480.168 210.832C480.031 210.799 479.879 210.726 479.713 210.62C478.684 209.958 477.648 208.359 477.394 207.055C477.34 206.774 477.327 206.537 477.36 206.345C477.377 206.251 477.397 206.17 477.451 206.125C477.502 206.083 477.574 206.101 477.658 206.121C477.796 206.154 477.948 206.227 478.114 206.334Z" fill="#242728"/>
<path fill-rule="evenodd" clip-rule="evenodd" d="M486.484 210.425L486.721 211.484L497.805 208.992C498.626 208.807 499.49 209.003 500.151 209.524L518.713 224.147C519.054 224.416 519.21 224.858 519.115 225.283C519.017 225.707 518.686 226.037 518.262 226.132L497.704 230.755L475.34 213.137L474.668 213.99L497.235 231.769C497.363 231.87 497.529 231.907 497.689 231.871L518.499 227.192C519.333 227.004 519.984 226.354 520.174 225.523C520.363 224.69 520.054 223.823 519.383 223.294L500.823 208.672C499.904 207.948 498.708 207.676 497.568 207.933L486.484 210.425Z" fill="#242728"/>
<path fill-rule="evenodd" clip-rule="evenodd" d="M517.129 225.294L516.89 224.235L498.369 228.4L498.608 229.459L517.129 225.294Z" fill="#242728"/>
<path fill-rule="evenodd" clip-rule="evenodd" d="M498.469 216.44L503.992 220.792C504.515 221.204 505.197 221.359 505.847 221.212L508.51 220.614C509.028 220.497 509.433 220.093 509.551 219.574C509.669 219.056 509.478 218.516 509.06 218.187L503.537 213.836C503.013 213.423 502.332 213.269 501.682 213.415L499.019 214.014C498.5 214.13 498.095 214.535 497.978 215.053C497.86 215.571 498.051 216.111 498.469 216.44ZM499.141 215.587C499.052 215.518 499.012 215.403 499.036 215.293C499.061 215.183 499.147 215.097 499.257 215.073L501.92 214.474C502.251 214.4 502.598 214.478 502.865 214.688L508.388 219.04C508.477 219.11 508.517 219.224 508.492 219.334C508.468 219.444 508.382 219.53 508.272 219.555L505.609 220.153C505.278 220.228 504.931 220.149 504.664 219.939L499.141 215.587Z" fill="#242728"/>
<path fill-rule="evenodd" clip-rule="evenodd" d="M474.674 213.993L497.241 231.772C497.443 231.931 497.728 231.926 497.925 231.76C498.123 231.596 498.176 231.314 498.054 231.087L486.062 208.798C485.811 208.329 485.463 207.917 485.045 207.587L466.179 192.725C465.666 192.32 464.94 192.332 464.439 192.751C463.94 193.171 463.804 193.885 464.113 194.46L474.531 213.824C474.567 213.89 474.615 213.947 474.674 213.993ZM475.433 213.209L465.069 193.945C465.003 193.823 465.033 193.672 465.139 193.583C465.244 193.493 465.398 193.492 465.507 193.577L484.372 208.44C484.674 208.677 484.924 208.974 485.104 209.311L495.86 229.302L475.433 213.209Z" fill="#242728"/>
<defs>
<filter id="filter0_b_6720_2458" x="95.5744" y="-7.30077" width="437.088" height="294.895" filterUnits="userSpaceOnUse" color-interpolation-filters="sRGB">
<feFlood flood-opacity="0" result="BackgroundImageFix"/>
<feGaussianBlur in="BackgroundImageFix" stdDeviation="14.6059"/>
<feComposite in2="SourceAlpha" operator="in" result="effect1_backgroundBlur_6720_2458"/>
<feBlend mode="normal" in="SourceGraphic" in2="effect1_backgroundBlur_6720_2458" result="shape"/>
</filter>
<linearGradient id="paint0_linear_6720_2458" x1="374.185" y1="111.705" x2="431.669" y2="133.289" gradientUnits="userSpaceOnUse">
<stop stop-color="#F77577"/>
<stop offset="0.452015" stop-color="#DB39CB"/>
<stop offset="0.973958" stop-color="#CA6FE5"/>
</linearGradient>
<linearGradient id="paint1_linear_6720_2458" x1="273.66" y1="40.0939" x2="353.813" y2="92.3614" gradientUnits="userSpaceOnUse">
<stop stop-color="#FFC6D9"/>
<stop offset="0.333333" stop-color="#7CCFE1"/>
<stop offset="0.640625" stop-color="#89CBA6"/>
<stop offset="1" stop-color="#A5D571"/>
</linearGradient>
<linearGradient id="paint2_linear_6720_2458" x1="222.039" y1="131.701" x2="253.622" y2="152.294" gradientUnits="userSpaceOnUse">
<stop stop-color="#FFC6D9"/>
<stop offset="0.333333" stop-color="#7CCFE1"/>
<stop offset="0.640625" stop-color="#89CBA6"/>
<stop offset="1" stop-color="#A5D571"/>
</linearGradient>
<linearGradient id="paint3_linear_6720_2458" x1="175.066" y1="180.172" x2="261.534" y2="197.764" gradientUnits="userSpaceOnUse">
<stop stop-color="#F77577"/>
<stop offset="0.452015" stop-color="#DB39CB"/>
<stop offset="0.973958" stop-color="#CA6FE5"/>
</linearGradient>
<linearGradient id="paint4_linear_6720_2458" x1="451.764" y1="97.2715" x2="512.292" y2="136.738" gradientUnits="userSpaceOnUse">
<stop stop-color="#FFC6D9"/>
<stop offset="0.333333" stop-color="#7CCFE1"/>
<stop offset="0.640625" stop-color="#89CBA6"/>
<stop offset="1" stop-color="#A5D571"/>
</linearGradient>
</defs>
</svg>
