<svg width="163" height="163" viewBox="0 0 163 163" fill="none" xmlns="http://www.w3.org/2000/svg">
<rect x="0.540527" y="0.242188" width="162" height="162" rx="32.4" fill="#FA467B"/>
<path d="M153.206 32.024L153.206 32.0243C156.361 44.6593 154.39 55.4303 148.173 60.991L148.171 60.9932C146.192 62.7847 143.755 63.9911 141.131 64.4777L141.13 64.4779C140.949 64.5119 140.768 64.5427 140.585 64.5703L140.584 64.5703C138.261 64.9228 135.809 64.7541 133.267 64.0653L132.894 63.9642L132.676 64.2832L130.374 67.6525C130.309 67.7469 130.226 67.8269 130.129 67.8876L130.418 68.3481L130.129 67.8876C130.032 67.9483 129.924 67.9884 129.811 68.0054C129.698 68.0224 129.583 68.0159 129.472 67.9863C129.364 67.9573 129.262 67.9065 129.174 67.8372C129.01 67.6983 128.903 67.503 128.874 67.2893C128.846 67.0737 128.899 66.8553 129.024 66.6774L129.024 66.6774L129.028 66.6714L130.974 63.8238L130.974 63.8238L130.977 63.8204L143.669 44.946C143.67 44.9455 143.67 44.9449 143.671 44.9444C143.812 44.7367 143.912 44.5032 143.963 44.2572C144.015 44.0105 144.018 43.7561 143.971 43.5084C143.924 43.2607 143.83 43.0246 143.692 42.8135C143.554 42.6025 143.376 42.4207 143.168 42.2785L142.861 42.7273L143.168 42.2785C142.96 42.1363 142.726 42.0365 142.479 41.9847C142.232 41.9329 141.978 41.9303 141.73 41.9769C141.482 42.0235 141.246 42.1184 141.035 42.2562C140.824 42.394 140.642 42.5721 140.5 42.7802L140.498 42.7836L128.882 60.0611L128.881 60.0616C128.868 60.0818 128.85 60.0982 128.828 60.1093C128.806 60.1205 128.782 60.126 128.758 60.1253C128.734 60.1247 128.71 60.1179 128.689 60.1056L128.415 60.5729L128.689 60.1056C128.668 60.0933 128.651 60.0759 128.638 60.055L128.638 60.055L128.634 60.0479C127.671 58.4833 126.969 56.7726 126.556 54.9827C125.916 52.1982 126.116 49.2862 127.133 46.616L127.133 46.616L127.134 46.613C130.056 38.8007 139.377 33.0529 152.293 31.4004L152.294 31.4004C152.496 31.3745 152.7 31.4237 152.868 31.5386C153.037 31.6536 153.157 31.8263 153.206 32.024Z" fill="url(#paint0_linear_4181_8902)" stroke="#242728" stroke-width="1.08711"/>
<path fill-rule="evenodd" clip-rule="evenodd" d="M125.437 95.1914C122.089 96.7908 118.475 98.0489 114.681 98.8477C115.278 103.963 118.382 108.465 121.674 108.125C121.688 108.124 121.704 108.122 121.719 108.12C126.037 107.356 127.019 100.378 125.437 95.1914Z" fill="#FF85D0"/>
<path fill-rule="evenodd" clip-rule="evenodd" d="M108.002 111.283C104.86 110.258 100.972 113.349 99.3053 118.218C97.6364 123.088 98.8127 127.912 101.927 129.024C101.942 129.03 101.96 129.035 101.977 129.042C108.772 130.925 114.726 114.584 108.344 111.469L108.002 111.283Z" fill="#FF85D0"/>
<path fill-rule="evenodd" clip-rule="evenodd" d="M121.674 108.12C118.381 108.46 115.278 103.958 114.681 98.8428C112.603 99.2795 110.469 99.5792 108.297 99.7196C108.304 99.7508 108.309 99.7802 108.314 99.8114C108.377 100.281 108.106 100.73 107.662 100.898C106.793 101.229 105.922 101.506 105.042 101.719C103.649 103.658 102.084 105.467 100.372 107.124L102.535 108.302C108.885 108.916 115.265 108.822 121.674 108.12Z" fill="#FF85D0"/>
<path fill-rule="evenodd" clip-rule="evenodd" d="M125.526 95.075C136.823 89.6824 145.075 80.4185 146.902 71.9223C147.016 71.3904 148.133 68.4462 147.056 65.4363C145.311 60.5669 140.708 58.3801 136.909 58.7006C135.743 58.7994 133.327 59.2984 131.655 62.272C131.641 62.2997 131.636 62.3656 131.637 62.4592L131.755 63.7866C131.861 64.7188 131.993 65.7863 131.956 66.0636C131.955 66.0878 131.95 66.1069 131.944 66.119C129.438 71.1391 125.227 74.1768 120.224 75.8732C117.82 76.6894 115.231 77.1954 112.56 77.464C112.403 72.4075 111.298 67.5711 109.418 63.1368C110.032 62.8751 111.583 62.1543 112.305 61.2584C113.767 59.4458 114.064 56.3457 113.545 54.0757C110.474 52.7725 107.338 50.7555 104.146 48.1719C103.788 47.8842 103.66 47.399 103.828 46.9727C103.997 46.5464 104.422 46.2778 104.878 46.309C107.203 46.4702 109.489 46.4753 111.73 46.283L107.633 28.3358C106.982 25.4818 104.722 23.269 101.851 22.6746C98.9778 22.082 96.0252 23.217 94.2921 25.5806L83.571 40.2077C80.1396 39.2303 76.5208 38.7052 72.7806 38.7052C56.7683 38.7052 41.7328 47.9587 34.7589 61.4715L31.9034 61.922C27.9915 62.5354 25.1567 65.9752 25.3025 69.9296L26.2132 94.4598C26.3312 97.6465 28.3106 100.466 31.2685 101.665C32.1133 102.006 32.9928 102.197 33.8724 102.246C36.0114 108.512 39.3301 113.816 44.1303 119.383L44.014 132.465C44.0921 135.872 48.8768 138.623 54.7595 138.623C60.6908 138.623 65.5048 135.826 65.5048 132.38C67.1408 133.109 69.3439 133.737 71.5628 133.737C76.9181 133.737 81.2672 131.208 81.2672 128.096L81.1701 118.609C87.6392 122.941 94.6148 126.325 102.015 128.914C98.9015 127.802 97.7253 122.977 99.3941 118.108C101.061 113.239 104.949 110.147 108.091 111.173L100.461 107.013C102.173 105.356 103.738 103.547 105.131 101.608C101.752 102.427 98.2874 102.355 94.731 101.348C94.6599 101.327 94.5905 101.306 94.5211 101.282C93.5132 100.941 92.7967 100.268 92.37 99.466C91.428 97.6985 91.8773 95.2934 93.6381 94.3593C94.4188 93.9452 95.3365 93.9296 96.1172 94.2848C96.3236 94.3801 96.5214 94.5014 96.7035 94.6469C97.8485 95.5584 99.009 96.288 100.185 96.8667C102.571 98.0381 105.015 98.5927 107.489 98.8214C107.931 98.863 108.29 99.1836 108.386 99.6082C110.558 99.4678 112.691 99.168 114.77 98.7313C118.564 97.9325 122.177 96.6744 125.526 95.075Z" fill="#FF85D0"/>
<path fill-rule="evenodd" clip-rule="evenodd" d="M113.284 54.1655C113.802 56.4363 113.506 59.5358 112.044 61.3488C111.134 62.4775 109.42 63.3306 109.42 63.3306M83.3219 40.2724C86.2908 36.2206 90.328 30.7118 94.0249 25.6656C95.7575 23.302 98.7091 22.1677 101.581 22.7614C104.451 23.3558 106.713 25.5686 107.365 28.4243C108.711 34.318 112.08 48.9099 113.333 54.394" fill="#FF85D0"/>
<path d="M113.284 54.1655C113.802 56.4363 113.506 59.5358 112.044 61.3488C111.134 62.4775 109.42 63.3306 109.42 63.3306M83.3219 40.2724C86.2908 36.2206 90.328 30.7118 94.0249 25.6656C95.7575 23.302 98.7091 22.1677 101.581 22.7614C104.451 23.3558 106.713 25.5686 107.365 28.4243C108.711 34.318 112.08 48.9099 113.333 54.394" stroke="#242728" stroke-width="1.1016" stroke-miterlimit="1.5" stroke-linejoin="round"/>
<path fill-rule="evenodd" clip-rule="evenodd" d="M107.879 111.271C104.73 110.195 100.809 113.296 99.1308 118.193C97.4528 123.089 98.6487 127.938 101.798 129.014" fill="#FF85D0"/>
<path d="M107.879 111.271C104.73 110.195 100.809 113.296 99.1308 118.193C97.4528 123.089 98.6487 127.938 101.798 129.014" stroke="#242728" stroke-width="1.1016" stroke-miterlimit="1.5" stroke-linejoin="round"/>
<path fill-rule="evenodd" clip-rule="evenodd" d="M114.507 98.8189C115.108 103.959 118.237 108.479 121.544 108.093L114.507 98.8189Z" fill="#FF85D0"/>
<path d="M114.507 98.8189C115.108 103.959 118.237 108.479 121.544 108.093" stroke="#242728" stroke-width="1.1016" stroke-miterlimit="1.5" stroke-linejoin="round"/>
<path fill-rule="evenodd" clip-rule="evenodd" d="M94.3959 103.943L108.166 111.455C114.547 114.574 108.599 130.915 101.803 129.028C91.9742 125.594 82.8958 120.756 74.756 114.16" fill="#FF85D0"/>
<path d="M94.3959 103.943L108.166 111.455C114.547 114.574 108.599 130.915 101.803 129.028C91.9742 125.594 82.8958 120.756 74.756 114.16" stroke="#242728" stroke-width="1.1016" stroke-miterlimit="1.5" stroke-linejoin="round"/>
<path fill-rule="evenodd" clip-rule="evenodd" d="M125.261 95.156C126.843 100.341 125.86 107.321 121.543 108.084C115.119 108.792 108.724 108.886 102.359 108.272" fill="#FF85D0"/>
<path d="M125.261 95.156C126.843 100.341 125.86 107.321 121.543 108.084C115.119 108.792 108.724 108.886 102.359 108.272" stroke="#242728" stroke-width="1.1016" stroke-miterlimit="1.5" stroke-linejoin="round"/>
<path fill-rule="evenodd" clip-rule="evenodd" d="M57.5314 57.9324C57.5314 57.9324 41.2457 60.4961 31.6459 62.0078C27.7339 62.6237 24.8993 66.0645 25.0444 70.0183C25.2772 76.3627 25.6348 86.0324 25.9488 94.5509C26.065 97.7367 28.0434 100.557 31.0012 101.754C33.9571 102.95 37.3432 102.302 39.6499 100.096C44.6548 95.3089 49.1884 90.9708 49.1884 90.9708" fill="#FF85D0"/>
<path d="M57.5314 57.9324C57.5314 57.9324 41.2457 60.4961 31.6459 62.0078C27.7339 62.6237 24.8993 66.0645 25.0444 70.0183C25.2772 76.3627 25.6348 86.0324 25.9488 94.5509C26.065 97.7367 28.0434 100.557 31.0012 101.754C33.9571 102.95 37.3432 102.302 39.6499 100.096C44.6548 95.3089 49.1884 90.9708 49.1884 90.9708" stroke="#242728" stroke-width="1.1016" stroke-miterlimit="1.5" stroke-linejoin="round"/>
<path fill-rule="evenodd" clip-rule="evenodd" d="M100.16 107.138C100.173 107.127 100.184 107.115 100.197 107.104C101.909 105.447 103.472 103.638 104.866 101.699M33.5674 102.227C36.211 110.031 40.676 116.338 47.5369 123.5L33.5674 102.227ZM65.3971 117.683C67.2713 118.102 69.4084 118.381 72.5167 118.305C74.8796 118.247 77.1965 118.099 79.4499 117.703M112.294 77.3039C111.635 55.9395 94.0638 38.7979 72.5167 38.7979C56.467 38.7979 41.3994 48.091 34.4464 61.6551" fill="#FF85D0"/>
<path d="M100.16 107.138C100.173 107.127 100.184 107.115 100.197 107.104C101.909 105.447 103.472 103.638 104.866 101.699M33.5674 102.227C36.2109 110.031 40.676 116.338 47.5369 123.5M65.3971 117.683C67.2713 118.102 69.4084 118.381 72.5167 118.305C74.8796 118.247 77.1965 118.099 79.4499 117.703M112.294 77.3039C111.635 55.9395 94.0638 38.7979 72.5167 38.7979C56.467 38.7979 41.3994 48.091 34.4464 61.6551" stroke="#242728" stroke-width="1.1016" stroke-miterlimit="1.5" stroke-linejoin="round"/>
<path d="M52.0718 59.5625L33.7229 61.6896" stroke="#242728" stroke-width="1.1016" stroke-miterlimit="1.5" stroke-linejoin="round"/>
<path d="M94.9316 33.9707L90.6333 42.8535" stroke="#242728" stroke-width="1.1016" stroke-miterlimit="1.5" stroke-linejoin="round"/>
<path fill-rule="evenodd" clip-rule="evenodd" d="M119.99 75.9426C117.044 77.4036 116.201 80.6144 117.875 83.1814L119.99 75.9426Z" fill="#FF85D0"/>
<path d="M119.99 75.9426C117.044 77.4036 116.201 80.6144 117.875 83.1814" stroke="#242728" stroke-width="1.1016" stroke-miterlimit="1.5" stroke-linejoin="round"/>
<path fill-rule="evenodd" clip-rule="evenodd" d="M58.7806 100.996C58.7806 100.996 62.1952 108.186 63.9863 111.954C64.688 113.432 65.0588 115.045 65.0778 116.68C65.131 121.676 65.2433 132.473 65.2433 132.473C65.2439 135.92 60.4307 138.716 54.4995 138.715C48.5707 138.713 43.7549 135.914 43.7543 132.467" fill="#FF85D0"/>
<path d="M58.7806 100.996C58.7806 100.996 62.1952 108.186 63.9863 111.954C64.688 113.432 65.0588 115.045 65.0778 116.68C65.131 121.676 65.2433 132.473 65.2433 132.473C65.2439 135.92 60.4307 138.716 54.4995 138.715C48.5707 138.713 43.7549 135.914 43.7543 132.467" stroke="#242728" stroke-width="1.1016" stroke-miterlimit="1.5" stroke-linejoin="round"/>
<path fill-rule="evenodd" clip-rule="evenodd" d="M80.9082 119.255C80.9544 123.594 81.0021 128.184 81.0021 128.184C81.0027 131.297 76.655 133.823 71.2974 133.822C69.0805 133.821 67.0338 133.387 65.3976 132.658" fill="#FF85D0"/>
<path d="M80.9082 119.255C80.9544 123.594 81.0021 128.184 81.0021 128.184C81.0027 131.297 76.655 133.823 71.2974 133.822C69.0805 133.821 67.0338 133.387 65.3976 132.658" stroke="#242728" stroke-width="1.1016" stroke-miterlimit="1.5" stroke-linejoin="round"/>
<path d="M43.8628 119.65L43.751 132.664" stroke="#242728" stroke-width="1.1016" stroke-miterlimit="1.5" stroke-linejoin="round"/>
<path fill-rule="evenodd" clip-rule="evenodd" d="M93.3735 94.4388C94.3623 93.9153 95.5667 94.0285 96.439 94.7271C99.9041 97.4886 103.53 98.5723 107.225 98.9015C107.697 98.9466 108.076 99.3105 108.137 99.7797C108.2 100.249 107.93 100.701 107.486 100.868C103.284 102.481 98.9474 102.696 94.4658 101.428C91.0364 100.458 90.7593 95.8301 93.3735 94.4388Z" fill="white" stroke="#242728" stroke-width="1.1016" stroke-miterlimit="1.5" stroke-linejoin="round"/>
<path fill-rule="evenodd" clip-rule="evenodd" d="M95.8507 94.3802C94.1131 93.3447 93.1864 92.266 92.026 91.0338L95.8507 94.3802Z" fill="#FF85D0"/>
<path d="M95.8507 94.3802C94.1131 93.3447 93.1864 92.266 92.026 91.0338" stroke="#242728" stroke-width="1.1016" stroke-miterlimit="1.5" stroke-linejoin="round"/>
<path fill-rule="evenodd" clip-rule="evenodd" d="M94.2566 101.379C92.2935 100.883 90.2392 99.8399 88.7745 98.9898L94.2566 101.379Z" fill="#FF85D0"/>
<path d="M94.2566 101.379C92.2935 100.883 90.2392 99.8399 88.7745 98.9898" stroke="#242728" stroke-width="1.1016" stroke-miterlimit="1.5" stroke-linejoin="round"/>
<path fill-rule="evenodd" clip-rule="evenodd" d="M95.2402 82.3742C96.3387 79.3933 97.937 77.2583 101.647 77.6497C102.566 77.7199 104.196 77.7836 107.084 77.7901C111.573 77.8001 116.013 77.2941 119.96 75.9552C124.963 74.2576 129.172 71.2212 131.679 66.1997C131.805 65.948 131.271 62.6113 131.389 62.3544C133.062 59.3806 135.478 58.8812 136.645 58.7828C140.443 58.4622 145.047 60.6478 146.791 65.5185C147.869 68.5283 146.752 71.4711 146.637 72.0032C144.81 80.5007 136.559 89.7633 125.261 95.1575C121.914 96.7555 118.299 98.0141 114.505 98.8125C112.426 99.25 110.293 99.5493 108.121 99.6908" fill="#FF85D0"/>
<path d="M95.2402 82.3742C96.3387 79.3933 97.937 77.2583 101.647 77.6497C102.566 77.7199 104.196 77.7836 107.084 77.7901C111.573 77.8001 116.013 77.2941 119.96 75.9552C124.963 74.2576 129.172 71.2212 131.679 66.1997C131.805 65.948 131.271 62.6113 131.389 62.3544C133.062 59.3806 135.478 58.8812 136.645 58.7828C140.443 58.4622 145.047 60.6478 146.791 65.5185C147.869 68.5283 146.752 71.4711 146.637 72.0032C144.81 80.5007 136.559 89.7633 125.261 95.1575C121.914 96.7555 118.299 98.0141 114.505 98.8125C112.426 99.25 110.293 99.5493 108.121 99.6908" stroke="#242728" stroke-width="1.1016" stroke-miterlimit="1.5" stroke-linejoin="round"/>
<defs>
<linearGradient id="paint0_linear_4181_8902" x1="138.029" y1="33.4346" x2="144.129" y2="65.8663" gradientUnits="userSpaceOnUse">
<stop stop-color="#3CCC8C"/>
<stop offset="1" stop-color="#12D2A4"/>
</linearGradient>
</defs>
</svg>
