<svg width="590" height="600" viewBox="0 0 590 600" fill="none" xmlns="http://www.w3.org/2000/svg">
<rect x="101.674" y="96" width="137.577" height="36.2128" rx="8.60641" fill="white" fill-opacity="0.05"/>
<rect x="102.212" y="96.5379" width="136.501" height="35.137" rx="8.06851" stroke="#EBEAE7" stroke-opacity="0.15" stroke-width="1.0758"/>
<path d="M117.867 119.727C117.104 119.727 116.492 119.511 116.03 119.079C115.568 118.648 115.337 118.08 115.337 117.377H116.391C116.391 117.799 116.527 118.14 116.798 118.402C117.069 118.663 117.426 118.793 117.867 118.793H119.178C119.609 118.793 119.961 118.708 120.232 118.537C120.503 118.356 120.639 118.125 120.639 117.844V117.332C120.639 117.141 120.563 116.976 120.413 116.835C120.262 116.685 120.066 116.584 119.825 116.534L117.22 116.082C116.698 115.992 116.276 115.796 115.955 115.495C115.643 115.183 115.488 114.822 115.488 114.41V113.913C115.488 113.331 115.709 112.864 116.15 112.513C116.592 112.151 117.175 111.97 117.897 111.97H119.193C119.896 111.97 120.463 112.171 120.895 112.573C121.326 112.964 121.542 113.487 121.542 114.139H120.488C120.478 113.768 120.352 113.472 120.111 113.251C119.881 113.02 119.574 112.904 119.193 112.904H117.897C117.496 112.904 117.175 113 116.934 113.19C116.693 113.371 116.572 113.612 116.572 113.913V114.35C116.572 114.541 116.652 114.712 116.813 114.862C116.984 115.013 117.2 115.108 117.461 115.148L120.051 115.6C120.553 115.691 120.955 115.886 121.256 116.188C121.567 116.489 121.723 116.85 121.723 117.272V117.874C121.723 118.427 121.487 118.873 121.015 119.215C120.553 119.556 119.941 119.727 119.178 119.727H117.867ZM123.252 109.064H124.337V113.13C124.568 112.779 124.864 112.498 125.225 112.287C125.587 112.076 125.953 111.97 126.325 111.97H127.379C128.072 111.97 128.629 112.206 129.051 112.678C129.483 113.15 129.698 113.768 129.698 114.531V119.606H128.614V114.501C128.614 114.039 128.499 113.662 128.268 113.371C128.037 113.08 127.73 112.934 127.349 112.934H126.355C125.883 112.934 125.451 113.12 125.06 113.492C124.678 113.853 124.437 114.32 124.337 114.892V119.606H123.252V109.064ZM133.768 119.727C133.035 119.727 132.448 119.536 132.006 119.155C131.574 118.773 131.358 118.261 131.358 117.618V117.136C131.358 116.504 131.584 115.997 132.036 115.615C132.488 115.234 133.085 115.043 133.828 115.043H134.792C135.124 115.043 135.465 115.093 135.817 115.194C136.168 115.294 136.469 115.429 136.72 115.6V114.35C136.72 113.928 136.59 113.587 136.329 113.326C136.068 113.055 135.721 112.919 135.289 112.919H134.084C133.653 112.919 133.306 113.02 133.045 113.22C132.784 113.421 132.654 113.687 132.654 114.019H131.569C131.569 113.406 131.8 112.914 132.262 112.543C132.724 112.161 133.331 111.97 134.084 111.97H135.289C136.032 111.97 136.63 112.191 137.082 112.633C137.544 113.065 137.774 113.637 137.774 114.35V119.606H136.75V118.552C136.519 118.914 136.213 119.2 135.832 119.411C135.46 119.622 135.074 119.727 134.672 119.727H133.768ZM134.702 118.778C135.174 118.778 135.596 118.632 135.967 118.341C136.339 118.05 136.59 117.664 136.72 117.182V116.624C136.519 116.434 136.238 116.283 135.877 116.172C135.525 116.052 135.164 115.992 134.792 115.992H133.828C133.417 115.992 133.08 116.097 132.819 116.308C132.568 116.519 132.443 116.795 132.443 117.136V117.618C132.443 117.97 132.563 118.251 132.804 118.462C133.045 118.673 133.367 118.778 133.768 118.778H134.702ZM139.667 112.091H140.721V113.251C140.922 112.899 141.223 112.613 141.625 112.392C142.037 112.171 142.464 112.061 142.905 112.061H143.568V113.04H142.905C142.263 113.04 141.741 113.246 141.339 113.657C140.947 114.059 140.752 114.596 140.752 115.269V119.606H139.667V112.091ZM146.985 119.727C146.141 119.727 145.463 119.481 144.951 118.989C144.439 118.487 144.183 117.824 144.183 117.001V114.847C144.183 113.984 144.439 113.291 144.951 112.769C145.463 112.236 146.141 111.97 146.985 111.97H148.22C149.023 111.97 149.67 112.226 150.162 112.739C150.654 113.251 150.9 113.928 150.9 114.772V116.097H145.268V117.001C145.268 117.523 145.423 117.95 145.734 118.281C146.056 118.602 146.472 118.763 146.985 118.763H148.129C148.631 118.763 149.038 118.627 149.349 118.356C149.66 118.075 149.816 117.704 149.816 117.242H150.87C150.87 117.985 150.619 118.587 150.117 119.049C149.615 119.501 148.953 119.727 148.129 119.727H146.985ZM149.816 115.163V114.772C149.816 114.22 149.67 113.778 149.379 113.446C149.088 113.105 148.702 112.934 148.22 112.934H146.985C146.472 112.934 146.056 113.11 145.734 113.461C145.423 113.813 145.268 114.275 145.268 114.847V115.163H149.816ZM154.828 119.727C154.316 119.727 153.859 119.606 153.457 119.365C153.056 119.124 152.744 118.788 152.523 118.356C152.303 117.925 152.192 117.423 152.192 116.85V115.043C152.192 114.44 152.308 113.908 152.538 113.446C152.769 112.974 153.096 112.613 153.517 112.362C153.939 112.101 154.421 111.97 154.963 111.97H156.078C156.419 111.97 156.746 112.051 157.057 112.211C157.378 112.372 157.634 112.593 157.825 112.874V109.064H158.909V119.606H157.855V118.492C157.624 118.863 157.323 119.165 156.951 119.396C156.58 119.616 156.218 119.727 155.867 119.727H154.828ZM155.837 118.763C156.158 118.763 156.469 118.663 156.771 118.462C157.072 118.251 157.318 117.98 157.509 117.648C157.699 117.317 157.805 116.976 157.825 116.624V114.727C157.755 114.194 157.554 113.763 157.223 113.431C156.901 113.1 156.51 112.934 156.048 112.934H154.993C154.481 112.934 154.065 113.13 153.743 113.522C153.432 113.903 153.276 114.41 153.276 115.043V116.85C153.276 117.413 153.422 117.874 153.713 118.236C154.014 118.587 154.396 118.763 154.858 118.763H155.837ZM159.755 119.727H167.737V120.691H159.755V119.727ZM171.552 119.727C171.22 119.727 170.869 119.627 170.497 119.426C170.126 119.215 169.84 118.954 169.639 118.643V119.606H168.585V109.064H169.669V112.98C169.89 112.668 170.171 112.422 170.513 112.242C170.864 112.061 171.225 111.97 171.597 111.97H172.666C173.178 111.97 173.63 112.091 174.022 112.332C174.423 112.563 174.735 112.894 174.956 113.326C175.187 113.748 175.302 114.235 175.302 114.787V116.73C175.302 117.322 175.187 117.844 174.956 118.296C174.735 118.748 174.418 119.099 174.007 119.35C173.605 119.601 173.138 119.727 172.606 119.727H171.552ZM172.576 118.763C173.058 118.763 173.449 118.577 173.751 118.206C174.062 117.824 174.218 117.332 174.218 116.73V114.787C174.218 114.235 174.067 113.788 173.766 113.446C173.475 113.105 173.098 112.934 172.636 112.934H171.627C171.105 112.934 170.658 113.125 170.287 113.507C169.915 113.888 169.709 114.39 169.669 115.013V116.85C169.689 117.202 169.79 117.523 169.97 117.814C170.151 118.105 170.382 118.336 170.663 118.507C170.944 118.678 171.24 118.763 171.552 118.763H172.576ZM179.235 119.727C178.542 119.727 177.98 119.491 177.548 119.019C177.116 118.547 176.9 117.93 176.9 117.167V112.091H177.985V117.197C177.985 117.669 178.1 118.05 178.331 118.341C178.562 118.622 178.863 118.763 179.235 118.763H180.169C180.631 118.763 181.057 118.577 181.449 118.206C181.84 117.834 182.091 117.367 182.202 116.805V112.091H183.286V119.606H182.232V118.462C182.001 118.823 181.695 119.124 181.313 119.365C180.932 119.606 180.56 119.727 180.199 119.727H179.235ZM186.032 113.055H184.737V112.091H186.032V111.504C186.032 110.68 186.243 110.058 186.665 109.636C187.086 109.214 187.704 109.003 188.517 109.003H189.09V109.937H188.517C188.035 109.937 187.679 110.068 187.448 110.329C187.227 110.58 187.117 110.971 187.117 111.504V112.091H188.924V113.055H187.117V119.606H186.032V113.055ZM191.144 113.055H189.848V112.091H191.144V111.504C191.144 110.68 191.354 110.058 191.776 109.636C192.198 109.214 192.815 109.003 193.629 109.003H194.201V109.937H193.629C193.147 109.937 192.79 110.068 192.559 110.329C192.338 110.58 192.228 110.971 192.228 111.504V112.091H194.035V113.055H192.228V119.606H191.144V113.055ZM197.605 119.727C196.762 119.727 196.084 119.481 195.572 118.989C195.06 118.487 194.804 117.824 194.804 117.001V114.847C194.804 113.984 195.06 113.291 195.572 112.769C196.084 112.236 196.762 111.97 197.605 111.97H198.84C199.643 111.97 200.291 112.226 200.783 112.739C201.275 113.251 201.521 113.928 201.521 114.772V116.097H195.888V117.001C195.888 117.523 196.044 117.95 196.355 118.281C196.676 118.602 197.093 118.763 197.605 118.763H198.75C199.252 118.763 199.658 118.627 199.97 118.356C200.281 118.075 200.436 117.704 200.436 117.242H201.491C201.491 117.985 201.24 118.587 200.738 119.049C200.236 119.501 199.573 119.727 198.75 119.727H197.605ZM200.436 115.163V114.772C200.436 114.22 200.291 113.778 200 113.446C199.708 113.105 199.322 112.934 198.84 112.934H197.605C197.093 112.934 196.676 113.11 196.355 113.461C196.044 113.813 195.888 114.275 195.888 114.847V115.163H200.436ZM203.114 112.091H204.168V113.251C204.369 112.899 204.67 112.613 205.072 112.392C205.483 112.171 205.91 112.061 206.352 112.061H207.015V113.04H206.352C205.709 113.04 205.187 113.246 204.785 113.657C204.394 114.059 204.198 114.596 204.198 115.269V119.606H203.114V112.091ZM210.305 119.727C209.542 119.727 208.929 119.511 208.467 119.079C208.006 118.648 207.775 118.08 207.775 117.377H208.829C208.829 117.799 208.965 118.14 209.236 118.402C209.507 118.663 209.863 118.793 210.305 118.793H211.615C212.047 118.793 212.398 118.708 212.67 118.537C212.941 118.356 213.076 118.125 213.076 117.844V117.332C213.076 117.141 213.001 116.976 212.85 116.835C212.7 116.685 212.504 116.584 212.263 116.534L209.657 116.082C209.135 115.992 208.713 115.796 208.392 115.495C208.081 115.183 207.925 114.822 207.925 114.41V113.913C207.925 113.331 208.146 112.864 208.588 112.513C209.03 112.151 209.612 111.97 210.335 111.97H211.63C212.333 111.97 212.901 112.171 213.332 112.573C213.764 112.964 213.98 113.487 213.98 114.139H212.926C212.916 113.768 212.79 113.472 212.549 113.251C212.318 113.02 212.012 112.904 211.63 112.904H210.335C209.933 112.904 209.612 113 209.371 113.19C209.13 113.371 209.01 113.612 209.01 113.913V114.35C209.01 114.541 209.09 114.712 209.251 114.862C209.421 115.013 209.637 115.108 209.898 115.148L212.489 115.6C212.991 115.691 213.393 115.886 213.694 116.188C214.005 116.489 214.161 116.85 214.161 117.272V117.874C214.161 118.427 213.925 118.873 213.453 119.215C212.991 119.556 212.378 119.727 211.615 119.727H210.305Z" fill="white"/>
<circle cx="225.265" cy="114.107" r="1.0758" fill="white"/>
<rect x="84.6738" y="158.032" width="154.577" height="36.2128" rx="8.60641" fill="white" fill-opacity="0.05"/>
<rect x="85.2117" y="158.57" width="153.501" height="35.137" rx="8.06851" stroke="#EBEAE7" stroke-opacity="0.15" stroke-width="1.0758"/>
<path d="M106.967 174.003C107.63 174.003 108.152 174.219 108.533 174.65C108.925 175.072 109.121 175.659 109.121 176.412V181.639H108.036V176.382C108.036 175.941 107.936 175.594 107.735 175.343C107.534 175.092 107.268 174.967 106.937 174.967H106.079C105.647 174.967 105.29 175.112 105.009 175.403C104.728 175.695 104.547 176.106 104.467 176.638V181.639H103.383V176.473C103.383 176.001 103.287 175.634 103.096 175.373C102.916 175.102 102.665 174.967 102.343 174.967H101.485C101.073 174.967 100.712 175.147 100.4 175.509C100.089 175.87 99.8934 176.342 99.813 176.925V181.639H98.7286V174.123H99.7829V175.208C99.9837 174.826 100.235 174.53 100.536 174.319C100.837 174.108 101.153 174.003 101.485 174.003H102.373C102.795 174.003 103.157 174.108 103.458 174.319C103.769 174.52 104.005 174.816 104.166 175.208C104.397 174.806 104.673 174.505 104.994 174.304C105.315 174.103 105.667 174.003 106.048 174.003H106.967ZM113.186 181.759C112.453 181.759 111.866 181.568 111.424 181.187C110.993 180.805 110.777 180.293 110.777 179.651V179.169C110.777 178.536 111.003 178.029 111.454 177.647C111.906 177.266 112.504 177.075 113.247 177.075H114.211C114.542 177.075 114.883 177.125 115.235 177.226C115.586 177.326 115.887 177.462 116.138 177.632V176.382C116.138 175.961 116.008 175.619 115.747 175.358C115.486 175.087 115.139 174.951 114.708 174.951H113.503C113.071 174.951 112.725 175.052 112.464 175.253C112.202 175.454 112.072 175.72 112.072 176.051H110.988C110.988 175.438 111.218 174.946 111.68 174.575C112.142 174.193 112.75 174.003 113.503 174.003H114.708C115.451 174.003 116.048 174.224 116.5 174.665C116.962 175.097 117.193 175.669 117.193 176.382V181.639H116.169V180.584C115.938 180.946 115.631 181.232 115.25 181.443C114.878 181.654 114.492 181.759 114.09 181.759H113.186ZM114.12 180.81C114.592 180.81 115.014 180.665 115.385 180.374C115.757 180.082 116.008 179.696 116.138 179.214V178.657C115.938 178.466 115.657 178.315 115.295 178.205C114.944 178.084 114.582 178.024 114.211 178.024H113.247C112.835 178.024 112.499 178.129 112.238 178.34C111.987 178.551 111.861 178.827 111.861 179.169V179.651C111.861 180.002 111.982 180.283 112.223 180.494C112.464 180.705 112.785 180.81 113.186 180.81H114.12ZM121.013 177.798L118.302 174.123H119.537L121.631 176.955L123.724 174.123H124.959L122.248 177.798L125.08 181.639H123.845L121.631 178.641L119.417 181.639H118.182L121.013 177.798ZM125.023 181.759H133.005V182.723H125.023V181.759ZM136.293 181.759C135.47 181.759 134.807 181.513 134.305 181.021C133.803 180.519 133.552 179.856 133.552 179.033V176.879C133.552 176.016 133.803 175.323 134.305 174.801C134.807 174.269 135.465 174.003 136.278 174.003H137.513C138.286 174.003 138.909 174.219 139.381 174.65C139.852 175.082 140.088 175.649 140.088 176.352H139.034C139.034 175.941 138.894 175.609 138.612 175.358C138.341 175.097 137.975 174.967 137.513 174.967H136.278C135.786 174.967 135.389 175.142 135.088 175.494C134.787 175.845 134.636 176.307 134.636 176.879V179.033C134.636 179.565 134.787 179.992 135.088 180.313C135.399 180.635 135.801 180.795 136.293 180.795H137.528C138 180.795 138.376 180.63 138.658 180.298C138.949 179.967 139.094 179.525 139.094 178.973H140.149C140.149 179.806 139.908 180.479 139.426 180.991C138.944 181.503 138.311 181.759 137.528 181.759H136.293ZM144.127 181.759C143.283 181.759 142.606 181.498 142.094 180.976C141.581 180.454 141.325 179.766 141.325 178.913V176.849C141.325 175.996 141.581 175.308 142.094 174.786C142.616 174.264 143.303 174.003 144.157 174.003H145.392C146.245 174.003 146.928 174.264 147.44 174.786C147.962 175.308 148.223 175.996 148.223 176.849V178.913C148.223 179.766 147.962 180.454 147.44 180.976C146.918 181.498 146.225 181.759 145.362 181.759H144.127ZM145.362 180.795C145.904 180.795 146.336 180.625 146.657 180.283C146.978 179.932 147.139 179.475 147.139 178.913V176.849C147.139 176.287 146.978 175.835 146.657 175.494C146.336 175.142 145.914 174.967 145.392 174.967H144.157C143.635 174.967 143.213 175.142 142.892 175.494C142.57 175.835 142.41 176.287 142.41 176.849V178.913C142.41 179.485 142.565 179.942 142.877 180.283C143.188 180.625 143.605 180.795 144.127 180.795H145.362ZM149.915 174.123H150.969V175.238C151.2 174.876 151.501 174.58 151.873 174.349C152.244 174.118 152.616 174.003 152.987 174.003H154.012C154.704 174.003 155.262 174.239 155.683 174.711C156.115 175.182 156.331 175.8 156.331 176.563V181.639H155.247V176.533C155.247 176.071 155.131 175.695 154.9 175.403C154.669 175.112 154.363 174.967 153.982 174.967H153.018C152.546 174.967 152.114 175.152 151.722 175.524C151.341 175.895 151.1 176.372 150.999 176.955V181.639H149.915V174.123ZM158.233 174.123H159.287V175.238C159.518 174.876 159.819 174.58 160.191 174.349C160.562 174.118 160.934 174.003 161.305 174.003H162.329C163.022 174.003 163.58 174.239 164.001 174.711C164.433 175.182 164.649 175.8 164.649 176.563V181.639H163.564V176.533C163.564 176.071 163.449 175.695 163.218 175.403C162.987 175.112 162.681 174.967 162.299 174.967H161.335C160.863 174.967 160.432 175.152 160.04 175.524C159.659 175.895 159.418 176.372 159.317 176.955V181.639H158.233V174.123ZM169.051 181.759C168.207 181.759 167.53 181.513 167.017 181.021C166.505 180.519 166.249 179.856 166.249 179.033V176.879C166.249 176.016 166.505 175.323 167.017 174.801C167.53 174.269 168.207 174.003 169.051 174.003H170.286C171.089 174.003 171.737 174.259 172.229 174.771C172.721 175.283 172.967 175.961 172.967 176.804V178.129H167.334V179.033C167.334 179.555 167.489 179.982 167.801 180.313C168.122 180.635 168.539 180.795 169.051 180.795H170.195C170.697 180.795 171.104 180.66 171.415 180.389C171.727 180.107 171.882 179.736 171.882 179.274H172.937C172.937 180.017 172.686 180.62 172.183 181.081C171.681 181.533 171.019 181.759 170.195 181.759H169.051ZM171.882 177.196V176.804C171.882 176.252 171.737 175.81 171.445 175.479C171.154 175.137 170.768 174.967 170.286 174.967H169.051C168.539 174.967 168.122 175.142 167.801 175.494C167.489 175.845 167.334 176.307 167.334 176.879V177.196H171.882ZM176.999 181.759C176.176 181.759 175.513 181.513 175.011 181.021C174.509 180.519 174.258 179.856 174.258 179.033V176.879C174.258 176.016 174.509 175.323 175.011 174.801C175.513 174.269 176.171 174.003 176.984 174.003H178.219C178.993 174.003 179.615 174.219 180.087 174.65C180.559 175.082 180.795 175.649 180.795 176.352H179.741C179.741 175.941 179.6 175.609 179.319 175.358C179.048 175.097 178.681 174.967 178.219 174.967H176.984C176.492 174.967 176.096 175.142 175.795 175.494C175.493 175.845 175.343 176.307 175.343 176.879V179.033C175.343 179.565 175.493 179.992 175.795 180.313C176.106 180.635 176.507 180.795 176.999 180.795H178.234C178.706 180.795 179.083 180.63 179.364 180.298C179.655 179.967 179.801 179.525 179.801 178.973H180.855C180.855 179.806 180.614 180.479 180.132 180.991C179.65 181.503 179.018 181.759 178.234 181.759H176.999ZM185.226 181.639C184.433 181.639 183.861 181.468 183.509 181.127C183.168 180.785 182.997 180.223 182.997 179.44V175.087H181.672V174.123H182.997V171.849H184.082V174.123H186.04V175.087H184.082V179.44C184.082 179.882 184.167 180.198 184.338 180.389C184.518 180.579 184.815 180.675 185.226 180.675H186.04V181.639H185.226ZM188.537 172.994C188.296 172.994 188.1 172.918 187.95 172.768C187.799 172.617 187.724 172.421 187.724 172.18C187.724 171.939 187.799 171.743 187.95 171.593C188.1 171.442 188.296 171.367 188.537 171.367C188.778 171.367 188.974 171.442 189.125 171.593C189.275 171.743 189.351 171.939 189.351 172.18C189.351 172.421 189.275 172.617 189.125 172.768C188.974 172.918 188.778 172.994 188.537 172.994ZM187.995 174.123H189.079V181.639H187.995V174.123ZM193.835 181.759C192.992 181.759 192.314 181.498 191.802 180.976C191.29 180.454 191.034 179.766 191.034 178.913V176.849C191.034 175.996 191.29 175.308 191.802 174.786C192.324 174.264 193.012 174.003 193.865 174.003H195.1C195.954 174.003 196.637 174.264 197.149 174.786C197.671 175.308 197.932 175.996 197.932 176.849V178.913C197.932 179.766 197.671 180.454 197.149 180.976C196.627 181.498 195.934 181.759 195.07 181.759H193.835ZM195.07 180.795C195.613 180.795 196.044 180.625 196.366 180.283C196.687 179.932 196.848 179.475 196.848 178.913V176.849C196.848 176.287 196.687 175.835 196.366 175.494C196.044 175.142 195.623 174.967 195.1 174.967H193.865C193.343 174.967 192.922 175.142 192.6 175.494C192.279 175.835 192.118 176.287 192.118 176.849V178.913C192.118 179.485 192.274 179.942 192.585 180.283C192.896 180.625 193.313 180.795 193.835 180.795H195.07ZM199.623 174.123H200.678V175.238C200.909 174.876 201.21 174.58 201.581 174.349C201.953 174.118 202.324 174.003 202.696 174.003H203.72C204.413 174.003 204.97 174.239 205.392 174.711C205.824 175.182 206.04 175.8 206.04 176.563V181.639H204.955V176.533C204.955 176.071 204.84 175.695 204.609 175.403C204.378 175.112 204.072 174.967 203.69 174.967H202.726C202.254 174.967 201.822 175.152 201.431 175.524C201.049 175.895 200.808 176.372 200.708 176.955V181.639H199.623V174.123ZM210.08 181.759C209.317 181.759 208.704 181.543 208.243 181.112C207.781 180.68 207.55 180.112 207.55 179.41H208.604C208.604 179.831 208.74 180.173 209.011 180.434C209.282 180.695 209.638 180.825 210.08 180.825H211.39C211.822 180.825 212.173 180.74 212.445 180.569C212.716 180.389 212.851 180.158 212.851 179.877V179.364C212.851 179.174 212.776 179.008 212.625 178.867C212.475 178.717 212.279 178.616 212.038 178.566L209.432 178.114C208.91 178.024 208.489 177.828 208.167 177.527C207.856 177.216 207.7 176.854 207.7 176.443V175.946C207.7 175.363 207.921 174.896 208.363 174.545C208.805 174.183 209.387 174.003 210.11 174.003H211.405C212.108 174.003 212.676 174.203 213.107 174.605C213.539 174.997 213.755 175.519 213.755 176.171H212.701C212.691 175.8 212.565 175.504 212.324 175.283C212.093 175.052 211.787 174.936 211.405 174.936H210.11C209.708 174.936 209.387 175.032 209.146 175.223C208.905 175.403 208.785 175.644 208.785 175.946V176.382C208.785 176.573 208.865 176.744 209.026 176.894C209.196 177.045 209.412 177.14 209.673 177.181L212.264 177.632C212.766 177.723 213.168 177.919 213.469 178.22C213.78 178.521 213.936 178.882 213.936 179.304V179.907C213.936 180.459 213.7 180.906 213.228 181.247C212.766 181.588 212.153 181.759 211.39 181.759H210.08Z" fill="white"/>
<circle cx="225.265" cy="176.139" r="1.0758" fill="white"/>
<rect x="130.674" y="220.064" width="108.577" height="36.2128" rx="8.60641" fill="white" fill-opacity="0.05"/>
<rect x="131.212" y="220.602" width="107.501" height="35.137" rx="8.06851" stroke="#EBEAE7" stroke-opacity="0.15" stroke-width="1.0758"/>
<path d="M153.991 236.155L152.365 242.797C152.284 243.098 152.174 243.319 152.033 243.46C151.893 243.6 151.702 243.67 151.461 243.67H150.949L149.066 237.992L147.123 243.67H146.611C146.38 243.67 146.19 243.6 146.039 243.46C145.888 243.319 145.778 243.098 145.708 242.797L144.066 236.155H145.211L146.611 242.466L148.645 236.366H149.036C149.327 236.366 149.523 236.526 149.624 236.848L151.461 242.42L152.847 236.155H153.991ZM157.635 243.791C156.792 243.791 156.114 243.53 155.602 243.008C155.09 242.486 154.834 241.798 154.834 240.944V238.881C154.834 238.027 155.09 237.34 155.602 236.818C156.124 236.295 156.812 236.034 157.665 236.034H158.9C159.754 236.034 160.437 236.295 160.949 236.818C161.471 237.34 161.732 238.027 161.732 238.881V240.944C161.732 241.798 161.471 242.486 160.949 243.008C160.427 243.53 159.734 243.791 158.87 243.791H157.635ZM158.87 242.827C159.412 242.827 159.844 242.656 160.165 242.315C160.487 241.963 160.647 241.507 160.647 240.944V238.881C160.647 238.319 160.487 237.867 160.165 237.525C159.844 237.174 159.422 236.998 158.9 236.998H157.665C157.143 236.998 156.721 237.174 156.4 237.525C156.079 237.867 155.918 238.319 155.918 238.881V240.944C155.918 241.517 156.074 241.974 156.385 242.315C156.696 242.656 157.113 242.827 157.635 242.827H158.87ZM163.423 236.155H164.478V237.315C164.678 236.963 164.98 236.677 165.381 236.456C165.793 236.235 166.22 236.125 166.662 236.125H167.324V237.104H166.662C166.019 237.104 165.497 237.31 165.095 237.721C164.704 238.123 164.508 238.66 164.508 239.333V243.67H163.423V236.155ZM173.552 243.67L170.6 240.116L169.56 241.155V243.67H168.476V233.128H169.56V239.83L173.28 236.155H174.606L171.353 239.378L174.847 243.67H173.552ZM174.722 243.791H182.705V244.755H174.722V243.791ZM191.791 236.034C192.454 236.034 192.976 236.25 193.357 236.682C193.749 237.104 193.945 237.691 193.945 238.444V243.67H192.86V238.414C192.86 237.972 192.76 237.626 192.559 237.375C192.358 237.124 192.092 236.998 191.761 236.998H190.902C190.471 236.998 190.114 237.144 189.833 237.435C189.552 237.726 189.371 238.138 189.291 238.67V243.67H188.206V238.504C188.206 238.032 188.111 237.666 187.92 237.405C187.739 237.134 187.488 236.998 187.167 236.998H186.309C185.897 236.998 185.536 237.179 185.224 237.54C184.913 237.902 184.717 238.374 184.637 238.956V243.67H183.552V236.155H184.607V237.239C184.808 236.858 185.059 236.562 185.36 236.351C185.661 236.14 185.977 236.034 186.309 236.034H187.197C187.619 236.034 187.98 236.14 188.282 236.351C188.593 236.551 188.829 236.848 188.99 237.239C189.22 236.838 189.497 236.536 189.818 236.336C190.139 236.135 190.491 236.034 190.872 236.034H191.791ZM198.342 243.791C197.498 243.791 196.82 243.545 196.308 243.053C195.796 242.551 195.54 241.888 195.54 241.065V238.911C195.54 238.048 195.796 237.355 196.308 236.833C196.82 236.3 197.498 236.034 198.342 236.034H199.577C200.38 236.034 201.028 236.29 201.52 236.802C202.012 237.315 202.258 237.992 202.258 238.836V240.161H196.625V241.065C196.625 241.587 196.78 242.014 197.092 242.345C197.413 242.666 197.83 242.827 198.342 242.827H199.486C199.988 242.827 200.395 242.691 200.706 242.42C201.018 242.139 201.173 241.768 201.173 241.306H202.227C202.227 242.049 201.976 242.651 201.474 243.113C200.972 243.565 200.31 243.791 199.486 243.791H198.342ZM201.173 239.227V238.836C201.173 238.284 201.028 237.842 200.736 237.51C200.445 237.169 200.059 236.998 199.577 236.998H198.342C197.83 236.998 197.413 237.174 197.092 237.525C196.78 237.877 196.625 238.339 196.625 238.911V239.227H201.173ZM212.089 236.034C212.752 236.034 213.274 236.25 213.655 236.682C214.047 237.104 214.243 237.691 214.243 238.444V243.67H213.158V238.414C213.158 237.972 213.058 237.626 212.857 237.375C212.656 237.124 212.39 236.998 212.059 236.998H211.2C210.769 236.998 210.412 237.144 210.131 237.435C209.85 237.726 209.669 238.138 209.589 238.67V243.67H208.504V238.504C208.504 238.032 208.409 237.666 208.218 237.405C208.037 237.134 207.786 236.998 207.465 236.998H206.607C206.195 236.998 205.833 237.179 205.522 237.54C205.211 237.902 205.015 238.374 204.935 238.956V243.67H203.85V236.155H204.905V237.239C205.105 236.858 205.357 236.562 205.658 236.351C205.959 236.14 206.275 236.034 206.607 236.034H207.495C207.917 236.034 208.278 236.14 208.58 236.351C208.891 236.551 209.127 236.848 209.287 237.239C209.518 236.838 209.795 236.536 210.116 236.336C210.437 236.135 210.789 236.034 211.17 236.034H212.089Z" fill="white"/>
<circle cx="225.265" cy="238.171" r="1.0758" fill="white"/>
<rect x="103.674" y="282.096" width="135.577" height="36.2128" rx="8.60641" fill="white" fill-opacity="0.05"/>
<rect x="104.212" y="282.634" width="134.501" height="35.137" rx="8.06851" stroke="#EBEAE7" stroke-opacity="0.15" stroke-width="1.0758"/>
<path d="M120.696 305.823C120.364 305.823 120.013 305.723 119.641 305.522C119.27 305.311 118.984 305.05 118.783 304.739V305.703H117.729V295.16H118.813V299.076C119.034 298.764 119.315 298.518 119.656 298.338C120.008 298.157 120.369 298.067 120.741 298.067H121.81C122.322 298.067 122.774 298.187 123.166 298.428C123.567 298.659 123.879 298.99 124.1 299.422C124.33 299.844 124.446 300.331 124.446 300.883V302.826C124.446 303.418 124.33 303.94 124.1 304.392C123.879 304.844 123.562 305.196 123.151 305.447C122.749 305.698 122.282 305.823 121.75 305.823H120.696ZM121.72 304.859C122.202 304.859 122.593 304.673 122.895 304.302C123.206 303.92 123.362 303.428 123.362 302.826V300.883C123.362 300.331 123.211 299.884 122.91 299.543C122.619 299.201 122.242 299.031 121.78 299.031H120.771C120.249 299.031 119.802 299.221 119.431 299.603C119.059 299.984 118.853 300.486 118.813 301.109V302.946C118.833 303.298 118.934 303.619 119.114 303.91C119.295 304.202 119.526 304.432 119.807 304.603C120.088 304.774 120.384 304.859 120.696 304.859H121.72ZM128.575 308.76C127.912 308.76 127.365 308.579 126.933 308.218C126.501 307.866 126.26 307.4 126.21 306.817H127.294C127.335 307.118 127.47 307.359 127.701 307.54C127.942 307.731 128.233 307.826 128.575 307.826H129.825C130.347 307.826 130.748 307.651 131.03 307.299C131.321 306.958 131.466 306.476 131.466 305.853V304.694C131.245 304.995 130.954 305.241 130.593 305.432C130.241 305.612 129.9 305.703 129.569 305.703H128.469C127.957 305.703 127.5 305.582 127.099 305.341C126.697 305.1 126.386 304.764 126.165 304.332C125.944 303.9 125.833 303.398 125.833 302.826V301.064C125.833 300.17 126.089 299.447 126.602 298.895C127.124 298.343 127.806 298.067 128.65 298.067H129.704C130.025 298.067 130.357 298.157 130.698 298.338C131.04 298.518 131.306 298.749 131.496 299.031V298.187H132.551V305.853C132.551 306.767 132.31 307.48 131.828 307.992C131.346 308.504 130.678 308.76 129.825 308.76H128.575ZM129.569 304.739C130.071 304.739 130.497 304.543 130.849 304.151C131.21 303.75 131.416 303.243 131.466 302.63V300.778C131.426 300.266 131.235 299.849 130.894 299.528C130.563 299.196 130.166 299.031 129.704 299.031H128.68C128.148 299.031 127.721 299.216 127.4 299.588C127.079 299.959 126.918 300.451 126.918 301.064V302.826C126.918 303.388 127.063 303.85 127.355 304.212C127.656 304.563 128.037 304.739 128.499 304.739H129.569ZM143.803 298.187L142.177 304.829C142.096 305.13 141.986 305.351 141.845 305.492C141.705 305.632 141.514 305.703 141.273 305.703H140.761L138.878 300.025L136.935 305.703H136.423C136.192 305.703 136.002 305.632 135.851 305.492C135.7 305.351 135.59 305.13 135.52 304.829L133.878 298.187H135.023L136.423 304.498L138.457 298.398H138.848C139.139 298.398 139.335 298.559 139.436 298.88L141.273 304.453L142.659 298.187H143.803ZM145.124 298.187H146.178V299.347C146.379 298.995 146.68 298.709 147.082 298.488C147.493 298.267 147.92 298.157 148.362 298.157H149.024V299.136H148.362C147.719 299.136 147.197 299.342 146.795 299.753C146.404 300.155 146.208 300.692 146.208 301.365V305.703H145.124V298.187ZM150.989 297.057C150.748 297.057 150.553 296.982 150.402 296.832C150.251 296.681 150.176 296.485 150.176 296.244C150.176 296.003 150.251 295.807 150.402 295.657C150.553 295.506 150.748 295.431 150.989 295.431C151.23 295.431 151.426 295.506 151.577 295.657C151.727 295.807 151.803 296.003 151.803 296.244C151.803 296.485 151.727 296.681 151.577 296.832C151.426 296.982 151.23 297.057 150.989 297.057ZM150.447 298.187H151.532V305.703H150.447V298.187ZM156.739 305.703C155.946 305.703 155.374 305.532 155.022 305.191C154.681 304.849 154.51 304.287 154.51 303.504V299.151H153.185V298.187H154.51V295.913H155.595V298.187H157.553V299.151H155.595V303.504C155.595 303.945 155.68 304.262 155.851 304.453C156.031 304.643 156.328 304.739 156.739 304.739H157.553V305.703H156.739ZM161.502 305.823C160.658 305.823 159.981 305.577 159.469 305.085C158.956 304.583 158.7 303.92 158.7 303.097V300.943C158.7 300.08 158.956 299.387 159.469 298.865C159.981 298.333 160.658 298.067 161.502 298.067H162.737C163.54 298.067 164.188 298.323 164.68 298.835C165.172 299.347 165.418 300.025 165.418 300.868V302.193H159.785V303.097C159.785 303.619 159.94 304.046 160.252 304.377C160.573 304.699 160.99 304.859 161.502 304.859H162.646C163.149 304.859 163.555 304.724 163.866 304.453C164.178 304.171 164.333 303.8 164.333 303.338H165.388C165.388 304.081 165.137 304.683 164.635 305.145C164.133 305.597 163.47 305.823 162.646 305.823H161.502ZM164.333 301.26V300.868C164.333 300.316 164.188 299.874 163.897 299.543C163.605 299.201 163.219 299.031 162.737 299.031H161.502C160.99 299.031 160.573 299.206 160.252 299.558C159.94 299.909 159.785 300.371 159.785 300.943V301.26H164.333ZM167.011 298.187H168.065V299.347C168.266 298.995 168.567 298.709 168.969 298.488C169.38 298.267 169.807 298.157 170.249 298.157H170.911V299.136H170.249C169.606 299.136 169.084 299.342 168.682 299.753C168.291 300.155 168.095 300.692 168.095 301.365V305.703H167.011V298.187ZM170.919 305.823H178.901V306.787H170.919V305.823ZM182.083 305.823C181.571 305.823 181.114 305.703 180.712 305.462C180.311 305.221 180 304.884 179.779 304.453C179.558 304.021 179.447 303.519 179.447 302.946V301.139C179.447 300.537 179.563 300.004 179.794 299.543C180.025 299.071 180.351 298.709 180.773 298.458C181.194 298.197 181.676 298.067 182.219 298.067H183.333C183.674 298.067 184.001 298.147 184.312 298.308C184.633 298.468 184.889 298.689 185.08 298.97V295.16H186.165V305.703H185.11V304.588C184.879 304.96 184.578 305.261 184.207 305.492C183.835 305.713 183.474 305.823 183.122 305.823H182.083ZM183.092 304.859C183.413 304.859 183.725 304.759 184.026 304.558C184.327 304.347 184.573 304.076 184.764 303.745C184.955 303.413 185.06 303.072 185.08 302.721V300.823C185.01 300.291 184.809 299.859 184.478 299.528C184.156 299.196 183.765 299.031 183.303 299.031H182.249C181.737 299.031 181.32 299.226 180.999 299.618C180.687 299.999 180.532 300.507 180.532 301.139V302.946C180.532 303.509 180.677 303.971 180.968 304.332C181.27 304.683 181.651 304.859 182.113 304.859H183.092ZM190.655 305.823C189.811 305.823 189.134 305.577 188.621 305.085C188.109 304.583 187.853 303.92 187.853 303.097V300.943C187.853 300.08 188.109 299.387 188.621 298.865C189.134 298.333 189.811 298.067 190.655 298.067H191.89C192.693 298.067 193.341 298.323 193.833 298.835C194.325 299.347 194.571 300.025 194.571 300.868V302.193H188.938V303.097C188.938 303.619 189.093 304.046 189.405 304.377C189.726 304.699 190.143 304.859 190.655 304.859H191.799C192.301 304.859 192.708 304.724 193.019 304.453C193.331 304.171 193.486 303.8 193.486 303.338H194.54C194.54 304.081 194.289 304.683 193.787 305.145C193.285 305.597 192.623 305.823 191.799 305.823H190.655ZM193.486 301.26V300.868C193.486 300.316 193.341 299.874 193.049 299.543C192.758 299.201 192.372 299.031 191.89 299.031H190.655C190.143 299.031 189.726 299.206 189.405 299.558C189.093 299.909 188.938 300.371 188.938 300.943V301.26H193.486ZM198.242 305.703C197.499 305.703 196.967 305.547 196.645 305.236C196.324 304.914 196.163 304.387 196.163 303.654V295.16H197.248V303.654C197.248 304.036 197.323 304.312 197.474 304.483C197.634 304.653 197.89 304.739 198.242 304.739H198.754V305.703H198.242ZM202.061 305.823C201.328 305.823 200.741 305.632 200.299 305.251C199.867 304.869 199.651 304.357 199.651 303.715V303.233C199.651 302.6 199.877 302.093 200.329 301.711C200.781 301.33 201.378 301.139 202.121 301.139H203.085C203.417 301.139 203.758 301.189 204.109 301.29C204.461 301.39 204.762 301.526 205.013 301.696V300.446C205.013 300.025 204.883 299.683 204.622 299.422C204.36 299.151 204.014 299.015 203.582 299.015H202.377C201.946 299.015 201.599 299.116 201.338 299.317C201.077 299.517 200.947 299.784 200.947 300.115H199.862C199.862 299.502 200.093 299.01 200.555 298.639C201.017 298.257 201.624 298.067 202.377 298.067H203.582C204.325 298.067 204.923 298.287 205.375 298.729C205.836 299.161 206.067 299.733 206.067 300.446V305.703H205.043V304.648C204.812 305.01 204.506 305.296 204.124 305.507C203.753 305.718 203.366 305.823 202.965 305.823H202.061ZM202.995 304.874C203.467 304.874 203.889 304.729 204.26 304.437C204.632 304.146 204.883 303.76 205.013 303.278V302.721C204.812 302.53 204.531 302.379 204.17 302.269C203.818 302.148 203.457 302.088 203.085 302.088H202.121C201.71 302.088 201.373 302.193 201.112 302.404C200.861 302.615 200.736 302.891 200.736 303.233V303.715C200.736 304.066 200.856 304.347 201.097 304.558C201.338 304.769 201.659 304.874 202.061 304.874H202.995ZM210.385 308.76C209.722 308.76 209.175 308.579 208.743 308.218C208.311 307.866 208.07 307.4 208.02 306.817H209.105C209.145 307.118 209.28 307.359 209.511 307.54C209.752 307.731 210.044 307.826 210.385 307.826H211.56C212.082 307.826 212.483 307.651 212.765 307.299C213.056 306.958 213.201 306.476 213.201 305.853V304.468C212.96 304.829 212.654 305.125 212.283 305.356C211.921 305.587 211.56 305.703 211.198 305.703H210.234C209.531 305.703 208.959 305.467 208.517 304.995C208.086 304.523 207.87 303.905 207.87 303.142V298.187H208.954V303.172C208.954 303.644 209.07 304.026 209.3 304.317C209.541 304.598 209.853 304.739 210.234 304.739H211.168C211.63 304.739 212.057 304.553 212.448 304.181C212.84 303.81 213.091 303.343 213.201 302.781V298.187H214.286V305.853C214.286 306.767 214.045 307.48 213.563 307.992C213.081 308.504 212.413 308.76 211.56 308.76H210.385Z" fill="white"/>
<circle cx="225.265" cy="300.203" r="1.0758" fill="white"/>
<rect x="63.6738" y="344.128" width="175.577" height="36.2128" rx="8.60641" fill="white" fill-opacity="0.05"/>
<rect x="64.2117" y="344.666" width="174.501" height="35.137" rx="8.06851" stroke="#EBEAE7" stroke-opacity="0.15" stroke-width="1.0758"/>
<path d="M80.2288 367.855C79.3854 367.855 78.7076 367.609 78.1955 367.117C77.6835 366.615 77.4274 365.953 77.4274 365.129V362.976C77.4274 362.112 77.6835 361.419 78.1955 360.897C78.7076 360.365 79.3854 360.099 80.2288 360.099H81.4638C82.2671 360.099 82.9147 360.355 83.4067 360.867C83.8987 361.379 84.1447 362.057 84.1447 362.9V364.226H78.5118V365.129C78.5118 365.651 78.6675 366.078 78.9787 366.409C79.3 366.731 79.7167 366.891 80.2288 366.891H81.3735C81.8755 366.891 82.2821 366.756 82.5934 366.485C82.9047 366.204 83.0603 365.832 83.0603 365.37H84.1146C84.1146 366.113 83.8636 366.716 83.3615 367.178C82.8595 367.629 82.1968 367.855 81.3735 367.855H80.2288ZM83.0603 363.292V362.9C83.0603 362.348 82.9147 361.906 82.6235 361.575C82.3323 361.233 81.9458 361.063 81.4638 361.063H80.2288C79.7167 361.063 79.3 361.238 78.9787 361.59C78.6675 361.941 78.5118 362.403 78.5118 362.976V363.292H83.0603ZM86.4024 361.183H85.1071V360.219H86.4024V359.632C86.4024 358.809 86.6132 358.186 87.0349 357.764C87.4567 357.343 88.0742 357.132 88.8875 357.132H89.4598V358.066H88.8875C88.4055 358.066 88.0491 358.196 87.8181 358.457C87.5972 358.708 87.4868 359.1 87.4868 359.632V360.219H89.2941V361.183H87.4868V367.735H86.4024V361.183ZM91.5138 361.183H90.2185V360.219H91.5138V359.632C91.5138 358.809 91.7246 358.186 92.1463 357.764C92.5681 357.343 93.1856 357.132 93.9989 357.132H94.5712V358.066H93.9989C93.5169 358.066 93.1605 358.196 92.9295 358.457C92.7086 358.708 92.5982 359.1 92.5982 359.632V360.219H94.4055V361.183H92.5982V367.735H91.5138V361.183ZM97.9751 367.855C97.1317 367.855 96.454 367.609 95.9419 367.117C95.4298 366.615 95.1738 365.953 95.1738 365.129V362.976C95.1738 362.112 95.4298 361.419 95.9419 360.897C96.454 360.365 97.1317 360.099 97.9751 360.099H99.2102C100.013 360.099 100.661 360.355 101.153 360.867C101.645 361.379 101.891 362.057 101.891 362.9V364.226H96.2582V365.129C96.2582 365.651 96.4138 366.078 96.7251 366.409C97.0464 366.731 97.4631 366.891 97.9751 366.891H99.1198C99.6218 366.891 100.028 366.756 100.34 366.485C100.651 366.204 100.807 365.832 100.807 365.37H101.861C101.861 366.113 101.61 366.716 101.108 367.178C100.606 367.629 99.9431 367.855 99.1198 367.855H97.9751ZM100.807 363.292V362.9C100.807 362.348 100.661 361.906 100.37 361.575C100.079 361.233 99.6921 361.063 99.2102 361.063H97.9751C97.4631 361.063 97.0464 361.238 96.7251 361.59C96.4138 361.941 96.2582 362.403 96.2582 362.976V363.292H100.807ZM105.924 367.855C105.1 367.855 104.438 367.609 103.936 367.117C103.434 366.615 103.183 365.953 103.183 365.129V362.976C103.183 362.112 103.434 361.419 103.936 360.897C104.438 360.365 105.095 360.099 105.909 360.099H107.144C107.917 360.099 108.539 360.315 109.011 360.746C109.483 361.178 109.719 361.746 109.719 362.448H108.665C108.665 362.037 108.524 361.705 108.243 361.454C107.972 361.193 107.606 361.063 107.144 361.063H105.909C105.417 361.063 105.02 361.238 104.719 361.59C104.418 361.941 104.267 362.403 104.267 362.976V365.129C104.267 365.661 104.418 366.088 104.719 366.409C105.03 366.731 105.432 366.891 105.924 366.891H107.159C107.631 366.891 108.007 366.726 108.288 366.394C108.58 366.063 108.725 365.621 108.725 365.069H109.779C109.779 365.902 109.539 366.575 109.057 367.087C108.575 367.599 107.942 367.855 107.159 367.855H105.924ZM114.151 367.735C113.357 367.735 112.785 367.564 112.434 367.223C112.092 366.881 111.922 366.319 111.922 365.536V361.183H110.596V360.219H111.922V357.945H113.006V360.219H114.964V361.183H113.006V365.536C113.006 365.978 113.091 366.294 113.262 366.485C113.443 366.676 113.739 366.771 114.151 366.771H114.964V367.735H114.151ZM117.462 359.09C117.221 359.09 117.025 359.014 116.874 358.864C116.724 358.713 116.648 358.517 116.648 358.276C116.648 358.035 116.724 357.84 116.874 357.689C117.025 357.538 117.221 357.463 117.462 357.463C117.703 357.463 117.898 357.538 118.049 357.689C118.2 357.84 118.275 358.035 118.275 358.276C118.275 358.517 118.2 358.713 118.049 358.864C117.898 359.014 117.703 359.09 117.462 359.09ZM116.919 360.219H118.004V367.735H116.919V360.219ZM122.865 367.735C122.443 367.735 122.137 367.479 121.946 366.967L119.356 360.219H120.5L122.82 366.545H122.835L125.154 360.219H126.299L123.377 367.735H122.865ZM129.71 367.855C128.866 367.855 128.188 367.609 127.676 367.117C127.164 366.615 126.908 365.953 126.908 365.129V362.976C126.908 362.112 127.164 361.419 127.676 360.897C128.188 360.365 128.866 360.099 129.71 360.099H130.945C131.748 360.099 132.396 360.355 132.888 360.867C133.38 361.379 133.626 362.057 133.626 362.9V364.226H127.993V365.129C127.993 365.651 128.148 366.078 128.46 366.409C128.781 366.731 129.198 366.891 129.71 366.891H130.854C131.356 366.891 131.763 366.756 132.074 366.485C132.385 366.204 132.541 365.832 132.541 365.37H133.595C133.595 366.113 133.344 366.716 132.842 367.178C132.34 367.629 131.678 367.855 130.854 367.855H129.71ZM132.541 363.292V362.9C132.541 362.348 132.396 361.906 132.104 361.575C131.813 361.233 131.427 361.063 130.945 361.063H129.71C129.198 361.063 128.781 361.238 128.46 361.59C128.148 361.941 127.993 362.403 127.993 362.976V363.292H132.541ZM134.074 367.855H142.056V368.819H134.074V367.855ZM145.344 367.855C144.52 367.855 143.858 367.609 143.356 367.117C142.853 366.615 142.602 365.953 142.602 365.129V362.976C142.602 362.112 142.853 361.419 143.356 360.897C143.858 360.365 144.515 360.099 145.329 360.099H146.564C147.337 360.099 147.959 360.315 148.431 360.746C148.903 361.178 149.139 361.746 149.139 362.448H148.085C148.085 362.037 147.944 361.705 147.663 361.454C147.392 361.193 147.025 361.063 146.564 361.063H145.329C144.837 361.063 144.44 361.238 144.139 361.59C143.837 361.941 143.687 362.403 143.687 362.976V365.129C143.687 365.661 143.837 366.088 144.139 366.409C144.45 366.731 144.852 366.891 145.344 366.891H146.579C147.051 366.891 147.427 366.726 147.708 366.394C147.999 366.063 148.145 365.621 148.145 365.069H149.199C149.199 365.902 148.958 366.575 148.476 367.087C147.994 367.599 147.362 367.855 146.579 367.855H145.344ZM152.846 367.855C152.113 367.855 151.526 367.665 151.084 367.283C150.652 366.901 150.436 366.389 150.436 365.747V365.265C150.436 364.632 150.662 364.125 151.114 363.744C151.566 363.362 152.163 363.171 152.906 363.171H153.87C154.202 363.171 154.543 363.222 154.894 363.322C155.246 363.422 155.547 363.558 155.798 363.729V362.478C155.798 362.057 155.668 361.715 155.407 361.454C155.145 361.183 154.799 361.048 154.367 361.048H153.162C152.731 361.048 152.384 361.148 152.123 361.349C151.862 361.55 151.732 361.816 151.732 362.147H150.647C150.647 361.535 150.878 361.043 151.34 360.671C151.802 360.29 152.409 360.099 153.162 360.099H154.367C155.11 360.099 155.708 360.32 156.16 360.762C156.621 361.193 156.852 361.766 156.852 362.478V367.735H155.828V366.681C155.597 367.042 155.291 367.328 154.909 367.539C154.538 367.75 154.151 367.855 153.75 367.855H152.846ZM153.78 366.906C154.252 366.906 154.674 366.761 155.045 366.47C155.417 366.179 155.668 365.792 155.798 365.31V364.753C155.597 364.562 155.316 364.411 154.955 364.301C154.603 364.18 154.242 364.12 153.87 364.12H152.906C152.495 364.12 152.158 364.226 151.897 364.436C151.646 364.647 151.521 364.923 151.521 365.265V365.747C151.521 366.098 151.641 366.379 151.882 366.59C152.123 366.801 152.444 366.906 152.846 366.906H153.78ZM161.185 367.855C160.362 367.855 159.699 367.609 159.197 367.117C158.695 366.615 158.444 365.953 158.444 365.129V362.976C158.444 362.112 158.695 361.419 159.197 360.897C159.699 360.365 160.357 360.099 161.17 360.099H162.405C163.178 360.099 163.801 360.315 164.273 360.746C164.744 361.178 164.98 361.746 164.98 362.448H163.926C163.926 362.037 163.786 361.705 163.504 361.454C163.233 361.193 162.867 361.063 162.405 361.063H161.17C160.678 361.063 160.281 361.238 159.98 361.59C159.679 361.941 159.528 362.403 159.528 362.976V365.129C159.528 365.661 159.679 366.088 159.98 366.409C160.291 366.731 160.693 366.891 161.185 366.891H162.42C162.892 366.891 163.268 366.726 163.55 366.394C163.841 366.063 163.986 365.621 163.986 365.069H165.041C165.041 365.902 164.8 366.575 164.318 367.087C163.836 367.599 163.203 367.855 162.42 367.855H161.185ZM166.519 357.192H167.603V361.259C167.834 360.907 168.13 360.626 168.492 360.415C168.853 360.204 169.22 360.099 169.591 360.099H170.645C171.338 360.099 171.895 360.335 172.317 360.807C172.749 361.279 172.965 361.896 172.965 362.659V367.735H171.88V362.629C171.88 362.167 171.765 361.791 171.534 361.5C171.303 361.208 170.997 361.063 170.615 361.063H169.621C169.149 361.063 168.718 361.248 168.326 361.62C167.944 361.981 167.703 362.448 167.603 363.021V367.735H166.519V357.192ZM177.366 367.855C176.523 367.855 175.845 367.609 175.333 367.117C174.821 366.615 174.565 365.953 174.565 365.129V362.976C174.565 362.112 174.821 361.419 175.333 360.897C175.845 360.365 176.523 360.099 177.366 360.099H178.601C179.404 360.099 180.052 360.355 180.544 360.867C181.036 361.379 181.282 362.057 181.282 362.9V364.226H175.649V365.129C175.649 365.651 175.805 366.078 176.116 366.409C176.437 366.731 176.854 366.891 177.366 366.891H178.511C179.013 366.891 179.419 366.756 179.731 366.485C180.042 366.204 180.198 365.832 180.198 365.37H181.252C181.252 366.113 181.001 366.716 180.499 367.178C179.997 367.629 179.334 367.855 178.511 367.855H177.366ZM180.198 363.292V362.9C180.198 362.348 180.052 361.906 179.761 361.575C179.47 361.233 179.083 361.063 178.601 361.063H177.366C176.854 361.063 176.437 361.238 176.116 361.59C175.805 361.941 175.649 362.403 175.649 362.976V363.292H180.198ZM181.73 367.855H189.713V368.819H181.73V367.855ZM192.699 367.855C191.936 367.855 191.323 367.639 190.861 367.208C190.399 366.776 190.169 366.209 190.169 365.506H191.223C191.223 365.928 191.358 366.269 191.629 366.53C191.901 366.791 192.257 366.922 192.699 366.922H194.009C194.441 366.922 194.792 366.836 195.063 366.666C195.335 366.485 195.47 366.254 195.47 365.973V365.461C195.47 365.27 195.395 365.104 195.244 364.964C195.094 364.813 194.898 364.713 194.657 364.662L192.051 364.211C191.529 364.12 191.107 363.924 190.786 363.623C190.475 363.312 190.319 362.95 190.319 362.539V362.042C190.319 361.459 190.54 360.992 190.982 360.641C191.424 360.28 192.006 360.099 192.729 360.099H194.024C194.727 360.099 195.294 360.3 195.726 360.701C196.158 361.093 196.374 361.615 196.374 362.268H195.319C195.309 361.896 195.184 361.6 194.943 361.379C194.712 361.148 194.406 361.033 194.024 361.033H192.729C192.327 361.033 192.006 361.128 191.765 361.319C191.524 361.5 191.404 361.74 191.404 362.042V362.478C191.404 362.669 191.484 362.84 191.645 362.991C191.815 363.141 192.031 363.237 192.292 363.277L194.883 363.729C195.385 363.819 195.786 364.015 196.088 364.316C196.399 364.617 196.554 364.979 196.554 365.4V366.003C196.554 366.555 196.319 367.002 195.847 367.343C195.385 367.685 194.772 367.855 194.009 367.855H192.699ZM198.897 359.09C198.656 359.09 198.46 359.014 198.31 358.864C198.159 358.713 198.084 358.517 198.084 358.276C198.084 358.035 198.159 357.84 198.31 357.689C198.46 357.538 198.656 357.463 198.897 357.463C199.138 357.463 199.334 357.538 199.484 357.689C199.635 357.84 199.71 358.035 199.71 358.276C199.71 358.517 199.635 358.713 199.484 358.864C199.334 359.014 199.138 359.09 198.897 359.09ZM198.355 360.219H199.439V367.735H198.355V360.219ZM201.092 367.253L205.55 361.138H201.273V360.219H207.117V360.701L202.659 366.816H207.042V367.735H201.092V367.253ZM210.733 367.855C209.89 367.855 209.212 367.609 208.7 367.117C208.188 366.615 207.932 365.953 207.932 365.129V362.976C207.932 362.112 208.188 361.419 208.7 360.897C209.212 360.365 209.89 360.099 210.733 360.099H211.968C212.771 360.099 213.419 360.355 213.911 360.867C214.403 361.379 214.649 362.057 214.649 362.9V364.226H209.016V365.129C209.016 365.651 209.172 366.078 209.483 366.409C209.804 366.731 210.221 366.891 210.733 366.891H211.878C212.38 366.891 212.786 366.756 213.098 366.485C213.409 366.204 213.565 365.832 213.565 365.37H214.619C214.619 366.113 214.368 366.716 213.866 367.178C213.364 367.629 212.701 367.855 211.878 367.855H210.733ZM213.565 363.292V362.9C213.565 362.348 213.419 361.906 213.128 361.575C212.837 361.233 212.45 361.063 211.968 361.063H210.733C210.221 361.063 209.804 361.238 209.483 361.59C209.172 361.941 209.016 362.403 209.016 362.976V363.292H213.565Z" fill="white"/>
<circle cx="225.265" cy="362.235" r="1.0758" fill="white"/>
<rect x="111.674" y="406.16" width="127.577" height="36.2128" rx="8.60641" fill="white" fill-opacity="0.05"/>
<rect x="112.212" y="406.698" width="126.501" height="35.137" rx="8.06851" stroke="#EBEAE7" stroke-opacity="0.15" stroke-width="1.0758"/>
<path d="M133.967 422.131C134.63 422.131 135.152 422.346 135.533 422.778C135.925 423.2 136.121 423.787 136.121 424.54V429.767H135.036V424.51C135.036 424.068 134.936 423.722 134.735 423.471C134.534 423.22 134.268 423.094 133.937 423.094H133.079C132.647 423.094 132.29 423.24 132.009 423.531C131.728 423.822 131.547 424.234 131.467 424.766V429.767H130.383V424.601C130.383 424.129 130.287 423.762 130.096 423.501C129.916 423.23 129.665 423.094 129.343 423.094H128.485C128.073 423.094 127.712 423.275 127.4 423.637C127.089 423.998 126.893 424.47 126.813 425.052V429.767H125.729V422.251H126.783V423.335C126.984 422.954 127.235 422.658 127.536 422.447C127.837 422.236 128.153 422.131 128.485 422.131H129.373C129.795 422.131 130.157 422.236 130.458 422.447C130.769 422.648 131.005 422.944 131.166 423.335C131.397 422.934 131.673 422.633 131.994 422.432C132.315 422.231 132.667 422.131 133.048 422.131H133.967ZM140.186 429.887C139.453 429.887 138.866 429.696 138.424 429.315C137.993 428.933 137.777 428.421 137.777 427.779V427.297C137.777 426.664 138.003 426.157 138.454 425.775C138.906 425.394 139.504 425.203 140.247 425.203H141.211C141.542 425.203 141.883 425.253 142.235 425.354C142.586 425.454 142.887 425.59 143.138 425.76V424.51C143.138 424.089 143.008 423.747 142.747 423.486C142.486 423.215 142.139 423.079 141.708 423.079H140.503C140.071 423.079 139.725 423.18 139.464 423.381C139.202 423.581 139.072 423.848 139.072 424.179H137.988C137.988 423.566 138.218 423.074 138.68 422.703C139.142 422.321 139.75 422.131 140.503 422.131H141.708C142.451 422.131 143.048 422.351 143.5 422.793C143.962 423.225 144.193 423.797 144.193 424.51V429.767H143.169V428.712C142.938 429.074 142.631 429.36 142.25 429.571C141.878 429.782 141.492 429.887 141.09 429.887H140.186ZM141.12 428.938C141.592 428.938 142.014 428.793 142.385 428.501C142.757 428.21 143.008 427.824 143.138 427.342V426.784C142.938 426.594 142.657 426.443 142.295 426.333C141.944 426.212 141.582 426.152 141.211 426.152H140.247C139.835 426.152 139.499 426.257 139.238 426.468C138.987 426.679 138.861 426.955 138.861 427.297V427.779C138.861 428.13 138.982 428.411 139.223 428.622C139.464 428.833 139.785 428.938 140.186 428.938H141.12ZM148.013 425.926L145.302 422.251H146.537L148.631 425.083L150.724 422.251H151.959L149.248 425.926L152.08 429.767H150.845L148.631 426.769L146.417 429.767H145.182L148.013 425.926ZM152.023 429.887H160.005V430.851H152.023V429.887ZM170.116 422.251L168.489 428.893C168.409 429.194 168.298 429.415 168.158 429.556C168.017 429.696 167.826 429.767 167.585 429.767H167.073L165.191 424.089L163.248 429.767H162.736C162.505 429.767 162.314 429.696 162.163 429.556C162.013 429.415 161.902 429.194 161.832 428.893L160.19 422.251H161.335L162.736 428.562L164.769 422.462H165.161C165.452 422.462 165.648 422.623 165.748 422.944L167.585 428.517L168.971 422.251H170.116ZM173.428 429.887C172.695 429.887 172.108 429.696 171.666 429.315C171.234 428.933 171.018 428.421 171.018 427.779V427.297C171.018 426.664 171.244 426.157 171.696 425.775C172.148 425.394 172.745 425.203 173.488 425.203H174.452C174.784 425.203 175.125 425.253 175.477 425.354C175.828 425.454 176.129 425.59 176.38 425.76V424.51C176.38 424.089 176.25 423.747 175.989 423.486C175.728 423.215 175.381 423.079 174.949 423.079H173.745C173.313 423.079 172.966 423.18 172.705 423.381C172.444 423.581 172.314 423.848 172.314 424.179H171.229C171.229 423.566 171.46 423.074 171.922 422.703C172.384 422.321 172.991 422.131 173.745 422.131H174.949C175.692 422.131 176.29 422.351 176.742 422.793C177.204 423.225 177.435 423.797 177.435 424.51V429.767H176.41V428.712C176.179 429.074 175.873 429.36 175.492 429.571C175.12 429.782 174.734 429.887 174.332 429.887H173.428ZM174.362 428.938C174.834 428.938 175.256 428.793 175.627 428.501C175.999 428.21 176.25 427.824 176.38 427.342V426.784C176.179 426.594 175.898 426.443 175.537 426.333C175.185 426.212 174.824 426.152 174.452 426.152H173.488C173.077 426.152 172.74 426.257 172.479 426.468C172.228 426.679 172.103 426.955 172.103 427.297V427.779C172.103 428.13 172.223 428.411 172.464 428.622C172.705 428.833 173.027 428.938 173.428 428.938H174.362ZM181.406 429.767C180.663 429.767 180.13 429.611 179.809 429.3C179.488 428.978 179.327 428.451 179.327 427.718V419.224H180.412V427.718C180.412 428.1 180.487 428.376 180.637 428.547C180.798 428.717 181.054 428.803 181.406 428.803H181.918V429.767H181.406ZM181.911 429.887H189.894V430.851H181.911V429.887ZM192.88 429.887C192.117 429.887 191.504 429.671 191.043 429.239C190.581 428.808 190.35 428.24 190.35 427.538H191.404C191.404 427.959 191.54 428.301 191.811 428.562C192.082 428.823 192.438 428.953 192.88 428.953H194.19C194.622 428.953 194.974 428.868 195.245 428.697C195.516 428.517 195.651 428.286 195.651 428.004V427.492C195.651 427.302 195.576 427.136 195.425 426.995C195.275 426.845 195.079 426.744 194.838 426.694L192.232 426.242C191.71 426.152 191.289 425.956 190.967 425.655C190.656 425.344 190.5 424.982 190.5 424.57V424.073C190.5 423.491 190.721 423.024 191.163 422.673C191.605 422.311 192.187 422.131 192.91 422.131H194.205C194.908 422.131 195.476 422.331 195.907 422.733C196.339 423.125 196.555 423.647 196.555 424.299H195.501C195.491 423.928 195.365 423.632 195.124 423.411C194.893 423.18 194.587 423.064 194.205 423.064H192.91C192.509 423.064 192.187 423.16 191.946 423.351C191.705 423.531 191.585 423.772 191.585 424.073V424.51C191.585 424.701 191.665 424.872 191.826 425.022C191.996 425.173 192.212 425.268 192.473 425.308L195.064 425.76C195.566 425.851 195.968 426.046 196.269 426.348C196.58 426.649 196.736 427.01 196.736 427.432V428.035C196.736 428.587 196.5 429.034 196.028 429.375C195.566 429.716 194.953 429.887 194.19 429.887H192.88ZM199.078 421.121C198.837 421.121 198.641 421.046 198.491 420.896C198.34 420.745 198.265 420.549 198.265 420.308C198.265 420.067 198.34 419.871 198.491 419.721C198.641 419.57 198.837 419.495 199.078 419.495C199.319 419.495 199.515 419.57 199.666 419.721C199.816 419.871 199.891 420.067 199.891 420.308C199.891 420.549 199.816 420.745 199.666 420.896C199.515 421.046 199.319 421.121 199.078 421.121ZM198.536 422.251H199.62V429.767H198.536V422.251ZM201.274 429.285L205.732 423.17H201.454V422.251H207.298V422.733L202.84 428.848H207.223V429.767H201.274V429.285ZM210.914 429.887C210.071 429.887 209.393 429.641 208.881 429.149C208.369 428.647 208.113 427.984 208.113 427.161V425.007C208.113 424.144 208.369 423.451 208.881 422.929C209.393 422.397 210.071 422.131 210.914 422.131H212.149C212.953 422.131 213.6 422.387 214.092 422.899C214.584 423.411 214.83 424.089 214.83 424.932V426.257H209.197V427.161C209.197 427.683 209.353 428.11 209.664 428.441C209.986 428.763 210.402 428.923 210.914 428.923H212.059C212.561 428.923 212.968 428.788 213.279 428.517C213.59 428.235 213.746 427.864 213.746 427.402H214.8C214.8 428.145 214.549 428.747 214.047 429.209C213.545 429.661 212.882 429.887 212.059 429.887H210.914ZM213.746 425.324V424.932C213.746 424.38 213.6 423.938 213.309 423.607C213.018 423.265 212.631 423.094 212.149 423.094H210.914C210.402 423.094 209.986 423.27 209.664 423.622C209.353 423.973 209.197 424.435 209.197 425.007V425.324H213.746Z" fill="white"/>
<circle cx="225.265" cy="424.267" r="1.0758" fill="white"/>
<rect x="37" y="468.192" width="202.251" height="36.2128" rx="8.60641" fill="white" fill-opacity="0.05"/>
<rect x="37.5379" y="468.73" width="201.175" height="35.137" rx="8.06851" stroke="#EBEAE7" stroke-opacity="0.15" stroke-width="1.0758"/>
<path d="M59.1292 484.163C59.7919 484.163 60.314 484.379 60.6956 484.81C61.0872 485.232 61.283 485.82 61.283 486.573V491.799H60.1986V486.542C60.1986 486.101 60.0982 485.754 59.8974 485.503C59.6965 485.252 59.4305 485.127 59.0991 485.127H58.2406C57.8089 485.127 57.4524 485.272 57.1713 485.563C56.8901 485.855 56.7094 486.266 56.6291 486.799V491.799H55.5447V486.633C55.5447 486.161 55.4493 485.794 55.2585 485.533C55.0778 485.262 54.8267 485.127 54.5054 485.127H53.6469C53.2353 485.127 52.8738 485.307 52.5625 485.669C52.2513 486.03 52.0555 486.502 51.9752 487.085V491.799H50.8907V484.283H51.945V485.368C52.1458 484.986 52.3969 484.69 52.6981 484.479C52.9993 484.268 53.3156 484.163 53.6469 484.163H54.5356C54.9573 484.163 55.3187 484.268 55.62 484.479C55.9312 484.68 56.1672 484.976 56.3278 485.368C56.5588 484.966 56.8349 484.665 57.1562 484.464C57.4775 484.263 57.8289 484.163 58.2105 484.163H59.1292ZM65.3486 491.919C64.6156 491.919 64.0282 491.729 63.5864 491.347C63.1547 490.965 62.9388 490.453 62.9388 489.811V489.329C62.9388 488.696 63.1647 488.189 63.6165 487.808C64.0684 487.426 64.6658 487.235 65.4088 487.235H66.3727C66.7041 487.235 67.0455 487.285 67.3969 487.386C67.7483 487.486 68.0496 487.622 68.3006 487.793V486.542C68.3006 486.121 68.17 485.779 67.909 485.518C67.6479 485.247 67.3015 485.112 66.8698 485.112H65.6649C65.2331 485.112 64.8867 485.212 64.6256 485.413C64.3646 485.614 64.234 485.88 64.234 486.211H63.1496C63.1496 485.599 63.3806 485.107 63.8425 484.735C64.3043 484.354 64.9118 484.163 65.6649 484.163H66.8698C67.6128 484.163 68.2102 484.384 68.662 484.825C69.1239 485.257 69.3549 485.83 69.3549 486.542V491.799H68.3307V490.745C68.0998 491.106 67.7935 491.392 67.412 491.603C67.0405 491.814 66.6539 491.919 66.2522 491.919H65.3486ZM66.2824 490.97C66.7543 490.97 67.176 490.825 67.5475 490.534C67.919 490.243 68.17 489.856 68.3006 489.374V488.817C68.0998 488.626 67.8186 488.475 67.4571 488.365C67.1057 488.244 66.7442 488.184 66.3727 488.184H65.4088C64.9971 488.184 64.6608 488.29 64.3997 488.5C64.1487 488.711 64.0232 488.987 64.0232 489.329V489.811C64.0232 490.162 64.1437 490.443 64.3847 490.654C64.6256 490.865 64.9469 490.97 65.3486 490.97H66.2824ZM72.0608 483.154C71.8198 483.154 71.624 483.078 71.4734 482.928C71.3228 482.777 71.2475 482.581 71.2475 482.34C71.2475 482.099 71.3228 481.904 71.4734 481.753C71.624 481.602 71.8198 481.527 72.0608 481.527C72.3018 481.527 72.4976 481.602 72.6482 481.753C72.7988 481.904 72.8741 482.099 72.8741 482.34C72.8741 482.581 72.7988 482.777 72.6482 482.928C72.4976 483.078 72.3018 483.154 72.0608 483.154ZM71.5186 484.283H72.603V491.799H71.5186V484.283ZM74.8587 484.283H75.913V485.398C76.1439 485.036 76.4451 484.74 76.8166 484.509C77.1881 484.278 77.5597 484.163 77.9312 484.163H78.9553C79.6481 484.163 80.2054 484.399 80.6271 484.871C81.0589 485.343 81.2748 485.96 81.2748 486.723V491.799H80.1903V486.693C80.1903 486.231 80.0749 485.855 79.8439 485.563C79.613 485.272 79.3068 485.127 78.9252 485.127H77.9613C77.4894 485.127 77.0576 485.312 76.666 485.684C76.2845 486.055 76.0435 486.532 75.9431 487.115V491.799H74.8587V484.283ZM86.1285 491.799C85.3352 491.799 84.7629 491.628 84.4115 491.287C84.0701 490.945 83.8994 490.383 83.8994 489.6V485.247H82.574V484.283H83.8994V482.009H84.9838V484.283H86.9418V485.247H84.9838V489.6C84.9838 490.042 85.0692 490.358 85.2399 490.549C85.4206 490.74 85.7168 490.835 86.1285 490.835H86.9418V491.799H86.1285ZM90.891 491.919C90.0476 491.919 89.3698 491.673 88.8577 491.181C88.3456 490.679 88.0896 490.017 88.0896 489.193V487.039C88.0896 486.176 88.3456 485.483 88.8577 484.961C89.3698 484.429 90.0476 484.163 90.891 484.163H92.126C92.9293 484.163 93.5769 484.419 94.0689 484.931C94.5609 485.443 94.8069 486.121 94.8069 486.964V488.29H89.174V489.193C89.174 489.715 89.3296 490.142 89.6409 490.473C89.9622 490.795 90.3789 490.955 90.891 490.955H92.0356C92.5377 490.955 92.9443 490.82 93.2556 490.549C93.5669 490.268 93.7225 489.896 93.7225 489.434H94.7768C94.7768 490.177 94.5258 490.78 94.0237 491.242C93.5217 491.693 92.859 491.919 92.0356 491.919H90.891ZM93.7225 487.356V486.964C93.7225 486.412 93.5769 485.97 93.2857 485.639C92.9945 485.297 92.608 485.127 92.126 485.127H90.891C90.3789 485.127 89.9622 485.302 89.6409 485.654C89.3296 486.005 89.174 486.467 89.174 487.039V487.356H93.7225ZM96.3997 484.283H97.454V485.398C97.685 485.036 97.9862 484.74 98.3577 484.509C98.7292 484.278 99.1007 484.163 99.4722 484.163H100.496C101.189 484.163 101.746 484.399 102.168 484.871C102.6 485.343 102.816 485.96 102.816 486.723V491.799H101.731V486.693C101.731 486.231 101.616 485.855 101.385 485.563C101.154 485.272 100.848 485.127 100.466 485.127H99.5024C99.0304 485.127 98.5987 485.312 98.2071 485.684C97.8255 486.055 97.5846 486.532 97.4842 487.115V491.799H96.3997V484.283ZM106.886 491.919C106.153 491.919 105.566 491.729 105.124 491.347C104.692 490.965 104.477 490.453 104.477 489.811V489.329C104.477 488.696 104.702 488.189 105.154 487.808C105.606 487.426 106.204 487.235 106.947 487.235H107.911C108.242 487.235 108.583 487.285 108.935 487.386C109.286 487.486 109.587 487.622 109.838 487.793V486.542C109.838 486.121 109.708 485.779 109.447 485.518C109.186 485.247 108.839 485.112 108.408 485.112H107.203C106.771 485.112 106.424 485.212 106.163 485.413C105.902 485.614 105.772 485.88 105.772 486.211H104.687C104.687 485.599 104.918 485.107 105.38 484.735C105.842 484.354 106.45 484.163 107.203 484.163H108.408C109.151 484.163 109.748 484.384 110.2 484.825C110.662 485.257 110.893 485.83 110.893 486.542V491.799H109.868V490.745C109.638 491.106 109.331 491.392 108.95 491.603C108.578 491.814 108.192 491.919 107.79 491.919H106.886ZM107.82 490.97C108.292 490.97 108.714 490.825 109.085 490.534C109.457 490.243 109.708 489.856 109.838 489.374V488.817C109.638 488.626 109.356 488.475 108.995 488.365C108.643 488.244 108.282 488.184 107.911 488.184H106.947C106.535 488.184 106.199 488.29 105.937 488.5C105.686 488.711 105.561 488.987 105.561 489.329V489.811C105.561 490.162 105.681 490.443 105.922 490.654C106.163 490.865 106.485 490.97 106.886 490.97H107.82ZM112.785 484.283H113.84V485.398C114.071 485.036 114.372 484.74 114.743 484.509C115.115 484.278 115.486 484.163 115.858 484.163H116.882C117.575 484.163 118.132 484.399 118.554 484.871C118.985 485.343 119.201 485.96 119.201 486.723V491.799H118.117V486.693C118.117 486.231 118.001 485.855 117.771 485.563C117.54 485.272 117.233 485.127 116.852 485.127H115.888C115.416 485.127 114.984 485.312 114.593 485.684C114.211 486.055 113.97 486.532 113.87 487.115V491.799H112.785V484.283ZM123.543 491.919C122.72 491.919 122.057 491.673 121.555 491.181C121.053 490.679 120.802 490.017 120.802 489.193V487.039C120.802 486.176 121.053 485.483 121.555 484.961C122.057 484.429 122.715 484.163 123.528 484.163H124.763C125.536 484.163 126.159 484.379 126.631 484.81C127.102 485.242 127.338 485.809 127.338 486.512H126.284C126.284 486.101 126.144 485.769 125.862 485.518C125.591 485.257 125.225 485.127 124.763 485.127H123.528C123.036 485.127 122.639 485.302 122.338 485.654C122.037 486.005 121.886 486.467 121.886 487.039V489.193C121.886 489.725 122.037 490.152 122.338 490.473C122.649 490.795 123.051 490.955 123.543 490.955H124.778C125.25 490.955 125.626 490.79 125.908 490.458C126.199 490.127 126.344 489.685 126.344 489.133H127.399C127.399 489.966 127.158 490.639 126.676 491.151C126.194 491.663 125.561 491.919 124.778 491.919H123.543ZM131.377 491.919C130.533 491.919 129.856 491.673 129.344 491.181C128.831 490.679 128.575 490.017 128.575 489.193V487.039C128.575 486.176 128.831 485.483 129.344 484.961C129.856 484.429 130.533 484.163 131.377 484.163H132.612C133.415 484.163 134.063 484.419 134.555 484.931C135.047 485.443 135.293 486.121 135.293 486.964V488.29H129.66V489.193C129.66 489.715 129.815 490.142 130.127 490.473C130.448 490.795 130.865 490.955 131.377 490.955H132.521C133.024 490.955 133.43 490.82 133.741 490.549C134.053 490.268 134.208 489.896 134.208 489.434H135.263C135.263 490.177 135.012 490.78 134.51 491.242C134.008 491.693 133.345 491.919 132.521 491.919H131.377ZM134.208 487.356V486.964C134.208 486.412 134.063 485.97 133.772 485.639C133.48 485.297 133.094 485.127 132.612 485.127H131.377C130.865 485.127 130.448 485.302 130.127 485.654C129.815 486.005 129.66 486.467 129.66 487.039V487.356H134.208ZM135.741 491.919H143.723V492.883H135.741V491.919ZM153.834 484.283L152.207 490.925C152.127 491.227 152.016 491.447 151.876 491.588C151.735 491.729 151.544 491.799 151.303 491.799H150.791L148.909 486.121L146.966 491.799H146.454C146.223 491.799 146.032 491.729 145.881 491.588C145.731 491.447 145.62 491.227 145.55 490.925L143.908 484.283H145.053L146.454 490.594L148.487 484.494H148.878C149.17 484.494 149.365 484.655 149.466 484.976L151.303 490.549L152.689 484.283H153.834ZM157.477 491.919C156.634 491.919 155.956 491.658 155.444 491.136C154.932 490.614 154.676 489.926 154.676 489.073V487.009C154.676 486.156 154.932 485.468 155.444 484.946C155.966 484.424 156.654 484.163 157.508 484.163H158.743C159.596 484.163 160.279 484.424 160.791 484.946C161.313 485.468 161.574 486.156 161.574 487.009V489.073C161.574 489.926 161.313 490.614 160.791 491.136C160.269 491.658 159.576 491.919 158.712 491.919H157.477ZM158.712 490.955C159.255 490.955 159.686 490.785 160.008 490.443C160.329 490.092 160.49 489.635 160.49 489.073V487.009C160.49 486.447 160.329 485.995 160.008 485.654C159.686 485.302 159.265 485.127 158.743 485.127H157.508C156.985 485.127 156.564 485.302 156.242 485.654C155.921 485.995 155.76 486.447 155.76 487.009V489.073C155.76 489.645 155.916 490.102 156.227 490.443C156.539 490.785 156.955 490.955 157.477 490.955H158.712ZM163.266 484.283H164.32V485.443C164.521 485.092 164.822 484.805 165.224 484.585C165.635 484.364 166.062 484.253 166.504 484.253H167.167V485.232H166.504C165.861 485.232 165.339 485.438 164.937 485.85C164.546 486.251 164.35 486.788 164.35 487.461V491.799H163.266V484.283ZM173.394 491.799L170.442 488.244L169.403 489.284V491.799H168.318V481.256H169.403V487.958L173.123 484.283H174.448L171.195 487.506L174.689 491.799H173.394ZM174.565 491.919H182.547V492.883H174.565V491.919ZM191.633 484.163C192.296 484.163 192.818 484.379 193.2 484.81C193.591 485.232 193.787 485.82 193.787 486.573V491.799H192.703V486.542C192.703 486.101 192.602 485.754 192.401 485.503C192.201 485.252 191.934 485.127 191.603 485.127H190.745C190.313 485.127 189.956 485.272 189.675 485.563C189.394 485.855 189.213 486.266 189.133 486.799V491.799H188.049V486.633C188.049 486.161 187.953 485.794 187.762 485.533C187.582 485.262 187.331 485.127 187.009 485.127H186.151C185.739 485.127 185.378 485.307 185.067 485.669C184.755 486.03 184.559 486.502 184.479 487.085V491.799H183.395V484.283H184.449V485.368C184.65 484.986 184.901 484.69 185.202 484.479C185.503 484.268 185.82 484.163 186.151 484.163H187.04C187.461 484.163 187.823 484.268 188.124 484.479C188.435 484.68 188.671 484.976 188.832 485.368C189.063 484.966 189.339 484.665 189.66 484.464C189.982 484.263 190.333 484.163 190.714 484.163H191.633ZM198.184 491.919C197.34 491.919 196.663 491.673 196.151 491.181C195.639 490.679 195.383 490.017 195.383 489.193V487.039C195.383 486.176 195.639 485.483 196.151 484.961C196.663 484.429 197.34 484.163 198.184 484.163H199.419C200.222 484.163 200.87 484.419 201.362 484.931C201.854 485.443 202.1 486.121 202.1 486.964V488.29H196.467V489.193C196.467 489.715 196.623 490.142 196.934 490.473C197.255 490.795 197.672 490.955 198.184 490.955H199.329C199.831 490.955 200.237 490.82 200.549 490.549C200.86 490.268 201.015 489.896 201.015 489.434H202.07C202.07 490.177 201.819 490.78 201.317 491.242C200.815 491.693 200.152 491.919 199.329 491.919H198.184ZM201.015 487.356V486.964C201.015 486.412 200.87 485.97 200.579 485.639C200.287 485.297 199.901 485.127 199.419 485.127H198.184C197.672 485.127 197.255 485.302 196.934 485.654C196.623 486.005 196.467 486.467 196.467 487.039V487.356H201.015ZM211.931 484.163C212.594 484.163 213.116 484.379 213.498 484.81C213.889 485.232 214.085 485.82 214.085 486.573V491.799H213.001V486.542C213.001 486.101 212.9 485.754 212.699 485.503C212.498 485.252 212.232 485.127 211.901 485.127H211.043C210.611 485.127 210.254 485.272 209.973 485.563C209.692 485.855 209.511 486.266 209.431 486.799V491.799H208.347V486.633C208.347 486.161 208.251 485.794 208.06 485.533C207.88 485.262 207.629 485.127 207.307 485.127H206.449C206.037 485.127 205.676 485.307 205.364 485.669C205.053 486.03 204.857 486.502 204.777 487.085V491.799H203.693V484.283H204.747V485.368C204.948 484.986 205.199 484.69 205.5 484.479C205.801 484.268 206.118 484.163 206.449 484.163H207.338C207.759 484.163 208.121 484.268 208.422 484.479C208.733 484.68 208.969 484.976 209.13 485.368C209.361 484.966 209.637 484.665 209.958 484.464C210.279 484.263 210.631 484.163 211.012 484.163H211.931Z" fill="white"/>
<circle cx="225.429" cy="486.299" r="1.0758" fill="white"/>
<path d="M239.25 175.141L407.075 300.471M407.075 300.471L239.25 238.075M407.075 300.471H239.25M407.075 300.471L239.25 362.868M407.075 300.471L239.25 487.661M407.075 300.471L239.788 425.264M407.075 300.471L239.25 112.744" stroke="url(#paint0_linear_5268_4431)" stroke-width="1.0758" stroke-dasharray="10.76 10.76"/>
<path d="M428.332 352.375V244.81H553.288V352.375C553.288 360.53 546.52 368.095 535.161 373.658C523.844 379.201 508.164 382.648 490.81 382.648C473.456 382.648 457.776 379.201 446.459 373.658C435.099 368.095 428.332 360.53 428.332 352.375Z" fill="#1661BA" fill-opacity="0.15" stroke="#7B7DFF" stroke-width="1.28821"/>
<path d="M553.288 248.03C553.288 256.185 546.52 263.75 535.161 269.314C523.844 274.857 508.164 278.303 490.81 278.303C473.456 278.303 457.776 274.857 446.459 269.314C435.099 263.75 428.332 256.185 428.332 248.03C428.332 239.875 435.099 232.311 446.459 226.747C457.776 221.204 473.456 217.757 490.81 217.757C508.164 217.757 523.844 221.204 535.161 226.747C546.52 232.311 553.288 239.875 553.288 248.03Z" fill="#1C1C1C" stroke="#7B7DFF" stroke-width="1.28821"/>
<defs>
<linearGradient id="paint0_linear_5268_4431" x1="234.484" y1="348.854" x2="376.65" y2="352.863" gradientUnits="userSpaceOnUse">
<stop stop-color="white" stop-opacity="0"/>
<stop offset="0.0777023" stop-color="white" stop-opacity="0.15"/>
<stop offset="0.162852" stop-color="#FFC6D9"/>
<stop offset="0.269688" stop-color="#B6CBDD"/>
<stop offset="0.396066" stop-color="#7CCFE1"/>
<stop offset="0.643124" stop-color="#F77577"/>
<stop offset="0.806338" stop-color="#89CBA6"/>
<stop offset="1" stop-color="#A5D571"/>
</linearGradient>
</defs>
</svg>
