<svg width="500" height="500" viewBox="0 0 500 500" fill="none" xmlns="http://www.w3.org/2000/svg">
<g clip-path="url(#clip0_466_16160)">
<path fill-rule="evenodd" clip-rule="evenodd" d="M214.811 169.856L116.566 102.6C114.344 101.08 111.611 100.511 108.966 101.024L5.37673 121.058C3.66787 121.386 2.33392 122.713 1.9769 124.415C1.61989 126.118 2.32013 127.868 3.75406 128.852L101.999 196.108C104.222 197.628 106.955 198.196 109.599 197.684L213.188 177.65C214.897 177.322 216.24 175.993 216.588 174.293C216.946 172.59 216.245 170.84 214.811 169.856Z" fill="#E9FC87"/>
<path fill-rule="evenodd" clip-rule="evenodd" d="M241.445 414.802C235.511 418.092 227.477 420.087 218.646 420.088C207.725 420.088 198.02 417.036 192.017 412.274C188.267 409.297 185.978 405.661 185.979 401.691C185.979 401.691 186.379 349.778 186.463 339.873L242.996 375.061L242.146 375.038L241.707 389.977C241.698 390.086 241.698 390.187 241.698 390.295L241.445 414.802Z" fill="#FF85D0"/>
<path fill-rule="evenodd" clip-rule="evenodd" d="M141.2 279.005C130.384 279.299 119.763 277.4 109.355 273.401C109.348 273.396 109.348 273.397 109.348 273.397C108.132 272.941 107.401 271.709 107.563 270.422C107.739 269.138 108.773 268.142 110.06 268.02C115.241 267.556 120.39 266.738 125.496 265.424C130.225 270.173 135.446 274.726 141.2 279.005Z" fill="white"/>
<path fill-rule="evenodd" clip-rule="evenodd" d="M466.247 222.508C463.971 220.089 461.27 218.004 458.186 216.38L371.654 170.793L370.31 173.336L456.85 218.921C469.279 225.471 474.856 240.282 469.827 253.407L437.016 339.046C432.953 349.641 423.055 356.865 411.732 357.503C400.402 358.143 389.757 352.071 384.534 342L361.845 298.249L359.29 299.577L381.979 343.327C387.724 354.404 399.438 361.077 411.889 360.377C412.032 360.365 412.173 360.359 412.316 360.347L401.738 394.872C401.694 395.008 401.672 395.151 401.674 395.296L401.676 420.975C401.668 424.947 399.384 428.586 395.634 431.564C389.628 436.323 379.924 439.377 369.003 439.378C358.081 439.378 348.377 436.326 342.374 431.564C338.624 428.587 336.334 424.958 336.326 420.989C336.334 420.988 336.418 414.793 336.531 407.246C336.694 407.153 336.865 407.059 337.028 406.961L336.544 406.118C321.83 411.521 327.659 410.498 309.319 410.533L309.319 448.229C309.318 452.206 307.035 455.838 303.277 458.819C297.278 463.582 287.567 466.632 276.646 466.632C265.724 466.633 256.02 463.581 250.017 458.819C246.267 455.842 243.978 452.206 243.979 448.236L244.573 390.326C244.571 390.238 244.577 390.148 244.574 390.06L244.978 376.299L245.988 376.926L247.512 374.489L186.84 336.725C178.362 331.446 173.051 322.38 172.514 312.489C181.77 312.94 191.174 311.834 200.74 309.126C201.042 309.041 201.338 308.952 201.627 308.851C209.872 306.753 218.512 302.388 224.662 298.811L223.211 296.32C219.48 298.491 214.801 300.976 209.867 303.024C212.694 299.318 213.892 294.612 213.495 290.16C213.023 284.902 210.327 280.014 205.556 277.475C204.019 276.659 202.377 276.176 200.718 276.012C204.919 272.746 207.961 269.321 211.51 265.539L209.417 263.573C204.714 268.574 200.964 272.962 193.937 277.165C193.003 277.603 192.098 278.154 191.27 278.821C183.667 284.882 175.877 288.961 167.952 291.641C159.975 287.878 152.742 283.643 146.173 279.048C138.989 274.018 132.62 268.558 126.952 262.813C104.442 239.954 93.3366 212.622 88.2245 190.168L100.366 198.48C103.227 200.436 106.743 201.163 110.138 200.506L144.113 193.938C150.867 207.324 160.35 217.126 171.179 224.321C192.182 238.277 218.283 242.4 239.389 243.868L239.593 240.998C219.13 239.573 193.864 235.673 173.408 222.35L173.268 188.3L213.734 180.477C216.58 179.927 218.814 177.715 219.404 174.874C220.001 172.039 218.818 169.123 216.426 167.482L173.073 137.8L172.864 86.5578C172.844 81.5744 174.527 76.9282 177.407 73.229C176.419 70.2138 167.296 53.9869 187.538 44.5611C197.774 42.0294 209.196 45.0048 223.083 59.3727L313.097 43.1034C324.781 40.9897 336.833 43.632 346.562 50.4339L481.093 144.219C489.568 150.144 492.641 161.239 488.431 170.677C488.43 170.684 488.429 170.691 488.428 170.697L466.247 222.508Z" fill="#FF85D0"/>
<path d="M222.187 57.3404C218.587 54.6449 214.996 51.9582 211.47 49.3171C202.18 42.3647 191.381 41.1596 183.824 46.2301C176.275 51.3015 173.357 61.7141 176.368 72.8744" stroke="#242728" stroke-width="3.55298" stroke-miterlimit="1.5" stroke-linejoin="round"/>
<path d="M171.812 187.189L171.953 223.204M466.643 225.262L489.732 171.339C494.216 161.271 490.931 149.434 481.898 143.117L347.371 49.3309C337.323 42.309 324.887 39.5825 312.824 41.7697L190.327 63.9009C184.568 64.941 179.632 68.075 176.25 72.4234C173.184 76.3722 171.387 81.3296 171.408 86.6373L171.617 138.634M171.014 311.038C171.05 322.009 176.728 332.213 186.064 338.02L246.729 375.784M310.286 368.478L340.587 363.636" stroke="#242728" stroke-width="4.00086" stroke-miterlimit="1.5" stroke-linejoin="round"/>
<path d="M217.023 99.0078C261.494 129.832 265.15 132.361 298.776 155.667C312.607 165.249 329.647 169.02 346.227 166.169C366.233 162.724 382.432 160.408 408.117 155.986" stroke="#242728" stroke-width="3.99752" stroke-miterlimit="1.5" stroke-linejoin="round"/>
<path d="M239.473 242.517C218.588 241.064 192.739 237.02 171.957 223.21C161.063 215.97 151.56 206.046 144.896 192.404M86.0431 187.025C90.8218 210.316 101.982 239.61 125.916 263.908C131.631 269.71 138.075 275.228 145.335 280.31C152.105 285.051 159.585 289.413 167.845 293.275C168.012 293.353 168.18 293.431 168.348 293.509" stroke="#242728" stroke-width="3.99935" stroke-miterlimit="1.5" stroke-linejoin="round"/>
<path fill-rule="evenodd" clip-rule="evenodd" d="M206.698 280.022C202.356 276.698 196.301 276.759 192.026 280.175C179.271 290.264 166.018 294.917 152.504 296.783C149.983 297.128 148.043 299.18 147.834 301.714C147.625 304.249 149.205 306.592 151.636 307.341C167.407 312.321 183.631 312.562 200.337 307.83C213.694 304.043 215.511 286.87 206.698 280.022Z" fill="white" stroke="#242728" stroke-width="4.00086" stroke-miterlimit="1.5" stroke-linejoin="round"/>
<path d="M125.922 263.909C120.629 265.327 115.287 266.194 109.907 266.674C107.952 266.861 106.382 268.371 106.129 270.317C105.868 272.264 106.987 274.14 108.824 274.832C120.729 279.405 132.898 281.275 145.337 280.311" stroke="#242728" stroke-width="4.00086" stroke-miterlimit="1.5" stroke-linejoin="round"/>
<path d="M194.595 278.53C201.797 274.233 205.638 269.757 210.449 264.645" stroke="#242728" stroke-width="4.00086" stroke-miterlimit="1.5" stroke-linejoin="round"/>
<path d="M201.2 307.557C209.337 305.499 217.85 301.174 223.921 297.649" stroke="#242728" stroke-width="4.00086" stroke-miterlimit="1.5" stroke-linejoin="round"/>
<path d="M370.971 172.15C370.971 172.15 425.413 200.829 457.504 217.736C470.581 224.625 476.442 240.203 471.156 254.006C462.673 276.155 449.735 309.909 438.341 339.647C434.084 350.77 423.69 358.356 411.795 359.025C399.907 359.695 388.727 353.323 383.24 342.749C371.337 319.796 360.558 298.999 360.558 298.999" stroke="#242728" stroke-width="3.99839" stroke-miterlimit="1.5" stroke-linejoin="round"/>
<path d="M243.559 375.162C243.559 375.162 243.168 388.523 243.119 390.097C243.118 390.198 243.118 390.3 243.117 390.4C243.08 393.651 242.524 448.314 242.524 448.314C242.525 459.265 257.807 468.154 276.636 468.156C295.456 468.155 310.742 459.266 310.741 448.315L310.737 366.422" stroke="#242728" stroke-width="3.99805" stroke-miterlimit="1.5" stroke-linejoin="round"/>
<path d="M185.021 338.321L184.524 401.768C184.525 412.719 199.807 421.608 218.635 421.61C227.931 421.607 236.372 419.438 242.525 415.918" stroke="#242728" stroke-width="3.99805" stroke-miterlimit="1.5" stroke-linejoin="round"/>
<path d="M345.867 348.854C345.867 348.854 336.578 375.949 335.906 377.903C335.616 378.742 335.461 379.621 335.453 380.511C335.349 387.666 334.877 421.055 334.877 421.055C334.878 432.006 350.16 440.895 368.988 440.897C387.809 440.896 403.094 432.007 403.093 421.056L403.087 395.374L414.1 359.466" stroke="#242728" stroke-width="3.99805" stroke-miterlimit="1.5" stroke-linejoin="round"/>
<path d="M312.402 411.495C321.698 411.493 330.139 409.323 336.291 405.804" stroke="#242728" stroke-width="3.99805" stroke-miterlimit="1.5" stroke-linejoin="round"/>
<path fill-rule="evenodd" clip-rule="evenodd" d="M214.321 180.873L111.584 200.741C107.222 201.585 102.697 200.644 99.0314 198.134L5.15852 133.867C2.08154 131.76 0.567924 128.018 1.32238 124.368C2.09178 120.721 4.95529 117.883 8.61678 117.175L107.019 98.1453C111.382 97.3017 115.906 98.2425 119.571 100.752L217.093 167.517C219.554 169.202 220.755 172.198 220.148 175.12C219.545 178.037 217.244 180.307 214.321 180.873ZM213.619 177.244C215.086 176.96 216.235 175.828 216.534 174.367C216.832 172.907 216.236 171.408 215.009 170.568L117.481 103.799C114.634 101.85 111.111 101.119 107.72 101.774L9.31769 120.804C7.12267 121.229 5.40226 122.93 4.9466 125.119C4.49094 127.308 5.39908 129.554 7.24863 130.82L101.122 195.088C103.975 197.041 107.483 197.769 110.873 197.114L213.619 177.244Z" fill="#242728"/>
<path fill-rule="evenodd" clip-rule="evenodd" d="M7.32775 126.401L9.41786 123.354L85.3669 175.35L83.2826 178.401L7.32775 126.401ZM172.166 180.074L171.466 176.445L207.884 169.402L208.585 173.031L172.166 180.074Z" fill="#242728"/>
<path fill-rule="evenodd" clip-rule="evenodd" d="M47.0845 134.728C46.089 134.944 45.1035 134.312 44.8848 133.316C44.666 132.321 45.2994 131.336 46.2948 131.119L58.1751 128.533C59.1706 128.316 60.1558 128.949 60.3745 129.944C60.5851 130.942 59.9523 131.927 58.9569 132.143L47.0845 134.728Z" fill="#242728"/>
<path fill-rule="evenodd" clip-rule="evenodd" d="M34.9458 126.589C33.9504 126.806 32.9648 126.173 32.7461 125.178C32.5274 124.183 33.1607 123.198 34.1562 122.981L46.0364 120.395C47.0319 120.178 48.0171 120.811 48.2358 121.806C48.4464 122.803 47.8136 123.788 46.8182 124.005L34.9458 126.589Z" fill="#242728"/>
<path fill-rule="evenodd" clip-rule="evenodd" d="M65.7056 147.225C64.7101 147.442 63.7246 146.809 63.5058 145.814C63.2871 144.818 63.9205 143.833 64.9159 143.617L76.7962 141.031C77.7917 140.814 78.7769 141.446 78.9956 142.442C79.2062 143.439 78.5734 144.424 77.578 144.641L65.7056 147.225Z" fill="#242728"/>
<path fill-rule="evenodd" clip-rule="evenodd" d="M83.6626 159.271C82.6672 159.487 81.6816 158.855 81.4629 157.859C81.2442 156.864 81.8775 155.879 82.8729 155.662L94.7532 153.076C95.7487 152.859 96.7339 153.492 96.9526 154.487C97.1632 155.484 96.5304 156.469 95.535 156.686L83.6626 159.271Z" fill="#242728"/>
<path fill-rule="evenodd" clip-rule="evenodd" d="M111.911 178.235C110.915 178.452 109.93 177.819 109.711 176.824C109.492 175.828 110.126 174.843 111.121 174.627L123.001 172.04C123.997 171.824 124.982 172.456 125.201 173.452C125.411 174.449 124.778 175.434 123.783 175.651L111.911 178.235Z" fill="#242728"/>
<path fill-rule="evenodd" clip-rule="evenodd" d="M72.7467 137.716C71.7541 137.932 70.7575 137.301 70.5333 136.307C70.3306 135.308 70.9532 134.326 71.9458 134.11L103.624 127.214C104.616 126.998 105.612 127.628 105.815 128.627C106.039 129.621 105.418 130.603 104.404 130.824L72.7467 137.716Z" fill="#242728"/>
<path fill-rule="evenodd" clip-rule="evenodd" d="M90.1119 149.392C89.1193 149.608 88.1227 148.978 87.8985 147.983C87.6959 146.984 88.3184 146.002 89.311 145.786L120.989 138.89C121.982 138.674 122.977 139.304 123.18 140.303C123.404 141.297 122.783 142.28 121.769 142.501L90.1119 149.392Z" fill="#242728"/>
<path fill-rule="evenodd" clip-rule="evenodd" d="M108.493 161.686C107.5 161.902 106.504 161.272 106.279 160.278C106.077 159.279 106.699 158.296 107.692 158.08L139.37 151.184C140.363 150.968 141.358 151.598 141.561 152.597C141.785 153.592 141.164 154.574 140.15 154.795L108.493 161.686Z" fill="#242728"/>
<path fill-rule="evenodd" clip-rule="evenodd" d="M120.133 169.519C119.141 169.735 118.144 169.105 117.92 168.111C117.717 167.112 118.34 166.129 119.333 165.913L151.011 159.017C152.003 158.801 152.999 159.431 153.202 160.43C153.426 161.425 152.805 162.407 151.79 162.628L120.133 169.519Z" fill="#242728"/>
<path fill-rule="evenodd" clip-rule="evenodd" d="M127.778 141.195C126.782 141.412 125.801 140.778 125.583 139.782C125.365 138.787 126.001 137.801 126.997 137.584L146.759 133.283C147.755 133.066 148.735 133.699 148.953 134.695C149.171 135.691 148.536 136.676 147.54 136.893L127.778 141.195Z" fill="#242728"/>
<path fill-rule="evenodd" clip-rule="evenodd" d="M157.77 161.323C156.774 161.54 155.793 160.906 155.575 159.91C155.357 158.915 155.993 157.929 156.99 157.712L176.751 153.411C177.747 153.194 178.728 153.827 178.946 154.823C179.163 155.818 178.528 156.804 177.532 157.021L157.77 161.323Z" fill="#242728"/>
<path fill-rule="evenodd" clip-rule="evenodd" d="M88.022 142.376C87.0265 142.592 86.041 141.96 85.8223 140.964C85.6035 139.969 86.2369 138.984 87.2323 138.767L99.1126 136.181C100.108 135.964 101.093 136.597 101.312 137.592C101.523 138.589 100.89 139.574 99.8944 139.791L88.022 142.376Z" fill="#242728"/>
<path fill-rule="evenodd" clip-rule="evenodd" d="M105.971 154.421C104.976 154.638 103.99 154.005 103.771 153.01C103.553 152.014 104.186 151.029 105.182 150.813L117.062 148.226C118.057 148.01 119.043 148.642 119.261 149.638C119.472 150.635 118.839 151.62 117.844 151.837L105.971 154.421Z" fill="#242728"/>
<path fill-rule="evenodd" clip-rule="evenodd" d="M69.7896 130.146C68.7941 130.363 67.8085 129.73 67.5898 128.735C67.3711 127.739 68.0045 126.754 68.9999 126.538L80.8802 123.951C81.8756 123.735 82.8609 124.367 83.0796 125.363C83.2902 126.36 82.6574 127.345 81.662 127.562L69.7896 130.146Z" fill="#242728"/>
</g>
<defs>
<clipPath id="clip0_466_16160">
<rect width="500" height="500" fill="white"/>
</clipPath>
</defs>
</svg>
