<svg width="25" height="26" viewBox="0 0 25 26" fill="none" xmlns="http://www.w3.org/2000/svg">
<path fill-rule="evenodd" clip-rule="evenodd" d="M13.7889 20.1348C13.5925 20.2661 13.3692 20.4182 13.2458 20.4972C12.7402 20.821 12.128 20.9334 11.5405 20.8103C11.3594 20.7724 11.0657 20.7302 10.8184 20.6851C10.9075 20.9312 10.9548 21.1914 10.9576 21.4547L10.9587 21.5767C11.0603 22.0526 11.6879 22.4519 12.4282 22.4905C13.2225 22.5321 13.848 22.1428 13.8236 21.6218L13.7889 20.1348Z" fill="#FF85D0"/>
<path fill-rule="evenodd" clip-rule="evenodd" d="M18.0402 20.4338C18.2763 19.7775 18.2585 19.0269 17.7654 18.7857L17.7124 18.7571C17.2255 18.5979 16.6229 19.0777 16.3642 19.8334C16.1055 20.589 16.288 21.3376 16.7707 21.51C16.7732 21.5107 16.7757 21.5118 16.7782 21.5125C17.3067 21.6592 17.8023 21.0943 18.0402 20.4338Z" fill="#FF85D0"/>
<path fill-rule="evenodd" clip-rule="evenodd" d="M18.1913 17.3184C18.1574 17.3463 18.1212 17.3728 18.0833 17.3967L16.7651 18.2415L17.762 18.7854C18.255 19.0265 18.2729 19.7772 18.0368 20.4334C18.7191 20.1955 19.1395 19.6691 18.9764 19.2552L18.1913 17.3184Z" fill="#FF85D0"/>
<path fill-rule="evenodd" clip-rule="evenodd" d="M22.4776 11.5125C22.474 11.5154 22.4701 11.5183 22.4662 11.5211C22.4335 11.5508 22.3069 12.0593 22.2737 12.0879C21.6106 12.6521 20.8256 12.8296 20.0088 12.7681C20.0012 12.7684 19.9934 12.7688 19.9859 12.7695L19.9823 12.7659C19.3937 12.7176 18.7894 12.5462 18.2029 12.3065L17.444 4.73325C17.3946 4.23984 17.0333 3.83444 16.5491 3.72889L11.8075 2.69341C11.2114 2.56317 10.5881 2.67623 10.0758 3.0072L5.21994 6.14621C4.85928 6.37914 4.65927 6.79455 4.7022 7.22177L4.7684 7.88477L4.40272 7.94202C3.79624 8.03755 3.35686 8.5714 3.37976 9.18467L3.52073 12.9913C3.53934 13.4858 3.84598 13.9234 4.30432 14.1095C4.66177 14.254 5.05929 14.225 5.38632 14.0433C5.53875 15.5743 5.71765 17.5569 5.71765 17.5569C5.76023 18.1222 5.82141 18.5745 5.89977 18.9312C5.96239 19.2171 6.06973 19.4916 6.21822 19.7438C6.49408 20.2129 7.06299 21.1392 7.64836 21.8717V23.7773C7.64836 24.3122 8.3951 24.7462 9.3143 24.7462C10.2335 24.7462 10.9799 24.3122 10.9799 23.7773L10.9563 21.4537C10.9534 21.1904 10.9062 20.9303 10.8171 20.6841C11.0644 20.7292 11.3581 20.7714 11.5392 20.8093C12.1267 20.9324 12.7389 20.8201 13.2445 20.4963C13.3679 20.4172 13.5912 20.2651 13.7876 20.1338C13.803 20.1234 13.8184 20.1134 13.8334 20.1034C14.7515 20.6837 15.7323 21.1467 16.7671 21.5088C16.2844 21.3364 16.1019 20.5879 16.3606 19.8322C16.6193 19.0765 17.2218 18.5967 17.7088 18.7559L16.7649 18.2407L18.0831 17.3959C18.121 17.3719 18.1571 17.3454 18.1911 17.3175C18.4856 17.0764 18.6434 16.7021 18.6047 16.3178C18.5929 16.1983 18.5793 15.9836 18.565 15.8047C20.8975 16.0262 23.1395 15.1199 24.053 13.8254C24.102 13.7563 24.4402 13.4042 24.4695 12.909C24.5174 12.1079 23.994 11.5161 23.4329 11.3308C23.2623 11.2746 22.8927 11.1998 22.4776 11.5125Z" fill="#FF85D0"/>
<path fill-rule="evenodd" clip-rule="evenodd" d="M13.5718 3.07908L16.5512 3.72992C17.0353 3.83547 17.3967 4.24088 17.4461 4.73429L17.6393 6.66213C17.7209 6.61633 17.8958 6.50934 18.0014 6.37838C18.2279 6.09715 18.274 5.61626 18.1939 5.26383L17.9123 4.05481L17.2772 1.26968C17.1763 0.826713 16.826 0.483212 16.3809 0.391257C15.9358 0.299301 15.4778 0.475344 15.2095 0.842092L13.5718 3.07908Z" fill="#FF85D0"/>
<path d="M13.8833 20.1557C13.6682 20.2935 13.4694 20.4211 13.2937 20.5336C12.7882 20.8575 12.1758 20.9701 11.5883 20.8469C11.3705 20.8012 11.1227 20.7494 10.8559 20.6935M4.82007 7.92294L4.75375 7.26003C4.71101 6.83277 4.911 6.4174 5.27164 6.18424C6.39616 5.45726 8.85434 3.868 10.1279 3.04475C10.6402 2.7135 11.2637 2.60031 11.8595 2.7304C13.1321 3.00816 15.3936 3.50181 16.6008 3.76523C17.085 3.87085 17.4463 4.27631 17.4957 4.76965L18.2533 12.3429M18.6032 15.8402L18.6546 16.3542C18.6975 16.7832 18.4958 17.2001 18.1327 17.4327C17.7917 17.6512 17.3288 17.9478 16.8145 18.2775M8.11161 22.3874C7.3968 21.6404 6.60929 20.3614 6.26794 19.7823C6.11976 19.5298 6.01228 19.2556 5.9494 18.9696C5.87184 18.6128 5.8102 18.1608 5.76759 17.5954C5.76759 17.5954 5.5911 15.6301 5.43625 14.0823" stroke="#242728" stroke-width="0.206731" stroke-miterlimit="1.5" stroke-linejoin="round"/>
<path d="M15.5037 5.16406C13.6477 6.35358 13.4951 6.45117 12.0917 7.35055C11.5145 7.72033 10.8152 7.84879 10.1445 7.70838" stroke="#242728" stroke-width="0.206731" stroke-miterlimit="1.5" stroke-linejoin="round"/>
<path d="M17.6423 6.72192C17.6423 6.72192 17.908 6.58943 18.0492 6.41423C18.2758 6.13279 18.3218 5.65176 18.2417 5.29938L17.9603 4.09022C17.7664 3.23921 17.5339 2.2195 17.3257 1.30493C17.2246 0.86179 16.8742 0.518508 16.4294 0.42641C15.9842 0.334432 15.5266 0.510618 15.2579 0.877518C14.6846 1.66084 14.0585 2.51597 13.5981 3.14493" stroke="#242728" stroke-width="0.206731" stroke-miterlimit="1.5" stroke-linejoin="round"/>
<path d="M8.46775 7.34766C8.46775 7.34766 5.94294 7.7448 4.45466 7.97897C3.84818 8.07438 3.40885 8.60815 3.4315 9.22166C3.46786 10.2061 3.5237 11.7065 3.57273 13.0283C3.59087 13.5227 3.89772 13.9603 4.35635 14.1462C4.81467 14.332 5.33962 14.2314 5.69717 13.8894C6.47292 13.1467 7.17562 12.4738 7.17562 12.4738" stroke="#242728" stroke-width="0.206731" stroke-miterlimit="1.5" stroke-linejoin="round"/>
<path d="M3.50438 11.8193C3.42954 11.7719 3.34852 11.7292 3.25999 11.6928C2.83082 11.517 2.37331 11.6442 1.99268 11.616" stroke="#242728" stroke-width="0.206731" stroke-miterlimit="1.5" stroke-linejoin="round"/>
<path fill-rule="evenodd" clip-rule="evenodd" d="M1.02763 11.7482C1.0429 11.8993 1.67241 11.9586 1.82353 11.9434C1.97466 11.9281 2.08495 11.7931 2.06968 11.6421C2.05439 11.4908 1.9193 11.3807 1.76818 11.3959C1.61705 11.4112 1.01233 11.597 1.02763 11.7482Z" fill="#FF85D0" stroke="#242728" stroke-width="0.206731" stroke-miterlimit="1.5" stroke-linejoin="round"/>
<path d="M17.3448 11.9341C17.4716 12.0001 17.7001 12.1083 18.1115 12.2848C19.5615 12.9072 21.1374 13.1355 22.3231 12.1259C22.3564 12.0976 22.4832 11.5888 22.5157 11.5594C22.935 11.2366 23.3099 11.3122 23.4823 11.3691C24.0432 11.5543 24.5667 12.1463 24.5191 12.9477C24.4897 13.4429 24.1514 13.7951 24.1028 13.8641C22.6672 15.8987 17.9507 16.9741 14.7578 14.2181" stroke="#242728" stroke-width="0.206731" stroke-miterlimit="1.5" stroke-linejoin="round"/>
<path d="M20.065 12.8027C19.5561 12.8323 19.2403 13.2395 19.3226 13.7076" stroke="#242728" stroke-width="0.206731" stroke-miterlimit="1.5" stroke-linejoin="round"/>
<path fill-rule="evenodd" clip-rule="evenodd" d="M14.9364 14.9611C15.1531 14.8817 15.396 14.9386 15.5547 15.1059C16.1855 15.7678 16.8961 16.091 17.642 16.2618C17.7371 16.2842 17.8043 16.3692 17.8037 16.4669C17.8034 16.5646 17.7356 16.6496 17.6403 16.6713C16.7363 16.8836 15.8442 16.8061 14.9639 16.4214C14.2903 16.1268 14.3632 15.1725 14.9364 14.9611Z" fill="white" stroke="#242728" stroke-width="0.206731" stroke-miterlimit="1.5" stroke-linejoin="round"/>
<path d="M15.4438 15.0162C15.1178 14.7557 14.9586 14.5091 14.7559 14.2246" stroke="#242728" stroke-width="0.206731" stroke-miterlimit="1.5" stroke-linejoin="round"/>
<path d="M14.7535 16.3218C14.3666 16.1654 14.1437 15.9746 13.8682 15.7598" stroke="#242728" stroke-width="0.206731" stroke-miterlimit="1.5" stroke-linejoin="round"/>
<path d="M10.0316 18.9297C10.0316 18.9297 10.4969 19.9112 10.7834 20.5152C10.9277 20.8201 11.0045 21.1526 11.0078 21.49C11.0162 22.3069 11.0312 23.8141 11.0312 23.8141C11.031 24.3489 10.2847 24.7832 9.36538 24.7835C8.44637 24.7836 7.70007 24.3495 7.7002 23.8147L7.7007 21.9657" stroke="#242728" stroke-width="0.206731" stroke-miterlimit="1.5" stroke-linejoin="round"/>
<path d="M18.2344 17.3398L19.0251 19.2915C19.1893 19.7081 18.7632 20.2378 18.0742 20.4738" stroke="#242728" stroke-width="0.206731" stroke-miterlimit="1.5" stroke-linejoin="round"/>
<path d="M13.8361 20.1953L13.8711 21.657C13.8951 22.1782 13.2699 22.5677 12.4754 22.5264C11.6813 22.4849 11.0168 22.0283 10.9927 21.5071" stroke="#242728" stroke-width="0.206731" stroke-miterlimit="1.5" stroke-linejoin="round"/>
<path d="M17.7657 18.7949C17.2773 18.6278 16.6695 19.1089 16.4095 19.8686C16.1496 20.6282 16.3352 21.3808 16.8236 21.548" stroke="#242728" stroke-width="0.206731" stroke-miterlimit="1.5" stroke-linejoin="round"/>
<path d="M15.677 17.6562L17.8108 18.8211C18.7996 19.3047 17.8765 21.8407 16.8235 21.5484C15.3002 21.0163 13.8934 20.2661 12.6323 19.2432" stroke="#242728" stroke-width="0.206731" stroke-miterlimit="1.5" stroke-linejoin="round"/>
</svg>
