<svg width="288" height="272" viewBox="0 0 288 272" fill="none" xmlns="http://www.w3.org/2000/svg">
<path fill-rule="evenodd" clip-rule="evenodd" d="M49.3405 129.728L34.1476 84.4635C32.9903 81.0153 33.276 77.2491 34.9405 74.013C36.6051 70.7814 39.5055 68.3566 42.9821 67.2917L49.3405 65.351V58.0029C49.3405 52.1576 53.1907 46.9809 58.8851 45.1692L123.341 24.6783C130.349 22.4517 137.975 23.0464 144.527 26.3287L215.807 62.0136C220.422 64.3231 223.323 68.9606 223.323 74.0222V92.2865L227.758 87.7273C232.194 83.1727 239.419 82.8917 244.196 87.0867L244.579 87.4184C249.535 91.7747 250.245 99.2336 246.192 104.443L233.951 120.176C234.283 122.287 234.218 124.486 233.693 126.681L223.323 169.93V185.147C223.323 187.766 223.36 194.086 223.36 194.086L227.961 207.219C228.805 209.626 229.238 212.156 229.238 214.706V232.624C229.238 239.046 220.054 244.259 208.738 244.259C197.428 244.259 188.243 239.046 188.243 232.624L188.303 224.382L159.854 233.168V253.41C159.854 259.832 150.669 265.045 139.354 265.045C128.043 265.045 118.858 259.832 118.858 253.41L119.034 236.529L113.381 227.733L96.6249 219.431L79.2418 240.539C77.3975 243.835 72.9667 244.287 67.4751 241.148C59.715 236.704 52.7615 226.751 51.9638 218.933C51.6734 216.07 52.2405 213.89 53.4624 212.493L61.8407 202.19L56.907 199.742C52.2639 197.442 49.3405 192.79 49.3405 187.71V129.728Z" fill="#E9FC87"/>
<path d="M113.341 227.737L118.996 236.532L118.818 253.411C118.818 259.834 128.002 265.048 139.317 265.048C150.628 265.047 159.814 259.832 159.814 253.409L159.813 231.638L153.656 218.288" stroke="#242728" stroke-width="4" stroke-miterlimit="1.5" stroke-linejoin="round"/>
<path d="M223.282 106.956C223.283 86.8225 223.286 85.0583 223.285 74.0146C223.286 68.9534 220.386 64.3182 215.769 62.007C199.826 54.0254 162.595 35.3866 144.494 26.325C137.938 23.0434 130.314 22.451 123.306 24.6778C106.533 30.0115 74.7438 40.1198 58.8498 45.1724C53.1598 46.983 49.3064 52.162 49.3062 58.005C49.3059 85.3726 49.3014 162.282 49.3013 187.717C49.2983 192.797 52.2241 197.448 56.862 199.747C72.8158 207.655 109.902 226.038 127.846 234.933M188.283 224.605L188.198 232.626C188.194 239.047 197.382 244.263 208.693 244.262C220.008 244.262 229.189 239.046 229.189 232.623C229.189 232.623 229.193 220.957 229.194 214.705C229.191 212.155 228.761 209.623 227.918 207.218C226.19 202.287 223.314 194.084 223.314 194.084C223.314 194.084 223.281 187.766 223.282 185.146C223.279 183.761 223.278 180.289 223.282 169.929" stroke="#242728" stroke-width="4" stroke-miterlimit="1.5" stroke-linejoin="round"/>
<path d="M167.324 87.0831C167.324 87.0831 202.077 99.4175 222.563 106.689C230.911 109.652 235.671 118.239 233.649 126.681C230.405 140.227 225.454 160.871 221.095 179.059C219.468 185.861 213.898 191.097 206.87 192.432C199.846 193.768 192.67 190.954 188.541 185.246C179.582 172.854 171.468 161.626 171.468 161.626" stroke="#242728" stroke-width="4" stroke-miterlimit="1.5" stroke-linejoin="round"/>
<path d="M49.3039 65.3438C49.3039 65.3438 46.465 66.2124 42.9476 67.2878C39.4692 68.3505 36.5696 70.7756 34.906 74.0102C33.2381 77.2406 32.953 81.0107 34.111 84.4562C39.8883 101.675 49.3039 129.719 49.3039 129.719" stroke="#242728" stroke-width="4" stroke-miterlimit="1.5" stroke-linecap="round" stroke-linejoin="round"/>
<path d="M87.7065 168.299C82.2981 174.26 64.8403 173.319 64.7982 157.117C64.7368 134.693 38.4418 133.355 32.0273 154.128" stroke="#242728" stroke-width="4" stroke-miterlimit="1.5" stroke-linecap="round" stroke-linejoin="round"/>
<path fill-rule="evenodd" clip-rule="evenodd" d="M26.8332 166.265C28.9563 167.14 34.3371 159.378 35.2345 157.304C36.1319 155.23 35.1338 152.835 33.0107 151.96C30.8876 151.085 28.4324 152.057 27.535 154.131C26.6376 156.204 24.7101 165.389 26.8332 166.265Z" fill="#E9FC87" stroke="#242728" stroke-width="4" stroke-miterlimit="1.5" stroke-linejoin="round"/>
<path d="M160.498 232.958C170.423 229.892 180.334 226.829 192.658 223.023" stroke="#242728" stroke-width="4" stroke-miterlimit="1.5" stroke-linecap="round" stroke-linejoin="round"/>
<path d="M76.4727 61.6758C102.924 74.7895 105.098 75.865 125.098 85.7798C133.325 89.8561 142.862 90.6182 151.657 87.9032C162.269 84.6241 170.896 82.22 184.52 78.0109" stroke="#242728" stroke-width="4" stroke-miterlimit="1.5" stroke-linejoin="round"/>
<path d="M61.8061 202.187L53.4277 212.494M79.2113 240.538L96.7461 219.246" stroke="#242728" stroke-width="4" stroke-miterlimit="1.5" stroke-linecap="round" stroke-linejoin="round"/>
<path d="M67.4329 241.158C75.2001 245.602 80.8479 242.863 80.0475 235.038C79.2472 227.213 72.3017 217.267 64.5345 212.822C56.7673 208.377 51.1195 211.117 51.9199 218.942C52.7203 226.766 59.6657 236.713 67.4329 241.158Z" stroke="#242728" stroke-width="4" stroke-miterlimit="1.5" stroke-linecap="round" stroke-linejoin="round"/>
<path d="M233.906 120.174C233.906 120.174 240.61 111.561 246.146 104.439C250.196 99.2332 249.487 91.7733 244.53 87.4193C244.405 87.3071 244.277 87.1972 244.152 87.085C239.373 82.8909 232.143 83.1732 227.712 87.7264C225.3 90.2053 223.277 92.2818 223.277 92.2818" stroke="#242728" stroke-width="4" stroke-miterlimit="1.5" stroke-linecap="round" stroke-linejoin="round"/>
</svg>
