<svg width="285" height="203" viewBox="0 0 285 203" fill="none" xmlns="http://www.w3.org/2000/svg">
<g clip-path="url(#clip0_5426_3940)">
<rect width="285" height="203" rx="5.93567" fill="#1C1C1C"/>
<path d="M30.223 224.004C-36.7434 185.343 -36.7434 122.657 30.223 83.996C97.1893 45.3347 205.763 45.3347 272.723 83.996C339.689 122.657 339.689 185.343 272.723 224.004C205.756 262.665 97.182 262.665 30.223 224.004Z" fill="#455A64" fill-opacity="0.14"/>
<g opacity="0.63">
<g opacity="0.3">
<path d="M287.125 206.643L298.976 206.643L303.52 209.269C303.687 209.086 303.848 208.897 304.016 208.715L299.173 205.921L287.321 205.921L266.667 193.997L266.302 194.631L287.037 206.607L287.125 206.658L287.125 206.643Z" fill="url(#paint0_linear_5426_3940)"/>
<path d="M279.91 167.42L178.505 108.877L178.418 108.826L160.447 108.826L120.531 131.873L120.896 132.507L160.644 109.555L178.221 109.555L279.181 167.843L279.181 177.689L264.879 186.331L265.258 186.958L279.91 178.104L279.91 167.42Z" fill="url(#paint1_linear_5426_3940)"/>
<path d="M94.1377 117.17L132.799 94.8454C133.609 95.1225 134.673 95.0642 135.366 94.6631C136.19 94.189 136.19 93.4159 135.366 92.9419C134.542 92.4678 133.207 92.4678 132.383 92.9419C131.683 93.343 131.581 93.9556 132.07 94.4297L93.773 116.543L94.1377 117.177L94.1377 117.17Z" fill="url(#paint2_linear_5426_3940)"/>
<path d="M67.2401 185.318C68.0643 184.843 68.0643 184.07 67.2401 183.596C66.416 183.122 65.0814 183.122 64.2572 183.596C63.4331 184.07 63.4331 184.843 64.2572 185.318C64.5781 185.5 64.972 185.609 65.3877 185.653L65.3877 191.509L89.0906 205.192L89.0906 215.453L124.113 235.67L124.2 235.721L136.146 235.721L136.146 234.992L124.397 234.992L89.8272 215.03L89.8272 167.136L79.2594 161.031L78.8947 161.666L82.8112 163.926L80.2148 165.429L80.2148 174.706C79.7991 174.75 79.4053 174.859 79.0844 175.041C78.2602 175.515 78.2602 176.288 79.0844 176.763C79.9085 177.237 81.2431 177.237 82.0673 176.763C82.8914 176.288 82.8914 175.515 82.0673 175.041C81.7464 174.859 81.3525 174.742 80.9368 174.706L80.9368 165.852L83.5332 164.349L89.0979 167.559L89.0979 195.616L73.6144 186.674L73.6144 181.241C74.0302 181.197 74.424 181.087 74.7449 180.905C75.569 180.431 75.569 179.658 74.7449 179.184C73.9207 178.71 72.5861 178.71 71.762 179.184C70.9378 179.658 70.9378 180.431 71.762 180.905C72.0829 181.087 72.4767 181.197 72.8924 181.241L72.8924 187.097L89.1052 196.454L89.1052 204.338L66.1316 191.072L66.1316 185.638C66.5473 185.595 66.9411 185.485 67.262 185.303L67.2401 185.318Z" fill="url(#paint3_linear_5426_3940)"/>
<path d="M102.498 147.931L116.012 155.735L139.715 155.735L162.616 168.965L162.98 168.33L139.912 155.006L116.209 155.006L102.862 147.304L102.498 147.931Z" fill="url(#paint4_linear_5426_3940)"/>
<path d="M114.307 141.068L121.943 145.473L228.737 145.473L266.137 167.127L266.137 176.98L257.421 182.005L257.786 182.64L266.852 177.403L266.852 166.704L228.934 144.737L217.017 144.737L190.36 129.385L190.273 129.334L172.485 129.334L159.386 121.77C159.867 121.304 159.773 120.691 159.072 120.283C158.248 119.809 156.914 119.809 156.089 120.283C155.265 120.757 155.265 121.53 156.089 122.004C156.79 122.405 157.847 122.463 158.664 122.186L172.295 130.056L190.083 130.056L215.551 144.722L193.227 144.722L178.414 136.167L160.64 136.167L153.464 132.025C153.945 131.558 153.843 130.945 153.15 130.537C152.326 130.063 150.991 130.063 150.167 130.537C149.343 131.011 149.343 131.784 150.167 132.258C150.868 132.659 151.932 132.718 152.742 132.44L160.451 136.889L178.224 136.889L191.775 144.715L122.132 144.715L114.671 140.405L114.307 141.039L114.307 141.068Z" fill="url(#paint5_linear_5426_3940)"/>
<path d="M124.903 140.348L144.719 140.348C144.821 140.531 144.981 140.706 145.229 140.844C146.053 141.318 147.388 141.318 148.212 140.844C149.036 140.37 149.036 139.597 148.212 139.123C147.388 138.649 146.053 138.649 145.229 139.123C144.981 139.269 144.813 139.437 144.719 139.619L125.1 139.619L120.578 137.008L120.213 137.642L124.903 140.348Z" fill="url(#paint6_linear_5426_3940)"/>
<path d="M108.397 144.506L118.972 150.61L219.699 150.61L251.308 168.858L251.308 175.283L248.529 176.888L248.894 177.515L252.037 175.699L252.037 168.435L219.983 149.932L219.896 149.881L119.169 149.881L108.762 143.872L108.397 144.506Z" fill="url(#paint7_linear_5426_3940)"/>
<path d="M-18.4183 177.893C-18.3599 178.134 -18.287 178.375 -18.2214 178.623L12.5196 160.871L30.2931 160.871L49.6348 149.705L49.2701 149.071L30.0962 160.142L12.3227 160.142L-18.4183 177.893Z" fill="url(#paint8_linear_5426_3940)"/>
<path d="M322.73 162.197C322.73 161.913 322.73 161.628 322.716 161.344L296.482 146.196L296.482 132.514L199.249 76.3779L199.161 76.3268L181.191 76.3268L151.478 93.4805L151.296 93.5826L151.296 103.844L111.614 126.752L111.978 127.387L151.843 104.369L152.025 104.267L152.025 94.0056L160.551 89.0827L233.534 131.223L289.823 163.722L289.823 180.401L272.232 190.561L272.597 191.195L290.37 180.934L290.553 180.831L290.553 163.306L278.701 156.465L278.701 147.042L307.597 163.729L307.597 180.831L318.012 186.841C318.056 186.746 318.092 186.644 318.128 186.549C318.179 186.418 318.231 186.287 318.282 186.155L308.326 180.408L308.326 163.306L278.701 146.203L278.701 129.101L247.559 111.123C248.041 110.656 247.939 110.043 247.246 109.635C246.422 109.161 245.087 109.161 244.263 109.635C243.439 110.109 243.439 110.882 244.263 111.356C244.963 111.757 246.02 111.816 246.837 111.539L277.979 129.516L277.979 156.042L257.938 144.467C257.974 143.986 257.981 143.104 257.989 141.506L258.098 124.039L179.054 78.4054L181.388 77.0562L198.972 77.0562L295.746 132.937L295.746 146.619L322.73 162.197ZM233.534 130.384L161.273 88.667L169.434 83.9555L233.534 120.961L233.534 130.384ZM257.361 124.462C257.347 126.395 257.259 140.894 257.237 144.074L234.264 130.807L234.264 120.546L170.164 83.5398L178.325 78.8284L257.361 124.462Z" fill="url(#paint9_linear_5426_3940)"/>
<path d="M250.207 94.2385C249.383 93.7645 248.049 93.7645 247.224 94.2385C246.4 94.7126 246.4 95.4857 247.224 95.9597C247.925 96.3608 248.982 96.4192 249.799 96.1421L304.644 127.809L304.644 141.491L321.396 151.162C321.324 150.841 321.251 150.513 321.178 150.192L305.381 141.068L305.381 127.386L250.536 95.7191C251.017 95.2523 250.915 94.6397 250.222 94.2312L250.207 94.2385Z" fill="url(#paint10_linear_5426_3940)"/>
<path d="M299.8 213.184C299.8 213.184 299.829 213.155 299.844 213.14L296.212 211.047L284.36 211.047L260.745 197.416L260.38 198.051L284.083 211.733L284.171 211.784L296.022 211.784L299.319 213.687C299.486 213.527 299.64 213.359 299.807 213.199L299.8 213.184Z" fill="url(#paint11_linear_5426_3940)"/>
<path d="M71.3042 82.0379L71.3042 95.72L85.7521 104.063L78.9038 108.016L79.2684 108.651L110.359 90.7023L110.542 90.6002L110.542 73.4976L123.582 65.971C122.999 66.0293 122.415 66.0804 121.832 66.1387L109.995 72.9724L109.812 73.0745L109.812 90.1772L98.3256 96.8067L86.8388 90.1771L86.8388 79.9156L83.0463 77.713C83.5277 77.2463 83.4256 76.6336 82.7327 76.2325C81.9086 75.7585 80.5739 75.7585 79.7498 76.2325C78.9256 76.7066 78.9256 77.4797 79.7498 77.9537C80.4499 78.3548 81.5147 78.4132 82.3243 78.136L86.1168 80.3386L86.1168 90.6002L97.6036 97.2297L86.4814 103.648L72.0336 95.3043L72.0336 81.6222L65.5791 77.8954C65.2727 77.9975 64.9591 78.0996 64.6528 78.2017L71.3042 82.0379Z" fill="url(#paint12_linear_5426_3940)"/>
<path d="M12.5193 167.712L30.2929 167.712L55.5566 153.126L55.192 152.491L30.096 166.983L12.3224 166.983L-16.6462 183.706C-16.566 183.939 -16.4858 184.173 -16.3983 184.406L12.5193 167.712Z" fill="url(#paint13_linear_5426_3940)"/>
<path d="M19.8995 154.415C20.0964 154.298 20.2423 154.167 20.3444 154.028L30.285 154.028L43.6973 146.283L43.3326 145.648L30.0881 153.299L20.4611 153.299C20.3809 153.073 20.1912 152.861 19.8922 152.686C19.0681 152.212 17.7334 152.212 16.9093 152.686C16.0852 153.16 16.0852 153.934 16.9093 154.408C17.7334 154.882 19.0681 154.882 19.8922 154.408L19.8995 154.415Z" fill="url(#paint14_linear_5426_3940)"/>
<path d="M96.5862 151.366L110.086 159.162L133.782 159.162L156.821 172.458L157.186 171.83L133.979 158.433L110.276 158.433L96.9509 150.738L96.5862 151.366Z" fill="url(#paint15_linear_5426_3940)"/>
<path d="M83.1763 245.406L83.1763 232.563L112.254 249.352L112.342 249.403L148.086 249.403L157.057 244.225L156.692 243.59L147.889 248.673L112.532 248.673L83.1763 231.724L83.1763 224.883L39.4535 199.641L39.4535 192.8L22.9708 183.29C23.6126 182.808 23.5616 182.123 22.8031 181.685C21.9789 181.211 20.6443 181.211 19.8201 181.685C18.996 182.159 18.996 182.932 19.8201 183.406C20.4546 183.771 21.3882 183.851 22.154 183.662L38.7169 193.223L38.7169 200.064L82.4397 225.306L82.4397 244.99L68.3054 236.829L68.3565 236.829L68.3565 226.597L-2.03034 185.959L-2.03034 182.961L12.5123 174.567L30.2859 174.567L61.479 156.56L61.1143 155.926L30.0963 173.838L12.3227 173.838L-2.57733 182.436L-2.75967 182.538L-2.75967 196.644L105.362 259.059C106.026 259.168 106.697 259.27 107.361 259.373L83.169 245.406L83.1763 245.406ZM67.6345 236.435L-2.02307 196.221L-2.02307 186.798L67.6345 227.02L67.6345 236.443L67.6345 236.435Z" fill="url(#paint16_linear_5426_3940)"/>
<path d="M112.254 198.001L112.619 197.367L95.7353 187.667L95.7353 178.813C96.1511 178.769 96.5449 178.66 96.8658 178.477C97.6899 178.003 97.6899 177.23 96.8658 176.756C96.0417 176.282 94.707 176.282 93.8829 176.756C93.0587 177.23 93.0587 178.003 93.8829 178.477C94.2038 178.66 94.5976 178.769 95.0133 178.813L95.0133 188.09L112.262 198.001L112.254 198.001Z" fill="url(#paint17_linear_5426_3940)"/>
<path d="M9.27444 114.639L9.36195 114.69L21.2134 114.69L40.3873 125.761L40.752 125.127L21.4979 114.012L21.4103 113.961L9.55886 113.961L5.42362 111.576C5.23399 111.751 5.05895 111.926 4.86932 112.101L9.27444 114.646L9.27444 114.639Z" fill="url(#paint18_linear_5426_3940)"/>
<path d="M12.3451 106.149L25.2468 104.662C25.3489 104.837 25.5093 104.997 25.7427 105.136C26.5669 105.61 27.9015 105.61 28.7256 105.136C29.5498 104.662 29.5498 103.889 28.7257 103.415C27.9015 102.94 26.5669 102.94 25.7427 103.415C25.4802 103.568 25.3124 103.743 25.2176 103.94L12.6514 105.391C12.418 105.573 12.1992 105.756 11.9658 105.945L12.3451 106.164L12.3451 106.149Z" fill="url(#paint19_linear_5426_3940)"/>
<path d="M41.6776 95.7197L41.6776 109.402L55.192 117.206L55.5566 116.571L42.407 108.979L42.407 95.2967L34.8949 90.9646C34.6397 91.1031 34.3917 91.2344 34.1365 91.373L41.6703 95.727L41.6776 95.7197Z" fill="url(#paint20_linear_5426_3940)"/>
<path d="M47.6073 92.2988L47.6073 105.981L61.1217 113.785L61.4863 113.15L48.3367 105.558L48.3367 91.8758L41.1966 87.7552C40.934 87.8864 40.6642 88.0104 40.4016 88.1417L47.6073 92.2988Z" fill="url(#paint21_linear_5426_3940)"/>
<path d="M35.7554 99.1416L35.7554 112.824L49.1822 120.576L49.5469 119.942L36.4847 112.401L36.4847 98.7186L28.8852 94.3354C28.6445 94.474 28.4038 94.6198 28.1632 94.7584L35.7481 99.1416L35.7554 99.1416Z" fill="url(#paint22_linear_5426_3940)"/>
<path d="M3.43224 118.109L15.2837 118.109L34.4576 129.18L34.8223 128.546L15.5681 117.431L15.4806 117.38L3.62915 117.38L1.04737 115.892C0.872329 116.075 0.704576 116.257 0.536832 116.439L3.43224 118.109Z" fill="url(#paint23_linear_5426_3940)"/>
<path d="M3.63101 145.475L27.334 145.475L34.6855 141.063L34.3136 140.435L27.1371 144.738L3.4414 144.738L-19.9188 158.224C-19.948 158.523 -19.9771 158.814 -19.999 159.113L3.63831 145.468L3.63101 145.475Z" fill="url(#paint24_linear_5426_3940)"/>
<path d="M-2.48961 121.53L9.36187 121.53L28.5357 132.601L28.9004 131.967L9.64629 120.852L9.55878 120.801L-2.29271 120.801L-2.99285 120.4C-3.1533 120.589 -3.30645 120.779 -3.4669 120.969L-2.48961 121.53Z" fill="url(#paint25_linear_5426_3940)"/>
<path d="M-5.2588 140.348L24.3736 140.348L28.7422 137.635L28.3556 137.015L24.162 139.619L-5.4557 139.619L-17.6573 146.664C-17.7594 146.999 -17.8542 147.335 -17.949 147.678L-5.26607 140.355L-5.2588 140.348Z" fill="url(#paint26_linear_5426_3940)"/>
<path d="M-5.45064 130.086L4.49 130.086C4.59211 130.268 4.75257 130.436 5.00054 130.582C5.82467 131.056 7.15933 131.056 7.98346 130.582C8.8076 130.108 8.8076 129.335 7.98346 128.861C7.15933 128.387 5.82467 128.387 5.00054 128.861C4.75257 129.007 4.58482 129.174 4.49 129.357L-5.26103 129.357L-8.4044 127.541C-8.54298 127.745 -8.68154 127.942 -8.81282 128.146L-5.45064 130.086Z" fill="url(#paint27_linear_5426_3940)"/>
<path d="M84.7829 158.237L95.008 164.137L95.008 170.978L127.069 189.489L127.434 188.854L95.7373 170.555L95.7373 163.714L85.1475 157.603L84.7829 158.237Z" fill="url(#paint28_linear_5426_3940)"/>
<path d="M118.114 165.275C118.012 165.093 117.851 164.925 117.604 164.779C116.779 164.305 115.445 164.305 114.621 164.779C113.796 165.253 113.796 166.026 114.621 166.5C115.445 166.975 116.779 166.975 117.604 166.5C117.851 166.355 118.019 166.187 118.114 166.005L127.858 166.005L147.797 177.521L148.162 176.886L128.047 165.275L118.107 165.275L118.114 165.275Z" fill="url(#paint29_linear_5426_3940)"/>
<path d="M59.4586 88.8801L59.4586 105.983L67.0435 110.366L67.4082 109.731L60.1879 105.56L60.1879 88.4571L51.1954 83.2644C50.9109 83.3811 50.6265 83.4977 50.3421 83.6144L59.4586 88.8801Z" fill="url(#paint30_linear_5426_3940)"/>
<path d="M90.6901 154.801L100.93 160.715L100.93 167.556L132.991 186.067L133.355 185.432L101.659 167.133L101.659 160.292L91.0548 154.166L90.6901 154.801Z" fill="url(#paint31_linear_5426_3940)"/>
<path d="M51.9911 166.247L51.9911 200.875L121.138 240.805L121.226 240.849L145.023 240.849L145.023 240.12L121.423 240.12L52.7204 200.459L52.7204 166.67L67.2777 158.246L66.9131 157.612L51.9911 166.247Z" fill="url(#paint32_linear_5426_3940)"/>
<path d="M115.923 76.3767L115.741 76.4788L115.741 93.5814L84.956 111.472L85.3206 112.106L116.47 94.0044L116.47 76.9018L137.088 64.9993C136.555 65.0212 136.023 65.0503 135.498 65.0795L115.93 76.3767L115.923 76.3767Z" fill="url(#paint33_linear_5426_3940)"/>
<path d="M139.63 86.6411L139.448 86.7432L139.448 97.0047L99.7287 119.942L100.093 120.576L139.995 97.5371L140.177 97.435L140.177 87.1735L177.197 65.7971C176.774 65.7606 176.359 65.7168 175.936 65.6804L139.63 86.6411Z" fill="url(#paint34_linear_5426_3940)"/>
<path d="M145.555 90.0602L145.372 90.1623L145.372 100.424L105.894 123.47L106.259 124.098L145.919 100.942L146.102 100.84L146.102 90.578L187.221 66.8386C186.82 66.7875 186.418 66.7438 186.01 66.6927L145.555 90.0529L145.555 90.0602Z" fill="url(#paint35_linear_5426_3940)"/>
</g>
<path d="M68.0498 181.162C68.0498 180.491 67.1017 179.944 65.9347 179.944C64.7678 179.944 63.8197 180.491 63.8197 181.162C63.8197 181.767 64.5782 182.263 65.5701 182.358L65.5701 188.112L86.487 200.285C86.6621 200.387 86.8881 200.328 86.983 200.153C87.0851 199.978 87.0267 199.76 86.8517 199.658L66.2921 187.697L66.2921 182.358C67.284 182.256 68.0425 181.76 68.0425 181.162L68.0498 181.162Z" fill="url(#paint36_linear_5426_3940)"/>
<path d="M63.1643 157.284C63.3393 157.181 63.3904 156.955 63.2883 156.78C63.2227 156.664 63.0987 156.605 62.9747 156.605C62.909 156.605 62.8434 156.62 62.7851 156.656L52.2901 162.994L52.2901 197.579L121.328 237.502L121.415 237.553L145.454 237.553C145.658 237.553 145.818 237.392 145.818 237.188C145.818 236.984 145.658 236.823 145.454 236.823L121.605 236.823L53.0194 197.156L53.0194 163.403L63.157 157.276L63.1643 157.284Z" fill="url(#paint37_linear_5426_3940)"/>
<path d="M113.515 136.375C113.457 136.346 113.399 136.324 113.333 136.324C113.209 136.324 113.085 136.39 113.019 136.507C112.917 136.682 112.983 136.901 113.158 137.003L122.129 142.108L228.777 142.181L266.316 163.849L266.316 173.695L257.637 178.749C257.462 178.851 257.403 179.07 257.505 179.245C257.607 179.42 257.834 179.478 258.001 179.376L267.045 174.111L267.045 163.426L229.062 141.495L228.974 141.444L217.108 141.444L190.546 126.099L190.459 126.048L172.685 126.048L159.587 118.485C159.776 118.303 159.893 118.091 159.893 117.865C159.893 117.194 158.945 116.647 157.778 116.647C156.611 116.647 155.663 117.194 155.663 117.865C155.663 118.536 156.611 119.083 157.778 119.083C158.172 119.083 158.544 119.018 158.857 118.908L172.488 126.778L190.262 126.778L215.642 141.43L122.318 141.364L113.515 136.354L113.515 136.375Z" fill="url(#paint38_linear_5426_3940)"/>
<path d="M178.609 105.54L160.639 105.54L120.723 128.586C120.548 128.689 120.489 128.907 120.591 129.082C120.694 129.257 120.912 129.316 121.087 129.214L160.835 106.269L178.412 106.269L279.343 164.542L279.343 174.388L265.201 183.045C265.026 183.147 264.975 183.373 265.077 183.548C265.18 183.716 265.406 183.774 265.581 183.672L280.072 174.804L280.072 164.126L178.697 105.598L178.609 105.547L178.609 105.54Z" fill="url(#paint39_linear_5426_3940)"/>
<path d="M175.907 62.4398L139.824 83.3533L139.641 83.4554L139.641 93.717L99.3754 116.968C99.2004 117.07 99.142 117.289 99.2441 117.464C99.3462 117.639 99.565 117.697 99.7401 117.595L140.188 94.2421L140.371 94.14L140.371 83.8785L177.096 62.593C176.702 62.5419 176.308 62.4836 175.914 62.4325L175.907 62.4398Z" fill="url(#paint40_linear_5426_3940)"/>
<path d="M-18.2284 174.607C-18.1627 174.818 -18.1044 175.117 -18.0315 175.336L12.7095 157.584L30.483 157.584L48.4025 147.243C48.5775 147.141 48.6358 146.922 48.5337 146.747C48.4681 146.63 48.3441 146.564 48.2201 146.564C48.1618 146.564 48.0962 146.579 48.0378 146.615L30.2934 156.862L12.5198 156.862L-18.2211 174.614L-18.2284 174.607Z" fill="url(#paint41_linear_5426_3940)"/>
<path d="M104.635 144.88C104.511 144.88 104.387 144.946 104.322 145.063C104.219 145.238 104.278 145.457 104.453 145.559L116.122 152.4L116.21 152.451L140.095 152.538L162.813 165.673C162.988 165.775 163.207 165.717 163.309 165.542C163.411 165.367 163.353 165.148 163.178 165.046L140.284 151.809L116.399 151.721L104.818 144.931C104.759 144.895 104.694 144.88 104.635 144.88Z" fill="url(#paint42_linear_5426_3940)"/>
<path d="M101.847 157.008L92.7599 151.757C92.7016 151.721 92.636 151.706 92.5776 151.706C92.4536 151.706 92.3296 151.772 92.264 151.888C92.1619 152.063 92.2202 152.282 92.3953 152.384L101.125 157.424L101.14 164.272L133.186 182.775C133.361 182.877 133.587 182.819 133.682 182.644C133.784 182.469 133.726 182.25 133.551 182.148L101.869 163.857L101.855 157.008L101.847 157.008Z" fill="url(#paint43_linear_5426_3940)"/>
</g>
<g clip-path="url(#clip1_5426_3940)">
<path d="M230.683 120.105C230.716 121.73 53.5603 127.651 51.4316 127.542L52.0539 137.934L52.0757 137.433C52.0757 137.433 52.0757 137.258 52.0757 137.247C52.0429 138.327 52.5232 139.308 53.593 139.93L130.933 184.366C134.164 186.219 138.126 186.198 141.357 184.355L228.925 134.303C230.552 133.376 231.327 131.708 231.283 130.083L231.327 130.05L230.672 120.116L230.683 120.105Z" fill="#5185AF"/>
<path d="M228.522 116.431L150.091 73.7942C147.198 72.1476 143.639 72.1912 140.779 73.9141L53.0039 124.784C50.9735 126.005 51.0062 128.949 53.0584 130.127L130.453 174.65C133.684 176.503 137.657 176.514 140.888 174.661L228.522 124.587C231.688 122.777 231.688 118.219 228.522 116.409V116.431ZM214.178 124.555L140.954 166.395C138.247 167.943 134.928 167.933 132.232 166.384L69.3014 130.181L67.5549 129.178C65.841 128.197 65.8192 125.732 67.5112 124.718L140.856 82.1906C143.235 80.7512 146.215 80.7185 148.639 82.0925L214.178 117.717C216.831 119.222 216.831 123.039 214.178 124.544V124.555Z" fill="#7CCFE1"/>
<path d="M148.4 88.7443C145.977 87.3703 143.007 87.4031 140.617 88.8424L69.3027 130.181L132.233 166.384C134.93 167.933 138.248 167.944 140.955 166.395L214.18 124.555C214.092 124.5 214.027 124.424 213.939 124.369L148.4 88.7443Z" fill="#432F94"/>
<path d="M214.18 117.728L148.64 82.1034C146.217 80.7295 143.248 80.7622 140.857 82.2016L67.5015 124.707C65.8096 125.721 65.8314 128.186 67.5452 129.167L69.2918 130.17L140.617 88.8424C142.996 87.403 145.977 87.3703 148.4 88.7443L213.939 124.369C214.027 124.424 214.092 124.5 214.18 124.555C216.821 123.039 216.821 119.222 214.18 117.717V117.728Z" fill="url(#paint44_linear_5426_3940)"/>
<path opacity="0.33" d="M204.768 116.758L145.374 84.47C143.18 83.2269 140.484 83.2596 138.322 84.5572L71.8549 123.094C71.0689 123.573 70.6978 124.391 70.7305 125.198C70.7633 125.962 71.1453 126.703 71.8985 127.139L74.3655 128.557L130.517 160.856C132.962 162.263 135.975 162.263 138.42 160.867L204.124 123.323L204.779 122.952C206.001 122.254 206.591 121.011 206.569 119.79C206.547 118.612 205.958 117.434 204.779 116.769L204.768 116.758Z" fill="#FFC6D9"/>
<path opacity="0.54" d="M204.768 106.159L145.374 73.8706C143.18 72.6275 140.484 72.6602 138.322 73.9579L71.8549 112.494C71.0689 112.974 70.6978 113.792 70.7305 114.599C70.7633 115.362 71.1453 116.104 71.8985 116.54L74.3655 117.957L130.517 150.257C132.962 151.663 135.975 151.663 138.42 150.267L204.124 112.723L204.779 112.353C206.001 111.655 206.591 110.412 206.569 109.19C206.547 108.013 205.958 106.835 204.779 106.17L204.768 106.159Z" fill="url(#paint45_linear_5426_3940)"/>
<path d="M206.581 95.0474H206.559C206.581 96.2796 72.3358 100.641 70.7202 100.565L70.6875 102.037L70.7202 107.904L70.7421 107.522C70.7421 107.522 70.7421 107.391 70.7421 107.38C70.7093 108.198 71.0805 108.94 71.8883 109.409L130.507 143.093C132.952 144.499 135.965 144.488 138.41 143.093L204.779 105.167C206.013 104.458 206.602 103.204 206.559 101.961L206.591 101.939V95.0692L206.581 95.0474Z" fill="url(#paint46_linear_5426_3940)"/>
<path d="M204.768 92.0266L145.374 59.7493C143.18 58.5062 140.484 58.5389 138.322 59.8365L71.8549 98.3621C71.0689 98.8419 70.6978 99.6597 70.7305 100.467C70.7633 101.23 71.1453 101.971 71.8985 102.408L74.3655 103.825L130.517 136.124C132.962 137.531 135.975 137.531 138.42 136.135L204.124 98.591L204.779 98.2203C206.001 97.5224 206.591 96.2793 206.569 95.058C206.547 93.8803 205.958 92.7026 204.779 92.0375L204.768 92.0266Z" fill="url(#paint47_linear_5426_3940)"/>
<mask id="mask0_5426_3940" style="mask-type:luminance" maskUnits="userSpaceOnUse" x="70" y="58" width="137" height="80">
<path d="M204.772 92.0268L145.378 59.7495C143.184 58.5064 140.488 58.5391 138.326 59.8368L71.8588 98.3623C71.0728 98.8421 70.7017 99.6599 70.7344 100.467C70.7672 101.23 71.1492 101.972 71.9024 102.408L74.3694 103.825L130.521 136.125C132.966 137.531 135.979 137.531 138.424 136.135L204.128 98.5913L204.783 98.2205C206.005 97.5226 206.595 96.2795 206.573 95.0582C206.551 93.8806 205.962 92.7029 204.783 92.0377L204.772 92.0268Z" fill="white"/>
</mask>
<g mask="url(#mask0_5426_3940)">
<path d="M92.4102 118.535L103.075 112.047C103.937 111.524 105.007 111.513 105.88 112.014L136.685 129.647" stroke="url(#paint48_linear_5426_3940)" stroke-width="0.0953631" stroke-miterlimit="10"/>
<path d="M125.57 123.05L139.892 114.588" stroke="url(#paint49_linear_5426_3940)" stroke-width="0.0953631" stroke-miterlimit="10"/>
<path d="M133.301 127.576L147.623 119.103" stroke="url(#paint50_linear_5426_3940)" stroke-width="0.0953631" stroke-miterlimit="10"/>
<path d="M135.049 93.0955L143.421 88.1885" stroke="url(#paint51_linear_5426_3940)" stroke-width="0.0953631" stroke-miterlimit="10"/>
<path d="M129.74 89.5628L138.113 84.6558" stroke="url(#paint52_linear_5426_3940)" stroke-width="0.0953631" stroke-miterlimit="10"/>
<path d="M165.885 110.434L174.257 105.516" stroke="url(#paint53_linear_5426_3940)" stroke-width="0.0953631" stroke-miterlimit="10"/>
<path d="M99.6777 93.0955L108.05 88.1885" stroke="url(#paint54_linear_5426_3940)" stroke-width="0.0953631" stroke-miterlimit="10"/>
<path d="M178.666 117.5L157.959 105.974C156.758 105.298 156.638 103.608 157.751 102.79L161.408 100.075C162.882 98.9842 162.751 96.7488 161.157 95.8329L154.793 92.1689" stroke="url(#paint55_linear_5426_3940)" stroke-width="0.0806919" stroke-miterlimit="10"/>
<path d="M160.197 89.704L146.202 80.2281C144.947 79.3775 144.958 77.5346 146.224 76.695L165.556 63.8713" stroke="url(#paint56_linear_5426_3940)" stroke-width="0.0935292" stroke-miterlimit="10"/>
<path d="M115.476 71.1555L119.798 73.9907C120.399 74.3832 120.366 75.2665 119.744 75.6264L105.302 83.8156C104.374 84.339 104.363 85.6585 105.269 86.2037L124.809 98.0023" stroke="url(#paint57_linear_5426_3940)" stroke-width="0.0806919" stroke-miterlimit="10"/>
<path d="M132.613 60.7419L140.778 65.9979C141.651 66.5649 141.607 67.8517 140.701 68.3642L119.732 80.261C118.389 81.0243 118.367 82.9435 119.688 83.7395L140.472 96.3015" stroke="url(#paint58_linear_5426_3940)" stroke-width="0.0806919" stroke-miterlimit="10"/>
<path d="M83.5449 110.761C83.6432 110.477 96.9716 102.528 100.847 100.227C101.502 99.8454 102.299 99.8345 102.954 100.205L119.131 109.321" stroke="url(#paint59_linear_5426_3940)" stroke-width="0.0806919" stroke-miterlimit="10"/>
<path d="M139.304 129.691C139.326 130.509 138.377 131.206 137.187 131.239C135.997 131.272 135.014 130.628 134.993 129.811C134.971 128.993 135.92 128.295 137.11 128.262C138.3 128.229 139.283 128.873 139.304 129.691Z" fill="url(#paint60_linear_5426_3940)"/>
<path d="M121.838 109.703C121.859 110.521 120.91 111.219 119.72 111.252C118.53 111.284 117.548 110.641 117.526 109.823C117.504 109.005 118.454 108.307 119.643 108.275C120.833 108.242 121.816 108.885 121.838 109.703Z" fill="url(#paint61_linear_5426_3940)"/>
<path d="M101.832 93.0408C101.854 93.8586 100.904 94.5565 99.714 94.5892C98.5242 94.6219 97.5417 93.9786 97.5199 93.1607C97.4981 92.3429 98.4478 91.645 99.6376 91.6123C100.827 91.5796 101.81 92.2229 101.832 93.0408Z" fill="url(#paint62_linear_5426_3940)"/>
<path d="M126.959 97.948C126.981 98.7658 126.031 99.4637 124.841 99.4964C123.651 99.5291 122.669 98.8858 122.647 98.0679C122.625 97.2501 123.575 96.5522 124.765 96.5195C125.954 96.4868 126.937 97.1302 126.959 97.948Z" fill="url(#paint63_linear_5426_3940)"/>
<path d="M140.146 84.1538C140.168 84.9716 139.218 85.6695 138.028 85.7022C136.839 85.735 135.856 85.0916 135.834 84.2738C135.813 83.4559 136.762 82.758 137.952 82.7253C139.142 82.6926 140.124 83.336 140.146 84.1538Z" fill="url(#paint64_linear_5426_3940)"/>
<path d="M145.56 88.0142C145.582 88.832 144.632 89.5299 143.443 89.5626C142.253 89.5953 141.27 88.9519 141.248 88.1341C141.227 87.3163 142.176 86.6184 143.366 86.5857C144.556 86.553 145.538 87.1963 145.56 88.0142Z" fill="url(#paint65_linear_5426_3940)"/>
<path d="M143.015 96.2905C143.037 97.1084 142.087 97.8062 140.898 97.839C139.708 97.8717 138.725 97.2283 138.703 96.4105C138.682 95.5926 139.631 94.8947 140.821 94.862C142.011 94.8293 142.993 95.4727 143.015 96.2905Z" fill="url(#paint66_linear_5426_3940)"/>
<path d="M162.359 89.5625C162.381 90.3803 161.431 91.0782 160.241 91.1109C159.052 91.1436 158.069 90.5003 158.047 89.6824C158.025 88.8646 158.975 88.1667 160.165 88.134C161.355 88.1013 162.337 88.7447 162.359 89.5625Z" fill="url(#paint67_linear_5426_3940)"/>
<path d="M157.031 92.6484C157.053 93.4663 156.103 94.1642 154.913 94.1969C153.723 94.2296 152.741 93.5862 152.719 92.7684C152.697 91.9505 153.647 91.2527 154.837 91.2199C156.027 91.1872 157.009 91.8306 157.031 92.6484Z" fill="url(#paint68_linear_5426_3940)"/>
<path d="M177.14 105.232C177.162 106.05 176.212 106.748 175.023 106.781C173.833 106.813 172.85 106.17 172.828 105.352C172.807 104.534 173.756 103.836 174.946 103.804C176.136 103.771 177.118 104.414 177.14 105.232Z" fill="url(#paint69_linear_5426_3940)"/>
<path d="M150.068 119.037C150.09 119.855 149.14 120.553 147.95 120.586C146.76 120.618 145.778 119.975 145.756 119.157C145.734 118.339 146.684 117.642 147.874 117.609C149.064 117.576 150.046 118.22 150.068 119.037Z" fill="url(#paint70_linear_5426_3940)"/>
<path d="M142.884 114.294C142.906 115.112 141.957 115.81 140.767 115.842C139.577 115.875 138.594 115.232 138.573 114.414C138.551 113.596 139.5 112.898 140.69 112.865C141.88 112.833 142.863 113.476 142.884 114.294Z" fill="url(#paint71_linear_5426_3940)"/>
</g>
</g>
<path fill-rule="evenodd" clip-rule="evenodd" d="M147.746 22.2339L151.121 19.2975C152.829 17.8113 156.355 15.1294 158.702 15.9957C162.254 17.304 161.948 21.8701 162.136 24.2046L162.663 31.761C158.558 27.5016 153.462 24.2029 147.746 22.2339Z" fill="#FF85D0"/>
<path fill-rule="evenodd" clip-rule="evenodd" d="M98.124 58.0495C98.124 37.2303 115.059 20.1125 135.917 20.1125C140.231 20.1125 144.376 20.8352 148.238 22.1664C153.954 24.1354 159.051 27.4341 163.155 31.6935C164.582 33.1748 165.888 34.7702 167.06 36.4668V36.6071C167.06 37.3053 169.395 40.6883 169.679 41.3327C169.395 41.9754 170.502 44.3001 170.502 44.9983L170.951 46.4197C170.951 48.8153 172.198 49.2624 170.802 51.3571C172.984 52.4687 176.609 51.7574 179.663 51.7574C181.679 51.7574 183.583 51.4654 185.273 50.9499C184.011 55.9043 181.468 61.7331 176.608 66.6582C175.309 67.9746 173.843 69.2259 172.194 70.3793C171.922 70.5701 171.574 70.6794 171.363 70.9404C170.332 72.2227 170.7 72.6942 169.564 73.9095C167.323 74.0466 163.207 72.0482 161.55 70.3157C161.398 70.1558 161.192 70.0644 160.997 69.9747C160.26 69.6386 159.397 69.6533 158.661 70.0432C156.249 71.3271 156.448 75.5294 159.493 76.5621C159.557 76.5833 159.624 76.6045 159.691 76.6224C162.664 77.4642 165.571 77.6126 168.413 77.0955C166.931 79.5801 165.17 81.8787 163.176 83.9521L163.173 83.9554C159.466 87.807 154.946 90.8772 149.892 92.887L150.1 108.499C150.1 110.984 146.625 113 142.346 113C138.067 113 134.592 110.984 134.592 108.499V95.5216C132.704 95.4286 130.878 95.1317 128.997 94.7712L129.105 102.315C129.105 104.799 125.63 106.815 121.35 106.815C117.071 106.815 113.596 104.799 113.596 102.315V96.4874L111.561 89.8608C111.257 89.8837 110.948 89.8886 110.638 89.8706C107.934 89.7189 106.244 87.6243 104.603 85.4742C99.4267 78.6894 97.3296 69.2487 97.1433 64.2486C97.0599 61.9909 97.1482 59.7494 98.124 58.0495Z" fill="#FF85D0"/>
<path d="M179.663 51.7574C181.679 51.7574 183.583 51.4654 185.273 50.9499V48.7388L184.791 46.8685C184.367 46.4696 183.01 45.4472 180.976 44.5495C178.941 43.6517 175.34 45.3724 173.794 46.3449L170.802 51.3571C172.984 52.4687 176.609 51.7574 179.663 51.7574Z" fill="#FF85D0"/>
<path fill-rule="evenodd" clip-rule="evenodd" d="M163.173 83.9553L163.284 97.9393C163.284 100.424 159.809 102.442 155.53 102.442C153.415 102.442 151.399 101.85 149.999 101.052L149.891 92.8886C154.945 90.8788 159.464 87.8086 163.171 83.957L163.173 83.9553Z" fill="#FF85D0"/>
<path fill-rule="evenodd" clip-rule="evenodd" d="M134.591 100.142C132.646 100.121 130.451 99.6933 129.057 98.9999L128.996 94.7715C130.877 95.132 132.703 95.4289 134.591 95.5219V100.142Z" fill="#FF85D0"/>
<path fill-rule="evenodd" clip-rule="evenodd" d="M176.606 66.6582C177.808 66.9796 179.022 67.177 180.245 67.2847C180.689 67.3271 181.046 67.6713 181.106 68.1134C181.165 68.5539 180.91 68.9796 180.492 69.1362C177.785 70.1737 175.019 70.5979 172.191 70.3793C173.841 69.226 175.307 67.9747 176.606 66.6582Z" fill="white"/>
<path d="M147.92 22.0621C148.581 21.4863 150.644 19.6912 151.291 19.1269C152.998 17.6416 156.52 14.9606 158.868 15.8264C162.418 17.1364 162.116 21.7042 162.305 24.0385L162.835 31.5966" stroke="#242728" stroke-width="0.858862" stroke-miterlimit="1.5" stroke-linejoin="round"/>
<path d="M134.264 89.8171V108.397C134.264 110.881 137.738 112.899 142.017 112.899C146.298 112.899 149.771 110.881 149.771 108.397L149.565 92.7862C154.619 90.7747 159.137 87.7062 162.844 83.8545L162.847 83.8513C164.843 81.7778 166.602 79.4777 168.084 76.9948M169.722 73.9376C170.204 72.9294 170.644 71.8951 171.036 70.8396M171.545 49.6368C170.797 39.0887 164.482 33.3089 162.828 31.5927C158.722 27.3332 153.625 24.033 147.909 22.0656C144.047 20.7344 139.904 20.0117 135.59 20.0117C114.73 20.0117 97.7968 36.9142 97.7968 57.7318M128.776 94.6851C130.657 95.044 132.375 95.3278 134.264 95.4208" stroke="#242728" stroke-width="0.858862" stroke-miterlimit="1.5" stroke-linecap="round" stroke-linejoin="round"/>
<path d="M150.467 61.6982C155.215 61.3698 161.091 60.4535 165.815 57.3209C168.291 55.6786 171.378 50.5621 172.893 47.467M185.344 49.1145C184.259 54.3993 181.724 61.046 176.284 66.5582C174.985 67.8745 173.52 69.1261 171.87 70.2791C170.331 71.3544 168.631 72.3438 166.753 73.2198C166.715 73.2375 166.677 73.2552 166.639 73.2729" stroke="#242728" stroke-width="0.858862" stroke-miterlimit="1.5" stroke-linejoin="round"/>
<path d="M172.67 48.7143C172.67 46.3731 175.519 44.4753 179.033 44.4753C182.548 44.4753 185.396 46.3731 185.396 48.7143C185.396 51.0555 182.548 52.9534 179.033 52.9534C175.519 52.9534 172.67 51.0555 172.67 48.7143Z" stroke="#242728" stroke-width="0.916235" stroke-miterlimit="1.5" stroke-linejoin="round"/>
<path fill-rule="evenodd" clip-rule="evenodd" d="M158.333 69.9427C159.265 69.4497 160.4 69.5563 161.221 70.214C164.486 72.8138 167.902 73.834 171.384 74.1438C171.828 74.1861 172.185 74.5288 172.243 74.9705C172.302 75.4123 172.047 75.8379 171.63 75.995C167.67 77.5144 163.584 77.7163 159.362 76.5234C156.131 75.6096 155.87 71.2527 158.333 69.9427Z" fill="white" stroke="#242728" stroke-width="0.858862" stroke-miterlimit="1.5" stroke-linejoin="round"/>
<path d="M176.292 66.5569C177.495 66.8787 178.71 67.0752 179.933 67.184C180.377 67.2264 180.734 67.569 180.791 68.0107C180.85 68.4526 180.596 68.8782 180.178 69.0353C177.472 70.0735 174.706 70.4981 171.878 70.2797" stroke="#242728" stroke-width="0.858862" stroke-miterlimit="1.5" stroke-linejoin="round"/>
<path d="M160.665 69.8738C159.028 68.899 158.155 67.8835 157.062 66.7235" stroke="#242728" stroke-width="0.858862" stroke-miterlimit="1.5" stroke-linejoin="round"/>
<path d="M159.171 76.4618C157.321 75.994 155.385 75.0117 154.005 74.2111" stroke="#242728" stroke-width="0.858862" stroke-miterlimit="1.5" stroke-linejoin="round"/>
<path d="M120.577 45.7373C120.577 45.7373 107.222 52.0807 99.9274 55.9165C96.9547 57.4795 96.6986 60.7944 96.8228 64.1461C97.0084 69.1463 99.1067 78.5877 104.283 85.3723C105.924 87.5224 107.615 89.6176 110.318 89.7696C113.022 89.9216 115.563 88.4759 116.809 86.0768C119.514 80.869 122.946 74.5189 122.946 74.5189" stroke="#242728" stroke-width="0.858862" stroke-miterlimit="1.5" stroke-linejoin="round"/>
<path d="M162.846 83.8535L162.965 97.8401C162.966 100.325 159.493 102.341 155.214 102.339C153.101 102.338 151.182 101.845 149.783 101.045" stroke="#242728" stroke-width="0.858862" stroke-miterlimit="1.5" stroke-linejoin="round"/>
<path d="M126.276 85.8314C126.276 85.8314 128.397 91.9988 128.549 92.4391C128.611 92.6199 128.645 92.8094 128.647 93.0009C128.67 94.5921 128.782 102.218 128.782 102.218C128.783 104.703 125.311 106.718 121.032 106.717C116.754 106.714 113.279 104.695 113.278 102.21L113.277 96.3822L111.238 89.753" stroke="#242728" stroke-width="0.858862" stroke-miterlimit="1.5" stroke-linejoin="round"/>
<path d="M133.891 100.042C131.778 100.041 129.859 99.5473 128.46 98.7479" stroke="#242728" stroke-width="0.858862" stroke-miterlimit="1.5" stroke-linejoin="round"/>
<path d="M100.486 78.9668C99.5383 81.0444 93.3774 82.2996 89.7086 76.3868" stroke="#242728" stroke-width="0.858862" stroke-miterlimit="1.5" stroke-linejoin="round"/>
<path fill-rule="evenodd" clip-rule="evenodd" d="M86.6156 73.2049C87.0959 72.7057 89.528 74.2613 90.0284 74.741C90.5289 75.2207 90.5446 76.0161 90.0642 76.5153C89.5839 77.0145 88.787 77.031 88.2865 76.5513C87.786 76.0716 86.1353 73.704 86.6156 73.2049Z" fill="#FF85D0" stroke="#242728" stroke-width="0.858862" stroke-miterlimit="1.5" stroke-linejoin="round"/>
</g>
<rect x="0.296784" y="0.296784" width="284.406" height="202.406" rx="5.63889" stroke="#272727" stroke-width="0.593567"/>
<defs>
<linearGradient id="paint0_linear_5426_3940" x1="303.542" y1="201.633" x2="266.297" y2="201.659" gradientUnits="userSpaceOnUse">
<stop stop-color="#FFC6D9"/>
<stop offset="0.333333" stop-color="#7CCFE1"/>
<stop offset="0.640625" stop-color="#89CBA6"/>
<stop offset="1" stop-color="#A5D571"/>
</linearGradient>
<linearGradient id="paint1_linear_5426_3940" x1="277.907" y1="147.892" x2="120.509" y2="147.984" gradientUnits="userSpaceOnUse">
<stop stop-color="#FFC6D9"/>
<stop offset="0.333333" stop-color="#7CCFE1"/>
<stop offset="0.640625" stop-color="#89CBA6"/>
<stop offset="1" stop-color="#A5D571"/>
</linearGradient>
<linearGradient id="paint2_linear_5426_3940" x1="135.454" y1="104.882" x2="93.767" y2="104.902" gradientUnits="userSpaceOnUse">
<stop stop-color="#FFC6D9"/>
<stop offset="0.333333" stop-color="#7CCFE1"/>
<stop offset="0.640625" stop-color="#89CBA6"/>
<stop offset="1" stop-color="#A5D571"/>
</linearGradient>
<linearGradient id="paint3_linear_5426_3940" x1="135.235" y1="198.376" x2="63.6287" y2="198.396" gradientUnits="userSpaceOnUse">
<stop stop-color="#FFC6D9"/>
<stop offset="0.333333" stop-color="#7CCFE1"/>
<stop offset="0.640625" stop-color="#89CBA6"/>
<stop offset="1" stop-color="#A5D571"/>
</linearGradient>
<linearGradient id="paint4_linear_5426_3940" x1="162.22" y1="158.134" x2="102.489" y2="158.182" gradientUnits="userSpaceOnUse">
<stop stop-color="#FFC6D9"/>
<stop offset="0.333333" stop-color="#7CCFE1"/>
<stop offset="0.640625" stop-color="#89CBA6"/>
<stop offset="1" stop-color="#A5D571"/>
</linearGradient>
<linearGradient id="paint5_linear_5426_3940" x1="264.935" y1="151.283" x2="114.285" y2="151.388" gradientUnits="userSpaceOnUse">
<stop stop-color="#FFC6D9"/>
<stop offset="0.333333" stop-color="#7CCFE1"/>
<stop offset="0.640625" stop-color="#89CBA6"/>
<stop offset="1" stop-color="#A5D571"/>
</linearGradient>
<linearGradient id="paint6_linear_5426_3940" x1="148.47" y1="139.104" x2="120.209" y2="139.159" gradientUnits="userSpaceOnUse">
<stop stop-color="#FFC6D9"/>
<stop offset="0.333333" stop-color="#7CCFE1"/>
<stop offset="0.640625" stop-color="#89CBA6"/>
<stop offset="1" stop-color="#A5D571"/>
</linearGradient>
<linearGradient id="paint7_linear_5426_3940" x1="250.232" y1="160.693" x2="108.377" y2="160.867" gradientUnits="userSpaceOnUse">
<stop stop-color="#FFC6D9"/>
<stop offset="0.333333" stop-color="#7CCFE1"/>
<stop offset="0.640625" stop-color="#89CBA6"/>
<stop offset="1" stop-color="#A5D571"/>
</linearGradient>
<linearGradient id="paint8_linear_5426_3940" x1="48.7796" y1="163.847" x2="-18.428" y2="163.891" gradientUnits="userSpaceOnUse">
<stop stop-color="#FFC6D9"/>
<stop offset="0.333333" stop-color="#7CCFE1"/>
<stop offset="0.640625" stop-color="#89CBA6"/>
<stop offset="1" stop-color="#A5D571"/>
</linearGradient>
<linearGradient id="paint9_linear_5426_3940" x1="320.078" y1="133.761" x2="111.583" y2="133.871" gradientUnits="userSpaceOnUse">
<stop stop-color="#FFC6D9"/>
<stop offset="0.333333" stop-color="#7CCFE1"/>
<stop offset="0.640625" stop-color="#89CBA6"/>
<stop offset="1" stop-color="#A5D571"/>
</linearGradient>
<linearGradient id="paint10_linear_5426_3940" x1="320.457" y1="122.522" x2="246.596" y2="122.55" gradientUnits="userSpaceOnUse">
<stop stop-color="#FFC6D9"/>
<stop offset="0.333333" stop-color="#7CCFE1"/>
<stop offset="0.640625" stop-color="#89CBA6"/>
<stop offset="1" stop-color="#A5D571"/>
</linearGradient>
<linearGradient id="paint11_linear_5426_3940" x1="299.348" y1="205.552" x2="260.374" y2="205.579" gradientUnits="userSpaceOnUse">
<stop stop-color="#FFC6D9"/>
<stop offset="0.333333" stop-color="#7CCFE1"/>
<stop offset="0.640625" stop-color="#89CBA6"/>
<stop offset="1" stop-color="#A5D571"/>
</linearGradient>
<linearGradient id="paint12_linear_5426_3940" x1="122.842" y1="87.3109" x2="64.6444" y2="87.3339" gradientUnits="userSpaceOnUse">
<stop stop-color="#FFC6D9"/>
<stop offset="0.333333" stop-color="#7CCFE1"/>
<stop offset="0.640625" stop-color="#89CBA6"/>
<stop offset="1" stop-color="#A5D571"/>
</linearGradient>
<linearGradient id="paint13_linear_5426_3940" x1="54.6493" y1="168.449" x2="-16.6566" y2="168.495" gradientUnits="userSpaceOnUse">
<stop stop-color="#FFC6D9"/>
<stop offset="0.333333" stop-color="#7CCFE1"/>
<stop offset="0.640625" stop-color="#89CBA6"/>
<stop offset="1" stop-color="#A5D571"/>
</linearGradient>
<linearGradient id="paint14_linear_5426_3940" x1="43.3529" y1="150.206" x2="16.2873" y2="150.229" gradientUnits="userSpaceOnUse">
<stop stop-color="#FFC6D9"/>
<stop offset="0.333333" stop-color="#7CCFE1"/>
<stop offset="0.640625" stop-color="#89CBA6"/>
<stop offset="1" stop-color="#A5D571"/>
</linearGradient>
<linearGradient id="paint15_linear_5426_3940" x1="156.424" y1="161.598" x2="96.5775" y2="161.646" gradientUnits="userSpaceOnUse">
<stop stop-color="#FFC6D9"/>
<stop offset="0.333333" stop-color="#7CCFE1"/>
<stop offset="0.640625" stop-color="#89CBA6"/>
<stop offset="1" stop-color="#A5D571"/>
</linearGradient>
<linearGradient id="paint16_linear_5426_3940" x1="155.048" y1="207.649" x2="-2.78258" y2="207.719" gradientUnits="userSpaceOnUse">
<stop stop-color="#FFC6D9"/>
<stop offset="0.333333" stop-color="#7CCFE1"/>
<stop offset="0.640625" stop-color="#89CBA6"/>
<stop offset="1" stop-color="#A5D571"/>
</linearGradient>
<linearGradient id="paint17_linear_5426_3940" x1="112.376" y1="187.201" x2="93.262" y2="187.206" gradientUnits="userSpaceOnUse">
<stop stop-color="#FFC6D9"/>
<stop offset="0.333333" stop-color="#7CCFE1"/>
<stop offset="0.640625" stop-color="#89CBA6"/>
<stop offset="1" stop-color="#A5D571"/>
</linearGradient>
<linearGradient id="paint18_linear_5426_3940" x1="40.301" y1="118.669" x2="4.86419" y2="118.694" gradientUnits="userSpaceOnUse">
<stop stop-color="#FFC6D9"/>
<stop offset="0.333333" stop-color="#7CCFE1"/>
<stop offset="0.640625" stop-color="#89CBA6"/>
<stop offset="1" stop-color="#A5D571"/>
</linearGradient>
<linearGradient id="paint19_linear_5426_3940" x1="29.1254" y1="104.612" x2="11.9634" y2="104.639" gradientUnits="userSpaceOnUse">
<stop stop-color="#FFC6D9"/>
<stop offset="0.333333" stop-color="#7CCFE1"/>
<stop offset="0.640625" stop-color="#89CBA6"/>
<stop offset="1" stop-color="#A5D571"/>
</linearGradient>
<linearGradient id="paint20_linear_5426_3940" x1="55.2875" y1="104.085" x2="34.1334" y2="104.09" gradientUnits="userSpaceOnUse">
<stop stop-color="#FFC6D9"/>
<stop offset="0.333333" stop-color="#7CCFE1"/>
<stop offset="0.640625" stop-color="#89CBA6"/>
<stop offset="1" stop-color="#A5D571"/>
</linearGradient>
<linearGradient id="paint21_linear_5426_3940" x1="61.2214" y1="100.77" x2="40.3986" y2="100.775" gradientUnits="userSpaceOnUse">
<stop stop-color="#FFC6D9"/>
<stop offset="0.333333" stop-color="#7CCFE1"/>
<stop offset="0.640625" stop-color="#89CBA6"/>
<stop offset="1" stop-color="#A5D571"/>
</linearGradient>
<linearGradient id="paint22_linear_5426_3940" x1="49.2782" y1="107.456" x2="28.1601" y2="107.461" gradientUnits="userSpaceOnUse">
<stop stop-color="#FFC6D9"/>
<stop offset="0.333333" stop-color="#7CCFE1"/>
<stop offset="0.640625" stop-color="#89CBA6"/>
<stop offset="1" stop-color="#A5D571"/>
</linearGradient>
<linearGradient id="paint23_linear_5426_3940" x1="34.3914" y1="122.536" x2="0.531929" y2="122.561" gradientUnits="userSpaceOnUse">
<stop stop-color="#FFC6D9"/>
<stop offset="0.333333" stop-color="#7CCFE1"/>
<stop offset="0.640625" stop-color="#89CBA6"/>
<stop offset="1" stop-color="#A5D571"/>
</linearGradient>
<linearGradient id="paint24_linear_5426_3940" x1="33.9984" y1="149.774" x2="-20.0068" y2="149.82" gradientUnits="userSpaceOnUse">
<stop stop-color="#FFC6D9"/>
<stop offset="0.333333" stop-color="#7CCFE1"/>
<stop offset="0.640625" stop-color="#89CBA6"/>
<stop offset="1" stop-color="#A5D571"/>
</linearGradient>
<linearGradient id="paint25_linear_5426_3940" x1="28.4937" y1="126.501" x2="-3.47153" y2="126.525" gradientUnits="userSpaceOnUse">
<stop stop-color="#FFC6D9"/>
<stop offset="0.333333" stop-color="#7CCFE1"/>
<stop offset="0.640625" stop-color="#89CBA6"/>
<stop offset="1" stop-color="#A5D571"/>
</linearGradient>
<linearGradient id="paint26_linear_5426_3940" x1="28.1555" y1="142.346" x2="-17.9556" y2="142.404" gradientUnits="userSpaceOnUse">
<stop stop-color="#FFC6D9"/>
<stop offset="0.333333" stop-color="#7CCFE1"/>
<stop offset="0.640625" stop-color="#89CBA6"/>
<stop offset="1" stop-color="#A5D571"/>
</linearGradient>
<linearGradient id="paint27_linear_5426_3940" x1="8.38273" y1="129.239" x2="-8.81528" y2="129.264" gradientUnits="userSpaceOnUse">
<stop stop-color="#FFC6D9"/>
<stop offset="0.333333" stop-color="#7CCFE1"/>
<stop offset="0.640625" stop-color="#89CBA6"/>
<stop offset="1" stop-color="#A5D571"/>
</linearGradient>
<linearGradient id="paint28_linear_5426_3940" x1="126.898" y1="173.546" x2="84.7767" y2="173.562" gradientUnits="userSpaceOnUse">
<stop stop-color="#FFC6D9"/>
<stop offset="0.333333" stop-color="#7CCFE1"/>
<stop offset="0.640625" stop-color="#89CBA6"/>
<stop offset="1" stop-color="#A5D571"/>
</linearGradient>
<linearGradient id="paint29_linear_5426_3940" x1="147.733" y1="170.972" x2="113.998" y2="170.997" gradientUnits="userSpaceOnUse">
<stop stop-color="#FFC6D9"/>
<stop offset="0.333333" stop-color="#7CCFE1"/>
<stop offset="0.640625" stop-color="#89CBA6"/>
<stop offset="1" stop-color="#A5D571"/>
</linearGradient>
<linearGradient id="paint30_linear_5426_3940" x1="67.1937" y1="96.8151" x2="50.3396" y2="96.8182" gradientUnits="userSpaceOnUse">
<stop stop-color="#FFC6D9"/>
<stop offset="0.333333" stop-color="#7CCFE1"/>
<stop offset="0.640625" stop-color="#89CBA6"/>
<stop offset="1" stop-color="#A5D571"/>
</linearGradient>
<linearGradient id="paint31_linear_5426_3940" x1="132.819" y1="170.116" x2="90.684" y2="170.133" gradientUnits="userSpaceOnUse">
<stop stop-color="#FFC6D9"/>
<stop offset="0.333333" stop-color="#7CCFE1"/>
<stop offset="0.640625" stop-color="#89CBA6"/>
<stop offset="1" stop-color="#A5D571"/>
</linearGradient>
<linearGradient id="paint32_linear_5426_3940" x1="143.854" y1="199.23" x2="51.9778" y2="199.26" gradientUnits="userSpaceOnUse">
<stop stop-color="#FFC6D9"/>
<stop offset="0.333333" stop-color="#7CCFE1"/>
<stop offset="0.640625" stop-color="#89CBA6"/>
<stop offset="1" stop-color="#A5D571"/>
</linearGradient>
<linearGradient id="paint33_linear_5426_3940" x1="136.433" y1="88.5527" x2="84.9485" y2="88.569" gradientUnits="userSpaceOnUse">
<stop stop-color="#FFC6D9"/>
<stop offset="0.333333" stop-color="#7CCFE1"/>
<stop offset="0.640625" stop-color="#89CBA6"/>
<stop offset="1" stop-color="#A5D571"/>
</linearGradient>
<linearGradient id="paint34_linear_5426_3940" x1="176.224" y1="93.1283" x2="99.7176" y2="93.1593" gradientUnits="userSpaceOnUse">
<stop stop-color="#FFC6D9"/>
<stop offset="0.333333" stop-color="#7CCFE1"/>
<stop offset="0.640625" stop-color="#89CBA6"/>
<stop offset="1" stop-color="#A5D571"/>
</linearGradient>
<linearGradient id="paint35_linear_5426_3940" x1="186.199" y1="95.3951" x2="105.882" y2="95.4278" gradientUnits="userSpaceOnUse">
<stop stop-color="#FFC6D9"/>
<stop offset="0.333333" stop-color="#7CCFE1"/>
<stop offset="0.640625" stop-color="#89CBA6"/>
<stop offset="1" stop-color="#A5D571"/>
</linearGradient>
<linearGradient id="paint36_linear_5426_3940" x1="86.7415" y1="190.139" x2="63.8164" y2="190.147" gradientUnits="userSpaceOnUse">
<stop stop-color="#FFC6D9"/>
<stop offset="0.333333" stop-color="#7CCFE1"/>
<stop offset="0.640625" stop-color="#89CBA6"/>
<stop offset="1" stop-color="#A5D571"/>
</linearGradient>
<linearGradient id="paint37_linear_5426_3940" x1="144.643" y1="197.079" x2="52.2767" y2="197.11" gradientUnits="userSpaceOnUse">
<stop stop-color="#FFC6D9"/>
<stop offset="0.333333" stop-color="#7CCFE1"/>
<stop offset="0.640625" stop-color="#89CBA6"/>
<stop offset="1" stop-color="#A5D571"/>
</linearGradient>
<linearGradient id="paint38_linear_5426_3940" x1="265.109" y1="148.037" x2="112.949" y2="148.144" gradientUnits="userSpaceOnUse">
<stop stop-color="#FFC6D9"/>
<stop offset="0.333333" stop-color="#7CCFE1"/>
<stop offset="0.640625" stop-color="#89CBA6"/>
<stop offset="1" stop-color="#A5D571"/>
</linearGradient>
<linearGradient id="paint39_linear_5426_3940" x1="278.068" y1="144.631" x2="120.518" y2="144.723" gradientUnits="userSpaceOnUse">
<stop stop-color="#FFC6D9"/>
<stop offset="0.333333" stop-color="#7CCFE1"/>
<stop offset="0.640625" stop-color="#89CBA6"/>
<stop offset="1" stop-color="#A5D571"/>
</linearGradient>
<linearGradient id="paint40_linear_5426_3940" x1="176.117" y1="90.0388" x2="99.1827" y2="90.07" gradientUnits="userSpaceOnUse">
<stop stop-color="#FFC6D9"/>
<stop offset="0.333333" stop-color="#7CCFE1"/>
<stop offset="0.640625" stop-color="#89CBA6"/>
<stop offset="1" stop-color="#A5D571"/>
</linearGradient>
<linearGradient id="paint41_linear_5426_3940" x1="47.7444" y1="160.95" x2="-18.2379" y2="160.994" gradientUnits="userSpaceOnUse">
<stop stop-color="#FFC6D9"/>
<stop offset="0.333333" stop-color="#7CCFE1"/>
<stop offset="0.640625" stop-color="#89CBA6"/>
<stop offset="1" stop-color="#A5D571"/>
</linearGradient>
<linearGradient id="paint42_linear_5426_3940" x1="162.617" y1="155.302" x2="104.263" y2="155.349" gradientUnits="userSpaceOnUse">
<stop stop-color="#FFC6D9"/>
<stop offset="0.333333" stop-color="#7CCFE1"/>
<stop offset="0.640625" stop-color="#89CBA6"/>
<stop offset="1" stop-color="#A5D571"/>
</linearGradient>
<linearGradient id="paint43_linear_5426_3940" x1="133.211" y1="167.266" x2="92.2078" y2="167.281" gradientUnits="userSpaceOnUse">
<stop stop-color="#FFC6D9"/>
<stop offset="0.333333" stop-color="#7CCFE1"/>
<stop offset="0.640625" stop-color="#89CBA6"/>
<stop offset="1" stop-color="#A5D571"/>
</linearGradient>
<linearGradient id="paint44_linear_5426_3940" x1="66.2462" y1="105.635" x2="216.166" y2="105.635" gradientUnits="userSpaceOnUse">
<stop stop-color="#6BADFA"/>
<stop offset="0.99" stop-color="#535EDD"/>
</linearGradient>
<linearGradient id="paint45_linear_5426_3940" x1="51.4311" y1="112.145" x2="52.5227" y2="112.145" gradientUnits="userSpaceOnUse">
<stop stop-color="#C66F89"/>
<stop offset="1" stop-color="#662D91"/>
</linearGradient>
<linearGradient id="paint46_linear_5426_3940" x1="70.6875" y1="144.143" x2="221.581" y2="-21.0485" gradientUnits="userSpaceOnUse">
<stop stop-color="#F77577"/>
<stop offset="0.452015" stop-color="#DB39CB"/>
<stop offset="0.973958" stop-color="#CA6FE5"/>
</linearGradient>
<linearGradient id="paint47_linear_5426_3940" x1="70.7305" y1="98.0131" x2="206.569" y2="98.0131" gradientUnits="userSpaceOnUse">
<stop stop-color="#D84789"/>
<stop offset="1" stop-color="#954ACA"/>
</linearGradient>
<linearGradient id="paint48_linear_5426_3940" x1="92.9665" y1="120.647" x2="136.692" y2="120.616" gradientUnits="userSpaceOnUse">
<stop stop-color="#FFC6D9"/>
<stop offset="0.333333" stop-color="#7CCFE1"/>
<stop offset="0.640625" stop-color="#89CBA6"/>
<stop offset="1" stop-color="#A5D571"/>
</linearGradient>
<linearGradient id="paint49_linear_5426_3940" x1="125.75" y1="118.819" x2="139.894" y2="118.812" gradientUnits="userSpaceOnUse">
<stop stop-color="#FFC6D9"/>
<stop offset="0.333333" stop-color="#7CCFE1"/>
<stop offset="0.640625" stop-color="#89CBA6"/>
<stop offset="1" stop-color="#A5D571"/>
</linearGradient>
<linearGradient id="paint50_linear_5426_3940" x1="133.481" y1="123.339" x2="147.625" y2="123.332" gradientUnits="userSpaceOnUse">
<stop stop-color="#FFC6D9"/>
<stop offset="0.333333" stop-color="#7CCFE1"/>
<stop offset="0.640625" stop-color="#89CBA6"/>
<stop offset="1" stop-color="#A5D571"/>
</linearGradient>
<linearGradient id="paint51_linear_5426_3940" x1="135.154" y1="90.642" x2="143.423" y2="90.6379" gradientUnits="userSpaceOnUse">
<stop stop-color="#FFC6D9"/>
<stop offset="0.333333" stop-color="#7CCFE1"/>
<stop offset="0.640625" stop-color="#89CBA6"/>
<stop offset="1" stop-color="#A5D571"/>
</linearGradient>
<linearGradient id="paint52_linear_5426_3940" x1="129.845" y1="87.1093" x2="138.114" y2="87.1052" gradientUnits="userSpaceOnUse">
<stop stop-color="#FFC6D9"/>
<stop offset="0.333333" stop-color="#7CCFE1"/>
<stop offset="0.640625" stop-color="#89CBA6"/>
<stop offset="1" stop-color="#A5D571"/>
</linearGradient>
<linearGradient id="paint53_linear_5426_3940" x1="165.99" y1="107.975" x2="174.259" y2="107.971" gradientUnits="userSpaceOnUse">
<stop stop-color="#FFC6D9"/>
<stop offset="0.333333" stop-color="#7CCFE1"/>
<stop offset="0.640625" stop-color="#89CBA6"/>
<stop offset="1" stop-color="#A5D571"/>
</linearGradient>
<linearGradient id="paint54_linear_5426_3940" x1="99.7829" y1="90.642" x2="108.051" y2="90.6379" gradientUnits="userSpaceOnUse">
<stop stop-color="#FFC6D9"/>
<stop offset="0.333333" stop-color="#7CCFE1"/>
<stop offset="0.640625" stop-color="#89CBA6"/>
<stop offset="1" stop-color="#A5D571"/>
</linearGradient>
<linearGradient id="paint55_linear_5426_3940" x1="155.093" y1="104.835" x2="178.67" y2="104.828" gradientUnits="userSpaceOnUse">
<stop stop-color="#FFC6D9"/>
<stop offset="0.333333" stop-color="#7CCFE1"/>
<stop offset="0.640625" stop-color="#89CBA6"/>
<stop offset="1" stop-color="#A5D571"/>
</linearGradient>
<linearGradient id="paint56_linear_5426_3940" x1="145.523" y1="76.7877" x2="165.559" y2="76.7832" gradientUnits="userSpaceOnUse">
<stop stop-color="#FFC6D9"/>
<stop offset="0.333333" stop-color="#7CCFE1"/>
<stop offset="0.640625" stop-color="#89CBA6"/>
<stop offset="1" stop-color="#A5D571"/>
</linearGradient>
<linearGradient id="paint57_linear_5426_3940" x1="104.852" y1="84.579" x2="124.812" y2="84.5746" gradientUnits="userSpaceOnUse">
<stop stop-color="#FFC6D9"/>
<stop offset="0.333333" stop-color="#7CCFE1"/>
<stop offset="0.640625" stop-color="#89CBA6"/>
<stop offset="1" stop-color="#A5D571"/>
</linearGradient>
<linearGradient id="paint58_linear_5426_3940" x1="118.996" y1="78.5217" x2="141.411" y2="78.5176" gradientUnits="userSpaceOnUse">
<stop stop-color="#FFC6D9"/>
<stop offset="0.333333" stop-color="#7CCFE1"/>
<stop offset="0.640625" stop-color="#89CBA6"/>
<stop offset="1" stop-color="#A5D571"/>
</linearGradient>
<linearGradient id="paint59_linear_5426_3940" x1="83.9921" y1="105.347" x2="119.136" y2="105.314" gradientUnits="userSpaceOnUse">
<stop stop-color="#FFC6D9"/>
<stop offset="0.333333" stop-color="#7CCFE1"/>
<stop offset="0.640625" stop-color="#89CBA6"/>
<stop offset="1" stop-color="#A5D571"/>
</linearGradient>
<linearGradient id="paint60_linear_5426_3940" x1="135.046" y1="129.751" x2="139.305" y2="129.749" gradientUnits="userSpaceOnUse">
<stop stop-color="#FFC6D9"/>
<stop offset="0.333333" stop-color="#7CCFE1"/>
<stop offset="0.640625" stop-color="#89CBA6"/>
<stop offset="1" stop-color="#A5D571"/>
</linearGradient>
<linearGradient id="paint61_linear_5426_3940" x1="117.58" y1="109.763" x2="121.839" y2="109.761" gradientUnits="userSpaceOnUse">
<stop stop-color="#FFC6D9"/>
<stop offset="0.333333" stop-color="#7CCFE1"/>
<stop offset="0.640625" stop-color="#89CBA6"/>
<stop offset="1" stop-color="#A5D571"/>
</linearGradient>
<linearGradient id="paint62_linear_5426_3940" x1="97.5737" y1="93.1007" x2="101.833" y2="93.099" gradientUnits="userSpaceOnUse">
<stop stop-color="#FFC6D9"/>
<stop offset="0.333333" stop-color="#7CCFE1"/>
<stop offset="0.640625" stop-color="#89CBA6"/>
<stop offset="1" stop-color="#A5D571"/>
</linearGradient>
<linearGradient id="paint63_linear_5426_3940" x1="122.701" y1="98.008" x2="126.96" y2="98.0062" gradientUnits="userSpaceOnUse">
<stop stop-color="#FFC6D9"/>
<stop offset="0.333333" stop-color="#7CCFE1"/>
<stop offset="0.640625" stop-color="#89CBA6"/>
<stop offset="1" stop-color="#A5D571"/>
</linearGradient>
<linearGradient id="paint64_linear_5426_3940" x1="135.888" y1="84.2138" x2="140.147" y2="84.212" gradientUnits="userSpaceOnUse">
<stop stop-color="#FFC6D9"/>
<stop offset="0.333333" stop-color="#7CCFE1"/>
<stop offset="0.640625" stop-color="#89CBA6"/>
<stop offset="1" stop-color="#A5D571"/>
</linearGradient>
<linearGradient id="paint65_linear_5426_3940" x1="141.302" y1="88.0741" x2="145.561" y2="88.0724" gradientUnits="userSpaceOnUse">
<stop stop-color="#FFC6D9"/>
<stop offset="0.333333" stop-color="#7CCFE1"/>
<stop offset="0.640625" stop-color="#89CBA6"/>
<stop offset="1" stop-color="#A5D571"/>
</linearGradient>
<linearGradient id="paint66_linear_5426_3940" x1="138.757" y1="96.3505" x2="143.016" y2="96.3487" gradientUnits="userSpaceOnUse">
<stop stop-color="#FFC6D9"/>
<stop offset="0.333333" stop-color="#7CCFE1"/>
<stop offset="0.640625" stop-color="#89CBA6"/>
<stop offset="1" stop-color="#A5D571"/>
</linearGradient>
<linearGradient id="paint67_linear_5426_3940" x1="158.101" y1="89.6225" x2="162.36" y2="89.6207" gradientUnits="userSpaceOnUse">
<stop stop-color="#FFC6D9"/>
<stop offset="0.333333" stop-color="#7CCFE1"/>
<stop offset="0.640625" stop-color="#89CBA6"/>
<stop offset="1" stop-color="#A5D571"/>
</linearGradient>
<linearGradient id="paint68_linear_5426_3940" x1="152.773" y1="92.7084" x2="157.032" y2="92.7066" gradientUnits="userSpaceOnUse">
<stop stop-color="#FFC6D9"/>
<stop offset="0.333333" stop-color="#7CCFE1"/>
<stop offset="0.640625" stop-color="#89CBA6"/>
<stop offset="1" stop-color="#A5D571"/>
</linearGradient>
<linearGradient id="paint69_linear_5426_3940" x1="172.882" y1="105.292" x2="177.141" y2="105.29" gradientUnits="userSpaceOnUse">
<stop stop-color="#FFC6D9"/>
<stop offset="0.333333" stop-color="#7CCFE1"/>
<stop offset="0.640625" stop-color="#89CBA6"/>
<stop offset="1" stop-color="#A5D571"/>
</linearGradient>
<linearGradient id="paint70_linear_5426_3940" x1="145.81" y1="119.097" x2="150.069" y2="119.096" gradientUnits="userSpaceOnUse">
<stop stop-color="#FFC6D9"/>
<stop offset="0.333333" stop-color="#7CCFE1"/>
<stop offset="0.640625" stop-color="#89CBA6"/>
<stop offset="1" stop-color="#A5D571"/>
</linearGradient>
<linearGradient id="paint71_linear_5426_3940" x1="138.626" y1="114.354" x2="142.885" y2="114.352" gradientUnits="userSpaceOnUse">
<stop stop-color="#FFC6D9"/>
<stop offset="0.333333" stop-color="#7CCFE1"/>
<stop offset="0.640625" stop-color="#89CBA6"/>
<stop offset="1" stop-color="#A5D571"/>
</linearGradient>
<clipPath id="clip0_5426_3940">
<rect width="285" height="203" rx="5.93567" fill="white"/>
</clipPath>
<clipPath id="clip1_5426_3940">
<rect width="179.906" height="126.906" fill="white" transform="translate(51.4297 58.8333)"/>
</clipPath>
</defs>
</svg>
