<svg width="285" height="203" viewBox="0 0 285 203" fill="none" xmlns="http://www.w3.org/2000/svg">
<g clip-path="url(#clip0_5426_4054)">
<rect width="285" height="203" rx="5.93567" fill="#1C1C1C"/>
<path d="M304.555 200.076H-3.15671V142.388L40.8021 96.7756L106.195 145.132L139.705 113.812L183.118 155.572L202.354 139.635L218.836 164.913L241.105 176.76L273.78 186.892L284.22 184.148L304.555 200.076Z" fill="#29196B"/>
<path d="M304.555 200.076L278.861 170.955L259.182 182.495L240.594 159.97L217.644 174.253L176.642 135.247L155.873 150.075L138.384 134.692L124.71 146.232L82.6267 116.556L59.1229 143.488L33.9745 123.707L14.2957 140.19L-3.19363 124.798V200.631L304.555 200.076Z" fill="#432F94"/>
<g opacity="0.21" clip-path="url(#clip1_5426_4054)">
<path d="M69.8396 -15.4368L293.079 -0.0550702L340.736 88.7466L365.171 164.15L238.167 257.041L132.111 214.468L14.499 216.025L-17.4258 61.2133L69.8396 -15.4368Z" stroke="#576F87" stroke-width="0.559035" stroke-miterlimit="10"/>
<path d="M14.5 216.025L148.201 111.894" stroke="#576F87" stroke-width="0.559035" stroke-miterlimit="10"/>
<path d="M-17.4258 61.2134L148.966 110.524L132.111 214.468" stroke="#576F87" stroke-width="0.559035" stroke-miterlimit="10"/>
<path d="M340.735 88.7466L217.076 126.416L238.167 257.041" stroke="#576F87" stroke-width="0.559035" stroke-miterlimit="10"/>
<path d="M365.17 164.15C365.17 164.15 216.926 124.859 217.082 126.416" stroke="#576F87" stroke-width="0.559035" stroke-miterlimit="10"/>
<path d="M148.966 110.524L293.079 -0.0550702L217.077 126.416L148.966 110.524ZM148.966 110.524L69.8398 -15.4368" stroke="#576F87" stroke-width="0.559035" stroke-miterlimit="10"/>
<path d="M132.111 216.025L217.077 126.416" stroke="#576F87" stroke-width="0.559035" stroke-miterlimit="10"/>
<path d="M218.646 126.416C218.646 127.275 217.944 127.98 217.074 127.98C216.203 127.98 215.502 127.282 215.502 126.416C215.502 125.55 216.203 124.853 217.074 124.853C217.944 124.853 218.646 125.55 218.646 126.416Z" fill="#E9FC87"/>
<path d="M150.529 110.524C150.529 111.383 149.827 112.087 148.957 112.087C148.086 112.087 147.385 111.39 147.385 110.524C147.385 109.658 148.086 108.961 148.957 108.961C149.827 108.961 150.529 109.658 150.529 110.524Z" fill="#E9FC87"/>
</g>
<path d="M-10.0809 232.712L-5.64073 195.269L438.14 112.963L429.587 251.298L-10.0809 232.712Z" fill="#1C1C1C" stroke="#E9FC87" stroke-width="1.67711"/>
<path fill-rule="evenodd" clip-rule="evenodd" d="M193.395 144.642C192.988 144.399 192.604 144.106 192.251 143.769L185.005 136.83L185.489 136.325L192.737 143.262C194.389 144.842 196.814 145.307 198.934 144.45C201.053 143.59 202.471 141.567 202.555 139.282L203.248 120.625C203.353 117.797 201.326 115.335 198.529 114.894L178.861 111.801L178.969 111.108L196.479 113.861L196.767 110.982C196.965 109.02 196.046 107.112 194.389 106.04L170.589 90.6578C168.157 89.0849 165.197 88.5482 162.368 89.1655L139.129 94.2404C136.904 94.7261 135.245 96.5903 135.017 98.8559C134.77 101.334 134.388 104.069 133.939 107.166L138.2 110.523C138.812 111.005 139.092 111.798 138.921 112.557C138.749 113.318 138.154 113.911 137.393 114.082L132.799 115.115C132.52 117.144 132.238 119.305 131.961 121.612C133.695 122.752 135.62 123.719 137.63 124.536C137.86 124.629 138.091 124.722 138.323 124.811C140.357 125.597 141.519 126 142.186 126.202L141.982 126.873C141.307 126.668 140.129 126.261 138.07 125.465C137.833 125.374 137.598 125.281 137.365 125.184C135.242 124.322 133.209 123.294 131.392 122.077C130.68 121.6 130.002 121.093 129.363 120.557C128.318 119.68 127.326 118.24 126.454 116.541L116.587 118.761C116.485 118.784 116.376 118.761 116.292 118.694L112.239 115.501C112.876 118.572 113.825 121.756 115.138 124.269C116.275 126.444 117.697 128.586 119.382 130.603C120.999 132.537 122.854 134.358 124.93 135.978L125.221 136.009L125.202 136.187C125.891 136.714 126.605 137.221 127.342 137.702C127.757 136.117 129.404 134.87 131.203 135.536L131.214 135.511C131.278 135.543 131.343 135.576 131.403 135.615C133.369 136.362 135.612 136.515 138.058 136.381C138.365 136.365 138.668 136.394 138.959 136.462C141.076 136.644 142.572 136.304 144.357 135.981L144.481 136.672C143.078 136.925 141.847 137.184 140.378 137.213C140.483 137.307 140.581 137.411 140.674 137.521V137.523C141.777 138.85 141.812 140.502 141.164 141.898C140.597 143.115 139.506 144.132 138.165 144.558C139.713 145.042 141.03 145.141 142.54 145.309L142.461 146.007C140.532 145.789 138.907 145.677 136.758 144.793L136.769 144.77C136.225 144.769 135.661 144.669 135.087 144.451C132.35 143.413 130.756 142.547 128.56 140.928C127.626 140.237 127.238 139.343 127.24 138.472C126.345 137.9 125.484 137.291 124.657 136.653L121.528 136.311C121.993 136.737 122.381 137.283 122.684 137.921C123.54 139.725 123.71 142.287 122.963 144.913C122.218 147.539 120.723 149.628 119.047 150.712C118.737 150.912 118.421 151.078 118.102 151.208C125.257 152.556 129.232 152.925 136.83 152.941L136.829 153.642C135.869 153.639 134.966 153.631 134.107 153.617L138.912 156.695C141.581 155.24 144.053 153.889 144.053 153.889L144.39 154.505L134.456 159.927C135.082 160.013 135.713 160.239 136.329 160.592C138.061 161.586 139.662 163.594 140.546 166.175C141.43 168.758 141.395 171.327 140.636 173.172C140.455 173.61 140.234 174.008 139.976 174.357C147.447 171.522 154.377 167.678 160.644 162.594L161.086 163.139C159.433 164.481 157.733 165.737 155.99 166.912C158.977 168.216 161.419 168.313 163.285 167.922L167.075 167.127C167.175 166.868 167.285 166.612 167.404 166.359L171.069 158.634L171.703 158.936L168.037 166.659C167.373 168.062 167.02 169.591 167.005 171.143L166.889 182.445C166.891 183.381 167.429 184.237 168.314 184.94C169.733 186.066 172.027 186.787 174.606 186.787C177.188 186.787 179.481 186.066 180.9 184.94C181.786 184.237 182.326 183.38 182.326 182.443V175.464C181.849 176.034 181.372 176.572 180.9 177.063L180.393 176.579C183.892 172.925 187.743 166.659 189.4 163.848C189.951 162.91 190.382 161.908 190.689 160.863C192.905 153.372 192.644 152.206 193.395 144.642ZM144.609 100.459L161.33 111.173C164.081 112.936 167.415 113.548 170.612 112.876L170.757 113.563C167.378 114.272 163.859 113.625 160.951 111.762L144.231 101.05L144.609 100.459Z" fill="#FF85D0"/>
<path fill-rule="evenodd" clip-rule="evenodd" d="M138.843 137.156C138.786 137.151 138.728 137.146 138.67 137.139L138.672 137.118C138.482 137.084 138.289 137.072 138.095 137.083C135.999 137.195 133.013 136.4 131.247 135.931C129.186 135.383 128.331 136.299 127.89 137.226C127.426 138.2 127.487 139.774 128.767 140.646C130.414 141.766 133.123 142.957 135.335 143.795C137.598 144.653 139.704 143.368 140.525 141.602C141.063 140.444 141.048 139.073 140.132 137.97C139.796 137.565 139.341 137.284 138.843 137.156Z" fill="white"/>
<path fill-rule="evenodd" clip-rule="evenodd" d="M116.128 150.828C116.972 150.919 117.845 150.654 118.667 150.123C120.225 149.116 121.596 147.163 122.29 144.722C122.985 142.281 122.846 139.899 122.052 138.223C121.561 137.188 120.819 136.427 119.862 136.129L119.563 136.096C119.558 136.096 119.553 136.094 119.548 136.094C118.459 135.927 117.454 136.325 116.579 137.069C115.19 138.245 114.127 140.271 113.561 142.417C112.993 144.56 112.919 146.829 113.547 148.508C113.94 149.554 114.61 150.365 115.625 150.728C115.795 150.761 115.962 150.794 116.128 150.828Z" fill="#FF85D0"/>
<path fill-rule="evenodd" clip-rule="evenodd" d="M137.891 175.119C138.842 174.773 139.549 173.972 139.987 172.906C140.692 171.191 140.704 168.804 139.883 166.403C139.061 164.002 137.59 162.124 135.98 161.2C134.986 160.63 133.942 160.429 132.985 160.73L132.723 160.872C132.72 160.876 132.715 160.878 132.709 160.879C131.72 161.363 131.122 162.265 130.828 163.373C130.358 165.132 130.64 167.403 131.396 169.488C132.154 171.573 133.386 173.479 134.859 174.498C135.784 175.138 136.799 175.42 137.844 175.134C137.86 175.129 137.876 175.124 137.891 175.119Z" fill="#FF85D0"/>
<path fill-rule="evenodd" clip-rule="evenodd" d="M148.563 171.304L148.549 172.604C148.549 173.54 149.089 174.398 149.975 175.099C151.394 176.225 153.686 176.946 156.267 176.946C158.848 176.946 161.142 176.225 162.561 175.099C163.446 174.396 163.986 173.54 163.986 172.602V168.49L163.427 168.607C161.37 169.039 158.645 168.927 155.299 167.369C153.119 168.804 150.873 170.112 148.563 171.304Z" fill="#FF85D0"/>
<path fill-rule="evenodd" clip-rule="evenodd" d="M106.071 98.2755L111.109 107.64L111.231 107.634C111.233 107.717 111.237 107.799 111.24 107.883L116.692 118.018L137.239 113.397C137.735 113.286 138.125 112.899 138.237 112.403C138.349 111.906 138.167 111.389 137.767 111.075L119.209 96.4535C118.5 95.8958 117.581 95.6871 116.703 95.8853L106.071 98.2755ZM136.022 112.183L117.504 116.346L117.352 115.662L135.87 111.498L136.022 112.183ZM117.308 103.193C116.99 102.942 116.843 102.53 116.934 102.133C117.024 101.737 117.332 101.428 117.729 101.339L120.789 100.652C121.304 100.536 121.844 100.659 122.258 100.985L128.101 105.588C128.42 105.839 128.566 106.251 128.476 106.647C128.387 107.043 128.077 107.352 127.68 107.442L124.622 108.129C124.106 108.245 123.566 108.122 123.151 107.796L117.308 103.193Z" fill="#E9FC87"/>
<path fill-rule="evenodd" clip-rule="evenodd" d="M117.742 102.642L123.585 107.245C123.834 107.442 124.157 107.514 124.467 107.445L127.527 106.756C127.659 106.728 127.762 106.624 127.792 106.493C127.822 106.36 127.773 106.223 127.668 106.139L121.825 101.535C121.576 101.341 121.251 101.267 120.943 101.336L117.883 102.025C117.751 102.053 117.648 102.156 117.618 102.289C117.588 102.421 117.635 102.558 117.742 102.642Z" fill="white"/>
<path fill-rule="evenodd" clip-rule="evenodd" d="M94.2203 100.413L115.4 117.099L111.239 109.363C110.969 109.03 110.769 108.665 110.652 108.273L104.158 96.2008C103.998 95.9045 103.779 95.6431 103.514 95.4345L84.0599 80.108C83.9302 80.0063 83.7443 80.008 83.618 80.115C83.49 80.222 83.4549 80.4043 83.5339 80.5499L94.2203 100.413ZM98.4167 95.2924C99.6162 96.0623 100.833 97.9175 101.13 99.4362C101.301 100.327 101.112 100.937 100.765 101.225C100.398 101.53 99.7916 101.556 99.048 101.079C97.8503 100.309 96.6316 98.4542 96.337 96.9356C96.1634 96.0447 96.3527 95.4344 96.6999 95.1469C97.0682 94.8435 97.6732 94.8154 98.4167 95.2924Z" fill="#E9FC87"/>
<path fill-rule="evenodd" clip-rule="evenodd" d="M148.178 91.5467L140.921 84.8093C139.39 83.3871 137.17 82.989 135.24 83.7922C133.311 84.5953 132.027 86.4507 131.957 88.541L131.483 102.531L131.133 102.521L131.483 102.533L131.383 105.155L133.3 106.664C133.723 103.743 134.081 101.148 134.317 98.7855C134.575 96.2182 136.457 94.107 138.978 93.5546L148.178 91.5467Z" fill="#FF85D0"/>
<path d="M132.484 114.827C132.186 116.991 131.882 119.304 131.587 121.786C131.583 121.82 131.579 121.853 131.575 121.886M196.79 114.267L197.116 111.018C197.325 108.924 196.346 106.889 194.579 105.746L170.779 90.3634C168.268 88.7404 165.214 88.1862 162.293 88.8241L139.054 93.8992C136.681 94.4181 134.91 96.4046 134.668 98.8225C134.415 101.348 134.022 104.144 133.562 107.316M180.648 176.822C184.163 173.149 188.036 166.853 189.701 164.027C190.267 163.064 190.711 162.035 191.026 160.964C193.273 153.369 192.984 152.25 193.766 144.454" stroke="#242728" stroke-width="0.850018" stroke-miterlimit="1.5" stroke-linejoin="round"/>
<path d="M144.418 100.755C153.514 106.584 154.261 107.063 161.138 111.469C163.967 113.281 167.394 113.911 170.683 113.221" stroke="#242728" stroke-width="0.850018" stroke-miterlimit="1.5" stroke-linejoin="round"/>
<path d="M131.026 105.321L131.134 102.522C131.279 98.2467 131.451 93.1237 131.606 88.53C131.682 86.304 133.049 84.3264 135.106 83.4706C137.163 82.6151 139.529 83.0382 141.162 84.5541C143.746 86.9538 146.505 89.5164 148.9 91.7404" stroke="#242728" stroke-width="0.851" stroke-miterlimit="1.5" stroke-linejoin="round"/>
<path d="M178.916 111.454C178.916 111.454 191.29 113.401 198.584 114.548C201.556 115.016 203.711 117.631 203.599 120.639C203.42 125.463 203.147 132.817 202.908 139.295C202.817 141.718 201.314 143.863 199.066 144.774C196.82 145.685 194.247 145.192 192.496 143.515C188.693 139.876 185.249 136.578 185.249 136.578" stroke="#242728" stroke-width="0.850942" stroke-miterlimit="1.5" stroke-linejoin="round"/>
<path d="M191.467 159.003C191.834 159.235 192.23 159.445 192.665 159.623C194.768 160.484 197.01 159.861 198.876 159.999" stroke="#242728" stroke-width="0.851046" stroke-miterlimit="1.5" stroke-linejoin="round"/>
<path fill-rule="evenodd" clip-rule="evenodd" d="M203.6 159.353C203.525 158.612 200.44 158.32 199.699 158.395C198.959 158.47 198.418 159.133 198.493 159.873C198.568 160.613 199.23 161.154 199.971 161.079C200.711 161.004 203.675 160.093 203.6 159.353Z" fill="#FF85D0" stroke="#242728" stroke-width="0.851046" stroke-miterlimit="1.5" stroke-linejoin="round"/>
<path d="M110.881 107.65C110.885 107.758 110.889 107.869 110.894 107.982M111.712 114.64C112.35 118.023 113.368 121.638 114.829 124.434C115.976 126.629 117.412 128.793 119.114 130.83C120.766 132.808 122.667 134.666 124.794 136.317C125.691 137.013 126.627 137.672 127.602 138.288M142.085 126.539C141.415 126.335 140.243 125.931 138.197 125.14C137.963 125.049 137.73 124.957 137.498 124.862C135.397 124.007 133.387 122.992 131.588 121.787C130.887 121.318 130.218 120.819 129.589 120.29C128.525 119.397 127.52 117.897 126.645 116.141" stroke="#242728" stroke-width="0.850995" stroke-miterlimit="1.5" stroke-linejoin="round"/>
<path d="M99.1731 100.759C97.9789 99.9915 96.7721 98.1433 96.4778 96.6306C96.1835 95.1179 96.9129 94.5134 98.1072 95.2805C99.3014 96.0476 100.508 97.8958 100.802 99.4085C101.097 100.921 100.367 101.526 99.1731 100.759Z" fill="white"/>
<path fill-rule="evenodd" clip-rule="evenodd" d="M98.2979 94.9859C97.5247 94.4892 96.8939 94.5148 96.5116 94.8314C96.1495 95.1314 95.9533 95.7692 96.134 96.6979C96.4445 98.2935 97.7237 100.244 98.9846 101.054C99.7568 101.55 100.388 101.525 100.77 101.208C101.132 100.908 101.328 100.27 101.147 99.3416C100.837 97.7453 99.5578 95.7951 98.2979 94.9859ZM97.9187 95.5763C99.0453 96.2999 100.181 98.0485 100.459 99.4758C100.522 99.803 100.535 100.081 100.495 100.304C100.466 100.465 100.415 100.591 100.323 100.668C100.244 100.733 100.138 100.75 100.015 100.735C99.8249 100.713 99.6071 100.62 99.3637 100.464C98.2363 99.7396 97.1005 97.991 96.8228 96.5637C96.7591 96.2366 96.7473 95.9585 96.7869 95.7356C96.8151 95.5748 96.8672 95.4479 96.9596 95.3717C97.0377 95.3063 97.144 95.2893 97.2675 95.3039C97.4566 95.3263 97.6744 95.4194 97.9187 95.5763Z" fill="#242728"/>
<path fill-rule="evenodd" clip-rule="evenodd" d="M105.469 97.6946L105.623 98.379L116.703 95.8872C117.582 95.6897 118.502 95.8979 119.209 96.4547L137.768 111.076C138.168 111.391 138.35 111.908 138.237 112.403C138.125 112.9 137.738 113.288 137.242 113.399L116.597 118.042L94.1647 100.37L93.7307 100.92L116.294 118.696C116.378 118.762 116.485 118.786 116.588 118.763L137.394 114.084C138.156 113.912 138.75 113.319 138.923 112.56C139.094 111.799 138.814 111.007 138.202 110.525L119.643 95.9037C118.77 95.2165 117.634 94.959 116.549 95.2029L105.469 97.6946Z" fill="#242728"/>
<path fill-rule="evenodd" clip-rule="evenodd" d="M136.021 112.182L135.867 111.497L117.349 115.662L117.503 116.347L136.021 112.182Z" fill="#242728"/>
<path fill-rule="evenodd" clip-rule="evenodd" d="M117.308 103.194L123.151 107.797C123.565 108.124 124.105 108.246 124.62 108.13L127.679 107.442C128.075 107.353 128.385 107.044 128.475 106.649C128.565 106.253 128.419 105.841 128.1 105.59L122.257 100.987C121.843 100.66 121.302 100.537 120.787 100.653L117.727 101.341C117.331 101.43 117.022 101.739 116.932 102.135C116.843 102.531 116.989 102.943 117.308 103.194ZM117.741 102.643C117.635 102.56 117.587 102.422 117.616 102.29C117.647 102.158 117.75 102.056 117.882 102.026L120.941 101.338C121.25 101.268 121.574 101.342 121.823 101.538L127.666 106.141C127.772 106.224 127.821 106.362 127.791 106.494C127.761 106.626 127.658 106.729 127.526 106.758L124.466 107.446C124.157 107.516 123.833 107.442 123.584 107.246L117.741 102.643Z" fill="#242728"/>
<path fill-rule="evenodd" clip-rule="evenodd" d="M93.7414 100.92L116.305 118.696C116.434 118.798 116.62 118.795 116.747 118.688C116.873 118.581 116.908 118.399 116.83 118.254L104.788 95.8692C104.582 95.4882 104.301 95.1529 103.961 94.8855L84.5067 79.5591C84.1148 79.2504 83.5595 79.2585 83.1783 79.5798C82.7965 79.9 82.6922 80.4444 82.9275 80.8832L93.6493 100.81C93.6719 100.853 93.7037 100.89 93.7414 100.92ZM94.2322 100.414L83.5463 80.5514C83.4686 80.4059 83.5033 80.2244 83.6301 80.1173C83.7568 80.0101 83.9422 80.0074 84.0717 80.1095L103.528 95.4372C103.792 95.6452 104.011 95.9058 104.17 96.2024L115.413 117.1L94.2322 100.414Z" fill="#242728"/>
<path d="M132.802 153.196L138.684 156.965" stroke="#242728" stroke-width="0.850795" stroke-miterlimit="1.5" stroke-linejoin="round"/>
<path d="M155.27 166.97C158.607 168.562 161.318 168.692 163.356 168.266L167.359 167.426" stroke="#242728" stroke-width="0.850795" stroke-miterlimit="1.5" stroke-linejoin="round"/>
<path fill-rule="evenodd" clip-rule="evenodd" d="M140.401 137.747C139.828 137.061 138.966 136.685 138.073 136.732C135.516 136.87 133.178 136.698 131.138 135.889C128.433 134.815 126.105 138.684 128.765 140.646C130.933 142.245 132.505 143.1 135.21 144.124C139.303 145.674 142.924 140.787 140.401 137.747Z" stroke="#242728" stroke-width="0.850841" stroke-miterlimit="1.5" stroke-linejoin="round"/>
<path d="M138.705 136.792C140.975 137.02 142.539 136.665 144.419 136.328" stroke="#242728" stroke-width="0.850841" stroke-miterlimit="1.5" stroke-linejoin="round"/>
<path d="M136.893 144.471C139.003 145.339 140.603 145.445 142.501 145.659" stroke="#242728" stroke-width="0.85084" stroke-miterlimit="1.5" stroke-linejoin="round"/>
<path d="M171.385 158.785C171.385 158.785 169.109 163.586 167.722 166.508C167.035 167.956 166.671 169.536 166.654 171.139C166.614 175.084 166.538 182.443 166.538 182.443C166.539 185.034 170.154 187.137 174.608 187.137C179.061 187.137 182.677 185.034 182.677 182.443L182.677 174.48" stroke="#242728" stroke-width="0.851273" stroke-miterlimit="1.5" stroke-linejoin="round"/>
<path d="M148.216 171.09L148.2 172.604C148.201 175.195 151.816 177.298 156.27 177.298C160.723 177.298 164.339 175.195 164.339 172.604L164.339 168.06" stroke="#242728" stroke-width="0.851273" stroke-miterlimit="1.5" stroke-linejoin="round"/>
<path d="M132.801 160.421C135.47 159.507 138.793 162.137 140.214 166.289C141.635 170.442 140.62 174.556 137.951 175.469" stroke="#242728" stroke-width="0.850249" stroke-miterlimit="1.5" stroke-linejoin="round"/>
<path d="M119.883 135.77C122.597 136.542 123.826 140.596 122.626 144.818C121.425 149.039 118.245 151.84 115.532 151.068" stroke="#242728" stroke-width="0.850249" stroke-miterlimit="1.5" stroke-linejoin="round"/>
<path d="M131.064 135.829C132.141 136.342 132.502 137.838 131.869 139.167C131.235 140.496 129.847 141.159 128.77 140.646" stroke="#242728" stroke-width="0.843222" stroke-miterlimit="1.5" stroke-linejoin="round"/>
<path d="M144.22 154.198L132.554 160.565C127.147 163.209 132.192 177.069 137.949 175.47C146.277 172.56 153.968 168.459 160.863 162.868" stroke="#242728" stroke-width="0.850906" stroke-miterlimit="1.5" stroke-linejoin="round"/>
<path d="M124.973 136.477L119.599 135.748C113.65 134.837 109.89 149.098 115.531 151.069C124.379 152.821 128.363 153.275 136.828 153.291" stroke="#242728" stroke-width="0.850907" stroke-miterlimit="1.5" stroke-linejoin="round"/>
</g>
<rect x="0.296784" y="0.296784" width="284.406" height="202.406" rx="5.63889" stroke="#272727" stroke-width="0.593567"/>
<defs>
<clipPath id="clip0_5426_4054">
<rect width="285" height="203" rx="5.93567" fill="white"/>
</clipPath>
<clipPath id="clip1_5426_4054">
<rect width="385.734" height="275.604" fill="white" transform="translate(-19 -17)"/>
</clipPath>
</defs>
</svg>
