<svg width="278" height="352" viewBox="0 0 278 352" fill="none" xmlns="http://www.w3.org/2000/svg">
<path fill-rule="evenodd" clip-rule="evenodd" d="M228.956 175.325C228.956 175.325 236.254 178.668 244.19 182.301C255.364 187.423 260.663 200.328 256.307 211.824C249.04 230.996 239.275 256.748 239.275 256.748L248.388 260.391C268.472 272.727 252.687 308.544 232.567 303.404L193.703 292.12C187.374 288.271 183.133 283.593 179.953 278.488L166.7 286.747C149.686 311.79 130.69 332.006 110.5 349.306C95.3268 355.741 76.4497 338.872 71.922 315.89C66.2447 316.93 61.3074 315.08 57.0572 310.565C49.3583 315.573 40.9946 319.255 32.0933 321.863C27.8167 323.118 23.2624 323.078 19.0122 321.744C8.01449 318.26 3.12995 311.05 2.52655 301.228C2.16539 295.696 4.84331 290.411 9.51635 287.434C16.048 283.294 22.4299 278.532 28.5872 272.868C30.6 271.014 32.3928 268.935 33.9299 266.671C41.3733 255.753 44.901 243.667 45.0948 230.604L144.4 206.45L43.9894 188.423C32.4544 189.938 29.7369 185.314 26.3631 176.448L10.1241 118.53C10.2034 108.149 18.7435 95.5658 33.2647 96.8739L51.0233 101.829L95.3048 102.855L228.956 175.325Z" fill="#84EA9A"/>
<path fill-rule="evenodd" clip-rule="evenodd" d="M228.958 136.366C228.958 131.075 225.994 126.228 221.283 123.817C203.381 114.661 158.849 91.884 138.528 81.4913C131.867 78.0826 124.122 77.4655 117.003 79.7715C100.651 85.0708 70.3803 94.8792 54.8489 99.9131C49.0356 101.797 45.0977 107.212 45.0977 113.322C45.0977 139.641 45.0977 209.261 45.0977 233.727C45.0977 239.032 48.078 243.889 52.8105 246.292C70.7214 255.388 115.145 277.951 135.334 288.206C141.922 291.551 149.56 292.177 156.604 289.947C172.961 284.771 203.456 275.119 219.117 270.161C224.977 268.307 228.958 262.87 228.958 256.724C228.958 230.339 228.958 160.782 228.958 136.366Z" fill="#84EA9A"/>
<path d="M228.958 175.33C228.958 159.299 228.958 145.006 228.958 136.366C228.958 131.075 225.994 126.228 221.283 123.817C203.381 114.661 158.849 91.884 138.528 81.4913C131.867 78.0826 124.122 77.4655 117.003 79.7715C100.651 85.0708 70.3803 94.8792 54.8489 99.9131C49.0356 101.797 45.0977 107.212 45.0977 113.322C45.0977 138.532 45.0977 201.534 45.0977 201.534M165.415 287.159C172.56 284.896 180.238 282.467 189.976 279.385M91.9054 266.147L103.781 272.179C94.9034 284.055 86.6644 294.557 75.5772 306.254C61.2586 321.635 95.042 360.507 111.81 348.094C135.317 328.191 155.259 305.2 170.744 278.346" stroke="black" stroke-width="3" stroke-miterlimit="1.5" stroke-linejoin="round"/>
<path d="M66.8623 114.126C88.0463 124.887 119.318 140.768 135.334 148.902C141.922 152.249 149.56 152.874 156.604 150.645C165.104 147.954 187.004 141.237 197.915 137.783" stroke="#242728" stroke-width="3" stroke-miterlimit="1.5" stroke-linejoin="round"/>
<path d="M76.1992 305.495C83.7721 299.165 97.8973 303.566 107.718 315.32C117.538 327.072 119.36 341.757 111.787 348.087" stroke="black" stroke-width="3" stroke-miterlimit="1.5" stroke-linejoin="round"/>
<path d="M45.1026 201.536C45.1026 201.536 45.38 215.388 45.3637 230.625C45.3386 254.549 32.1853 276.241 10.3738 286.07C3.48602 289.871 2.31311 295.391 2.0767 298.058C1.30667 306.737 6.32483 317.278 17.5724 321.302C24.5229 323.788 31.3612 321.361 32.5661 321C66.2557 310.893 89.128 285.093 97.3316 249.735" stroke="black" stroke-width="3" stroke-miterlimit="1.5" stroke-linejoin="round"/>
<path d="M194.712 158.206C194.712 158.206 228.426 175.063 248.3 185C256.398 189.05 260.19 198.514 257.132 207.036C252.224 220.711 244.739 241.551 238.147 259.911C235.685 266.779 229.418 271.56 222.141 272.124C214.869 272.689 207.94 268.932 204.442 262.527C196.854 248.624 189.982 236.028 189.982 236.028" stroke="black" stroke-width="3" stroke-miterlimit="1.5" stroke-linejoin="round"/>
<path d="M51.0287 101.825C45.9799 100.36 40.825 98.8639 35.8485 97.4187C29.8498 95.6792 22.6599 97.9606 17.4423 103.258C12.2295 108.554 9.94868 115.891 11.6123 122.029C17.153 142.446 23.716 166.655 26.9999 178.749C28.3211 183.629 31.716 187.47 36.5863 188.61C39.6195 189.318 43.998 188.346 43.998 188.346" stroke="black" stroke-width="3" stroke-miterlimit="1.5" stroke-linejoin="round"/>
<path d="M40.5447 111.205C34.5813 108.044 28.405 109.094 26.0371 115.789" stroke="black" stroke-width="3" stroke-miterlimit="1.5" stroke-linejoin="round"/>
<path d="M182.753 280.894C184.877 286.239 188.919 289.868 194.321 292.282C195.018 292.591 195.735 292.851 196.467 293.058C200.57 294.25 221.679 300.248 233.634 303.645C239.563 305.33 245.921 303.553 250.076 299.051C257.416 291.153 260.139 281.822 256.838 270.614C255.543 266.168 252.435 262.532 248.369 260.519" stroke="black" stroke-width="3" stroke-miterlimit="1.5" stroke-linejoin="round"/>
<path d="M58.1348 310.152C61.0477 314.914 66.7002 317.15 72.1254 315.637" stroke="black" stroke-width="3" stroke-miterlimit="1.5" stroke-linejoin="round"/>
<path fill-rule="evenodd" clip-rule="evenodd" d="M93.1416 260.748C95.734 261.197 99.9354 259.845 102.988 256.775C103.916 255.859 104.276 254.512 103.928 253.255C103.581 251.998 102.58 251.027 101.313 250.718C98.8439 250.105 96.3329 249.492 96.3329 249.492L93.1416 260.748Z" fill="black"/>
<path d="M196.404 181.396L232.035 193.771" stroke="black" stroke-width="3" stroke-miterlimit="1.5" stroke-linejoin="round"/>
<path d="M41.8018 252.808C50.0156 250.512 54.9057 254.49 58.5228 260.871" stroke="black" stroke-width="3" stroke-miterlimit="1.5" stroke-linejoin="round"/>
<path d="M37.6729 261.456C44.9978 259.408 49.3587 262.956 52.5844 268.646" stroke="black" stroke-width="3" stroke-miterlimit="1.5" stroke-linejoin="round"/>
<path d="M228.959 151.96C231.137 151.96 234.957 149.296 236.956 148.29C253.143 140.151 242.847 127.029 249.59 113.485C252.638 107.362 258.947 104.322 262.892 100.307" stroke="black" stroke-width="3" stroke-miterlimit="1.5" stroke-linejoin="round"/>
<path fill-rule="evenodd" clip-rule="evenodd" d="M274.877 92.3835C276.172 94.2016 269.759 100.989 267.932 102.292C266.106 103.595 263.572 103.177 262.277 101.359C260.979 99.5381 261.411 97.0049 263.237 95.7019C265.063 94.3989 273.579 90.5623 274.877 92.3835Z" stroke="black" stroke-width="3" stroke-miterlimit="1.5" stroke-linejoin="round"/>
<path d="M12.5479 289.206C26.571 284.422 35.8157 306.35 29.8697 314.271" stroke="black" stroke-width="3" stroke-miterlimit="1.5" stroke-linejoin="round"/>
<path d="M136.957 105.105L124.696 92.8442L112.435 105.105L124.696 117.366L136.957 105.105Z" fill="white"/>
<path d="M95.3062 70.8428L81.1475 56.6841L66.9887 70.8428L81.1474 85.0015L95.3062 70.8428Z" fill="black"/>
<path fill-rule="evenodd" clip-rule="evenodd" d="M176.897 71.8829L186.076 56.7173L169.542 51.3085L167.465 68.6872L176.897 71.8829Z" fill="#E9FC87"/>
<path fill-rule="evenodd" clip-rule="evenodd" d="M119.493 0L127.452 12.3948L141.696 16.1337L132.37 27.5333L133.217 42.2385L119.493 36.8888L105.765 42.2385L106.616 27.5333L97.2852 16.1337L111.535 12.3948L119.493 0Z" fill="#84EA9A"/>
</svg>
