<svg width="500" height="500" viewBox="0 0 500 500" fill="none" xmlns="http://www.w3.org/2000/svg">
<g clip-path="url(#clip0_466_16058)">
<path fill-rule="evenodd" clip-rule="evenodd" d="M176.792 420.101C176.69 420.098 176.587 420.094 176.498 420.091C167.122 419.489 159.273 412.766 157.246 403.61C153.792 388.049 149.853 370.433 145.657 351.764C144.321 351.281 142.993 350.753 141.666 350.194C103.703 360.865 67.4828 349.144 50.7974 341.639C49.9604 341.366 49.1653 340.998 48.4185 340.536C48.3684 340.503 48.3181 340.475 48.2744 340.441C42.1666 336.522 39.3408 326.364 41.8973 315.654C44.4994 304.747 51.8366 296.859 59.1921 296.37C60.253 296.299 61.3148 296.381 62.3643 296.63C63.3438 296.863 64.2735 297.236 65.1411 297.728C65.1977 297.762 65.2543 297.79 65.3044 297.823C73.9779 302.821 83.1728 303.992 92.254 302.777C89.8553 302.051 87.4741 301.192 85.1035 300.217C83.485 299.557 82.5316 297.871 82.8049 296.144C83.0845 294.418 84.5102 293.111 86.2593 292.987C99.9409 292.095 113.427 288.403 126.487 278.514C126.724 278.337 126.962 278.16 127.199 277.976C127.687 277.596 128.212 277.269 128.76 277.006C114.905 215.707 104.889 171.898 97.0111 137.416C93.8157 123.421 102.282 109.404 116.166 105.707L252.588 69.362C259.07 67.6317 265.958 68.4013 271.895 71.5204L415.575 146.908C427.136 152.974 432.606 166.493 428.521 178.872L403.718 253.989C414.211 265.162 418.17 281.311 413.502 296.386L399.491 341.578C396.656 350.722 389.098 357.628 379.725 359.634C376.073 360.42 372.366 360.411 368.819 359.676L366.92 365.445C366.77 365.881 366.131 378.216 366.131 378.216L366.133 437.32C366.129 448.748 350.16 458.028 330.487 458.028C310.814 458.035 294.846 448.756 294.85 437.327L295.008 421.92L295.083 421.448L295.38 392.797C295.42 389.173 296.035 385.588 297.209 382.164L306.156 356.12L306.229 355.693L297.139 382.162C295.958 385.586 295.342 389.177 295.303 392.795L295.008 421.92C288.573 425.4 279.05 427.478 269.621 427.483L269.621 465.772C269.618 477.201 253.648 486.481 233.975 486.481C214.309 486.481 198.335 477.202 198.338 465.78L198.845 416.329C198.716 416.357 198.593 416.384 198.463 416.412L198.186 443.43C192.973 445.166 186.934 446.163 180.5 446.165C160.827 446.165 144.859 436.887 144.857 425.458L145.184 351.728C145.216 351.742 145.247 351.749 145.279 351.763C149.475 370.433 153.414 388.048 156.861 403.61C158.895 412.766 166.737 419.488 176.119 420.09C176.311 420.104 176.535 420.105 176.792 420.101Z" fill="#FF85D0"/>
<g clip-path="url(#clip1_466_16058)">
<path d="M369.664 178.255C369.664 178.255 306.329 192.154 275.889 198.83C265.587 201.086 254.812 199.607 245.509 194.656C216.968 179.458 155.998 147 155.998 147" stroke="black" stroke-width="4" stroke-miterlimit="1.5" stroke-linecap="round" stroke-linejoin="round"/>
</g>
<path d="M145.533 351.718C149.734 370.402 153.678 388.029 157.135 403.599C159.163 412.761 167.008 419.476 176.385 420.084C179.421 420.279 188.483 418.456 212.294 413.541M269.52 401.708C278.191 399.832 286.727 397.978 294.744 396.23M403.606 253.999C411.428 230.31 423.608 193.422 428.41 178.887C432.497 166.506 427.02 152.985 415.463 146.922C378.021 127.277 298.772 85.6922 271.775 71.5253C265.839 68.4113 258.948 67.6462 252.464 69.372C226.075 76.3954 154.347 95.5071 116.041 105.705C102.148 109.404 93.6873 123.42 96.8807 137.415C105.131 173.485 115.703 219.767 130.588 285.596M306.121 355.695C306.121 355.695 300.109 373.194 297.029 382.161C295.857 385.582 295.233 389.177 295.203 392.793C295.068 405.76 294.744 437.32 294.744 437.32C294.744 448.748 310.712 458.03 330.391 458.03C350.062 458.03 366.029 448.748 366.029 437.32V378.221C366.029 378.221 366.668 365.885 366.818 365.443C369.809 356.378 366.27 367.108 368.719 359.68" stroke="black" stroke-width="4" stroke-miterlimit="1.5" stroke-linecap="round" stroke-linejoin="round"/>
<path d="M244.623 253.973L214.34 332.446" stroke="black" stroke-width="4" stroke-miterlimit="1.5" stroke-linecap="round" stroke-linejoin="round"/>
<path d="M198.749 416.33L198.226 465.779C198.223 477.209 214.188 486.482 233.861 486.477C253.526 486.469 269.5 477.186 269.502 465.756L269.524 401.686" stroke="black" stroke-width="4" stroke-miterlimit="1.5" stroke-linejoin="round"/>
<path d="M145.461 351.72L145.115 425.458C145.112 436.889 161.077 446.162 180.751 446.157C187.18 446.153 193.215 445.157 198.433 443.421" stroke="black" stroke-width="4" stroke-miterlimit="1.5" stroke-linejoin="round"/>
<path d="M270.513 427.534C280.227 427.528 289.049 425.261 295.479 421.585" stroke="black" stroke-width="4" stroke-miterlimit="1.5" stroke-linejoin="round"/>
<path fill-rule="evenodd" clip-rule="evenodd" d="M128.76 278.19L131.653 285.078L116.828 294.315L99.9974 301.158L91.6796 302.832L86.9456 300.333L83.2188 297.79L83.677 294.631L84.9622 293.325L89.7109 292.679C89.7109 292.679 101.327 291.426 107.346 288.823C113.364 286.219 128.76 278.19 128.76 278.19Z" fill="white"/>
<path d="M177.13 266.548C169.968 261.386 162.968 258.947 155.035 265.597C149.355 270.085 102.411 319.276 65.1814 297.802C65.1255 297.77 65.07 297.738 65.0141 297.705C62.8087 296.42 60.8323 296.031 59.0685 296.345M48.1576 340.418C48.2051 340.456 48.254 340.487 48.3036 340.511C49.0451 340.865 49.8387 341.234 50.6823 341.614C67.3734 349.125 103.598 360.854 141.562 350.196" stroke="black" stroke-width="4" stroke-miterlimit="1.5" stroke-linejoin="round"/>
<path fill-rule="evenodd" clip-rule="evenodd" d="M192.747 330.741C189.177 327.418 183.8 326.945 179.709 329.599C166.907 337.82 154.143 340.685 141.382 340.931C139.321 340.979 137.568 342.448 137.157 344.465C136.751 346.487 137.795 348.517 139.683 349.359C153.77 355.791 168.751 357.694 184.671 354.831C196.854 352.637 199.963 337.583 192.747 330.741Z" fill="white" stroke="black" stroke-width="4" stroke-miterlimit="1.5" stroke-linejoin="round"/>
<path d="M128.758 276.948C128.171 277.218 127.605 277.557 127.08 277.966C126.843 278.147 126.612 278.328 126.374 278.509C113.309 288.394 99.8191 292.086 86.136 292.972C84.3958 293.102 82.9655 294.406 82.6915 296.133C82.4175 297.859 83.3673 299.55 84.987 300.205C87.5702 301.27 90.1679 302.192 92.7858 302.961" stroke="black" stroke-width="4" stroke-miterlimit="1.5" stroke-linejoin="round"/>
<path d="M182.131 328.368C188.896 325.187 192.694 321.555 197.408 317.443" stroke="black" stroke-width="4" stroke-miterlimit="1.5" stroke-linejoin="round"/>
<path d="M185.465 354.678C192.864 353.56 200.796 350.465 206.49 347.868" stroke="black" stroke-width="4" stroke-miterlimit="1.5" stroke-linejoin="round"/>
<path d="M126.09 289.159C135.145 287.956 141.78 294.549 141.913 303.053" stroke="black" stroke-width="4" stroke-miterlimit="1.5" stroke-linejoin="round"/>
<path d="M51.4369 341.846C43.1172 339.867 38.7912 328.139 41.7746 315.65C44.7579 303.161 53.9207 294.641 62.2404 296.62C70.5602 298.599 74.8862 310.327 71.9029 322.816C68.9196 335.305 59.7566 343.825 51.4369 341.846Z" stroke="black" stroke-width="4" stroke-miterlimit="1.5" stroke-linejoin="round"/>
<path d="M332.009 203.478C332.009 203.478 369.796 229.512 396.618 247.986C412.2 258.73 418.995 278.329 413.402 296.396C409.16 310.074 404.065 326.513 399.391 341.59C396.559 350.734 388.999 357.634 379.631 359.648C370.259 361.655 360.53 358.451 354.191 351.278C339.45 334.584 325.041 318.274 325.041 318.274" stroke="black" stroke-width="4" stroke-miterlimit="1.5" stroke-linejoin="round"/>
<path fill-rule="evenodd" clip-rule="evenodd" d="M210 117.199C210 99.3274 233.66 84.8145 262.769 84.8145C291.879 84.8145 315.494 99.3274 315.494 117.199V131.323C315.494 149.195 291.879 163.708 262.769 163.708C233.66 163.708 210 149.195 210 131.323V117.199Z" fill="#E9FC87" stroke="#242728" stroke-width="4" stroke-miterlimit="1.5" stroke-linejoin="round"/>
<path fill-rule="evenodd" clip-rule="evenodd" d="M210 86.182C210 68.3104 233.66 53.7974 262.769 53.7974C291.879 53.7974 315.494 68.3104 315.494 86.182V100.306C315.494 118.178 291.879 132.691 262.769 132.691C233.66 132.691 210 118.178 210 100.306V86.182Z" fill="#E9FC87" stroke="#242728" stroke-width="4" stroke-miterlimit="1.5" stroke-linejoin="round"/>
<path fill-rule="evenodd" clip-rule="evenodd" d="M210 43.3846C210 25.513 233.66 11 262.769 11C291.879 11 315.494 25.513 315.494 43.3846V71.1614C315.494 89.033 291.879 103.546 262.769 103.546C233.66 103.546 210 89.033 210 71.1614V43.3846Z" fill="#E9FC87" stroke="#242728" stroke-width="4" stroke-miterlimit="1.5" stroke-linejoin="round"/>
<path fill-rule="evenodd" clip-rule="evenodd" d="M311.36 55.9795C303.322 67.6049 284.611 75.7625 262.768 75.7625C242.015 75.7625 224.078 68.4036 215.449 57.7066" fill="#E9FC87"/>
<path d="M311.36 55.9795C303.322 67.6049 284.611 75.7625 262.768 75.7625C242.015 75.7625 224.078 68.4036 215.449 57.7066" stroke="#242728" stroke-width="4" stroke-miterlimit="1.5" stroke-linejoin="round"/>
</g>
<defs>
<clipPath id="clip0_466_16058">
<rect width="500" height="500" fill="white"/>
</clipPath>
<clipPath id="clip1_466_16058">
<rect width="217" height="59" fill="white" transform="translate(152.998 144)"/>
</clipPath>
</defs>
</svg>
