<svg width="285" height="203" viewBox="0 0 285 203" fill="none" xmlns="http://www.w3.org/2000/svg">
<rect x="0.296784" y="0.296784" width="284.406" height="202.406" rx="5.63889" fill="#1C1C1C"/>
<rect x="0.296784" y="0.296784" width="284.406" height="202.406" rx="5.63889" stroke="#272727" stroke-width="0.593567"/>
<g filter="url(#filter0_b_5426_3900)">
<path d="M84.3893 120.366C99.5677 133.462 116.554 131.921 135.312 120.354C147.62 112.768 135.5 135.15 147.121 120.354C166.269 95.987 211.552 90.2831 199.428 52.5463C188.642 19.0075 132.538 15.0262 84.2003 43.306C41.4904 68.289 68.502 116.5 84.3893 120.354V120.366Z" fill="white" fill-opacity="0.12"/>
</g>
<path d="M134.763 37.7089V43.4807C134.763 44.0892 134.27 44.5855 133.666 44.5855C133.326 44.5855 133.015 44.4201 132.803 44.1601C132.387 43.6462 131.747 43.3153 131.037 43.3153C129.769 43.3153 128.748 44.3433 128.748 45.6134C128.748 46.8836 129.769 47.9115 131.037 47.9115C131.747 47.9115 132.387 47.5807 132.803 47.0667C133.02 46.8009 133.331 46.6414 133.666 46.6414C134.27 46.6414 134.763 47.1376 134.763 47.7461V53.5179H129.03C128.425 53.5179 127.932 54.0141 127.932 54.6226C127.932 54.9653 128.097 55.2784 128.355 55.4911C128.865 55.9105 129.194 56.5545 129.194 57.2693C129.194 58.5453 128.173 59.5733 126.911 59.5733C125.649 59.5733 124.628 58.5453 124.628 57.2693C124.628 56.5545 124.957 55.9105 125.467 55.4911C125.731 55.2725 125.89 54.9594 125.89 54.6226C125.89 54.0141 125.397 53.5179 124.792 53.5179H119.059V47.7461C119.059 47.1376 119.552 46.6414 120.156 46.6414C120.496 46.6414 120.807 46.8068 121.019 47.0667C121.435 47.5807 122.075 47.9115 122.785 47.9115C124.053 47.9115 125.074 46.8836 125.074 45.6134C125.074 44.3433 124.053 43.3153 122.785 43.3153C122.075 43.3153 121.435 43.6462 121.019 44.1601C120.802 44.426 120.491 44.5855 120.156 44.5855C119.552 44.5855 119.059 44.0892 119.059 43.4807V37.7089H124.792C125.397 37.7089 125.89 37.2127 125.89 36.6042C125.89 36.2616 125.726 35.9485 125.467 35.7358C124.957 35.3163 124.628 34.6724 124.628 33.9576C124.628 32.6815 125.649 31.6536 126.911 31.6536C128.173 31.6536 129.194 32.6815 129.194 33.9576C129.194 34.6724 128.865 35.3163 128.355 35.7358C128.091 35.9544 127.932 36.2675 127.932 36.6042C127.932 37.2127 128.425 37.7089 129.03 37.7089H134.763Z" fill="url(#paint0_linear_5426_3900)"/>
<path d="M134.716 37.6638H128.944C128.336 37.6638 127.839 37.1708 127.839 36.5664C127.839 36.226 128.005 35.9149 128.265 35.7037C128.779 35.287 129.11 34.6473 129.11 33.9372C129.11 32.6695 128.082 31.6483 126.811 31.6483C125.541 31.6483 124.513 32.6695 124.513 33.9372C124.513 34.6473 124.844 35.287 125.358 35.7037C125.624 35.9208 125.783 36.2318 125.783 36.5664C125.783 37.1708 125.287 37.6638 124.679 37.6638H118.907V31.93C118.907 31.3255 118.411 30.8326 117.802 30.8326C117.46 30.8326 117.146 30.9969 116.934 31.2551C116.514 31.7657 115.87 32.0944 115.156 32.0944C113.88 32.0944 112.852 31.0732 112.852 29.8114C112.852 28.5496 113.88 27.5285 115.156 27.5285C115.87 27.5285 116.514 27.8571 116.934 28.3677C117.152 28.6318 117.465 28.7902 117.802 28.7902C118.411 28.7902 118.907 28.2973 118.907 27.6928V21.959H124.679C125.287 21.959 125.783 22.452 125.783 23.0564C125.783 23.3968 125.618 23.7079 125.358 23.9192C124.844 24.3358 124.513 24.9755 124.513 25.6857C124.513 26.9533 125.541 27.9745 126.811 27.9745C128.082 27.9745 129.11 26.9533 129.11 25.6857C129.11 24.9755 128.779 24.3358 128.265 23.9192C127.999 23.702 127.839 23.391 127.839 23.0564C127.839 22.452 128.336 21.959 128.944 21.959H134.716V27.6928C134.716 28.2973 135.212 28.7902 135.821 28.7902C136.163 28.7902 136.476 28.6259 136.689 28.3677C137.109 27.8571 137.752 27.5285 138.467 27.5285C139.743 27.5285 140.771 28.5496 140.771 29.8114C140.771 31.0732 139.743 32.0944 138.467 32.0944C137.752 32.0944 137.109 31.7657 136.689 31.2551C136.47 30.991 136.157 30.8326 135.821 30.8326C135.212 30.8326 134.716 31.3255 134.716 31.93V37.6638Z" fill="white"/>
<path d="M74.5192 111H80.2509C80.8552 111 81.348 111.493 81.348 112.097C81.348 112.438 81.1837 112.749 80.9256 112.96C80.4152 113.377 80.0866 114.017 80.0866 114.727C80.0866 115.994 81.1074 117.015 82.3688 117.015C83.6301 117.015 84.6509 115.994 84.6509 114.727C84.6509 114.017 84.3224 113.377 83.812 112.96C83.548 112.743 83.3896 112.432 83.3896 112.097C83.3896 111.493 83.8824 111 84.4866 111H90.2184V116.734C90.2184 117.338 90.7112 117.831 91.3154 117.831C91.6557 117.831 91.9666 117.667 92.1778 117.409C92.5944 116.898 93.2338 116.569 93.9437 116.569C95.2109 116.569 96.2317 117.591 96.2317 118.852C96.2317 120.114 95.2109 121.135 93.9437 121.135C93.2338 121.135 92.5944 120.807 92.1778 120.296C91.9608 120.032 91.6498 119.874 91.3154 119.874C90.7112 119.874 90.2184 120.367 90.2184 120.971V126.705H84.4866C83.8824 126.705 83.3896 126.212 83.3896 125.607C83.3896 125.267 83.5538 124.956 83.812 124.745C84.3224 124.328 84.6509 123.688 84.6509 122.978C84.6509 121.711 83.6301 120.689 82.3688 120.689C81.1074 120.689 80.0866 121.711 80.0866 122.978C80.0866 123.688 80.4152 124.328 80.9256 124.745C81.1896 124.962 81.348 125.273 81.348 125.607C81.348 126.212 80.8552 126.705 80.2509 126.705H74.5192V120.971C74.5192 120.367 74.0264 119.874 73.4221 119.874C73.0819 119.874 72.7709 120.038 72.5597 120.296C72.1432 120.807 71.5037 121.135 70.7939 121.135C69.5267 121.135 68.5059 120.114 68.5059 118.852C68.5059 117.591 69.5267 116.569 70.7939 116.569C71.5037 116.569 72.1432 116.898 72.5597 117.409C72.7768 117.673 73.0877 117.831 73.4221 117.831C74.0264 117.831 74.5192 117.338 74.5192 116.734V111Z" fill="white"/>
<path d="M98.0778 33.0228C105.512 46.8607 98.9247 54.9391 99.9215 59.3074C100.476 61.6636 102.777 67.0416 102.777 67.0416L89.3842 76.3542C89.3842 76.3542 85.1348 72.33 83.1038 71.006C79.3491 68.5451 69.4639 71.9335 59.039 60.1751C52.1816 52.4557 49.2437 34.7806 63.4158 24.922C77.5879 15.0635 93.1764 23.9347 98.0703 33.0228H98.0778Z" fill="url(#paint1_linear_5426_3900)"/>
<path d="M74.7751 56.1766L74.3965 56.5603L93.2145 75.0555L93.5931 74.6718L74.7751 56.1766Z" fill="white"/>
<path d="M89.3688 46.1459L88.877 46.3674L99.7411 70.3933L100.233 70.1718L89.3688 46.1459Z" fill="white"/>
<path d="M86.749 58.3204C85.3325 59.3078 83.2191 58.5373 82.0874 57.9913C82.005 57.9539 81.93 57.909 81.8476 57.8716C81.7802 58.5672 81.5478 59.0834 81.1581 59.3526C79.202 60.714 75.5597 57.1909 75.4023 57.0339L75.5897 56.8394C75.5897 56.8394 79.2245 60.3624 81.0007 59.1282C81.3455 58.8889 81.5403 58.4027 81.5853 57.7295C80.1014 56.9217 78.7074 55.7473 77.9355 54.6552C77.1411 53.5183 77.1111 52.6132 77.8455 52.1046C78.3102 51.7829 78.8123 51.7381 79.3145 51.9699C80.626 52.5833 81.6752 55.0292 81.8401 56.9217C81.8626 57.1535 81.8701 57.3705 81.8626 57.5799C83.6013 58.4925 85.4599 58.8889 86.5916 58.096C87.446 57.5051 87.8357 56.241 87.6933 54.5505C87.6783 54.3934 87.6633 54.2364 87.6408 54.0718C86.2619 53.7801 84.8379 52.6955 83.9086 51.3715C82.8968 49.9279 82.8069 48.6488 83.6688 48.0504C83.9985 47.8186 84.3957 47.7961 84.8004 47.9906C86.1045 48.5965 87.4835 51.2893 87.8732 53.8624C88.5177 53.9671 89.1472 53.8624 89.7093 53.4734C91.2307 52.4112 89.5519 47.5642 89.5295 47.5119L89.7843 47.4221C89.8592 47.6316 91.553 52.516 89.8592 53.6903C89.2746 54.0942 88.6001 54.2139 87.9032 54.1242C87.9181 54.2588 87.9331 54.3934 87.9481 54.5281C88.053 55.7922 87.9331 57.4827 86.734 58.3129L86.749 58.3204ZM83.8262 48.2748C82.9568 48.8807 83.414 50.1972 84.1334 51.2219C84.8904 52.3065 86.2394 53.4734 87.6034 53.81C87.1987 51.3715 85.8871 48.7984 84.6955 48.2374C84.3732 48.0878 84.0885 48.0953 83.8262 48.2748ZM78.0029 52.329C77.2085 52.8825 77.7631 53.9297 78.1603 54.5056C78.8948 55.5528 80.1913 56.6524 81.6003 57.4378C81.6003 57.2807 81.6003 57.1161 81.5778 56.9516C81.4279 55.1639 80.4162 52.7852 79.2021 52.2168C78.7899 52.0223 78.3851 52.0597 78.0029 52.329Z" fill="white"/>
<path d="M103.95 65.3746L87.4297 76.8682L89.6797 80.0897L106.2 68.5961L103.95 65.3746Z" fill="#DBDBDB"/>
<path d="M106.567 69.1185L90.0469 80.6121L92.2969 83.8336L108.817 72.34L106.567 69.1185Z" fill="#DBDBDB"/>
<path d="M109.18 72.8616L92.6602 84.3552L94.9102 87.5767L111.43 76.0831L109.18 72.8616Z" fill="#DBDBDB"/>
<path d="M59.4447 53.8247C55.1428 47.0852 54.7831 36.6582 61.3108 31.1829C56.8441 37.9672 57.4211 46.2998 59.4447 53.8247Z" fill="white"/>
<path fill-rule="evenodd" clip-rule="evenodd" d="M180.207 150.06C188.395 153.42 196.746 152.703 200.957 151.897C201.198 151.851 201.425 151.804 201.637 151.758C201.653 151.753 201.666 151.748 201.68 151.744C203.495 151.108 204.848 148.662 204.848 145.746C204.848 142.775 203.444 140.293 201.578 139.715C201.308 139.632 201.03 139.588 200.746 139.588C200.478 139.588 200.216 139.627 199.962 139.7C199.946 139.705 199.929 139.71 199.912 139.715C195.96 140.892 192.249 139.6 189.066 137.401C188.548 137.042 188.042 136.66 187.553 136.26C189.801 136.514 192.066 136.367 194.346 135.831C194.797 135.727 195.12 135.327 195.121 134.864C195.123 134.399 194.804 133.995 194.352 133.89C191.072 133.139 187.938 131.768 185.115 129.075V107.572C187.029 105.627 193.925 94.2898 190.964 89.1843C189.887 87.327 187.635 86.2634 184.92 86.6179L181.506 87.0607C178.117 82.2318 172.559 78.3337 165.763 76.0464C165.283 75.8849 164.797 75.7313 164.305 75.5861V77.3009C164.305 77.9438 164.182 78.568 163.952 79.1667C164.182 79.7655 164.305 80.3913 164.305 81.0325V84.5435C164.305 85.2695 164.149 85.9717 163.855 86.6417C164.149 87.31 164.305 88.0139 164.305 88.7399V92.2493C164.305 96.6898 158.439 100.296 151.214 100.296C143.988 100.296 138.123 96.6898 138.123 92.2493V88.7399C138.123 88.0139 138.279 87.31 138.573 86.6417C138.279 85.9717 138.123 85.2695 138.123 84.5435V81.0325C138.123 80.3913 138.245 79.7655 138.478 79.1667C138.245 78.568 138.123 77.9438 138.123 77.3009V75.9032C126.468 79.6806 118.338 88.1632 118.338 98.0094V115.755L110.902 118.601C108.277 119.603 106.771 122.483 107.392 125.304L111.25 142.804C111.75 145.076 113.489 146.818 115.691 147.254C117.426 147.599 119.193 147.081 120.502 145.909C122.259 150.594 124.979 154.631 128.527 158.79V168.523C128.527 171.106 132.135 173.204 136.579 173.204C141.024 173.204 144.633 171.106 144.633 168.523L144.598 165.083C146.063 165.809 148.29 166.216 150.333 166.221V174.953C150.333 177.536 153.942 179.634 158.387 179.634C162.831 179.634 166.44 177.536 166.44 174.953L166.362 167.435C167.865 168.133 170.135 168.653 172.082 168.653C176.527 168.653 180.136 166.557 180.136 163.974L180.207 150.06Z" fill="#FF85D0"/>
<path d="M164.305 75.5861V77.3009C164.305 77.9438 164.182 78.568 163.952 79.1667C164.182 79.7655 164.305 80.3913 164.305 81.0325V84.5435C164.305 85.2695 164.149 85.9717 163.855 86.6417C164.149 87.31 164.305 88.0139 164.305 88.7399V92.2493C164.305 96.6898 158.439 100.296 151.214 100.296C143.988 100.296 138.123 96.6898 138.123 92.2493V88.7399C138.123 88.0139 138.279 87.31 138.573 86.6417C138.279 85.9717 138.123 85.2695 138.123 84.5435V81.0325C138.123 80.3913 138.245 79.7655 138.478 79.1667C138.245 78.568 138.123 77.9438 138.123 77.3009V75.9032L144.231 74.2481L149.471 73.7568L157.33 74.2481L164.305 75.5861Z" fill="#FF85D0"/>
<path d="M185.17 129.047V97.981C185.17 84.623 170.21 73.7778 151.781 73.7778C133.353 73.7778 118.393 84.623 118.393 97.981V115.727M120.558 145.882C122.314 150.566 125.036 154.603 128.581 158.761C130.037 160.468 131.633 162.195 133.357 163.995M159.836 159.345C162.071 158.943 164.219 158.378 166.251 157.668C171.492 155.836 175.976 153.04 179.259 149.598M144.689 159.769C145.403 159.807 147.453 159.995 150.388 160.044" stroke="#242728" stroke-width="0.56114" stroke-miterlimit="1.5" stroke-linejoin="round"/>
<path d="M166.251 157.667C166.251 157.667 166.344 160.827 166.354 161.193C166.356 161.215 166.355 161.238 166.355 161.261C166.363 162.014 166.499 174.926 166.499 174.926C166.499 177.509 162.892 179.606 158.446 179.605C154.003 179.604 150.394 177.506 150.394 174.923L150.389 157.376" stroke="#242728" stroke-width="0.56114" stroke-miterlimit="1.5" stroke-linejoin="round"/>
<path d="M180.062 149.947L180.194 163.946C180.194 166.53 176.586 168.626 172.141 168.625C169.946 168.624 167.953 168.112 166.5 167.281" stroke="#242728" stroke-width="0.56114" stroke-miterlimit="1.5" stroke-linejoin="round"/>
<path d="M129.716 110.945C135.6 114.701 143.325 116.983 151.776 116.983C165.452 116.983 177.216 111.01 182.375 102.473M120.358 100.984C121.314 102.91 122.602 104.723 124.163 106.385" stroke="#242728" stroke-width="0.56114" stroke-miterlimit="1.5" stroke-linejoin="round"/>
<path d="M139.851 144.902C139.851 144.902 142.123 149.689 143.508 152.603C144.194 154.048 144.558 155.625 144.576 157.224C144.616 161.159 144.693 168.496 144.693 168.496C144.693 171.079 141.086 173.176 136.641 173.175C132.198 173.174 128.588 171.076 128.588 168.492L128.587 158.616" stroke="#242728" stroke-width="0.56114" stroke-miterlimit="1.5" stroke-linejoin="round"/>
<path d="M149.998 166.237C147.803 166.236 145.81 165.724 144.357 164.893" stroke="#242728" stroke-width="0.56114" stroke-miterlimit="1.5" stroke-linejoin="round"/>
<path d="M181.844 86.9973C182.897 86.8599 183.947 86.7235 184.978 86.5887C187.695 86.2352 189.946 87.2978 191.022 89.1548C193.979 94.2592 187.081 105.599 185.168 107.544" stroke="#242728" stroke-width="0.56114" stroke-miterlimit="1.5" stroke-linejoin="round"/>
<path fill-rule="evenodd" clip-rule="evenodd" d="M183.985 127.954C183.275 127.505 182.384 127.398 181.572 127.696C181.168 127.844 180.817 128.071 180.523 128.353C182.082 130.549 184.545 133.73 187.609 136.231C189.857 136.486 192.122 136.338 194.402 135.802C194.853 135.699 195.176 135.299 195.178 134.835C195.179 134.371 194.86 133.967 194.409 133.862C191.129 133.112 187.995 131.74 185.171 129.046C184.947 128.834 184.727 128.612 184.506 128.383C184.348 128.217 184.173 128.073 183.985 127.954Z" fill="white"/>
<path d="M173.05 124.756C175.212 123.866 177.165 123.667 178.8 125.868C179.988 127.373 189.059 142.934 199.968 139.686C199.984 139.682 200.001 139.677 200.017 139.672C200.664 139.476 201.197 139.497 201.632 139.686M201.736 151.715C201.721 151.722 201.707 151.727 201.693 151.73C201.48 151.775 201.253 151.822 201.012 151.868C196.251 152.778 186.2 153.576 177.075 148.498" stroke="#242728" stroke-width="0.56114" stroke-miterlimit="1.5" stroke-linejoin="round"/>
<path fill-rule="evenodd" clip-rule="evenodd" d="M165.553 140.126C166.581 139.749 167.734 140.019 168.487 140.812C171.479 143.95 174.85 145.482 178.389 146.291C178.841 146.397 179.159 146.8 179.156 147.264C179.155 147.727 178.833 148.13 178.381 148.233C174.092 149.24 169.859 148.873 165.683 147.05C162.487 145.654 162.833 141.129 165.553 140.126Z" fill="white" stroke="#242728" stroke-width="0.56114" stroke-miterlimit="1.5" stroke-linejoin="round"/>
<path d="M180.523 128.352C180.818 128.07 181.169 127.845 181.573 127.696C182.384 127.398 183.275 127.503 183.985 127.953C184.174 128.072 184.349 128.215 184.506 128.382C184.727 128.611 184.947 128.833 185.171 129.046C187.994 131.74 191.128 133.11 194.409 133.861C194.86 133.967 195.179 134.37 195.176 134.833C195.174 135.297 194.852 135.699 194.4 135.802C192.12 136.338 189.856 136.485 187.607 136.233" stroke="#242728" stroke-width="0.56114" stroke-miterlimit="1.5" stroke-linejoin="round"/>
<path d="M167.963 140.384C166.416 139.149 165.661 137.98 164.7 136.631" stroke="#242728" stroke-width="0.56114" stroke-miterlimit="1.5" stroke-linejoin="round"/>
<path d="M183.983 127.953C182.436 126.718 181.681 125.549 180.719 124.2" stroke="#242728" stroke-width="0.56114" stroke-miterlimit="1.5" stroke-linejoin="round"/>
<path d="M165.488 146.959C163.651 146.218 161.798 144.934 160.49 143.916" stroke="#242728" stroke-width="0.56114" stroke-miterlimit="1.5" stroke-linejoin="round"/>
<path d="M189.122 137.372C186.864 136.506 184.749 137.799 184.192 139.983" stroke="#242728" stroke-width="0.56114" stroke-miterlimit="1.5" stroke-linejoin="round"/>
<path d="M128.319 111.928C128.319 111.928 117.397 116.107 110.96 118.571C108.336 119.575 106.83 122.454 107.45 125.275C108.447 129.801 109.967 136.699 111.305 142.775C111.805 145.048 113.544 146.791 115.747 147.226C117.948 147.662 120.203 146.71 121.508 144.794C124.337 140.636 126.9 136.868 126.9 136.868" stroke="#242728" stroke-width="0.56114" stroke-miterlimit="1.5" stroke-linejoin="round"/>
<path d="M200.802 151.871C203.067 151.871 204.904 149.114 204.904 145.713C204.904 142.312 203.067 139.555 200.802 139.555C198.536 139.555 196.699 142.312 196.699 145.713C196.699 149.114 198.536 151.871 200.802 151.871Z" stroke="#242728" stroke-width="0.56114" stroke-miterlimit="1.5" stroke-linejoin="round"/>
<defs>
<filter id="filter0_b_5426_3900" x="43.4381" y="6.67733" width="175.823" height="140.743" filterUnits="userSpaceOnUse" color-interpolation-filters="sRGB">
<feFlood flood-opacity="0" result="BackgroundImageFix"/>
<feGaussianBlur in="BackgroundImageFix" stdDeviation="8.90108"/>
<feComposite in2="SourceAlpha" operator="in" result="effect1_backgroundBlur_5426_3900"/>
<feBlend mode="normal" in="SourceGraphic" in2="effect1_backgroundBlur_5426_3900" result="shape"/>
</filter>
<linearGradient id="paint0_linear_5426_3900" x1="119.059" y1="59.5733" x2="155.586" y2="51.4473" gradientUnits="userSpaceOnUse">
<stop stop-color="#F77577"/>
<stop offset="0.452015" stop-color="#DB39CB"/>
<stop offset="0.973958" stop-color="#CA6FE5"/>
</linearGradient>
<linearGradient id="paint1_linear_5426_3900" x1="53.9534" y1="48.4781" x2="102.784" y2="48.4656" gradientUnits="userSpaceOnUse">
<stop stop-color="#FFC6D9"/>
<stop offset="0.333333" stop-color="#7CCFE1"/>
<stop offset="0.640625" stop-color="#89CBA6"/>
<stop offset="1" stop-color="#A5D571"/>
</linearGradient>
</defs>
</svg>
