<svg width="979" height="533" viewBox="0 0 979 533" fill="none" xmlns="http://www.w3.org/2000/svg">
<path fill-rule="evenodd" clip-rule="evenodd" d="M49.3405 298.727L34.1476 253.463C32.9903 250.015 33.276 246.249 34.9405 243.012C36.6051 239.781 39.5055 237.356 42.9821 236.291L49.3405 234.351V227.002C49.3405 221.157 53.1907 215.98 58.8851 214.169L123.341 193.678C130.349 191.451 137.975 192.046 144.527 195.328L215.807 231.013C220.422 233.323 223.323 237.96 223.323 243.022V261.286L227.758 256.727C232.194 252.172 239.419 251.891 244.196 256.086L244.579 256.418C249.535 260.774 250.245 268.233 246.192 273.442L233.951 289.176C234.283 291.287 234.218 293.486 233.693 295.68L223.323 338.93V354.147C223.323 356.765 223.36 363.085 223.36 363.085L227.961 376.219C228.805 378.625 229.238 381.156 229.238 383.705V401.624C229.238 408.045 220.054 413.259 208.738 413.259C197.428 413.259 188.243 408.045 188.243 401.624L188.303 393.381L159.854 402.168V422.41C159.854 428.831 150.669 434.045 139.354 434.045C128.043 434.045 118.858 428.831 118.858 422.41L119.034 405.528L113.381 396.733L96.6249 388.43L79.2418 409.539C77.3975 412.835 72.9667 413.287 67.4751 410.147C59.715 405.703 52.7615 395.751 51.9638 387.932C51.6734 385.07 52.2405 382.889 53.4624 381.492L61.8407 371.19L56.907 368.742C52.2639 366.441 49.3405 361.79 49.3405 356.71V298.727Z" fill="#E9FC87"/>
<path d="M113.341 396.737L118.996 405.532L118.818 422.411C118.818 428.835 128.002 434.048 139.317 434.048C150.628 434.047 159.814 428.833 159.814 422.41L159.813 400.639L153.656 387.289" stroke="#242728" stroke-width="4" stroke-miterlimit="1.5" stroke-linejoin="round"/>
<path d="M223.281 275.956C223.282 255.823 223.285 254.058 223.284 243.015C223.285 237.953 220.385 233.318 215.768 231.007C199.825 223.025 162.594 204.387 144.493 195.325C137.937 192.043 130.313 191.451 123.305 193.678C106.532 199.011 74.7428 209.12 58.8488 214.172C53.1588 215.983 49.3054 221.162 49.3052 227.005C49.3049 254.373 49.3005 331.282 49.3003 356.717C49.2973 361.797 52.2231 366.448 56.8611 368.747C72.8148 376.655 109.901 395.038 127.845 403.933M188.282 393.605L188.197 401.626C188.193 408.047 197.381 413.263 208.692 413.262C220.007 413.262 229.188 408.046 229.188 401.623C229.188 401.623 229.192 389.957 229.193 383.705C229.19 381.155 228.76 378.623 227.917 376.218C226.189 371.287 223.313 363.084 223.313 363.084C223.313 363.084 223.28 356.766 223.281 354.146C223.278 352.761 223.277 349.289 223.281 338.929" stroke="#242728" stroke-width="4" stroke-miterlimit="1.5" stroke-linejoin="round"/>
<path d="M167.325 256.083C167.325 256.083 202.078 268.417 222.564 275.689C230.912 278.652 235.672 287.238 233.65 295.68C230.406 309.226 225.455 329.871 221.096 348.058C219.469 354.861 213.899 360.096 206.871 361.432C199.847 362.767 192.671 359.954 188.542 354.245C179.583 341.854 171.469 330.626 171.469 330.626" stroke="#242728" stroke-width="4" stroke-miterlimit="1.5" stroke-linejoin="round"/>
<path d="M49.3039 234.344C49.3039 234.344 46.465 235.212 42.9476 236.288C39.4692 237.351 36.5696 239.776 34.906 243.01C33.2381 246.241 32.953 250.011 34.111 253.456C39.8883 270.675 49.3039 298.719 49.3039 298.719" stroke="#242728" stroke-width="4" stroke-miterlimit="1.5" stroke-linecap="round" stroke-linejoin="round"/>
<path d="M87.7056 337.299C82.2971 343.26 64.8393 342.319 64.7972 326.117C64.7358 303.693 38.4408 302.355 32.0264 323.128" stroke="#242728" stroke-width="4" stroke-miterlimit="1.5" stroke-linecap="round" stroke-linejoin="round"/>
<path fill-rule="evenodd" clip-rule="evenodd" d="M26.8332 335.265C28.9563 336.14 34.3371 328.378 35.2345 326.305C36.1319 324.231 35.1338 321.836 33.0107 320.961C30.8876 320.086 28.4324 321.058 27.535 323.131C26.6376 325.205 24.7101 334.39 26.8332 335.265Z" fill="#E9FC87" stroke="#242728" stroke-width="4" stroke-miterlimit="1.5" stroke-linejoin="round"/>
<path d="M160.499 401.958C170.424 398.892 180.335 395.829 192.659 392.023" stroke="#242728" stroke-width="4" stroke-miterlimit="1.5" stroke-linecap="round" stroke-linejoin="round"/>
<path d="M76.4727 230.676C102.924 243.79 105.098 244.865 125.098 254.78C133.325 258.856 142.862 259.618 151.657 256.903C162.269 253.624 170.896 251.22 184.52 247.011" stroke="#242728" stroke-width="4" stroke-miterlimit="1.5" stroke-linejoin="round"/>
<path d="M61.8061 371.188L53.4277 381.494M79.2113 409.539L96.7461 388.246" stroke="#242728" stroke-width="4" stroke-miterlimit="1.5" stroke-linecap="round" stroke-linejoin="round"/>
<path d="M67.4329 410.157C75.2001 414.602 80.8479 411.862 80.0475 404.038C79.2472 396.213 72.3017 386.266 64.5345 381.822C56.7673 377.377 51.1195 380.117 51.9199 387.941C52.7203 395.766 59.6657 405.712 67.4329 410.157Z" stroke="#242728" stroke-width="4" stroke-miterlimit="1.5" stroke-linecap="round" stroke-linejoin="round"/>
<path d="M233.907 289.173C233.907 289.173 240.611 280.56 246.147 273.438C250.197 268.232 249.488 260.772 244.531 256.418C244.406 256.306 244.278 256.196 244.153 256.084C239.374 251.89 232.144 252.172 227.713 256.725C225.301 259.204 223.278 261.281 223.278 261.281" stroke="#242728" stroke-width="4" stroke-miterlimit="1.5" stroke-linecap="round" stroke-linejoin="round"/>
<g clip-path="url(#clip0_531_517)">
<path fill-rule="evenodd" clip-rule="evenodd" d="M774.353 443.775L765.011 377.515C759.574 384.337 738.292 385.809 735.937 366.977L730.76 338.111L721.81 284.122C724.098 276.093 728.878 270.977 736.98 269.724C736.98 269.724 748.686 270.147 753.624 271.089C757.26 265.708 765.631 262.327 775.66 259.654L846.296 236.623C854.54 233.93 863.516 234.648 871.231 238.608L962.082 285.262C969.019 288.826 972.456 296.813 970.28 304.312L955.527 355.075C964.309 358.801 969.181 368.347 966.969 377.699L950.426 447.598C946.704 453.839 941.929 457.067 936.345 457.983L940.23 468.853L940.479 495.234C933.502 507.946 902.674 508.231 895.025 495.188V482.838L885.292 485.729L884.641 512.421C877.913 523.265 849.749 527.847 839.589 512.818L839.385 491.334L833.776 481.84L814.36 472.121L795.167 496.644C791.541 499.042 787.682 499.75 783.349 497.148C770.62 489.506 765.392 479.004 766.867 461.72L777.353 451.146C776.478 449.497 774.622 445.673 774.353 443.775Z" fill="#E9FC87"/>
<path d="M753.632 271.1C753.632 271.1 747.729 270.468 740.725 269.717C735.378 269.146 730.069 271.129 726.402 275.072C722.734 279.014 721.134 284.455 722.087 289.759C726.097 312.104 732.21 346.173 736.199 368.388C737.142 373.644 740.481 378.158 745.227 380.595C749.979 383.033 755.586 383.112 760.399 380.811C763.213 379.468 765.162 378.535 765.162 378.535" stroke="black" stroke-width="3.54697" stroke-miterlimit="1.5" stroke-linejoin="round"/>
<path d="M885.292 485.729L905.995 479.579M955.537 355.034L970.28 304.312C972.457 296.813 969.019 288.826 962.082 285.262L871.231 238.608C863.516 234.648 854.54 233.93 846.296 236.623L762.58 263.916C755.068 266.364 750.4 273.858 751.504 281.683L774.353 443.775C775.095 449.039 778.36 453.615 783.095 456.023L843.754 486.834" stroke="#242728" stroke-width="4" stroke-miterlimit="1.5" stroke-linejoin="round"/>
<path d="M784.652 285.973C818.773 303.324 821.578 304.747 847.378 317.866C857.989 323.26 870.292 324.268 881.637 320.676C895.326 316.337 906.455 313.156 924.03 307.587" stroke="#242728" stroke-width="3.99669" stroke-miterlimit="1.5" stroke-linejoin="round"/>
<path d="M889.359 330.908C889.359 330.908 930.266 345.791 954.38 354.565C964.206 358.141 969.807 368.505 967.426 378.696C963.605 395.048 957.773 419.969 952.639 441.925C950.722 450.136 944.164 456.457 935.892 458.07C927.624 459.683 919.177 456.288 914.317 449.398C903.774 434.442 894.225 420.89 894.225 420.89" stroke="black" stroke-width="3.99644" stroke-miterlimit="1.5" stroke-linejoin="round"/>
<path d="M833.476 481.986L839.389 491.328L839.198 510.353C839.2 517.593 849.386 523.472 861.934 523.477C874.476 523.479 884.661 517.605 884.658 510.365L884.65 485.827L877.817 470.778" stroke="black" stroke-width="4.01292" stroke-miterlimit="1.5" stroke-linejoin="round"/>
<path d="M895.205 482.776L895.035 492.726C895.032 499.963 905.223 505.845 917.766 505.848C930.314 505.852 940.494 499.976 940.491 492.736L940.49 472.391C940.486 469.615 940.027 466.859 939.118 464.234L937.09 458.36" stroke="black" stroke-width="4.01292" stroke-miterlimit="1.5" stroke-linejoin="round"/>
<path d="M795.17 495.744L795.27 495.853L814.578 472.017M777.357 450.895L768.58 460.16" stroke="black" stroke-width="3.99562" stroke-miterlimit="1.5" stroke-linecap="round" stroke-linejoin="round"/>
<path d="M782.22 496.531C790.832 501.544 797.527 497.556 797.173 487.623C796.819 477.69 789.55 465.573 780.938 460.56C772.325 455.547 765.631 459.535 765.985 469.468C766.339 479.401 773.608 491.517 782.22 496.531Z" stroke="black" stroke-width="3.21723" stroke-miterlimit="1.5" stroke-linecap="round" stroke-linejoin="round"/>
<path d="M806.634 431.002C800.638 437.721 781.282 436.661 781.235 418.397C781.167 393.118 752.012 391.609 744.9 415.026" stroke="black" stroke-width="4.0022" stroke-miterlimit="1.5" stroke-linecap="round" stroke-linejoin="round"/>
<path fill-rule="evenodd" clip-rule="evenodd" d="M739.135 428.711C741.49 429.698 747.454 420.951 748.449 418.613C749.443 416.276 748.335 413.576 745.98 412.589C743.626 411.601 740.903 412.696 739.909 415.033C738.914 417.371 736.78 427.724 739.135 428.711Z" fill="#E9FC87" stroke="black" stroke-width="3.98373" stroke-miterlimit="1.5" stroke-linejoin="round"/>
</g>
<path fill-rule="evenodd" clip-rule="evenodd" d="M330.377 198.929C324.879 196.41 320.425 191.979 317.884 186.39L295.991 138.211C289.692 124.342 286.637 109.218 287.06 93.9871L288.527 41.3917C288.897 28.1426 295.719 15.9143 306.797 8.64692C317.876 1.37958 331.806 -0.0116383 344.109 4.91896C350.212 7.42963 356.247 10.8629 362.221 15.128C373.996 23.5448 383.162 35.0998 388.674 48.485C389.567 50.6479 390.459 52.8184 391.336 54.951C400.101 51.5707 409.493 49.7859 419.074 49.7859C433.571 49.7859 446.064 54.0888 456.455 61.2578C474.022 53.9527 494.742 49.9218 514.918 49.9218C554.242 49.9218 591.948 65.538 619.747 93.3369C647.553 121.143 663.169 158.849 663.169 198.165V337.205C663.169 372.422 589.52 372.422 589.52 337.205V306.373L535.413 333.424V398.716C535.413 426.908 460.463 428.307 460.463 396.644V338.641L442.056 329.438V346.816C442.056 377.625 371.735 374.993 366.933 346.075C354.417 346.476 341.932 336.509 341.932 321.165V220.164C327.102 223.62 308.408 224.64 292.55 221.978C291.234 221.699 290.282 220.557 290.237 219.211C290.191 217.872 291.061 216.67 292.354 216.299C304.597 212.609 318.761 206.907 330.377 198.929Z" fill="#74BCF1"/>
<path d="M442.048 328.774V346.818C442.048 377.892 370.517 374.95 366.819 345.321M455.963 61.4636C473.629 54.0299 494.553 49.916 514.919 49.916C554.235 49.916 591.948 65.54 619.747 93.3388C647.546 121.138 663.169 158.85 663.169 198.167V337.199C663.169 372.424 589.52 372.424 589.52 337.199V306.368L535.412 333.426V398.71C535.412 426.91 460.455 428.309 460.455 396.646V338.643L404.433 310.633" stroke="#242728" stroke-width="4" stroke-miterlimit="1.5" stroke-linejoin="round"/>
<path d="M473.85 84.07C482.686 81.1696 492.294 81.9335 500.734 86.3538C521.755 97.368 538.203 115.306 547.367 144.215C550.756 154.891 551.782 166.265 550.463 177.456" stroke="#F9F9F9" stroke-width="3" stroke-miterlimit="1.5" stroke-linecap="round" stroke-linejoin="round"/>
<path d="M414.694 242.624C402.101 245.7 388.692 245.888 374.782 244.791C392.458 240.123 409.09 232.927 422.84 220.836" stroke="#F9F9F9" stroke-width="3" stroke-miterlimit="1.5" stroke-linecap="round" stroke-linejoin="round"/>
<path d="M294.263 219.973C303.496 217.193 325.318 210.025 341.933 194.516" stroke="#F9F9F9" stroke-width="3" stroke-miterlimit="1.5" stroke-linecap="round" stroke-linejoin="round"/>
<path d="M308.302 15.0155C319.106 7.92837 332.697 6.57165 344.688 11.38C350.64 13.821 356.532 17.1839 362.351 21.3358" stroke="#F9F9F9" stroke-width="3" stroke-miterlimit="1.5" stroke-linecap="round" stroke-linejoin="round"/>
<path d="M393.985 61.6612C401.754 59.0809 410.079 57.7188 418.565 57.7188C431.421 57.7188 442.494 61.0033 451.704 66.4758" stroke="#F9F9F9" stroke-width="3" stroke-miterlimit="1.5" stroke-linecap="round" stroke-linejoin="round"/>
<path d="M407.335 247.748L406.682 247.958C406.682 247.958 401.951 268.464 399.78 278.29C397.61 288.111 394.741 301.875 390.959 321.161C383.497 359.245 341.935 349.162 341.935 321.161V126.925C341.935 106.465 350.061 86.8472 364.527 72.3816C372.22 64.6841 381.373 58.7825 391.334 54.9463C400.104 51.5686 409.497 49.7852 419.075 49.7852C443.206 49.7852 461.773 61.7018 474.337 78.8846" stroke="#242728" stroke-width="3.99927" stroke-miterlimit="1.5" stroke-linejoin="round"/>
<path d="M330.366 198.925C324.866 196.401 320.404 191.965 317.87 186.385L295.973 138.209C289.671 124.334 286.615 109.207 287.039 93.9806L288.509 41.3782C288.879 28.1351 295.703 15.9106 306.782 8.64447C317.862 1.36933 331.79 -0.0191143 344.086 4.91212C350.198 7.4183 356.229 10.8619 362.197 15.117C373.98 23.537 383.149 35.0946 388.657 48.4819C389.549 50.6365 390.442 52.8088 391.317 54.9364M447.697 90.7175C447.697 90.7175 458.028 85.5426 467.575 80.7737C478.907 75.1122 492.23 75.049 503.616 80.6112C526.884 91.9341 545.05 110.442 555.219 140.201C558.96 151.199 560.132 162.91 558.644 174.44C557.536 183.338 555.976 195.355 554.443 207.282C550.783 235.589 534.322 260.642 509.792 275.237C508.972 275.733 508.151 276.22 507.331 276.707C500.479 280.781 492.168 281.584 484.667 278.889C477.167 276.193 471.261 270.288 468.575 262.787C461.39 242.729 453.304 220.155 453.304 220.155" stroke="#242728" stroke-width="4.00549" stroke-miterlimit="1.5" stroke-linejoin="round"/>
<path d="M346.471 126.604V322.292C346.66 334.543 356.619 342.234 366.934 341.243" stroke="#F9F9F9" stroke-width="3" stroke-miterlimit="1.5" stroke-linecap="round" stroke-linejoin="round"/>
<path d="M424.24 212.773C411.966 226.854 390.785 236.151 373.406 241.41C372.098 241.791 371.221 243.023 371.297 244.388C371.372 245.748 372.378 246.878 373.724 247.113C396.131 250.651 429.518 247.837 458.088 233.471" stroke="#242728" stroke-width="3.9681" stroke-miterlimit="1.5" stroke-linejoin="round"/>
<path d="M341.934 189.205C338.577 192.762 334.652 196.001 330.379 198.928C318.764 206.905 304.6 212.609 292.357 216.298C291.063 216.667 290.186 217.873 290.239 219.213C290.284 220.56 291.237 221.697 292.553 221.976C308.404 224.637 327.097 223.621 341.934 220.166" stroke="#242728" stroke-width="3.9681" stroke-miterlimit="1.5" stroke-linejoin="round"/>
<path d="M514.167 55.1699C551.894 55.1699 588.068 70.1519 614.738 96.8218C641.415 123.499 656.397 159.673 656.397 197.393V330.786" stroke="#F9F9F9" stroke-width="3" stroke-miterlimit="1.5" stroke-linecap="round" stroke-linejoin="round"/>
<defs>
<clipPath id="clip0_531_517">
<rect width="263.426" height="298.84" fill="white" transform="translate(715 234)"/>
</clipPath>
</defs>
</svg>
