<svg width="837" height="450" viewBox="0 0 837 450" fill="none" xmlns="http://www.w3.org/2000/svg">
<g clip-path="url(#clip0_5992_25602)">
<path opacity="0.5" d="M518.251 45.822L825.304 314.992L645.065 429.289L214.756 395.088C191.387 393.231 171.493 375.733 169.906 352.344C167.246 313.159 170.216 251.514 204.238 185.796C252.867 91.8646 362.915 48.6832 446.057 27.513C471.594 21.0107 498.435 28.4511 518.251 45.822Z" fill="url(#paint0_linear_5992_25602)"/>
<path d="M526.753 414.012V436.515L655.772 449.004C655.772 449.004 676.297 421.9 702.542 409.718C720.248 401.498 730.359 403.784 735.492 406.714C738.877 408.648 743.063 408.473 746.307 406.314L757.883 398.596C760.76 396.681 762.489 393.458 762.484 389.999C762.484 383.908 763.862 373.871 771.931 367.15C784.206 356.922 835.083 339.201 835.083 339.201L831.571 315.818L739.498 320.918L526.748 414.017L526.753 414.012Z" fill="#E9FC87" stroke="#242728" stroke-width="1.9538" stroke-linejoin="round"/>
<path d="M526.753 414.011C539.028 381.28 589.802 340.86 639.273 352.637C653.594 305.585 672.004 293.31 702.693 287.17L831.581 315.813C790.663 326.041 735.116 354.874 735.116 375.33C679.877 377.377 648.704 407.974 643.165 426.764L526.758 414.011H526.753Z" fill="white" stroke="#242728" stroke-width="1.9538" stroke-linejoin="round"/>
<path d="M639.272 352.637L735.111 375.33" stroke="#242728" stroke-width="1.9538" stroke-linejoin="round"/>
<path d="M778.657 315.725C756.188 324.517 739.092 337.705 735.673 347.23" stroke="black" stroke-width="1.9538"/>
<path d="M677.303 374.095C654.834 382.887 637.738 396.075 634.319 405.6" stroke="black" stroke-width="1.9538"/>
<path d="M656.3 370.187C633.831 378.979 616.736 392.167 613.316 401.692" stroke="black" stroke-width="1.9538"/>
<path d="M635.296 366.279C612.827 375.071 595.732 388.26 592.312 397.784" stroke="black" stroke-width="1.9538"/>
<path d="M757.41 311.573C734.941 320.365 720.531 333.065 717.112 342.59" stroke="black" stroke-width="1.9538"/>
<path d="M737.626 306.2C728.101 308.642 715.646 315.969 708.808 324.761" stroke="black" stroke-width="1.9538"/>
<path fill-rule="evenodd" clip-rule="evenodd" d="M590.335 306.409C581.201 311.074 571.34 314.747 560.989 317.077C562.616 331.999 571.086 345.129 580.068 344.142C580.107 344.137 580.146 344.132 580.19 344.127C591.972 341.9 594.648 321.541 590.335 306.414V306.409Z" fill="#FF85D0"/>
<path fill-rule="evenodd" clip-rule="evenodd" d="M542.766 353.368C534.193 350.373 523.584 359.395 519.037 373.594C514.484 387.798 517.693 401.871 526.188 405.114C526.232 405.129 526.276 405.143 526.324 405.163C544.866 410.658 561.112 362.99 543.694 353.905L542.761 353.363L542.766 353.368Z" fill="#FF85D0"/>
<path fill-rule="evenodd" clip-rule="evenodd" d="M580.069 344.137C571.086 345.129 562.617 331.994 560.99 317.072C555.319 318.347 549.497 319.221 543.572 319.632C543.591 319.725 543.606 319.808 543.621 319.9C543.792 321.268 543.054 322.577 541.843 323.07C539.474 324.038 537.095 324.844 534.697 325.464C530.897 331.12 526.628 336.395 521.953 341.231L527.854 344.67C545.179 346.457 562.587 346.184 580.074 344.137H580.069Z" fill="#FF85D0"/>
<path fill-rule="evenodd" clip-rule="evenodd" d="M590.576 306.078C621.397 290.345 643.915 263.324 648.902 238.54C649.214 236.986 652.262 228.399 649.322 219.622C644.559 205.418 632.001 199.039 621.636 199.971C618.457 200.26 611.862 201.715 607.3 210.39C607.261 210.473 607.247 210.664 607.251 210.937L607.574 214.811C607.862 217.531 608.223 220.643 608.121 221.454C608.121 221.522 608.101 221.581 608.087 221.615C601.248 236.258 589.76 245.119 576.108 250.067C569.548 252.446 562.485 253.926 555.197 254.707C554.772 239.956 551.759 225.85 546.625 212.915C548.3 212.153 552.53 210.048 554.504 207.435C558.494 202.145 557.889 186.48 557.889 186.48L552.936 163.748L541.755 111.396C539.982 103.073 533.813 96.6152 525.978 94.8812C518.138 93.1521 510.084 96.4638 505.356 103.356L476.102 146.022C466.739 143.169 456.867 141.641 446.659 141.641C402.971 141.641 361.946 168.632 342.916 208.05L335.126 209.364C324.453 211.152 316.716 221.185 317.116 232.722L319.603 304.275C319.925 313.57 325.327 321.796 333.396 325.293C335.702 326.29 338.1 326.847 340.499 326.988C346.336 345.266 355.391 360.74 368.487 376.981L368.169 415.139C368.384 425.074 381.436 433.104 397.486 433.104C413.669 433.104 426.803 424.947 426.803 414.89C431.267 417.02 437.28 418.846 443.332 418.846C457.942 418.846 469.811 411.471 469.811 402.395L469.547 374.72C487.2 387.356 506.23 397.228 526.423 404.779C517.928 401.536 514.719 387.463 519.272 373.259C523.819 359.055 534.428 350.038 543.001 353.032L522.183 340.894C526.857 336.064 531.126 330.784 534.926 325.127C525.705 327.516 516.253 327.306 506.552 324.37C506.357 324.312 506.167 324.248 505.981 324.18C503.231 323.183 501.277 321.225 500.11 318.88C497.54 313.722 498.766 306.708 503.568 303.982C505.698 302.776 508.203 302.727 510.333 303.767C510.895 304.046 511.437 304.397 511.935 304.822C515.061 307.48 518.226 309.609 521.435 311.299C527.942 314.718 534.614 316.335 541.364 316.999C542.571 317.122 543.553 318.054 543.811 319.295C549.736 318.885 555.559 318.011 561.23 316.736C571.58 314.406 581.442 310.737 590.576 306.073V306.078Z" fill="#FF85D0"/>
<path fill-rule="evenodd" clip-rule="evenodd" d="M546.634 213.496C546.634 213.496 551.309 211.005 553.795 207.717C557.781 202.427 558.587 193.386 557.175 186.763M552.212 164.03C548.793 148.034 544.695 128.867 541.027 111.673C539.244 103.345 533.075 96.8879 525.245 95.1539C517.41 93.4199 509.356 96.7316 504.627 103.624C494.541 118.346 483.526 134.411 475.423 146.231" fill="#FF85D0"/>
<path d="M546.634 213.495C546.634 213.495 551.309 211.004 553.795 207.716C557.781 202.426 558.587 193.385 557.175 186.762L552.212 164.034C548.793 148.037 544.695 128.871 541.027 111.677C539.244 103.349 533.075 96.8918 525.245 95.1578C517.41 93.4238 509.356 96.7355 504.627 103.628C494.541 118.349 483.526 134.415 475.423 146.235" stroke="#242728" stroke-width="1.9538" stroke-linejoin="round"/>
<path fill-rule="evenodd" clip-rule="evenodd" d="M542.428 353.348C533.836 350.208 523.139 359.254 518.558 373.536C513.981 387.818 517.244 401.964 525.835 405.105" fill="#FF85D0"/>
<path d="M542.428 353.348C533.836 350.208 523.139 359.254 518.558 373.536C513.981 387.818 517.244 401.964 525.835 405.105" stroke="#242728" stroke-width="1.9538" stroke-linejoin="round"/>
<path fill-rule="evenodd" clip-rule="evenodd" d="M560.516 317.004C562.157 331.999 570.69 345.183 579.717 344.059L560.516 317.004Z" fill="#FF85D0"/>
<path d="M560.516 317.004C562.157 331.999 570.69 345.183 579.717 344.059" stroke="#242728" stroke-width="1.9538" stroke-linejoin="round"/>
<path fill-rule="evenodd" clip-rule="evenodd" d="M505.639 331.939L543.21 353.851C560.624 362.951 544.392 410.614 525.851 405.114C499.03 395.096 474.261 380.985 452.051 361.745" fill="#FF85D0"/>
<path d="M505.639 331.939L543.21 353.851C560.624 362.951 544.392 410.614 525.851 405.114C499.03 395.096 474.261 380.985 452.051 361.745" stroke="#242728" stroke-width="1.9538" stroke-linejoin="round"/>
<path fill-rule="evenodd" clip-rule="evenodd" d="M589.857 306.35C594.175 321.472 591.493 341.836 579.712 344.058C562.186 346.124 544.734 346.398 527.369 344.605" fill="#FF85D0"/>
<path d="M589.857 306.35C594.175 321.472 591.493 341.836 579.712 344.058C562.186 346.124 544.734 346.398 527.369 344.605" stroke="#242728" stroke-width="1.9538" stroke-linejoin="round"/>
<path fill-rule="evenodd" clip-rule="evenodd" d="M389.851 200.224C389.851 200.224 345.417 207.702 319.221 212.113C308.548 213.91 300.811 223.948 301.207 235.48C301.842 253.987 302.819 282.191 303.674 307.043C303.991 316.338 309.388 324.564 317.458 328.056C325.522 331.549 334.763 329.653 341.055 323.22C354.712 309.256 367.079 296.6 367.079 296.6" fill="#FF85D0"/>
<path fill-rule="evenodd" clip-rule="evenodd" d="M534.207 325.401C530.402 331.057 526.138 336.337 521.468 341.168C521.434 341.202 521.4 341.236 521.366 341.266M377.786 388.997C359.068 368.106 346.881 349.706 339.672 326.944L377.786 388.997ZM464.862 372.087C458.712 373.24 452.392 373.674 445.944 373.845C437.465 374.065 431.633 373.254 426.518 372.028M342.07 208.593C361.042 169.028 402.155 141.919 445.944 141.919C504.734 141.919 552.676 191.922 554.478 254.238" fill="#FF85D0"/>
<path d="M534.207 325.401C530.402 331.057 526.138 336.337 521.468 341.168C521.434 341.202 521.4 341.236 521.366 341.266M377.786 388.997C359.068 368.106 346.881 349.706 339.672 326.944M464.862 372.087C458.712 373.24 452.392 373.674 445.944 373.845C437.465 374.065 431.633 373.254 426.518 372.028M342.07 208.593C361.042 169.028 402.155 141.919 445.944 141.919C504.734 141.919 552.676 191.922 554.478 254.238" stroke="#242728" stroke-width="1.9538" stroke-linejoin="round"/>
<path d="M507.104 127.865L495.376 153.778" stroke="#242728" stroke-width="1.9538" stroke-linejoin="round"/>
<path fill-rule="evenodd" clip-rule="evenodd" d="M507.943 269.057C510.942 260.363 515.304 254.135 525.425 255.278C527.936 255.483 532.381 255.669 540.259 255.689C552.505 255.718 564.623 254.243 575.389 250.335C589.041 245.382 600.524 236.527 607.368 221.878C607.709 221.145 606.254 211.41 606.576 210.658C611.138 201.983 617.732 200.528 620.917 200.24C631.277 199.307 643.84 205.681 648.598 219.89C651.538 228.667 648.49 237.254 648.178 238.808C643.191 263.597 620.678 290.613 589.852 306.346C580.718 311.006 570.856 314.679 560.506 317.009C554.835 318.284 549.017 319.158 543.087 319.568" fill="#FF85D0"/>
<path d="M507.943 269.057C510.942 260.363 515.304 254.135 525.425 255.278C527.936 255.483 532.381 255.669 540.259 255.689C552.505 255.718 564.623 254.243 575.389 250.335C589.041 245.382 600.524 236.527 607.368 221.878C607.709 221.145 606.254 211.41 606.576 210.658C611.138 201.983 617.732 200.528 620.917 200.24C631.277 199.307 643.84 205.681 648.598 219.89C651.538 228.667 648.49 237.254 648.178 238.808C643.191 263.597 620.678 290.613 589.852 306.346C580.718 311.006 570.856 314.679 560.506 317.009C554.835 318.284 549.017 319.158 543.087 319.568" stroke="#242728" stroke-width="1.9538" stroke-linejoin="round"/>
<path fill-rule="evenodd" clip-rule="evenodd" d="M575.472 250.29C567.432 254.554 565.132 263.918 569.704 271.406L575.472 250.29Z" fill="#FF85D0"/>
<path d="M575.472 250.29C567.432 254.554 565.132 263.918 569.704 271.406" stroke="#242728" stroke-width="1.9538" stroke-linejoin="round"/>
<path fill-rule="evenodd" clip-rule="evenodd" d="M408.466 323.354C408.466 323.354 417.781 344.328 422.671 355.318C424.585 359.631 425.596 364.335 425.65 369.107C425.797 383.682 426.099 415.177 426.099 415.177C426.099 425.23 412.97 433.387 396.783 433.387C380.605 433.382 367.466 425.215 367.466 415.163" fill="#FF85D0"/>
<path d="M408.466 323.354C408.466 323.354 417.781 344.328 422.671 355.318C424.585 359.631 425.596 364.335 425.65 369.107C425.797 383.682 426.099 415.177 426.099 415.177C426.099 425.23 412.97 433.387 396.783 433.387C380.605 433.382 367.466 425.215 367.466 415.163" stroke="#242728" stroke-width="1.9538" stroke-linejoin="round"/>
<path fill-rule="evenodd" clip-rule="evenodd" d="M468.839 376.63C468.966 389.286 469.093 402.674 469.093 402.674C469.093 411.754 457.233 419.125 442.614 419.12C436.567 419.12 430.979 417.85 426.515 415.721" fill="#FF85D0"/>
<path d="M468.839 376.63C468.966 389.286 469.093 402.674 469.093 402.674C469.093 411.754 457.233 419.125 442.614 419.12C436.567 419.12 430.979 417.85 426.515 415.721" stroke="#242728" stroke-width="1.9538" stroke-linejoin="round"/>
<path d="M367.764 377.767L367.461 415.729" stroke="#242728" stroke-width="1.9538" stroke-linejoin="round"/>
<path fill-rule="evenodd" clip-rule="evenodd" d="M502.85 304.26C505.546 302.731 508.833 303.063 511.212 305.1C520.668 313.154 530.559 316.315 540.641 317.277C541.926 317.409 542.961 318.469 543.127 319.836C543.298 321.204 542.561 322.523 541.354 323.011C529.885 327.715 518.055 328.34 505.829 324.648C496.47 321.815 495.713 308.319 502.85 304.26Z" fill="white" stroke="#242728" stroke-width="1.9538" stroke-linejoin="round"/>
<path fill-rule="evenodd" clip-rule="evenodd" d="M509.61 304.044C504.867 301.026 502.342 297.875 499.177 294.285L509.61 304.044Z" fill="#FF85D0"/>
<path d="M509.61 304.044C504.867 301.026 502.342 297.875 499.177 294.285" stroke="#242728" stroke-width="1.9538" stroke-linejoin="round"/>
<path fill-rule="evenodd" clip-rule="evenodd" d="M505.262 324.457C499.904 323.006 494.301 319.968 490.306 317.486L505.262 324.457Z" fill="#FF85D0"/>
<path d="M505.262 324.457C499.904 323.006 494.301 319.968 490.306 317.486" stroke="#242728" stroke-width="1.9538" stroke-linejoin="round"/>
<path d="M348.743 207.141C338.417 208.88 327.832 210.662 319.226 212.108C308.553 213.906 300.816 223.943 301.212 235.476C301.847 253.983 302.824 282.186 303.678 307.039C303.996 316.334 309.393 324.559 317.463 328.052C325.527 331.544 334.768 329.649 341.06 323.216C354.717 309.251 367.084 296.596 367.084 296.596" stroke="#242728" stroke-width="1.9538" stroke-linejoin="round"/>
<g filter="url(#filter0_f_5992_25602)">
<path d="M291.455 406.329C292.176 422.392 251.463 395.716 250.202 426.982L248.941 401.166C248.22 385.102 290.374 386.25 289.654 370.187L291.455 406.329Z" fill="url(#paint1_linear_5992_25602)"/>
</g>
<path d="M150.874 102.196C145.009 107.506 133.661 66.4545 127.796 71.7647L137.104 63.391C142.969 58.0808 150.492 102.604 156.357 97.2943L150.874 102.196Z" fill="url(#paint2_linear_5992_25602)"/>
<path d="M344.992 106.897C349.362 101.136 333.482 92.2187 337.426 85.9082L332.417 94.0021C328.474 100.313 338.491 113.345 334.655 119.518L344.992 106.897Z" fill="url(#paint3_linear_5992_25602)"/>
<g filter="url(#filter1_f_5992_25602)">
<path d="M55.0803 385.488C50.3965 396.675 23.0144 386.636 18.8711 415.607L20.6725 382.046C21.5733 371.433 47.334 379.752 59.4037 361.394L55.0803 385.488Z" fill="url(#paint4_linear_5992_25602)"/>
</g>
<g filter="url(#filter2_f_5992_25602)">
<path d="M211.822 289.547C212.99 277.595 239.546 269.284 238.711 258.728L240.197 275.774C241.156 286.46 211.193 296.638 209.775 308.33L211.822 289.547Z" fill="url(#paint5_linear_5992_25602)"/>
<path d="M615.813 54.5732C609.77 46.5044 621.553 24.4339 615.057 18.501L625.632 27.9937C632.278 33.9266 619.438 59.3196 625.179 67.3884L615.813 54.5732Z" fill="url(#paint6_linear_5992_25602)"/>
<path d="M625.099 61.6079C631.141 66.1466 619.358 78.5613 625.854 81.8986L615.28 76.5589C608.633 73.2217 621.473 58.9381 615.733 54.3994L625.099 61.6079Z" fill="url(#paint7_linear_5992_25602)"/>
<path d="M120.537 308.415C122.114 317.525 102.699 317.677 105.579 326.171L100.819 312.422C97.8126 303.796 119.55 302.994 118.226 294.148L120.537 308.415Z" fill="url(#paint8_linear_5992_25602)"/>
</g>
<path d="M684.087 421.788C683.513 415.862 672.512 422.445 672.775 416.537L672.396 426.242C672.163 432.331 684.51 425.309 685.204 430.95L684.087 421.788Z" fill="url(#paint9_linear_5992_25602)"/>
<path d="M673.077 415.036C673.373 408.604 662.107 412.279 663.206 406.017L661.41 416.021C660.31 422.283 672.965 418.687 672.728 424.975L673.077 415.036Z" fill="url(#paint10_linear_5992_25602)"/>
<g filter="url(#filter3_f_5992_25602)">
<path d="M737.652 217.98C729.155 222.098 744.098 252.519 735.894 257.78L746.443 250.918C754.647 245.657 749.226 215.236 757.284 209.975L737.652 217.98Z" fill="url(#paint11_linear_5992_25602)"/>
</g>
</g>
<defs>
<filter id="filter0_f_5992_25602" x="230.812" y="352.067" width="78.7718" height="93.0335" filterUnits="userSpaceOnUse" color-interpolation-filters="sRGB">
<feFlood flood-opacity="0" result="BackgroundImageFix"/>
<feBlend mode="normal" in="SourceGraphic" in2="BackgroundImageFix" result="shape"/>
<feGaussianBlur stdDeviation="9.05965" result="effect1_foregroundBlur_5992_25602"/>
</filter>
<filter id="filter1_f_5992_25602" x="0.751795" y="343.274" width="76.7708" height="90.4525" filterUnits="userSpaceOnUse" color-interpolation-filters="sRGB">
<feFlood flood-opacity="0" result="BackgroundImageFix"/>
<feBlend mode="normal" in="SourceGraphic" in2="BackgroundImageFix" result="shape"/>
<feGaussianBlur stdDeviation="9.05965" result="effect1_foregroundBlur_5992_25602"/>
</filter>
<filter id="filter2_f_5992_25602" x="82.4139" y="0.381678" width="563.3" height="343.909" filterUnits="userSpaceOnUse" color-interpolation-filters="sRGB">
<feFlood flood-opacity="0" result="BackgroundImageFix"/>
<feBlend mode="normal" in="SourceGraphic" in2="BackgroundImageFix" result="shape"/>
<feGaussianBlur stdDeviation="9.05965" result="effect1_foregroundBlur_5992_25602"/>
</filter>
<filter id="filter3_f_5992_25602" x="716.821" y="191.855" width="58.5823" height="84.0443" filterUnits="userSpaceOnUse" color-interpolation-filters="sRGB">
<feFlood flood-opacity="0" result="BackgroundImageFix"/>
<feBlend mode="normal" in="SourceGraphic" in2="BackgroundImageFix" result="shape"/>
<feGaussianBlur stdDeviation="9.05965" result="effect1_foregroundBlur_5992_25602"/>
</filter>
<linearGradient id="paint0_linear_5992_25602" x1="177.407" y1="223.774" x2="825.398" y2="223.477" gradientUnits="userSpaceOnUse">
<stop stop-color="#FFC6D9"/>
<stop offset="0.333333" stop-color="#7CCFE1"/>
<stop offset="0.640625" stop-color="#89CBA6"/>
<stop offset="1" stop-color="#A5D571"/>
</linearGradient>
<linearGradient id="paint1_linear_5992_25602" x1="253.098" y1="427.416" x2="302.294" y2="400.313" gradientUnits="userSpaceOnUse">
<stop offset="0.0921788" stop-color="#6134BA"/>
<stop offset="0.2933" stop-color="#B23CC9"/>
<stop offset="0.8101" stop-color="#FF4D6A"/>
<stop offset="1" stop-color="#FFA6B5"/>
</linearGradient>
<linearGradient id="paint2_linear_5992_25602" x1="152.584" y1="108.52" x2="123.119" y2="82.0021" gradientUnits="userSpaceOnUse">
<stop stop-color="#3E29A6"/>
<stop offset="0.0921788" stop-color="#344ABA"/>
<stop offset="0.2933" stop-color="#56A3C9"/>
<stop offset="0.8101" stop-color="#00FFAA"/>
<stop offset="1" stop-color="#CCFFD5"/>
</linearGradient>
<linearGradient id="paint3_linear_5992_25602" x1="339.181" y1="119.45" x2="337.625" y2="88.7361" gradientUnits="userSpaceOnUse">
<stop stop-color="#3E29A6"/>
<stop offset="0.0921788" stop-color="#344ABA"/>
<stop offset="0.2933" stop-color="#56A3C9"/>
<stop offset="0.8101" stop-color="#00FFAA"/>
<stop offset="1" stop-color="#CCFFD5"/>
</linearGradient>
<linearGradient id="paint4_linear_5992_25602" x1="16.2568" y1="420.624" x2="77.8255" y2="378.846" gradientUnits="userSpaceOnUse">
<stop stop-color="#3E29A6"/>
<stop offset="0.0921788" stop-color="#344ABA"/>
<stop offset="0.2933" stop-color="#56A3C9"/>
<stop offset="0.8101" stop-color="#00FFAA"/>
<stop offset="1" stop-color="#CCFFD5"/>
</linearGradient>
<linearGradient id="paint5_linear_5992_25602" x1="198.291" y1="301.811" x2="245.195" y2="285.891" gradientUnits="userSpaceOnUse">
<stop stop-color="#3E29A6"/>
<stop offset="0.0921788" stop-color="#344ABA"/>
<stop offset="0.2933" stop-color="#56A3C9"/>
<stop offset="0.8101" stop-color="#00FFAA"/>
<stop offset="1" stop-color="#CCFFD5"/>
</linearGradient>
<linearGradient id="paint6_linear_5992_25602" x1="614.356" y1="70.7379" x2="634.564" y2="31.046" gradientUnits="userSpaceOnUse">
<stop stop-color="#3E29A6"/>
<stop offset="0.0921788" stop-color="#344ABA"/>
<stop offset="0.2933" stop-color="#56A3C9"/>
<stop offset="0.8101" stop-color="#00FFAA"/>
<stop offset="1" stop-color="#CCFFD5"/>
</linearGradient>
<linearGradient id="paint7_linear_5992_25602" x1="617.849" y1="57.7548" x2="622.563" y2="88.5758" gradientUnits="userSpaceOnUse">
<stop stop-color="#3E29A6"/>
<stop offset="0.0921788" stop-color="#344ABA"/>
<stop offset="0.2933" stop-color="#56A3C9"/>
<stop offset="0.8101" stop-color="#00FFAA"/>
<stop offset="1" stop-color="#CCFFD5"/>
</linearGradient>
<linearGradient id="paint8_linear_5992_25602" x1="117.422" y1="298.826" x2="95.3557" y2="327.097" gradientUnits="userSpaceOnUse">
<stop stop-color="#3E29A6"/>
<stop offset="0.0921788" stop-color="#344ABA"/>
<stop offset="0.2933" stop-color="#56A3C9"/>
<stop offset="0.8101" stop-color="#00FFAA"/>
<stop offset="1" stop-color="#CCFFD5"/>
</linearGradient>
<linearGradient id="paint9_linear_5992_25602" x1="673.094" y1="432.39" x2="684.68" y2="422.255" gradientUnits="userSpaceOnUse">
<stop stop-color="#A629A6"/>
<stop offset="0.0921788" stop-color="#BA34A2"/>
<stop offset="0.2933" stop-color="#C9567E"/>
<stop offset="0.8101" stop-color="#FFCE00"/>
<stop offset="1" stop-color="#FFEA90"/>
</linearGradient>
<linearGradient id="paint10_linear_5992_25602" x1="672.479" y1="423.22" x2="660.169" y2="413.634" gradientUnits="userSpaceOnUse">
<stop stop-color="#A629A6"/>
<stop offset="0.0921788" stop-color="#BA34A2"/>
<stop offset="0.2933" stop-color="#C9567E"/>
<stop offset="0.8101" stop-color="#FFCE00"/>
<stop offset="1" stop-color="#FFEA90"/>
</linearGradient>
<linearGradient id="paint11_linear_5992_25602" x1="744.299" y1="258.309" x2="749.306" y2="212.615" gradientUnits="userSpaceOnUse">
<stop stop-color="#A629A6"/>
<stop offset="0.0921788" stop-color="#BA34A2"/>
<stop offset="0.2933" stop-color="#C9567E"/>
<stop offset="0.8101" stop-color="#FFCE00"/>
<stop offset="1" stop-color="#FFEA90"/>
</linearGradient>
<clipPath id="clip0_5992_25602">
<rect width="837" height="450" fill="white"/>
</clipPath>
</defs>
</svg>
