<svg width="202" height="219" viewBox="0 0 202 219" fill="none" xmlns="http://www.w3.org/2000/svg">
<path fill-rule="evenodd" clip-rule="evenodd" d="M45.0423 127.721C37.6601 95.1019 27.9515 52.4305 24.3546 36.6603C22.7485 29.6257 26.9977 22.5799 33.9652 20.7203L102.423 2.45301C105.673 1.58924 109.13 1.97393 112.108 3.53927L184.208 41.4392C190.011 44.4869 192.755 51.2839 190.704 57.5075L178.515 94.4986C179.729 95.947 180.743 97.5349 181.535 99.2247C183.789 104.019 184.272 109.597 182.628 114.912L175.6 137.63C174.179 142.228 170.386 145.694 165.684 146.705C164.225 147.018 162.751 147.079 161.311 146.905C160.176 150.345 161.277 146.803 159.799 151.284C159.724 151.507 159.403 157.708 159.403 157.708V187.415C159.403 193.16 151.391 197.826 141.521 197.826C131.65 197.826 123.634 193.16 123.634 187.415C123.634 187.415 123.676 183.956 123.721 179.668C123.77 175.274 123.83 170.016 123.864 166.715C117.036 168.198 108.538 170.046 105.756 170.645L110.977 182.244V201.715C110.977 207.459 102.962 212.121 93.091 212.121C83.2204 212.121 75.2048 207.459 75.2048 201.715L75.3594 186.619L69.9302 177.959C66.733 178.566 65.0589 178.804 64.2445 178.751C59.543 178.446 55.603 175.07 54.585 170.464C53.8837 167.296 53.1409 163.954 52.3642 160.48C51.2294 155.373 50.0191 149.975 48.7673 144.385C47.2027 137.415 52.0665 158.839 48.1718 141.575C47.1991 137.264 46.147 132.606 45.0423 127.721Z" fill="#E9FC87"/>
<path fill-rule="evenodd" clip-rule="evenodd" d="M52.365 160.48C53.1416 163.954 53.8845 167.296 54.5857 170.464C55.6037 175.07 59.5437 178.445 64.2453 178.751C65.0597 178.804 66.7337 178.566 69.9309 177.959L75.3601 186.619L75.3036 192.428C73.656 192.718 71.8348 192.873 70.0289 192.873C60.1544 192.873 52.1426 188.211 52.1426 182.466L52.365 160.48Z" fill="#E9FC87"/>
<path fill-rule="evenodd" clip-rule="evenodd" d="M110.978 182.614V182.244L105.756 170.646C108.538 170.046 117.037 168.198 123.865 166.715C123.831 170.016 123.77 175.274 123.721 179.668C120.494 181.426 115.713 182.614 110.978 182.614Z" fill="#E9FC87"/>
<path fill-rule="evenodd" clip-rule="evenodd" d="M178.809 127.257L182.628 114.912C184.272 109.597 183.789 104.019 181.535 99.2246C183.201 98.5494 184.626 97.4102 185.765 95.7694C187.903 92.8538 191.899 92.0391 195.006 93.8874C195.006 93.8874 195.006 93.8874 194.987 93.9176C198.886 96.2335 200.499 101.054 198.788 105.256C194.685 115.527 187.823 122.738 178.809 127.257Z" fill="#E9FC87"/>
<path d="M105.757 170.646C110.111 169.703 128.476 165.709 132.499 164.83M123.865 166.712C123.798 173.23 123.635 187.412 123.635 187.412C123.635 193.157 131.647 197.823 141.522 197.823C151.392 197.823 159.404 193.157 159.404 187.412V157.705C159.404 157.705 159.725 151.504 159.8 151.281C161.301 146.725 160.139 150.459 161.372 146.729M178.512 94.4955C182.437 82.5876 188.296 64.8106 190.705 57.5045C192.756 51.2808 190.008 44.4838 184.209 41.4362C165.422 31.5613 125.656 10.6575 112.11 3.53621C109.131 1.97087 105.674 1.58628 102.42 2.45382C89.1786 5.9843 53.1873 15.5913 33.9663 20.7173C26.995 22.5768 22.7497 29.6226 24.3521 36.6572C28.4919 54.7887 40.7076 108.478 48.1728 141.572C52.0675 158.836 47.2039 137.412 48.7648 144.382C50.8724 153.774 52.8518 162.635 54.5861 170.461C55.6041 175.067 59.5402 178.443 64.2456 178.748C65.7688 178.846 70.3158 177.93 82.2639 175.459" stroke="#242728" stroke-width="4" stroke-miterlimit="1.5" stroke-linecap="round" stroke-linejoin="round"/>
<path d="M98.5 95.2529L83.2824 134.688" stroke="#242728" stroke-width="4" stroke-miterlimit="1.5" stroke-linecap="round" stroke-linejoin="round"/>
<path d="M69.9268 177.958L75.3591 186.616L75.2065 201.712C75.2076 207.457 83.222 212.121 93.0958 212.122C102.965 212.123 110.981 207.461 110.98 201.716L110.976 182.245L105.601 170.305" stroke="#242728" stroke-width="4" stroke-miterlimit="1.5" stroke-linejoin="round"/>
<path d="M52.3633 160.479L52.142 182.464C52.1431 188.209 60.1574 192.872 70.0311 192.874C71.837 192.874 73.6614 192.718 75.3022 192.427" stroke="#242728" stroke-width="4" stroke-miterlimit="1.5" stroke-linejoin="round"/>
<path d="M110.979 182.612C115.858 182.613 120.782 181.355 124.008 179.509" stroke="#242728" stroke-width="4" stroke-miterlimit="1.5" stroke-linejoin="round"/>
<path d="M141.79 68.2013C141.79 68.2013 160.751 81.2888 174.209 90.576C182.028 95.9773 185.438 105.829 182.631 114.91C180.503 121.785 177.946 130.048 175.601 137.626C174.18 142.222 170.386 145.691 165.686 146.702C160.983 147.711 156.101 146.1 152.92 142.494C145.524 134.102 138.294 125.903 138.294 125.903" stroke="#242728" stroke-width="4" stroke-miterlimit="1.5" stroke-linejoin="round"/>
<path d="M162.58 59.804C162.58 59.804 130.778 66.8234 115.493 70.1954C110.32 71.3346 104.91 70.5878 100.238 68.087C85.9072 60.4112 55.2923 44.0186 55.2923 44.0186" stroke="#242728" stroke-width="4" stroke-miterlimit="1.5" stroke-linecap="round" stroke-linejoin="round"/>
<path d="M178.811 127.257C187.825 122.738 194.683 115.522 198.789 105.252C200.501 101.054 198.887 96.233 194.989 93.9133C195.008 93.8831 195.008 93.8831 195.008 93.8831C191.901 92.0386 187.901 92.8534 185.767 95.769C184.624 97.406 183.199 98.5453 181.536 99.2205" stroke="#242728" stroke-width="4" stroke-miterlimit="1.5" stroke-linecap="round" stroke-linejoin="round"/>
<path d="M56.4851 130.243C51.7659 124.912 36.5332 125.754 36.4965 140.245C36.4428 160.301 13.4992 161.498 7.90234 142.919" stroke="#242728" stroke-width="4" stroke-miterlimit="1.5" stroke-linecap="round" stroke-linejoin="round"/>
<path fill-rule="evenodd" clip-rule="evenodd" d="M3.36918 132.065C5.22205 131.282 9.91655 138.223 10.6994 140.078C11.4822 141.933 10.6109 144.075 8.75803 144.858C6.90515 145.641 4.76276 144.772 3.97992 142.917C3.19709 141.063 1.5163 132.848 3.36918 132.065Z" fill="#E9FC87" stroke="#242728" stroke-width="4" stroke-miterlimit="1.5" stroke-linejoin="round"/>
</svg>
