<svg width="1440" height="900" viewBox="0 0 1440 900" fill="none" xmlns="http://www.w3.org/2000/svg">
<g clip-path="url(#clip0_14622_3338)">
<path fill-rule="evenodd" clip-rule="evenodd" d="M-62.0206 884.471C-112.758 901.352 -163.499 918.233 -214.239 935.113C-29.0506 1060.23 155.885 1186.65 340.66 1313.88C388.889 1288.61 437.117 1263.34 485.346 1238.07C303.15 1118.79 120.736 1000.69 -62.0206 884.471Z" fill="#747474" fill-opacity="0.07"/>
<path fill-rule="evenodd" clip-rule="evenodd" d="M192.797 799.696C146.346 815.15 99.8958 830.603 53.4453 846.057C234.173 955.666 414.508 1067.53 594.587 1180.82C638.319 1157.9 682.054 1134.98 725.789 1112.07C548.461 1005.94 370.844 901.503 192.797 799.696Z" fill="#747474" fill-opacity="0.07"/>
<path fill-rule="evenodd" clip-rule="evenodd" d="M425.561 722.257C383.156 736.365 340.754 750.472 298.352 764.579C474.194 860.612 649.587 959.505 824.675 1060.25C864.193 1039.54 903.712 1018.83 943.227 998.121C771.036 903.807 598.523 811.504 425.561 722.257Z" fill="#747474" fill-opacity="0.07"/>
<path fill-rule="evenodd" clip-rule="evenodd" d="M637.571 651.722C598.976 664.563 560.377 677.405 521.778 690.246C692.396 774.493 862.565 861.887 1032.42 951.384C1067.99 932.741 1103.57 914.098 1139.14 895.455C972.304 811.702 805.152 730.119 637.571 651.722Z" fill="#747474" fill-opacity="0.07"/>
<path fill-rule="evenodd" clip-rule="evenodd" d="M830.135 587.659C795.101 599.314 760.067 610.97 725.033 622.625C890.157 696.733 1054.87 774.002 1219.29 853.457C1251.2 836.735 1283.11 820.013 1315.02 803.291C1153.71 728.95 992.11 656.773 830.135 587.659Z" fill="#747474" fill-opacity="0.07"/>
<path fill-rule="evenodd" clip-rule="evenodd" d="M1004.55 529.632C972.837 540.182 941.123 550.733 909.409 561.284C1068.85 626.756 1227.95 695.167 1386.77 765.688C1415.29 750.743 1443.81 735.797 1472.33 720.851C1316.67 654.868 1160.76 590.887 1004.55 529.632Z" fill="#747474" fill-opacity="0.07"/>
<path fill-rule="evenodd" clip-rule="evenodd" d="M1162.37 477.126C1133.74 486.651 1105.11 496.175 1076.48 505.7C1230.11 563.884 1383.46 624.587 1536.6 687.175C1562 673.864 1587.4 660.552 1612.8 647.241C1462.86 588.667 1312.73 531.79 1162.37 477.126Z" fill="#747474" fill-opacity="0.07"/>
<path fill-rule="evenodd" clip-rule="evenodd" d="M1304.6 429.809C1278.81 438.388 1253.02 446.967 1227.24 455.547C1374.99 507.662 1522.56 561.719 1669.96 617.293C1692.51 605.471 1715.07 593.649 1737.64 581.827C1593.42 529.796 1449.09 479.02 1304.6 429.809Z" fill="#747474" fill-opacity="0.07"/>
<path fill-rule="evenodd" clip-rule="evenodd" d="M1432.53 387.246C1409.34 394.96 1386.15 402.675 1362.96 410.389C1504.86 457.511 1646.65 505.876 1788.33 555.26C1808.32 544.783 1828.31 534.305 1848.31 523.828C1709.79 477.57 1571.19 432 1432.53 387.246Z" fill="#747474" fill-opacity="0.07"/>
<path fill-rule="evenodd" clip-rule="evenodd" d="M947.036 820.561C938.427 819.525 930.578 816.801 923.622 812.087C914.267 805.862 909.834 797.903 909.03 788.662C910.674 782.714 916.368 777.744 923.642 783.177L924.338 787.935C929.993 796.147 936.681 797.361 943.657 796.628L942.46 788.159L937.665 785.224C935.746 784.051 934.379 782.152 933.873 779.961L925.885 745.274C925.169 742.164 926.527 738.943 929.253 737.282C931.981 735.618 935.466 735.889 937.905 737.95L948.775 747.136L980.146 736.925C983.807 735.731 987.793 736.049 991.219 737.805L1031.57 758.49C1034.65 760.07 1036.18 763.612 1035.21 766.937L1028.66 789.443C1032.56 791.096 1034.72 795.328 1033.74 799.474L1026.39 830.466L1030.26 829.89C1034.99 833.804 1036.91 838.713 1034.18 845.268L1017.56 852.031C1015.39 852.916 1012.9 852.397 1011.26 850.717L1007.33 846.688L1003.5 847.893L1007.67 856.094C1004.33 863.967 998.939 868.608 990.765 868.89C985.18 862.845 980.731 855.541 977.366 847.036L969.924 843.259C963.345 848.844 956.754 854.207 950.044 857.265C942.585 856.206 936.41 850.925 937.975 839.966L948.967 831.149C948.579 830.418 948.314 829.612 948.195 828.77L947.036 820.561Z" fill="#FF85D0"/>
<path d="M939.742 838.635C942.999 836.698 948.093 839.237 951.109 844.301C954.125 849.366 953.928 855.051 950.671 856.988" stroke="#1C1C1C" stroke-width="1.23775" stroke-miterlimit="1.5" stroke-linejoin="round"/>
<path d="M948.837 830.89L939.46 838.894C933.082 843.861 943.541 860.681 950.669 856.991C957.629 852.788 963.448 848.527 969.217 842.903" stroke="#1C1C1C" stroke-width="1.23775" stroke-miterlimit="1.5" stroke-linejoin="round"/>
<path d="M949.125 747.065C945.475 744.124 942.445 741.68 938.719 738.676C935.686 736.232 932.011 735.542 929.311 736.91C926.613 738.278 925.387 741.451 926.177 745.031C928.807 756.938 931.922 771.055 933.481 778.109C934.108 780.954 935.798 783.803 938.263 785.647C939.799 786.796 942.033 787.43 942.033 787.43" stroke="#1C1C1C" stroke-width="1.23775" stroke-miterlimit="1.5" stroke-linejoin="round"/>
<path d="M941.686 749.118C939.295 747.191 936.398 746.647 934.27 747.725" stroke="#1C1C1C" stroke-width="1.23775" stroke-miterlimit="1.5" stroke-linejoin="round"/>
<path d="M1003.27 847.894L1012.46 845.167M1014.36 838.547L1015.43 834.897M947.025 820.493L948.195 828.771C948.524 831.105 949.974 833.134 952.077 834.201L977.365 847.036M1028.66 789.425L1035.21 766.937C1036.18 763.612 1034.65 760.07 1031.57 758.49L991.219 737.805C987.793 736.049 983.807 735.731 980.146 736.925L942.966 749.026C939.63 750.112 937.557 753.434 938.047 756.904L943.657 796.628" stroke="#1C1C1C" stroke-width="1.23775" stroke-miterlimit="1.5" stroke-linejoin="round"/>
<path d="M952.772 758.811C967.926 766.504 969.172 767.135 980.63 772.951C985.342 775.343 990.806 775.79 995.845 774.197C1001.92 772.273 1006.87 770.863 1014.67 768.394" stroke="#1C1C1C" stroke-width="1.23775" stroke-miterlimit="1.5" stroke-linejoin="round"/>
<path d="M998.798 840.687L1007.02 853.286C1011.19 860.826 994.355 873.639 988.953 867.088C982.552 858.192 977.429 848.582 973.865 838.101" stroke="#1C1C1C" stroke-width="1.23775" stroke-miterlimit="1.5" stroke-linejoin="round"/>
<path d="M959.923 801.151C958.849 798.233 957.285 796.143 953.655 796.526C952.755 796.595 951.161 796.657 948.335 796.664C938.375 796.686 928.659 796.593 924.271 787.8C924.148 787.554 923.722 783.282 923.607 783.03C923.607 783.03 921.613 780.726 919.413 780.54C915.697 780.226 911.192 782.366 909.486 787.134C908.431 790.08 909.524 792.961 909.636 793.482C912.938 808.841 937.666 826.755 963.026 818.666" stroke="#1C1C1C" stroke-width="1.23775" stroke-miterlimit="1.5" stroke-linejoin="round"/>
<path d="M934.577 795.625C937.459 797.056 938.285 800.199 936.646 802.712" stroke="#1C1C1C" stroke-width="1.23775" stroke-miterlimit="1.5" stroke-linejoin="round"/>
<path d="M999.267 778.727C999.267 778.727 1017.43 785.329 1028.14 789.222C1032.5 790.808 1034.99 795.404 1033.93 799.923C1032.24 807.173 1029.65 818.223 1027.37 827.958C1026.52 831.599 1023.61 834.401 1019.94 835.116C1016.27 835.83 1012.52 834.324 1010.36 831.269C1005.68 824.636 1001.44 818.626 1001.44 818.626" stroke="#1C1C1C" stroke-width="1.23775" stroke-miterlimit="1.5" stroke-linejoin="round"/>
<path d="M1001.5 790.433L1020.37 794.642" stroke="#1C1C1C" stroke-width="1.23775" stroke-miterlimit="1.5" stroke-linejoin="round"/>
<path d="M1007.33 846.692C1009.58 849.744 1013.32 853.458 1017.66 852.394C1019.29 851.994 1027.12 848.299 1031.61 846.353C1033.83 845.388 1035.33 843.254 1035.47 840.833C1035.73 836.575 1034.24 833.032 1030.44 830.417C1028.93 829.377 1026.21 830.712 1026.21 830.712" stroke="#1C1C1C" stroke-width="1.23775" stroke-miterlimit="1.5" stroke-linejoin="round"/>
<path fill-rule="evenodd" clip-rule="evenodd" d="M965.597 816.367C964.524 815.368 962.908 815.225 961.678 816.024C957.83 818.496 953.993 819.358 950.158 819.432C949.538 819.447 949.011 819.888 948.888 820.495C948.766 821.103 949.08 821.714 949.647 821.967C953.882 823.902 958.385 824.475 963.17 823.614C966.832 822.954 967.766 818.426 965.597 816.367Z" fill="white" stroke="#1C1C1C" stroke-width="1.23775" stroke-miterlimit="1.5" stroke-linejoin="round"/>
<path d="M962.406 815.654C964.44 814.697 965.581 813.604 966.998 812.367" stroke="#1C1C1C" stroke-width="1.23775" stroke-miterlimit="1.5" stroke-linejoin="round"/>
<path d="M963.407 823.565C965.631 823.229 968.015 822.299 969.726 821.518" stroke="#1C1C1C" stroke-width="1.23775" stroke-miterlimit="1.5" stroke-linejoin="round"/>
<path fill-rule="evenodd" clip-rule="evenodd" d="M1077.4 562.05C1067.35 560.84 1058.19 557.66 1050.07 552.158C1039.15 544.89 1033.97 535.599 1033.03 524.812C1034.95 517.868 1041.6 512.066 1050.09 518.409L1050.91 523.963C1057.51 533.549 1065.31 534.967 1073.46 534.111L1072.06 524.224L1066.46 520.799C1064.22 519.428 1062.63 517.212 1062.04 514.654L1052.71 474.162C1051.88 470.531 1053.46 466.771 1056.64 464.831C1059.83 462.889 1063.9 463.205 1066.74 465.611L1079.43 476.336L1116.05 464.415C1120.33 463.021 1124.98 463.393 1128.98 465.443L1176.08 489.59C1179.68 491.434 1181.46 495.568 1180.33 499.45L1172.68 525.724C1177.24 527.652 1179.76 532.593 1178.62 537.433L1170.04 573.612L1174.56 572.94C1180.08 577.509 1182.32 583.24 1179.13 590.892L1159.74 598.787C1157.2 599.82 1154.29 599.214 1152.38 597.253L1147.78 592.55L1143.31 593.957L1148.19 603.53C1144.29 612.721 1137.99 618.138 1128.45 618.467C1121.93 611.411 1116.74 602.884 1112.81 592.955L1104.12 588.547C1096.44 595.066 1088.75 601.327 1080.91 604.897C1072.21 603.661 1065 597.495 1066.82 584.703L1079.66 574.41C1079.2 573.557 1078.89 572.616 1078.75 571.633L1077.4 562.05Z" fill="#FF9B77"/>
<path d="M1068.89 583.148C1072.69 580.887 1078.64 583.851 1082.16 589.763C1085.68 595.675 1085.45 602.312 1081.65 604.574" stroke="#1C1C1C" stroke-width="1.23775" stroke-miterlimit="1.5" stroke-linejoin="round"/>
<path d="M1079.5 574.107L1068.56 583.451C1061.11 589.249 1073.32 608.884 1081.64 604.576C1089.77 599.67 1096.56 594.695 1103.3 588.13" stroke="#1C1C1C" stroke-width="1.23775" stroke-miterlimit="1.5" stroke-linejoin="round"/>
<path d="M1079.84 476.252C1075.58 472.818 1072.04 469.965 1067.69 466.459C1064.15 463.606 1059.86 462.8 1056.71 464.397C1053.56 465.994 1052.13 469.699 1053.05 473.877C1056.12 487.777 1059.76 504.257 1061.58 512.492C1062.31 515.813 1064.28 519.138 1067.16 521.292C1068.95 522.632 1071.56 523.373 1071.56 523.373" stroke="#1C1C1C" stroke-width="1.23775" stroke-miterlimit="1.5" stroke-linejoin="round"/>
<path d="M1071.16 478.648C1068.37 476.399 1064.98 475.763 1062.5 477.022" stroke="#1C1C1C" stroke-width="1.23775" stroke-miterlimit="1.5" stroke-linejoin="round"/>
<path d="M1143.05 593.957L1153.78 590.774M1156 583.045L1157.24 578.784M1077.39 561.97L1078.76 571.633C1079.14 574.358 1080.83 576.726 1083.29 577.973L1112.81 592.955M1172.69 525.702L1180.33 499.45C1181.46 495.568 1179.68 491.434 1176.08 489.59L1128.98 465.443C1124.98 463.393 1120.33 463.021 1116.05 464.415L1072.65 478.541C1068.76 479.809 1066.34 483.687 1066.91 487.737L1073.46 534.111" stroke="#1C1C1C" stroke-width="1.23775" stroke-miterlimit="1.5" stroke-linejoin="round"/>
<path d="M1084.1 489.963C1101.79 498.944 1103.24 499.68 1116.62 506.47C1122.12 509.262 1128.5 509.784 1134.38 507.925C1141.48 505.679 1147.25 504.033 1156.36 501.15" stroke="#1C1C1C" stroke-width="1.23775" stroke-miterlimit="1.5" stroke-linejoin="round"/>
<path d="M1137.83 585.544L1147.42 600.251C1152.29 609.054 1132.64 624.011 1126.33 616.364C1118.86 605.979 1112.88 594.76 1108.72 582.525" stroke="#1C1C1C" stroke-width="1.23775" stroke-miterlimit="1.5" stroke-linejoin="round"/>
<path d="M1092.45 539.391C1091.19 535.985 1089.37 533.545 1085.13 533.992C1084.08 534.072 1082.22 534.145 1078.92 534.152C1067.29 534.179 1055.95 534.07 1050.83 523.806C1050.68 523.518 1050.19 518.531 1050.05 518.237C1050.05 518.237 1047.72 515.547 1045.16 515.33C1040.82 514.963 1035.56 517.461 1033.57 523.027C1032.34 526.467 1033.61 529.83 1033.74 530.438C1037.6 548.368 1066.46 569.28 1096.07 559.837" stroke="#1C1C1C" stroke-width="1.23775" stroke-miterlimit="1.5" stroke-linejoin="round"/>
<path d="M1062.86 532.94C1066.22 534.61 1067.19 538.279 1065.27 541.213" stroke="#1C1C1C" stroke-width="1.23775" stroke-miterlimit="1.5" stroke-linejoin="round"/>
<path d="M1138.38 513.212C1138.38 513.212 1159.58 520.92 1172.08 525.464C1177.17 527.316 1180.08 532.681 1178.84 537.956C1176.86 546.42 1173.84 559.32 1171.19 570.684C1170.19 574.934 1166.79 578.205 1162.51 579.039C1158.22 579.874 1153.84 578.115 1151.32 574.549C1145.86 566.806 1140.91 559.79 1140.91 559.79" stroke="#1C1C1C" stroke-width="1.23775" stroke-miterlimit="1.5" stroke-linejoin="round"/>
<path d="M1140.98 526.878L1163.01 531.791" stroke="#1C1C1C" stroke-width="1.23775" stroke-miterlimit="1.5" stroke-linejoin="round"/>
<path d="M1147.79 592.553C1150.42 596.117 1154.78 600.452 1159.84 599.21C1161.75 598.743 1170.89 594.429 1176.13 592.158C1178.73 591.032 1180.47 588.54 1180.64 585.715C1180.95 580.744 1179.2 576.607 1174.76 573.555C1173.01 572.341 1169.82 573.9 1169.82 573.9" stroke="#1C1C1C" stroke-width="1.23775" stroke-miterlimit="1.5" stroke-linejoin="round"/>
<path fill-rule="evenodd" clip-rule="evenodd" d="M1099.07 557.154C1097.82 555.987 1095.93 555.821 1094.49 556.753C1090 559.639 1085.52 560.645 1081.05 560.731C1080.32 560.748 1079.71 561.264 1079.56 561.972C1079.42 562.683 1079.79 563.395 1080.45 563.691C1085.39 565.95 1090.65 566.618 1096.24 565.613C1100.51 564.843 1101.6 559.557 1099.07 557.154Z" fill="white" stroke="#1C1C1C" stroke-width="1.23775" stroke-miterlimit="1.5" stroke-linejoin="round"/>
<path d="M1095.35 556.32C1097.72 555.204 1099.05 553.928 1100.71 552.484" stroke="#1C1C1C" stroke-width="1.23775" stroke-miterlimit="1.5" stroke-linejoin="round"/>
<path d="M1096.51 565.556C1099.11 565.164 1101.89 564.078 1103.89 563.167" stroke="#1C1C1C" stroke-width="1.23775" stroke-miterlimit="1.5" stroke-linejoin="round"/>
<path fill-rule="evenodd" clip-rule="evenodd" d="M298.326 865.6C288.519 864.42 279.58 861.316 271.656 855.948C261 848.857 255.95 839.791 255.034 829.265C256.907 822.49 263.393 816.828 271.679 823.017L272.471 828.437C278.913 837.791 286.531 839.174 294.478 838.338L293.114 828.691L287.653 825.349C285.466 824.012 283.909 821.85 283.333 819.353L274.234 779.842C273.418 776.299 274.964 772.63 278.069 770.738C281.177 768.843 285.147 769.152 287.925 771.499L300.307 781.964L336.041 770.332C340.211 768.972 344.752 769.334 348.655 771.335L394.615 794.896C398.124 796.696 399.863 800.73 398.762 804.518L391.298 830.154C395.741 832.036 398.206 836.857 397.087 841.58L388.718 876.882L393.125 876.226C398.515 880.685 400.699 886.277 397.586 893.744L378.664 901.447C376.189 902.455 373.349 901.863 371.484 899.95L367.003 895.361L362.639 896.734L367.396 906.075C363.594 915.043 357.448 920.329 348.137 920.65C341.775 913.765 336.707 905.445 332.874 895.757L324.397 891.455C316.903 897.816 309.396 903.925 301.753 907.409C293.256 906.203 286.222 900.187 288.005 887.704L300.526 877.661C300.083 876.828 299.782 875.91 299.646 874.951L298.326 865.6Z" fill="#FF9B77"/>
<path d="M290.017 886.188C293.727 883.982 299.53 886.873 302.965 892.642C306.401 898.411 306.176 904.887 302.466 907.094" stroke="#1C1C1C" stroke-width="1.23775" stroke-miterlimit="1.5" stroke-linejoin="round"/>
<path d="M300.378 877.366L289.696 886.483C282.431 892.141 294.345 911.3 302.464 907.096C310.393 902.309 317.021 897.455 323.591 891.049" stroke="#1C1C1C" stroke-width="1.23775" stroke-miterlimit="1.5" stroke-linejoin="round"/>
<path d="M300.706 781.883C296.548 778.532 293.096 775.748 288.853 772.327C285.398 769.542 281.211 768.757 278.136 770.314C275.063 771.873 273.666 775.488 274.566 779.565C277.562 793.128 281.11 809.209 282.886 817.243C283.6 820.485 285.525 823.729 288.333 825.831C290.082 827.139 292.627 827.861 292.627 827.861" stroke="#1C1C1C" stroke-width="1.23775" stroke-miterlimit="1.5" stroke-linejoin="round"/>
<path d="M292.232 784.221C289.508 782.026 286.209 781.406 283.784 782.634" stroke="#1C1C1C" stroke-width="1.23775" stroke-miterlimit="1.5" stroke-linejoin="round"/>
<path d="M362.379 896.734L372.853 893.628M375.019 886.087L376.228 881.93M298.313 865.523L299.646 874.952C300.022 877.61 301.673 879.921 304.068 881.138L332.874 895.757M391.304 830.134L398.762 804.518C399.863 800.731 398.124 796.697 394.615 794.897L348.655 771.335C344.752 769.335 340.211 768.972 336.041 770.332L293.69 784.116C289.891 785.353 287.529 789.137 288.087 793.089L294.478 838.339" stroke="#1C1C1C" stroke-width="1.23775" stroke-miterlimit="1.5" stroke-linejoin="round"/>
<path d="M304.86 795.261C322.122 804.024 323.54 804.743 336.592 811.369C341.96 814.093 348.184 814.602 353.923 812.788C360.848 810.596 366.478 808.99 375.369 806.177" stroke="#1C1C1C" stroke-width="1.23775" stroke-miterlimit="1.5" stroke-linejoin="round"/>
<path d="M357.287 888.525L366.65 902.876C371.397 911.465 352.227 926.06 346.072 918.598C338.781 908.465 332.947 897.518 328.887 885.58" stroke="#1C1C1C" stroke-width="1.23775" stroke-miterlimit="1.5" stroke-linejoin="round"/>
<path d="M313.006 843.491C311.782 840.168 310 837.787 305.866 838.223C304.841 838.302 303.025 838.373 299.806 838.38C288.461 838.405 277.393 838.299 272.395 828.284C272.255 828.003 271.77 823.137 271.639 822.85C271.639 822.85 269.367 820.225 266.861 820.013C262.628 819.656 257.498 822.093 255.554 827.524C254.352 830.88 255.597 834.162 255.725 834.755C259.486 852.251 287.653 872.656 316.54 863.442" stroke="#1C1C1C" stroke-width="1.23775" stroke-miterlimit="1.5" stroke-linejoin="round"/>
<path d="M284.134 837.197C287.417 838.826 288.358 842.407 286.492 845.269" stroke="#1C1C1C" stroke-width="1.23775" stroke-miterlimit="1.5" stroke-linejoin="round"/>
<path d="M357.822 817.947C357.822 817.947 378.512 825.468 390.708 829.902C395.678 831.709 398.512 836.944 397.309 842.091C395.378 850.35 392.431 862.937 389.836 874.026C388.867 878.173 385.551 881.365 381.367 882.179C377.186 882.993 372.914 881.277 370.455 877.797C365.122 870.242 360.291 863.396 360.291 863.396" stroke="#1C1C1C" stroke-width="1.23775" stroke-miterlimit="1.5" stroke-linejoin="round"/>
<path d="M360.364 831.281L381.858 836.076" stroke="#1C1C1C" stroke-width="1.23775" stroke-miterlimit="1.5" stroke-linejoin="round"/>
<path d="M367.006 895.365C369.572 898.842 373.829 903.072 378.768 901.861C380.628 901.405 389.552 897.195 394.661 894.979C397.196 893.88 398.896 891.449 399.057 888.692C399.359 883.842 397.653 879.805 393.325 876.827C391.613 875.642 388.506 877.163 388.506 877.163" stroke="#1C1C1C" stroke-width="1.23775" stroke-miterlimit="1.5" stroke-linejoin="round"/>
<path fill-rule="evenodd" clip-rule="evenodd" d="M319.468 860.824C318.246 859.685 316.405 859.523 315.004 860.432C310.621 863.249 306.251 864.23 301.882 864.314C301.176 864.331 300.576 864.834 300.435 865.525C300.296 866.218 300.654 866.914 301.3 867.202C306.124 869.406 311.253 870.058 316.704 869.078C320.875 868.326 321.939 863.168 319.468 860.824Z" fill="white" stroke="#1C1C1C" stroke-width="1.23775" stroke-miterlimit="1.5" stroke-linejoin="round"/>
<path d="M315.834 860.01C318.151 858.92 319.451 857.675 321.065 856.266" stroke="#1C1C1C" stroke-width="1.23775" stroke-miterlimit="1.5" stroke-linejoin="round"/>
<path d="M316.973 869.022C319.507 868.64 322.222 867.58 324.172 866.691" stroke="#1C1C1C" stroke-width="1.23775" stroke-miterlimit="1.5" stroke-linejoin="round"/>
<path fill-rule="evenodd" clip-rule="evenodd" d="M604.86 771.111C594.027 769.807 584.152 766.379 575.399 760.449C563.628 752.616 558.049 742.601 557.038 730.973C559.106 723.49 566.271 717.236 575.424 724.072L576.299 730.059C583.415 740.392 591.83 741.92 600.609 740.996L599.102 730.34L593.069 726.648C590.654 725.171 588.934 722.782 588.298 720.025L578.246 676.38C577.345 672.466 579.053 668.413 582.483 666.322C585.916 664.229 590.301 664.57 593.37 667.163L607.048 678.723L646.521 665.874C651.128 664.371 656.144 664.772 660.455 666.981L711.224 693.009C715.1 694.997 717.022 699.453 715.805 703.637L707.561 731.956C712.469 734.035 715.191 739.361 713.955 744.578L704.711 783.574L709.579 782.85C715.532 787.774 717.945 793.952 714.506 802.2L693.605 810.709C690.871 811.822 687.734 811.169 685.673 809.056L680.723 803.986L675.903 805.503L681.157 815.821C676.957 825.728 670.168 831.567 659.884 831.922C652.856 824.316 647.257 815.125 643.023 804.424L633.659 799.672C625.381 806.699 617.088 813.447 608.645 817.295C599.259 815.963 591.489 809.317 593.459 795.528L607.29 784.434C606.801 783.514 606.469 782.5 606.318 781.441L604.86 771.111Z" fill="#E9FC87"/>
<path d="M595.682 793.853C599.78 791.416 606.19 794.61 609.985 800.983C613.78 807.355 613.532 814.509 609.434 816.946" stroke="#1C1C1C" stroke-width="1.23775" stroke-miterlimit="1.5" stroke-linejoin="round"/>
<path d="M607.126 784.108L595.327 794.178C587.302 800.429 600.462 821.593 609.431 816.949C618.189 811.661 625.511 806.299 632.769 799.223" stroke="#1C1C1C" stroke-width="1.23775" stroke-miterlimit="1.5" stroke-linejoin="round"/>
<path d="M607.489 678.633C602.896 674.931 599.083 671.856 594.395 668.077C590.579 665.001 585.954 664.133 582.557 665.854C579.162 667.576 577.62 671.569 578.613 676.072C581.923 691.055 585.842 708.819 587.804 717.694C588.593 721.274 590.72 724.858 593.822 727.18C595.753 728.625 598.565 729.423 598.565 729.423" stroke="#1C1C1C" stroke-width="1.23775" stroke-miterlimit="1.5" stroke-linejoin="round"/>
<path d="M598.128 681.216C595.12 678.791 591.475 678.107 588.797 679.463" stroke="#1C1C1C" stroke-width="1.23775" stroke-miterlimit="1.5" stroke-linejoin="round"/>
<path d="M675.616 805.503L687.185 802.072M689.578 793.742L690.913 789.149M604.846 771.026L606.318 781.441C606.733 784.378 608.557 786.931 611.203 788.275L643.023 804.424M707.567 731.934L715.805 703.637C717.021 699.453 715.1 694.997 711.224 693.009L660.455 666.982C656.144 664.772 651.128 664.372 646.521 665.874L599.739 681.1C595.541 682.466 592.933 686.647 593.549 691.013L600.608 740.997" stroke="#1C1C1C" stroke-width="1.23775" stroke-miterlimit="1.5" stroke-linejoin="round"/>
<path d="M612.078 693.412C631.145 703.092 632.712 703.886 647.13 711.205C653.06 714.214 659.935 714.776 666.275 712.772C673.924 710.352 680.143 708.577 689.964 705.47" stroke="#1C1C1C" stroke-width="1.23775" stroke-miterlimit="1.5" stroke-linejoin="round"/>
<path d="M669.991 796.435L680.333 812.288C685.577 821.776 664.401 837.898 657.603 829.655C649.549 818.462 643.103 806.369 638.618 793.182" stroke="#1C1C1C" stroke-width="1.23775" stroke-miterlimit="1.5" stroke-linejoin="round"/>
<path d="M621.076 746.688C619.724 743.017 617.756 740.387 613.188 740.869C612.057 740.955 610.05 741.034 606.495 741.042C593.962 741.07 581.736 740.953 576.216 729.889C576.061 729.579 575.525 724.204 575.38 723.887C575.38 723.887 572.87 720.987 570.102 720.754C565.427 720.359 559.759 723.051 557.612 729.05C556.285 732.758 557.66 736.383 557.801 737.038C561.956 756.364 593.07 778.905 624.98 768.726" stroke="#1C1C1C" stroke-width="1.23775" stroke-miterlimit="1.5" stroke-linejoin="round"/>
<path d="M589.183 739.735C592.81 741.535 593.848 745.49 591.787 748.652" stroke="#1C1C1C" stroke-width="1.23775" stroke-miterlimit="1.5" stroke-linejoin="round"/>
<path d="M670.581 718.471C670.581 718.471 693.437 726.779 706.909 731.677C712.4 733.673 715.53 739.456 714.201 745.142C712.067 754.265 708.812 768.169 705.946 780.418C704.876 784.999 701.213 788.525 696.591 789.424C691.972 790.323 687.253 788.428 684.537 784.584C678.645 776.238 673.309 768.676 673.309 768.676" stroke="#1C1C1C" stroke-width="1.23775" stroke-miterlimit="1.5" stroke-linejoin="round"/>
<path d="M673.39 733.201L697.133 738.497" stroke="#1C1C1C" stroke-width="1.23775" stroke-miterlimit="1.5" stroke-linejoin="round"/>
<path d="M680.727 803.991C683.561 807.832 688.263 812.504 693.72 811.166C695.774 810.662 705.632 806.013 711.276 803.564C714.076 802.35 715.953 799.665 716.132 796.619C716.465 791.262 714.58 786.802 709.8 783.513C707.909 782.204 704.477 783.884 704.477 783.884" stroke="#1C1C1C" stroke-width="1.23775" stroke-miterlimit="1.5" stroke-linejoin="round"/>
<path fill-rule="evenodd" clip-rule="evenodd" d="M567.712 642.5C581.629 645.263 612.145 637.967 625.431 627.887C627.374 626.413 631.491 627.586 631.769 630.01L637.58 680.637C637.674 681.45 637.68 682.281 637.418 683.056C632.387 697.933 582.326 706.526 573.635 702.63L567.712 642.5Z" fill="white"/>
<path fill-rule="evenodd" clip-rule="evenodd" d="M628.215 765.834C626.865 764.576 624.831 764.397 623.284 765.402C618.442 768.513 613.614 769.597 608.788 769.69C608.008 769.709 607.346 770.265 607.19 771.028C607.036 771.793 607.431 772.561 608.145 772.88C613.474 775.315 619.139 776.035 625.161 774.952C629.768 774.122 630.944 768.424 628.215 765.834Z" fill="white" stroke="#1C1C1C" stroke-width="1.23775" stroke-miterlimit="1.5" stroke-linejoin="round"/>
<path d="M624.2 764.936C626.759 763.732 628.195 762.357 629.978 760.801" stroke="#1C1C1C" stroke-width="1.23775" stroke-miterlimit="1.5" stroke-linejoin="round"/>
<path d="M576.031 727.912L567.713 642.504" stroke="white" stroke-width="1.23775" stroke-miterlimit="1.5" stroke-linecap="round" stroke-linejoin="round"/>
<path d="M625.459 774.891C628.257 774.469 631.257 773.298 633.41 772.316" stroke="#1C1C1C" stroke-width="1.23775" stroke-miterlimit="1.5" stroke-linejoin="round"/>
<path d="M627.155 668.28C626.769 667.508 625.956 667.096 624.981 667.179C624.521 667.219 624.007 667.367 623.409 667.633C622.368 668.097 621.586 668.364 621.01 668.514C622.751 664.403 624.022 659.88 624.57 655.774C625.456 649.135 624.225 646.491 623.036 645.442C619.889 642.666 615.682 641.76 610.872 642.822C608.305 643.388 606.116 644.406 604.986 645.035C603.87 645.101 602.682 645.269 601.447 645.537C599.131 646.039 597.15 647.007 595.529 648.426C594.524 648.331 592.919 648.241 591.093 648.37C586.8 648.674 583.471 649.991 581.199 652.284C578.447 655.061 577.495 658.993 578.37 663.973C578.647 665.554 580.158 670.21 582.164 674.491C583.317 676.953 584.469 678.951 585.59 680.431C587.179 682.531 588.738 683.622 590.356 683.768C591.263 683.849 592.872 683.679 594.372 681.934C594.614 682.135 594.926 682.318 595.329 682.462C595.839 682.644 596.45 682.748 597.047 682.755C599.2 682.78 601.143 682.196 602.726 681.091C602.772 681.379 602.813 681.655 602.849 681.893C602.908 682.28 602.966 682.658 603.024 683.012C603.418 685.4 603.815 687.236 604.473 688.432C604.509 688.498 604.559 688.6 604.612 688.707C604.951 689.392 605.518 690.539 606.691 691.267C607.907 692.021 609.266 692.023 610.476 691.741C611.083 691.6 611.652 691.387 612.147 691.163C613.911 690.362 615.896 689.305 617.13 686.888C618.296 684.602 618.619 681.494 618.174 676.818C618.174 676.683 618.173 676.554 618.173 676.431C618.172 676.348 618.172 676.263 618.172 676.178L618.507 676.13L618.593 676.115C620.446 675.769 622.654 674.861 623.962 673.91C624.995 673.159 628.279 670.532 627.155 668.28Z" fill="#1C1C1C"/>
<path d="M624.06 669.49C618.713 671.872 618.114 670.144 618.114 670.144C622.874 660.395 623.989 649.168 621.581 647.044C615.014 641.25 605.565 646.912 605.411 647.038L605.359 647.06C604.249 647.092 603.021 647.243 601.656 647.538C599.171 648.076 597.372 649.19 596.073 650.581C596.073 650.581 577.615 647.586 580.392 663.4C580.982 666.764 588.533 688.001 593.449 679.912C595.246 676.954 597.019 674.394 597.019 674.394C598.106 674.814 599.353 674.867 600.603 674.453L600.691 674.349C600.698 674.662 600.748 674.959 600.848 675.301C599.566 677.262 600.036 677.445 597.151 678.729C594.232 680.028 596.122 680.693 597.304 680.707C598.737 680.723 602.015 680.456 603.826 676.971L603.781 677.332C604.416 677.651 605.129 680.056 605.338 682.338C605.547 684.62 605.692 686.187 606.298 687.296C606.903 688.405 607.693 691.033 611.481 689.314C614.646 687.876 616.114 685.72 615.988 682.722C615.898 680.59 616.312 680.812 616.107 678.935L616.3 677.98C616.301 675.062 615.896 674.214 617.949 674.174L618.441 674.103C619.922 673.826 621.814 673.08 622.882 672.302C625.184 670.629 626.403 668.445 624.06 669.49L624.06 669.49Z" fill="#336791"/>
<path d="M598.381 660.78C597.879 660.828 597.439 660.994 597.233 661.215C597.117 661.339 597.091 661.457 597.09 661.535C597.086 661.74 597.256 661.928 597.357 662.021C597.645 662.285 598.034 662.421 598.399 662.387C598.452 662.382 598.504 662.373 598.555 662.361C599.153 662.222 599.642 661.639 599.648 661.292C599.657 660.857 598.997 660.722 598.381 660.78Z" fill="white"/>
<path d="M614.749 656.983C614.662 656.664 614.05 656.71 613.489 656.92C612.929 657.13 612.408 657.51 612.495 657.83C612.563 658.078 613.092 658.407 613.654 658.276C613.702 658.265 613.749 658.251 613.797 658.233C614.166 658.095 614.413 657.798 614.527 657.633C614.701 657.382 614.789 657.127 614.749 656.983Z" fill="white"/>
<path d="M625.869 668.939C625.584 668.37 624.887 668.327 623.797 668.813C620.56 670.256 619.314 670.068 618.89 669.878C620.999 665.433 622.553 660.292 623.167 655.69C623.458 653.51 623.524 651.533 623.358 649.973C623.177 648.26 622.726 647.075 622.019 646.452C619.171 643.939 615.343 643.127 610.948 644.103C607.927 644.772 605.47 646.121 605.002 646.448C603.93 646.437 602.776 646.546 601.539 646.813C599.269 647.305 597.376 648.291 595.887 649.749C595.152 649.657 593.257 649.469 590.989 649.637C587.067 649.926 584.066 651.097 582.069 653.117C579.687 655.527 578.88 659.032 579.67 663.533C579.936 665.048 581.406 669.556 583.368 673.744C585.95 679.256 588.378 682.152 590.584 682.35C590.842 682.373 591.135 682.363 591.451 682.29C592.225 682.11 593.132 681.548 593.977 680.157C595.38 677.846 596.713 675.873 597.206 675.154C598.093 675.398 599.039 675.429 599.979 675.236C599.984 675.259 599.989 675.282 599.995 675.306C599.833 675.568 599.702 675.795 599.591 675.989C599.04 676.946 598.926 677.145 596.887 678.052C596.308 678.311 594.768 678.997 594.877 680.085C594.997 681.273 596.949 681.33 597.171 681.332C597.944 681.341 598.679 681.264 599.369 681.103C601.047 680.712 602.458 679.829 603.51 678.511C603.99 682.736 604.678 686.849 605.35 687.995C605.901 688.933 607.247 691.225 610.518 690.463C610.998 690.351 611.519 690.174 612.086 689.917C615.412 688.406 616.714 686.585 616.889 683.197C616.984 681.387 617.002 677.111 616.977 674.826C617.519 674.864 618.201 674.781 618.929 674.611C620.446 674.258 622.159 673.535 623.196 672.781C624.361 671.933 626.419 670.04 625.869 668.939ZM615.896 655.779C615.966 656.439 615.946 657.058 615.924 657.704C615.901 658.399 615.876 659.117 615.952 659.964C616.025 660.789 616.234 661.616 616.435 662.416C616.843 664.031 617.262 665.693 616.657 667.571C616.505 667.381 616.353 667.171 616.21 666.932C616.079 666.716 615.813 666.383 615.445 665.922C614.012 664.127 610.657 659.925 611.829 657.618C612.178 656.932 613.173 656.078 615.896 655.779ZM611.281 645.395C615.224 644.565 618.51 645.28 621.05 647.52C622.997 649.239 622.313 659.28 617.943 668.822C617.881 668.769 617.819 668.714 617.755 668.659C617.729 668.637 617.703 668.614 617.676 668.592C618.793 666.02 618.248 663.859 617.765 661.943C617.566 661.157 617.379 660.415 617.315 659.691C617.246 658.924 617.269 658.248 617.292 657.594C617.319 656.787 617.345 655.954 617.194 655.013C617.208 654.908 617.204 654.788 617.173 654.651C616.974 653.762 615.579 651.286 613.114 649.326C611.765 648.254 609.854 647.147 607.373 646.678C608.361 646.237 609.724 645.722 611.281 645.395ZM592.828 679.551C591.897 681.083 591.116 681.013 590.859 680.99C589.186 680.839 586.911 677.947 584.62 673.054C582.636 668.82 581.242 664.423 581.019 663.151C580.312 659.129 580.974 656.057 582.985 654.02C586.259 650.707 592.321 650.823 594.776 651.026C594.746 651.067 594.714 651.106 594.685 651.147C591.276 655.88 592.169 662.404 592.228 662.801C592.246 662.956 592.286 663.171 592.341 663.468C592.542 664.553 592.917 666.573 592.869 668.97C592.825 671.198 593.763 673.15 595.442 674.326C595.615 674.447 595.795 674.558 595.979 674.659C595.399 675.509 594.144 677.384 592.828 679.551ZM596.31 673.178C594.957 672.23 594.201 670.649 594.237 668.841C594.288 666.308 593.897 664.204 593.687 663.073C593.658 662.915 593.632 662.776 593.614 662.667C594.12 662.043 596.577 660.057 598.5 660.041C599.378 660.033 599.968 660.481 600.304 661.409C602.044 666.216 601.331 668.554 600.758 670.433C600.64 670.82 600.528 671.186 600.44 671.558L600.372 671.846C600.199 672.574 600.038 673.25 599.963 673.874C598.684 674.168 597.374 673.924 596.31 673.178ZM597.343 679.966C596.958 679.962 596.603 679.882 596.39 679.796C596.545 679.682 596.825 679.511 597.321 679.29C599.719 678.223 600.056 677.785 600.759 676.562C600.92 676.282 601.103 675.964 601.361 675.569L601.361 675.568C601.746 674.978 601.96 675.013 602.347 675.077C602.66 675.129 602.996 675.427 603.164 675.803C603.243 675.98 603.35 676.327 603.179 676.656C601.737 679.431 599.21 679.988 597.343 679.966ZM611.642 688.684C608.712 690.014 607.463 688.761 606.551 687.208C605.963 686.205 605.129 681.261 604.612 675.708C604.605 675.634 604.585 675.565 604.557 675.504C604.523 675.379 604.479 675.255 604.425 675.133C604.092 674.385 603.437 673.847 602.717 673.728C602.43 673.681 601.905 673.595 601.321 673.886C601.386 673.339 601.537 672.703 601.701 672.014L601.77 671.725C601.847 671.398 601.952 671.054 602.063 670.69C602.663 668.724 603.484 666.032 601.598 660.82C600.891 658.867 599.248 658.216 596.974 658.985C595.61 659.447 594.414 660.285 593.822 660.745C593.695 660.843 593.579 660.937 593.471 661.027C593.393 658.912 593.583 654.883 595.768 651.852C597.144 649.944 599.135 648.697 601.679 648.147C606.692 647.063 610.207 648.828 612.273 650.499C614.054 651.939 615.121 653.559 615.578 654.461C613.012 654.799 611.348 655.69 610.623 657.116C609.047 660.217 612.62 664.694 614.338 666.845C614.653 667.24 614.925 667.58 615.016 667.731C615.61 668.716 616.295 669.306 616.795 669.736C616.949 669.868 617.098 669.996 617.213 670.111C616.471 670.507 615.153 671.328 615.585 673.8C615.637 675.079 615.635 681.122 615.523 683.283C615.375 686.138 614.469 687.4 611.642 688.684ZM622.476 671.709C621.735 672.248 620.453 672.821 619.212 673.169C617.841 673.553 617.113 673.502 616.931 673.409C616.663 671.869 617.236 671.568 617.843 671.249C617.938 671.199 618.031 671.15 618.12 671.097C618.184 671.129 618.252 671.16 618.327 671.189C619.523 671.646 621.509 671.264 624.231 670.051C624.241 670.046 624.251 670.042 624.261 670.038C623.926 670.469 623.339 671.081 622.476 671.709Z" fill="white"/>
</g>
<defs>
<clipPath id="clip0_14622_3338">
<rect width="1440" height="900" fill="white"/>
</clipPath>
</defs>
</svg>
