<svg width="285" height="203" viewBox="0 0 285 203" fill="none" xmlns="http://www.w3.org/2000/svg">
<g clip-path="url(#clip0_5426_3661)">
<rect width="285" height="203" rx="5.93567" fill="#1C1C1C"/>
<g opacity="0.4">
<g clip-path="url(#clip1_5426_3661)">
<mask id="mask0_5426_3661" style="mask-type:alpha" maskUnits="userSpaceOnUse" x="-75" y="0" width="441" height="214">
<rect x="-74.7207" y="0.519043" width="440.14" height="212.782" fill="url(#paint0_linear_5426_3661)"/>
</mask>
<g mask="url(#mask0_5426_3661)">
<path d="M187.699 273.74H244.69L244.69 -38.6884H187.699C178.934 -38.6884 171.779 -31.5756 171.779 -22.7829L171.779 257.834C171.779 266.591 178.899 273.74 187.699 273.74Z" fill="#2A2A2A"/>
<path d="M239.002 -38.6877H361.64C370.433 -38.6877 377.561 -31.5666 377.561 -22.7822V257.835C377.561 266.62 370.433 273.741 361.64 273.741H239.002C230.21 273.741 223.082 266.62 223.082 257.835V-22.7822C223.082 -31.5666 230.21 -38.6877 239.002 -38.6877Z" fill="#515151"/>
<path d="M223.082 147.032H377.561V149.928H223.082V147.032Z" fill="#979797"/>
<path d="M223.082 85.125H377.561V88.0202H223.082V85.125Z" fill="#979797"/>
<path d="M223.082 23.2185H377.561V26.1137H223.082V23.2185Z" fill="#979797"/>
<path d="M289.196 14.9622L267.623 14.9622V3.16701L289.196 3.16701V14.9622Z" fill="#A2FFB8"/>
<path d="M264.118 14.9622L242.545 14.9622V3.16701L264.118 3.16701V14.9622Z" fill="#A2FFB8"/>
<path d="M289.196 76.832H267.623V65.0369H289.196V76.832Z" fill="#A2FFB8"/>
<path d="M289.196 61.4988H267.623V49.7036H289.196V61.4988Z" fill="#A2FFB8"/>
<path d="M289.196 46.2004H267.623V34.4053H289.196V46.2004Z" fill="#A2FFB8"/>
<path d="M264.118 76.832H242.545V65.0369H264.118V76.832Z" fill="#A2FFB8"/>
<path d="M264.118 61.4988H242.545V49.7036H264.118V61.4988Z" fill="#A2FFB8"/>
<path d="M264.118 46.2004H242.545V34.4053H264.118V46.2004Z" fill="#A2FFB8"/>
<path d="M289.196 138.739H267.623V126.943H289.196V138.739Z" fill="#A2FFB8"/>
<path d="M289.196 123.405H267.623V111.61H289.196V123.405Z" fill="#A2FFB8"/>
<path d="M289.196 108.107H267.623V96.3118H289.196V108.107Z" fill="#A2FFB8"/>
<path d="M264.118 138.739H242.545V126.943H264.118V138.739Z" fill="#A2FFB8"/>
<path d="M264.118 123.405H242.545V111.61H264.118V123.405Z" fill="#A2FFB8"/>
<path d="M264.118 108.107H242.545V96.3118H264.118V108.107Z" fill="#A2FFB8"/>
<path d="M289.196 200.646H267.623V188.85H289.196V200.646Z" fill="#A2FFB8"/>
<path d="M289.196 185.312H267.623V173.517H289.196V185.312Z" fill="#A2FFB8"/>
<path d="M289.196 170.014H267.623V158.219H289.196V170.014Z" fill="#A2FFB8"/>
<path d="M264.118 200.646H242.545V188.85H264.118V200.646Z" fill="#A2FFB8"/>
<path d="M264.118 185.312H242.545V173.517H264.118V185.312Z" fill="#A2FFB8"/>
<path d="M264.118 170.014H242.545V158.219H264.118V170.014Z" fill="#A2FFB8"/>
<path d="M20.89 266.469H79.7313L79.7313 -56.2606H20.89C11.8278 -56.2606 4.47266 -48.9121 4.47266 -39.8582L4.47266 250.067C4.47266 259.121 11.8278 266.469 20.89 266.469Z" fill="#2A2A2A"/>
<path d="M73.8825 -56.2607H200.602C209.669 -56.2607 217.02 -48.9172 217.02 -39.8584V250.067C217.02 259.126 209.669 266.469 200.602 266.469H73.8825C64.8154 266.469 57.4651 259.126 57.4651 250.067V-39.8584C57.4651 -48.9172 64.8154 -56.2607 73.8825 -56.2607Z" fill="#515151"/>
<path d="M57.4651 199.531H217.02V202.54H57.4651V199.531Z" fill="#E0E0E0"/>
<path d="M57.4651 135.576H217.02V138.561H57.4651V135.576Z" fill="#E0E0E0"/>
<path d="M57.4651 71.6221H217.02V74.6066H57.4651V71.6221Z" fill="#979797"/>
<path d="M57.4651 7.69312H217.02V10.7027H57.4651V7.69312Z" fill="#979797"/>
<path opacity="0.6" d="M137.443 50.8813H190.812C194.176 50.8813 196.912 53.6151 196.912 56.9758C196.912 60.3365 194.176 63.0703 190.812 63.0703H137.443C134.079 63.0703 131.343 60.3365 131.343 56.9758C131.343 53.6151 134.079 50.8813 137.443 50.8813Z" fill="#A2FFB8"/>
<path opacity="0.6" d="M137.443 35.0552H190.812C194.176 35.0552 196.912 37.7889 196.912 41.1496C196.912 44.5104 194.176 47.2441 190.812 47.2441H137.443C134.079 47.2441 131.343 44.5104 131.343 41.1496C131.343 37.7889 134.079 35.0552 137.443 35.0552Z" fill="#A2FFB8"/>
<path opacity="0.6" d="M137.443 19.2549H190.812C194.176 19.2549 196.912 21.9886 196.912 25.3493C196.912 28.7101 194.176 31.4438 190.812 31.4438H137.443C134.079 31.4438 131.343 28.7101 131.343 25.3493C131.343 21.9886 134.079 19.2549 137.443 19.2549Z" fill="#A2FFB8"/>
<path d="M125.77 63.0696H103.479V50.8807H125.77V63.0696Z" fill="#A2FFB8"/>
<path d="M125.77 47.2695H103.479V35.0806H125.77V47.2695Z" fill="#A2FFB8"/>
<path d="M125.77 31.4182L103.479 31.4182V19.2293L125.77 19.2293V31.4182Z" fill="#A2FFB8"/>
<path d="M99.8383 63.0696H77.5469V50.8807H99.8383V63.0696Z" fill="#A2FFB8"/>
<path d="M99.8383 47.2695H77.5469V35.0806H99.8383V47.2695Z" fill="#A2FFB8"/>
<path d="M99.8383 31.4182L77.5469 31.4182V19.2293L99.8383 19.2293V31.4182Z" fill="#A2FFB8"/>
<path opacity="0.6" d="M137.443 114.836H190.812C194.176 114.836 196.912 117.569 196.912 120.93C196.912 124.291 194.176 127.025 190.812 127.025H137.443C134.079 127.025 131.343 124.291 131.343 120.93C131.343 117.569 134.079 114.836 137.443 114.836Z" fill="#A2FFB8"/>
<path opacity="0.6" d="M137.443 99.0093H190.812C194.176 99.0093 196.912 101.743 196.912 105.104C196.912 108.464 194.176 111.198 190.812 111.198H137.443C134.079 111.198 131.343 108.464 131.343 105.104C131.343 101.743 134.079 99.0093 137.443 99.0093Z" fill="#A2FFB8"/>
<path opacity="0.6" d="M137.443 83.1841H190.812C194.176 83.1841 196.912 85.9178 196.912 89.2785C196.912 92.6393 194.176 95.373 190.812 95.373H137.443C134.079 95.373 131.343 92.6393 131.343 89.2785C131.343 85.9178 134.079 83.1841 137.443 83.1841Z" fill="#A2FFB8"/>
<path d="M125.77 127.024H103.479V114.835H125.77V127.024Z" fill="#A2FFB8"/>
<path d="M125.77 111.199H103.479V99.0098H125.77V111.199Z" fill="#A2FFB8"/>
<path d="M125.77 95.3726H103.479V83.1837H125.77V95.3726Z" fill="#A2FFB8"/>
<path d="M99.8383 127.024H77.5469V114.835H99.8383V127.024Z" fill="#A2FFB8"/>
<path d="M99.8383 111.199H77.5469V99.0098H99.8383V111.199Z" fill="#A2FFB8"/>
<path d="M99.8383 95.3726H77.5469V83.1837H99.8383V95.3726Z" fill="#A2FFB8"/>
<path opacity="0.6" d="M137.443 178.789H190.812C194.176 178.789 196.912 181.523 196.912 184.884C196.912 188.244 194.176 190.978 190.812 190.978H137.443C134.079 190.978 131.343 188.244 131.343 184.884C131.343 181.523 134.079 178.789 137.443 178.789Z" fill="#A2FFB8"/>
<path d="M137.443 162.963H190.812C194.176 162.963 196.912 165.697 196.912 169.057C196.912 172.418 194.176 175.152 190.812 175.152H137.443C134.079 175.152 131.343 172.418 131.343 169.057C131.343 165.697 134.079 162.963 137.443 162.963Z" fill="#A2FFB8"/>
<path opacity="0.6" d="M137.443 147.138H190.812C194.176 147.138 196.912 149.872 196.912 153.232C196.912 156.593 194.176 159.327 190.812 159.327H137.443C134.079 159.327 131.343 156.593 131.343 153.232C131.343 149.872 134.079 147.138 137.443 147.138Z" fill="#A2FFB8"/>
<path d="M125.77 190.952H103.479V178.763H125.77V190.952Z" fill="#A2FFB8"/>
<path d="M125.77 175.152H103.479V162.963H125.77V175.152Z" fill="#A2FFB8"/>
<path d="M125.77 159.326H103.479V147.137H125.77V159.326Z" fill="#A2FFB8"/>
<path d="M99.8383 190.952H77.5469V178.763H99.8383V190.952Z" fill="#A2FFB8"/>
<path d="M99.8383 175.152H77.5469V162.963H99.8383V175.152Z" fill="#A2FFB8"/>
<path d="M99.8383 159.326H77.5469V147.137H99.8383V159.326Z" fill="#A2FFB8"/>
<path d="M-71.7648 -14.2263H38.4371C46.3257 -14.2263 52.7207 -7.83717 52.7207 0.0442305V252.199C52.7207 260.08 46.3257 266.47 38.4371 266.47H-71.7648C-79.6534 266.47 -86.0484 260.08 -86.0484 252.199V0.0442305C-86.0484 -7.83717 -79.6534 -14.2263 -71.7648 -14.2263Z" fill="#515151"/>
<path d="M-86.0484 152.631H52.7207V155.239H-86.0484V152.631Z" fill="#979797"/>
<path d="M-86.0484 97.0039H52.7207V99.6122H-86.0484V97.0039Z" fill="#979797"/>
<path d="M-86.0484 41.4016H52.7207V44.0099H-86.0484V41.4016Z" fill="#979797"/>
<path opacity="0.6" d="M-16.464 23.344H29.9513C32.8884 23.344 35.248 25.7266 35.248 28.6359C35.248 31.5702 32.8633 33.9278 29.9513 33.9278H-16.464C-19.4011 33.9278 -21.7607 31.5452 -21.7607 28.6359C-21.7607 25.7015 -19.376 23.344 -16.464 23.344Z" fill="#A2FFB8"/>
<path opacity="0.6" d="M-16.464 9.57446H29.9513C32.8884 9.57446 35.248 11.9571 35.248 14.8664C35.248 17.8007 32.8633 20.1582 29.9513 20.1582H-16.464C-19.4011 20.1582 -21.7607 17.7756 -21.7607 14.8664C-21.7607 11.932 -19.376 9.57446 -16.464 9.57446Z" fill="#A2FFB8"/>
<path opacity="0.6" d="M-16.464 -4.16919H29.9513C32.8884 -4.16919 35.248 -1.78659 35.248 1.1227C35.248 4.05706 32.8633 6.41459 29.9513 6.41459H-16.464C-19.4011 6.41459 -21.7607 4.03198 -21.7607 1.1227C-21.7607 -1.81167 -19.376 -4.16919 -16.464 -4.16919Z" fill="#A2FFB8"/>
<path d="M-16.464 78.9722H29.9513C32.8884 78.9722 35.248 81.3548 35.248 84.2641C35.248 87.1984 32.8633 89.556 29.9513 89.556H-16.464C-19.4011 89.556 -21.7607 87.1733 -21.7607 84.2641C-21.7607 81.3297 -19.376 78.9722 -16.464 78.9722Z" fill="#A2FFB8"/>
<path opacity="0.6" d="M-16.464 65.2026H29.9513C32.8884 65.2026 35.248 67.5852 35.248 70.4945C35.248 73.4289 32.8633 75.7864 29.9513 75.7864H-16.464C-19.4011 75.7864 -21.7607 73.4038 -21.7607 70.4945C-21.7607 67.5602 -19.376 65.2026 -16.464 65.2026Z" fill="#A2FFB8"/>
<path opacity="0.6" d="M-16.464 51.4341H29.9513C32.8884 51.4341 35.248 53.8167 35.248 56.726C35.248 59.6603 32.8633 62.0179 29.9513 62.0179H-16.464C-19.4011 62.0179 -21.7607 59.6353 -21.7607 56.726C-21.7607 53.7916 -19.376 51.4341 -16.464 51.4341Z" fill="#A2FFB8"/>
<path opacity="0.6" d="M-16.464 134.599H29.9513C32.8884 134.599 35.248 136.981 35.248 139.891C35.248 142.825 32.8633 145.183 29.9513 145.183H-16.464C-19.4011 145.183 -21.7607 142.8 -21.7607 139.891C-21.7607 136.956 -19.376 134.599 -16.464 134.599Z" fill="#A2FFB8"/>
<path opacity="0.6" d="M-16.464 120.829H29.9513C32.8884 120.829 35.248 123.212 35.248 126.121C35.248 129.056 32.8633 131.413 29.9513 131.413H-16.464C-19.4011 131.413 -21.7607 129.031 -21.7607 126.121C-21.7607 123.187 -19.376 120.829 -16.464 120.829Z" fill="#A2FFB8"/>
<path opacity="0.6" d="M-16.464 107.061H29.9513C32.8884 107.061 35.248 109.443 35.248 112.353C35.248 115.287 32.8633 117.645 29.9513 117.645H-16.464C-19.4011 117.645 -21.7607 115.262 -21.7607 112.353C-21.7607 109.418 -19.376 107.061 -16.464 107.061Z" fill="#A2FFB8"/>
<path opacity="0.6" d="M-16.464 190.201H29.9513C32.8884 190.201 35.248 192.584 35.248 195.493C35.248 198.428 32.8633 200.785 29.9513 200.785H-16.464C-19.4011 200.785 -21.7607 198.403 -21.7607 195.493C-21.7607 192.559 -19.376 190.201 -16.464 190.201Z" fill="#A2FFB8"/>
<path opacity="0.6" d="M-16.464 176.432H29.9513C32.8884 176.432 35.248 178.814 35.248 181.724C35.248 184.658 32.8633 187.016 29.9513 187.016H-16.464C-19.4011 187.016 -21.7607 184.633 -21.7607 181.724C-21.7607 178.789 -19.376 176.432 -16.464 176.432Z" fill="#A2FFB8"/>
<path opacity="0.6" d="M-16.464 162.688H29.9513C32.8884 162.688 35.248 165.071 35.248 167.98C35.248 170.914 32.8633 173.272 29.9513 173.272H-16.464C-19.4011 173.272 -21.7607 170.889 -21.7607 167.98C-21.7607 165.046 -19.376 162.688 -16.464 162.688Z" fill="#A2FFB8"/>
</g>
</g>
</g>
<path d="M397.309 222.386C397.309 233.409 390.397 244.055 377.558 253.867C364.731 263.67 346.117 272.534 323.04 279.994C276.895 294.91 213.092 304.15 142.579 304.15C72.0669 304.15 8.26441 294.91 -37.881 279.994C-60.9585 272.534 -79.5724 263.67 -92.3991 253.867C-105.238 244.055 -112.15 233.409 -112.15 222.386C-112.15 211.363 -105.238 200.716 -92.3991 190.904C-79.5724 181.101 -60.9585 172.237 -37.881 164.777C8.26441 149.861 72.0669 140.621 142.579 140.621C213.092 140.621 276.895 149.861 323.04 164.777C346.117 172.237 364.731 181.101 377.558 190.904C390.397 200.716 397.309 211.363 397.309 222.386Z" fill="#1C1C1C" stroke="url(#paint1_linear_5426_3661)" stroke-width="1.70036"/>
<path d="M145.37 193.874C212.622 193.874 267.139 176.487 267.139 155.039C267.139 133.591 212.622 116.204 145.37 116.204C78.1194 116.204 23.6016 133.591 23.6016 155.039C23.6016 176.487 78.1194 193.874 145.37 193.874Z" fill="url(#paint2_linear_5426_3661)"/>
<path d="M146.595 185.46C207.868 185.46 257.54 170.373 257.54 151.764C257.54 133.154 207.868 118.068 146.595 118.068C85.3221 118.068 35.6504 133.154 35.6504 151.764C35.6504 170.373 85.3221 185.46 146.595 185.46Z" fill="#263238" stroke="#263238" stroke-width="0.755343" stroke-miterlimit="10"/>
<path opacity="0.82" d="M146.598 172.117C201.266 172.117 245.584 159.855 245.584 144.729C245.584 129.603 201.266 117.341 146.598 117.341C91.9291 117.341 47.6113 129.603 47.6113 144.729C47.6113 159.855 91.9291 172.117 146.598 172.117Z" fill="white" fill-opacity="0.3" stroke="#263238" stroke-width="0.755343" stroke-miterlimit="10"/>
<path d="M146.595 167.708C196.421 167.708 236.813 156.46 236.813 142.586C236.813 128.711 196.421 117.463 146.595 117.463C96.769 117.463 56.377 128.711 56.377 142.586C56.377 156.46 96.769 167.708 146.595 167.708Z" stroke="#263238" stroke-width="0.755343" stroke-miterlimit="10"/>
<path opacity="0.2" d="M146.593 125.629C101.756 125.629 64.5704 134.739 57.5684 146.666C64.5704 158.6 101.763 167.702 146.593 167.702C191.423 167.702 228.616 158.593 235.618 146.666C228.616 134.731 191.423 125.629 146.593 125.629Z" fill="white" stroke="#263238" stroke-width="0.755343" stroke-miterlimit="10"/>
<path d="M61.6481 164.036C61.6481 165.509 60.2809 166.71 58.5965 166.71C56.9121 166.71 55.5449 165.517 55.5449 164.036C55.5449 162.556 56.9121 161.362 58.5965 161.362C60.2809 161.362 61.6481 162.556 61.6481 164.036Z" fill="white" stroke="#263238" stroke-width="0.755343" stroke-miterlimit="10"/>
<path d="M102.55 178.381C104.235 178.381 105.601 177.184 105.601 175.707C105.601 174.23 104.235 173.033 102.55 173.033C100.864 173.033 99.498 174.23 99.498 175.707C99.498 177.184 100.864 178.381 102.55 178.381Z" fill="white" stroke="#263238" stroke-width="0.755343" stroke-miterlimit="10"/>
<path d="M157.9 177.618C157.9 179.091 156.533 180.292 154.848 180.292C153.164 180.292 151.797 179.098 151.797 177.618C151.797 176.137 153.164 174.944 154.848 174.944C156.533 174.944 157.9 176.137 157.9 177.618Z" fill="white" stroke="#263238" stroke-width="0.755343" stroke-miterlimit="10"/>
<path d="M206.759 175.706C208.444 175.706 209.81 174.509 209.81 173.032C209.81 171.556 208.444 170.358 206.759 170.358C205.073 170.358 203.707 171.556 203.707 173.032C203.707 174.509 205.073 175.706 206.759 175.706Z" fill="white" stroke="#263238" stroke-width="0.755343" stroke-miterlimit="10"/>
<path d="M240.348 163.493C242.034 163.493 243.4 162.296 243.4 160.819C243.4 159.342 242.034 158.145 240.348 158.145C238.663 158.145 237.297 159.342 237.297 160.819C237.297 162.296 238.663 163.493 240.348 163.493Z" fill="white" stroke="#263238" stroke-width="0.755343" stroke-miterlimit="10"/>
<path d="M254.02 146.105C253.514 147.072 251.754 147.147 250.077 146.279C248.408 145.41 247.456 143.914 247.962 142.948C248.468 141.981 250.228 141.905 251.905 142.774C253.574 143.642 254.526 145.138 254.02 146.105Z" fill="white" stroke="#263238" stroke-width="0.755343" stroke-miterlimit="10"/>
<path d="M39.1691 146.105C39.6752 147.072 41.4351 147.147 43.112 146.279C44.7813 145.41 45.7331 143.914 45.227 142.948C44.7209 141.981 42.9609 141.905 41.2841 142.774C39.6148 143.642 38.663 145.138 39.1691 146.105Z" fill="white" stroke="#263238" stroke-width="0.755343" stroke-miterlimit="10"/>
<path d="M56.4762 111.339C56.4762 111.204 56.3671 111.095 56.2324 111.095C56.0978 111.095 55.9886 111.204 55.9886 111.339H56.4762ZM56.4762 137.111V111.339H55.9886V137.111H56.4762Z" fill="#FFC6D9"/>
<path d="M73.1227 143.016C73.1227 142.882 73.0136 142.773 72.8789 142.773C72.7443 142.773 72.6351 142.882 72.6351 143.016H73.1227ZM73.1227 155.903V143.016H72.6351V155.903H73.1227Z" fill="#FFC6D9"/>
<path d="M73.1227 114.019C73.1227 113.884 73.0136 113.775 72.8789 113.775C72.7443 113.775 72.6351 113.884 72.6351 114.019H73.1227ZM73.1227 139.791V114.019H72.6351V139.791H73.1227Z" fill="#FFC6D9"/>
<path d="M221.867 131.203C221.867 131.068 221.758 130.959 221.623 130.959C221.488 130.959 221.379 131.068 221.379 131.203H221.867ZM221.867 156.975V131.203H221.379V156.975H221.867Z" fill="#FFC6D9"/>
<path d="M206.209 104.774C206.209 104.639 206.099 104.53 205.965 104.53C205.83 104.53 205.721 104.639 205.721 104.774H206.209ZM206.209 161.447V104.774H205.721V161.447H206.209Z" fill="#FFC6D9"/>
<path d="M91.7731 134.005C91.7731 133.871 91.6639 133.762 91.5293 133.762C91.3946 133.762 91.2855 133.871 91.2855 134.005H91.7731ZM91.7731 162.897V134.005H91.2855V162.897H91.7731Z" fill="#FFC6D9"/>
<path d="M179.84 160.579C179.84 160.444 179.73 160.335 179.596 160.335C179.461 160.335 179.352 160.444 179.352 160.579H179.84ZM179.84 166.418V160.579H179.352V166.418H179.84Z" fill="#FFC6D9"/>
<path d="M179.84 146.838C179.84 146.703 179.73 146.594 179.596 146.594C179.461 146.594 179.352 146.703 179.352 146.838H179.84ZM179.84 158.757V146.838H179.352V158.757H179.84Z" fill="#FFC6D9"/>
<path d="M221.867 113.482C221.867 113.348 221.758 113.238 221.623 113.238C221.488 113.238 221.379 113.348 221.379 113.482H221.867ZM221.867 125.296V113.482H221.379V125.296H221.867Z" fill="#FFC6D9"/>
<path d="M236.898 88.2468C236.898 88.1122 236.789 88.003 236.654 88.003C236.52 88.003 236.41 88.1122 236.41 88.2468H236.898ZM236.898 145.698V88.2468H236.41V145.698H236.898Z" fill="#FFC6D9"/>
<path d="M56.4762 93.6326C56.4762 93.4979 56.3671 93.3888 56.2324 93.3888C56.0978 93.3888 55.9886 93.4979 55.9886 93.6326H56.4762ZM56.4762 107.576V93.6326H55.9886V107.576H56.4762Z" fill="#FFC6D9"/>
<path fill-rule="evenodd" clip-rule="evenodd" d="M131.152 86.8812L108.307 71.2419C107.79 70.8884 107.155 70.7563 106.54 70.8754L82.452 75.534C82.0546 75.6102 81.7445 75.9188 81.6614 76.3147C81.5784 76.7105 81.7413 77.1175 82.0747 77.3463L104.92 92.9856C105.437 93.3391 106.072 93.4712 106.687 93.352L130.775 88.6935C131.172 88.6173 131.485 88.3083 131.566 87.9129C131.649 87.517 131.486 87.1099 131.152 86.8812Z" fill="#E9FC87"/>
<path fill-rule="evenodd" clip-rule="evenodd" d="M137.343 143.84C135.963 144.604 134.095 145.068 132.042 145.069C129.502 145.069 127.245 144.359 125.85 143.252C124.978 142.559 124.445 141.714 124.445 140.791C124.445 140.791 124.539 128.719 124.558 126.416L137.704 134.598L137.506 134.593L137.404 138.067C137.402 138.092 137.402 138.116 137.402 138.141L137.343 143.84Z" fill="#FF85D0"/>
<path fill-rule="evenodd" clip-rule="evenodd" d="M114.034 112.262C111.519 112.33 109.049 111.889 106.629 110.959C106.628 110.958 106.628 110.958 106.628 110.958C106.345 110.852 106.175 110.566 106.213 110.266C106.254 109.968 106.494 109.736 106.793 109.708C107.998 109.6 109.195 109.41 110.383 109.104C111.482 110.208 112.696 111.267 114.034 112.262Z" fill="white"/>
<path fill-rule="evenodd" clip-rule="evenodd" d="M189.619 99.1247C189.09 98.5622 188.461 98.0772 187.744 97.6997L167.623 87.0991L167.31 87.6905L187.433 98.2906C190.324 99.8135 191.62 103.258 190.451 106.31L182.821 126.224C181.877 128.687 179.575 130.367 176.942 130.515C174.308 130.664 171.832 129.252 170.618 126.91L165.342 116.737L164.748 117.046L170.024 127.219C171.36 129.795 174.083 131.347 176.979 131.184C177.012 131.181 177.045 131.18 177.078 131.177L174.618 139.205C174.608 139.236 174.603 139.27 174.603 139.304L174.604 145.275C174.602 146.198 174.071 147.044 173.199 147.737C171.802 148.844 169.546 149.554 167.006 149.554C164.467 149.554 162.21 148.844 160.814 147.737C159.942 147.045 159.41 146.201 159.408 145.278C159.41 145.278 159.429 143.837 159.455 142.082C159.493 142.061 159.533 142.039 159.571 142.016L159.458 141.82C156.037 143.076 157.392 142.839 153.128 142.847L153.128 151.612C153.127 152.537 152.597 153.382 151.723 154.075C150.328 155.182 148.07 155.891 145.53 155.892C142.991 155.892 140.734 155.182 139.338 154.075C138.466 153.382 137.934 152.537 137.934 151.614L138.072 138.148C138.072 138.127 138.073 138.106 138.072 138.086L138.166 134.886L138.401 135.032L138.756 134.465L124.647 125.684C122.676 124.456 121.441 122.348 121.316 120.048C123.468 120.153 125.655 119.896 127.879 119.266C127.95 119.247 128.018 119.226 128.086 119.202C130.003 118.714 132.012 117.699 133.442 116.868L133.105 116.288C132.237 116.793 131.149 117.371 130.002 117.847C130.659 116.985 130.938 115.891 130.845 114.856C130.736 113.633 130.109 112.497 128.999 111.906C128.642 111.716 128.26 111.604 127.874 111.566C128.851 110.807 129.559 110.01 130.384 109.131L129.897 108.674C128.804 109.836 127.932 110.857 126.298 111.834C126.08 111.936 125.87 112.064 125.677 112.219C123.91 113.629 122.098 114.577 120.255 115.2C118.4 114.325 116.718 113.34 115.191 112.272C113.52 111.102 112.039 109.833 110.721 108.497C105.487 103.181 102.905 96.8258 101.716 91.6044L104.539 93.5374C105.205 93.9923 106.022 94.1612 106.812 94.0085L114.712 92.4812C116.282 95.5939 118.488 97.8731 121.006 99.5461C125.889 102.792 131.959 103.75 136.867 104.092L136.914 103.424C132.156 103.093 126.281 102.186 121.524 99.0878L121.491 91.1701L130.901 89.351C131.563 89.2232 132.082 88.7088 132.22 88.0482C132.358 87.3888 132.083 86.7108 131.527 86.3292L121.446 79.4273L121.397 67.5117C121.393 66.3529 121.784 65.2725 122.454 64.4123C122.224 63.7112 120.103 59.9379 124.81 57.7461C127.19 57.1574 129.846 57.8493 133.075 61.1903L154.006 57.4071C156.723 56.9156 159.526 57.5301 161.788 59.1117L193.071 80.9199C195.042 82.2975 195.756 84.8776 194.777 87.0723C194.777 87.0738 194.777 87.0754 194.777 87.0769L189.619 99.1247Z" fill="#FF85D0"/>
<path d="M132.867 60.7175C132.03 60.0907 131.194 59.466 130.375 58.8518C128.215 57.2352 125.703 56.955 123.946 58.134C122.191 59.3133 121.512 61.7346 122.212 64.3297" stroke="#242728" stroke-width="0.826185" stroke-miterlimit="1.5" stroke-linejoin="round"/>
<path d="M121.153 90.9119L121.186 99.2865M189.711 99.7651L195.08 87.2263C196.123 84.8851 195.359 82.1327 193.258 80.6638L161.976 58.8554C159.64 57.2225 156.748 56.5886 153.943 57.0971L125.458 62.2434C124.119 62.4852 122.971 63.214 122.185 64.2251C121.472 65.1434 121.054 66.2961 121.059 67.5303L121.108 79.6213M120.967 119.711C120.976 122.262 122.296 124.635 124.467 125.985L138.574 134.766M153.353 133.068L160.399 131.942" stroke="#242728" stroke-width="0.930331" stroke-miterlimit="1.5" stroke-linejoin="round"/>
<path d="M131.666 70.4067C142.007 77.5744 142.857 78.1624 150.676 83.5817C153.892 85.81 157.855 86.6868 161.71 86.024C166.362 85.2229 170.129 84.6842 176.102 83.656" stroke="#242728" stroke-width="0.929554" stroke-miterlimit="1.5" stroke-linejoin="round"/>
<path d="M136.887 103.777C132.03 103.44 126.02 102.499 121.187 99.288C118.654 97.6044 116.444 95.2967 114.894 92.1246M101.209 90.8737C102.321 96.2896 104.916 103.102 110.481 108.752C111.81 110.101 113.308 111.384 114.997 112.566C116.571 113.668 118.31 114.682 120.231 115.58C120.27 115.599 120.309 115.617 120.348 115.635" stroke="#242728" stroke-width="0.92998" stroke-miterlimit="1.5" stroke-linejoin="round"/>
<path fill-rule="evenodd" clip-rule="evenodd" d="M129.264 112.499C128.254 111.726 126.846 111.74 125.852 112.534C122.886 114.88 119.804 115.962 116.662 116.396C116.076 116.476 115.625 116.953 115.576 117.543C115.527 118.132 115.895 118.677 116.46 118.851C120.127 120.009 123.9 120.065 127.785 118.965C130.891 118.084 131.313 114.091 129.264 112.499Z" fill="white" stroke="#242728" stroke-width="0.930332" stroke-miterlimit="1.5" stroke-linejoin="round"/>
<path d="M110.481 108.752C109.25 109.082 108.008 109.283 106.757 109.395C106.303 109.438 105.937 109.789 105.879 110.242C105.818 110.695 106.078 111.131 106.505 111.292C109.274 112.355 112.104 112.79 114.996 112.566" stroke="#242728" stroke-width="0.930332" stroke-miterlimit="1.5" stroke-linejoin="round"/>
<path d="M126.45 112.152C128.125 111.153 129.018 110.112 130.137 108.923" stroke="#242728" stroke-width="0.930332" stroke-miterlimit="1.5" stroke-linejoin="round"/>
<path d="M127.985 118.901C129.877 118.423 131.857 117.417 133.268 116.597" stroke="#242728" stroke-width="0.930332" stroke-miterlimit="1.5" stroke-linejoin="round"/>
<path d="M167.465 87.4148C167.465 87.4148 180.124 94.0836 187.587 98.015C190.628 99.617 191.99 103.239 190.761 106.449C188.789 111.599 185.78 119.448 183.131 126.363C182.141 128.95 179.724 130.714 176.958 130.87C174.193 131.025 171.594 129.544 170.318 127.085C167.55 121.747 165.043 116.911 165.043 116.911" stroke="#242728" stroke-width="0.929756" stroke-miterlimit="1.5" stroke-linejoin="round"/>
<path d="M137.836 134.622C137.836 134.622 137.746 137.729 137.734 138.095C137.734 138.118 137.734 138.142 137.734 138.165C137.725 138.921 137.596 151.632 137.596 151.632C137.596 154.179 141.15 156.246 145.528 156.246C149.904 156.246 153.459 154.179 153.458 151.632L153.458 132.59" stroke="#242728" stroke-width="0.929679" stroke-miterlimit="1.5" stroke-linejoin="round"/>
<path d="M124.225 126.055L124.109 140.808C124.109 143.355 127.663 145.422 132.041 145.422C134.203 145.422 136.165 144.917 137.596 144.099" stroke="#242728" stroke-width="0.929679" stroke-miterlimit="1.5" stroke-linejoin="round"/>
<path d="M161.627 128.504C161.627 128.504 159.467 134.805 159.311 135.259C159.243 135.454 159.207 135.658 159.205 135.865C159.181 137.529 159.071 145.293 159.071 145.293C159.072 147.84 162.625 149.907 167.003 149.907C171.38 149.907 174.934 147.84 174.934 145.293L174.933 139.322L177.493 130.972" stroke="#242728" stroke-width="0.929679" stroke-miterlimit="1.5" stroke-linejoin="round"/>
<path d="M153.845 143.07C156.006 143.07 157.969 142.565 159.4 141.747" stroke="#242728" stroke-width="0.929679" stroke-miterlimit="1.5" stroke-linejoin="round"/>
<path fill-rule="evenodd" clip-rule="evenodd" d="M131.037 89.4429L107.148 94.0629C106.133 94.2591 105.081 94.0403 104.229 93.4567L82.4003 78.5125C81.6848 78.0226 81.3329 77.1524 81.5083 76.3037C81.6872 75.4555 82.3531 74.7958 83.2045 74.6312L106.086 70.206C107.101 70.0099 108.153 70.2287 109.005 70.8122L131.682 86.3373C132.254 86.729 132.534 87.4256 132.393 88.1052C132.252 88.7834 131.717 89.3114 131.037 89.4429ZM130.874 88.599C131.215 88.5331 131.483 88.2697 131.552 87.9302C131.621 87.5906 131.483 87.2421 131.197 87.0467L108.519 71.5207C107.857 71.0674 107.038 70.8974 106.249 71.0499L83.3675 75.475C82.8571 75.5737 82.457 75.9692 82.3511 76.4783C82.2451 76.9874 82.4563 77.5096 82.8864 77.804L104.715 92.7483C105.378 93.2025 106.194 93.3719 106.983 93.2194L130.874 88.599Z" fill="#242728"/>
<path fill-rule="evenodd" clip-rule="evenodd" d="M82.904 76.7765L83.39 76.068L101.051 88.1588L100.566 88.8682L82.904 76.7765ZM121.234 89.2572L121.071 88.4133L129.54 86.7756L129.703 87.6195L121.234 89.2572Z" fill="#242728"/>
<path fill-rule="evenodd" clip-rule="evenodd" d="M92.1502 78.713C91.9187 78.7634 91.6895 78.6162 91.6387 78.3848C91.5878 78.1533 91.7351 77.9243 91.9666 77.8739L94.7291 77.2725C94.9606 77.2221 95.1897 77.3692 95.2406 77.6007C95.2895 77.8326 95.1424 78.0616 94.9109 78.112L92.1502 78.713Z" fill="#242728"/>
<path fill-rule="evenodd" clip-rule="evenodd" d="M89.326 76.8204C89.0945 76.8708 88.8653 76.7237 88.8145 76.4922C88.7636 76.2607 88.9109 76.0317 89.1424 75.9813L91.9049 75.3799C92.1364 75.3296 92.3655 75.4766 92.4163 75.7081C92.4653 75.94 92.3182 76.169 92.0867 76.2194L89.326 76.8204Z" fill="#242728"/>
<path fill-rule="evenodd" clip-rule="evenodd" d="M96.4803 81.6187C96.2488 81.6691 96.0196 81.522 95.9688 81.2905C95.9179 81.059 96.0652 80.83 96.2967 80.7797L99.0592 80.1783C99.2907 80.1279 99.5198 80.275 99.5706 80.5064C99.6196 80.7383 99.4725 80.9674 99.241 81.0178L96.4803 81.6187Z" fill="#242728"/>
<path fill-rule="evenodd" clip-rule="evenodd" d="M100.656 84.4198C100.425 84.4702 100.195 84.323 100.145 84.0916C100.094 83.8601 100.241 83.6311 100.472 83.5807L103.235 82.9793C103.466 82.9289 103.696 83.076 103.746 83.3075C103.795 83.5394 103.648 83.7684 103.417 83.8188L100.656 84.4198Z" fill="#242728"/>
<path fill-rule="evenodd" clip-rule="evenodd" d="M107.222 88.8297C106.991 88.8801 106.762 88.7329 106.711 88.5015C106.66 88.27 106.807 88.041 107.039 87.9906L109.801 87.3892C110.033 87.3388 110.262 87.4859 110.313 87.7174C110.362 87.9493 110.215 88.1783 109.983 88.2287L107.222 88.8297Z" fill="#242728"/>
<path fill-rule="evenodd" clip-rule="evenodd" d="M98.116 79.4076C97.8852 79.4579 97.6534 79.3113 97.6013 79.0801C97.5542 78.8478 97.6989 78.6193 97.9297 78.5691L105.296 76.9656C105.527 76.9153 105.758 77.0619 105.805 77.2942C105.858 77.5254 105.713 77.7538 105.477 77.8052L98.116 79.4076Z" fill="#242728"/>
<path fill-rule="evenodd" clip-rule="evenodd" d="M102.155 82.1227C101.924 82.1729 101.692 82.0264 101.64 81.7952C101.593 81.5629 101.738 81.3344 101.969 81.2842L109.335 79.6807C109.566 79.6304 109.797 79.777 109.844 80.0092C109.897 80.2404 109.752 80.4689 109.516 80.5202L102.155 82.1227Z" fill="#242728"/>
<path fill-rule="evenodd" clip-rule="evenodd" d="M106.428 84.9816C106.198 85.0318 105.966 84.8853 105.914 84.6541C105.867 84.4218 106.011 84.1933 106.242 84.1431L113.608 82.5395C113.839 82.4893 114.071 82.6358 114.118 82.8681C114.17 83.0993 114.026 83.3278 113.79 83.3791L106.428 84.9816Z" fill="#242728"/>
<path fill-rule="evenodd" clip-rule="evenodd" d="M109.136 86.8031C108.905 86.8534 108.673 86.7068 108.621 86.4756C108.574 86.2433 108.718 86.0148 108.949 85.9646L116.315 84.3611C116.546 84.3108 116.778 84.4574 116.825 84.6897C116.877 84.9209 116.733 85.1493 116.497 85.2007L109.136 86.8031Z" fill="#242728"/>
<path fill-rule="evenodd" clip-rule="evenodd" d="M110.911 80.2167C110.68 80.2672 110.452 80.1198 110.401 79.8883C110.35 79.6568 110.498 79.4276 110.73 79.3772L115.325 78.3769C115.557 78.3264 115.785 78.4738 115.835 78.7053C115.886 78.9368 115.738 79.166 115.507 79.2164L110.911 80.2167Z" fill="#242728"/>
<path fill-rule="evenodd" clip-rule="evenodd" d="M117.886 84.8972C117.654 84.9476 117.426 84.8002 117.376 84.5687C117.325 84.3372 117.473 84.108 117.705 84.0576L122.3 83.0573C122.531 83.0069 122.759 83.1542 122.81 83.3857C122.861 83.6172 122.713 83.8464 122.481 83.8968L117.886 84.8972Z" fill="#242728"/>
<path fill-rule="evenodd" clip-rule="evenodd" d="M101.668 80.4913C101.436 80.5417 101.207 80.3946 101.156 80.1631C101.105 79.9316 101.253 79.7026 101.484 79.6522L104.247 79.0508C104.478 79.0005 104.707 79.1475 104.758 79.379C104.807 79.6109 104.66 79.8399 104.428 79.8903L101.668 80.4913Z" fill="#242728"/>
<path fill-rule="evenodd" clip-rule="evenodd" d="M105.842 83.2921C105.61 83.3425 105.381 83.1953 105.33 82.9639C105.279 82.7324 105.427 82.5034 105.658 82.453L108.421 81.8516C108.652 81.8012 108.881 81.9483 108.932 82.1798C108.981 82.4117 108.834 82.6407 108.602 82.6911L105.842 83.2921Z" fill="#242728"/>
<path fill-rule="evenodd" clip-rule="evenodd" d="M97.4314 77.6476C97.2 77.6979 96.9708 77.5508 96.9199 77.3193C96.8691 77.0879 97.0164 76.8589 97.2478 76.8085L100.01 76.2071C100.242 76.1567 100.471 76.3038 100.522 76.5353C100.571 76.7671 100.424 76.9962 100.192 77.0466L97.4314 77.6476Z" fill="#242728"/>
</g>
<rect x="0.296784" y="0.296784" width="284.406" height="202.406" rx="5.63889" stroke="#272727" stroke-width="0.593567"/>
<defs>
<linearGradient id="paint0_linear_5426_3661" x1="145.349" y1="213.301" x2="145.349" y2="-23.4171" gradientUnits="userSpaceOnUse">
<stop offset="0.146168" stop-color="#747474" stop-opacity="0.988306"/>
<stop offset="0.184973" stop-color="#737373"/>
<stop offset="0.924016" stop-color="#D9D9D9" stop-opacity="0.02"/>
</linearGradient>
<linearGradient id="paint1_linear_5426_3661" x1="-106.577" y1="222.386" x2="398.232" y2="221.938" gradientUnits="userSpaceOnUse">
<stop stop-color="#FFC6D9"/>
<stop offset="0.333333" stop-color="#7CCFE1"/>
<stop offset="0.640625" stop-color="#89CBA6"/>
<stop offset="1" stop-color="#A5D571"/>
</linearGradient>
<linearGradient id="paint2_linear_5426_3661" x1="26.6619" y1="155.039" x2="267.174" y2="154.823" gradientUnits="userSpaceOnUse">
<stop stop-color="#FFC6D9"/>
<stop offset="0.333333" stop-color="#7CCFE1"/>
<stop offset="0.640625" stop-color="#89CBA6"/>
<stop offset="1" stop-color="#A5D571"/>
</linearGradient>
<clipPath id="clip0_5426_3661">
<rect width="285" height="203" rx="5.93567" fill="white"/>
</clipPath>
<clipPath id="clip1_5426_3661">
<rect width="437.264" height="263.316" fill="white" transform="matrix(-1 0 0 1 364.01 -30)"/>
</clipPath>
</defs>
</svg>
