<svg width="1920" height="629" viewBox="0 0 1920 629" fill="none" xmlns="http://www.w3.org/2000/svg">
<path d="M1034.05 267.878L1069.19 250.879C1074.51 248.304 1082.25 252.179 1082.77 258.13L1080.75 344.117C1080.68 347.447 1078.74 350.456 1075.73 351.913L1032.83 372.562C1027.59 374.284 1023.17 369.693 1023.77 365.739L1025.24 281.8C1025.28 275.866 1028.69 270.473 1034.03 267.888L1034.05 267.878Z" fill="#455A64"/>
<path d="M1038.43 270.866L1073.56 253.867C1077.97 251.733 1083.06 255.004 1082.97 259.893L1081.07 343.963C1081 347.293 1079.06 350.303 1076.05 351.759L1033.68 372.257C1031.09 373.508 1028.1 371.603 1028.15 368.727L1029.63 284.809C1029.66 278.876 1033.07 273.483 1038.42 270.897L1038.43 270.866Z" fill="#263238"/>
<path d="M1074.85 286.303C1077.75 295.484 1072.14 305.37 1062.45 308.435C1052.75 311.499 1042.45 306.554 1039.58 297.452C1036.7 288.349 1042.28 278.384 1051.98 275.32C1061.67 272.255 1071.97 277.2 1074.85 286.303Z" fill="#FAFAFA" fill-opacity="0.5"/>
<path fill-rule="evenodd" clip-rule="evenodd" d="M1011.88 463.269C1000.16 468.87 987.502 473.276 974.214 476.074C976.304 493.99 987.174 509.757 998.706 508.567C998.754 508.561 998.809 508.555 998.864 508.549C1013.99 505.872 1017.43 481.433 1011.88 463.269Z" fill="#FF85D0"/>
<path fill-rule="evenodd" clip-rule="evenodd" d="M950.823 519.649C939.819 516.056 926.203 526.883 920.364 543.937C914.52 560.991 918.639 577.887 929.545 581.783C929.6 581.801 929.661 581.819 929.721 581.844C953.52 588.441 974.372 531.21 952.019 520.298L950.823 519.649Z" fill="#FF85D0"/>
<path fill-rule="evenodd" clip-rule="evenodd" d="M998.706 508.568C987.174 509.758 976.305 493.991 974.215 476.075C966.936 477.605 959.462 478.655 951.856 479.146C951.88 479.255 951.898 479.358 951.916 479.468C952.135 481.112 951.187 482.684 949.632 483.273C946.588 484.432 943.538 485.403 940.458 486.149C935.579 492.941 930.098 499.277 924.102 505.079L931.678 509.205C953.915 511.354 976.262 511.026 998.706 508.568Z" fill="#FF85D0"/>
<path fill-rule="evenodd" clip-rule="evenodd" d="M1012.19 462.865C1051.76 443.978 1080.66 411.534 1087.06 381.778C1087.46 379.914 1091.37 369.603 1087.6 359.061C1081.49 342.008 1065.37 334.349 1052.06 335.471C1047.98 335.817 1044.15 333.652 1038.29 344.066C1042.34 340.736 1041.24 346.774 1037.13 349.014L1034.01 353.284C1034.38 356.549 1034.84 360.287 1034.72 361.259C1034.71 361.343 1034.69 361.41 1034.67 361.453C1025.89 379.034 1011.15 389.673 993.626 395.615C985.205 398.473 976.139 400.245 966.783 401.186C966.236 383.477 962.366 366.538 955.78 351.008C957.93 350.092 963.362 347.567 965.89 344.429C971.012 338.081 972.051 327.224 970.234 319.273C959.48 314.71 948.495 307.645 937.315 298.597C936.064 297.589 935.614 295.89 936.203 294.397C936.793 292.904 938.281 291.963 939.879 292.073C948.021 292.637 956.029 292.655 963.879 291.981L949.528 229.125C947.249 219.13 939.332 211.38 929.277 209.298C919.215 207.222 908.875 211.198 902.805 219.476L865.256 270.704C853.239 267.281 840.565 265.442 827.465 265.442C771.386 265.442 718.727 297.85 694.303 345.176L684.302 346.754C670.601 348.902 660.673 360.949 661.183 374.798L664.373 460.71C664.786 471.871 671.719 481.745 682.078 485.945C685.037 487.14 688.117 487.808 691.198 487.978C698.689 509.923 710.312 528.5 727.124 548L726.717 593.815C726.99 605.746 743.747 615.384 764.35 615.384C785.123 615.384 801.984 605.588 801.984 593.517C807.713 596.072 815.429 598.269 823.2 598.269C841.956 598.269 857.188 589.415 857.188 578.515L856.848 545.287C879.504 560.46 903.935 572.312 929.854 581.379C918.948 577.483 914.829 560.587 920.674 543.533C926.512 526.479 940.128 515.652 951.132 519.245L924.41 504.674C930.407 498.872 935.888 492.536 940.766 485.745C928.931 488.615 916.797 488.36 904.342 484.834C904.093 484.761 903.85 484.689 903.607 484.604C900.077 483.408 897.568 481.053 896.073 478.243C892.774 472.053 894.347 463.63 900.514 460.358C903.248 458.908 906.463 458.853 909.197 460.097C909.92 460.431 910.612 460.856 911.25 461.366C915.26 464.558 919.325 467.113 923.444 469.14C931.798 473.243 940.359 475.185 949.023 475.986C950.573 476.132 951.83 477.254 952.164 478.741C959.771 478.25 967.245 477.2 974.523 475.67C987.811 472.873 1000.47 468.466 1012.19 462.865Z" fill="#FF85D0"/>
<path fill-rule="evenodd" clip-rule="evenodd" d="M969.318 319.609C971.131 327.562 970.095 338.418 964.977 344.767C961.789 348.72 955.787 351.708 955.787 351.708M864.383 270.952C874.781 256.761 888.92 237.468 901.867 219.795C907.935 211.517 918.273 207.544 928.331 209.623C938.382 211.705 946.303 219.455 948.59 229.456C953.302 250.098 965.378 302.806 969.766 322.013" fill="#FF85D0"/>
<path d="M969.318 319.609C971.131 327.562 970.095 338.418 964.977 344.767C961.789 348.72 955.787 351.708 955.787 351.708M864.383 270.952C874.781 256.761 888.92 237.468 901.867 219.795C907.935 211.517 918.273 207.544 928.331 209.623C938.382 211.705 946.303 219.455 948.59 229.456C953.302 250.098 965.378 302.806 969.766 322.013" stroke="#242728" stroke-width="3.66124" stroke-miterlimit="1.5" stroke-linejoin="round"/>
<path fill-rule="evenodd" clip-rule="evenodd" d="M950.39 519.623C939.36 515.854 925.628 526.715 919.751 543.863C913.875 561.01 918.063 577.994 929.093 581.763" fill="#FF85D0"/>
<path d="M950.39 519.623C939.36 515.854 925.628 526.715 919.751 543.863C913.875 561.01 918.063 577.994 929.093 581.763" stroke="#242728" stroke-width="3.66124" stroke-miterlimit="1.5" stroke-linejoin="round"/>
<path fill-rule="evenodd" clip-rule="evenodd" d="M973.604 475.992C975.71 493.994 986.666 509.823 998.249 508.474Z" fill="#FF85D0"/>
<path d="M973.604 475.992C975.71 493.994 986.666 509.823 998.249 508.474" stroke="#242728" stroke-width="3.66124" stroke-miterlimit="1.5" stroke-linejoin="round"/>
<path fill-rule="evenodd" clip-rule="evenodd" d="M903.168 493.924L951.394 520.234C973.744 531.157 952.91 588.388 929.112 581.781C894.687 569.754 862.892 552.808 834.384 529.709" fill="#FF85D0"/>
<path d="M903.168 493.924L951.394 520.234C973.744 531.157 952.91 588.388 929.112 581.781C894.687 569.754 862.892 552.808 834.384 529.709" stroke="#242728" stroke-width="3.66124" stroke-miterlimit="1.5" stroke-linejoin="round"/>
<path fill-rule="evenodd" clip-rule="evenodd" d="M1011.27 463.195C1016.81 481.355 1013.36 505.799 998.244 508.472C975.747 510.95 953.348 511.28 931.058 509.131" fill="#FF85D0"/>
<path d="M1011.27 463.195C1016.81 481.355 1013.36 505.799 998.244 508.472C975.747 510.95 953.348 511.28 931.058 509.131" stroke="#242728" stroke-width="3.66124" stroke-miterlimit="1.5" stroke-linejoin="round"/>
<path fill-rule="evenodd" clip-rule="evenodd" d="M774.056 332.804C774.056 332.804 717.019 341.783 683.397 347.078C669.697 349.235 659.769 361.285 660.277 375.133C661.093 397.353 662.345 431.219 663.445 461.053C663.851 472.211 670.781 482.087 681.14 486.279C691.492 490.47 703.351 488.198 711.43 480.475C728.958 463.708 744.836 448.514 744.836 448.514" fill="#FF85D0"/>
<path d="M774.056 332.804C774.056 332.804 717.019 341.783 683.397 347.078C669.697 349.235 659.769 361.285 660.277 375.133C661.093 397.353 662.345 431.219 663.445 461.053C663.851 472.211 670.781 482.087 681.14 486.279C691.492 490.47 703.351 488.198 711.43 480.475C728.958 463.708 744.836 448.514 744.836 448.514" stroke="#242728" stroke-width="3.66124" stroke-miterlimit="1.5" stroke-linejoin="round"/>
<path fill-rule="evenodd" clip-rule="evenodd" d="M923.354 505.12C923.4 505.08 923.438 505.04 923.485 505C929.48 499.198 934.954 492.861 939.836 486.07M690.129 487.919C699.387 515.252 715.025 537.339 739.054 562.424ZM801.606 542.05C808.17 543.517 815.654 544.495 826.54 544.229C834.816 544.027 842.931 543.506 850.822 542.12M965.854 400.632C963.543 325.808 902.005 265.772 826.54 265.772C770.33 265.772 717.559 298.32 693.207 345.825" fill="#FF85D0"/>
<path d="M923.354 505.12C923.4 505.08 923.438 505.04 923.485 505C929.48 499.198 934.954 492.861 939.836 486.07M690.129 487.919C699.387 515.252 715.025 537.339 739.054 562.424M801.606 542.05C808.17 543.517 815.654 544.495 826.54 544.229C834.816 544.027 842.931 543.506 850.822 542.12M965.854 400.632C963.543 325.808 902.005 265.772 826.54 265.772C770.33 265.772 717.559 298.32 693.207 345.825" stroke="#242728" stroke-width="3.66124" stroke-miterlimit="1.5" stroke-linejoin="round"/>
<path d="M754.937 338.509L690.674 345.958" stroke="#242728" stroke-width="3.66124" stroke-miterlimit="1.5" stroke-linejoin="round"/>
<path d="M905.045 248.901L889.991 280.011" stroke="#242728" stroke-width="3.66124" stroke-miterlimit="1.5" stroke-linejoin="round"/>
<path fill-rule="evenodd" clip-rule="evenodd" d="M906.124 418.42C909.972 407.981 915.569 400.503 928.563 401.874C931.783 402.12 937.49 402.343 947.605 402.366C963.327 402.401 978.878 400.629 992.699 395.939C1010.22 389.994 1024.96 379.36 1033.74 361.773C1034.18 360.891 1038.75 341.474 1039.16 340.574C1045.02 330.159 1047.05 336.141 1051.14 335.797C1064.44 334.674 1080.56 342.328 1086.67 359.387C1090.44 369.928 1086.53 380.235 1086.13 382.098C1079.73 411.859 1050.83 444.299 1011.26 463.191C999.542 468.788 986.883 473.196 973.594 475.992C966.314 477.524 958.845 478.573 951.238 479.068" fill="#FF85D0"/>
<path d="M906.124 418.42C909.972 407.981 915.569 400.503 928.563 401.874C931.783 402.12 937.49 402.343 947.605 402.366C963.327 402.401 978.878 400.629 992.699 395.939C1010.22 389.994 1024.96 379.36 1033.74 361.773C1034.18 360.891 1038.75 341.474 1039.16 340.574C1045.02 330.159 1047.05 336.141 1051.14 335.797C1064.44 334.674 1080.56 342.328 1086.67 359.387C1090.44 369.928 1086.53 380.235 1086.13 382.098C1079.73 411.859 1050.83 444.299 1011.26 463.191C999.542 468.788 986.883 473.196 973.594 475.992C966.314 477.524 958.845 478.573 951.238 479.068" stroke="#242728" stroke-width="3.66124" stroke-miterlimit="1.5" stroke-linejoin="round"/>
<path fill-rule="evenodd" clip-rule="evenodd" d="M992.806 395.891C982.489 401.007 979.535 412.252 985.399 421.243Z" fill="#FF85D0"/>
<path d="M992.806 395.891C982.489 401.007 979.535 412.252 985.399 421.243" stroke="#242728" stroke-width="3.66124" stroke-miterlimit="1.5" stroke-linejoin="round"/>
<path fill-rule="evenodd" clip-rule="evenodd" d="M778.434 483.613C778.434 483.613 790.393 508.797 796.666 521.99C799.123 527.167 800.422 532.817 800.488 538.544C800.674 556.043 801.068 593.856 801.068 593.856C801.07 605.927 784.213 615.721 763.44 615.717C742.676 615.71 725.809 605.907 725.807 593.836" fill="#FF85D0"/>
<path d="M778.434 483.613C778.434 483.613 790.393 508.797 796.666 521.99C799.123 527.167 800.422 532.817 800.488 538.544C800.674 556.043 801.068 593.856 801.068 593.856C801.07 605.927 784.213 615.721 763.44 615.717C742.676 615.71 725.809 605.907 725.807 593.836" stroke="#242728" stroke-width="3.66124" stroke-miterlimit="1.5" stroke-linejoin="round"/>
<path fill-rule="evenodd" clip-rule="evenodd" d="M855.933 547.579C856.094 562.776 856.261 578.851 856.261 578.851C856.264 589.755 841.037 598.602 822.273 598.598C814.509 598.594 807.34 597.075 801.61 594.519" fill="#FF85D0"/>
<path d="M855.933 547.579C856.094 562.776 856.261 578.851 856.261 578.851C856.264 589.755 841.037 598.602 822.273 598.598C814.509 598.594 807.34 597.075 801.61 594.519" stroke="#242728" stroke-width="3.66124" stroke-miterlimit="1.5" stroke-linejoin="round"/>
<path d="M726.189 548.943L725.798 594.522" stroke="#242728" stroke-width="3.66124" stroke-miterlimit="1.5" stroke-linejoin="round"/>
<path fill-rule="evenodd" clip-rule="evenodd" d="M899.585 460.684C903.047 458.85 907.266 459.247 910.321 461.694C922.457 471.365 935.155 475.161 948.098 476.314C949.75 476.471 951.076 477.746 951.29 479.389C951.51 481.033 950.564 482.616 949.012 483.2C934.292 488.851 919.106 489.602 903.41 485.164C891.399 481.764 890.429 465.557 899.585 460.684Z" fill="white" stroke="#242728" stroke-width="3.66124" stroke-miterlimit="1.5" stroke-linejoin="round"/>
<path fill-rule="evenodd" clip-rule="evenodd" d="M908.262 460.429C902.176 456.803 898.931 453.025 894.867 448.709Z" fill="#FF85D0"/>
<path d="M908.262 460.429C902.176 456.803 898.931 453.025 894.867 448.709" stroke="#242728" stroke-width="3.66124" stroke-miterlimit="1.5" stroke-linejoin="round"/>
<path fill-rule="evenodd" clip-rule="evenodd" d="M902.679 484.938C895.803 483.199 888.609 479.546 883.479 476.569Z" fill="#FF85D0"/>
<path d="M902.679 484.938C895.803 483.199 888.609 479.546 883.479 476.569" stroke="#242728" stroke-width="3.66124" stroke-miterlimit="1.5" stroke-linejoin="round"/>
<g filter="url(#filter0_d_5961_15485)">
<path d="M-63 292L1030 292.177L-63 297V292Z" fill="white"/>
</g>
<g filter="url(#filter1_d_5961_15485)">
<path d="M1982.84 310.779L1052.5 292.539L1926 140.5L1982.84 310.779Z" fill="url(#paint0_linear_5961_15485)"/>
</g>
<defs>
<filter id="filter0_d_5961_15485" x="-83" y="272" width="1133" height="45" filterUnits="userSpaceOnUse" color-interpolation-filters="sRGB">
<feFlood flood-opacity="0" result="BackgroundImageFix"/>
<feColorMatrix in="SourceAlpha" type="matrix" values="0 0 0 0 0 0 0 0 0 0 0 0 0 0 0 0 0 0 127 0" result="hardAlpha"/>
<feOffset/>
<feGaussianBlur stdDeviation="10"/>
<feComposite in2="hardAlpha" operator="out"/>
<feColorMatrix type="matrix" values="0 0 0 0 1 0 0 0 0 1 0 0 0 0 1 0 0 0 1 0"/>
<feBlend mode="normal" in2="BackgroundImageFix" result="effect1_dropShadow_5961_15485"/>
<feBlend mode="normal" in="SourceGraphic" in2="effect1_dropShadow_5961_15485" result="shape"/>
</filter>
<filter id="filter1_d_5961_15485" x="912.498" y="0.5" width="1210.34" height="450.279" filterUnits="userSpaceOnUse" color-interpolation-filters="sRGB">
<feFlood flood-opacity="0" result="BackgroundImageFix"/>
<feColorMatrix in="SourceAlpha" type="matrix" values="0 0 0 0 0 0 0 0 0 0 0 0 0 0 0 0 0 0 127 0" result="hardAlpha"/>
<feOffset/>
<feGaussianBlur stdDeviation="70"/>
<feComposite in2="hardAlpha" operator="out"/>
<feColorMatrix type="matrix" values="0 0 0 0 0.584763 0 0 0 0 0.601416 0 0 0 0 0.49887 0 0 0 0.6 0"/>
<feBlend mode="normal" in2="BackgroundImageFix" result="effect1_dropShadow_5961_15485"/>
<feBlend mode="normal" in="SourceGraphic" in2="effect1_dropShadow_5961_15485" result="shape"/>
</filter>
<linearGradient id="paint0_linear_5961_15485" x1="1971.15" y1="225.639" x2="1052.37" y2="227.08" gradientUnits="userSpaceOnUse">
<stop stop-color="#FFC6D9"/>
<stop offset="0.333333" stop-color="#7CCFE1"/>
<stop offset="0.640625" stop-color="#89CBA6"/>
<stop offset="1" stop-color="#A5D571"/>
</linearGradient>
</defs>
</svg>
