<svg width="380" height="374" viewBox="0 0 380 374" fill="none" xmlns="http://www.w3.org/2000/svg">
<g opacity="0.15" clip-path="url(#clip0_5426_3352)">
<path d="M178.055 346.372V0C142.896 0 86.2247 16.2348 101.785 62.5169C67.8587 65.4069 36.6111 75.8618 26.8329 113.219C22.454 129.921 23.4743 148.409 29.1287 164.558C35.9309 183.938 34.3579 175.991 22.5815 191.163C-28.8177 257.42 14.3338 348.199 83.8014 368.769C94.1323 371.829 120.958 372.466 130.949 368.769C133.202 367.962 151.526 357.039 148.635 355.807C157.563 359.759 174.611 360.354 178.097 346.414L178.055 346.372Z" fill="#A6A199"/>
<path d="M28.1191 138.119H104.76V299.279H150.714" stroke="white" stroke-width="4.95833" stroke-miterlimit="10" stroke-linejoin="round"/>
<path d="M46.3047 92.1852H147.108V30.104" stroke="white" stroke-width="4.95833" stroke-miterlimit="10" stroke-linejoin="round"/>
<path d="M5.85742 256.324H60.4487V330.32H99.9199" stroke="white" stroke-width="4.95833" stroke-miterlimit="10" stroke-linejoin="round"/>
<path d="M9.30664 221.208H67.6254V171.511" stroke="white" stroke-width="4.95833" stroke-miterlimit="10" stroke-linejoin="round"/>
<path d="M122.228 139.317C122.228 147.519 115.554 154.192 107.349 154.192C99.1434 154.192 92.4688 147.519 92.4688 139.317C92.4688 131.114 99.1434 124.442 107.349 124.442C115.554 124.442 122.228 131.114 122.228 139.317Z" fill="#A6A199" stroke="white" stroke-width="4.95833" stroke-miterlimit="10" stroke-linejoin="round"/>
<path d="M163.172 299.292C163.172 307.494 156.497 314.167 148.292 314.167C140.087 314.167 133.412 307.494 133.412 299.292C133.412 291.089 140.087 284.417 148.292 284.417C156.497 284.417 163.172 291.089 163.172 299.292Z" fill="#A6A199" stroke="white" stroke-width="4.95833" stroke-miterlimit="10" stroke-linejoin="round"/>
<path d="M83.7577 177.737C83.7577 185.939 77.083 192.612 68.8779 192.612C60.6727 192.612 53.998 185.939 53.998 177.737C53.998 169.534 60.6727 162.862 68.8779 162.862C77.083 162.862 83.7577 169.534 83.7577 177.737Z" fill="#A6A199" stroke="white" stroke-width="4.95833" stroke-miterlimit="10" stroke-linejoin="round"/>
<path d="M116.025 234.81C116.025 243.013 109.351 249.685 101.145 249.685C92.9403 249.685 86.2656 243.013 86.2656 234.81C86.2656 226.608 92.9403 219.936 101.145 219.936C109.351 219.936 116.025 226.608 116.025 234.81Z" fill="#A6A199" stroke="white" stroke-width="4.95833" stroke-miterlimit="10" stroke-linejoin="round"/>
<path d="M113.558 326.566C113.558 334.769 106.884 341.441 98.6787 341.441C90.4735 341.441 83.7988 334.769 83.7988 326.566C83.7988 318.364 90.4735 311.691 98.6787 311.691C106.884 311.691 113.558 318.364 113.558 326.566Z" fill="#A6A199" stroke="white" stroke-width="4.95833" stroke-miterlimit="10" stroke-linejoin="round"/>
<path d="M155.732 93.4139C155.732 101.616 149.058 108.289 140.852 108.289C132.647 108.289 125.973 101.616 125.973 93.4139C125.973 85.2115 132.647 78.5391 140.852 78.5391C149.058 78.5391 155.732 85.2115 155.732 93.4139Z" fill="#A6A199" stroke="white" stroke-width="4.95833" stroke-miterlimit="10" stroke-linejoin="round"/>
<path d="M163.172 26.4774C163.172 34.6798 156.497 41.3523 148.292 41.3523C140.087 41.3523 133.412 34.6798 133.412 26.4774C133.412 18.275 140.087 11.6025 148.292 11.6025C156.497 11.6025 163.172 18.275 163.172 26.4774Z" fill="#A6A199" stroke="white" stroke-width="4.95833" stroke-miterlimit="10" stroke-linejoin="round"/>
<path d="M201.601 348.832V2.45996C236.76 2.45996 293.431 18.6948 277.871 64.9769C311.797 67.8668 343.045 78.3217 352.823 115.679C357.202 132.381 356.181 150.869 350.527 167.018C343.725 186.398 345.298 178.451 357.074 193.623C408.473 259.88 365.322 350.659 295.854 371.229C285.523 374.289 258.697 374.926 248.706 371.229C246.453 370.421 228.13 359.499 231.021 358.267C222.093 362.219 205.045 362.814 201.559 348.874L201.601 348.832Z" fill="#A6A199"/>
<path d="M352.945 140.47H275.446V301.787H228.939" stroke="white" stroke-width="4.95833" stroke-miterlimit="10" stroke-linejoin="round"/>
<path d="M341.502 94.6925H232.703V32.6113" stroke="white" stroke-width="4.95833" stroke-miterlimit="10" stroke-linejoin="round"/>
<path d="M375.678 258.832H320.012V332.827H279.734" stroke="white" stroke-width="4.95833" stroke-miterlimit="10" stroke-linejoin="round"/>
<path d="M371.916 223.558H312.029V174.019" stroke="white" stroke-width="4.95833" stroke-miterlimit="10" stroke-linejoin="round"/>
<path d="M257.467 141.777C257.467 149.979 264.141 156.652 272.347 156.652C280.552 156.652 287.226 149.979 287.226 141.777C287.226 133.574 280.552 126.902 272.347 126.902C264.141 126.902 257.467 133.574 257.467 141.777Z" fill="#A6A199" stroke="white" stroke-width="4.95833" stroke-miterlimit="10" stroke-linejoin="round"/>
<path d="M216.521 301.751C216.521 309.954 223.196 316.626 231.401 316.626C239.606 316.626 246.281 309.954 246.281 301.751C246.281 293.549 239.606 286.876 231.401 286.876C223.196 286.876 216.521 293.549 216.521 301.751Z" fill="#A6A199" stroke="white" stroke-width="4.95833" stroke-miterlimit="10" stroke-linejoin="round"/>
<path d="M295.895 180.228C295.895 188.431 302.569 195.103 310.774 195.103C318.98 195.103 325.654 188.431 325.654 180.228C325.654 172.026 318.98 165.354 310.774 165.354C302.569 165.354 295.895 172.026 295.895 180.228Z" fill="#A6A199" stroke="white" stroke-width="4.95833" stroke-miterlimit="10" stroke-linejoin="round"/>
<path d="M263.629 237.27C263.629 245.473 270.304 252.145 278.509 252.145C286.714 252.145 293.389 245.473 293.389 237.27C293.389 229.068 286.714 222.396 278.509 222.396C270.304 222.396 263.629 229.068 263.629 237.27Z" fill="#A6A199" stroke="white" stroke-width="4.95833" stroke-miterlimit="10" stroke-linejoin="round"/>
<path d="M266.137 329.026C266.137 337.229 272.811 343.901 281.017 343.901C289.222 343.901 295.896 337.229 295.896 329.026C295.896 320.824 289.222 314.151 281.017 314.151C272.811 314.151 266.137 320.824 266.137 329.026Z" fill="#A6A199" stroke="white" stroke-width="4.95833" stroke-miterlimit="10" stroke-linejoin="round"/>
<path d="M223.961 95.91C223.961 104.112 230.636 110.785 238.841 110.785C247.046 110.785 253.721 104.112 253.721 95.91C253.721 87.7076 247.046 81.0352 238.841 81.0352C230.636 81.0352 223.961 87.7076 223.961 95.91Z" fill="#A6A199" stroke="white" stroke-width="4.95833" stroke-miterlimit="10" stroke-linejoin="round"/>
<path d="M216.521 28.9374C216.521 37.1398 223.196 43.8122 231.401 43.8122C239.606 43.8122 246.281 37.1398 246.281 28.9374C246.281 20.7349 239.606 14.0625 231.401 14.0625C223.196 14.0625 216.521 20.7349 216.521 28.9374Z" fill="#A6A199" stroke="white" stroke-width="4.95833" stroke-miterlimit="10" stroke-linejoin="round"/>
</g>
<path fill-rule="evenodd" clip-rule="evenodd" d="M84.7132 220.823C92.3646 224.731 100.626 227.809 109.296 229.761C107.933 242.264 100.838 253.265 93.3139 252.438C93.2811 252.434 93.2484 252.43 93.2116 252.426C83.3425 250.56 81.1002 233.502 84.7132 220.827V220.823Z" fill="#FF85D0"/>
<path fill-rule="evenodd" clip-rule="evenodd" d="M124.561 260.17C131.742 257.661 140.629 265.22 144.439 277.118C148.252 289.019 145.564 300.81 138.449 303.527C138.412 303.54 138.375 303.552 138.334 303.568C122.802 308.173 109.193 268.233 123.784 260.62L124.566 260.166L124.561 260.17Z" fill="#FF85D0"/>
<path fill-rule="evenodd" clip-rule="evenodd" d="M93.3127 252.434C100.837 253.265 107.932 242.26 109.295 229.757C114.045 230.825 118.922 231.558 123.886 231.901C123.869 231.979 123.857 232.049 123.845 232.126C123.702 233.272 124.319 234.369 125.334 234.783C127.319 235.593 129.311 236.268 131.32 236.788C134.504 241.527 138.08 245.947 141.995 249.999L137.053 252.88C122.54 254.378 107.957 254.149 93.3086 252.434H93.3127Z" fill="#FF85D0"/>
<path fill-rule="evenodd" clip-rule="evenodd" d="M84.5119 220.545C58.6894 207.363 39.8268 184.722 35.6532 163.956C35.3914 162.655 32.8382 155.46 35.3014 148.105C39.2907 136.204 49.8104 130.859 58.493 131.641C61.1567 131.882 66.6804 133.102 70.502 140.37C70.5348 140.44 70.547 140.599 70.543 140.829L70.2729 144.074C70.0315 146.354 69.7287 148.961 69.8146 149.64C69.8146 149.697 69.831 149.746 69.8433 149.775C75.5716 162.045 85.1952 169.469 96.6315 173.615C102.127 175.608 108.043 176.848 114.148 177.503C114.504 165.143 117.028 153.323 121.329 142.486C119.925 141.848 116.382 140.084 114.729 137.894C111.386 133.462 111.893 120.337 111.893 120.337L116.042 101.29L125.408 57.4248C126.893 50.451 132.061 45.0405 138.624 43.5876C145.191 42.1388 151.939 44.9137 155.899 50.6884L180.404 86.4375C188.248 84.0474 196.517 82.7664 205.069 82.7664C241.665 82.7664 276.031 105.382 291.972 138.41L298.498 139.511C307.439 141.009 313.92 149.415 313.584 159.082L311.502 219.035C311.232 226.823 306.706 233.715 299.947 236.645C298.015 237.48 296.006 237.947 293.997 238.065C289.108 253.38 281.522 266.346 270.552 279.954L270.818 311.925C270.638 320.25 259.705 326.978 246.26 326.978C232.815 326.978 221.702 320.143 221.702 311.716C217.962 313.501 212.925 315.032 207.855 315.032C195.617 315.032 185.674 308.852 185.674 301.248L185.895 278.059C171.108 288.646 155.167 296.918 138.252 303.245C145.367 300.527 148.056 288.736 144.242 276.835C140.433 264.934 131.546 257.379 124.365 259.887L141.804 249.717C137.888 245.67 134.312 241.245 131.128 236.506C138.853 238.507 146.771 238.331 154.897 235.872C155.061 235.823 155.22 235.769 155.376 235.712C157.679 234.877 159.316 233.236 160.294 231.272C162.446 226.95 161.419 221.073 157.397 218.789C155.613 217.778 153.514 217.737 151.73 218.609C151.259 218.842 150.805 219.137 150.388 219.493C147.769 221.719 145.118 223.504 142.43 224.92C136.979 227.785 131.39 229.139 125.736 229.696C124.725 229.798 123.902 230.58 123.686 231.62C118.722 231.276 113.845 230.543 109.095 229.475C100.424 227.523 92.1634 224.449 84.5119 220.541V220.545Z" fill="#FF85D0"/>
<path fill-rule="evenodd" clip-rule="evenodd" d="M112.492 120.57C111.31 126.12 111.985 133.695 115.324 138.127C117.406 140.886 121.322 142.969 121.322 142.969M180.974 86.6135C174.19 76.7093 164.96 63.2486 156.51 50.9134C152.55 45.1346 145.802 42.3639 139.239 43.8168C132.68 45.2697 127.509 50.6761 126.019 57.6581C122.946 72.0642 119.509 88.1237 116.649 101.527" fill="#FF85D0"/>
<path d="M180.974 86.6135C174.19 76.7093 164.96 63.2486 156.51 50.9134C152.55 45.1346 145.802 42.3639 139.239 43.8168C132.68 45.2697 127.509 50.6761 126.019 57.6581C122.946 72.0642 119.509 88.1237 116.649 101.527L112.492 120.57C111.31 126.12 111.985 133.695 115.324 138.127C117.406 140.886 121.322 142.969 121.322 142.969" stroke="#242728" stroke-width="2.125" stroke-linejoin="round"/>
<path fill-rule="evenodd" clip-rule="evenodd" d="M124.844 260.154C132.041 257.522 141.002 265.102 144.84 277.069C148.674 289.035 145.94 300.888 138.743 303.519" fill="#FF85D0"/>
<path d="M124.844 260.154C132.041 257.522 141.002 265.102 144.84 277.069C148.674 289.035 145.94 300.888 138.743 303.519" stroke="#242728" stroke-width="2.125" stroke-linejoin="round"/>
<path fill-rule="evenodd" clip-rule="evenodd" d="M109.692 229.7C108.317 242.264 101.169 253.31 93.6074 252.369L109.692 229.7Z" fill="#FF85D0"/>
<path d="M109.692 229.7C108.317 242.264 101.169 253.31 93.6074 252.369" stroke="#242728" stroke-width="2.125" stroke-linejoin="round"/>
<path fill-rule="evenodd" clip-rule="evenodd" d="M155.663 242.215L124.19 260.575C109.603 268.199 123.2 308.135 138.732 303.527C161.199 295.133 181.948 283.309 200.553 267.189" fill="#FF85D0"/>
<path d="M155.663 242.215L124.19 260.575C109.603 268.199 123.2 308.135 138.732 303.527C161.199 295.133 181.948 283.309 200.553 267.189" stroke="#242728" stroke-width="2.125" stroke-linejoin="round"/>
<path fill-rule="evenodd" clip-rule="evenodd" d="M85.1134 220.773C81.4964 233.444 83.7427 250.506 93.6118 252.368C108.293 254.099 122.912 254.328 137.458 252.826" fill="#FF85D0"/>
<path d="M85.1134 220.773C81.4964 233.444 83.7427 250.506 93.6118 252.368C108.293 254.099 122.912 254.328 137.458 252.826" stroke="#242728" stroke-width="2.125" stroke-linejoin="round"/>
<path fill-rule="evenodd" clip-rule="evenodd" d="M252.654 131.854C252.654 131.854 289.876 138.119 311.82 141.815C320.76 143.321 327.241 151.731 326.91 161.394C326.378 176.901 325.56 200.532 324.844 221.355C324.578 229.144 320.056 236.036 313.297 238.962C306.542 241.888 298.8 240.3 293.53 234.91C282.09 223.209 271.73 212.605 271.73 212.605" fill="#FF85D0"/>
<path fill-rule="evenodd" clip-rule="evenodd" d="M142.487 250.031C142.459 250.003 142.43 249.974 142.402 249.95C138.49 245.902 134.918 241.478 131.73 236.739M294.69 238.028C288.646 257.104 278.442 272.516 262.762 290.021L294.69 238.028ZM221.94 275.803C217.656 276.826 212.77 277.509 205.667 277.325C200.266 277.182 194.971 276.822 189.82 275.852M114.75 177.113C116.26 124.895 156.42 83.0029 205.667 83.0029C242.349 83.0029 276.788 105.717 292.681 138.867" fill="#FF85D0"/>
<path d="M142.487 250.031C142.459 250.003 142.43 249.974 142.402 249.95C138.49 245.902 134.918 241.478 131.73 236.739M294.69 238.028C288.646 257.104 278.442 272.516 262.762 290.021M221.94 275.803C217.656 276.826 212.77 277.509 205.667 277.325C200.266 277.182 194.971 276.822 189.82 275.852M114.75 177.113C116.26 124.895 156.42 83.0029 205.667 83.0029C242.349 83.0029 276.788 105.717 292.681 138.867" stroke="#242728" stroke-width="2.125" stroke-linejoin="round"/>
<path d="M154.434 71.2256L164.258 92.937" stroke="#242728" stroke-width="2.125" stroke-linejoin="round"/>
<path fill-rule="evenodd" clip-rule="evenodd" d="M153.731 189.527C151.218 182.242 147.565 177.024 139.087 177.982C136.983 178.153 133.26 178.309 126.66 178.325C116.402 178.35 106.251 177.114 97.2328 173.84C85.7966 169.69 76.1771 162.27 70.4447 149.996C70.1582 149.382 71.3776 141.226 71.1075 140.595C67.2859 133.327 61.7621 132.107 59.0943 131.866C50.4159 131.084 39.8921 136.425 35.9068 148.33C33.4436 155.685 35.9969 162.88 36.2587 164.181C40.4363 184.951 59.2948 207.588 85.1174 220.77C92.7688 224.674 101.03 227.752 109.7 229.704C114.451 230.772 119.324 231.505 124.291 231.849" fill="#FF85D0"/>
<path d="M153.731 189.527C151.218 182.242 147.565 177.024 139.087 177.982C136.983 178.153 133.26 178.309 126.66 178.325C116.402 178.35 106.251 177.114 97.2328 173.84C85.7966 169.69 76.1771 162.27 70.4447 149.996C70.1582 149.382 71.3776 141.226 71.1075 140.595C67.2859 133.327 61.7621 132.107 59.0943 131.866C50.4159 131.084 39.8921 136.425 35.9068 148.33C33.4436 155.685 35.9969 162.88 36.2587 164.181C40.4363 184.951 59.2948 207.588 85.1174 220.77C92.7688 224.674 101.03 227.752 109.7 229.704C114.451 230.772 119.324 231.505 124.291 231.849" stroke="#242728" stroke-width="2.125" stroke-linejoin="round"/>
<path fill-rule="evenodd" clip-rule="evenodd" d="M97.1641 173.803C103.899 177.376 105.826 185.221 101.996 191.495L97.1641 173.803Z" fill="#FF85D0"/>
<path d="M97.1641 173.803C103.899 177.376 105.826 185.221 101.996 191.495" stroke="#242728" stroke-width="2.125" stroke-linejoin="round"/>
<path fill-rule="evenodd" clip-rule="evenodd" d="M237.062 235.02C237.062 235.02 229.259 252.593 225.163 261.802C223.559 265.416 222.712 269.357 222.667 273.355C222.545 285.568 222.291 311.957 222.291 311.957C222.291 320.38 233.289 327.214 246.849 327.214C260.401 327.21 271.407 320.367 271.407 311.945" fill="#FF85D0"/>
<path d="M237.062 235.02C237.062 235.02 229.259 252.593 225.163 261.802C223.559 265.416 222.712 269.357 222.667 273.355C222.545 285.568 222.291 311.957 222.291 311.957C222.291 320.38 233.289 327.214 246.849 327.214C260.401 327.21 271.407 320.367 271.407 311.945" stroke="#242728" stroke-width="2.125" stroke-linejoin="round"/>
<path fill-rule="evenodd" clip-rule="evenodd" d="M186.484 279.658C186.378 290.262 186.271 301.48 186.271 301.48C186.271 309.088 196.206 315.264 208.452 315.26C213.518 315.26 218.199 314.195 221.939 312.411" fill="#FF85D0"/>
<path d="M186.484 279.658C186.378 290.262 186.271 301.48 186.271 301.48C186.271 309.088 196.206 315.264 208.452 315.26C213.518 315.26 218.199 314.195 221.939 312.411" stroke="#242728" stroke-width="2.125" stroke-linejoin="round"/>
<path d="M271.158 280.613L271.412 312.421" stroke="#242728" stroke-width="2.125" stroke-linejoin="round"/>
<path fill-rule="evenodd" clip-rule="evenodd" d="M157.999 219.022C155.74 217.741 152.986 218.02 150.994 219.726C143.072 226.475 134.787 229.123 126.341 229.929C125.265 230.04 124.398 230.928 124.259 232.074C124.116 233.22 124.733 234.325 125.744 234.734C135.351 238.675 145.261 239.199 155.503 236.105C163.342 233.731 163.977 222.423 157.999 219.022Z" fill="white" stroke="#242728" stroke-width="2.125" stroke-linejoin="round"/>
<path fill-rule="evenodd" clip-rule="evenodd" d="M152.336 218.841C156.309 216.312 158.424 213.672 161.076 210.664L152.336 218.841Z" fill="#FF85D0"/>
<path d="M152.336 218.841C156.309 216.312 158.424 213.672 161.076 210.664" stroke="#242728" stroke-width="2.125" stroke-linejoin="round"/>
<path fill-rule="evenodd" clip-rule="evenodd" d="M155.977 235.946C160.465 234.731 165.158 232.185 168.505 230.106L155.977 235.946Z" fill="#FF85D0"/>
<path d="M155.977 235.946C160.465 234.731 165.158 232.185 168.505 230.106" stroke="#242728" stroke-width="2.125" stroke-linejoin="round"/>
<mask id="mask0_5426_3352" style="mask-type:luminance" maskUnits="userSpaceOnUse" x="132" y="87" width="159" height="128">
<path d="M145.726 87.4817L132.469 197.061L277.402 214.604L290.66 105.025L145.726 87.4817Z" fill="white"/>
</mask>
<g mask="url(#mask0_5426_3352)">
<path d="M273.398 176.154C277.653 173.24 279.781 167.78 280.439 162.562C280.738 160.209 280.775 157.794 280.341 155.453C279.94 153.263 279.478 152.052 277.633 150.628C278.835 148.07 279.547 145.61 278.684 142.844C277.956 140.499 276.262 138.415 273.995 137.495L273.983 137.605C273.913 137.54 273.831 137.474 273.75 137.417C273.835 136.422 273.733 135.415 273.414 134.478C272.997 133.271 272.293 132.182 271.413 131.266C270.366 130.185 269.02 129.747 267.657 129.146C267.444 129.051 267.227 128.953 267.056 128.802C266.798 128.577 266.655 128.257 266.499 127.955C265.493 126.015 263.729 124.476 261.679 123.739C261.466 123.666 261.233 123.588 261.082 123.408C260.943 123.244 260.898 123.023 260.848 122.814C260.304 120.567 258.422 118.701 256.18 118.194C256.004 118.153 255.824 118.116 255.693 117.997C255.595 117.903 255.542 117.756 255.497 117.625C254.654 115.3 253.001 113.274 250.898 111.993C248.794 110.712 246.237 110.176 243.798 110.508C243.663 108.249 242.383 106.153 240.632 104.729C238.872 103.296 236.855 102.077 234.588 101.794C232.158 101.488 230.21 102.597 228.25 103.935C228.414 103.141 228.082 102.327 227.649 101.647C226.663 100.125 225.063 99.0279 223.291 98.6513C221.527 98.2789 219.613 98.6391 218.107 99.6336L218.119 99.65C218.119 99.65 218.078 99.6499 218.058 99.6581C218.021 99.5558 217.992 99.4535 217.935 99.3635C217.718 98.9869 217.338 98.7414 216.961 98.5204C210.66 94.7879 201.928 95.8438 196.675 100.972C194.31 99.1957 191.184 98.4754 188.279 99.0483C185.373 99.6254 182.751 101.483 181.229 104.037C180.926 103.337 180.148 102.994 179.428 102.773C176.065 101.758 172.284 102.249 169.285 104.074C166.286 105.908 164.101 109.051 163.438 112.525C159.383 112.071 155.14 113.696 152.411 116.753C151.249 118.055 150.345 119.737 150.324 121.451C149.461 121.996 148.696 122.642 148.131 123.305C146.854 124.824 146.126 126.874 146.417 128.871C146.543 129.759 146.92 130.562 147.3 131.364C143.299 131.793 140.115 135.473 139.44 139.467C138.966 142.307 139.571 145.205 140.807 147.828L140.737 147.779C139.133 150.214 138.741 153.415 139.702 156.173C140.664 158.924 142.971 161.17 145.742 162.046C147.382 162.566 149.207 162.611 150.819 161.997C150.84 161.997 150.86 162.001 150.881 162.013C151.151 164.842 153.008 167.277 155.652 168.3C157.268 168.926 159.035 168.987 160.766 168.946C163.176 168.889 165.656 168.639 167.792 167.518C167.955 167.432 168.119 167.342 168.274 167.244C168.385 167.354 168.499 167.461 168.61 167.571C168.029 170.588 169.019 173.866 171.134 176.096C173.508 178.593 176.053 179.731 179.449 179.268C179.854 181.981 181.65 184.38 183.986 185.804C186.323 187.228 189.121 187.744 191.851 187.584C194.064 187.453 196.511 186.7 197.534 184.715C199.003 186.107 201.421 186.95 203.418 186.774C205.001 186.631 206.654 185.395 208.193 185.395C208.811 185.395 209.424 185.403 210.042 185.411C211.732 193.212 219.719 197.791 227.534 196.036C230.607 201.454 236.188 205.273 242.26 206.537C248.336 207.802 254.826 206.595 260.259 203.562C265.423 200.689 269.993 195.205 268.934 189.369C274.515 187.932 277.559 180.737 274.175 176.063L273.398 176.17V176.158V176.154Z" fill="#FF85D0"/>
<path d="M274.114 175.857C278.369 172.943 280.497 167.484 281.156 162.266C281.454 159.913 281.491 157.498 281.058 155.157C280.657 152.967 280.194 151.756 278.349 150.332C279.552 147.774 280.268 145.314 279.4 142.548C278.672 140.202 276.974 138.119 274.711 137.198L274.699 137.309C274.63 137.243 274.548 137.178 274.466 137.121C274.552 136.126 274.45 135.119 274.126 134.182C273.709 132.975 273.005 131.886 272.125 130.969C271.078 129.889 269.732 129.451 268.369 128.849C268.161 128.755 267.944 128.657 267.768 128.506C267.51 128.281 267.367 127.961 267.211 127.659C266.205 125.719 264.441 124.18 262.391 123.443C262.179 123.369 261.945 123.292 261.802 123.116C261.663 122.952 261.618 122.731 261.569 122.522C261.025 120.275 259.143 118.409 256.9 117.902C256.724 117.861 256.544 117.824 256.413 117.705C256.315 117.611 256.262 117.464 256.217 117.333C255.374 115.008 253.721 112.982 251.618 111.701C249.515 110.42 246.958 109.884 244.519 110.216C244.384 107.957 243.103 105.861 241.352 104.437C239.593 103.004 237.575 101.785 235.309 101.502C232.878 101.196 230.931 102.305 228.971 103.643C229.134 102.849 228.803 102.035 228.369 101.355C227.383 99.8327 225.783 98.7359 224.012 98.3594C222.248 97.9869 220.333 98.3471 218.827 99.3416L218.84 99.358C218.84 99.358 218.799 99.358 218.778 99.3661C218.741 99.2638 218.713 99.1615 218.656 99.0715C218.439 98.695 218.058 98.4494 217.682 98.2284C211.381 94.4959 202.649 95.5518 197.395 100.68C195.03 98.9037 191.904 98.1834 188.999 98.7563C186.102 99.3334 183.471 101.191 181.949 103.745C181.646 103.045 180.869 102.702 180.149 102.481C176.785 101.466 173.005 101.957 170.005 103.782C167.006 105.616 164.821 108.767 164.159 112.233C160.104 111.779 155.861 113.404 153.136 116.461C151.973 117.763 151.069 119.445 151.049 121.159C150.185 121.704 149.42 122.35 148.856 123.013C147.579 124.532 146.851 126.582 147.141 128.579C147.268 129.467 147.644 130.27 148.025 131.072C144.023 131.501 140.84 135.181 140.165 139.175C139.69 142.015 140.296 144.913 141.532 147.536L141.462 147.487C139.858 149.922 139.465 153.123 140.427 155.881C141.388 158.632 143.696 160.878 146.466 161.754C148.107 162.274 149.932 162.319 151.544 161.705C151.564 161.705 151.585 161.709 151.605 161.721C151.875 164.549 153.733 166.985 156.376 168.008C157.992 168.634 159.76 168.695 161.491 168.654C163.901 168.597 166.38 168.347 168.516 167.226C168.68 167.14 168.843 167.05 168.999 166.952C169.109 167.062 169.224 167.169 169.334 167.279C168.753 170.296 169.744 173.574 171.859 175.804C174.232 178.301 176.777 179.438 180.173 178.976C180.578 181.689 182.375 184.088 184.711 185.512C187.047 186.936 189.846 187.452 192.575 187.292C194.789 187.161 197.236 186.408 198.259 184.423C199.727 185.815 202.146 186.658 204.142 186.482C205.726 186.339 207.379 185.103 208.917 185.103C209.535 185.103 210.149 185.111 210.767 185.119C212.457 192.92 220.444 197.499 228.259 195.744C231.332 201.162 236.913 204.981 242.985 206.245C249.061 207.51 255.55 206.303 260.984 203.27C266.148 200.397 270.722 194.913 269.658 189.077C275.239 187.64 278.283 180.445 274.9 175.772L274.122 175.878V175.862L274.114 175.857Z" stroke="#1D1D1B" stroke-width="2.125" stroke-linecap="round" stroke-linejoin="round"/>
<path d="M181.436 155.907L178.486 170.718" stroke="black" stroke-width="2.125" stroke-miterlimit="10"/>
<path d="M202.222 149.721L199.112 161.872L200.041 175.411L188.875 168.813L178.49 170.72L165.258 158.234" stroke="black" stroke-width="2.125" stroke-miterlimit="10"/>
<path d="M211.674 168.343L229.808 177.146" stroke="black" stroke-width="2.125" stroke-miterlimit="10"/>
<path d="M246.392 148.342L241.285 168.097" stroke="black" stroke-width="2.125" stroke-miterlimit="10"/>
<path d="M175.623 144.884L181.437 155.901L197.894 135.991" stroke="black" stroke-width="2.125" stroke-miterlimit="10"/>
<path d="M191.77 118.105L197.698 128.091L220.902 126.724L238.349 127.219" stroke="black" stroke-width="2.125" stroke-miterlimit="10"/>
<path d="M239.38 194.573L204.195 178.948" stroke="black" stroke-width="2.125" stroke-miterlimit="10"/>
<path d="M259.33 187.681L245.324 181.199L229.211 178.035" stroke="black" stroke-width="2.125" stroke-miterlimit="10"/>
<path d="M229.311 156.246L241.287 168.102L256.037 169.796" stroke="black" stroke-width="2.125" stroke-miterlimit="10"/>
<path d="M258.303 130.057L249.248 147.754" stroke="black" stroke-width="2.125" stroke-miterlimit="10"/>
<path d="M191.396 115.79L221.11 124.871L211.687 108.161" stroke="black" stroke-width="2.125" stroke-miterlimit="10"/>
<path d="M174.706 142.912L164.521 157.768L180.905 156.013" stroke="black" stroke-width="2.125" stroke-miterlimit="10"/>
<path d="M260.446 187.727L257.275 169.604" stroke="black" stroke-width="2.125" stroke-miterlimit="10"/>
<path d="M182.841 129.069L176.262 141.531" stroke="black" stroke-width="2.125" stroke-miterlimit="10"/>
<path d="M174.35 144.434L198.941 132.798" stroke="black" stroke-width="2.125" stroke-miterlimit="10"/>
<path d="M258.439 187.134L239.38 194.574L230.755 177.176L200.092 179.034L211.675 168.34" stroke="black" stroke-width="2.125" stroke-miterlimit="10"/>
<path d="M223.177 125.46L202.473 148.621L224.969 152.124L223.177 125.46Z" stroke="black" stroke-width="2.125" stroke-miterlimit="10"/>
<path d="M247.776 145.138C247.837 144.622 240.129 126.815 240.129 126.815L226.168 155.05L247.776 145.138Z" stroke="black" stroke-width="2.125" stroke-miterlimit="10"/>
<path d="M166.139 122.223L152.035 143.734" stroke="black" stroke-width="2.125" stroke-miterlimit="10"/>
<path d="M166.139 122.223L175.869 146.186L151.045 144.053" stroke="black" stroke-width="2.125" stroke-miterlimit="10"/>
<path d="M211.691 108.156L192.534 115.666L174.199 109.969L182.219 128.533L200.042 130.837L202.473 148.611C202.473 148.611 180.934 155.835 181.446 155.896C181.957 155.958 188.88 168.8 188.88 168.8L199.118 161.863L211.822 169.316L224.969 152.123L229.817 177.149L240.169 168.051L245.325 181.201L256.045 169.799L246.34 147.052L264.093 157.55L258.312 130.064L239.2 127.403L241.102 113.804L211.683 108.16H211.691V108.156Z" stroke="black" stroke-width="2.125" stroke-miterlimit="10"/>
<path d="M277.772 150.14C277.478 149.714 277.122 149.337 276.709 149.026C276.181 148.629 275.551 148.335 274.896 148.269C273.497 148.134 272.077 149.161 271.766 150.545C271.545 151.507 271.823 152.517 272.2 153.434C272.576 154.351 273.059 155.231 273.272 156.201C273.542 157.445 273.345 158.787 272.719 159.896" stroke="#1D1D1B" stroke-width="2.125" stroke-miterlimit="10" stroke-linecap="round"/>
<path d="M274.559 166.822L265.324 157.356L257.271 169.605L274.559 166.826V166.822Z" stroke="black" stroke-width="2.125" stroke-miterlimit="10"/>
<path d="M270.052 188.361C268.898 188.619 267.724 188.762 266.541 188.807" stroke="#1D1D1B" stroke-width="2.125" stroke-miterlimit="10" stroke-linecap="round"/>
<path d="M151.74 133.282C149.711 133.213 147.669 133.876 146.061 135.124C144.453 136.372 143.303 138.198 142.865 140.187" stroke="#1D1D1B" stroke-width="2.125" stroke-miterlimit="10" stroke-linecap="round"/>
<path d="M154.904 125.727C155.629 126.1 156.496 126.096 157.282 125.883C158.071 125.67 158.791 125.277 159.503 124.884" stroke="#1D1D1B" stroke-width="2.125" stroke-miterlimit="10" stroke-linecap="round"/>
<path d="M197.895 99.5835C195.935 101.249 194.335 103.341 193.234 105.677" stroke="#1D1D1B" stroke-width="2.125" stroke-linecap="round" stroke-linejoin="round"/>
<path d="M181.711 102.878C181.072 104.147 180.487 105.44 179.947 106.75" stroke="#1D1D1B" stroke-width="2.125" stroke-linecap="round" stroke-linejoin="round"/>
<path d="M244.436 110.114C244.321 111.968 243.757 113.797 242.787 115.385" stroke="#1D1D1B" stroke-width="2.125" stroke-linecap="round" stroke-linejoin="round"/>
<path d="M268.03 128.609C265.223 127.528 262.048 128.101 259.221 129.124" stroke="#1D1D1B" stroke-width="2.125" stroke-miterlimit="10" stroke-linecap="round"/>
<path d="M259.716 189.887C260.272 192.506 259.585 195.371 257.907 197.454C256.221 199.538 253.574 200.798 250.906 200.782" stroke="#1D1D1B" stroke-width="2.125" stroke-miterlimit="10" stroke-linecap="round"/>
<path d="M257.807 134.169C260.065 134.444 262.119 132.823 262.393 130.547C262.668 128.276 261.06 126.209 258.801 125.939C256.542 125.669 254.488 127.286 254.21 129.561C253.936 131.833 255.544 133.899 257.803 134.169H257.807Z" fill="#E9FC87"/>
<path d="M224.881 131.076C227.967 130.122 229.701 126.836 228.756 123.734C227.811 120.631 224.546 118.892 221.461 119.846C218.376 120.799 216.641 124.086 217.586 127.188C218.531 130.29 221.796 132.029 224.881 131.076Z" fill="#EEE8FF"/>
<path d="M244.767 114.242C244.521 116.276 242.68 117.733 240.651 117.488C238.621 117.242 237.181 115.396 237.43 113.354C237.68 111.312 239.517 109.863 241.543 110.109C243.568 110.354 245.012 112.2 244.763 114.242H244.767Z" fill="#EEE8FF"/>
<path d="M243.193 127.273C242.935 129.402 241.012 130.928 238.889 130.67C236.765 130.412 235.259 128.481 235.517 126.344C235.775 124.208 237.698 122.69 239.821 122.947C241.945 123.205 243.451 125.137 243.193 127.273Z" fill="#DB39CB"/>
<path d="M156.785 145.497C157.755 142.857 156.413 139.931 153.79 138.961C151.167 137.991 148.254 139.342 147.284 141.982C146.314 144.621 147.656 147.548 150.279 148.517C152.902 149.487 155.815 148.137 156.785 145.497Z" fill="#EEE8FF"/>
<path d="M169.206 122.592C169.001 124.294 167.459 125.51 165.765 125.305C164.071 125.101 162.864 123.554 163.072 121.851C163.281 120.149 164.819 118.933 166.513 119.138C168.207 119.342 169.414 120.889 169.206 122.592Z" fill="#EEE8FF"/>
<path d="M177.183 149.803C180.571 148.571 182.331 144.81 181.107 141.401C179.884 137.996 176.148 136.232 172.76 137.468C169.372 138.7 167.613 142.461 168.836 145.87C170.06 149.275 173.795 151.039 177.187 149.803H177.183Z" fill="#EEE8FF"/>
<path d="M246.634 153.176C250.21 153.61 253.463 151.043 253.897 147.446C254.33 143.849 251.785 140.583 248.209 140.149C244.633 139.715 241.38 142.281 240.947 145.879C240.513 149.476 243.058 152.742 246.634 153.176Z" fill="#DB39CB"/>
<path d="M164.184 160.6C165.739 160.788 167.15 159.675 167.338 158.111C167.527 156.548 166.422 155.128 164.867 154.94C163.312 154.751 161.901 155.865 161.712 157.428C161.524 158.991 162.629 160.412 164.184 160.6Z" fill="#E9FC87"/>
<path d="M190.538 122.903C194.445 123.378 198.001 120.574 198.475 116.641C198.95 112.712 196.168 109.139 192.26 108.669C188.353 108.198 184.797 110.998 184.322 114.931C183.848 118.864 186.63 122.432 190.538 122.903Z" fill="#EEE8FF"/>
<path d="M186.466 129.172C186.212 131.276 184.313 132.773 182.223 132.52C180.132 132.266 178.642 130.359 178.9 128.255C179.158 126.152 181.052 124.654 183.143 124.907C185.234 125.161 186.723 127.068 186.466 129.172Z" fill="#DB39CB"/>
<path d="M207.457 131.885C207.257 136.24 203.59 139.608 199.261 139.412C194.932 139.215 191.585 135.536 191.786 131.181C191.986 126.827 195.653 123.459 199.982 123.655C204.311 123.852 207.657 127.531 207.457 131.885Z" fill="#E9FC87"/>
<path d="M188.524 171.721C190.124 171.913 191.576 170.767 191.773 169.159C191.969 167.55 190.828 166.089 189.228 165.897C187.628 165.705 186.175 166.851 185.979 168.459C185.783 170.067 186.924 171.529 188.524 171.721Z" fill="#DB39CB"/>
<path d="M203.5 162.483C203.238 164.652 201.274 166.207 199.109 165.945C196.945 165.683 195.407 163.715 195.672 161.533C195.938 159.352 197.898 157.809 200.063 158.071C202.227 158.333 203.766 160.301 203.5 162.483Z" fill="#EEE8FF"/>
<path d="M224.276 163.517C229.923 164.2 235.058 160.149 235.745 154.468C236.433 148.787 232.411 143.631 226.764 142.947C221.118 142.264 215.983 146.316 215.295 151.996C214.608 157.677 218.63 162.833 224.276 163.517Z" fill="#E9FC87"/>
<path d="M215.337 168.79C215.092 170.824 213.25 172.281 211.221 172.035C209.191 171.789 207.751 169.944 208.001 167.901C208.25 165.859 210.088 164.41 212.113 164.656C214.138 164.902 215.583 166.747 215.333 168.79H215.337Z" fill="#EEE8FF"/>
<path d="M234.667 177.731C234.34 180.432 231.905 182.352 229.221 182.028C226.537 181.705 224.63 179.258 224.954 176.556C225.277 173.855 227.716 171.936 230.4 172.259C233.084 172.582 234.991 175.03 234.667 177.731Z" fill="#EEE8FF"/>
<path d="M240.922 171.101C242.571 171.302 244.069 170.119 244.269 168.462C244.47 166.804 243.296 165.298 241.647 165.097C239.998 164.897 238.5 166.08 238.3 167.737C238.099 169.395 239.273 170.901 240.922 171.101Z" fill="#E9FC87"/>
<path d="M201.747 154.629C205.049 155.03 208.049 152.66 208.449 149.341C208.85 146.022 206.502 143.006 203.2 142.609C199.898 142.212 196.899 144.577 196.498 147.897C196.097 151.216 198.445 154.232 201.747 154.629Z" fill="#EEE8FF"/>
<path d="M263.511 162.355C266.146 162.674 268.548 160.783 268.867 158.131C269.187 155.479 267.308 153.069 264.673 152.754C262.038 152.438 259.641 154.325 259.317 156.977C258.994 159.629 260.872 162.04 263.511 162.355Z" fill="#EEE8FF"/>
<path d="M260.917 169.951C260.635 172.3 258.511 173.982 256.175 173.699C253.839 173.417 252.169 171.285 252.456 168.927C252.742 166.57 254.862 164.896 257.206 165.179C259.551 165.461 261.204 167.593 260.917 169.951Z" fill="#E9FC87"/>
<path d="M278.484 167.295C278.222 169.472 276.254 171.027 274.086 170.765C271.917 170.503 270.378 168.527 270.64 166.349C270.902 164.172 272.87 162.617 275.039 162.879C277.207 163.141 278.746 165.118 278.484 167.295Z" fill="#EEE8FF"/>
<path d="M258.737 192.563C261.421 192.887 263.86 190.963 264.183 188.266C264.506 185.569 262.599 183.118 259.915 182.794C257.231 182.471 254.793 184.394 254.469 187.092C254.146 189.789 256.053 192.24 258.737 192.563Z" fill="#EEE8FF"/>
<path d="M245.034 183.596C246.352 183.755 247.547 182.81 247.71 181.488C247.874 180.166 246.933 178.963 245.615 178.803C244.298 178.644 243.103 179.589 242.943 180.911C242.784 182.233 243.721 183.436 245.038 183.596H245.034Z" fill="#EEE8FF"/>
<path d="M238.631 199.354C241.835 199.742 244.749 197.442 245.137 194.221C245.526 191 243.247 188.074 240.043 187.685C236.839 187.297 233.93 189.597 233.537 192.818C233.149 196.039 235.428 198.965 238.631 199.354Z" fill="#E9FC87"/>
<path d="M214.813 112.159C217.014 110.424 217.403 107.219 215.676 105.009C213.954 102.795 210.77 102.411 208.565 104.15C206.364 105.885 205.975 109.09 207.702 111.3C209.424 113.51 212.608 113.899 214.813 112.159Z" fill="#E9FC87"/>
<path d="M178.694 111.387C178.407 113.757 176.271 115.443 173.914 115.156C171.558 114.87 169.884 112.725 170.171 110.356C170.457 107.986 172.593 106.3 174.95 106.586C177.306 106.873 178.98 109.017 178.694 111.387Z" fill="#E9FC87"/>
<path d="M185.277 156.368C185.019 158.496 183.088 160.018 180.972 159.764C178.857 159.511 177.343 157.571 177.601 155.439C177.859 153.306 179.79 151.784 181.905 152.042C184.021 152.299 185.535 154.235 185.277 156.368Z" fill="#E9FC87"/>
<path d="M176.861 175.183C179.783 175.535 182.434 173.444 182.79 170.505C183.146 167.567 181.068 164.902 178.146 164.546C175.225 164.19 172.573 166.286 172.217 169.224C171.861 172.163 173.94 174.827 176.861 175.183Z" fill="#EEE8FF"/>
<path d="M203.241 182.276C205.667 180.36 206.092 176.833 204.194 174.397C202.295 171.958 198.785 171.537 196.358 173.448C193.932 175.363 193.506 178.891 195.405 181.326C197.303 183.766 200.814 184.187 203.241 182.276Z" fill="#E9FC87"/>
<path d="M228.998 103.494C228.699 104.873 228.273 106.216 227.713 107.513" stroke="#1D1D1B" stroke-width="2.125" stroke-linecap="round" stroke-linejoin="round"/>
<path d="M218.279 98.9453C219.192 99.8375 220.031 100.795 220.8 101.814" stroke="#1D1D1B" stroke-width="2.125" stroke-linecap="round" stroke-linejoin="round"/>
<path d="M151.639 161.907C151.753 160.716 151.995 159.545 152.338 158.403" stroke="#1D1D1B" stroke-width="2.125" stroke-linecap="round" stroke-linejoin="round"/>
<path d="M160.26 165.52C161.324 166.339 162.838 166.138 164.122 165.729C165.428 165.315 166.667 164.726 167.817 163.985" stroke="#1D1D1B" stroke-width="2.125" stroke-linecap="round" stroke-linejoin="round"/>
<path d="M158.116 149.898C159.172 151.044 159.462 152.739 159.209 154.282C158.947 155.816 158.194 157.224 157.363 158.546" stroke="#1D1D1B" stroke-width="2.125" stroke-miterlimit="10" stroke-linecap="round"/>
<path d="M143.684 149.696C143.049 151.44 143.213 153.457 144.13 155.07" stroke="#1D1D1B" stroke-width="2.125" stroke-miterlimit="10" stroke-linecap="round"/>
<path d="M274.891 175.752C273.627 175.154 269.772 173.37 268.59 172.625" stroke="#1D1D1B" stroke-width="2.125" stroke-miterlimit="10" stroke-linecap="round"/>
<path d="M256.63 118.573C256.053 117.791 254.846 118.037 253.929 118.364C251.634 119.183 249.338 119.989 247.043 120.808" stroke="#1D1D1B" stroke-width="2.125" stroke-miterlimit="10" stroke-linecap="round"/>
</g>
<path d="M287.091 137.647C295.741 139.104 304.607 140.598 311.817 141.81C320.757 143.316 327.238 151.726 326.907 161.389C326.375 176.896 325.557 200.527 324.841 221.35C324.575 229.138 320.053 236.03 313.294 238.956C306.539 241.883 298.797 240.295 293.527 234.905C282.087 223.204 271.727 212.6 271.727 212.6" stroke="#242728" stroke-width="2.125" stroke-linejoin="round"/>
<defs>
<clipPath id="clip0_5426_3352">
<rect width="379.667" height="374" fill="white"/>
</clipPath>
</defs>
</svg>
