<svg width="78" height="99" viewBox="0 0 78 99" fill="none" xmlns="http://www.w3.org/2000/svg">
<path fill-rule="evenodd" clip-rule="evenodd" d="M13.4883 48.9949C13.4883 48.9949 11.4489 49.9291 9.23098 50.9445C6.10846 52.376 4.62778 55.9823 5.84504 59.1947C7.87585 64.5524 10.6045 71.7489 10.6045 71.7489L8.058 72.7668C2.44558 76.2143 6.85674 86.2233 12.479 84.7869L23.3396 81.6336C25.1082 80.5578 26.2934 79.2507 27.1821 77.8242L30.8856 80.132C35.6401 87.1303 40.9485 92.7798 46.5905 97.6144C50.8306 99.4126 56.1058 94.6986 57.371 88.2762C58.9575 88.5667 60.3372 88.0498 61.5249 86.7882C63.6764 88.1876 66.0136 89.2166 68.501 89.9452C69.6961 90.296 70.9688 90.2849 72.1565 89.912C75.2298 88.9384 76.5948 86.9235 76.7634 84.1788C76.8643 82.6329 76.116 81.156 74.8101 80.324C72.9849 79.167 71.2015 77.8365 69.4808 76.2537C68.9183 75.7355 68.4174 75.1546 67.9878 74.5219C65.9078 71.4707 64.9219 68.0934 64.8678 64.4429L37.1171 57.6931L65.1767 52.6554C68.4001 53.0788 69.1595 51.7865 70.1023 49.3088L74.6403 33.1237C74.6181 30.2227 72.2316 26.7062 68.1737 27.0718L63.2111 28.4564L50.8367 28.7432L13.4883 48.9949Z" fill="#F59897"/>
<path fill-rule="evenodd" clip-rule="evenodd" d="M13.4867 38.1077C13.4867 36.6291 14.3153 35.2747 15.6316 34.601C20.6343 32.0422 33.0786 25.6772 38.7573 22.7729C40.6186 21.8204 42.7831 21.6479 44.7724 22.2924C49.3421 23.7732 57.801 26.5142 62.1413 27.9209C63.7658 28.4475 64.8662 29.9606 64.8662 31.668C64.8662 39.0229 64.8662 58.4784 64.8662 65.3154C64.8662 66.798 64.0334 68.1552 62.7109 68.8267C57.7057 71.3688 45.2916 77.674 39.6498 80.5398C37.8088 81.4745 35.6743 81.6493 33.706 81.0261C29.1351 79.5797 20.6134 76.8824 16.2369 75.497C14.5995 74.979 13.4867 73.4596 13.4867 71.7419C13.4867 64.3685 13.4867 44.9309 13.4867 38.1077Z" fill="#F59897"/>
<path d="M13.4867 48.9964C13.4867 44.5164 13.4867 40.5222 13.4867 38.1077C13.4867 36.6291 14.3153 35.2747 15.6316 34.601C20.6343 32.0422 33.0786 25.6772 38.7573 22.7729C40.6186 21.8204 42.7831 21.6479 44.7724 22.2924C49.3421 23.7732 57.801 26.5142 62.1413 27.9209C63.7658 28.4475 64.8662 29.9606 64.8662 31.668C64.8662 38.7131 64.8662 56.3192 64.8662 56.3192M31.2437 80.2472C29.247 79.6148 27.1016 78.9359 24.3803 78.0747M51.7859 74.3754L48.4674 76.0609C50.9481 79.3797 53.2505 82.3144 56.3488 85.5831C60.3501 89.8815 50.9094 100.744 46.2235 97.2755C39.6547 91.7136 34.0818 85.2888 29.7545 77.7844" stroke="black" stroke-width="0.546216" stroke-miterlimit="1.5" stroke-linejoin="round"/>
<path d="M58.7812 31.8936C52.8614 34.9008 44.1226 39.3388 39.647 41.6119C37.806 42.5472 35.6716 42.722 33.7033 42.0988C31.3277 41.3469 25.208 39.4699 22.1589 38.5047" stroke="#242728" stroke-width="0.546216" stroke-miterlimit="1.5" stroke-linejoin="round"/>
<path d="M56.1729 85.3648C54.0603 83.5994 50.1146 84.8334 47.3683 88.1197C44.6222 91.4057 44.1085 95.5079 46.221 97.2734" stroke="black" stroke-width="0.546216" stroke-miterlimit="1.5" stroke-linejoin="round"/>
<path d="M64.8652 56.32C64.8652 56.32 64.7877 60.1912 64.7923 64.449C64.7993 71.1346 68.475 77.1965 74.5701 79.9433C76.4949 81.0056 76.8227 82.548 76.8887 83.2934C77.1039 85.7188 75.7016 88.6644 72.5585 89.7889C70.6162 90.4837 68.7052 89.8054 68.3685 89.7044C58.954 86.88 52.5624 79.6703 50.27 69.7894" stroke="black" stroke-width="0.546216" stroke-miterlimit="1.5" stroke-linejoin="round"/>
<path d="M23.0544 44.2113C23.0544 44.2113 13.6329 48.922 8.07939 51.699C5.81625 52.8306 4.75674 55.4755 5.61132 57.857C6.98262 61.6784 9.07434 67.5023 10.9164 72.633C11.6045 74.5521 13.3559 75.8882 15.3893 76.0459C17.4214 76.2038 19.3578 75.1538 20.3354 73.364C22.4557 69.4789 24.376 65.9587 24.376 65.9587" stroke="black" stroke-width="0.546216" stroke-miterlimit="1.5" stroke-linejoin="round"/>
<path d="M63.2074 28.4583C64.6183 28.0448 66.0588 27.6222 67.4495 27.2141C69.1258 26.7229 71.135 27.3556 72.5931 28.8336C74.0498 30.3112 74.6871 32.3619 74.2222 34.0803C72.6739 39.7963 70.8399 46.5737 69.9222 49.9595C69.553 51.3257 68.6043 52.4026 67.2433 52.7252C66.3957 52.9259 65.1721 52.6573 65.1721 52.6573" stroke="black" stroke-width="0.546217" stroke-miterlimit="1.5" stroke-linejoin="round"/>
<path d="M66.1393 31.0813C67.8057 30.1888 69.5317 30.4791 70.1934 32.3577" stroke="black" stroke-width="0.546217" stroke-miterlimit="1.5" stroke-linejoin="round"/>
<path d="M26.3907 78.5306C25.8017 80.0269 24.6763 81.0405 23.1699 81.7126C22.9755 81.7987 22.7755 81.8709 22.5713 81.9286C21.4266 82.2593 15.5377 83.9235 12.2029 84.8659C10.5487 85.3334 8.77229 84.8305 7.60862 83.5654C5.55316 81.3465 4.78554 78.7294 5.6983 75.5912C6.05634 74.3464 6.92143 73.3298 8.05506 72.7691" stroke="black" stroke-width="0.546216" stroke-miterlimit="1.5" stroke-linejoin="round"/>
<path d="M61.2217 86.672C60.4077 88.0025 58.8281 88.6274 57.312 88.2046" stroke="black" stroke-width="0.546216" stroke-miterlimit="1.5" stroke-linejoin="round"/>
<path fill-rule="evenodd" clip-rule="evenodd" d="M51.4395 72.8671C50.715 72.9927 49.5409 72.6148 48.688 71.7569C48.4285 71.5009 48.328 71.1245 48.4251 70.7731C48.5222 70.4219 48.8019 70.1505 49.156 70.0641C49.846 69.893 50.5476 69.7216 50.5476 69.7216L51.4395 72.8671Z" fill="black"/>
<path d="M22.5811 50.6917L12.6287 54.1499" stroke="black" stroke-width="0.546216" stroke-miterlimit="1.5" stroke-linejoin="round"/>
<path d="M65.7871 70.6478C63.4918 70.0062 62.1253 71.1179 61.1144 72.9011" stroke="black" stroke-width="0.546216" stroke-miterlimit="1.5" stroke-linejoin="round"/>
<path d="M66.9395 73.0659C64.8925 72.4937 63.6739 73.4851 62.7725 75.0753" stroke="black" stroke-width="0.546216" stroke-miterlimit="1.5" stroke-linejoin="round"/>
<path d="M13.4883 42.4663C12.8797 42.4663 11.8123 41.7218 11.2536 41.4408C6.73003 39.1663 9.6073 35.4992 7.72311 31.7143C6.87129 30.0032 5.10818 29.1537 4.0057 28.0317" stroke="black" stroke-width="0.546216" stroke-miterlimit="1.5" stroke-linejoin="round"/>
<path fill-rule="evenodd" clip-rule="evenodd" d="M0.656036 25.8194C0.292862 26.3288 2.08168 28.2238 2.5914 28.5873C3.10112 28.9507 3.80967 28.8324 4.17285 28.323C4.53664 27.8127 4.41755 27.1043 3.90783 26.7409C3.3981 26.3774 1.01983 25.3092 0.656036 25.8194Z" stroke="black" stroke-width="0.546216" stroke-miterlimit="1.5" stroke-linejoin="round"/>
<path d="M73.9619 80.8191C70.0432 79.4823 67.4598 85.6102 69.1213 87.8237" stroke="black" stroke-width="0.546216" stroke-miterlimit="1.5" stroke-linejoin="round"/>
<path d="M39.1928 29.3723L42.6191 25.9459L46.0455 29.3723L42.6192 32.7987L39.1928 29.3723Z" fill="white"/>
<path d="M50.8354 19.7984L54.792 15.8417L58.7486 19.7984L54.792 23.7551L50.8354 19.7984Z" fill="black"/>
<path fill-rule="evenodd" clip-rule="evenodd" d="M28.0406 20.091L25.4658 15.8374L30.0737 14.3385L30.669 19.2051L28.0406 20.091Z" fill="#E9FC87"/>
<path fill-rule="evenodd" clip-rule="evenodd" d="M44.0762 0.000213623L41.8522 3.46396L37.8716 4.50881L40.4777 7.69443L40.2412 11.8038L44.0762 10.3089L47.9126 11.8038L47.6747 7.69443L50.2822 4.50881L46.3002 3.46396L44.0762 0.000213623Z" fill="#F59897"/>
</svg>
