<svg width="500" height="500" viewBox="0 0 500 500" fill="none" xmlns="http://www.w3.org/2000/svg">
<path fill-rule="evenodd" clip-rule="evenodd" d="M90.605 300.644C102.762 306.451 115.884 311.019 129.66 313.92C127.493 332.494 116.224 348.841 104.268 347.608C104.218 347.602 104.161 347.595 104.104 347.589C88.4256 344.814 84.8601 319.476 90.605 300.644Z" fill="#FF85D0"/>
<path fill-rule="evenodd" clip-rule="evenodd" d="M153.912 359.098C165.32 355.373 179.437 366.598 185.49 384.279C191.55 401.96 187.279 419.477 175.972 423.517C175.915 423.535 175.852 423.554 175.789 423.58C151.115 430.419 129.497 371.084 152.671 359.771L153.912 359.098Z" fill="#FF85D0"/>
<path fill-rule="evenodd" clip-rule="evenodd" d="M104.268 347.609C116.223 348.842 127.493 332.495 129.66 313.92C137.206 315.506 144.954 316.595 152.841 317.104C152.816 317.218 152.797 317.324 152.778 317.438C152.551 319.143 153.534 320.772 155.146 321.383C158.302 322.585 161.465 323.591 164.658 324.365C169.716 331.406 175.398 337.975 181.616 343.991L173.761 348.269C150.706 350.496 127.537 350.157 104.268 347.609Z" fill="#FF85D0"/>
<path fill-rule="evenodd" clip-rule="evenodd" d="M90.2833 300.226C49.2628 280.645 19.2976 247.007 12.6645 216.157C12.2488 214.225 8.19202 203.535 12.1038 192.605C18.4408 174.924 35.1528 166.984 48.9481 168.148C53.1811 168.506 61.9557 170.318 68.0281 181.116C68.0785 181.216 68.0975 181.455 68.0912 181.795L67.663 186.615C67.2788 190 66.7999 193.876 66.9322 194.883C66.9385 194.971 66.9573 195.04 66.9762 195.084C76.0785 213.313 91.3668 224.343 109.534 230.503C118.264 233.466 127.663 235.304 137.364 236.279C137.931 217.919 141.943 200.357 148.772 184.255C146.542 183.305 140.91 180.688 138.29 177.435C132.979 170.853 131.902 159.597 133.786 151.354C144.935 146.622 156.324 139.298 167.915 129.917C169.213 128.872 169.679 127.11 169.068 125.563C168.457 124.015 166.913 123.039 165.257 123.153C156.816 123.738 148.513 123.756 140.375 123.058L155.253 57.8905C157.616 47.5273 165.824 39.4923 176.249 37.3341C186.68 35.1822 197.401 39.3036 203.694 47.886L242.624 100.998C255.083 97.4493 268.223 95.5425 281.805 95.5425C339.946 95.5425 394.542 129.143 419.864 178.209L430.233 179.845C444.438 182.072 454.731 194.562 454.202 208.921L450.894 297.992C450.466 309.563 443.279 319.801 432.538 324.155C429.471 325.394 426.277 326.086 423.083 326.263C415.317 349.015 403.266 368.275 385.836 388.492L386.258 435.991C385.975 448.362 368.601 458.354 347.241 458.354C325.704 458.354 308.223 448.198 308.223 435.683C302.283 438.332 294.283 440.61 286.227 440.61C266.781 440.61 250.989 431.429 250.989 420.129L251.342 385.679C227.852 401.41 202.523 413.698 175.65 423.099C186.957 419.059 191.228 401.542 185.169 383.861C179.115 366.18 164.998 354.955 153.59 358.68L181.294 343.572C175.077 337.557 169.395 330.988 164.337 323.947C176.608 326.923 189.187 326.659 202.101 323.003C202.359 322.928 202.611 322.852 202.863 322.764C206.523 321.525 209.124 319.083 210.674 316.17C214.094 309.752 212.463 301.019 206.069 297.627C203.234 296.123 199.902 296.067 197.068 297.357C196.318 297.703 195.6 298.143 194.938 298.672C190.781 301.981 186.567 304.63 182.296 306.732C173.635 310.985 164.759 312.999 155.776 313.83C154.17 313.981 152.866 315.145 152.52 316.686C144.633 316.177 136.885 315.088 129.338 313.502C115.562 310.602 102.441 306.033 90.2833 300.226Z" fill="#FF85D0"/>
<path fill-rule="evenodd" clip-rule="evenodd" d="M134.735 151.701C132.855 159.947 133.929 171.201 139.235 177.785C142.54 181.883 148.764 184.981 148.764 184.981M243.529 101.254C232.749 86.5422 218.089 66.5392 204.666 48.2158C198.374 39.6334 187.657 35.5148 177.229 37.6705C166.808 39.829 158.596 47.8638 156.225 58.233C151.34 79.6337 145.885 103.494 141.336 123.408" fill="#FF85D0"/>
<path d="M134.735 151.701C132.855 159.947 133.929 171.201 139.235 177.785C142.54 181.883 148.764 184.981 148.764 184.981M243.529 101.254C232.749 86.5422 218.089 66.5392 204.666 48.2158C198.374 39.6334 187.657 35.5148 177.229 37.6705C166.808 39.829 158.596 47.8638 156.225 58.233C151.34 79.6337 145.885 103.494 141.336 123.408" stroke="#242728" stroke-width="4" stroke-miterlimit="1.5" stroke-linejoin="round"/>
<path fill-rule="evenodd" clip-rule="evenodd" d="M154.359 359.071C165.795 355.164 180.031 366.424 186.124 384.202C192.217 401.98 187.875 419.589 176.44 423.497" fill="#FF85D0"/>
<path d="M154.359 359.071C165.795 355.164 180.031 366.424 186.124 384.202C192.217 401.98 187.875 419.589 176.44 423.497" stroke="#242728" stroke-width="4" stroke-miterlimit="1.5" stroke-linejoin="round"/>
<path fill-rule="evenodd" clip-rule="evenodd" d="M130.292 313.834C128.109 332.498 116.749 348.909 104.741 347.51L130.292 313.834Z" fill="#FF85D0"/>
<path d="M130.292 313.834C128.109 332.498 116.749 348.909 104.741 347.51" stroke="#242728" stroke-width="4" stroke-miterlimit="1.5" stroke-linejoin="round"/>
<path fill-rule="evenodd" clip-rule="evenodd" d="M203.318 332.426L153.318 359.704C130.147 371.029 151.747 430.364 176.42 423.514C212.111 411.045 245.075 393.476 274.632 369.527" fill="#FF85D0"/>
<path d="M203.318 332.426L153.318 359.704C130.147 371.029 151.747 430.364 176.42 423.514C212.111 411.045 245.075 393.476 274.632 369.527" stroke="#242728" stroke-width="4" stroke-miterlimit="1.5" stroke-linejoin="round"/>
<path fill-rule="evenodd" clip-rule="evenodd" d="M91.2458 300.568C85.5013 319.395 89.0702 344.738 104.747 347.51C128.071 350.08 151.294 350.422 174.403 348.194" fill="#FF85D0"/>
<path d="M91.2458 300.568C85.5013 319.395 89.0702 344.738 104.747 347.51C128.071 350.08 151.294 350.422 174.403 348.194" stroke="#242728" stroke-width="4" stroke-miterlimit="1.5" stroke-linejoin="round"/>
<path fill-rule="evenodd" clip-rule="evenodd" d="M337.177 165.382C337.177 165.382 396.311 174.691 431.169 180.18C445.374 182.416 455.666 194.91 455.14 209.267C454.294 232.303 452.996 267.415 451.855 298.346C451.434 309.914 444.25 320.154 433.51 324.5C422.777 328.845 410.482 326.49 402.106 318.483C383.932 301.099 367.471 285.347 367.471 285.347" fill="#FF85D0"/>
<path d="M337.177 165.382C337.177 165.382 396.311 174.691 431.169 180.18C445.374 182.416 455.666 194.91 455.14 209.267C454.294 232.303 452.996 267.415 451.855 298.346C451.434 309.914 444.25 320.154 433.51 324.5C422.777 328.845 410.482 326.49 402.106 318.483C383.932 301.099 367.471 285.347 367.471 285.347" stroke="#242728" stroke-width="4" stroke-miterlimit="1.5" stroke-linejoin="round"/>
<path fill-rule="evenodd" clip-rule="evenodd" d="M182.389 344.035C182.341 343.994 182.301 343.953 182.253 343.911C176.037 337.895 170.362 331.326 165.3 324.284M424.19 326.202C414.592 354.54 398.379 377.439 373.466 403.447L424.19 326.202ZM308.614 382.323C301.809 383.844 294.049 384.859 282.763 384.583C274.182 384.373 265.77 383.833 257.587 382.396M138.326 235.705C140.722 158.129 204.523 95.8857 282.763 95.8857C341.04 95.8857 395.752 129.63 420.999 178.882" fill="#FF85D0"/>
<path d="M182.389 344.035C182.341 343.994 182.301 343.953 182.253 343.911C176.037 337.895 170.362 331.326 165.3 324.284M424.19 326.202C414.592 354.54 398.379 377.439 373.466 403.447M308.614 382.323C301.809 383.844 294.049 384.859 282.763 384.583C274.182 384.373 265.77 383.833 257.587 382.396M138.326 235.705C140.722 158.129 204.523 95.8857 282.763 95.8857C341.04 95.8857 395.752 129.63 420.999 178.882" stroke="#242728" stroke-width="4" stroke-miterlimit="1.5" stroke-linejoin="round"/>
<path d="M357 171.296L423.626 179.019" stroke="#242728" stroke-width="4" stroke-miterlimit="1.5" stroke-linejoin="round"/>
<path d="M201.373 78.3926L216.98 110.647" stroke="#242728" stroke-width="4" stroke-miterlimit="1.5" stroke-linejoin="round"/>
<path fill-rule="evenodd" clip-rule="evenodd" d="M200.253 254.147C196.264 243.323 190.46 235.57 176.989 236.992C173.65 237.247 167.733 237.478 157.246 237.502C140.947 237.538 124.824 235.701 110.494 230.839C92.326 224.675 77.0423 213.649 67.9392 195.416C67.4828 194.502 69.4212 182.386 68.9919 181.453C62.9186 170.655 54.1455 168.842 49.9074 168.485C36.1177 167.32 19.4008 175.256 13.0675 192.942C9.15389 203.871 13.2092 214.557 13.6249 216.489C20.2623 247.344 50.222 280.977 91.2463 300.564C103.4 306.366 116.524 310.937 130.302 313.836C137.85 315.424 145.593 316.511 153.48 317.025" fill="#FF85D0"/>
<path d="M200.253 254.147C196.264 243.323 190.46 235.571 176.989 236.992C173.65 237.247 167.733 237.478 157.246 237.502C140.947 237.538 124.824 235.701 110.494 230.839C92.326 224.675 77.0423 213.649 67.9392 195.416C67.4828 194.502 69.4212 182.386 68.9919 181.453C62.9186 170.655 54.1455 168.842 49.9074 168.485C36.1177 167.32 19.4008 175.256 13.0675 192.942C9.15388 203.871 13.2092 214.557 13.6249 216.489C20.2623 247.344 50.222 280.977 91.2463 300.564C103.4 306.366 116.524 310.937 130.302 313.836C137.85 315.424 145.593 316.511 153.48 317.025" stroke="#242728" stroke-width="4" stroke-miterlimit="1.5" stroke-linejoin="round"/>
<path fill-rule="evenodd" clip-rule="evenodd" d="M110.383 230.789C121.079 236.094 124.142 247.752 118.062 257.074L110.383 230.789Z" fill="#FF85D0"/>
<path d="M110.383 230.789C121.079 236.094 124.142 247.752 118.062 257.074" stroke="#242728" stroke-width="4" stroke-miterlimit="1.5" stroke-linejoin="round"/>
<path fill-rule="evenodd" clip-rule="evenodd" d="M332.639 321.736C332.639 321.736 320.24 347.846 313.737 361.525C311.189 366.892 309.842 372.75 309.773 378.687C309.58 396.829 309.172 436.033 309.172 436.033C309.17 448.548 326.647 458.702 348.184 458.698C369.712 458.691 387.198 448.528 387.201 436.012" fill="#FF85D0"/>
<path d="M332.639 321.736C332.639 321.736 320.24 347.846 313.737 361.525C311.189 366.892 309.842 372.75 309.773 378.687C309.58 396.829 309.172 436.033 309.172 436.033C309.17 448.548 326.647 458.702 348.184 458.698C369.712 458.691 387.198 448.528 387.201 436.012" stroke="#242728" stroke-width="4" stroke-miterlimit="1.5" stroke-linejoin="round"/>
<path fill-rule="evenodd" clip-rule="evenodd" d="M252.291 388.054C252.123 403.809 251.95 420.475 251.95 420.475C251.948 431.78 267.735 440.953 287.189 440.949C295.238 440.945 302.67 439.369 308.611 436.72" fill="#FF85D0"/>
<path d="M252.291 388.054C252.123 403.809 251.95 420.475 251.95 420.475C251.948 431.78 267.735 440.953 287.189 440.949C295.238 440.945 302.67 439.369 308.611 436.72" stroke="#242728" stroke-width="4" stroke-miterlimit="1.5" stroke-linejoin="round"/>
<path d="M386.807 389.47L387.213 436.724" stroke="#242728" stroke-width="4" stroke-miterlimit="1.5" stroke-linejoin="round"/>
<path d="M67.8926 195.222L76.6959 96.1592" stroke="#242728" stroke-width="4" stroke-miterlimit="1.5" stroke-linejoin="round"/>
<path fill-rule="evenodd" clip-rule="evenodd" d="M76.6954 96.1592L72.2852 145.691C101.925 167.736 134.546 158.055 168.88 130.256C170.172 129.21 170.637 127.447 170.026 125.9C169.414 124.353 167.872 123.379 166.21 123.494C133.658 125.731 103.088 119.654 76.6954 96.1592Z" fill="#E9FC87" stroke="#242728" stroke-width="4" stroke-miterlimit="1.5" stroke-linejoin="round"/>
<path fill-rule="evenodd" clip-rule="evenodd" d="M207.031 297.965C203.441 296.064 199.067 296.475 195.9 299.012C183.318 309.039 170.153 312.974 156.734 314.169C155.021 314.333 153.646 315.654 153.424 317.358C153.196 319.062 154.176 320.703 155.786 321.309C171.047 327.168 186.792 327.946 203.065 323.345C215.517 319.82 216.524 303.017 207.031 297.965Z" fill="white" stroke="#242728" stroke-width="4" stroke-miterlimit="1.5" stroke-linejoin="round"/>
<path fill-rule="evenodd" clip-rule="evenodd" d="M198.035 297.7C204.345 293.94 207.71 290.023 211.923 285.549L198.035 297.7Z" fill="#FF85D0"/>
<path d="M198.035 297.7C204.345 293.94 207.71 290.023 211.923 285.549" stroke="#242728" stroke-width="4" stroke-miterlimit="1.5" stroke-linejoin="round"/>
<path fill-rule="evenodd" clip-rule="evenodd" d="M203.823 323.11C210.951 321.307 218.411 317.52 223.729 314.433L203.823 323.11Z" fill="#FF85D0"/>
<path d="M203.823 323.11C210.951 321.307 218.411 317.52 223.729 314.433" stroke="#242728" stroke-width="4" stroke-miterlimit="1.5" stroke-linejoin="round"/>
</svg>
