<svg width="163" height="163" viewBox="0 0 163 163" fill="none" xmlns="http://www.w3.org/2000/svg">
<rect x="-0.000488281" width="163" height="163" rx="32.6" fill="#45DEF2"/>
<path fill-rule="evenodd" clip-rule="evenodd" d="M113.698 121.218C124.271 125.557 135.055 124.63 140.491 123.59C140.802 123.531 141.096 123.47 141.37 123.41C141.39 123.404 141.408 123.397 141.425 123.393C143.768 122.572 145.516 119.413 145.516 115.648C145.516 111.811 143.703 108.607 141.294 107.86C140.945 107.753 140.585 107.696 140.219 107.696C139.873 107.696 139.535 107.746 139.207 107.84C139.187 107.847 139.165 107.854 139.143 107.86C134.04 109.38 129.248 107.711 125.137 104.873C124.469 104.408 123.815 103.916 123.184 103.399C126.086 103.727 129.011 103.537 131.955 102.845C132.538 102.711 132.955 102.194 132.957 101.596C132.959 100.996 132.547 100.475 131.964 100.339C127.728 99.3688 123.682 97.5991 120.036 94.1211V66.3561C122.507 63.844 131.411 49.2048 127.588 42.6124C126.198 40.2141 123.289 38.8408 119.784 39.2986L115.376 39.8703C110.691 33.1946 102.795 27.8966 93.1645 25.0537V27.268C93.1645 28.098 93.0066 28.904 92.7085 29.6772C93.0066 30.4503 93.1645 31.2585 93.1645 32.0864V36.62C93.1645 37.5574 92.9628 38.4641 92.5836 39.3293C92.9628 40.1922 93.1645 41.1011 93.1645 42.0385V46.57C93.1645 52.3039 85.5906 56.9602 76.2607 56.9602C66.9308 56.9602 59.3569 52.3039 59.3569 46.57V42.0385C59.3569 41.1011 59.5585 40.1922 59.9378 39.3293C59.5585 38.4641 59.3569 37.5574 59.3569 36.62V32.0864C59.3569 31.2585 59.5147 30.4503 59.8151 29.6772C59.5147 28.904 59.3569 28.098 59.3569 27.268V25.4632C44.3077 30.3407 33.8094 41.2939 33.8094 54.0079V76.9216L24.2077 80.5967C20.8186 81.8911 18.8741 85.61 19.6765 89.2523L24.6571 111.848C25.3038 114.783 27.5486 117.033 30.3918 117.595C32.6322 118.04 34.9142 117.372 36.6044 115.859C38.8733 121.908 42.3851 127.121 46.9668 132.491V145.058C46.9668 148.394 51.6251 151.103 57.3642 151.103C63.1033 151.103 67.7639 148.394 67.7639 145.058L67.7178 140.616C69.6096 141.554 72.4858 142.08 75.1229 142.086V153.361C75.1229 156.697 79.7835 159.406 85.5226 159.406C91.2617 159.406 95.9222 156.697 95.9222 153.361L95.8214 143.654C97.7615 144.554 100.692 145.227 103.207 145.227C108.946 145.227 113.606 142.52 113.606 139.184L113.698 121.218Z" fill="#FF85D0"/>
<path d="M120.109 94.0985V53.9848C120.109 36.7363 100.791 22.7324 76.996 22.7324C53.2007 22.7324 33.8831 36.7363 33.8831 53.9848V76.8995M36.6791 115.837C38.9461 121.886 42.461 127.098 47.0388 132.467C48.9182 134.671 50.9798 136.901 53.2058 139.226M87.3968 133.222C90.2826 132.703 93.0555 131.972 95.6794 131.055C102.447 128.69 108.237 125.08 112.476 120.636M67.8378 133.768C68.7595 133.818 71.4066 134.061 75.1962 134.124" stroke="#242728" stroke-width="1.27434" stroke-miterlimit="1.5" stroke-linejoin="round"/>
<path d="M95.6777 131.056C95.6777 131.056 95.7988 135.137 95.811 135.608C95.8133 135.637 95.8131 135.667 95.8128 135.697C95.8231 136.668 95.9981 153.341 95.9981 153.341C95.9986 156.677 91.3404 159.384 85.6005 159.383C79.863 159.382 75.2027 156.673 75.2022 153.337L75.1968 130.68" stroke="#242728" stroke-width="1.27434" stroke-miterlimit="1.5" stroke-linejoin="round"/>
<path d="M113.512 121.09L113.681 139.166C113.682 142.502 109.024 145.209 103.283 145.208C100.449 145.207 97.8759 144.545 96 143.473" stroke="#242728" stroke-width="1.27434" stroke-miterlimit="1.5" stroke-linejoin="round"/>
<path d="M48.5038 70.7248C56.1021 75.5743 66.0769 78.5216 76.9888 78.5216C94.6477 78.5216 109.839 70.8082 116.5 59.7852M36.4208 57.8623C37.6548 60.3498 39.3174 62.6908 41.3341 64.8369" stroke="#242728" stroke-width="1.27434" stroke-miterlimit="1.5" stroke-linejoin="round"/>
<path d="M61.585 114.571C61.585 114.571 64.5191 120.753 66.3077 124.517C67.1936 126.382 67.6628 128.419 67.686 130.483C67.7387 135.564 67.8375 145.038 67.8375 145.038C67.8379 148.374 63.1799 151.081 57.4401 151.08C51.7028 151.078 47.0425 148.369 47.0421 145.033L47.0412 132.28" stroke="#242728" stroke-width="1.27434" stroke-miterlimit="1.5" stroke-linejoin="round"/>
<path d="M74.6902 142.117C71.8561 142.116 69.2824 141.454 67.4065 140.382" stroke="#242728" stroke-width="1.27434" stroke-miterlimit="1.5" stroke-linejoin="round"/>
<path d="M115.815 39.8055C117.174 39.6282 118.53 39.452 119.862 39.278C123.37 38.8214 126.276 40.1935 127.665 42.5914C131.484 49.1825 122.576 63.825 120.106 66.3368" stroke="#242728" stroke-width="1.27434" stroke-miterlimit="1.5" stroke-linejoin="round"/>
<path fill-rule="evenodd" clip-rule="evenodd" d="M118.577 92.6936C117.661 92.1132 116.51 91.9752 115.462 92.3607C114.941 92.5512 114.487 92.8447 114.107 93.2083C116.12 96.0446 119.301 100.151 123.258 103.382C126.16 103.71 129.084 103.52 132.028 102.828C132.612 102.694 133.028 102.177 133.03 101.579C133.032 100.979 132.62 100.458 132.037 100.322C127.802 99.354 123.755 97.5821 120.11 94.1041C119.82 93.8303 119.535 93.5434 119.25 93.2478C119.046 93.0331 118.821 92.8469 118.577 92.6936Z" fill="white"/>
<path d="M104.459 88.5494C107.251 87.3997 109.772 87.143 111.884 89.9853C113.417 91.9292 125.13 112.021 139.216 107.828C139.237 107.822 139.259 107.816 139.28 107.809C140.115 107.556 140.803 107.584 141.365 107.828M141.499 123.36C141.48 123.369 141.462 123.375 141.443 123.379C141.169 123.438 140.875 123.498 140.565 123.558C134.417 124.733 121.439 125.763 109.656 119.206" stroke="#242728" stroke-width="1.27434" stroke-miterlimit="1.5" stroke-linejoin="round"/>
<path fill-rule="evenodd" clip-rule="evenodd" d="M94.7775 108.407C96.1052 107.921 97.5935 108.269 98.5656 109.293C102.429 113.345 106.782 115.323 111.352 116.368C111.935 116.505 112.347 117.026 112.343 117.624C112.341 118.222 111.925 118.742 111.341 118.875C105.803 120.176 100.338 119.702 94.9447 117.348C90.8181 115.545 91.2657 109.702 94.7775 108.407Z" fill="white" stroke="#242728" stroke-width="1.27434" stroke-miterlimit="1.5" stroke-linejoin="round"/>
<path d="M114.108 93.197C114.49 92.8335 114.942 92.5422 115.463 92.3497C116.511 91.9657 117.662 92.1008 118.578 92.6824C118.822 92.8365 119.049 93.0206 119.252 93.2356C119.536 93.5318 119.821 93.819 120.11 94.0938C123.756 97.5723 127.802 99.3412 132.038 100.31C132.621 100.447 133.033 100.968 133.029 101.566C133.027 102.165 132.611 102.684 132.027 102.818C129.082 103.509 126.16 103.699 123.256 103.373" stroke="#242728" stroke-width="1.27434" stroke-miterlimit="1.5" stroke-linejoin="round"/>
<path d="M97.8904 108.737C95.8929 107.142 94.9181 105.633 93.677 103.891" stroke="#242728" stroke-width="1.27434" stroke-miterlimit="1.5" stroke-linejoin="round"/>
<path d="M118.576 92.6791C116.578 91.0848 115.604 89.5753 114.362 87.8335" stroke="#242728" stroke-width="1.27434" stroke-miterlimit="1.5" stroke-linejoin="round"/>
<path d="M94.6944 117.24C92.3217 116.283 89.9288 114.625 88.2409 113.31" stroke="#242728" stroke-width="1.27434" stroke-miterlimit="1.5" stroke-linejoin="round"/>
<path d="M125.21 104.834C122.293 103.717 119.563 105.386 118.843 108.206" stroke="#242728" stroke-width="1.27434" stroke-miterlimit="1.5" stroke-linejoin="round"/>
<path d="M46.6966 71.9911C46.6966 71.9911 32.5944 77.3877 24.2818 80.5692C20.8943 81.8655 18.9488 85.5836 19.7504 89.2257C21.0368 95.0698 22.9999 103.976 24.7283 111.823C25.3736 114.758 27.6191 117.008 30.463 117.571C33.3051 118.133 36.2175 116.904 37.9019 114.43C41.5558 109.06 44.8654 104.195 44.8654 104.195" stroke="#242728" stroke-width="1.27434" stroke-miterlimit="1.5" stroke-linejoin="round"/>
<path d="M140.294 123.569C143.22 123.569 145.592 120.008 145.592 115.617C145.592 111.225 143.22 107.665 140.294 107.665C137.369 107.665 134.997 111.225 134.997 115.617C134.997 120.008 137.369 123.569 140.294 123.569Z" stroke="#242728" stroke-width="1.27434" stroke-miterlimit="1.5" stroke-linejoin="round"/>
<path d="M68.0765 57.8812L68.0762 57.8809C61.1442 51.2155 53.7493 40.8625 56.4929 28.7615C58.9392 17.998 68.3438 13.1402 76.6463 13.1402H76.6464H76.6466H76.6467H76.6469H76.647H76.6471H76.6473H76.6474H76.6476H76.6477H76.6478H76.648H76.6481H76.6482H76.6484H76.6485H76.6486H76.6488H76.6489H76.649H76.6492H76.6493H76.6494H76.6496H76.6497H76.6498H76.65H76.6501H76.6502H76.6503H76.6505H76.6506H76.6507H76.6508H76.651H76.6511H76.6512H76.6513H76.6515H76.6516H76.6517H76.6518H76.6519H76.6521H76.6522H76.6523H76.6524H76.6525H76.6527H76.6528H76.6529H76.653H76.6531H76.6532H76.6533H76.6535H76.6536H76.6537H76.6538H76.6539H76.654H76.6541H76.6542H76.6544H76.6545H76.6546H76.6547H76.6548H76.6549H76.655H76.6551H76.6552H76.6553H76.6554H76.6555H76.6556H76.6557H76.6558H76.6559H76.656H76.6561H76.6562H76.6563H76.6564H76.6565H76.6566H76.6567H76.6568H76.6569H76.657H76.6571H76.6572H76.6573H76.6574H76.6575H76.6576H76.6577H76.6578H76.6579H76.658H76.6581H76.6582H76.6583H76.6584H76.6584H76.6585H76.6586H76.6587H76.6588H76.6589H76.659H76.6591H76.6592H76.6592H76.6593H76.6594H76.6595H76.6596H76.6597H76.6598H76.6598H76.6599H76.66H76.6601H76.6602H76.6602H76.6603H76.6604H76.6605H76.6606H76.6606H76.6607H76.6608H76.6609H76.661H76.661H76.6611H76.6612H76.6613H76.6613H76.6614H76.6615H76.6616H76.6616H76.6617H76.6618H76.6619H76.6619H76.662H76.6621H76.6622H76.6622H76.6623H76.6624H76.6624H76.6625H76.6626H76.6626H76.6627H76.6628H76.6628H76.6629H76.663H76.663H76.6631H76.6632H76.6632H76.6633H76.6634H76.6634H76.6635H76.6636H76.6636H76.6637H76.6637H76.6638H76.6639H76.6639H76.664H76.6641H76.6641H76.6642H76.6642H76.6643H76.6643H76.6644H76.6645H76.6645H76.6646H76.6646H76.6647H76.6647H76.6648H76.6649H76.6649H76.665H76.665H76.6651H76.6651H76.6652H76.6652H76.6653H76.6653H76.6654H76.6654H76.6655H76.6655H76.6656H76.6656H76.6657H76.6657H76.6658H76.6658H76.6659H76.6659H76.666H76.666H76.6661H76.6661H76.6662H76.6662H76.6663H76.6663H76.6664H76.6664H76.6665H76.6665H76.6665H76.6666H76.6666H76.6667H76.6667H76.6668H76.6668H76.6668H76.6669H76.6669H76.667H76.667H76.667H76.6671H76.6671H76.6672H76.6672H76.6672H76.6673H76.6673H76.6674H76.6674H76.6674H76.6675H76.6675H76.6675H76.6676H76.6676H76.6677H76.6677H76.6677H76.6678H76.6678H76.6678H76.6679H76.6679H76.6679H76.668H76.668H76.668H76.6681H76.6681H76.6681H76.6682H76.6682H76.6682H76.6683H76.6683H76.6683H76.6683H76.6684H76.6684H76.6684H76.6685H76.6685H76.6685H76.6686H76.6686H76.6686H76.6686H76.6687H76.6687H76.6687H76.6687H76.6688H76.6688H76.6688H76.6688H76.6689H76.6689H76.6689H76.669H76.669H76.669H76.669H76.669H76.6691H76.6691H76.6691H76.6691H76.6692H76.6692H76.6692H76.6692H76.6693H76.6693H76.6693H76.6693H76.6693H76.6694H76.6694H76.6694H76.6694H76.6694H76.6695H76.6695H76.6695H76.6695H76.6695H76.6696H76.6696H76.6696H76.6696H76.6696H76.6696H76.6697H76.6697H76.6697H76.6697H76.6697H76.6698H76.6698H76.6698H76.6698H76.6698H76.6698H76.6698H76.6699H76.6699H76.6699H76.6699H76.6699H76.67H76.67H76.67H76.67H76.6701H76.6701H76.6701H76.6701H76.6702H76.6702H76.6702H76.6702H76.6702H76.6703H76.6703H76.6703H76.6703H76.6703H76.6704H76.6704H76.6704H76.6704H76.6704H76.6704H76.6705H76.6705H76.6705H76.6705H76.6705H76.6705H76.6706H76.6706H76.6706H76.6706H76.6706H76.6706H76.6707H76.6707H76.6707H76.6707C84.9951 13.1402 94.3771 18.0203 96.824 28.7855C99.5678 40.8862 92.1735 51.2149 85.2408 57.8809L85.2374 57.8842C82.8512 60.2022 79.7622 61.3609 76.6707 61.3609C73.58 61.3609 70.489 60.2026 68.0765 57.8812ZM68.0642 33.1243C68.0642 37.8783 71.9167 41.7308 76.6707 41.7308C81.4247 41.7308 85.2772 37.8783 85.2772 33.1243C85.2772 28.3704 81.4247 24.5178 76.6707 24.5178C71.9167 24.5178 68.0642 28.3704 68.0642 33.1243Z" fill="#E9FC87" stroke="#242728" stroke-width="1.83117"/>
</svg>
