<svg width="36" height="36" viewBox="0 0 36 36" fill="none" xmlns="http://www.w3.org/2000/svg">
<path d="M33 18C33 9.72 26.28 3 18 3C9.72 3 3 9.72 3 18C3 26.28 9.72 33 18 33" stroke="#84EA9A" stroke-width="1.5" stroke-linecap="round" stroke-linejoin="round"/>
<path d="M12.0004 4.5H13.5004C10.5754 13.26 10.5754 22.74 13.5004 31.5H12.0004" stroke="#84EA9A" stroke-width="1.5" stroke-linecap="round" stroke-linejoin="round"/>
<path d="M22.5 4.5C23.955 8.88 24.69 13.44 24.69 18" stroke="#84EA9A" stroke-width="1.5" stroke-linecap="round" stroke-linejoin="round"/>
<path d="M4.5 24V22.5C8.88 23.955 13.44 24.69 18 24.69" stroke="#84EA9A" stroke-width="1.5" stroke-linecap="round" stroke-linejoin="round"/>
<path d="M4.5 13.4999C13.26 10.5749 22.74 10.5749 31.5 13.4999" stroke="#84EA9A" stroke-width="1.5" stroke-linecap="round" stroke-linejoin="round"/>
<path d="M28.8146 23.61L23.5046 28.9201C23.2946 29.1301 23.0996 29.52 23.0546 29.805L22.7696 31.83C22.6646 32.565 23.1746 33.075 23.9096 32.97L25.9346 32.685C26.2196 32.64 26.6246 32.445 26.8196 32.235L32.1296 26.9251C33.0446 26.0101 33.4796 24.945 32.1296 23.595C30.7946 22.26 29.7296 22.695 28.8146 23.61Z" stroke="#84EA9A" stroke-width="1.5" stroke-miterlimit="10" stroke-linecap="round" stroke-linejoin="round"/>
<path d="M28.0498 24.375C28.4998 25.995 29.7598 27.255 31.3798 27.705" stroke="#84EA9A" stroke-width="1.5" stroke-miterlimit="10" stroke-linecap="round" stroke-linejoin="round"/>
</svg>
