<svg width="197" height="40" viewBox="0 0 197 40" fill="none" xmlns="http://www.w3.org/2000/svg">
<g clip-path="url(#clip0_458_18634)">
<path d="M49.4375 28.6834V12.144H55.5901L62.0586 24.6511L68.5043 12.144H74.6568V28.6834H70.9601V15.4565L64.1301 28.6834H59.9643L53.1343 15.4565V28.6834H49.4375Z" fill="#020307"/>
<path d="M77.2461 11.8052H80.8289V15.3879H77.2461V11.8052ZM77.2917 16.8764H80.7865V28.6832H77.2917V16.8764Z" fill="#020307"/>
<path d="M98.2259 29.82C98.2487 32.4256 96.6267 34.0346 94.0341 34.0118H83.7158V30.9241C84.4453 30.8264 93.9461 31.1782 94.3175 30.6864C94.692 30.4974 94.7572 29.618 94.7474 28.693H87.2301C82.7712 28.693 82.7517 24.4589 82.9503 21.1432C82.9243 18.518 84.6147 16.8862 87.2301 16.8862H98.2259V29.82ZM88.0867 19.9609C85.9143 19.798 86.5526 22.6252 86.4582 23.9508C86.4582 24.9995 87.0347 25.5793 88.0867 25.5793H94.7148V19.9609H88.0867Z" fill="#020307"/>
<path d="M112.448 28.6833C112.448 18.7981 113.751 20.1205 104.175 19.9609V28.6833H100.684V11.4209H104.175V16.8765H111.093C116.366 16.8765 115.979 21.1497 115.94 28.6865L112.448 28.6833Z" fill="#020307"/>
<path d="M122.295 28.6832C119.706 28.706 118.061 27.0873 118.08 24.4914V12.6162H121.598V16.8764H129.057V19.9609H121.598C121.494 27.7452 121.002 25.1233 129.35 25.5728V28.6832H122.295Z" fill="#020307"/>
<path d="M136.853 28.6833L130.068 16.8765H134.127L138.882 25.1689L143.637 16.8765H147.669L137.778 34.116H133.742L136.853 28.6833Z" fill="#020307"/>
<path d="M149.068 12.1439H162.23C162.796 12.1165 163.362 12.2078 163.891 12.412C164.42 12.6162 164.9 12.9288 165.301 13.3297C165.702 13.7306 166.015 14.211 166.219 14.7399C166.423 15.2688 166.515 15.8346 166.487 16.4009C166.63 17.9969 166.37 20.1628 164.393 20.4136C166.37 20.6644 166.63 22.8271 166.487 24.423C166.515 24.9895 166.423 25.5554 166.219 26.0845C166.015 26.6135 165.702 27.0941 165.301 27.4952C164.901 27.8964 164.42 28.2093 163.891 28.4139C163.362 28.6185 162.797 28.7102 162.23 28.6832H149.068V12.1439ZM152.765 15.4336V18.7688H161.413C162.533 18.8144 162.882 17.7526 162.764 16.8145C162.775 16.6328 162.748 16.4508 162.685 16.2802C162.621 16.1096 162.522 15.9542 162.395 15.8241C162.268 15.6939 162.114 15.592 161.945 15.5247C161.776 15.4574 161.595 15.4264 161.413 15.4336H152.765ZM152.765 22.0063V25.3415H161.413C162.533 25.3871 162.882 24.3253 162.764 23.3873C162.776 23.2053 162.749 23.0229 162.686 22.8519C162.622 22.6809 162.524 22.5251 162.396 22.3946C162.269 22.2642 162.115 22.1619 161.946 22.0944C161.777 22.027 161.595 21.9958 161.413 22.003L152.765 22.0063Z" fill="#020307"/>
<path d="M172.753 28.6834C170.131 28.7062 168.47 27.0548 168.492 24.4231C168.567 22.5796 168.082 19.277 169.632 18.0133C171.16 16.059 177.332 17.1273 179.492 16.8733C180.81 16.8733 181.85 17.2533 182.612 18.0133C184.156 19.2705 183.683 22.5731 183.749 24.4231C184.117 30.2174 176.248 28.4228 172.753 28.6834ZM178.635 25.5859C179.68 25.5859 180.263 25.0127 180.263 23.9574C180.166 23.1496 180.547 20.9544 179.847 20.3746C179.247 19.5571 174.498 20.1075 173.616 19.9545C173.397 19.9397 173.177 19.9694 172.97 20.0416C172.763 20.1138 172.573 20.2271 172.411 20.3746C171.71 20.9348 172.085 23.1464 171.994 23.9574C171.994 25.0062 172.567 25.5859 173.622 25.5859H178.635Z" fill="#020307"/>
<path d="M189.945 28.6832C187.34 28.706 185.711 27.0873 185.731 24.4914V12.6162H189.245V16.8764H196.707V19.9609H189.245C189.144 27.7452 188.649 25.1233 197 25.5728V28.6832H189.945Z" fill="#020307"/>
<g clip-path="url(#clip1_458_18634)">
<path d="M8.61899 35.8488L8.23412 31.5764C8.18997 31.167 7.86396 30.8303 7.45078 30.7866L3.14809 30.2888C2.02402 30.1568 1.04825 29.4699 0.589792 28.4597C-0.297688 26.4986 -0.237692 24.0408 1.24069 22.6066C2.71906 21.1724 5.20378 21.187 7.15533 22.1088C8.17525 22.5921 8.84086 23.5866 8.945 24.6986L9.29932 28.9855C9.32875 29.4095 9.66948 29.7462 10.0827 29.7899L14.4001 30.2586C15.5241 30.3761 16.5146 31.0775 16.9731 32.0877C17.8606 34.0343 17.8017 36.4921 16.3222 37.9263C14.8438 39.3604 12.3444 39.3459 10.3928 38.4241C9.38761 37.9553 8.722 36.9608 8.61899 35.8488Z" fill="#0554F2"/>
<path d="M29.2033 24.6987L28.8185 28.9711C28.7743 29.3805 28.4483 29.7173 28.0351 29.7609L23.7324 30.2587C22.6084 30.3907 21.6326 31.0776 21.1741 32.0878C20.2866 34.0489 20.3455 36.5067 21.825 37.9409C23.3034 39.3751 25.7881 39.3605 27.7397 38.4387C28.7596 37.9554 29.4252 36.9609 29.5282 35.8489L29.8837 31.562C29.9131 31.138 30.2538 30.8013 30.667 30.7577L34.9844 30.2889C36.1085 30.1715 37.099 29.47 37.5574 28.4598C38.4449 26.5133 38.386 24.0555 36.9065 22.6213C35.4281 21.1871 32.9287 21.2016 30.9772 22.1234C29.9719 22.6067 29.2916 23.5867 29.2033 24.6987Z" fill="#0554F2"/>
<path d="M8.61899 4.16894L8.23412 8.44129C8.18997 8.85074 7.86396 9.18747 7.45078 9.2311L3.14809 9.72893C2.02402 9.84639 1.04825 10.5333 0.589792 11.558C-0.297688 13.5191 -0.237692 15.9769 1.24069 17.4111C2.71906 18.8453 5.20378 18.8308 7.15533 17.9089C8.17525 17.4257 8.84086 16.4311 8.945 15.3191L9.29932 11.0322C9.32875 10.6082 9.66948 10.2715 10.0827 10.2279L14.4001 9.75913C15.5241 9.64167 16.5146 8.94024 16.9731 7.93004C17.8606 5.98349 17.8017 3.52568 16.3222 2.09149C14.8438 0.657303 12.3444 0.671846 10.3928 1.59366C9.38761 2.07695 8.722 3.05694 8.61899 4.16894Z" fill="#0554F2"/>
<path d="M29.2033 15.3195L28.8185 11.0472C28.7743 10.6377 28.4483 10.301 28.0351 10.2573L23.7324 9.75952C22.6084 9.62751 21.6326 8.94062 21.1741 7.93042C20.2866 5.96932 20.3455 3.51152 21.825 2.07733C23.3034 0.643143 25.7881 0.657686 27.7397 1.5795C28.7596 2.06279 29.4252 3.05732 29.5282 4.16932L29.8837 8.45622C29.9131 8.88021 30.2538 9.21694 30.667 9.26057L34.9844 9.72931C36.1085 9.84678 37.099 10.5482 37.5574 11.5584C38.4449 13.505 38.386 15.9628 36.9065 17.397C35.4281 18.8311 32.9287 18.8166 30.9772 17.8948C29.9719 17.4115 29.2916 16.4315 29.2033 15.3195Z" fill="#0554F2"/>
<path d="M24.4594 24.4296C24.3896 24.8785 24.0354 25.2316 23.5813 25.3037C22.8625 25.4169 21.5218 25.5467 19.1405 25.5467C16.7591 25.5467 15.3903 25.4149 14.6767 25.3006C14.2257 25.2285 13.8725 24.8805 13.7996 24.4347C13.6809 23.712 13.5371 22.3508 13.5371 20.0096C13.5371 17.6683 13.6798 16.3195 13.7986 15.5937C13.8715 15.1489 14.2236 14.7999 14.6736 14.7278C15.4038 14.6115 16.7716 14.4714 19.1405 14.4714C21.5093 14.4714 22.8489 14.6084 23.5844 14.7237C24.0375 14.7947 24.3917 15.1489 24.4615 15.5978C24.5834 16.3844 24.7438 17.833 24.7438 20.0096C24.7438 22.1861 24.5823 23.6461 24.4605 24.4306L24.4594 24.4296Z" fill="#0554F2"/>
</g>
</g>
<defs>
<clipPath id="clip0_458_18634">
<rect width="197" height="38.148" fill="white" transform="translate(0 0.935059)"/>
</clipPath>
<clipPath id="clip1_458_18634">
<rect width="38.148" height="38.148" fill="white" transform="translate(0 0.935059)"/>
</clipPath>
</defs>
</svg>
