<svg width="164" height="163" viewBox="0 0 164 163" fill="none" xmlns="http://www.w3.org/2000/svg">
<rect x="0.908203" width="163" height="163" rx="32.6" fill="#E9FC87"/>
<path d="M154.515 31.9777L154.515 31.978C157.689 44.691 155.706 55.5285 149.451 61.1235L149.448 61.1258C147.458 62.9283 145.006 64.1421 142.365 64.6317L142.364 64.632C142.182 64.6661 141.999 64.6971 141.815 64.7249L141.815 64.725C139.478 65.0796 137.01 64.9098 134.453 64.2168L134.078 64.1151L133.858 64.4361L131.542 67.8262C131.477 67.9211 131.393 68.0016 131.296 68.0627C131.198 68.1238 131.089 68.1641 130.975 68.1812C130.862 68.1983 130.746 68.1918 130.635 68.162C130.525 68.1328 130.423 68.0817 130.335 68.012C130.169 67.8722 130.061 67.6757 130.033 67.4607C130.004 67.2438 130.058 67.024 130.184 66.845L130.184 66.8451L130.188 66.839L132.146 63.9738L132.148 63.9704L144.919 44.9795C144.92 44.9789 144.92 44.9783 144.921 44.9777C145.063 44.7688 145.163 44.5339 145.215 44.2864C145.267 44.0382 145.27 43.7822 145.223 43.533C145.176 43.2837 145.08 43.0462 144.942 42.8339C144.803 42.6215 144.624 42.4386 144.414 42.2955C144.205 42.1524 143.97 42.052 143.721 41.9999C143.473 41.9478 143.217 41.9452 142.968 41.992C142.719 42.0389 142.481 42.1344 142.269 42.2731C142.056 42.4118 141.874 42.5909 141.73 42.8003L141.728 42.8037L130.04 60.1878L130.04 60.1884C130.026 60.2087 130.008 60.2252 129.986 60.2364C129.964 60.2476 129.94 60.2532 129.916 60.2525C129.891 60.2518 129.868 60.245 129.846 60.2326C129.825 60.2203 129.808 60.2028 129.795 60.1817L129.795 60.1817L129.791 60.1746C128.822 58.6004 128.116 56.879 127.7 55.078C127.056 52.2764 127.258 49.3465 128.281 46.6598L128.281 46.6598L128.282 46.6568C131.222 38.7963 140.601 33.013 153.596 31.3503L153.597 31.3503C153.8 31.3242 154.006 31.3737 154.175 31.4894C154.344 31.605 154.465 31.7788 154.515 31.9777Z" fill="url(#paint0_linear_4204_10983)" stroke="#242728" stroke-width="1.09382"/>
<path fill-rule="evenodd" clip-rule="evenodd" d="M126.573 95.5361C123.204 97.1454 119.568 98.4113 115.751 99.215C116.351 104.362 119.474 108.892 122.787 108.55C122.801 108.548 122.816 108.546 122.832 108.545C127.177 107.776 128.165 100.755 126.573 95.5361Z" fill="#FF85D0"/>
<path fill-rule="evenodd" clip-rule="evenodd" d="M109.03 111.728C105.869 110.696 101.957 113.806 100.28 118.706C98.6004 123.605 99.7839 128.459 102.917 129.578C102.933 129.584 102.95 129.589 102.968 129.596C109.805 131.491 115.795 115.049 109.374 111.914L109.03 111.728Z" fill="#FF85D0"/>
<path fill-rule="evenodd" clip-rule="evenodd" d="M122.786 108.545C119.473 108.887 116.35 104.357 115.75 99.21C113.659 99.6493 111.512 99.951 109.326 100.092C109.333 100.124 109.339 100.153 109.344 100.185C109.407 100.657 109.134 101.109 108.688 101.278C107.813 101.611 106.937 101.89 106.052 102.104C104.65 104.055 103.076 105.876 101.353 107.542L103.53 108.728C109.918 109.345 116.338 109.251 122.786 108.545Z" fill="#FF85D0"/>
<path fill-rule="evenodd" clip-rule="evenodd" d="M126.662 95.4164C138.029 89.9905 146.332 80.6695 148.17 72.1209C148.285 71.5856 149.409 68.6233 148.325 65.5947C146.569 60.6953 141.938 58.495 138.116 58.8175C136.943 58.9169 134.511 59.419 132.829 62.411C132.815 62.4389 132.809 62.5051 132.811 62.5993L132.93 63.9349C133.036 64.8729 133.169 65.9469 133.132 66.2259C133.131 66.2503 133.125 66.2695 133.12 66.2817C130.598 71.3327 126.362 74.3892 121.327 76.0961C118.908 76.9173 116.304 77.4265 113.616 77.6967C113.459 72.6091 112.347 67.7428 110.455 63.281C111.073 63.0178 112.633 62.2925 113.359 61.391C114.831 59.5673 115.129 56.448 114.607 54.164C111.518 52.8528 108.362 50.8234 105.15 48.2238C104.79 47.9343 104.661 47.4461 104.831 47.0172C105 46.5883 105.428 46.3181 105.887 46.3494C108.226 46.5116 110.526 46.5167 112.781 46.3232L108.659 28.2653C108.004 25.3937 105.73 23.1672 102.841 22.5691C99.9501 21.9728 96.9793 23.1149 95.2355 25.4931L84.4482 40.2104C80.9956 39.227 77.3545 38.6987 73.5912 38.6987C57.4801 38.6987 42.3518 48.0093 35.3348 61.6055L32.4617 62.0588C28.5256 62.676 25.6734 66.137 25.82 70.1158L26.7364 94.7974C26.8551 98.0038 28.8467 100.841 31.8228 102.047C32.6729 102.391 33.5578 102.582 34.4428 102.631C36.595 108.936 39.9343 114.273 44.7641 119.875L44.6471 133.037C44.7256 136.465 49.5398 139.234 55.4588 139.234C61.4268 139.234 66.2705 136.419 66.2705 132.952C67.9165 133.686 70.1333 134.317 72.3658 134.317C77.7542 134.317 82.1302 131.773 82.1302 128.642L82.0325 119.096C88.5415 123.454 95.5602 126.86 103.007 129.464C99.8734 128.345 98.6899 123.491 100.369 118.592C102.046 113.692 105.958 110.582 109.119 111.614L101.443 107.428C103.165 105.761 104.74 103.941 106.142 101.99C102.741 102.814 99.2554 102.741 95.6771 101.728C95.6056 101.707 95.5357 101.686 95.4659 101.662C94.4518 101.318 93.7309 100.642 93.3015 99.8345C92.3537 98.0561 92.8058 95.6361 94.5775 94.6964C95.363 94.2796 96.2863 94.2639 97.0718 94.6213C97.2795 94.7172 97.4785 94.8393 97.6618 94.9857C98.8138 95.9028 99.9815 96.6369 101.165 97.2192C103.565 98.3979 106.025 98.9558 108.514 99.186C108.959 99.2278 109.32 99.5504 109.416 99.9776C111.601 99.8363 113.748 99.5347 115.84 99.0953C119.657 98.2915 123.293 97.0257 126.662 95.4164Z" fill="#FF85D0"/>
<path fill-rule="evenodd" clip-rule="evenodd" d="M114.343 54.2571C114.864 56.542 114.566 59.6606 113.096 61.4848C112.18 62.6205 110.456 63.4788 110.456 63.4788M84.1962 40.2783C87.1834 36.2015 91.2455 30.6587 94.9652 25.5813C96.7085 23.2031 99.6784 22.0618 102.568 22.6592C105.456 23.2573 107.731 25.4838 108.388 28.3571C109.742 34.2872 113.132 48.9691 114.392 54.4871" fill="#FF85D0"/>
<path d="M114.343 54.2571C114.864 56.542 114.566 59.6606 113.096 61.4848C112.18 62.6205 110.456 63.4788 110.456 63.4788M84.1962 40.2783C87.1834 36.2015 91.2455 30.6587 94.9652 25.5813C96.7085 23.2031 99.6784 22.0618 102.568 22.6592C105.456 23.2573 107.731 25.4838 108.388 28.3571C109.742 34.2872 113.132 48.9691 114.392 54.4871" stroke="#242728" stroke-width="1.1084" stroke-miterlimit="1.5" stroke-linejoin="round"/>
<path fill-rule="evenodd" clip-rule="evenodd" d="M108.906 111.713C105.737 110.63 101.793 113.75 100.104 118.677C98.4158 123.603 99.619 128.482 102.788 129.565" fill="#FF85D0"/>
<path d="M108.906 111.713C105.737 110.63 101.793 113.75 100.104 118.677C98.4158 123.603 99.619 128.482 102.788 129.565" stroke="#242728" stroke-width="1.1084" stroke-miterlimit="1.5" stroke-linejoin="round"/>
<path fill-rule="evenodd" clip-rule="evenodd" d="M115.573 99.1855C116.178 104.357 119.326 108.905 122.654 108.517L115.573 99.1855Z" fill="#FF85D0"/>
<path d="M115.573 99.1855C116.178 104.357 119.326 108.905 122.654 108.517" stroke="#242728" stroke-width="1.1084" stroke-miterlimit="1.5" stroke-linejoin="round"/>
<path fill-rule="evenodd" clip-rule="evenodd" d="M95.3409 104.342L109.196 111.9C115.617 115.039 109.631 131.48 102.794 129.582C92.9043 126.127 83.7698 121.259 75.5798 114.622" fill="#FF85D0"/>
<path d="M95.3409 104.342L109.196 111.9C115.617 115.039 109.631 131.48 102.794 129.582C92.9043 126.127 83.7698 121.259 75.5798 114.622" stroke="#242728" stroke-width="1.1084" stroke-miterlimit="1.5" stroke-linejoin="round"/>
<path fill-rule="evenodd" clip-rule="evenodd" d="M126.395 95.5007C127.987 100.718 126.998 107.74 122.654 108.508C116.191 109.22 109.756 109.315 103.353 108.698" fill="#FF85D0"/>
<path d="M126.395 95.5007C127.987 100.718 126.998 107.74 122.654 108.508C116.191 109.22 109.756 109.315 103.353 108.698" stroke="#242728" stroke-width="1.1084" stroke-miterlimit="1.5" stroke-linejoin="round"/>
<path fill-rule="evenodd" clip-rule="evenodd" d="M58.2462 58.0457C58.2462 58.0457 41.86 60.6253 32.201 62.1463C28.2649 62.766 25.4128 66.228 25.5587 70.2063C25.793 76.5898 26.1528 86.3191 26.4688 94.8903C26.5856 98.0958 28.5763 100.933 31.5523 102.137C34.5265 103.342 37.9334 102.689 40.2545 100.47C45.2902 95.653 49.8518 91.288 49.8518 91.288" fill="#FF85D0"/>
<path d="M58.2462 58.0457C58.2462 58.0457 41.86 60.6253 32.201 62.1463C28.2649 62.766 25.4128 66.228 25.5587 70.2063C25.793 76.5898 26.1528 86.3191 26.4688 94.8903C26.5856 98.0958 28.5763 100.933 31.5523 102.137C34.5265 103.342 37.9334 102.689 40.2545 100.47C45.2902 95.653 49.8518 91.288 49.8518 91.288" stroke="#242728" stroke-width="1.1084" stroke-miterlimit="1.5" stroke-linejoin="round"/>
<path fill-rule="evenodd" clip-rule="evenodd" d="M101.138 107.555C101.151 107.544 101.162 107.532 101.175 107.521C102.898 105.854 104.47 104.033 105.873 102.082M34.1347 102.614C36.7945 110.466 41.2871 116.811 48.1904 124.018L34.1347 102.614ZM66.1609 118.165C68.0466 118.586 70.1969 118.867 73.3243 118.791C75.7019 118.733 78.0331 118.583 80.3004 118.185M113.348 77.5368C112.684 56.0405 95.0045 38.793 73.3243 38.793C57.1756 38.793 42.015 48.1435 35.0191 61.7913" fill="#FF85D0"/>
<path d="M101.138 107.555C101.151 107.544 101.162 107.532 101.175 107.521C102.898 105.854 104.47 104.033 105.873 102.082M34.1347 102.614C36.7945 110.466 41.2871 116.811 48.1904 124.018M66.1609 118.165C68.0466 118.586 70.1969 118.867 73.3243 118.791C75.7019 118.733 78.0331 118.583 80.3004 118.185M113.348 77.5368C112.684 56.0405 95.0045 38.793 73.3243 38.793C57.1756 38.793 42.015 48.1435 35.0191 61.7913" stroke="#242728" stroke-width="1.1084" stroke-miterlimit="1.5" stroke-linejoin="round"/>
<path d="M52.7559 59.6895L34.2938 61.8296" stroke="#242728" stroke-width="1.1084" stroke-miterlimit="1.5" stroke-linejoin="round"/>
<path d="M95.8779 33.9385L91.5531 42.8761" stroke="#242728" stroke-width="1.1084" stroke-miterlimit="1.5" stroke-linejoin="round"/>
<path fill-rule="evenodd" clip-rule="evenodd" d="M121.093 76.1676C118.129 77.6376 117.281 80.8682 118.966 83.4511L121.093 76.1676Z" fill="#FF85D0"/>
<path d="M121.093 76.1676C118.129 77.6376 117.281 80.8682 118.966 83.4511" stroke="#242728" stroke-width="1.1084" stroke-miterlimit="1.5" stroke-linejoin="round"/>
<path fill-rule="evenodd" clip-rule="evenodd" d="M59.5032 101.377C59.5032 101.377 62.9389 108.612 64.741 112.403C65.4471 113.89 65.8202 115.513 65.8393 117.158C65.8928 122.186 66.0058 133.049 66.0058 133.049C66.0064 136.517 61.1635 139.331 55.1957 139.329C49.2303 139.327 44.3848 136.511 44.3841 133.043" fill="#FF85D0"/>
<path d="M59.5032 101.377C59.5032 101.377 62.9389 108.612 64.741 112.403C65.4471 113.89 65.8202 115.513 65.8393 117.158C65.8928 122.186 66.0058 133.049 66.0058 133.049C66.0064 136.517 61.1635 139.331 55.1957 139.329C49.2303 139.327 44.3848 136.511 44.3841 133.043" stroke="#242728" stroke-width="1.1084" stroke-miterlimit="1.5" stroke-linejoin="round"/>
<path fill-rule="evenodd" clip-rule="evenodd" d="M81.7705 119.748C81.8169 124.114 81.865 128.732 81.865 128.732C81.8656 131.865 77.491 134.406 72.1004 134.405C69.8698 134.404 67.8104 133.968 66.1641 133.234" fill="#FF85D0"/>
<path d="M81.7705 119.748C81.8169 124.114 81.865 128.732 81.865 128.732C81.8656 131.865 77.491 134.406 72.1004 134.405C69.8698 134.404 67.8104 133.968 66.1641 133.234" stroke="#242728" stroke-width="1.1084" stroke-miterlimit="1.5" stroke-linejoin="round"/>
<path d="M44.4951 120.146L44.3826 133.241" stroke="#242728" stroke-width="1.1084" stroke-miterlimit="1.5" stroke-linejoin="round"/>
<path fill-rule="evenodd" clip-rule="evenodd" d="M94.3102 94.7803C95.305 94.2535 96.5169 94.3675 97.3946 95.0703C100.881 97.8489 104.529 98.9393 108.248 99.2706C108.722 99.3159 109.103 99.6821 109.165 100.154C109.228 100.626 108.956 101.081 108.51 101.249C104.281 102.872 99.9185 103.088 95.4093 101.813C91.9587 100.836 91.6798 96.1802 94.3102 94.7803Z" fill="white" stroke="#242728" stroke-width="1.1084" stroke-miterlimit="1.5" stroke-linejoin="round"/>
<path fill-rule="evenodd" clip-rule="evenodd" d="M96.8051 94.7206C95.0568 93.6787 94.1243 92.5934 92.9568 91.3536L96.8051 94.7206Z" fill="#FF85D0"/>
<path d="M96.8051 94.7206C95.0568 93.6787 94.1243 92.5934 92.9568 91.3536" stroke="#242728" stroke-width="1.1084" stroke-miterlimit="1.5" stroke-linejoin="round"/>
<path fill-rule="evenodd" clip-rule="evenodd" d="M95.1991 101.762C93.2238 101.262 91.1569 100.213 89.6831 99.3578L95.1991 101.762Z" fill="#FF85D0"/>
<path d="M95.1991 101.762C93.2238 101.262 91.1569 100.213 89.6831 99.3578" stroke="#242728" stroke-width="1.1084" stroke-miterlimit="1.5" stroke-linejoin="round"/>
<path fill-rule="evenodd" clip-rule="evenodd" d="M96.1889 82.64C97.2942 79.6407 98.9024 77.4925 102.635 77.8863C103.56 77.957 105.2 78.0211 108.106 78.0277C112.623 78.0376 117.09 77.5286 121.061 76.1814C126.095 74.4733 130.331 71.4182 132.853 66.3657C132.979 66.1124 132.442 62.7551 132.561 62.4966C134.244 59.5045 136.675 59.002 137.85 58.903C141.671 58.5804 146.303 60.7795 148.058 65.6802C149.142 68.7087 148.019 71.6696 147.903 72.205C146.064 80.7549 137.762 90.0748 126.395 95.5022C123.027 97.1101 119.39 98.3764 115.572 99.1797C113.481 99.62 111.335 99.9211 109.15 100.063" fill="#FF85D0"/>
<path d="M96.1889 82.64C97.2942 79.6407 98.9024 77.4925 102.635 77.8863C103.56 77.957 105.2 78.0211 108.106 78.0277C112.623 78.0376 117.09 77.5286 121.061 76.1814C126.095 74.4733 130.331 71.4182 132.853 66.3657C132.979 66.1124 132.442 62.7551 132.561 62.4966C134.244 59.5045 136.675 59.002 137.85 58.903C141.671 58.5804 146.303 60.7795 148.058 65.6802C149.142 68.7087 148.019 71.6696 147.903 72.205C146.064 80.7549 137.762 90.0748 126.395 95.5022C123.027 97.1101 119.39 98.3764 115.572 99.1797C113.481 99.62 111.335 99.9211 109.15 100.063" stroke="#242728" stroke-width="1.1084" stroke-miterlimit="1.5" stroke-linejoin="round"/>
<defs>
<linearGradient id="paint0_linear_4204_10983" x1="139.244" y1="33.397" x2="145.382" y2="66.0289" gradientUnits="userSpaceOnUse">
<stop stop-color="#3CCC8C"/>
<stop offset="1" stop-color="#12D2A4"/>
</linearGradient>
</defs>
</svg>
