<svg width="24" height="24" viewBox="0 0 24 24" fill="none" xmlns="http://www.w3.org/2000/svg">
<path d="M22 10V15C22 20 20 22 15 22H9C4 22 2 20 2 15V9C2 4 4 2 9 2H14" stroke="url(#paint0_linear_655_4023)" stroke-width="1.5" stroke-linecap="round" stroke-linejoin="round"/>
<path d="M22 10H18C15 10 14 9 14 6V2L22 10Z" stroke="url(#paint1_linear_655_4023)" stroke-width="1.5" stroke-linecap="round" stroke-linejoin="round"/>
<path d="M7 13H13" stroke="url(#paint2_linear_655_4023)" stroke-width="1.5" stroke-linecap="round" stroke-linejoin="round"/>
<path d="M7 17H11" stroke="url(#paint3_linear_655_4023)" stroke-width="1.5" stroke-linecap="round" stroke-linejoin="round"/>
<defs>
<linearGradient id="paint0_linear_655_4023" x1="2" y1="22" x2="44.2165" y2="5.30385" gradientUnits="userSpaceOnUse">
<stop stop-color="#F77577"/>
<stop offset="0.452015" stop-color="#DB39CB"/>
<stop offset="0.973958" stop-color="#CA6FE5"/>
</linearGradient>
<linearGradient id="paint1_linear_655_4023" x1="14" y1="10" x2="30.8866" y2="3.32154" gradientUnits="userSpaceOnUse">
<stop stop-color="#F77577"/>
<stop offset="0.452015" stop-color="#DB39CB"/>
<stop offset="0.973958" stop-color="#CA6FE5"/>
</linearGradient>
<linearGradient id="paint2_linear_655_4023" x1="7" y1="14" x2="9.20876" y2="8.75876" gradientUnits="userSpaceOnUse">
<stop stop-color="#F77577"/>
<stop offset="0.452015" stop-color="#DB39CB"/>
<stop offset="0.973958" stop-color="#CA6FE5"/>
</linearGradient>
<linearGradient id="paint3_linear_655_4023" x1="7" y1="18" x2="9.78763" y2="13.5901" gradientUnits="userSpaceOnUse">
<stop stop-color="#F77577"/>
<stop offset="0.452015" stop-color="#DB39CB"/>
<stop offset="0.973958" stop-color="#CA6FE5"/>
</linearGradient>
</defs>
</svg>
