<svg width="164" height="163" viewBox="0 0 164 163" fill="none" xmlns="http://www.w3.org/2000/svg">
<g clip-path="url(#clip0_4204_10917)">
<rect x="0.272461" width="163" height="163" rx="32.6" fill="#5D5FEF"/>
<path fill-rule="evenodd" clip-rule="evenodd" d="M123.43 97.1797C119.665 98.9783 115.601 100.393 111.335 101.291C112.006 107.044 115.496 112.107 119.199 111.725C119.214 111.723 119.232 111.721 119.249 111.719C124.105 110.859 125.209 103.012 123.43 97.1797Z" fill="#FF85D0"/>
<path fill-rule="evenodd" clip-rule="evenodd" d="M103.826 115.284C100.293 114.131 95.9212 117.607 94.0464 123.083C92.1697 128.559 93.4925 133.984 96.9943 135.235C97.0118 135.241 97.0314 135.247 97.0509 135.254C104.692 137.373 111.388 118.997 104.21 115.493L103.826 115.284Z" fill="#FF85D0"/>
<path fill-rule="evenodd" clip-rule="evenodd" d="M119.199 111.727C115.496 112.109 112.006 107.046 111.335 101.294C108.998 101.785 106.599 102.122 104.156 102.28C104.164 102.315 104.17 102.348 104.176 102.383C104.246 102.911 103.941 103.416 103.442 103.605C102.465 103.977 101.485 104.289 100.496 104.529C98.9297 106.709 97.17 108.744 95.2445 110.607L97.6772 111.932C104.817 112.622 111.993 112.516 119.199 111.727Z" fill="#FF85D0"/>
<path fill-rule="evenodd" clip-rule="evenodd" d="M123.532 97.048C136.236 90.9837 145.516 80.5661 147.57 71.0118C147.699 70.4136 148.955 67.1027 147.744 63.7179C145.781 58.2421 140.606 55.7829 136.333 56.1434C135.022 56.2544 132.305 56.8156 130.424 60.1596C130.409 60.1907 130.403 60.2648 130.405 60.37L130.537 61.8627C130.656 62.9111 130.805 64.1115 130.764 64.4233C130.762 64.4506 130.756 64.472 130.75 64.4856C127.931 70.131 123.196 73.547 117.57 75.4547C114.866 76.3726 111.955 76.9416 108.951 77.2437C108.775 71.5574 107.533 66.1186 105.418 61.132C106.109 60.8377 107.853 60.0271 108.664 59.0197C110.309 56.9813 110.642 53.4951 110.059 50.9424C106.606 49.477 103.079 47.2087 99.4892 44.3033C99.0873 43.9798 98.9429 43.4342 99.1322 42.9548C99.3214 42.4754 99.7994 42.1734 100.312 42.2084C102.927 42.3897 105.498 42.3954 108.018 42.1791L103.41 21.9968C102.679 18.7873 100.137 16.2988 96.9082 15.6305C93.6776 14.964 90.3572 16.2404 88.4083 18.8984L76.3519 35.3472C72.4931 34.2481 68.4236 33.6576 64.2176 33.6576C46.2111 33.6576 29.3029 44.0636 21.4604 59.2593L18.2493 59.7659C13.8501 60.4558 10.6623 64.324 10.8262 68.7708L11.8504 96.3562C11.9831 99.9398 14.209 103.11 17.5353 104.459C18.4854 104.843 19.4744 105.057 20.4635 105.112C22.8689 112.158 26.601 118.123 31.999 124.384L31.8682 139.095C31.956 142.926 37.3366 146.02 43.952 146.02C50.622 146.02 56.0356 142.875 56.0356 138.999C57.8753 139.819 60.3529 140.525 62.8481 140.525C68.8704 140.525 73.7612 137.682 73.7612 134.182L73.6519 123.513C80.9267 128.385 88.7712 132.19 97.0936 135.102C93.5918 133.851 92.269 128.426 94.1457 122.95C96.0205 117.474 100.392 113.998 103.926 115.151L95.3456 110.472C97.2711 108.61 99.0308 106.575 100.597 104.394C96.797 105.316 92.9011 105.234 88.9018 104.102C88.8218 104.079 88.7438 104.055 88.6658 104.028C87.5323 103.644 86.7266 102.888 86.2467 101.986C85.1874 99.9983 85.6927 97.2936 87.6728 96.2432C88.5507 95.7775 89.5827 95.7599 90.4606 96.1594C90.6928 96.2666 90.9151 96.403 91.12 96.5666C92.4076 97.5916 93.7127 98.412 95.0353 99.0629C97.7178 100.38 100.467 101.004 103.249 101.261C103.746 101.308 104.15 101.668 104.257 102.146C106.7 101.988 109.099 101.651 111.436 101.16C115.703 100.261 119.767 98.8466 123.532 97.048Z" fill="#FF85D0"/>
<path fill-rule="evenodd" clip-rule="evenodd" d="M109.765 51.0517C110.347 53.6054 110.014 57.0909 108.371 59.1298C107.347 60.399 105.42 61.3583 105.42 61.3583M76.071 35.4284C79.4097 30.872 83.9497 24.677 88.107 19.0023C90.0553 16.3443 93.3746 15.0688 96.6042 15.7364C99.8315 16.4049 102.375 18.8933 103.109 22.1046C104.622 28.7324 108.411 45.1416 109.819 51.3087" fill="#FF85D0"/>
<path d="M109.765 51.0517C110.347 53.6054 110.014 57.0909 108.371 59.1298C107.347 60.399 105.42 61.3583 105.42 61.3583M76.071 35.4284C79.4097 30.872 83.9497 24.677 88.107 19.0023C90.0553 16.3443 93.3746 15.0688 96.6042 15.7364C99.8315 16.4049 102.375 18.8933 103.109 22.1046C104.622 28.7324 108.411 45.1416 109.819 51.3087" stroke="#242728" stroke-width="1.2388" stroke-miterlimit="1.5" stroke-linejoin="round"/>
<path fill-rule="evenodd" clip-rule="evenodd" d="M103.688 115.273C100.146 114.063 95.7369 117.551 93.8499 123.057C91.9629 128.562 93.3077 134.016 96.8492 135.226" fill="#FF85D0"/>
<path d="M103.688 115.273C100.146 114.063 95.7369 117.551 93.8499 123.057C91.9629 128.562 93.3077 134.016 96.8492 135.226" stroke="#242728" stroke-width="1.2388" stroke-miterlimit="1.5" stroke-linejoin="round"/>
<path fill-rule="evenodd" clip-rule="evenodd" d="M111.14 101.267C111.816 107.048 115.334 112.13 119.053 111.697L111.14 101.267Z" fill="#FF85D0"/>
<path d="M111.14 101.267C111.816 107.048 115.334 112.13 119.053 111.697" stroke="#242728" stroke-width="1.2388" stroke-miterlimit="1.5" stroke-linejoin="round"/>
<path fill-rule="evenodd" clip-rule="evenodd" d="M88.5246 107.021L104.009 115.468C111.186 118.976 104.496 137.352 96.8547 135.23C85.8013 131.369 75.5922 125.928 66.4387 118.511" fill="#FF85D0"/>
<path d="M88.5246 107.021L104.009 115.468C111.186 118.976 104.496 137.352 96.8547 135.23C85.8013 131.369 75.5922 125.928 66.4387 118.511" stroke="#242728" stroke-width="1.2388" stroke-miterlimit="1.5" stroke-linejoin="round"/>
<path fill-rule="evenodd" clip-rule="evenodd" d="M123.233 97.1553C125.013 102.986 123.907 110.835 119.052 111.693C111.829 112.489 104.637 112.595 97.4796 111.905" fill="#FF85D0"/>
<path d="M123.233 97.1553C125.013 102.986 123.907 110.835 119.052 111.693C111.829 112.489 104.637 112.595 97.4796 111.905" stroke="#242728" stroke-width="1.2388" stroke-miterlimit="1.5" stroke-linejoin="round"/>
<path fill-rule="evenodd" clip-rule="evenodd" d="M47.0676 55.2881C47.0676 55.2881 28.7536 58.1712 17.9582 59.8711C13.559 60.5637 10.3714 64.433 10.5345 68.8793C10.7964 76.0138 11.1985 86.8878 11.5516 96.4673C11.6822 100.05 13.9071 103.221 17.2332 104.567C20.5573 105.913 24.365 105.183 26.9591 102.704C32.5874 97.3198 37.6855 92.4413 37.6855 92.4413" fill="#FF85D0"/>
<path d="M47.0676 55.2881C47.0676 55.2881 28.7536 58.1712 17.9582 59.8711C13.559 60.5637 10.3714 64.433 10.5345 68.8793C10.7964 76.0138 11.1985 86.8878 11.5516 96.4673C11.6822 100.05 13.9071 103.221 17.2332 104.567C20.5573 105.913 24.365 105.183 26.9591 102.704C32.5874 97.3198 37.6855 92.4413 37.6855 92.4413" stroke="#242728" stroke-width="1.2388" stroke-miterlimit="1.5" stroke-linejoin="round"/>
<path fill-rule="evenodd" clip-rule="evenodd" d="M95.0082 110.619C95.023 110.606 95.0353 110.593 95.0501 110.58C96.9752 108.717 98.7328 106.682 100.3 104.502M20.1222 105.096C23.0949 113.872 28.1161 120.964 35.8315 129.018L20.1222 105.096ZM55.9161 122.476C58.0237 122.947 60.427 123.261 63.9224 123.176C66.5796 123.111 69.1851 122.944 71.7191 122.499M108.654 77.0685C107.912 53.0432 88.1531 33.7666 63.9224 33.7666C45.8738 33.7666 28.9295 44.2172 21.1106 59.4706" fill="#FF85D0"/>
<path d="M95.0082 110.619C95.023 110.606 95.0353 110.593 95.0501 110.58C96.9752 108.717 98.7328 106.682 100.3 104.502M20.1222 105.096C23.0949 113.872 28.1161 120.964 35.8315 129.018M55.9161 122.476C58.0237 122.947 60.427 123.261 63.9224 123.176C66.5796 123.111 69.1851 122.944 71.7191 122.499M108.654 77.0685C107.912 53.0432 88.1531 33.7666 63.9224 33.7666C45.8738 33.7666 28.9295 44.2172 21.1106 59.4706" stroke="#242728" stroke-width="1.2388" stroke-miterlimit="1.5" stroke-linejoin="round"/>
<path d="M40.9268 57.1221L20.2926 59.514" stroke="#242728" stroke-width="1.2388" stroke-miterlimit="1.5" stroke-linejoin="round"/>
<path d="M89.127 28.3467L84.2933 38.3358" stroke="#242728" stroke-width="1.2388" stroke-miterlimit="1.5" stroke-linejoin="round"/>
<path fill-rule="evenodd" clip-rule="evenodd" d="M89.4726 82.7787C90.708 79.4266 92.5054 77.0256 96.6773 77.4658C97.7114 77.5448 99.5438 77.6164 102.792 77.6237C107.84 77.6349 112.833 77.066 117.271 75.5603C122.897 73.6513 127.631 70.2367 130.45 64.5898C130.591 64.3066 129.991 60.5544 130.124 60.2655C132.005 56.9214 134.722 56.3598 136.035 56.2491C140.305 55.8886 145.482 58.3464 147.444 63.8237C148.656 67.2084 147.4 70.5177 147.271 71.1161C145.216 80.6718 135.937 91.0882 123.232 97.1541C119.468 98.9511 115.403 100.366 111.136 101.264C108.799 101.756 106.401 102.093 103.958 102.252" fill="#FF85D0"/>
<path d="M89.4726 82.7787C90.708 79.4266 92.5054 77.0256 96.6773 77.4658C97.7114 77.5448 99.5438 77.6164 102.792 77.6237C107.84 77.6349 112.833 77.066 117.271 75.5603C122.897 73.6513 127.631 70.2367 130.45 64.5898C130.591 64.3066 129.991 60.5544 130.124 60.2655C132.005 56.9214 134.722 56.3598 136.035 56.2491C140.305 55.8886 145.482 58.3464 147.444 63.8237C148.656 67.2084 147.4 70.5177 147.271 71.1161C145.216 80.6718 135.937 91.0882 123.232 97.1541C119.468 98.9511 115.403 100.366 111.136 101.264C108.799 101.756 106.401 102.093 103.958 102.252" stroke="#242728" stroke-width="1.2388" stroke-miterlimit="1.5" stroke-linejoin="round"/>
<path fill-rule="evenodd" clip-rule="evenodd" d="M117.304 75.5457C113.992 77.1886 113.043 80.7993 114.926 83.686L117.304 75.5457Z" fill="#FF85D0"/>
<path d="M117.304 75.5457C113.992 77.1886 113.043 80.7993 114.926 83.686" stroke="#242728" stroke-width="1.2388" stroke-miterlimit="1.5" stroke-linejoin="round"/>
<path fill-rule="evenodd" clip-rule="evenodd" d="M48.4724 103.711C48.4724 103.711 52.3123 111.797 54.3264 116.033C55.1156 117.696 55.5326 119.51 55.5539 121.348C55.6137 126.967 55.74 139.109 55.74 139.109C55.7407 142.984 50.328 146.129 43.6581 146.128C36.991 146.126 31.5753 142.978 31.5746 139.102" fill="#FF85D0"/>
<path d="M48.4724 103.711C48.4724 103.711 52.3123 111.797 54.3264 116.033C55.1156 117.696 55.5326 119.51 55.5539 121.348C55.6137 126.967 55.74 139.109 55.74 139.109C55.7407 142.984 50.328 146.129 43.6581 146.128C36.991 146.126 31.5753 142.978 31.5746 139.102" stroke="#242728" stroke-width="1.2388" stroke-miterlimit="1.5" stroke-linejoin="round"/>
<path fill-rule="evenodd" clip-rule="evenodd" d="M73.3555 124.252C73.4074 129.131 73.4611 134.293 73.4611 134.293C73.4617 137.794 68.5725 140.635 62.5477 140.634C60.0547 140.632 57.753 140.144 55.9131 139.324" fill="#FF85D0"/>
<path d="M73.3555 124.252C73.4074 129.131 73.4611 134.293 73.4611 134.293C73.4617 137.794 68.5725 140.635 62.5477 140.634C60.0547 140.632 57.753 140.144 55.9131 139.324" stroke="#242728" stroke-width="1.2388" stroke-miterlimit="1.5" stroke-linejoin="round"/>
<path d="M31.6982 124.689L31.5725 139.324" stroke="#242728" stroke-width="1.2388" stroke-miterlimit="1.5" stroke-linejoin="round"/>
<path fill-rule="evenodd" clip-rule="evenodd" d="M87.3733 96.3489C88.4852 95.7601 89.8396 95.8875 90.8205 96.6731C94.7172 99.7785 98.7945 100.997 102.95 101.367C103.481 101.418 103.907 101.827 103.975 102.355C104.046 102.883 103.742 103.391 103.244 103.579C98.5175 105.393 93.6414 105.634 88.6017 104.209C84.7451 103.117 84.4334 97.9134 87.3733 96.3489Z" fill="white" stroke="#242728" stroke-width="1.2388" stroke-miterlimit="1.5" stroke-linejoin="round"/>
<path fill-rule="evenodd" clip-rule="evenodd" d="M90.1581 96.2678C88.2041 95.1033 87.162 93.8903 85.8571 92.5046L90.1581 96.2678Z" fill="#FF85D0"/>
<path d="M90.1581 96.2678C88.2041 95.1033 87.162 93.8903 85.8571 92.5046" stroke="#242728" stroke-width="1.2388" stroke-miterlimit="1.5" stroke-linejoin="round"/>
<path fill-rule="evenodd" clip-rule="evenodd" d="M88.3685 104.138C86.1609 103.579 83.8508 102.406 82.2037 101.451L88.3685 104.138Z" fill="#FF85D0"/>
<path d="M88.3685 104.138C86.1609 103.579 83.8508 102.406 82.2037 101.451" stroke="#242728" stroke-width="1.2388" stroke-miterlimit="1.5" stroke-linejoin="round"/>
<path d="M133.85 37.6264C133.85 45.0467 135.659 52.0957 141.071 52.0957C146.484 52.0957 153.451 45.0467 153.451 37.6264C153.451 30.206 153.19 23.6738 147.777 23.6738C142.364 23.6738 133.85 30.206 133.85 37.6264Z" fill="white" fill-opacity="0.25"/>
<path d="M139.077 51.2382C134.388 49.6486 132.663 42.2414 135.221 34.6927C137.779 27.144 143.655 22.3137 148.344 23.9015C148.645 24.0036 148.934 24.1319 149.212 24.2814C148.991 23.9753 148.757 23.6869 148.506 23.423L148.794 22.5688L145.872 21.7091C145.71 21.6549 145.547 21.6065 145.383 21.5656L145.257 21.529L145.253 21.5386C140.221 20.3913 134.166 25.5941 131.468 33.5504C128.825 41.3465 130.349 49.0052 134.824 51.3357L134.805 51.3904L135.179 51.506C135.348 51.5804 135.521 51.6498 135.699 51.7096C135.978 51.8028 136.261 51.8741 136.546 51.9274L138.624 52.5701L138.833 51.9508C139.369 51.8659 139.912 51.7197 140.452 51.5192C139.985 51.4815 139.525 51.3888 139.076 51.2364L139.077 51.2382Z" fill="#263238" stroke="#263238" stroke-width="1.23488" stroke-linecap="round" stroke-linejoin="round"/>
<path d="M148.797 22.5697C143.652 20.8243 137.204 26.1276 134.395 34.4118C131.587 42.6978 133.482 50.8274 138.626 52.571C143.771 54.3165 150.219 49.0131 153.028 40.7289C155.836 32.4429 153.941 24.3133 148.797 22.5697ZM152.202 40.4479C149.644 47.9966 143.768 52.8269 139.08 51.2391C134.39 49.6495 132.665 42.2423 135.224 34.6936C137.782 27.1449 143.658 22.3146 148.346 23.9024C153.036 25.492 154.76 32.8991 152.202 40.4479Z" fill="#263238" stroke="#263238" stroke-width="1.23488" stroke-linecap="round" stroke-linejoin="round"/>
<path d="M132.479 49.1462C132.479 49.1462 132.423 50.4176 132.237 51.6536C132.048 52.8908 131.609 53.5943 131.609 53.5943L133.931 54.3961C133.931 54.3961 135.077 51.9866 134.615 50.1132L132.48 49.148L132.479 49.1462Z" fill="#969696" stroke="#263238" stroke-width="1.23488" stroke-linecap="round" stroke-linejoin="round"/>
<path d="M133.933 54.4012L136.082 55.9779C136.082 55.9779 136.889 54.8372 137.612 54.1362C138.336 53.4371 139.09 52.8884 139.09 52.8884L134.616 50.1164C134.616 50.1164 135.132 51.7912 133.932 54.3994L133.933 54.4012Z" fill="white" stroke="#263238" stroke-width="1.23488" stroke-linecap="round" stroke-linejoin="round"/>
<path d="M131.608 53.5996L133.704 55.2923L136.082 55.9771L133.932 54.4004L131.608 53.5996Z" fill="#969696" stroke="#263238" stroke-width="1.23488" stroke-linecap="round" stroke-linejoin="round"/>
<path d="M130.73 56.0979L134.506 58.1228L135.148 55.7501L132.415 54.321L130.73 56.0979Z" fill="white" stroke="#263238" stroke-width="1.23488" stroke-linecap="round" stroke-linejoin="round"/>
<path d="M130.729 56.0971L122.095 72.6835L125.524 71.7035L134.505 58.122L130.729 56.0971Z" fill="#263238" stroke="#263238" stroke-width="1.23488" stroke-linecap="round" stroke-linejoin="round"/>
</g>
<defs>
<clipPath id="clip0_4204_10917">
<rect x="0.272461" width="163" height="163" rx="32.6" fill="white"/>
</clipPath>
</defs>
</svg>
