<?xml version="1.0" encoding="UTF-8"?>
<svg version="1.1" xmlns="http://www.w3.org/2000/svg" width="594" height="130">
<path d="M0 0 C4.41792015 1.42956466 7.46701214 3.81789066 10.8125 6.9375 C11.33513428 7.42259033 11.85776855 7.90768066 12.39624023 8.4074707 C20.87000663 16.48783549 27.88316315 25.38116635 28.4375 37.375 C28.04284868 49.29675863 21.07726402 58.21012716 13.64453125 66.98828125 C3.58871099 78.8729193 -4.56571631 89.09987435 -4.3984375 105.359375 C-3.40576477 114.42967874 2.80599145 120.23986009 9.2421875 126.1875 C11 128 11 128 11 130 C-3.20368001 127.33105797 -19.40127067 119.42675619 -27.83203125 107.3828125 C-32.50275358 99.83527524 -33.92598554 93.90035514 -33 85 C-30.54504271 76.84475162 -24.83699072 70.96017397 -19 65 C-18.2059375 64.17886719 -17.411875 63.35773437 -16.59375 62.51171875 C-13.65853557 59.52269206 -10.79665258 56.62071997 -7.48828125 54.04296875 C-0.780678 48.53578429 6.33815816 39.72466968 8 31 C8.80921607 20.58631775 7.97055398 11.51465831 1.75 2.875 C1.1725 2.25625 0.595 1.6375 0 1 C0 0.67 0 0.34 0 0 Z " fill="#22C45E" transform="translate(33,0)"/>
<path d="M0 0 C9.38974131 5.60377575 15.45433913 13.03200457 18.5625 23.5859375 C20.98567518 35.3512912 18.17979014 45.5988171 11.68359375 55.6015625 C5.29382584 63.24397798 -3.1384283 67.867481 -13.03125 69.04296875 C-24.42956791 69.40169754 -33.51529822 66.95103666 -42.3125 59.5859375 C-45.64656122 56.28437201 -48.07014829 52.705303 -50.31640625 48.6015625 C-50.65671875 48.01117188 -50.99703125 47.42078125 -51.34765625 46.8125 C-54.95053152 39.23978994 -54.48548897 29.15319122 -52.4375 21.1796875 C-48.29197018 10.39857364 -41.66141643 3.62217022 -31.31640625 -1.3984375 C-21.27592439 -5.42847919 -9.64644253 -4.68578891 0 0 Z M-34.62890625 16.9140625 C-39.42116509 23.06434564 -41.26247339 28.89977651 -40.31640625 36.6015625 C-38.93050997 43.21890509 -35.26968643 48.10328092 -30.31640625 52.6015625 C-24.38512722 56.32314934 -18.1213262 56.39093321 -11.31640625 55.6015625 C-4.66985641 53.81037365 -0.14894187 49.16391826 3.68359375 43.6015625 C6.74264683 37.30052293 6.721585 30.00311811 4.62109375 23.3515625 C2.11242376 17.61577712 -2.24337961 13.86163752 -7.50390625 10.6640625 C-17.88625312 7.77062157 -27.18735644 8.83570525 -34.62890625 16.9140625 Z " fill="#111111" transform="translate(177.31640625,33.3984375)"/>
<path d="M0 0 C1.40172356 1.14686473 2.73599944 2.37551098 4.05078125 3.62109375 C3.54779337 8.02223772 1.96305394 10.33304394 -0.94921875 13.62109375 C-4.36765433 13.20673792 -6.19328851 12.46316626 -9.13671875 10.55859375 C-13.54723774 7.91808567 -17.94364882 7.76945164 -22.94921875 8.62109375 C-25.77055245 10.02197124 -25.77055245 10.02197124 -26.94921875 12.62109375 C-27.27216352 15.68606024 -27.27216352 15.68606024 -25.94921875 18.62109375 C-21.39991581 22.66491859 -15.5099504 24.68673928 -10.01171875 27.1796875 C-3.65445284 30.17181903 2.19195653 33.9034443 5.42578125 40.37109375 C6.57857391 46.36561557 5.98648633 51.50268601 2.98828125 56.87109375 C-0.16942351 61.46996027 -4.51661303 64.49848056 -9.8125 66.23046875 C-18.59205148 67.83550558 -27.20374892 67.18421434 -34.94921875 62.62109375 C-37.795068 60.45304873 -40.41333799 58.14280758 -42.94921875 55.62109375 C-41.22767087 51.85621333 -38.95687761 49.47045478 -35.94921875 46.62109375 C-32.90094471 47.72955704 -30.52785516 48.90762099 -27.82421875 50.74609375 C-23.20056548 53.46947634 -18.15865008 53.30717506 -12.94921875 52.62109375 C-9.84402606 51.44527432 -9.84402606 51.44527432 -8.07421875 48.80859375 C-7.89651947 45.69885633 -8.34050378 44.33478466 -9.94921875 41.62109375 C-12.67619116 39.94868968 -15.60068951 38.84489746 -18.57421875 37.68359375 C-27.1743412 34.09781154 -34.57516849 30.57468814 -39.94921875 22.62109375 C-41.83533335 16.96274996 -41.86068944 10.88454436 -39.44921875 5.37109375 C-36.74445221 0.60877266 -32.29238003 -3.2318802 -27.08203125 -5.01953125 C-17.38670818 -6.65317543 -8.1395948 -5.75807007 0 0 Z " fill="#111111" transform="translate(303.94921875,35.37890625)"/>
<path d="M0 0 C2.19294441 1.5513214 4.04281575 3.14582545 6 5 C5.49701212 9.40114397 3.91227269 11.71195019 1 15 C-2.41843558 14.58564417 -4.24406976 13.84207251 -7.1875 11.9375 C-11.59801899 9.29699192 -15.99443007 9.14835789 -21 10 C-23.8213337 11.40087749 -23.8213337 11.40087749 -25 14 C-25.32294477 17.06496649 -25.32294477 17.06496649 -24 20 C-19.45069706 24.04382484 -13.56073165 26.06564553 -8.0625 28.55859375 C-1.70523409 31.55072528 4.14117528 35.28235055 7.375 41.75 C8.52779266 47.74452182 7.93570508 52.88159226 4.9375 58.25 C1.77979524 62.84886652 -2.56739428 65.87738681 -7.86328125 67.609375 C-16.64283273 69.21441183 -25.25453017 68.56312059 -33 64 C-35.84584925 61.83195498 -38.46411924 59.52171383 -41 57 C-39.27845212 53.23511958 -37.00765886 50.84936103 -34 48 C-30.95172596 49.10846329 -28.57863641 50.28652724 -25.875 52.125 C-21.25134673 54.84838259 -16.20943133 54.68608131 -11 54 C-7.89480731 52.82418057 -7.89480731 52.82418057 -6.125 50.1875 C-5.94730072 47.07776258 -6.39128503 45.71369091 -8 43 C-10.72697241 41.32759593 -13.65147076 40.22380371 -16.625 39.0625 C-25.22512245 35.47671779 -32.62594974 31.95359439 -38 24 C-39.92570993 18.22287021 -39.90187619 12.1900706 -37.3125 6.625 C-34.48302908 1.70805228 -30.50175882 -1.36913214 -25.20703125 -3.45703125 C-16.46641853 -5.60737668 -7.78915043 -4.39280015 0 0 Z " fill="#111111" transform="translate(246,34)"/>
<path d="M0 0 C4.47546458 0.77269761 6.31581716 3.87974717 9.078125 7.30078125 C9.65167725 7.98712646 10.22522949 8.67347168 10.81616211 9.38061523 C12.50192318 11.40461505 14.16749949 13.44363933 15.828125 15.48828125 C16.62863281 16.4628125 17.42914063 17.43734375 18.25390625 18.44140625 C19.68285788 20.18645139 21.10731836 21.93518348 22.52734375 23.6875 C25.2087149 26.95157999 27.94878312 30.16076191 30.703125 33.36328125 C31.20513428 33.94706543 31.70714355 34.53084961 32.22436523 35.13232422 C33.24397605 36.31787266 34.26358869 37.50341952 35.28320312 38.68896484 C37.84877831 41.67700041 40.40362762 44.67402225 42.953125 47.67578125 C43.41444824 48.21638184 43.87577148 48.75698242 44.35107422 49.31396484 C46.32676247 51.64359649 48.13078881 53.94227696 49.828125 56.48828125 C49.83843246 55.81620636 49.84873993 55.14413147 49.85935974 54.45169067 C49.96727523 47.47664361 50.0818851 40.50172966 50.20043945 33.52685547 C50.24383637 30.92141496 50.28550786 28.31594514 50.32543945 25.71044922 C50.38302692 21.97224069 50.4467544 18.23418043 50.51171875 14.49609375 C50.52843124 13.32523224 50.54514374 12.15437073 50.56236267 10.94802856 C50.58230789 9.86705902 50.60225311 8.78608948 50.62280273 7.67236328 C50.63834702 6.71750031 50.6538913 5.76263733 50.66990662 4.77883911 C50.828125 2.48828125 50.828125 2.48828125 51.828125 0.48828125 C54.138125 0.48828125 56.448125 0.48828125 58.828125 0.48828125 C58.828125 24.24828125 58.828125 48.00828125 58.828125 72.48828125 C51.57094041 71.45154059 50.17102569 70.52958214 46.078125 65.23828125 C45.0326107 63.95307732 43.98703647 62.66792213 42.94140625 61.3828125 C42.42143066 60.73006348 41.90145508 60.07731445 41.36572266 59.40478516 C39.05774266 56.52805557 36.66036498 53.73026107 34.265625 50.92578125 C33.35737223 49.85215486 32.44981984 48.77793559 31.54296875 47.703125 C28.35663049 43.92931638 25.16572122 40.15938312 21.97485352 36.3894043 C19.55739686 33.5328843 17.14115098 30.67535131 14.7265625 27.81640625 C13.96762695 26.91825195 13.96762695 26.91825195 13.19335938 26.00195312 C12.21773379 24.84731367 11.24245964 23.69237713 10.26757812 22.53710938 C8.11751884 19.94969698 8.11751884 19.94969698 5.828125 17.48828125 C5.498125 35.63828125 5.168125 53.78828125 4.828125 72.48828125 C2.188125 72.48828125 -0.451875 72.48828125 -3.171875 72.48828125 C-3.19500024 63.24830573 -3.21279101 54.00834011 -3.22368717 44.76834202 C-3.22891561 40.4782821 -3.23601253 36.18824192 -3.24731445 31.89819336 C-3.25814475 27.76148725 -3.26415214 23.62480017 -3.26675224 19.48808098 C-3.26860624 17.90635821 -3.27222636 16.32463654 -3.27760506 14.74292183 C-3.2848174 12.53505287 -3.28586586 10.32726352 -3.28540039 8.11938477 C-3.287621 6.860298 -3.28984161 5.60121124 -3.29212952 4.30397034 C-3.13844708 0.70558612 -3.13844708 0.70558612 0 0 Z " fill="#111111" transform="translate(472.171875,29.51171875)"/>
<path d="M0 0 C37.48648649 0 37.48648649 0 46 7 C51.51666095 14.36548787 52.98225979 20.82480057 52 30 C49.56087935 37.63276547 45.61195086 42.45129032 38.625 46.3125 C38.08875 46.539375 37.5525 46.76625 37 47 C38.43128405 50.03942959 40.11225507 52.72672058 42.0390625 55.4765625 C42.90917969 56.72953125 42.90917969 56.72953125 43.796875 58.0078125 C45.02185497 59.76152314 46.24843447 61.51411751 47.4765625 63.265625 C48.3428125 64.51472656 48.3428125 64.51472656 49.2265625 65.7890625 C49.75846191 66.54912598 50.29036133 67.30918945 50.83837891 68.09228516 C52 70 52 70 52 72 C48.875 72.4375 48.875 72.4375 45 72 C41.38846543 68.98069027 38.89073643 64.99506253 36.74609375 60.8515625 C32.6859912 52.85797396 32.6859912 52.85797396 25.44433594 48.17480469 C19.13332954 47.20907901 13.48892874 47.66935395 7 48 C7 55.92 7 63.84 7 72 C4.69 72 2.38 72 0 72 C0 48.24 0 24.48 0 0 Z M7 8 C7 18.56 7 29.12 7 40 C11.16625 40.061875 15.3325 40.12375 19.625 40.1875 C20.92775879 40.21481201 22.23051758 40.24212402 23.57275391 40.27026367 C30.82251835 40.32245659 35.77627146 40.04463251 41.25 34.875 C44.02190793 30.32115126 45.41673969 25.95070861 44.66015625 20.59375 C43.08329746 14.99543479 40.80944139 12.20629426 36 9 C32.76248322 7.92082774 30.42248229 7.88574399 27.01953125 7.90234375 C25.97128174 7.90484131 24.92303223 7.90733887 23.84301758 7.90991211 C22.51294678 7.91901611 21.18287598 7.92812012 19.8125 7.9375 C15.584375 7.958125 11.35625 7.97875 7 8 Z " fill="#111111" transform="translate(328,30)"/>
<path d="M0 0 C2.24755859 0.03857422 2.24755859 0.03857422 5 1 C6.61226024 3.47900888 7.82441912 5.71592284 9.0390625 8.3828125 C9.40207458 9.14103302 9.76508667 9.89925354 10.13909912 10.68045044 C11.31848463 13.15412609 12.47172005 15.63906086 13.625 18.125 C14.42880219 19.82339633 15.23430932 21.52098679 16.04150391 23.21777344 C17.64066207 26.58579831 19.23007807 29.95812654 20.81054688 33.33496094 C23.16868837 38.36983573 25.57784758 43.37876974 27.99365234 48.38623047 C30.81150319 54.22811637 33.60452549 60.07980278 36.2890625 65.984375 C36.6185791 66.70850586 36.9480957 67.43263672 37.28759766 68.17871094 C38 70 38 70 38 72 C35.36 72 32.72 72 30 72 C28.99515796 70.04414675 27.99626195 68.08523763 27 66.125 C26.443125 65.03445312 25.88625 63.94390625 25.3125 62.8203125 C24 60 24 60 24 58 C9.81 58.33 -4.38 58.66 -19 59 C-20.98 63.29 -22.96 67.58 -25 72 C-27.64 72 -30.28 72 -33 72 C-32.37108969 66.9904899 -30.17735067 62.91352274 -27.94921875 58.45703125 C-27.33331627 57.20643417 -27.33331627 57.20643417 -26.70497131 55.93057251 C-25.82561188 54.14579824 -24.94377444 52.36224312 -24.05969238 50.57980347 C-21.76530485 45.95270696 -19.48972683 41.31639721 -17.21484375 36.6796875 C-16.76489044 35.76325974 -16.31493713 34.84683197 -15.85134888 33.90263367 C-10.36188789 22.69609685 -5.13678195 11.37224671 0 0 Z M2 13 C-0.26778143 17.60453756 -2.52787302 22.21273961 -4.78100586 26.82446289 C-5.54812215 28.39189346 -6.31730803 29.95831295 -7.08862305 31.52368164 C-8.19869497 33.77746403 -9.3012058 36.03481065 -10.40234375 38.29296875 C-10.74716293 38.98899704 -11.09198212 39.68502533 -11.44725037 40.40214539 C-13.21316925 44.04312967 -14.19410877 46.97054386 -15 51 C-3.45 51 8.1 51 20 51 C18.53243588 46.59730763 17.04616403 42.81024479 15.03125 38.68359375 C14.46019531 37.50732422 13.88914062 36.33105469 13.30078125 35.11914062 C12.70076609 33.89180715 12.10050346 32.66459463 11.5 31.4375 C10.32067258 29.02061071 9.14428677 26.60233364 7.96875 24.18359375 C7.44732422 23.11681396 6.92589844 22.05003418 6.38867188 20.95092773 C5.1554441 18.33031871 4.04110037 15.70168043 3 13 C2.67 13 2.34 13 2 13 Z " fill="#111111" transform="translate(421,30)"/>
<path d="M0 0 C2.33294775 -0.04241723 4.66702567 -0.04092937 7 0 C8.91219585 1.91219585 8.24435298 5.33645504 8.31640625 7.87890625 C8.33718735 8.5655687 8.35796844 9.25223114 8.37937927 9.95970154 C8.44494143 12.16052935 8.50379015 14.36147975 8.5625 16.5625 C8.60567892 18.05144514 8.649293 19.54037773 8.69335938 21.02929688 C8.8006293 24.68606553 8.90187772 28.34297318 9 32 C9.38535416 31.59910156 9.77070831 31.19820312 10.16773987 30.78515625 C14.18623135 26.61165953 18.2292686 22.46312585 22.28735352 18.328125 C23.79800877 16.78229299 25.30231877 15.2302333 26.80004883 13.671875 C28.95572187 11.43117541 31.13332012 9.21395939 33.31640625 7 C33.98023819 6.30003906 34.64407013 5.60007812 35.32801819 4.87890625 C40.62255322 -0.42000178 40.62255322 -0.42000178 44.98022461 -0.4375 C45.97675049 -0.293125 46.97327637 -0.14875 48 0 C48 4 48 4 46.86108398 5.61993408 C46.32813721 6.14399841 45.79519043 6.66806274 45.24609375 7.20800781 C44.64547119 7.80832825 44.04484863 8.40864868 43.42602539 9.02716064 C42.44170532 9.980513 42.44170532 9.980513 41.4375 10.953125 C40.77161865 11.61334656 40.1057373 12.27356812 39.41967773 12.95379639 C37.28897852 15.06209018 35.14479947 17.15606155 33 19.25 C31.55377846 20.67616209 30.10845416 22.10323466 28.6640625 23.53125 C25.11970314 27.03148655 21.56319074 30.51893954 18 34 C19.52268757 37.19592247 21.11205472 39.35843813 23.6328125 41.86328125 C24.35726562 42.58580078 25.08171875 43.30832031 25.828125 44.05273438 C26.58609375 44.79845703 27.3440625 45.54417969 28.125 46.3125 C28.85976563 47.04662109 29.59453125 47.78074219 30.3515625 48.53710938 C34.53374912 52.68616248 38.81711563 56.66191592 43.27685547 60.51049805 C45.23759342 62.20537793 47.14170324 63.94332259 49 65.75 C49.5775 66.30171875 50.155 66.8534375 50.75 67.421875 C52 69 52 69 52 72 C44.86999936 72.56490369 44.86999936 72.56490369 41.1484375 70.1484375 C39.77558594 68.77558594 39.77558594 68.77558594 38.375 67.375 C37.85719971 66.86807617 37.33939941 66.36115234 36.8059082 65.83886719 C35.59093485 64.64187949 34.38610979 63.43454497 33.18896484 62.21972656 C30.56818467 59.56211633 27.91930463 56.9333098 25.26953125 54.3046875 C19.82052226 48.894686 14.41339005 43.44660104 9 38 C8.67 49.22 8.34 60.44 8 72 C5.69 72 3.38 72 1 72 C0 71 0 71 -0.12025452 68.18431091 C-0.11803391 66.92522415 -0.11581329 65.66613739 -0.11352539 64.36889648 C-0.11367142 63.67624695 -0.11381744 62.98359741 -0.1139679 62.2699585 C-0.11326874 59.97030554 -0.10547628 57.67073263 -0.09765625 55.37109375 C-0.09579208 53.78068588 -0.09436817 52.19027743 -0.09336853 50.59986877 C-0.08954329 46.4060407 -0.07971295 42.21224705 -0.06866455 38.01843262 C-0.05845057 33.74211086 -0.05387094 29.46578356 -0.04882812 25.18945312 C-0.03809069 16.79295292 -0.02101419 8.39648074 0 0 Z " fill="#101010" transform="translate(542,30)"/>
<path d="M0 0 C4.73277812 2.96295773 5.65936043 6.43966323 7.23828125 11.61328125 C9.75875542 22.81969718 7.9925049 33.87837588 2.5625 43.9375 C-0.52958134 48.8197337 -4.45416936 52.61538126 -8.59301758 56.59375 C-15.06488491 62.86753004 -20.68522574 70.07138649 -21.625 79.3125 C-21.810625 81.1378125 -21.810625 81.1378125 -22 83 C-24.39550925 82.33916986 -25.69084131 81.54070432 -26.93359375 79.3671875 C-30.27927778 71.20307815 -29.43082177 64.74829264 -26.24609375 56.71484375 C-22.77731807 49.15747982 -17.50263043 43.18827352 -12.11914062 36.95336914 C-5.24852994 28.90349212 1.35814603 20.38942558 1.1875 9.375 C1.18105469 8.45460938 1.17460938 7.53421875 1.16796875 6.5859375 C1.01646043 4.25341413 0.65612519 2.23607465 0 0 Z " fill="#22C45E" transform="translate(69,35)"/>
<path d="M0 0 C4.45407803 4.06730935 6.12313674 9.47497909 6.5625 15.375 C6.30075197 21.22406166 3.70711542 25.58438182 0 30 C-3.46284467 32.99563547 -7.17890943 35.48625746 -11 38 C-13.00870659 39.40429423 -15.00900612 40.82070373 -17 42.25 C-17.886875 42.87390625 -18.77375 43.4978125 -19.6875 44.140625 C-21.91227069 45.92946089 -23.31127452 47.72826215 -25 50 C-25.66 50 -26.32 50 -27 50 C-26.33756166 38.75991723 -20.95989322 33.71256701 -13.1015625 26.24609375 C-4.53357609 18.03397533 -0.75448268 11.88310224 0 0 Z " fill="#22C45E" transform="translate(78,78)"/>
<path d="" fill="#24C360" transform="translate(0,0)"/>
</svg>
