<?xml version="1.0" encoding="UTF-8"?>
<svg id="Layer_1" data-name="Layer 1" xmlns="http://www.w3.org/2000/svg" version="1.1" viewBox="0 0 326.1 97.6">
  <defs>
    <style>
      .cls-1 {
        fill: #fff;
        stroke-width: 0px;
      }
    </style>
  </defs>
  <g>
    <path class="cls-1" d="M242.5,79.1c0-3.9,0-7.8,0-11.7.1-3.5,2.5-4.7,5.4-2.7.9.6,1.3.2,2,0,5-1.8,9.7-1.5,13.7,2.2,1.1,1,1.6.4,2.4-.2,7.4-5.4,16.5-3.2,20.1,4.8.7,1.6.9,3.2,1,4.8,0,4.9,0,9.8,0,14.7,0,2.1-.9,3.5-2.9,3.5-2.1,0-3.1-1.3-3.1-3.4,0-5,0-10,0-14.9,0-3.3-2.1-5.6-5.1-6.3-3.2-.7-5.9.6-7.5,3.5-.6,1.1-.6,2.2-.6,3.4,0,4.7,0,9.5,0,14.2,0,3-2.3,4.4-4.6,3.1-1.2-.7-1.4-1.7-1.4-2.9,0-4.6,0-9.1,0-13.7,0-4.2-1.8-6.7-4.9-7.5-4.5-1.1-8.4,1.9-8.5,6.9-.1,4.6,0,9.3,0,13.9,0,2.2-.7,3.6-3,3.8-1.8.1-3-1.3-3-3.8,0-3.9,0-7.8,0-11.7h0Z"/>
    <path class="cls-1" d="M190.2,82.7c-2.6,0-5.2,0-7.7,0-2.2,0-3.9-1.5-3.6-3.2.2-2.2,1.7-2.8,3.7-2.7,3.6,0,7.2,0,10.7,0,1.4,0,1.8-.4,1.2-1.8-2.1-4.6-7.6-6.9-12.4-5-4.5,1.7-7.1,7.3-5.6,12,1.5,4.7,6.6,7.5,11.5,6.2.8-.2,1.6-.6,2.3-.9,1.8-.8,3.4-.5,4.3,1.2,1,1.9.1,3.4-1.7,4.3-5.3,2.5-11.9,2.6-17.1-1.7-5.7-4.7-7.5-12.1-4.6-18.7,2.8-6.2,10-10.1,16.8-9.2,6.5.9,12.2,6.7,13.2,13.5.7,4.5-.5,5.9-5.1,5.9-2,0-4,0-6,0Z"/>
    <path class="cls-1" d="M111.6,93.6c-1.7.4-3.3.8-5,1.1-.5,0-1,0-1.5,0-.7,0-1.3,0-2-.1-.4-.4-1-.4-1.5-.4-.7-.2-1.3-.5-2-.7-.4-.5-.9-.8-1.5-.9-1.2-1-2.3-2-3.5-3-.5-.7-1-1.3-1.5-2-.2-1.3-.3-2.6.5-3.7.3-.2.6-.4,1-.6,1,0,1.9,0,2.9,0,.7.8,1.4,1.6,2.1,2.4,2.7,3.3,9.2,4.1,12.2-.5.8-1.4.7-1.4-1.3-1.6-.8-.5-1.6-.5-2.5-.6-.3,0-.6-.1-.9-.2-2.3-.9-4.7-1.2-7.1-1.8,0-.2-.2-.2-.4-.1-.4,0-.7-.2-1.1-.2-1.1-.5-2.2-.9-3.2-1.4-1.3-1.3-2.1-2.8-2.7-4.5,0-.3,0-.6,0-1,0-.5.2-.9.3-1.4.2-.6.5-1.3.7-1.9.5-.4.9-1,1.1-1.6,1.6-1.3,3.3-2.7,4.9-4,.4,0,.8,0,1-.4.4,0,.8,0,1.1-.3.5-.1,1-.3,1.5-.4.6-.1,1.3-.2,1.9-.3,4.9.1,9.1,1.6,12.2,5.6,1.6,2.1,1.9,4.1.5,5.3-1.6,1.4-3.5.9-5.3-1.3-3.4-4.2-9.4-4.3-12.5-.4-1.1,1.3-.9,1.9.8,2.2,4.2.9,8.4,1.9,12.6,3,5.5,1.5,7.2,7.1,3.5,11.5-1,1.2-2.3,2.1-3.5,3.2-.6.4-1.3.8-1.9,1.2Z"/>
    <path class="cls-1" d="M237.3,84.7c0,2.2,0,4.3,0,6.5,0,1.6-.4,2.8-2.2,3.1-1.8.2-3.1-.5-3.7-2.2-.4-1.1-.3-2.3-.3-3.5,0-3.2,0-6.5,0-9.7,0-5.7-4.2-9.7-9.8-9.6-5.4.1-9.5,4.5-9.3,10.2.1,5.2,4.7,9.3,10.2,9.1,1,0,2-.3,3-.4,2.2-.2,3.3,1.1,2.8,3.2-.6,2.2-2.2,3-4.2,3.3-8.1,1-15.5-4.2-17.3-12.1-1.8-7.5,2.3-15.4,9.3-18.1,8-3,16.2,0,20,7.4,1,2,1.6,4.2,1.7,6.5,0,2.2,0,4.3,0,6.5,0,0,0,0,0,0Z"/>
    <path class="cls-1" d="M125.4,71c0-4.8,0-9.6,0-14.4,0-1.9.3-3.8,2.8-3.9,2.2-.1,3.2,1.3,3.2,4,0,.7,0,1.3,0,2,0,1.6-.5,3.4.2,4.7.8,1.5,2.9.3,4.4.5,1.8.3,2.7,1.4,2.6,3.1,0,1.7-1.2,2.6-2.9,2.9-1.4.2-3.3-.9-4.1.6-.6,1.1-.2,2.8-.2,4.2,0,3.3,0,6.6,0,10,0,3.4.8,4,4.1,4.2,2.7.2,3.9,1.2,3.9,3.1,0,2-1.3,2.8-4.1,2.8-6,0-9.8-3.7-9.8-9.7,0-4.6,0-9.3,0-13.9Z"/>
    <path class="cls-1" d="M145.2,78.9c0-3.8,0-7.6,0-11.5,0-1.7,0-3.5,1.9-4.2,1.8-.7,3.2.1,4.1,1.8.7,1.2,1.3,0,1.8-.2,4.2-2.3,8.5-2.5,13-.8,1.9.7,3,1.8,2.4,3.9-.6,2.2-2.2,2.3-4.2,1.9-8.4-1.9-13,1.9-12.9,10.5,0,3.6,0,7.1,0,10.7,0,2.1-.9,3.4-3,3.5-2.2.1-3-1.4-3.1-3.4,0-4.1,0-8.1,0-12.2h0Z"/>
  </g>
  <g>
    <path class="cls-1" d="M219.5,43.2c0,5,0,9.3,0,13.5,0,1.5-.4,2.7-2.1,2.8-1.8,0-2.2-1.4-2.2-2.8,0-8.4-.2-16.8.2-25.1.4-8.8,8.5-14.8,17.2-13.4,5.4.9,10.4,5.7,11.7,11,1.4,6.3-.8,11.9-6.4,15.8-4.6,3.2-11,3.2-15.8,0-.7-.5-1.5-1-2.7-1.9ZM230.2,43c5.8,0,10.4-4.7,10.3-10.5,0-5.5-4.8-10.1-10.5-10.1-5.6,0-10.2,4.6-10.2,10.3,0,5.9,4.4,10.3,10.4,10.3Z"/>
    <path class="cls-1" d="M107.2,17.9c.5,0,1,0,1.5,0,1,.1,2,.3,3,.4,4.4,1.5,8,4.1,10,8.5,3.5,7.8-.1,16.5-8.2,19.7-1.1.4-2.2.7-3.3,1.1-1,0-2,0-3,0l-2-.2c-1.8-.8-3.7-1.4-5.3-2.6-.5-.4-1.1-1.3-1.9-.8-.4.3-.2,1.2-.2,1.9,0,.3,0,.6.1,1,0,.2,0,.3,0,.5-.2,1.3-.3,2.7,0,4-.2.7-.2,1.3,0,2-.2,1-.3,2,0,3-.2,1,0,2.1-.8,2.9-.2,0-.3,0-.4.2-.3.1-.7.2-1,.3-.4,0-.7-.1-1.1-.2-.9-1-1.2-2.1-1.1-3.4,0-3.7,0-7.5,0-11.2.1-6-.7-12.1,1-18,.6-1,1.1-2,1.7-3,1-1,2-1.9,3-2.9l2.5-1.5c1.8-.5,3.6-1,5.5-1.5ZM108.2,43c5.9,0,10.3-4.4,10.4-10.4,0-5.7-4.7-10.3-10.6-10.2-5.6,0-10.1,4.7-10.1,10.5,0,5.8,4.4,10.1,10.3,10.1Z"/>
    <path class="cls-1" d="M268,35.3c-2.5,0-5,0-7.5,0-1.7,0-3.1-.6-3-2.5,0-1.8,1.5-1.9,2.9-1.9,3.7,0,7.5,0,11.2,0,2.1,0,2.2-.8,1.6-2.4-2-5-7.7-7.9-12.9-6.3-5.2,1.6-8.5,7.4-7.1,12.6,1.4,5.3,6.6,8.6,12.1,7.5,1.1-.2,2.1-.5,3.1-1,1.4-.7,2.5-.5,3.2.8.8,1.4,0,2.7-1.3,3.3-4.8,2.2-9.7,2.4-14.3-.3-6.2-3.7-8.9-10.8-6.7-17.6,1.9-6,8.6-10.5,14.8-10.1,7.2.4,12.9,5.5,14.1,12.6.8,4.3,0,5.4-4.5,5.3-1.9,0-3.8,0-5.7,0Z"/>
    <path class="cls-1" d="M198.2,47.6c-5.1,0-8.5-2.2-11.3-5.7-.9-1.1-1.3-2.4,0-3.5,1.3-1.1,2.5-.5,3.4.7,2.3,3.1,5.3,4.4,9.1,3.9,1.1-.1,2.1-.5,3-1.1,1.4-1,3.3-2,3-3.9-.3-1.8-2.4-1.4-3.8-1.8-3.6-1-7.3-1.7-10.9-2.7-4.9-1.3-6.4-5.9-3.3-9.9,5.5-7.3,16.5-7.2,21.8.2.9,1.2,1.3,2.4,0,3.5-1.4,1.2-2.7.4-3.6-.8-2.2-3-5.2-4.2-8.9-3.7-2.3.3-4,1.5-5.4,3.2-1.5,1.9-1.2,2.7,1.1,3.3,3.8.9,7.6,1.9,11.4,2.7,2.8.6,5.3,1.6,6.1,4.7.8,3.3-.9,5.6-3.2,7.6-2.6,2.2-5.6,3.5-8.7,3.4Z"/>
    <path class="cls-1" d="M167.4,47.6c-7.9,0-14.7-6.8-14.8-14.8,0-7.9,6.8-14.7,14.8-14.8,8.3,0,14.7,6.5,14.9,14.6.2,8.1-6.6,14.8-14.9,14.9ZM157.1,32.9c0,5.9,4.6,10.4,10.5,10.3,5.7,0,10.2-4.6,10.2-10.4,0-5.8-4.7-10.4-10.6-10.3-5.7,0-10.1,4.6-10.1,10.4Z"/>
    <path class="cls-1" d="M297.3,21.9c-4.7,0-8.5,2.7-9.9,6.9-1.5,4.1-.3,8.7,2.9,11.3,3.5,3,8.3,3.6,12.1,1.5.7-.4,1.4-.9,2.1-1.4,1.1-.7,2.2-1,3.1.1,1,1.3.5,2.5-.7,3.5-4.4,3.7-11,4.4-16.2,1.8-7.7-4-10.6-13.4-6.4-20.6,4.6-7.8,14.2-10,21.5-4.9.7.5,1.4,1,1.8,1.6.6.9.4,2-.4,2.7-.9.9-2,.6-2.9-.1-2.2-1.6-4.5-2.9-7.1-2.6Z"/>
    <path class="cls-1" d="M313.9,24.5c0-4.6,0-9.3,0-13.9,0-.7,0-1.5.2-2.2.2-1,.9-1.6,2-1.4,1.1.2,1.9.6,1.9,1.9,0,2.5,0,5,0,7.5,0,1.4.3,2,1.8,1.9,1.1,0,2.2,0,3.2,0,1.5,0,2.2.8,2.3,2.1.1,1.4-.8,2-2.2,2.2,0,0-.2,0-.2,0q-4.9.3-4.9,5.1c0,3.4,0,6.8,0,10.2.1,4.1,1.2,5.1,5.2,5.3,1.6,0,2.9.5,2.9,2.3,0,1.8-1.5,2.1-3.1,2.1-5.8,0-9.1-3.3-9.1-9.1,0-4.6,0-9.1,0-13.7Z"/>
    <path class="cls-1" d="M129.1,37.3c0-1.7.2-3.3,0-5-1.3-8.6,9.4-17.3,19.3-13.9,1.5.5,2.9,1.2,2.3,3.2-.6,1.9-2.1,1.5-3.5,1.1-7.7-2.1-13.6,2.4-13.6,10.4,0,3.7,0,7.5,0,11.2,0,1.7-.2,3.2-2.2,3.1-2,0-2.2-1.7-2.2-3.2,0-2.3,0-4.6,0-7h0Z"/>
  </g>
  <g>
    <path class="cls-1" d="M297.3,87.7c.6-1.1,1.6-.7,2.4-.7,1.4,0,2.8.5,4.3,0,1.1-.3,2,.6,2.4,1.7.5,1.4.7,3,0,4.3-.3.7-1,.3-1.1-.5-.1-.9,0-1.8,0-2.7,0-.9-.5-1.4-1.4-1.4-.8,0-1,.6-1.2,1.3-.2,1.2.8,3.2-.8,3.3-1.2,0-.4-2.1-.6-3.2-.1-.9-.4-1.5-1.3-1.5-.9,0-1.2.8-1.2,1.6,0,.7,0,1.5,0,2.2,0,.5,0,1-.8,1-.7,0-.6-.6-.8-1.1,0-1.5,0-3,0-4.5Z"/>
    <path class="cls-1" d="M296.8,92.1c-2.7,2-4.1,1.8-5.4-.8.7-.5,1.2,0,1.7.4.7.5,1.4.5,2.2-.5-1.3-.4-2.4-.7-3.4-1-.8-1.1-.5-2,.5-2.7,1.4-1.1,2.7-.7,4,.2,0,.4.7.8.2,1.3-.3.3-.8.2-1.1,0-.8-.6-1.5-1-2.3,0,1.2,1.2,4.2.3,3.6,3.3Z"/>
  </g>
  <g>
    <path class="cls-1" d="M59.4,68.7c-.1,1.5-.3,2.9-.4,4.4-.5,1.5-1.7,2.2-3.2,2.3-.3,0-.6-.2-1-.3-.6-.7-1.4-1.3-1.3-2.3.7-4.4,0-8.7-.4-13,.7-1.2,1.7-1.8,3.1-1.8.4.2.8.4,1.2.5h.1c1.2,1.4,1,3.2,1.6,4.7,0,.3,0,.7.1,1,0,.8,0,1.7.1,2.5,0,.7,0,1.3,0,2Z"/>
    <path class="cls-1" d="M51.7,87.9c-.6.5-1.1.9-1.7,1.4-1,.7-2,.6-3-.2-.9-.7-1.5-1.9-.8-2.8,2.1-2.6,3.3-6.1,6.6-7.7.9.1,1.7.6,2.4,1.1.2.3.3.7.5,1,0,.5,0,.9,0,1.4-.3.7-.7,1.3-1,2-.5.3-.8.8-.9,1.3-.6.5-1.1,1-1.4,1.7-.2.2-.4.5-.7.7Z"/>
    <path class="cls-1" d="M61.3,8.1c-1.6-.6-2.7-1.6-2.1-3.5.7-2,2.3-1.9,4-1.6,1.9,2.8,1.3,4.3-1.9,5.1Z"/>
    <path class="cls-1" d="M67.6,10.2c.8-.7,1.7-.8,2.7-.9.4.3.9.6,1.3.9.4,1.2.6,2.5-.7,3.3-.9.6-1.9.6-2.8,0-1.3-.9-1-2.1-.6-3.3Z"/>
    <path class="cls-1" d="M76.4,22.3c-1.4.8-2.7.9-3.6-.7-.6-1-.4-2.1.7-2.9,1.5-1,2.6-.2,3.6.9.2,1-.2,1.8-.7,2.6Z"/>
    <path class="cls-1" d="M76.2,30.9c-1.2-.4-2.1-1.1-1.7-2.5.2-.9.8-1.4,1.7-1.5,1.5-.2,1.9.9,2.4,2-.4,1.1-1.1,1.9-2.4,2Z"/>
    <path class="cls-1" d="M75.2,38.4c-1.7-1.2-1.8-2.3,0-3.5,1,.2,2,.4,2,1.8,0,1.2-.9,1.6-2,1.8Z"/>
    <path class="cls-1" d="M71.9,45.4c-.7-.9-1.3-1.8,0-2.7.6-.5,1.3-.3,1.8.2.9,1.2.2,1.9-.8,2.6-.3,0-.6,0-.9-.1Z"/>
    <path class="cls-1" d="M69.1,50.5c-.4,0-.9,0-1.3.1-.5-.7-1.1-1.3-.3-2.1.9-.8,1.4,0,2.1.4,0,.1,0,.2,0,.3-.2.4-.4.8-.6,1.2Z"/>
    <path class="cls-1" d="M52.3,87.2c.3-.7.8-1.3,1.4-1.7.2,1.1-.1,1.8-1.4,1.7Z"/>
    <path class="cls-1" d="M19,31.9c.1-2.6.3-5.2.4-7.8,1.3-1.9,2.9-2.4,4.8-1l.7,1.8c-.7,3.5-.7,7,.2,10.5.5,1.8.2,3.4-1.8,3.9-2.1.5-3.1-.8-3.5-2.6-.3-1.6-.6-3.2-.8-4.8Z"/>
    <path class="cls-1" d="M25.9,51.3c-1-1.8-1.9-3.6-2.9-5.4,0-.5,0-1,.1-1.5,2.2-2.6,3.8-2.4,5.5.5,1.4,2.3,2.7,4.7,4.2,7,.8,1.3,1.2,2.5.5,3.9-.5.3-1,.7-1.5,1-3,.4-3.5-2.4-5-4-.1-.6-.4-1.1-.9-1.5Z"/>
    <path class="cls-1" d="M50.8,54.6c-1.8-3.1-3.7-6.1-5.5-9.2-.9-1.5-1-3.1.6-4.1,1.7-1.1,3-.3,4,1.2,1.3,1.9,2.5,3.9,3.8,5.8.3.6.5,1.2.8,1.8.7,1.3,1.3,2.6.2,3.9-1.1,1.3-2.5,1-3.9.6Z"/>
    <path class="cls-1" d="M48.4,61.1c0,1.5-.7,2.4-2,2.7-1.3.4-2.4-.2-2.9-1.3-1.2-3-2.8-5.8-4.3-8.6-.6-1.2-.1-2.3.9-3.1,1.1-.8,2.3-.7,3.4.2,1.3,1,5,8.6,5,10.1Z"/>
    <path class="cls-1" d="M33.3,33.7c.8.5,1.5,1,1.9,1.9,1,2.6,2.3,5.1,3.8,7.6,1,1.6.6,3-.9,3.8-1.4.8-2.8.4-3.7-1-1.7-2.7-3.1-5.5-4.3-8.4-.7-1.9.2-3,1.7-3.9.5,0,1,0,1.5,0Z"/>
    <path class="cls-1" d="M25.3,11.3c.9-.9,1.7-1.8,2.6-2.6,1.1-1,2.4-1.1,3.6,0,1.2,1.1,1.4,2.5.3,3.7-1.4,1.7-2.9,3.4-4.1,5.3-.6,1-1.6,1.4-2.8,1.1-1.5-.3-2.1-1.5-2.3-2.9.9-1.5,1.8-3.1,2.7-4.6Z"/>
    <path class="cls-1" d="M30.4,21.4c.5-.6.9-1.4,1.5-1.9,1.6-1.2,4.4,0,4.2,1.9-.3,2.3-1.1,4.7-2.5,6.5-1.2,1.6-3.1,1-4.5-1.2,0-1.9.8-3.6,1.3-5.4Z"/>
    <path class="cls-1" d="M49.3,71.8c-.4,1.9-.9,4-2.2,5.8-.8,1.1-2.1,1.4-3.3.7-1.2-.7-1.8-1.8-1.3-3.1.5-1.6,1.1-3.1,1.8-4.6.5-1.3,1.6-2,3-1.6,1.3.3,2.1,1.2,2.2,2.9Z"/>
    <path class="cls-1" d="M33.6,84.1c.6-2.2,2.3-3.1,4.1-3.9,1.4-.6,2.7-.3,3.5,1,.8,1.3.6,2.7-.7,3.5-1.8,1.2-3.7,2.9-6,.9-.2-.5-.2-1.2-.8-1.5h0Z"/>
    <path class="cls-1" d="M41.9,11.2c1.4.2,2.4.9,2.4,2.7,0,1.6-3.3,4.2-5.1,3.9-1.5-.2-2.5-1.2-2.5-2.9,0-1.6,3-3.8,5.2-3.7Z"/>
    <path class="cls-1" d="M32.7,60.6c0-1.1,1-2,2.6-2.1,1.6-.1,3.4,2.1,3.3,4,0,1.6-1,2.6-2.7,2.7-1.7,0-3.3-1.9-3.3-4.5Z"/>
    <path class="cls-1" d="M42.3,39.1c-1.4-.8-2.2-2-2.5-3.5-.2-1.4.4-2.4,1.7-3,1.3-.5,2.3,0,3.1.9,1.8,2.1,1.6,3.9-.7,5.6-.5,0-1,0-1.5,0Z"/>
    <path class="cls-1" d="M36.2,74.9c-1.8,0-2.9-1-2.9-2.6,0-1.8,1-3.3,2.9-3.4,1.8-.1,2.9,1.1,2.8,2.7-.1,1.7-1,3.1-2.9,3.3Z"/>
    <path class="cls-1" d="M42.3,93.4c-.3,1.9-1.3,2.9-3.2,2.8-1.7-.1-2.8-1.2-2.7-2.9,0-1.8,1.2-2.9,3-2.9,1.9,0,2.8,1.3,2.9,3Z"/>
    <path class="cls-1" d="M36.2,4.5c.1-1.9,1.2-3,3-3,1.7,0,2.8,1.1,2.9,2.8,0,1.8-1,3.1-2.8,3.1-1.8,0-2.9-1.1-3.1-2.9Z"/>
    <path class="cls-1" d="M45,25.5c-.3,1.7-1,3.2-3.1,3.2-1.7,0-2.6-1-2.7-2.6,0-1.7,1.4-3.4,3-3.3,1.7,0,2.6.9,2.7,2.7Z"/>
    <path class="cls-1" d="M51.6,15.6c-1.7-.1-2.7-1.1-2.8-2.6,0-1.6,1-2.7,2.6-2.7,1.7,0,2.6,1,2.7,2.6,0,1.7-1,2.5-2.6,2.7Z"/>
    <path class="cls-1" d="M28.3,87.6c-1.1.6-2.2.8-3.4.3-.3-.3-.6-.5-.8-.8-.5-1.5-.6-2.9,1-3.9,1-.6,2.1-.5,3,.3,1.5,1.3,1.1,2.7.2,4.2h0Z"/>
    <path class="cls-1" d="M25.4,94.6c1.3-2.2,2.9-2.8,4.3-1.6,1.1,1,1.6,2.2.5,3.5-1.3,1.7-2.8,1.3-4.3.1-.2-.7-.3-1.3-.5-2Z"/>
    <path class="cls-1" d="M63.8,17c-.1,1.6-1,2.6-2.7,2.6-1.6,0-2.6-1.1-2.5-2.7,0-1.6,1-2.4,2.5-2.4,1.6,0,2.6.8,2.7,2.6Z"/>
    <path class="cls-1" d="M16.6,89.7c1.7.2,2.8,1,2.7,2.7,0,1.6-1,2.4-2.5,2.5-1.5,0-2.5-.8-2.6-2.4-.1-1.8.9-2.5,2.4-2.8Z"/>
    <path class="cls-1" d="M51.8,21.4c0,1.8-.9,2.8-2.4,2.8-1.6,0-2.7-.8-2.7-2.5,0-1.6,1-2.5,2.5-2.5,1.5,0,2.5.8,2.6,2.2Z"/>
    <path class="cls-1" d="M52.9,2.4c-.1,1.9-1.1,2.8-2.7,2.8-1.5,0-2.4-1-2.4-2.6,0-1.5.9-2.5,2.4-2.6,1.6,0,2.5,1,2.7,2.4Z"/>
    <path class="cls-1" d="M68.7,25.1c-.2,1.5-1,2.3-2.4,2.3-1.4,0-2.4-.8-2.4-2.3,0-1.5.9-2.3,2.4-2.3,1.5,0,2.2.9,2.5,2.2Z"/>
    <path class="cls-1" d="M7,87.6c-.7-1.3-.9-2.5.3-3.6,1.2-1,2.3-.4,3.4.3.1.8.2,1.6.3,2.4-.9,1.3-2.1,1.9-3.7,1.2-.1-.1-.3-.2-.4-.3Z"/>
    <path class="cls-1" d="M5.8,77.2c-.2,1.3-.9,2.1-2.2,2.1-1.3,0-2.2-.8-2.2-2.1,0-1.4.9-2.3,2.3-2.3,1.4,0,2,.9,2.2,2.3Z"/>
    <path class="cls-1" d="M25.8,78.4c-.7-.5-1.4-.9-1.5-1.8-.2-1.2.2-2.1,1.2-2.7.9-.5,1.8-.3,2.5.4.9.8,1.1,1.8.5,2.9-.3.5-.8.8-1.2,1.2-.5,0-1,0-1.5,0Z"/>
    <path class="cls-1" d="M15,81.4c0-.2-.1-.5-.2-.7.8-2.4,2.3-2.6,4.3-1.4h0c0,1.3.3,2.7-1.3,3.3-1.3.5-2.1-.3-2.9-1.2Z"/>
    <path class="cls-1" d="M57.5,24.8c-.1,1.2-.7,2.1-2,2.1-1.3,0-2-.8-2-2.1,0-1.2.7-1.8,1.8-1.9,1.3,0,2,.6,2.1,1.9Z"/>
    <path class="cls-1" d="M68.4,34.1c-.2,1.2-.9,1.9-2.2,1.8-1.2,0-1.8-.9-1.8-1.9,0-1.2.8-2,2-2,1.2,0,1.9.8,2,2.1Z"/>
    <path class="cls-1" d="M3.9,68.7c-.1,1.3-.9,2-2.1,2-1.1,0-1.8-.9-1.8-2,0-1.1.6-1.9,1.8-2,1.3,0,1.9.8,2.1,2Z"/>
    <path class="cls-1" d="M12.2,70.6c1.1.2,1.9.8,1.8,2-.1,1.1-.9,1.8-2,1.7-1,0-1.6-.8-1.6-1.8,0-1.2.7-1.8,1.9-1.9Z"/>
    <path class="cls-1" d="M64.8,40.9c0,1.1-.8,1.7-1.8,1.7-1.1,0-1.7-.7-1.7-1.7,0-1,.6-1.8,1.7-1.7,1.1,0,1.6.7,1.7,1.7Z"/>
    <path class="cls-1" d="M58.8,31.3c-.1,1-.7,1.7-1.7,1.6-1,0-1.7-.7-1.6-1.8,0-.9.6-1.5,1.6-1.5,1.1,0,1.7.5,1.8,1.6Z"/>
    <path class="cls-1" d="M4.4,61c-.1.9-.6,1.6-1.6,1.6-1.1,0-1.7-.7-1.6-1.8,0-1,.7-1.5,1.7-1.5,1,0,1.4.7,1.5,1.6Z"/>
    <path class="cls-1" d="M53.6,38.1c-.8-.2-1.4-.6-1.3-1.5,0-.9.6-1.3,1.4-1.3.9,0,1.4.5,1.4,1.4,0,.9-.6,1.3-1.4,1.4Z"/>
    <path class="cls-1" d="M57.2,45.1c0-.7.4-1.1,1-1.1.8,0,1.3.4,1.3,1.1,0,.7-.5,1.2-1.3,1.1-.7,0-1-.5-1.1-1.1Z"/>
  </g>
</svg>