<svg width="164" height="164" viewBox="0 0 164 164" fill="none" xmlns="http://www.w3.org/2000/svg">
<g clip-path="url(#clip0_4021_13370)">
<rect x="0.118408" width="163.61" height="163.61" rx="32.722" fill="#E9FC87"/>
<path fill-rule="evenodd" clip-rule="evenodd" d="M119.724 95.8006C122.955 99.1213 127.019 101.5 131.935 101.02C131.955 101.018 131.975 101.016 131.995 101.014C132.309 100.985 132.625 100.999 132.937 101.06C133.272 101.125 133.588 101.241 133.884 101.399C135.938 102.501 137.018 105.732 136.339 109.215C135.675 112.635 133.531 115.194 131.26 115.526C131.244 115.528 131.225 115.53 131.207 115.532C130.948 115.539 130.67 115.541 130.379 115.541C125.052 115.524 114.492 114.373 105.413 107.92C105.075 108.162 104.729 108.397 104.376 108.626L104.496 121.451C104.496 124.536 100.188 127.042 94.8841 127.042C92.2624 127.042 89.7906 126.24 88.0543 125.249L88.1494 134.565C88.1494 137.651 83.8441 140.157 78.5399 140.157C73.2357 140.157 68.9282 137.651 68.9282 134.565V124.174C66.5861 124.078 63.7375 123.566 62.0842 122.774L62.1268 126.886C62.1268 129.972 57.8194 132.476 52.5152 132.476C47.211 132.476 42.9036 129.972 42.9036 126.886V115.091C41.617 110.36 40.1097 105.258 38.9731 101.058C37.9094 101.344 36.7767 101.384 35.6584 101.151C33.1157 100.621 31.0613 98.7505 30.2914 96.2686L26.6323 84.4465C25.0905 79.4644 27.0375 74.0629 31.4057 71.2102L39.5971 65.8615L44.5407 40.4607C47.5878 24.7992 67.587 15.4915 89.1746 19.6935C105.26 22.8238 117.718 32.5753 121.76 43.824C123.026 43.903 123.48 43.7814 124.72 43.8584C127.982 44.063 130.379 45.8237 131.215 48.2448C133.485 54.8072 123.168 66.2809 120.293 68.3839L116.711 86.7947C116.711 86.7947 117.414 87.9719 119.823 88.8938C122.234 89.8156 123.609 90.1904 123.609 90.1904L126.663 90.8286L129.11 91.09L130.152 91.1812L130.68 92.1537L130.516 93.0006L129.382 93.6914L125.642 94.8645L122.293 95.1988L119.724 95.8006Z" fill="#FF85D0"/>
<path fill-rule="evenodd" clip-rule="evenodd" d="M113.31 86.7352C113.331 86.723 113.353 86.7109 113.375 86.6988C113.667 86.5509 113.987 86.4374 114.342 86.3604C115.081 86.1963 115.857 86.3584 116.471 86.8061C116.548 86.8608 116.623 86.9156 116.7 86.9683C120.934 89.9527 125.236 90.9737 129.567 91.1074C130.118 91.1277 130.584 91.5268 130.69 92.0698C130.795 92.6128 130.514 93.1558 130.009 93.3827C126.563 94.9468 122.985 95.6661 119.271 95.5101C117.843 93.9682 116.582 92.2522 115.492 90.5381C114.67 89.2414 113.942 87.9488 113.31 86.7352Z" fill="white"/>
<path fill-rule="evenodd" clip-rule="evenodd" d="M117.635 145.871L97.4392 141.329C96.8294 141.193 96.3532 140.717 96.2155 140.107C96.0757 139.497 96.3005 138.861 96.7928 138.476L114.807 124.284C115.572 123.68 116.571 123.453 117.523 123.668L128.28 126.087L129.273 124.239C129.483 123.848 129.773 123.503 130.121 123.23L148.431 108.804C148.733 108.567 149.16 108.573 149.454 108.821C149.748 109.068 149.829 109.487 149.647 109.826L139.537 128.617L117.635 145.871Z" fill="#E9FC87"/>
<path d="M116.698 86.9829L122.752 55.8705C123.528 51.8796 123.131 47.859 121.747 44.0126C117.706 32.7647 105.247 23.0117 89.1609 19.8817C67.5736 15.6813 47.5742 24.9871 44.5266 40.6496L39.5842 66.0504M39.003 101.364C40.1602 105.717 41.5154 110.219 42.8903 115.279M62.5837 112.155C63.4112 112.362 65.7697 113.05 69.1965 113.776M80.4245 115.111C90.1255 115.248 98.9719 112.671 105.4 108.109" stroke="#242728" stroke-width="1.05378" stroke-miterlimit="1.5" stroke-linejoin="round"/>
<path d="M87.8489 114.147C87.8489 114.147 87.9599 117.921 87.9711 118.358C87.9732 118.385 87.973 118.412 87.9728 118.439C87.9821 119.338 88.1404 134.76 88.1404 134.76C88.1401 137.846 83.8339 140.351 78.5282 140.352C73.2248 140.351 68.9175 137.847 68.9178 134.761L68.9175 113.803" stroke="#242728" stroke-width="1.05378" stroke-miterlimit="1.5" stroke-linejoin="round"/>
<path d="M104.367 109.051L104.483 121.637C104.483 124.723 100.176 127.228 94.8707 127.228C92.2512 127.228 89.8725 126.616 88.1389 125.625" stroke="#242728" stroke-width="1.05378" stroke-miterlimit="1.5" stroke-linejoin="round"/>
<path d="M54.8476 58.4149C60.884 64.1598 69.4125 68.5968 79.3118 70.523C95.3321 73.6402 110.476 69.3179 118.467 60.4845M46.1584 44.6024C46.8384 47.079 47.933 49.4983 49.3834 51.803" stroke="#242728" stroke-width="1.05378" stroke-miterlimit="1.5" stroke-linejoin="round"/>
<path d="M59.0188 102.165C59.0188 102.165 60.6393 106.89 61.4695 109.312C61.7872 110.236 61.9539 111.206 61.9637 112.183C62.004 116.206 62.1154 127.07 62.1154 127.07C62.1152 130.156 57.8089 132.661 52.5032 132.661C47.1998 132.661 42.8926 130.156 42.8928 127.07L42.8947 115.274" stroke="#242728" stroke-width="1.05378" stroke-miterlimit="1.5" stroke-linejoin="round"/>
<path d="M68.4493 124.366C65.8298 124.366 63.4512 123.754 61.7175 122.763" stroke="#242728" stroke-width="1.05378" stroke-miterlimit="1.5" stroke-linejoin="round"/>
<path d="M121.75 44.0386C123.014 44.1177 123.47 43.9959 124.709 44.0731C127.972 44.2783 130.367 46.0378 131.205 48.4607C133.507 55.1207 122.842 66.8433 120.157 68.6877" stroke="#242728" stroke-width="1.05378" stroke-miterlimit="1.5" stroke-linejoin="round"/>
<path d="M103.798 77.5807C106.534 77.0294 108.867 77.2414 110.28 80.1949C111.328 82.2307 118.404 102.543 131.924 101.221C131.944 101.219 131.965 101.217 131.985 101.215C132.787 101.133 133.407 101.279 133.873 101.6M131.25 115.727C131.232 115.732 131.214 115.734 131.196 115.735C130.937 115.74 130.66 115.742 130.368 115.742C124.583 115.724 112.626 114.369 103.095 106.335" stroke="#242728" stroke-width="1.05378" stroke-miterlimit="1.5" stroke-linejoin="round"/>
<path fill-rule="evenodd" clip-rule="evenodd" d="M91.5002 93.8923C92.7906 93.6852 94.0794 94.2642 94.7805 95.3658C97.5707 99.7269 101.171 102.292 105.132 104.048C105.637 104.275 105.918 104.821 105.809 105.363C105.701 105.906 105.233 106.304 104.68 106.322C99.4253 106.525 94.5509 105.129 90.0739 102.039C86.6484 99.6728 88.0858 94.4473 91.5002 93.8923Z" fill="white" stroke="#242728" stroke-width="1.05378" stroke-miterlimit="1.5" stroke-linejoin="round"/>
<path d="M113.31 86.7341C113.331 86.722 113.353 86.7098 113.375 86.6997C113.667 86.5518 113.987 86.4363 114.342 86.3593C115.081 86.1972 115.857 86.3592 116.471 86.805C116.548 86.8597 116.623 86.9144 116.7 86.9691C120.934 89.9535 125.236 90.9747 129.567 91.1064C130.119 91.1287 130.585 91.5258 130.69 92.0688C130.795 92.6118 130.514 93.1568 130.009 93.3817C126.563 94.9458 122.985 95.6671 119.271 95.509" stroke="#242728" stroke-width="1.05378" stroke-miterlimit="1.5" stroke-linejoin="round"/>
<path d="M94.2663 94.7363C92.7355 92.9359 92.1175 91.393 91.299 89.5923" stroke="#242728" stroke-width="1.05378" stroke-miterlimit="1.5" stroke-linejoin="round"/>
<path d="M89.8719 101.887C87.8884 100.598 86.0103 98.6713 84.7113 97.1795" stroke="#242728" stroke-width="1.05378" stroke-miterlimit="1.5" stroke-linejoin="round"/>
<path d="M115.735 90.7028C113.287 89.1732 110.515 90.2062 109.364 92.6393" stroke="#242728" stroke-width="1.05378" stroke-miterlimit="1.5" stroke-linejoin="round"/>
<path d="M130.118 115.707C132.772 116.224 135.552 113.41 136.328 109.422C137.104 105.434 135.582 101.783 132.927 101.266C130.273 100.75 127.493 103.564 126.717 107.552C125.941 111.539 127.463 115.191 130.118 115.707Z" stroke="#242728" stroke-width="1.05378" stroke-miterlimit="1.5" stroke-linejoin="round"/>
<path d="M135.239 126.377C136.339 125.671 137.45 123.969 137.721 122.576C137.993 121.182 137.321 120.626 136.221 121.332C135.121 122.039 134.009 123.741 133.738 125.134C133.467 126.527 134.139 127.084 135.239 126.377Z" fill="white"/>
<path fill-rule="evenodd" clip-rule="evenodd" d="M135.934 120.879C136.749 120.356 137.417 120.417 137.82 120.751C138.192 121.06 138.423 121.711 138.237 122.666C137.942 124.185 136.722 126.04 135.522 126.811C134.708 127.334 134.04 127.272 133.637 126.938C133.265 126.63 133.034 125.979 133.22 125.023C133.515 123.504 134.735 121.65 135.934 120.879ZM136.504 121.766C135.505 122.407 134.501 123.959 134.254 125.225C134.201 125.496 134.188 125.728 134.221 125.912C134.238 126.005 134.257 126.083 134.31 126.127C134.359 126.167 134.429 126.15 134.511 126.13C134.644 126.099 134.791 126.028 134.953 125.925C135.951 125.283 136.957 123.73 137.203 122.465C137.256 122.193 137.268 121.962 137.236 121.777C137.219 121.685 137.2 121.607 137.148 121.563C137.099 121.522 137.028 121.539 136.946 121.559C136.813 121.591 136.665 121.662 136.504 121.766Z" fill="#242728"/>
<path d="M48.3747 60.3295C48.3747 60.3295 38.5625 66.7362 31.3943 71.4178C27.0266 74.268 25.0776 79.6704 26.6209 84.654C27.7359 88.2534 29.0587 92.53 30.2809 96.475C31.0493 98.9578 33.1037 100.828 35.647 101.359C38.1919 101.889 40.8231 100.998 42.5197 99.0308C45.333 95.7684 47.766 92.9489 47.766 92.9489" stroke="#242728" stroke-width="1.05378" stroke-miterlimit="1.5" stroke-linejoin="round"/>
<path d="M34.6451 69.2282C34.3691 68.8091 30.712 68.3096 29.2681 64.0088C28.4321 61.5191 28.9043 58.9935 28.7064 56.8413" stroke="#242728" stroke-width="1.05378" stroke-miterlimit="1.5" stroke-linejoin="round"/>
<path fill-rule="evenodd" clip-rule="evenodd" d="M29.3603 51.3719C30.2168 51.4433 30.6174 55.0015 30.546 55.8587C30.4746 56.7158 29.72 57.3536 28.8635 57.2823C28.0069 57.2109 27.3683 56.457 27.4397 55.5999C27.5111 54.7427 28.5037 51.3006 29.3603 51.3719Z" fill="#FF85D0" stroke="#242728" stroke-width="1.05378" stroke-miterlimit="1.5" stroke-linejoin="round"/>
<path fill-rule="evenodd" clip-rule="evenodd" d="M128.38 125.72L128.151 126.749L117.394 124.33C116.596 124.15 115.759 124.341 115.117 124.846L97.1029 139.038C96.7719 139.298 96.6208 139.727 96.7126 140.139C96.8075 140.551 97.129 140.871 97.5404 140.964L117.491 145.45L139.195 128.352L139.847 129.181L117.946 146.434C117.822 146.532 117.661 146.568 117.506 146.533L97.3105 141.992C96.501 141.81 95.8694 141.179 95.6846 140.372C95.5015 139.564 95.8013 138.722 96.4522 138.21L114.465 124.019C115.356 123.317 116.518 123.053 117.624 123.301L128.38 125.72Z" fill="#242728"/>
<path fill-rule="evenodd" clip-rule="evenodd" d="M98.6387 140.189L98.8706 139.161L116.845 143.203L116.613 144.231L98.6387 140.189Z" fill="#242728"/>
<path fill-rule="evenodd" clip-rule="evenodd" d="M116.747 131.575L111.387 135.797C110.879 136.198 110.217 136.348 109.586 136.206L107.002 135.625C106.499 135.512 106.106 135.119 105.991 134.616C105.877 134.113 106.063 133.589 106.468 133.27L111.828 129.047C112.337 128.646 112.998 128.496 113.629 128.638L116.213 129.219C116.716 129.333 117.109 129.725 117.223 130.228C117.338 130.731 117.152 131.255 116.747 131.575ZM116.095 130.747C116.181 130.679 116.22 130.568 116.196 130.461C116.172 130.355 116.088 130.271 115.982 130.247L113.398 129.666C113.077 129.594 112.739 129.67 112.48 129.874L107.12 134.097C107.034 134.165 106.995 134.276 107.019 134.383C107.043 134.49 107.127 134.573 107.233 134.597L109.817 135.178C110.139 135.25 110.475 135.174 110.734 134.97L116.095 130.747Z" fill="#242728"/>
<path fill-rule="evenodd" clip-rule="evenodd" d="M139.842 129.192L117.941 146.445C117.745 146.6 117.468 146.595 117.277 146.434C117.085 146.274 117.033 146.001 117.152 145.781L128.789 124.15C129.034 123.695 129.371 123.294 129.777 122.975L148.086 108.551C148.584 108.159 149.288 108.17 149.774 108.576C150.258 108.984 150.391 109.677 150.09 110.235L139.98 129.027C139.946 129.091 139.899 129.147 139.842 129.192ZM139.105 128.431L149.163 109.735C149.227 109.617 149.198 109.471 149.095 109.384C148.993 109.297 148.843 109.296 148.738 109.378L130.429 123.802C130.137 124.033 129.895 124.321 129.719 124.648L119.281 144.048L139.105 128.431Z" fill="#242728"/>
</g>
<defs>
<clipPath id="clip0_4021_13370">
<rect x="0.118408" width="163.61" height="163.61" rx="32.722" fill="white"/>
</clipPath>
</defs>
</svg>
