<svg width="25" height="25" viewBox="0 0 25 25" fill="none" xmlns="http://www.w3.org/2000/svg">
<g clip-path="url(#clip0_675_1043)">
<path d="M5.26316 15.7895C5.26316 16.4874 4.9859 17.1568 4.49239 17.6503C3.99887 18.1438 3.32952 18.4211 2.63158 18.4211C1.93364 18.4211 1.26429 18.1438 0.770771 17.6503C0.277255 17.1568 0 16.4874 0 15.7895C0 15.0915 0.277255 14.4222 0.770771 13.9287C1.26429 13.4351 1.93364 13.1579 2.63158 13.1579H5.26316V15.7895ZM6.57895 15.7895C6.57895 15.0915 6.8562 14.4222 7.34972 13.9287C7.84324 13.4351 8.51259 13.1579 9.21053 13.1579C9.90846 13.1579 10.5778 13.4351 11.0713 13.9287C11.5648 14.4222 11.8421 15.0915 11.8421 15.7895V22.3684C11.8421 23.0664 11.5648 23.7357 11.0713 24.2292C10.5778 24.7227 9.90846 25 9.21053 25C8.51259 25 7.84324 24.7227 7.34972 24.2292C6.8562 23.7357 6.57895 23.0664 6.57895 22.3684V15.7895ZM9.21053 5.26316C8.51259 5.26316 7.84324 4.9859 7.34972 4.49239C6.8562 3.99887 6.57895 3.32952 6.57895 2.63158C6.57895 1.93364 6.8562 1.26429 7.34972 0.770771C7.84324 0.277255 8.51259 0 9.21053 0C9.90846 0 10.5778 0.277255 11.0713 0.770771C11.5648 1.26429 11.8421 1.93364 11.8421 2.63158V5.26316H9.21053ZM9.21053 6.57895C9.90846 6.57895 10.5778 6.8562 11.0713 7.34972C11.5648 7.84324 11.8421 8.51259 11.8421 9.21053C11.8421 9.90846 11.5648 10.5778 11.0713 11.0713C10.5778 11.5648 9.90846 11.8421 9.21053 11.8421H2.63158C1.93364 11.8421 1.26429 11.5648 0.770771 11.0713C0.277255 10.5778 0 9.90846 0 9.21053C0 8.51259 0.277255 7.84324 0.770771 7.34972C1.26429 6.8562 1.93364 6.57895 2.63158 6.57895H9.21053ZM19.7368 9.21053C19.7368 8.51259 20.0141 7.84324 20.5076 7.34972C21.0011 6.8562 21.6705 6.57895 22.3684 6.57895C23.0664 6.57895 23.7357 6.8562 24.2292 7.34972C24.7227 7.84324 25 8.51259 25 9.21053C25 9.90846 24.7227 10.5778 24.2292 11.0713C23.7357 11.5648 23.0664 11.8421 22.3684 11.8421H19.7368V9.21053ZM18.4211 9.21053C18.4211 9.90846 18.1438 10.5778 17.6503 11.0713C17.1568 11.5648 16.4874 11.8421 15.7895 11.8421C15.0915 11.8421 14.4222 11.5648 13.9287 11.0713C13.4351 10.5778 13.1579 9.90846 13.1579 9.21053V2.63158C13.1579 1.93364 13.4351 1.26429 13.9287 0.770771C14.4222 0.277255 15.0915 0 15.7895 0C16.4874 0 17.1568 0.277255 17.6503 0.770771C18.1438 1.26429 18.4211 1.93364 18.4211 2.63158V9.21053ZM15.7895 19.7368C16.4874 19.7368 17.1568 20.0141 17.6503 20.5076C18.1438 21.0011 18.4211 21.6705 18.4211 22.3684C18.4211 23.0664 18.1438 23.7357 17.6503 24.2292C17.1568 24.7227 16.4874 25 15.7895 25C15.0915 25 14.4222 24.7227 13.9287 24.2292C13.4351 23.7357 13.1579 23.0664 13.1579 22.3684V19.7368H15.7895ZM15.7895 18.4211C15.0915 18.4211 14.4222 18.1438 13.9287 17.6503C13.4351 17.1568 13.1579 16.4874 13.1579 15.7895C13.1579 15.0915 13.4351 14.4222 13.9287 13.9287C14.4222 13.4351 15.0915 13.1579 15.7895 13.1579H22.3684C23.0664 13.1579 23.7357 13.4351 24.2292 13.9287C24.7227 14.4222 25 15.0915 25 15.7895C25 16.4874 24.7227 17.1568 24.2292 17.6503C23.7357 18.1438 23.0664 18.4211 22.3684 18.4211H15.7895Z" fill="url(#paint0_linear_675_1043)"/>
</g>
<defs>
<linearGradient id="paint0_linear_675_1043" x1="-3.1099e-07" y1="25" x2="52.7706" y2="4.12981" gradientUnits="userSpaceOnUse">
<stop stop-color="#F77577"/>
<stop offset="0.452015" stop-color="#DB39CB"/>
<stop offset="0.973958" stop-color="#CA6FE5"/>
</linearGradient>
<clipPath id="clip0_675_1043">
<rect width="25" height="25" fill="white"/>
</clipPath>
</defs>
</svg>
