<svg width="370" height="179" viewBox="0 0 370 179" fill="none" xmlns="http://www.w3.org/2000/svg">
<g filter="url(#filter0_b_4899_691)">
<path d="M46.6045 11.7332C46.6045 5.68325 51.5089 0.778809 57.5589 0.778809H312.49C318.54 0.778809 323.444 5.68325 323.444 11.7332V77.7397C323.444 83.7896 318.54 88.6941 312.49 88.6941H57.5589C51.5089 88.6941 46.6045 83.7896 46.6045 77.7397V11.7332Z" fill="white" fill-opacity="0.05"/>
<path d="M47.1522 11.7332C47.1522 5.98575 51.8114 1.32653 57.5589 1.32653H312.49C318.237 1.32653 322.896 5.98575 322.896 11.7332V77.7397C322.896 83.4872 318.237 88.1464 312.49 88.1464H57.5589C51.8114 88.1464 47.1522 83.4872 47.1522 77.7397V11.7332Z" stroke="#EBEAE7" stroke-opacity="0.15" stroke-width="1.09544"/>
</g>
<g filter="url(#filter1_b_4899_691)">
<rect x="22.9004" y="23.8042" width="324.25" height="87.4213" rx="10.9544" fill="white" fill-opacity="0.05"/>
<rect x="23.4481" y="24.3519" width="323.154" height="86.3259" rx="10.4067" stroke="#EBEAE7" stroke-opacity="0.15" stroke-width="1.09544"/>
</g>
<rect x="0.43457" y="46.3354" width="369.18" height="131.886" rx="12.4723" fill="#1C1C1C"/>
<rect x="1.05818" y="46.9591" width="367.932" height="130.639" rx="11.8487" stroke="#EBEAE7" stroke-opacity="0.15" stroke-width="1.24723"/>
<path d="M43.0486 84.5318H32.655C31.8755 84.5318 31.3038 84.5006 30.8154 84.4279C27.3647 84.0537 26.6787 81.9854 26.6787 78.5555V76.4768C26.6787 73.0469 27.3647 70.9786 30.8465 70.594C31.3038 70.5317 31.8755 70.5005 32.655 70.5005H43.0486C43.8281 70.5005 44.3997 70.5317 44.8882 70.6044C48.3493 70.989 49.0249 73.0469 49.0249 76.4768V78.5555C49.0249 81.9854 48.3389 84.0537 44.8571 84.4383C44.3997 84.5006 43.8281 84.5318 43.0486 84.5318ZM32.655 72.0595C31.9483 72.0595 31.4494 72.0907 31.044 72.1427C28.9341 72.3817 28.2377 73.0365 28.2377 76.4768V78.5555C28.2377 81.9958 28.9341 82.6506 31.0128 82.8896C31.4494 82.952 31.9483 82.9728 32.655 82.9728H43.0486C43.7553 82.9728 44.2542 82.9416 44.6596 82.8896C46.7695 82.661 47.4659 81.9958 47.4659 78.5555V76.4768C47.4659 73.0365 46.7695 72.3817 44.6908 72.1427C44.2542 72.0803 43.7553 72.0595 43.0486 72.0595H32.655Z" fill="#BCBCBC"/>
<path d="M41.3118 88.6893H34.3896C31.1676 88.6893 30.1387 87.6604 30.1387 84.4488V84.0954C30.1387 83.9187 30.1387 83.7628 30.1491 83.6069C30.1595 83.3886 30.2634 83.1911 30.4401 83.056C30.6064 82.9209 30.8246 82.8585 31.0429 82.8897C31.4587 82.9521 31.9575 82.9729 32.6539 82.9729H43.0475C43.7542 82.9729 44.2531 82.9417 44.6585 82.8897C44.8768 82.8585 45.095 82.9209 45.2613 83.056C45.4276 83.1911 45.5315 83.3886 45.5523 83.6069C45.5627 83.7732 45.5627 83.9187 45.5627 84.0954V84.4488C45.5627 87.6604 44.5338 88.6893 41.3118 88.6893ZM31.6977 84.5111C31.7081 86.7873 32.0719 87.1303 34.3896 87.1303H41.3118C43.6295 87.1303 43.9933 86.7873 44.0037 84.5111C43.7231 84.5215 43.4113 84.5319 43.0475 84.5319H32.6539C32.2901 84.5319 31.9783 84.5215 31.6977 84.5111Z" fill="#BCBCBC"/>
<path d="M44.7728 72.1533C44.7312 72.1533 44.7001 72.1533 44.6585 72.1429C44.2427 72.0805 43.7439 72.0597 43.0475 72.0597H32.6539C31.9472 72.0597 31.4483 72.0909 31.0429 72.1429C30.8246 72.1741 30.6064 72.1117 30.4401 71.9766C30.2738 71.8415 30.1699 71.644 30.1491 71.4257C30.1387 71.2594 30.1387 71.1139 30.1387 70.9372V70.5838C30.1387 67.3722 31.1676 66.3433 34.3896 66.3433H41.3118C44.5338 66.3433 45.5627 67.3722 45.5627 70.5838V70.9372C45.5627 71.1139 45.5627 71.2698 45.5523 71.4257C45.5419 71.644 45.438 71.8415 45.2613 71.9766C45.1262 72.0909 44.9495 72.1533 44.7728 72.1533ZM32.6539 70.5007H43.0475C43.4113 70.5007 43.7231 70.5111 44.0037 70.5215C43.9933 68.2453 43.6295 67.9023 41.3118 67.9023H34.3896C32.0719 67.9023 31.7081 68.2453 31.6977 70.5215C31.9783 70.5111 32.2901 70.5007 32.6539 70.5007Z" fill="#BCBCBC"/>
<path d="M66.3726 72.2933H68.5204L74.3873 80.6048V72.2933H76.7446V84.5161H74.5969L68.7299 76.2046V84.5161H66.3726V72.2933ZM81.8742 84.6558C81.1408 84.6558 80.489 84.5219 79.9186 84.2542C79.3598 83.9748 78.9233 83.5907 78.609 83.1018C78.2947 82.6012 78.1375 82.0308 78.1375 81.3906V79.1381C78.1375 78.4513 78.2947 77.8459 78.609 77.3221C78.9233 76.7983 79.3598 76.3908 79.9186 76.0998C80.489 75.8088 81.1408 75.6633 81.8742 75.6633H83.2711C84.3886 75.6633 85.285 75.9776 85.9601 76.6062C86.6353 77.2348 86.9729 78.0729 86.9729 79.1206V80.9715H80.5122V81.3906C80.5122 81.7747 80.6345 82.0832 80.8789 82.316C81.1234 82.5488 81.4551 82.6652 81.8742 82.6652H83.2362C83.6436 82.6652 83.9696 82.5779 84.214 82.4033C84.4701 82.2171 84.5982 81.9784 84.5982 81.6874H86.938C86.938 82.2694 86.7808 82.7875 86.4665 83.2414C86.1522 83.6954 85.7099 84.0447 85.1395 84.2891C84.5807 84.5336 83.9346 84.6558 83.2013 84.6558H81.8742ZM84.6331 79.2603V79.1206C84.6331 78.6666 84.5109 78.3057 84.2664 78.038C84.0219 77.7586 83.696 77.6189 83.2886 77.6189H81.8742C81.4551 77.6189 81.1176 77.7645 80.8615 78.0555C80.6054 78.3465 80.4773 78.7306 80.4773 79.2079V79.2603H84.6331ZM90.7292 84.5161C89.9493 84.5161 89.4487 84.0621 89.2276 83.1541L87.464 75.803H89.926L90.9911 81.3382H91.0261L92.9293 76.0125H93.8548C94.1225 76.0125 94.3379 76.0707 94.5008 76.1871C94.6638 76.3035 94.7919 76.484 94.885 76.7284L96.5089 81.3382H96.5438L97.5915 75.803H100.054L98.3248 83.1541C98.1153 84.0621 97.6148 84.5161 96.8232 84.5161H95.7406L93.8024 78.9984L91.7944 84.5161H90.7292ZM110.026 84.6558C109.106 84.6558 108.291 84.4637 107.581 84.0796C106.883 83.6838 106.336 83.1367 105.94 82.4382C105.556 81.7281 105.364 80.9075 105.364 79.9762V76.8332C105.364 75.9019 105.556 75.0871 105.94 74.3886C106.336 73.6785 106.883 73.1314 107.581 72.7473C108.291 72.3515 109.106 72.1536 110.026 72.1536H111.877C112.796 72.1536 113.605 72.3515 114.304 72.7473C115.014 73.1314 115.561 73.6785 115.945 74.3886C116.341 75.0871 116.539 75.9019 116.539 76.8332V79.9762C116.539 80.9075 116.341 81.7281 115.945 82.4382C115.561 83.1367 115.014 83.6838 114.304 84.0796C113.605 84.4637 112.796 84.6558 111.877 84.6558H110.026ZM111.877 82.5255C112.552 82.5255 113.093 82.2811 113.501 81.7922C113.92 81.3033 114.129 80.663 114.129 79.8714V76.938C114.129 76.1464 113.92 75.5061 113.501 75.0172C113.093 74.5283 112.552 74.2839 111.877 74.2839H110.026C109.351 74.2839 108.803 74.5283 108.384 75.0172C107.977 75.5061 107.773 76.1464 107.773 76.938V79.8714C107.773 80.663 107.977 81.3033 108.384 81.7922C108.803 82.2811 109.351 82.5255 110.026 82.5255H111.877ZM117.929 75.803H120.129V76.9205C120.351 76.5829 120.665 76.3094 121.072 76.0998C121.491 75.8786 121.928 75.7681 122.382 75.7681H123.569V77.8285H122.382C121.765 77.8285 121.264 78.0147 120.88 78.3872C120.496 78.7597 120.304 79.237 120.304 79.8191V84.5161H117.929V75.803ZM127.1 84.6558C126.064 84.6558 125.225 84.3415 124.585 83.7129C123.957 83.0843 123.642 82.2578 123.642 81.2334V79.2428C123.642 78.5327 123.794 77.91 124.096 77.3745C124.399 76.8274 124.824 76.4083 125.371 76.1173C125.918 75.8146 126.553 75.6633 127.274 75.6633H128.235C128.572 75.6633 128.916 75.739 129.265 75.8903C129.614 76.03 129.905 76.222 130.138 76.4665V72.2933H132.513V84.5161H130.313V83.3637C130.08 83.7478 129.765 84.0621 129.37 84.3066C128.974 84.5394 128.561 84.6558 128.13 84.6558H127.1ZM128.392 82.6128C128.869 82.6128 129.265 82.4441 129.579 82.1065C129.905 81.7572 130.091 81.2974 130.138 80.727V79.2079C130.056 78.7539 129.876 78.3931 129.597 78.1253C129.329 77.8459 129.009 77.7062 128.636 77.7062H127.571C127.105 77.7062 126.727 77.8634 126.436 78.1777C126.157 78.492 126.017 78.9052 126.017 79.4174V81.0588C126.017 81.5244 126.145 81.9028 126.401 82.1938C126.657 82.4732 126.989 82.6128 127.397 82.6128H128.392ZM137.568 84.6558C136.835 84.6558 136.183 84.5219 135.612 84.2542C135.054 83.9748 134.617 83.5907 134.303 83.1018C133.988 82.6012 133.831 82.0308 133.831 81.3906V79.1381C133.831 78.4513 133.988 77.8459 134.303 77.3221C134.617 76.7983 135.054 76.3908 135.612 76.0998C136.183 75.8088 136.835 75.6633 137.568 75.6633H138.965C140.082 75.6633 140.979 75.9776 141.654 76.6062C142.329 77.2348 142.667 78.0729 142.667 79.1206V80.9715H136.206V81.3906C136.206 81.7747 136.328 82.0832 136.573 82.316C136.817 82.5488 137.149 82.6652 137.568 82.6652H138.93C139.337 82.6652 139.663 82.5779 139.908 82.4033C140.164 82.2171 140.292 81.9784 140.292 81.6874H142.632C142.632 82.2694 142.475 82.7875 142.16 83.2414C141.846 83.6954 141.404 84.0447 140.833 84.2891C140.274 84.5336 139.628 84.6558 138.895 84.6558H137.568ZM140.327 79.2603V79.1206C140.327 78.6666 140.205 78.3057 139.96 78.038C139.716 77.7586 139.39 77.6189 138.982 77.6189H137.568C137.149 77.6189 136.811 77.7645 136.555 78.0555C136.299 78.3465 136.171 78.7306 136.171 79.2079V79.2603H140.327ZM143.926 75.803H146.126V76.9205C146.347 76.5829 146.662 76.3094 147.069 76.0998C147.488 75.8786 147.925 75.7681 148.379 75.7681H149.566V77.8285H148.379C147.762 77.8285 147.261 78.0147 146.877 78.3872C146.493 78.7597 146.301 79.237 146.301 79.8191V84.5161H143.926V75.803Z" fill="#F2F2F2"/>
<path d="M72.2107 108.995C73.1187 109.154 73.8122 109.439 74.2911 109.848C74.7701 110.247 75.0095 110.766 75.0095 111.404V112.392C75.0095 113.17 74.7102 113.804 74.1115 114.293C73.5128 114.782 72.7146 115.046 71.7168 115.086V116.493H69.6814V115.086C68.6137 115.076 67.7756 114.762 67.1669 114.143C66.5683 113.525 66.2689 112.676 66.2689 111.599H68.3044C68.3044 112.118 68.4341 112.527 68.6936 112.826C68.963 113.115 69.3321 113.26 69.8011 113.26H71.4624C71.9014 113.26 72.2556 113.17 72.525 112.991C72.8044 112.801 72.9441 112.552 72.9441 112.242V111.733C72.9441 111.245 72.5849 110.94 71.8665 110.821L69.1126 110.357C68.2146 110.207 67.5311 109.923 67.0622 109.503C66.6032 109.074 66.3737 108.531 66.3737 107.872V107.034C66.3737 106.525 66.5084 106.071 66.7778 105.672C67.0572 105.273 67.4463 104.959 67.9452 104.729C68.4441 104.5 69.0228 104.38 69.6814 104.37V102.963H71.7168V104.37C72.6548 104.42 73.4031 104.734 73.9618 105.313C74.5306 105.891 74.815 106.65 74.815 107.588H72.7795C72.7795 107.169 72.6647 106.834 72.4352 106.585C72.2057 106.326 71.9014 106.196 71.5223 106.196H69.831C69.412 106.196 69.0727 106.286 68.8133 106.465C68.5638 106.645 68.4391 106.884 68.4391 107.184V107.588C68.4391 108.087 68.7834 108.396 69.4718 108.516L72.2107 108.995ZM77.9018 106.735L75.4922 107.947V106.031L78.3957 104.49H79.9673V114.966H77.9018V106.735ZM80.5923 116.283L81.0413 115.879C81.5602 115.41 81.8196 114.842 81.8196 114.173V113.185H83.8551V114.173C83.8551 114.842 83.7304 115.445 83.4809 115.984C83.2415 116.523 82.8872 116.977 82.4183 117.346L81.9094 117.75L80.5923 116.283ZM88.122 115.086C87.4635 115.086 86.8848 114.961 86.3859 114.712C85.887 114.462 85.4979 114.113 85.2185 113.664C84.9491 113.205 84.8144 112.681 84.8144 112.093H86.8648C86.8648 112.442 86.9796 112.726 87.209 112.946C87.4385 113.155 87.7429 113.26 88.122 113.26H89.4092C89.8382 113.26 90.1824 113.13 90.4419 112.871C90.7013 112.602 90.831 112.247 90.831 111.808V110.596C90.5816 110.816 90.2822 110.995 89.933 111.135C89.5838 111.275 89.2495 111.344 88.9302 111.344H87.9275C87.249 111.344 86.6503 111.215 86.1314 110.955C85.6226 110.686 85.2235 110.312 84.9341 109.833C84.6547 109.354 84.515 108.8 84.515 108.171V107.573C84.515 106.944 84.6697 106.39 84.979 105.911C85.2883 105.423 85.7273 105.043 86.2961 104.774C86.8648 104.505 87.5184 104.37 88.2567 104.37H89.3044C90.0128 104.37 90.6364 104.505 91.1752 104.774C91.724 105.043 92.1481 105.423 92.4474 105.911C92.7467 106.4 92.8964 106.964 92.8964 107.603V111.808C92.8964 112.457 92.7517 113.031 92.4624 113.53C92.173 114.018 91.7639 114.403 91.2351 114.682C90.7063 114.951 90.0976 115.086 89.4092 115.086H88.122ZM88.9602 109.608C89.4092 109.608 89.8033 109.479 90.1425 109.219C90.4918 108.96 90.7212 108.62 90.831 108.201V107.483C90.831 107.074 90.6913 106.745 90.4119 106.495C90.1326 106.236 89.7634 106.106 89.3044 106.106H88.2567C87.7578 106.106 87.3537 106.241 87.0444 106.51C86.7351 106.78 86.5804 107.134 86.5804 107.573V108.171C86.5804 108.6 86.7002 108.95 86.9396 109.219C87.1891 109.479 87.5134 109.608 87.9125 109.608H88.9602ZM97.3669 115.086C96.6485 115.086 96.0149 114.971 95.4661 114.742C94.9173 114.502 94.4883 114.173 94.179 113.754C93.8797 113.325 93.73 112.836 93.73 112.287V111.584C93.73 111.205 93.8747 110.83 94.164 110.461C94.4534 110.092 94.8325 109.798 95.3015 109.578V109.563C94.9323 109.344 94.633 109.064 94.4035 108.725C94.184 108.386 94.0742 108.047 94.0742 107.707V107.049C94.0742 106.52 94.2139 106.056 94.4933 105.657C94.7826 105.248 95.1868 104.934 95.7056 104.714C96.2344 104.485 96.8381 104.37 97.5166 104.37H98.8037C99.4822 104.37 100.081 104.485 100.6 104.714C101.129 104.934 101.533 105.248 101.812 105.657C102.101 106.056 102.246 106.52 102.246 107.049V107.707C102.246 108.037 102.131 108.376 101.902 108.725C101.682 109.064 101.388 109.344 101.019 109.563V109.578C101.488 109.798 101.867 110.092 102.156 110.461C102.446 110.83 102.59 111.205 102.59 111.584V112.287C102.59 112.836 102.436 113.325 102.126 113.754C101.827 114.173 101.403 114.502 100.854 114.742C100.305 114.971 99.6718 115.086 98.9534 115.086H97.3669ZM98.8037 108.74C99.2128 108.74 99.5421 108.645 99.7915 108.456C100.051 108.266 100.181 108.017 100.181 107.707V107.079C100.181 106.799 100.051 106.575 99.7915 106.405C99.5421 106.236 99.2128 106.151 98.8037 106.151H97.5166C97.1075 106.151 96.7732 106.236 96.5138 106.405C96.2644 106.575 96.1396 106.799 96.1396 107.079V107.707C96.1396 108.017 96.2644 108.266 96.5138 108.456C96.7732 108.645 97.1075 108.74 97.5166 108.74H98.8037ZM98.9534 113.305C99.4223 113.305 99.8015 113.205 100.091 113.006C100.38 112.796 100.525 112.522 100.525 112.182V111.629C100.525 111.28 100.365 111 100.046 110.791C99.7366 110.581 99.3226 110.476 98.8037 110.476H97.5166C96.9977 110.476 96.5787 110.581 96.2594 110.791C95.9501 111 95.7954 111.28 95.7954 111.629V112.182C95.7954 112.522 95.9401 112.796 96.2294 113.006C96.5188 113.205 96.8979 113.305 97.3669 113.305H98.9534ZM106.997 115.086C106.299 115.086 105.68 114.936 105.141 114.637C104.602 114.328 104.183 113.894 103.884 113.335C103.585 112.776 103.435 112.133 103.435 111.404V108.052C103.435 107.323 103.58 106.68 103.869 106.121C104.168 105.562 104.587 105.133 105.126 104.834C105.665 104.525 106.289 104.37 106.997 104.37H108.584C109.272 104.37 109.881 104.525 110.409 104.834C110.938 105.133 111.347 105.562 111.637 106.121C111.936 106.68 112.086 107.323 112.086 108.052V111.404C112.086 112.133 111.941 112.776 111.652 113.335C111.362 113.894 110.953 114.328 110.424 114.637C109.896 114.936 109.282 115.086 108.584 115.086H106.997ZM108.554 113.26C108.993 113.26 109.342 113.095 109.601 112.766C109.871 112.427 110.005 111.983 110.005 111.434V108.022C110.005 107.473 109.871 107.034 109.601 106.705C109.342 106.365 108.993 106.196 108.554 106.196H107.027C106.568 106.196 106.199 106.365 105.919 106.705C105.64 107.034 105.5 107.473 105.5 108.022V111.434C105.5 111.983 105.64 112.427 105.919 112.766C106.199 113.095 106.568 113.26 107.027 113.26H108.554ZM113.904 115.116C113.534 115.116 113.235 115.006 113.006 114.787C112.786 114.557 112.676 114.258 112.676 113.889C112.676 113.52 112.786 113.225 113.006 113.006C113.235 112.776 113.534 112.661 113.904 112.661C114.273 112.661 114.567 112.776 114.787 113.006C115.016 113.225 115.131 113.52 115.131 113.889C115.131 114.258 115.016 114.557 114.787 114.787C114.567 115.006 114.273 115.116 113.904 115.116ZM119.29 115.086C118.591 115.086 117.973 114.936 117.434 114.637C116.895 114.328 116.476 113.894 116.177 113.335C115.877 112.776 115.728 112.133 115.728 111.404V108.052C115.728 107.323 115.872 106.68 116.162 106.121C116.461 105.562 116.88 105.133 117.419 104.834C117.958 104.525 118.581 104.37 119.29 104.37H120.876C121.565 104.37 122.173 104.525 122.702 104.834C123.231 105.133 123.64 105.562 123.929 106.121C124.229 106.68 124.378 107.323 124.378 108.052V111.404C124.378 112.133 124.234 112.776 123.944 113.335C123.655 113.894 123.246 114.328 122.717 114.637C122.188 114.936 121.575 115.086 120.876 115.086H119.29ZM120.846 113.26C121.285 113.26 121.634 113.095 121.894 112.766C122.163 112.427 122.298 111.983 122.298 111.434V108.022C122.298 107.473 122.163 107.034 121.894 106.705C121.634 106.365 121.285 106.196 120.846 106.196H119.32C118.861 106.196 118.491 106.365 118.212 106.705C117.933 107.034 117.793 107.473 117.793 108.022V111.434C117.793 111.983 117.933 112.427 118.212 112.766C118.491 113.095 118.861 113.26 119.32 113.26H120.846ZM129.075 115.086C128.377 115.086 127.758 114.936 127.219 114.637C126.681 114.328 126.262 113.894 125.962 113.335C125.663 112.776 125.513 112.133 125.513 111.404V108.052C125.513 107.323 125.658 106.68 125.947 106.121C126.247 105.562 126.666 105.133 127.205 104.834C127.743 104.525 128.367 104.37 129.075 104.37H130.662C131.35 104.37 131.959 104.525 132.488 104.834C133.017 105.133 133.426 105.562 133.715 106.121C134.014 106.68 134.164 107.323 134.164 108.052V111.404C134.164 112.133 134.019 112.776 133.73 113.335C133.441 113.894 133.032 114.328 132.503 114.637C131.974 114.936 131.36 115.086 130.662 115.086H129.075ZM130.632 113.26C131.071 113.26 131.42 113.095 131.68 112.766C131.949 112.427 132.084 111.983 132.084 111.434V108.022C132.084 107.473 131.949 107.034 131.68 106.705C131.42 106.365 131.071 106.196 130.632 106.196H129.105C128.646 106.196 128.277 106.365 127.998 106.705C127.718 107.034 127.579 107.473 127.579 108.022V111.434C127.579 111.983 127.718 112.427 127.998 112.766C128.277 113.095 128.646 113.26 129.105 113.26H130.632Z" fill="#16BA7F"/>
<path d="M147.759 107.32L145.751 108.33V106.97L148.071 105.736H149.218V114.466H147.759V107.32ZM150.378 113.356C150.378 112.874 150.465 112.458 150.64 112.109C150.823 111.752 151.122 111.436 151.538 111.161L154.631 109.153C154.797 109.045 154.926 108.908 155.018 108.742C155.118 108.575 155.167 108.405 155.167 108.23V107.831C155.167 107.565 155.068 107.349 154.868 107.182C154.677 107.008 154.427 106.921 154.12 106.921H152.972C152.606 106.921 152.32 107.054 152.112 107.32C151.904 107.577 151.8 107.935 151.8 108.392H150.341C150.341 107.536 150.573 106.862 151.039 106.372C151.505 105.881 152.141 105.636 152.947 105.636H154.12C154.61 105.636 155.047 105.727 155.429 105.91C155.812 106.093 156.107 106.351 156.315 106.684C156.523 107.016 156.627 107.399 156.627 107.831V108.23C156.627 108.646 156.535 109.012 156.352 109.328C156.178 109.644 155.899 109.918 155.517 110.151L152.511 112.059C152.278 112.209 152.108 112.371 151.999 112.546C151.9 112.712 151.85 112.928 151.85 113.194H156.701V114.466H150.378V113.356ZM163.83 114.566C163.198 114.566 162.641 114.433 162.158 114.167C161.676 113.893 161.302 113.51 161.036 113.02C160.77 112.521 160.637 111.947 160.637 111.298V108.904C160.637 108.255 160.77 107.686 161.036 107.195C161.302 106.696 161.676 106.314 162.158 106.048C162.641 105.773 163.198 105.636 163.83 105.636H165.152C165.784 105.636 166.341 105.773 166.823 106.048C167.314 106.314 167.692 106.696 167.958 107.195C168.224 107.686 168.357 108.255 168.357 108.904V111.298C168.357 111.947 168.224 112.521 167.958 113.02C167.692 113.51 167.314 113.893 166.823 114.167C166.341 114.433 165.784 114.566 165.152 114.566H163.83ZM165.152 113.281C165.667 113.281 166.087 113.094 166.411 112.72C166.736 112.346 166.898 111.855 166.898 111.248V108.954C166.898 108.347 166.736 107.856 166.411 107.482C166.095 107.108 165.676 106.921 165.152 106.921H163.842C163.318 106.921 162.894 107.108 162.57 107.482C162.254 107.856 162.096 108.347 162.096 108.954V111.248C162.096 111.855 162.254 112.346 162.57 112.72C162.894 113.094 163.318 113.281 163.842 113.281H165.152ZM169.503 108.243H170.837V109.091C171.003 108.833 171.24 108.625 171.548 108.467C171.864 108.301 172.188 108.218 172.521 108.218H173.269V109.465H172.521C172.047 109.465 171.664 109.61 171.373 109.901C171.082 110.192 170.937 110.571 170.937 111.036V114.466H169.503V108.243ZM175.843 114.566C175.137 114.566 174.563 114.346 174.122 113.905C173.69 113.456 173.474 112.87 173.474 112.146V110.7C173.474 110.192 173.578 109.748 173.786 109.365C173.993 108.974 174.284 108.675 174.659 108.467C175.041 108.251 175.478 108.143 175.968 108.143H176.729C176.987 108.143 177.24 108.201 177.49 108.317C177.748 108.434 177.96 108.588 178.126 108.779V105.736H179.548V114.466H178.213V113.606C178.039 113.897 177.806 114.13 177.515 114.304C177.224 114.479 176.929 114.566 176.629 114.566H175.843ZM176.741 113.331C177.099 113.331 177.407 113.19 177.664 112.907C177.93 112.616 178.084 112.259 178.126 111.835V110.587C178.068 110.23 177.926 109.939 177.702 109.714C177.486 109.49 177.224 109.378 176.916 109.378H176.118C175.752 109.378 175.457 109.506 175.232 109.764C175.016 110.022 174.908 110.359 174.908 110.775V112.059C174.908 112.442 175.008 112.749 175.207 112.982C175.415 113.215 175.677 113.331 175.993 113.331H176.741ZM183.199 114.566C182.691 114.566 182.242 114.47 181.852 114.279C181.469 114.088 181.17 113.818 180.954 113.469C180.746 113.119 180.642 112.716 180.642 112.259V110.587C180.642 110.105 180.746 109.681 180.954 109.315C181.17 108.941 181.469 108.654 181.852 108.455C182.242 108.247 182.691 108.143 183.199 108.143H184.196C184.953 108.143 185.56 108.363 186.017 108.804C186.475 109.245 186.703 109.831 186.703 110.562V111.81H182.076V112.259C182.076 112.591 182.176 112.857 182.375 113.057C182.583 113.256 182.858 113.356 183.199 113.356H184.159C184.492 113.356 184.758 113.277 184.957 113.119C185.165 112.953 185.269 112.737 185.269 112.471H186.678C186.678 113.103 186.446 113.61 185.98 113.992C185.514 114.375 184.903 114.566 184.147 114.566H183.199ZM185.294 110.737V110.562C185.294 110.197 185.194 109.901 184.995 109.677C184.795 109.452 184.533 109.34 184.209 109.34H183.199C182.858 109.34 182.579 109.461 182.363 109.702C182.155 109.935 182.051 110.242 182.051 110.625V110.737H185.294ZM187.743 108.243H189.077V109.091C189.244 108.833 189.481 108.625 189.788 108.467C190.104 108.301 190.428 108.218 190.761 108.218H191.509V109.465H190.761C190.287 109.465 189.905 109.61 189.614 109.901C189.323 110.192 189.177 110.571 189.177 111.036V114.466H187.743V108.243ZM194.216 114.566C193.501 114.566 192.927 114.375 192.495 113.992C192.063 113.61 191.846 113.103 191.846 112.471H193.256C193.256 112.737 193.343 112.953 193.518 113.119C193.692 113.277 193.925 113.356 194.216 113.356H195.326C195.609 113.356 195.829 113.311 195.987 113.219C196.154 113.119 196.237 112.986 196.237 112.82V112.546C196.237 112.429 196.187 112.329 196.087 112.246C195.996 112.163 195.867 112.105 195.7 112.072L193.543 111.697C193.06 111.614 192.678 111.44 192.395 111.174C192.113 110.899 191.971 110.583 191.971 110.226V109.814C191.971 109.299 192.175 108.891 192.582 108.592C192.998 108.293 193.568 108.143 194.291 108.143H195.289C195.946 108.143 196.478 108.322 196.885 108.679C197.293 109.037 197.496 109.506 197.496 110.089H196.087C196.087 109.864 196.012 109.685 195.863 109.552C195.721 109.419 195.53 109.353 195.289 109.353H194.303C194.012 109.353 193.788 109.398 193.63 109.49C193.472 109.581 193.393 109.71 193.393 109.877V110.126C193.393 110.242 193.439 110.342 193.53 110.425C193.63 110.508 193.759 110.562 193.917 110.587L196.149 110.987C196.607 111.078 196.973 111.253 197.247 111.51C197.521 111.768 197.659 112.072 197.659 112.421V112.882C197.659 113.398 197.446 113.809 197.022 114.117C196.598 114.416 196.033 114.566 195.326 114.566H194.216Z" fill="#6E6E6E"/>
<path d="M66.1382 133.214H67.4602L70.4037 138.602L73.2723 133.214H74.5944V141.944H73.1601V135.92L71.1021 139.737C70.9857 139.936 70.8735 140.082 70.7654 140.173C70.6573 140.256 70.5367 140.298 70.4037 140.298H69.9921L67.56 135.92V141.944H66.1382V133.214ZM77.9052 142.044C77.2732 142.044 76.7619 141.886 76.3711 141.57C75.9886 141.246 75.7974 140.818 75.7974 140.286V139.837C75.7974 139.313 75.9969 138.893 76.396 138.577C76.8035 138.261 77.3356 138.103 77.9925 138.103H78.7658C78.9986 138.103 79.248 138.136 79.5141 138.203C79.7802 138.269 80.0171 138.356 80.225 138.465V137.691C80.225 137.434 80.1419 137.226 79.9756 137.068C79.8093 136.91 79.5931 136.831 79.327 136.831H78.2793C78.0049 136.831 77.7846 136.897 77.6183 137.03C77.452 137.155 77.3689 137.321 77.3689 137.529H75.972C75.972 136.955 76.184 136.494 76.6081 136.145C77.0321 135.795 77.5892 135.621 78.2793 135.621H79.327C80.0255 135.621 80.5867 135.812 81.0108 136.195C81.4348 136.569 81.6469 137.068 81.6469 137.691V141.944H80.3123V141.159C80.1128 141.425 79.8633 141.641 79.564 141.807C79.2646 141.965 78.9695 142.044 78.6785 142.044H77.9052ZM78.7658 140.922C79.0984 140.922 79.3977 140.83 79.6638 140.647C79.9298 140.456 80.1169 140.207 80.225 139.899V139.6C80.0837 139.483 79.8841 139.392 79.6263 139.325C79.3686 139.25 79.0984 139.213 78.8156 139.213H78.0299C77.7804 139.213 77.5767 139.275 77.4188 139.4C77.2691 139.525 77.1942 139.687 77.1942 139.886V140.236C77.1942 140.444 77.2732 140.61 77.4312 140.735C77.5892 140.859 77.7971 140.922 78.0548 140.922H78.7658ZM82.9215 135.721H84.256V136.531C84.4389 136.257 84.6801 136.037 84.9794 135.87C85.2787 135.704 85.5781 135.621 85.8774 135.621H86.6507C87.2909 135.621 87.8023 135.825 88.1848 136.232C88.5756 136.639 88.771 137.176 88.771 137.841V141.944H87.3367V137.878C87.3367 137.579 87.2577 137.338 87.0997 137.155C86.95 136.964 86.7505 136.868 86.501 136.868H85.7277C85.4034 136.868 85.1124 136.993 84.8547 137.242C84.5969 137.483 84.4306 137.795 84.3558 138.178V141.944H82.9215V135.721ZM91.9492 142.044C91.3172 142.044 90.8059 141.886 90.4151 141.57C90.0326 141.246 89.8413 140.818 89.8413 140.286V139.837C89.8413 139.313 90.0409 138.893 90.44 138.577C90.8474 138.261 91.3796 138.103 92.0365 138.103H92.8097C93.0426 138.103 93.292 138.136 93.5581 138.203C93.8242 138.269 94.0611 138.356 94.269 138.465V137.691C94.269 137.434 94.1859 137.226 94.0196 137.068C93.8533 136.91 93.6371 136.831 93.371 136.831H92.3233C92.0489 136.831 91.8286 136.897 91.6623 137.03C91.496 137.155 91.4128 137.321 91.4128 137.529H90.016C90.016 136.955 90.228 136.494 90.652 136.145C91.0761 135.795 91.6332 135.621 92.3233 135.621H93.371C94.0694 135.621 94.6307 135.812 95.0548 136.195C95.4788 136.569 95.6908 137.068 95.6908 137.691V141.944H94.3563V141.159C94.1567 141.425 93.9073 141.641 93.608 141.807C93.3086 141.965 93.0135 142.044 92.7224 142.044H91.9492ZM92.8097 140.922C93.1423 140.922 93.4417 140.83 93.7077 140.647C93.9738 140.456 94.1609 140.207 94.269 139.899V139.6C94.1276 139.483 93.9281 139.392 93.6703 139.325C93.4126 139.25 93.1423 139.213 92.8596 139.213H92.0739C91.8244 139.213 91.6207 139.275 91.4627 139.4C91.3131 139.525 91.2382 139.687 91.2382 139.886V140.236C91.2382 140.444 91.3172 140.61 91.4752 140.735C91.6332 140.859 91.8411 140.922 92.0988 140.922H92.8097ZM99.2479 144.476C98.6243 144.476 98.1046 144.302 97.6888 143.952C97.2731 143.603 97.0444 143.142 97.0029 142.568H98.4122C98.4372 142.776 98.5245 142.942 98.6742 143.067C98.8321 143.192 99.0234 143.254 99.2479 143.254H100.345C100.661 143.254 100.911 143.133 101.094 142.892C101.285 142.659 101.381 142.343 101.381 141.944V141.233C101.206 141.433 100.99 141.595 100.732 141.72C100.483 141.845 100.237 141.907 99.9962 141.907H99.1232C98.4081 141.907 97.826 141.687 97.377 141.246C96.9363 140.797 96.716 140.211 96.716 139.487V138.153C96.716 137.654 96.8199 137.213 97.0278 136.831C97.2357 136.448 97.5267 136.153 97.9009 135.945C98.2834 135.729 98.7199 135.621 99.2105 135.621H99.9837C100.266 135.621 100.545 135.692 100.819 135.833C101.094 135.966 101.31 136.145 101.468 136.369V135.721H102.815V141.944C102.815 142.718 102.59 143.333 102.141 143.79C101.701 144.248 101.102 144.476 100.345 144.476H99.2479ZM100.071 140.685C100.429 140.685 100.728 140.543 100.969 140.261C101.21 139.978 101.347 139.612 101.381 139.163V138.078C101.347 137.72 101.218 137.429 100.994 137.205C100.769 136.972 100.499 136.856 100.183 136.856H99.3227C98.9735 136.856 98.6908 136.985 98.4746 137.242C98.2584 137.492 98.1503 137.824 98.1503 138.24V139.4C98.1503 139.782 98.2459 140.094 98.4372 140.335C98.6367 140.568 98.8945 140.685 99.2105 140.685H100.071ZM105.093 135.022C104.811 135.022 104.582 134.939 104.407 134.773C104.241 134.598 104.158 134.378 104.158 134.112C104.158 133.846 104.241 133.629 104.407 133.463C104.582 133.289 104.811 133.201 105.093 133.201C105.376 133.201 105.605 133.289 105.779 133.463C105.954 133.629 106.041 133.846 106.041 134.112C106.041 134.378 105.954 134.598 105.779 134.773C105.605 134.939 105.376 135.022 105.093 135.022ZM104.382 135.721H105.817V141.944H104.382V135.721ZM107.392 135.721H108.727V136.531C108.909 136.257 109.151 136.037 109.45 135.87C109.749 135.704 110.049 135.621 110.348 135.621H111.121C111.761 135.621 112.273 135.825 112.655 136.232C113.046 136.639 113.241 137.176 113.241 137.841V141.944H111.807V137.878C111.807 137.579 111.728 137.338 111.57 137.155C111.421 136.964 111.221 136.868 110.972 136.868H110.198C109.874 136.868 109.583 136.993 109.325 137.242C109.067 137.483 108.901 137.795 108.826 138.178V141.944H107.392V135.721ZM116.794 144.476C116.17 144.476 115.651 144.302 115.235 143.952C114.819 143.603 114.59 143.142 114.549 142.568H115.958C115.983 142.776 116.07 142.942 116.22 143.067C116.378 143.192 116.569 143.254 116.794 143.254H117.891C118.207 143.254 118.457 143.133 118.64 142.892C118.831 142.659 118.927 142.343 118.927 141.944V141.233C118.752 141.433 118.536 141.595 118.278 141.72C118.029 141.845 117.783 141.907 117.542 141.907H116.669C115.954 141.907 115.372 141.687 114.923 141.246C114.482 140.797 114.262 140.211 114.262 139.487V138.153C114.262 137.654 114.366 137.213 114.574 136.831C114.782 136.448 115.073 136.153 115.447 135.945C115.829 135.729 116.266 135.621 116.756 135.621H117.53C117.812 135.621 118.091 135.692 118.365 135.833C118.64 135.966 118.856 136.145 119.014 136.369V135.721H120.361V141.944C120.361 142.718 120.136 143.333 119.687 143.79C119.247 144.248 118.648 144.476 117.891 144.476H116.794ZM117.617 140.685C117.975 140.685 118.274 140.543 118.515 140.261C118.756 139.978 118.893 139.612 118.927 139.163V138.078C118.893 137.72 118.764 137.429 118.54 137.205C118.315 136.972 118.045 136.856 117.729 136.856H116.869C116.519 136.856 116.237 136.985 116.021 137.242C115.804 137.492 115.696 137.824 115.696 138.24V139.4C115.696 139.782 115.792 140.094 115.983 140.335C116.183 140.568 116.44 140.685 116.756 140.685H117.617ZM126.996 142.044C126.281 142.044 125.707 141.853 125.275 141.47C124.842 141.088 124.626 140.581 124.626 139.949H126.036C126.036 140.215 126.123 140.431 126.297 140.597C126.472 140.755 126.705 140.834 126.996 140.834H128.106C128.389 140.834 128.609 140.789 128.767 140.697C128.933 140.597 129.016 140.464 129.016 140.298V140.024C129.016 139.907 128.967 139.807 128.867 139.724C128.775 139.641 128.646 139.583 128.48 139.55L126.322 139.175C125.84 139.092 125.458 138.918 125.175 138.652C124.892 138.377 124.751 138.061 124.751 137.704V137.292C124.751 136.777 124.955 136.369 125.362 136.07C125.778 135.771 126.347 135.621 127.071 135.621H128.068C128.725 135.621 129.258 135.8 129.665 136.157C130.072 136.515 130.276 136.985 130.276 137.567H128.867C128.867 137.342 128.792 137.163 128.642 137.03C128.501 136.897 128.31 136.831 128.068 136.831H127.083C126.792 136.831 126.568 136.876 126.41 136.968C126.252 137.059 126.173 137.188 126.173 137.355V137.604C126.173 137.72 126.218 137.82 126.31 137.903C126.41 137.986 126.539 138.041 126.697 138.065L128.929 138.465C129.386 138.556 129.752 138.731 130.027 138.988C130.301 139.246 130.438 139.55 130.438 139.899V140.36C130.438 140.876 130.226 141.287 129.802 141.595C129.378 141.894 128.813 142.044 128.106 142.044H126.996ZM133.32 142.044C132.688 142.044 132.177 141.886 131.786 141.57C131.404 141.246 131.212 140.818 131.212 140.286V139.837C131.212 139.313 131.412 138.893 131.811 138.577C132.218 138.261 132.751 138.103 133.407 138.103H134.181C134.414 138.103 134.663 138.136 134.929 138.203C135.195 138.269 135.432 138.356 135.64 138.465V137.691C135.64 137.434 135.557 137.226 135.391 137.068C135.224 136.91 135.008 136.831 134.742 136.831H133.694C133.42 136.831 133.2 136.897 133.033 137.03C132.867 137.155 132.784 137.321 132.784 137.529H131.387C131.387 136.955 131.599 136.494 132.023 136.145C132.447 135.795 133.004 135.621 133.694 135.621H134.742C135.44 135.621 136.002 135.812 136.426 136.195C136.85 136.569 137.062 137.068 137.062 137.691V141.944H135.727V141.159C135.528 141.425 135.278 141.641 134.979 141.807C134.68 141.965 134.384 142.044 134.093 142.044H133.32ZM134.181 140.922C134.513 140.922 134.813 140.83 135.079 140.647C135.345 140.456 135.532 140.207 135.64 139.899V139.6C135.499 139.483 135.299 139.392 135.041 139.325C134.784 139.25 134.513 139.213 134.231 139.213H133.445C133.195 139.213 132.992 139.275 132.834 139.4C132.684 139.525 132.609 139.687 132.609 139.886V140.236C132.609 140.444 132.688 140.61 132.846 140.735C133.004 140.859 133.212 140.922 133.47 140.922H134.181ZM140.344 141.944C139.646 141.944 139.135 141.799 138.81 141.508C138.494 141.208 138.336 140.739 138.336 140.098V133.214H139.771V140.036C139.771 140.277 139.821 140.452 139.92 140.56C140.02 140.66 140.186 140.71 140.419 140.71H141.018V141.944H140.344ZM143.975 142.044C143.468 142.044 143.019 141.948 142.628 141.757C142.246 141.566 141.946 141.296 141.73 140.947C141.522 140.597 141.418 140.194 141.418 139.737V138.065C141.418 137.583 141.522 137.159 141.73 136.793C141.946 136.419 142.246 136.132 142.628 135.933C143.019 135.725 143.468 135.621 143.975 135.621H144.973C145.73 135.621 146.337 135.841 146.794 136.282C147.251 136.723 147.48 137.309 147.48 138.041V139.288H142.853V139.737C142.853 140.069 142.953 140.335 143.152 140.535C143.36 140.735 143.634 140.834 143.975 140.834H144.936C145.268 140.834 145.534 140.755 145.734 140.597C145.942 140.431 146.046 140.215 146.046 139.949H147.455C147.455 140.581 147.222 141.088 146.757 141.47C146.291 141.853 145.68 142.044 144.923 142.044H143.975ZM146.071 138.215V138.041C146.071 137.675 145.971 137.379 145.771 137.155C145.572 136.93 145.31 136.818 144.985 136.818H143.975C143.634 136.818 143.356 136.939 143.14 137.18C142.932 137.413 142.828 137.72 142.828 138.103V138.215H146.071ZM150.577 142.044C149.862 142.044 149.288 141.853 148.856 141.47C148.424 141.088 148.208 140.581 148.208 139.949H149.617C149.617 140.215 149.704 140.431 149.879 140.597C150.053 140.755 150.286 140.834 150.577 140.834H151.687C151.97 140.834 152.19 140.789 152.348 140.697C152.515 140.597 152.598 140.464 152.598 140.298V140.024C152.598 139.907 152.548 139.807 152.448 139.724C152.357 139.641 152.228 139.583 152.061 139.55L149.904 139.175C149.422 139.092 149.039 138.918 148.756 138.652C148.474 138.377 148.332 138.061 148.332 137.704V137.292C148.332 136.777 148.536 136.369 148.943 136.07C149.359 135.771 149.929 135.621 150.652 135.621H151.65C152.307 135.621 152.839 135.8 153.246 136.157C153.654 136.515 153.857 136.985 153.857 137.567H152.448C152.448 137.342 152.373 137.163 152.224 137.03C152.082 136.897 151.891 136.831 151.65 136.831H150.665C150.374 136.831 150.149 136.876 149.991 136.968C149.833 137.059 149.754 137.188 149.754 137.355V137.604C149.754 137.72 149.8 137.82 149.891 137.903C149.991 137.986 150.12 138.041 150.278 138.065L152.51 138.465C152.968 138.556 153.334 138.731 153.608 138.988C153.882 139.246 154.02 139.55 154.02 139.899V140.36C154.02 140.876 153.808 141.287 153.384 141.595C152.959 141.894 152.394 142.044 151.687 142.044H150.577ZM160.859 141.944C160.152 141.944 159.637 141.786 159.312 141.47C158.988 141.154 158.826 140.656 158.826 139.974V136.955H157.728V135.721H158.863V133.837H160.26V135.721H161.882V136.955H160.26V139.924C160.26 140.198 160.314 140.398 160.422 140.522C160.53 140.647 160.701 140.71 160.934 140.71H161.882V141.944H160.859ZM162.984 135.721H164.318V136.569C164.485 136.311 164.722 136.103 165.029 135.945C165.345 135.779 165.669 135.696 166.002 135.696H166.75V136.943H166.002C165.528 136.943 165.146 137.088 164.855 137.379C164.564 137.67 164.418 138.049 164.418 138.514V141.944H162.984V135.721ZM169.113 142.044C168.481 142.044 167.969 141.886 167.579 141.57C167.196 141.246 167.005 140.818 167.005 140.286V139.837C167.005 139.313 167.204 138.893 167.603 138.577C168.011 138.261 168.543 138.103 169.2 138.103H169.973C170.206 138.103 170.455 138.136 170.722 138.203C170.988 138.269 171.225 138.356 171.432 138.465V137.691C171.432 137.434 171.349 137.226 171.183 137.068C171.017 136.91 170.801 136.831 170.534 136.831H169.487C169.212 136.831 168.992 136.897 168.826 137.03C168.659 137.155 168.576 137.321 168.576 137.529H167.179C167.179 136.955 167.391 136.494 167.816 136.145C168.24 135.795 168.797 135.621 169.487 135.621H170.534C171.233 135.621 171.794 135.812 172.218 136.195C172.642 136.569 172.854 137.068 172.854 137.691V141.944H171.52V141.159C171.32 141.425 171.071 141.641 170.771 141.807C170.472 141.965 170.177 142.044 169.886 142.044H169.113ZM169.973 140.922C170.306 140.922 170.605 140.83 170.871 140.647C171.137 140.456 171.324 140.207 171.432 139.899V139.6C171.291 139.483 171.092 139.392 170.834 139.325C170.576 139.25 170.306 139.213 170.023 139.213H169.237C168.988 139.213 168.784 139.275 168.626 139.4C168.477 139.525 168.402 139.687 168.402 139.886V140.236C168.402 140.444 168.481 140.61 168.639 140.735C168.797 140.859 169.005 140.922 169.262 140.922H169.973ZM174.129 135.721H175.463V136.531C175.646 136.257 175.888 136.037 176.187 135.87C176.486 135.704 176.786 135.621 177.085 135.621H177.858C178.498 135.621 179.01 135.825 179.392 136.232C179.783 136.639 179.978 137.176 179.978 137.841V141.944H178.544V137.878C178.544 137.579 178.465 137.338 178.307 137.155C178.157 136.964 177.958 136.868 177.708 136.868H176.935C176.611 136.868 176.32 136.993 176.062 137.242C175.804 137.483 175.638 137.795 175.563 138.178V141.944H174.129V135.721ZM183.306 142.044C182.591 142.044 182.017 141.853 181.585 141.47C181.153 141.088 180.937 140.581 180.937 139.949H182.346C182.346 140.215 182.433 140.431 182.608 140.597C182.782 140.755 183.015 140.834 183.306 140.834H184.416C184.699 140.834 184.919 140.789 185.077 140.697C185.244 140.597 185.327 140.464 185.327 140.298V140.024C185.327 139.907 185.277 139.807 185.177 139.724C185.086 139.641 184.957 139.583 184.79 139.55L182.633 139.175C182.151 139.092 181.768 138.918 181.485 138.652C181.203 138.377 181.061 138.061 181.061 137.704V137.292C181.061 136.777 181.265 136.369 181.672 136.07C182.088 135.771 182.658 135.621 183.381 135.621H184.379C185.036 135.621 185.568 135.8 185.975 136.157C186.383 136.515 186.587 136.985 186.587 137.567H185.177C185.177 137.342 185.102 137.163 184.953 137.03C184.811 136.897 184.62 136.831 184.379 136.831H183.394C183.103 136.831 182.878 136.876 182.72 136.968C182.562 137.059 182.483 137.188 182.483 137.355V137.604C182.483 137.72 182.529 137.82 182.62 137.903C182.72 137.986 182.849 138.041 183.007 138.065L185.239 138.465C185.697 138.556 186.063 138.731 186.337 138.988C186.611 139.246 186.749 139.55 186.749 139.899V140.36C186.749 140.876 186.537 141.287 186.113 141.595C185.689 141.894 185.123 142.044 184.416 142.044H183.306ZM189.631 142.044C188.999 142.044 188.487 141.886 188.096 141.57C187.714 141.246 187.523 140.818 187.523 140.286V139.837C187.523 139.313 187.722 138.893 188.121 138.577C188.529 138.261 189.061 138.103 189.718 138.103H190.491C190.724 138.103 190.973 138.136 191.239 138.203C191.506 138.269 191.742 138.356 191.95 138.465V137.691C191.95 137.434 191.867 137.226 191.701 137.068C191.535 136.91 191.318 136.831 191.052 136.831H190.005C189.73 136.831 189.51 136.897 189.344 137.03C189.177 137.155 189.094 137.321 189.094 137.529H187.697C187.697 136.955 187.909 136.494 188.333 136.145C188.757 135.795 189.315 135.621 190.005 135.621H191.052C191.751 135.621 192.312 135.812 192.736 136.195C193.16 136.569 193.372 137.068 193.372 137.691V141.944H192.038V141.159C191.838 141.425 191.589 141.641 191.289 141.807C190.99 141.965 190.695 142.044 190.404 142.044H189.631ZM190.491 140.922C190.824 140.922 191.123 140.83 191.389 140.647C191.655 140.456 191.842 140.207 191.95 139.899V139.6C191.809 139.483 191.609 139.392 191.352 139.325C191.094 139.25 190.824 139.213 190.541 139.213H189.755C189.506 139.213 189.302 139.275 189.144 139.4C188.994 139.525 188.92 139.687 188.92 139.886V140.236C188.92 140.444 188.999 140.61 189.157 140.735C189.315 140.859 189.522 140.922 189.78 140.922H190.491ZM196.929 142.044C196.164 142.044 195.549 141.824 195.083 141.383C194.626 140.942 194.397 140.36 194.397 139.637V138.065C194.397 137.583 194.501 137.159 194.709 136.793C194.917 136.419 195.212 136.132 195.595 135.933C195.977 135.725 196.418 135.621 196.917 135.621H197.915C198.63 135.621 199.203 135.829 199.636 136.245C200.076 136.652 200.297 137.192 200.297 137.866H198.887C198.887 137.567 198.796 137.325 198.613 137.143C198.438 136.951 198.206 136.856 197.915 136.856H196.929C196.605 136.856 196.339 136.976 196.131 137.217C195.931 137.458 195.832 137.77 195.832 138.153V139.55C195.832 139.924 195.931 140.227 196.131 140.46C196.339 140.693 196.609 140.809 196.942 140.809H197.927C198.235 140.809 198.48 140.697 198.663 140.473C198.854 140.248 198.95 139.957 198.95 139.6H200.359C200.359 140.331 200.135 140.922 199.686 141.371C199.245 141.82 198.659 142.044 197.927 142.044H196.929ZM203.862 141.944C203.155 141.944 202.64 141.786 202.315 141.47C201.991 141.154 201.829 140.656 201.829 139.974V136.955H200.731V135.721H201.866V133.837H203.263V135.721H204.885V136.955H203.263V139.924C203.263 140.198 203.317 140.398 203.425 140.522C203.534 140.647 203.704 140.71 203.937 140.71H204.885V141.944H203.862ZM206.922 135.022C206.64 135.022 206.411 134.939 206.236 134.773C206.07 134.598 205.987 134.378 205.987 134.112C205.987 133.846 206.07 133.629 206.236 133.463C206.411 133.289 206.64 133.201 206.922 133.201C207.205 133.201 207.434 133.289 207.608 133.463C207.783 133.629 207.87 133.846 207.87 134.112C207.87 134.378 207.783 134.598 207.608 134.773C207.434 134.939 207.205 135.022 206.922 135.022ZM206.211 135.721H207.646V141.944H206.211V135.721ZM211.516 142.044C210.751 142.044 210.135 141.824 209.67 141.383C209.204 140.934 208.971 140.344 208.971 139.612V138.065C208.971 137.583 209.075 137.159 209.283 136.793C209.499 136.419 209.799 136.132 210.181 135.933C210.572 135.725 211.021 135.621 211.528 135.621H212.626C213.133 135.621 213.578 135.725 213.96 135.933C214.351 136.132 214.65 136.419 214.858 136.793C215.075 137.159 215.183 137.583 215.183 138.065V139.612C215.183 140.344 214.946 140.934 214.472 141.383C214.006 141.824 213.382 142.044 212.601 142.044H211.516ZM212.588 140.809C212.938 140.809 213.216 140.693 213.424 140.46C213.64 140.219 213.748 139.907 213.748 139.525V138.14C213.748 137.758 213.644 137.45 213.436 137.217C213.229 136.976 212.95 136.856 212.601 136.856H211.553C211.204 136.856 210.925 136.976 210.718 137.217C210.51 137.45 210.406 137.758 210.406 138.14V139.525C210.406 139.907 210.51 140.219 210.718 140.46C210.925 140.693 211.196 140.809 211.528 140.809H212.588ZM216.279 135.721H217.614V136.531C217.797 136.257 218.038 136.037 218.337 135.87C218.637 135.704 218.936 135.621 219.235 135.621H220.009C220.649 135.621 221.16 135.825 221.543 136.232C221.933 136.639 222.129 137.176 222.129 137.841V141.944H220.695V137.878C220.695 137.579 220.616 137.338 220.458 137.155C220.308 136.964 220.108 136.868 219.859 136.868H219.086C218.761 136.868 218.47 136.993 218.213 137.242C217.955 137.483 217.789 137.795 217.714 138.178V141.944H216.279V135.721ZM225.457 142.044C224.742 142.044 224.168 141.853 223.736 141.47C223.303 141.088 223.087 140.581 223.087 139.949H224.496C224.496 140.215 224.584 140.431 224.758 140.597C224.933 140.755 225.166 140.834 225.457 140.834H226.567C226.85 140.834 227.07 140.789 227.228 140.697C227.394 140.597 227.477 140.464 227.477 140.298V140.024C227.477 139.907 227.427 139.807 227.328 139.724C227.236 139.641 227.107 139.583 226.941 139.55L224.783 139.175C224.301 139.092 223.919 138.918 223.636 138.652C223.353 138.377 223.212 138.061 223.212 137.704V137.292C223.212 136.777 223.415 136.369 223.823 136.07C224.239 135.771 224.808 135.621 225.532 135.621H226.529C227.186 135.621 227.718 135.8 228.126 136.157C228.533 136.515 228.737 136.985 228.737 137.567H227.328C227.328 137.342 227.253 137.163 227.103 137.03C226.962 136.897 226.771 136.831 226.529 136.831H225.544C225.253 136.831 225.029 136.876 224.871 136.968C224.713 137.059 224.634 137.188 224.634 137.355V137.604C224.634 137.72 224.679 137.82 224.771 137.903C224.871 137.986 224.999 138.041 225.157 138.065L227.39 138.465C227.847 138.556 228.213 138.731 228.488 138.988C228.762 139.246 228.899 139.55 228.899 139.899V140.36C228.899 140.876 228.687 141.287 228.263 141.595C227.839 141.894 227.274 142.044 226.567 142.044H225.457ZM233.693 136.955H232.62V135.721H233.693V135.284C233.693 134.611 233.893 134.091 234.292 133.725C234.699 133.351 235.269 133.164 236 133.164H236.761V134.386H236.025C235.718 134.386 235.489 134.461 235.339 134.611C235.198 134.752 235.127 134.981 235.127 135.297V135.721H236.624V136.955H235.127V141.944H233.693V136.955ZM239.464 142.044C238.699 142.044 238.084 141.824 237.618 141.383C237.152 140.934 236.92 140.344 236.92 139.612V138.065C236.92 137.583 237.024 137.159 237.231 136.793C237.448 136.419 237.747 136.132 238.129 135.933C238.52 135.725 238.969 135.621 239.476 135.621H240.574C241.081 135.621 241.526 135.725 241.908 135.933C242.299 136.132 242.599 136.419 242.806 136.793C243.023 137.159 243.131 137.583 243.131 138.065V139.612C243.131 140.344 242.894 140.934 242.42 141.383C241.954 141.824 241.331 142.044 240.549 142.044H239.464ZM240.537 140.809C240.886 140.809 241.164 140.693 241.372 140.46C241.588 140.219 241.696 139.907 241.696 139.525V138.14C241.696 137.758 241.593 137.45 241.385 137.217C241.177 136.976 240.898 136.856 240.549 136.856H239.501C239.152 136.856 238.874 136.976 238.666 137.217C238.458 137.45 238.354 137.758 238.354 138.14V139.525C238.354 139.907 238.458 140.219 238.666 140.46C238.874 140.693 239.144 140.809 239.476 140.809H240.537ZM244.228 135.721H245.562V136.569C245.728 136.311 245.965 136.103 246.273 135.945C246.589 135.779 246.913 135.696 247.246 135.696H247.994V136.943H247.246C246.772 136.943 246.389 137.088 246.098 137.379C245.807 137.67 245.662 138.049 245.662 138.514V141.944H244.228V135.721ZM253.785 142.044C253.153 142.044 252.642 141.886 252.251 141.57C251.869 141.246 251.677 140.818 251.677 140.286V139.837C251.677 139.313 251.877 138.893 252.276 138.577C252.684 138.261 253.216 138.103 253.873 138.103H254.646C254.879 138.103 255.128 138.136 255.394 138.203C255.66 138.269 255.897 138.356 256.105 138.465V137.691C256.105 137.434 256.022 137.226 255.856 137.068C255.689 136.91 255.473 136.831 255.207 136.831H254.159C253.885 136.831 253.665 136.897 253.498 137.03C253.332 137.155 253.249 137.321 253.249 137.529H251.852C251.852 136.955 252.064 136.494 252.488 136.145C252.912 135.795 253.469 135.621 254.159 135.621H255.207C255.906 135.621 256.467 135.812 256.891 136.195C257.315 136.569 257.527 137.068 257.527 137.691V141.944H256.192V141.159C255.993 141.425 255.743 141.641 255.444 141.807C255.145 141.965 254.85 142.044 254.559 142.044H253.785ZM254.646 140.922C254.978 140.922 255.278 140.83 255.544 140.647C255.81 140.456 255.997 140.207 256.105 139.899V139.6C255.964 139.483 255.764 139.392 255.506 139.325C255.249 139.25 254.978 139.213 254.696 139.213H253.91C253.661 139.213 253.457 139.275 253.299 139.4C253.149 139.525 253.074 139.687 253.074 139.886V140.236C253.074 140.444 253.153 140.61 253.311 140.735C253.469 140.859 253.677 140.922 253.935 140.922H254.646ZM258.802 135.721H260.136V136.531C260.319 136.257 260.56 136.037 260.86 135.87C261.159 135.704 261.458 135.621 261.758 135.621H262.531C263.171 135.621 263.682 135.825 264.065 136.232C264.456 136.639 264.651 137.176 264.651 137.841V141.944H263.217V137.878C263.217 137.579 263.138 137.338 262.98 137.155C262.83 136.964 262.631 136.868 262.381 136.868H261.608C261.284 136.868 260.993 136.993 260.735 137.242C260.477 137.483 260.311 137.795 260.236 138.178V141.944H258.802V135.721ZM271.45 142.044C270.685 142.044 270.07 141.824 269.604 141.383C269.138 140.934 268.906 140.344 268.906 139.612V138.065C268.906 137.583 269.01 137.159 269.217 136.793C269.434 136.419 269.733 136.132 270.115 135.933C270.506 135.725 270.955 135.621 271.462 135.621H272.56C273.067 135.621 273.512 135.725 273.895 135.933C274.285 136.132 274.585 136.419 274.793 136.793C275.009 137.159 275.117 137.583 275.117 138.065V139.612C275.117 140.344 274.88 140.934 274.406 141.383C273.94 141.824 273.317 142.044 272.535 142.044H271.45ZM272.523 140.809C272.872 140.809 273.15 140.693 273.358 140.46C273.574 140.219 273.683 139.907 273.683 139.525V138.14C273.683 137.758 273.579 137.45 273.371 137.217C273.163 136.976 272.884 136.856 272.535 136.856H271.487C271.138 136.856 270.86 136.976 270.652 137.217C270.444 137.45 270.34 137.758 270.34 138.14V139.525C270.34 139.907 270.444 140.219 270.652 140.46C270.86 140.693 271.13 140.809 271.462 140.809H272.523ZM276.214 135.721H277.548V136.531C277.731 136.257 277.972 136.037 278.272 135.87C278.571 135.704 278.87 135.621 279.17 135.621H279.943C280.583 135.621 281.094 135.825 281.477 136.232C281.868 136.639 282.063 137.176 282.063 137.841V141.944H280.629V137.878C280.629 137.579 280.55 137.338 280.392 137.155C280.242 136.964 280.043 136.868 279.793 136.868H279.02C278.696 136.868 278.405 136.993 278.147 137.242C277.889 137.483 277.723 137.795 277.648 138.178V141.944H276.214V135.721ZM285.341 141.944C284.643 141.944 284.131 141.799 283.807 141.508C283.491 141.208 283.333 140.739 283.333 140.098V133.214H284.767V140.036C284.767 140.277 284.817 140.452 284.917 140.56C285.017 140.66 285.183 140.71 285.416 140.71H286.015V141.944H285.341ZM287.6 135.022C287.317 135.022 287.089 134.939 286.914 134.773C286.748 134.598 286.664 134.378 286.664 134.112C286.664 133.846 286.748 133.629 286.914 133.463C287.089 133.289 287.317 133.201 287.6 133.201C287.883 133.201 288.111 133.289 288.286 133.463C288.461 133.629 288.548 133.846 288.548 134.112C288.548 134.378 288.461 134.598 288.286 134.773C288.111 134.939 287.883 135.022 287.6 135.022ZM286.889 135.721H288.323V141.944H286.889V135.721ZM289.899 135.721H291.233V136.531C291.416 136.257 291.657 136.037 291.956 135.87C292.256 135.704 292.555 135.621 292.854 135.621H293.628C294.268 135.621 294.779 135.825 295.162 136.232C295.553 136.639 295.748 137.176 295.748 137.841V141.944H294.314V137.878C294.314 137.579 294.235 137.338 294.077 137.155C293.927 136.964 293.728 136.868 293.478 136.868H292.705C292.381 136.868 292.089 136.993 291.832 137.242C291.574 137.483 291.408 137.795 291.333 138.178V141.944H289.899V135.721ZM299.325 142.044C298.818 142.044 298.369 141.948 297.978 141.757C297.596 141.566 297.297 141.296 297.08 140.947C296.872 140.597 296.769 140.194 296.769 139.737V138.065C296.769 137.583 296.872 137.159 297.08 136.793C297.297 136.419 297.596 136.132 297.978 135.933C298.369 135.725 298.818 135.621 299.325 135.621H300.323C301.08 135.621 301.687 135.841 302.144 136.282C302.601 136.723 302.83 137.309 302.83 138.041V139.288H298.203V139.737C298.203 140.069 298.303 140.335 298.502 140.535C298.71 140.735 298.984 140.834 299.325 140.834H300.286C300.618 140.834 300.884 140.755 301.084 140.597C301.292 140.431 301.396 140.215 301.396 139.949H302.805C302.805 140.581 302.572 141.088 302.107 141.47C301.641 141.853 301.03 142.044 300.273 142.044H299.325ZM301.421 138.215V138.041C301.421 137.675 301.321 137.379 301.121 137.155C300.922 136.93 300.66 136.818 300.336 136.818H299.325C298.984 136.818 298.706 136.939 298.49 137.18C298.282 137.413 298.178 137.72 298.178 138.103V138.215H301.421ZM307.103 135.721H308.438V136.569C308.604 136.311 308.841 136.103 309.149 135.945C309.465 135.779 309.789 135.696 310.122 135.696H310.87V136.943H310.122C309.648 136.943 309.265 137.088 308.974 137.379C308.683 137.67 308.538 138.049 308.538 138.514V141.944H307.103V135.721ZM313.631 142.044C313.124 142.044 312.675 141.948 312.284 141.757C311.902 141.566 311.603 141.296 311.386 140.947C311.179 140.597 311.075 140.194 311.075 139.737V138.065C311.075 137.583 311.179 137.159 311.386 136.793C311.603 136.419 311.902 136.132 312.284 135.933C312.675 135.725 313.124 135.621 313.631 135.621H314.629C315.386 135.621 315.993 135.841 316.45 136.282C316.907 136.723 317.136 137.309 317.136 138.041V139.288H312.509V139.737C312.509 140.069 312.609 140.335 312.808 140.535C313.016 140.735 313.291 140.834 313.631 140.834H314.592C314.924 140.834 315.19 140.755 315.39 140.597C315.598 140.431 315.702 140.215 315.702 139.949H317.111C317.111 140.581 316.878 141.088 316.413 141.47C315.947 141.853 315.336 142.044 314.579 142.044H313.631ZM315.727 138.215V138.041C315.727 137.675 315.627 137.379 315.427 137.155C315.228 136.93 314.966 136.818 314.642 136.818H313.631C313.291 136.818 313.012 136.939 312.796 137.18C312.588 137.413 312.484 137.72 312.484 138.103V138.215H315.727ZM320.734 141.944C320.027 141.944 319.512 141.786 319.188 141.47C318.863 141.154 318.701 140.656 318.701 139.974V136.955H317.604V135.721H318.739V133.837H320.135V135.721H321.757V136.955H320.135V139.924C320.135 140.198 320.189 140.398 320.298 140.522C320.406 140.647 320.576 140.71 320.809 140.71H321.757V141.944H320.734ZM324.621 142.044C323.989 142.044 323.478 141.886 323.087 141.57C322.704 141.246 322.513 140.818 322.513 140.286V139.837C322.513 139.313 322.713 138.893 323.112 138.577C323.519 138.261 324.051 138.103 324.708 138.103H325.482C325.714 138.103 325.964 138.136 326.23 138.203C326.496 138.269 326.733 138.356 326.941 138.465V137.691C326.941 137.434 326.858 137.226 326.691 137.068C326.525 136.91 326.309 136.831 326.043 136.831H324.995C324.721 136.831 324.501 136.897 324.334 137.03C324.168 137.155 324.085 137.321 324.085 137.529H322.688C322.688 136.955 322.9 136.494 323.324 136.145C323.748 135.795 324.305 135.621 324.995 135.621H326.043C326.741 135.621 327.303 135.812 327.727 136.195C328.151 136.569 328.363 137.068 328.363 137.691V141.944H327.028V141.159C326.829 141.425 326.579 141.641 326.28 141.807C325.981 141.965 325.685 142.044 325.394 142.044H324.621ZM325.482 140.922C325.814 140.922 326.114 140.83 326.38 140.647C326.646 140.456 326.833 140.207 326.941 139.899V139.6C326.8 139.483 326.6 139.392 326.342 139.325C326.084 139.25 325.814 139.213 325.532 139.213H324.746C324.496 139.213 324.293 139.275 324.135 139.4C323.985 139.525 323.91 139.687 323.91 139.886V140.236C323.91 140.444 323.989 140.61 324.147 140.735C324.305 140.859 324.513 140.922 324.771 140.922H325.482ZM330.573 135.022C330.29 135.022 330.061 134.939 329.887 134.773C329.721 134.598 329.637 134.378 329.637 134.112C329.637 133.846 329.721 133.629 329.887 133.463C330.061 133.289 330.29 133.201 330.573 133.201C330.855 133.201 331.084 133.289 331.259 133.463C331.433 133.629 331.521 133.846 331.521 134.112C331.521 134.378 331.433 134.598 331.259 134.773C331.084 134.939 330.855 135.022 330.573 135.022ZM329.862 135.721H331.296V141.944H329.862V135.721ZM334.879 141.944C334.181 141.944 333.67 141.799 333.345 141.508C333.029 141.208 332.871 140.739 332.871 140.098V133.214H334.306V140.036C334.306 140.277 334.356 140.452 334.455 140.56C334.555 140.66 334.721 140.71 334.954 140.71H335.553V141.944H334.879ZM66.0883 151.721H67.4228V152.457C67.5974 152.207 67.8219 152.008 68.0963 151.858C68.379 151.7 68.6534 151.621 68.9195 151.621H69.7426C70.466 151.621 71.0481 151.841 71.4888 152.282C71.9378 152.714 72.1623 153.288 72.1623 154.003V155.45C72.1623 156.231 71.9419 156.859 71.5012 157.333C71.0605 157.807 70.4744 158.044 69.7426 158.044H68.907C68.6659 158.044 68.4164 157.986 68.1587 157.87C67.9009 157.745 67.6889 157.583 67.5226 157.383V160.439H66.0883V151.721ZM69.593 156.809C69.9339 156.809 70.2083 156.676 70.4161 156.41C70.6323 156.144 70.7404 155.795 70.7404 155.363V154.09C70.7404 153.725 70.6365 153.429 70.4286 153.205C70.2207 152.972 69.9464 152.856 69.6054 152.856H68.8072C68.5245 152.856 68.2626 152.968 68.0215 153.192C67.7887 153.409 67.6224 153.691 67.5226 154.041V155.487C67.5642 155.878 67.7013 156.198 67.9342 156.448C68.1753 156.689 68.4622 156.809 68.7948 156.809H69.593ZM75.2645 157.944C74.566 157.944 74.0546 157.799 73.7304 157.508C73.4144 157.208 73.2564 156.739 73.2564 156.098V149.214H74.6907V156.036C74.6907 156.277 74.7406 156.452 74.8404 156.56C74.9402 156.66 75.1065 156.71 75.3393 156.71H75.938V157.944H75.2645ZM78.4961 158.044C77.8642 158.044 77.3528 157.886 76.9621 157.57C76.5796 157.246 76.3883 156.818 76.3883 156.286V155.837C76.3883 155.313 76.5879 154.893 76.987 154.577C77.3944 154.261 77.9266 154.103 78.5834 154.103H79.3567C79.5895 154.103 79.839 154.136 80.1051 154.203C80.3711 154.269 80.6081 154.356 80.816 154.465V153.691C80.816 153.434 80.7328 153.226 80.5665 153.068C80.4002 152.91 80.1841 152.831 79.918 152.831H78.8703C78.5959 152.831 78.3756 152.897 78.2093 153.03C78.043 153.155 77.9598 153.321 77.9598 153.529H76.5629C76.5629 152.955 76.775 152.494 77.199 152.145C77.6231 151.795 78.1802 151.621 78.8703 151.621H79.918C80.6164 151.621 81.1777 151.812 81.6017 152.195C82.0258 152.569 82.2378 153.068 82.2378 153.691V157.944H80.9033V157.159C80.7037 157.425 80.4543 157.641 80.155 157.807C79.8556 157.965 79.5604 158.044 79.2694 158.044H78.4961ZM79.3567 156.922C79.6893 156.922 79.9887 156.83 80.2547 156.647C80.5208 156.456 80.7079 156.207 80.816 155.899V155.6C80.6746 155.483 80.4751 155.392 80.2173 155.325C79.9596 155.25 79.6893 155.213 79.4066 155.213H78.6209C78.3714 155.213 78.1677 155.275 78.0097 155.4C77.8601 155.525 77.7852 155.687 77.7852 155.886V156.236C77.7852 156.444 77.8642 156.61 78.0222 156.735C78.1802 156.859 78.388 156.922 78.6458 156.922H79.3567ZM86.1441 157.944C85.4373 157.944 84.9218 157.786 84.5975 157.47C84.2732 157.154 84.1111 156.656 84.1111 155.974V152.955H83.0135V151.721H84.1485V149.837H85.5454V151.721H87.1668V152.955H85.5454V155.924C85.5454 156.198 85.5995 156.398 85.7076 156.522C85.8156 156.647 85.9861 156.71 86.2189 156.71H87.1668V157.944H86.1441ZM88.8552 152.955H87.7825V151.721H88.8552V151.284C88.8552 150.611 89.0547 150.091 89.4538 149.725C89.8612 149.351 90.4308 149.164 91.1625 149.164H91.9233V150.386H91.1875C90.8798 150.386 90.6512 150.461 90.5015 150.611C90.3601 150.752 90.2895 150.981 90.2895 151.297V151.721H91.7861V152.955H90.2895V157.944H88.8552V152.955ZM94.6261 158.044C93.8611 158.044 93.2458 157.824 92.7802 157.383C92.3146 156.934 92.0818 156.344 92.0818 155.612V154.065C92.0818 153.583 92.1857 153.159 92.3936 152.793C92.6098 152.419 92.9091 152.132 93.2916 151.933C93.6824 151.725 94.1314 151.621 94.6386 151.621H95.7361C96.2434 151.621 96.6882 151.725 97.0707 151.933C97.4615 152.132 97.7608 152.419 97.9687 152.793C98.1849 153.159 98.293 153.583 98.293 154.065V155.612C98.293 156.344 98.056 156.934 97.582 157.383C97.1164 157.824 96.4928 158.044 95.7112 158.044H94.6261ZM95.6987 156.809C96.048 156.809 96.3265 156.693 96.5344 156.46C96.7506 156.219 96.8587 155.907 96.8587 155.525V154.14C96.8587 153.758 96.7547 153.45 96.5468 153.217C96.339 152.976 96.0604 152.856 95.7112 152.856H94.6635C94.3143 152.856 94.0358 152.976 93.8279 153.217C93.62 153.45 93.5161 153.758 93.5161 154.14V155.525C93.5161 155.907 93.62 156.219 93.8279 156.46C94.0358 156.693 94.306 156.809 94.6386 156.809H95.6987ZM99.3897 151.721H100.724V152.569C100.891 152.311 101.128 152.103 101.435 151.945C101.751 151.779 102.075 151.696 102.408 151.696H103.156V152.943H102.408C101.934 152.943 101.552 153.088 101.261 153.379C100.97 153.67 100.824 154.049 100.824 154.514V157.944H99.3897V151.721ZM110.815 151.621C111.422 151.621 111.904 151.816 112.261 152.207C112.627 152.598 112.81 153.122 112.81 153.779V157.944H111.376V153.766C111.376 153.492 111.314 153.276 111.189 153.118C111.064 152.951 110.898 152.868 110.69 152.868H110.091C109.817 152.868 109.584 152.968 109.393 153.167C109.202 153.359 109.077 153.621 109.019 153.953V157.944H107.597V153.804C107.597 153.521 107.534 153.296 107.41 153.13C107.285 152.955 107.119 152.868 106.911 152.868H106.35C106.075 152.868 105.834 152.993 105.626 153.242C105.427 153.483 105.298 153.799 105.24 154.19V157.944H103.805V151.721H105.14V152.506C105.298 152.232 105.497 152.016 105.738 151.858C105.98 151.7 106.225 151.621 106.474 151.621H107.185C107.501 151.621 107.784 151.704 108.033 151.87C108.283 152.028 108.478 152.253 108.62 152.544C108.802 152.253 109.023 152.028 109.281 151.87C109.538 151.704 109.813 151.621 110.104 151.621H110.815ZM114.74 158.069C114.466 158.069 114.246 157.986 114.079 157.82C113.913 157.653 113.83 157.433 113.83 157.159C113.83 156.893 113.913 156.676 114.079 156.51C114.246 156.344 114.466 156.261 114.74 156.261C115.006 156.261 115.223 156.344 115.389 156.51C115.555 156.676 115.638 156.893 115.638 157.159C115.638 157.433 115.555 157.653 115.389 157.82C115.223 157.986 115.006 158.069 114.74 158.069Z" fill="#6E6E6E"/>
<defs>
<filter id="filter0_b_4899_691" x="-68.1405" y="-113.966" width="506.33" height="317.406" filterUnits="userSpaceOnUse" color-interpolation-filters="sRGB">
<feFlood flood-opacity="0" result="BackgroundImageFix"/>
<feGaussianBlur in="BackgroundImageFix" stdDeviation="57.3725"/>
<feComposite in2="SourceAlpha" operator="in" result="effect1_backgroundBlur_4899_691"/>
<feBlend mode="normal" in="SourceGraphic" in2="effect1_backgroundBlur_4899_691" result="shape"/>
</filter>
<filter id="filter1_b_4899_691" x="-91.8446" y="-90.9408" width="553.74" height="316.911" filterUnits="userSpaceOnUse" color-interpolation-filters="sRGB">
<feFlood flood-opacity="0" result="BackgroundImageFix"/>
<feGaussianBlur in="BackgroundImageFix" stdDeviation="57.3725"/>
<feComposite in2="SourceAlpha" operator="in" result="effect1_backgroundBlur_4899_691"/>
<feBlend mode="normal" in="SourceGraphic" in2="effect1_backgroundBlur_4899_691" result="shape"/>
</filter>
</defs>
</svg>
