<svg width="370" height="178" viewBox="0 0 370 178" fill="none" xmlns="http://www.w3.org/2000/svg">
<g filter="url(#filter0_b_5579_4054)">
<path d="M46.1699 10.9544C46.1699 4.90444 51.0744 0 57.1243 0H312.055C318.105 0 323.01 4.90444 323.01 10.9544V76.9609C323.01 83.0108 318.105 87.9153 312.055 87.9153H57.1243C51.0744 87.9153 46.1699 83.0108 46.1699 76.9609V10.9544Z" fill="white" fill-opacity="0.05"/>
<path d="M57.1243 0.547719H312.055C317.803 0.547719 322.462 5.20694 322.462 10.9544V76.9609C322.462 82.7083 317.803 87.3676 312.055 87.3676H57.1243C51.3769 87.3676 46.7176 82.7083 46.7176 76.9609V10.9544C46.7176 5.20694 51.3769 0.547719 57.1243 0.547719Z" stroke="#EBEAE7" stroke-opacity="0.15" stroke-width="1.09544"/>
</g>
<g filter="url(#filter1_b_5579_4054)">
<rect x="22.4648" y="23.0254" width="324.25" height="87.4213" rx="10.9544" fill="white" fill-opacity="0.05"/>
<rect x="23.0126" y="23.5731" width="323.154" height="86.3259" rx="10.4067" stroke="#EBEAE7" stroke-opacity="0.15" stroke-width="1.09544"/>
</g>
<rect y="45.5566" width="369.18" height="131.886" rx="12.4723" fill="#1C1C1C"/>
<rect x="0.623614" y="46.1803" width="367.932" height="130.639" rx="11.8487" stroke="#EBEAE7" stroke-opacity="0.15" stroke-width="1.24723"/>
<path d="M42.614 83.753H32.2204C31.4409 83.753 30.8693 83.7218 30.3808 83.6491C26.9301 83.2749 26.2441 81.2066 26.2441 77.7767V75.698C26.2441 72.2681 26.9301 70.1998 30.412 69.8152C30.8693 69.7529 31.4409 69.7217 32.2204 69.7217H42.614C43.3935 69.7217 43.9652 69.7529 44.4537 69.8256C47.9147 70.2102 48.5903 72.2681 48.5903 75.698V77.7767C48.5903 81.2066 47.9043 83.2749 44.4225 83.6595C43.9652 83.7218 43.3935 83.753 42.614 83.753ZM32.2204 71.2807C31.5137 71.2807 31.0148 71.3119 30.6094 71.3639C28.4995 71.6029 27.8032 72.2577 27.8032 75.698V77.7767C27.8032 81.217 28.4995 81.8718 30.5783 82.1108C31.0148 82.1732 31.5137 82.194 32.2204 82.194H42.614C43.3208 82.194 43.8197 82.1628 44.225 82.1108C46.3349 81.8822 47.0313 81.217 47.0313 77.7767V75.698C47.0313 72.2577 46.3349 71.6029 44.2562 71.3639C43.8197 71.3015 43.3208 71.2807 42.614 71.2807H32.2204V71.2807Z" fill="#BCBCBC"/>
<path d="M40.8782 87.9105H33.956C30.734 87.9105 29.7051 86.8816 29.7051 83.67V83.3166C29.7051 83.1399 29.7051 82.984 29.7155 82.8281C29.7259 82.6098 29.8298 82.4123 30.0065 82.2772C30.1728 82.1421 30.3911 82.0797 30.6093 82.1109C31.0251 82.1733 31.524 82.1941 32.2203 82.1941H42.6139C43.3207 82.1941 43.8195 82.1629 44.2249 82.1109C44.4432 82.0797 44.6614 82.1421 44.8277 82.2772C44.994 82.4123 45.098 82.6098 45.1187 82.8281C45.1291 82.9944 45.1291 83.1399 45.1291 83.3166V83.67C45.1291 86.8816 44.1002 87.9105 40.8782 87.9105ZM31.2641 83.7323C31.2745 86.0085 31.6383 86.3515 33.956 86.3515H40.8782C43.1959 86.3515 43.5597 86.0085 43.5701 83.7323C43.2895 83.7427 42.9777 83.7531 42.6139 83.7531H32.2203C31.8565 83.7531 31.5447 83.7427 31.2641 83.7323Z" fill="#BCBCBC"/>
<path d="M44.3392 71.374C44.2976 71.374 44.2665 71.374 44.2249 71.3636C43.8092 71.3012 43.3103 71.2804 42.6139 71.2804H32.2203C31.5136 71.2804 31.0147 71.3116 30.6093 71.3636C30.3911 71.3948 30.1728 71.3324 30.0065 71.1973C29.8402 71.0622 29.7363 70.8647 29.7155 70.6464C29.7051 70.4801 29.7051 70.3346 29.7051 70.1579V69.8045C29.7051 66.5929 30.734 65.564 33.956 65.564H40.8782C44.1002 65.564 45.1291 66.5929 45.1291 69.8045V70.1579C45.1291 70.3346 45.1291 70.4905 45.1187 70.6464C45.1083 70.8647 45.0044 71.0622 44.8277 71.1973C44.6926 71.3116 44.5159 71.374 44.3392 71.374ZM32.2203 69.7214H42.6139C42.9777 69.7214 43.2895 69.7318 43.5701 69.7422C43.5597 67.466 43.1959 67.123 40.8782 67.123H33.956C31.6383 67.123 31.2745 67.466 31.2641 69.7422C31.5447 69.7318 31.8565 69.7214 32.2203 69.7214Z" fill="#BCBCBC"/>
<path d="M65.94 71.5145H68.0877L73.9547 79.826V71.5145H76.312V83.7373H74.1642L68.2973 75.4258V83.7373H65.94V71.5145ZM81.4416 83.877C80.7082 83.877 80.0563 83.7431 79.4859 83.4754C78.9272 83.196 78.4907 82.8119 78.1764 82.3229C77.8621 81.8224 77.7049 81.252 77.7049 80.6118V78.3593C77.7049 77.6724 77.8621 77.0671 78.1764 76.5433C78.4907 76.0195 78.9272 75.612 79.4859 75.321C80.0563 75.03 80.7082 74.8845 81.4416 74.8845H82.8385C83.956 74.8845 84.8524 75.1988 85.5275 75.8274C86.2027 76.456 86.5403 77.2941 86.5403 78.3418V80.1927H80.0796V80.6118C80.0796 80.9959 80.2019 81.3044 80.4463 81.5372C80.6908 81.77 81.0225 81.8864 81.4416 81.8864H82.8036C83.211 81.8864 83.5369 81.7991 83.7814 81.6245C84.0375 81.4382 84.1655 81.1996 84.1655 80.9086H86.5053C86.5053 81.4906 86.3482 82.0086 86.0339 82.4626C85.7196 82.9166 85.2772 83.2659 84.7068 83.5103C84.1481 83.7548 83.502 83.877 82.7687 83.877H81.4416ZM84.2005 78.4815V78.3418C84.2005 77.8878 84.0782 77.5269 83.8338 77.2592C83.5893 76.9798 83.2634 76.8401 82.856 76.8401H81.4416C81.0225 76.8401 80.6849 76.9856 80.4289 77.2767C80.1728 77.5677 80.0447 77.9518 80.0447 78.4291V78.4815H84.2005ZM90.2966 83.7373C89.5167 83.7373 89.0161 83.2833 88.7949 82.3753L87.0314 75.0242H89.4934L90.5585 80.5594H90.5934L92.4967 75.2337H93.4222C93.6899 75.2337 93.9053 75.2919 94.0682 75.4083C94.2312 75.5247 94.3592 75.7052 94.4524 75.9496L96.0763 80.5594H96.1112L97.1589 75.0242H99.6209L97.8922 82.3753C97.6827 83.2833 97.1821 83.7373 96.3906 83.7373H95.308L93.3698 78.2196L91.3617 83.7373H90.2966ZM109.593 83.877C108.674 83.877 107.859 83.6849 107.149 83.3008C106.45 82.905 105.903 82.3579 105.507 81.6594C105.123 80.9493 104.931 80.1287 104.931 79.1974V76.0544C104.931 75.1231 105.123 74.3083 105.507 73.6098C105.903 72.8997 106.45 72.3526 107.149 71.9685C107.859 71.5727 108.674 71.3748 109.593 71.3748H111.444C112.364 71.3748 113.173 71.5727 113.871 71.9685C114.581 72.3526 115.128 72.8997 115.512 73.6098C115.908 74.3083 116.106 75.1231 116.106 76.0544V79.1974C116.106 80.1287 115.908 80.9493 115.512 81.6594C115.128 82.3579 114.581 82.905 113.871 83.3008C113.173 83.6849 112.364 83.877 111.444 83.877H109.593ZM111.444 81.7467C112.119 81.7467 112.66 81.5023 113.068 81.0134C113.487 80.5244 113.697 79.8842 113.697 79.0926V76.1591C113.697 75.3676 113.487 74.7273 113.068 74.2384C112.66 73.7495 112.119 73.505 111.444 73.505H109.593C108.918 73.505 108.371 73.7495 107.952 74.2384C107.544 74.7273 107.341 75.3676 107.341 76.1591V79.0926C107.341 79.8842 107.544 80.5244 107.952 81.0134C108.371 81.5023 108.918 81.7467 109.593 81.7467H111.444ZM117.497 75.0242H119.697V76.1417C119.918 75.8041 120.232 75.5305 120.64 75.321C121.059 75.0998 121.495 74.9892 121.949 74.9892H123.137V77.0497H121.949C121.332 77.0497 120.832 77.2359 120.448 77.6084C120.063 77.9809 119.871 78.4582 119.871 79.0402V83.7373H117.497V75.0242ZM126.667 83.877C125.631 83.877 124.793 83.5627 124.153 82.9341C123.524 82.3055 123.21 81.479 123.21 80.4546V78.464C123.21 77.7539 123.361 77.1312 123.664 76.5957C123.966 76.0486 124.391 75.6295 124.938 75.3385C125.486 75.0358 126.12 74.8845 126.842 74.8845H127.802C128.14 74.8845 128.483 74.9601 128.832 75.1115C129.181 75.2512 129.472 75.4432 129.705 75.6877V71.5145H132.08V83.7373H129.88V82.5849C129.647 82.969 129.333 83.2833 128.937 83.5278C128.541 83.7606 128.128 83.877 127.697 83.877H126.667ZM127.959 81.834C128.436 81.834 128.832 81.6652 129.147 81.3277C129.472 80.9784 129.659 80.5186 129.705 79.9482V78.4291C129.624 77.9751 129.443 77.6142 129.164 77.3465C128.896 77.0671 128.576 76.9274 128.204 76.9274H127.139C126.673 76.9274 126.295 77.0846 126.004 77.3989C125.724 77.7132 125.584 78.1264 125.584 78.6386V80.28C125.584 80.7456 125.713 81.1239 125.969 81.415C126.225 81.6943 126.556 81.834 126.964 81.834H127.959ZM137.135 83.877C136.402 83.877 135.75 83.7431 135.18 83.4754C134.621 83.196 134.184 82.8119 133.87 82.3229C133.556 81.8224 133.399 81.252 133.399 80.6118V78.3593C133.399 77.6724 133.556 77.0671 133.87 76.5433C134.184 76.0195 134.621 75.612 135.18 75.321C135.75 75.03 136.402 74.8845 137.135 74.8845H138.532C139.65 74.8845 140.546 75.1988 141.221 75.8274C141.896 76.456 142.234 77.2941 142.234 78.3418V80.1927H135.773V80.6118C135.773 80.9959 135.896 81.3044 136.14 81.5372C136.384 81.77 136.716 81.8864 137.135 81.8864H138.497C138.905 81.8864 139.231 81.7991 139.475 81.6245C139.731 81.4382 139.859 81.1996 139.859 80.9086H142.199C142.199 81.4906 142.042 82.0086 141.728 82.4626C141.413 82.9166 140.971 83.2659 140.401 83.5103C139.842 83.7548 139.196 83.877 138.462 83.877H137.135ZM139.894 78.4815V78.3418C139.894 77.8878 139.772 77.5269 139.527 77.2592C139.283 76.9798 138.957 76.8401 138.55 76.8401H137.135C136.716 76.8401 136.379 76.9856 136.123 77.2767C135.866 77.5677 135.738 77.9518 135.738 78.4291V78.4815H139.894ZM143.493 75.0242H145.693V76.1417C145.915 75.8041 146.229 75.5305 146.636 75.321C147.055 75.0998 147.492 74.9892 147.946 74.9892H149.133V77.0497H147.946C147.329 77.0497 146.828 77.2359 146.444 77.6084C146.06 77.9809 145.868 78.4582 145.868 79.0402V83.7373H143.493V75.0242Z" fill="#F2F2F2"/>
<path d="M71.7762 108.216C72.6842 108.375 73.3776 108.66 73.8565 109.069C74.3355 109.468 74.5749 109.987 74.5749 110.625V111.613C74.5749 112.391 74.2756 113.025 73.6769 113.514C73.0783 114.003 72.28 114.267 71.2823 114.307V115.714H69.2468V114.307C68.1792 114.297 67.341 113.983 66.7324 113.364C66.1337 112.746 65.8344 111.898 65.8344 110.82H67.8698C67.8698 111.339 67.9996 111.748 68.259 112.047C68.5284 112.337 68.8976 112.481 69.3665 112.481H71.0278C71.4669 112.481 71.8211 112.391 72.0905 112.212C72.3698 112.022 72.5095 111.773 72.5095 111.464V110.955C72.5095 110.466 72.1503 110.161 71.4319 110.042L68.6781 109.578C67.78 109.428 67.0966 109.144 66.6276 108.725C66.1686 108.296 65.9391 107.752 65.9391 107.093V106.255C65.9391 105.746 66.0738 105.292 66.3432 104.893C66.6226 104.494 67.0118 104.18 67.5106 103.95C68.0095 103.721 68.5883 103.601 69.2468 103.591V102.184H71.2823V103.591C72.2202 103.641 72.9685 103.955 73.5273 104.534C74.096 105.113 74.3804 105.871 74.3804 106.809H72.3449C72.3449 106.39 72.2302 106.056 72.0007 105.806C71.7712 105.547 71.4669 105.417 71.0877 105.417H69.3965C68.9774 105.417 68.6381 105.507 68.3787 105.686C68.1293 105.866 68.0045 106.105 68.0045 106.405V106.809C68.0045 107.308 68.3488 107.617 69.0373 107.737L71.7762 108.216ZM77.4673 105.956L75.0576 107.168V105.252L77.9612 103.711H79.5327V114.188H77.4673V105.956ZM80.1578 115.505L80.6068 115.1C81.1256 114.632 81.385 114.063 81.385 113.394V112.406H83.4205V113.394C83.4205 114.063 83.2958 114.666 83.0464 115.205C82.8069 115.744 82.4527 116.198 81.9837 116.567L81.4748 116.971L80.1578 115.505ZM87.6875 114.307C87.0289 114.307 86.4502 114.183 85.9513 113.933C85.4524 113.684 85.0633 113.334 84.7839 112.885C84.5145 112.426 84.3798 111.903 84.3798 111.314H86.4302C86.4302 111.663 86.545 111.947 86.7745 112.167C87.004 112.377 87.3083 112.481 87.6875 112.481H88.9746C89.4036 112.481 89.7479 112.352 90.0073 112.092C90.2667 111.823 90.3964 111.469 90.3964 111.03V109.817C90.147 110.037 89.8477 110.216 89.4984 110.356C89.1492 110.496 88.8149 110.566 88.4957 110.566H87.4929C86.8144 110.566 86.2157 110.436 85.6969 110.176C85.188 109.907 84.7889 109.533 84.4995 109.054C84.2202 108.575 84.0805 108.021 84.0805 107.393V106.794C84.0805 106.165 84.2351 105.612 84.5444 105.133C84.8537 104.644 85.2928 104.265 85.8615 103.995C86.4302 103.726 87.0838 103.591 87.8222 103.591H88.8698C89.5782 103.591 90.2019 103.726 90.7407 103.995C91.2894 104.265 91.7135 104.644 92.0128 105.133C92.3122 105.622 92.4618 106.185 92.4618 106.824V111.03C92.4618 111.678 92.3172 112.252 92.0278 112.751C91.7384 113.24 91.3294 113.624 90.8005 113.903C90.2717 114.173 89.6631 114.307 88.9746 114.307H87.6875ZM88.5256 108.829C88.9746 108.829 89.3687 108.7 89.708 108.44C90.0572 108.181 90.2867 107.842 90.3964 107.423V106.704C90.3964 106.295 90.2567 105.966 89.9774 105.716C89.698 105.457 89.3288 105.327 88.8698 105.327H87.8222C87.3233 105.327 86.9192 105.462 86.6098 105.731C86.3005 106.001 86.1459 106.355 86.1459 106.794V107.393C86.1459 107.822 86.2656 108.171 86.5051 108.44C86.7545 108.7 87.0788 108.829 87.4779 108.829H88.5256ZM96.9323 114.307C96.2139 114.307 95.5803 114.192 95.0316 113.963C94.4828 113.724 94.0537 113.394 93.7444 112.975C93.4451 112.546 93.2954 112.057 93.2954 111.508V110.805C93.2954 110.426 93.4401 110.052 93.7295 109.683C94.0188 109.313 94.398 109.019 94.8669 108.799V108.785C94.4977 108.565 94.1984 108.286 93.9689 107.946C93.7494 107.607 93.6397 107.268 93.6397 106.929V106.27C93.6397 105.741 93.7793 105.277 94.0587 104.878C94.3481 104.469 94.7522 104.155 95.271 103.935C95.7999 103.706 96.4035 103.591 97.082 103.591H98.3691C99.0476 103.591 99.6463 103.706 100.165 103.935C100.694 104.155 101.098 104.469 101.377 104.878C101.667 105.277 101.811 105.741 101.811 106.27V106.929C101.811 107.258 101.697 107.597 101.467 107.946C101.248 108.286 100.953 108.565 100.584 108.785V108.799C101.053 109.019 101.432 109.313 101.722 109.683C102.011 110.052 102.156 110.426 102.156 110.805V111.508C102.156 112.057 102.001 112.546 101.692 112.975C101.392 113.394 100.968 113.724 100.42 113.963C99.8708 114.192 99.2372 114.307 98.5188 114.307H96.9323ZM98.3691 107.961C98.7782 107.961 99.1075 107.867 99.3569 107.677C99.6164 107.487 99.7461 107.238 99.7461 106.929V106.3C99.7461 106.021 99.6164 105.796 99.3569 105.627C99.1075 105.457 98.7782 105.372 98.3691 105.372H97.082C96.6729 105.372 96.3387 105.457 96.0792 105.627C95.8298 105.796 95.7051 106.021 95.7051 106.3V106.929C95.7051 107.238 95.8298 107.487 96.0792 107.677C96.3387 107.867 96.6729 107.961 97.082 107.961H98.3691ZM98.5188 112.526C98.9878 112.526 99.3669 112.426 99.6563 112.227C99.9456 112.017 100.09 111.743 100.09 111.404V110.85C100.09 110.501 99.9307 110.221 99.6114 110.012C99.3021 109.802 98.888 109.697 98.3691 109.697H97.082C96.5632 109.697 96.1441 109.802 95.8248 110.012C95.5155 110.221 95.3608 110.501 95.3608 110.85V111.404C95.3608 111.743 95.5055 112.017 95.7949 112.227C96.0842 112.426 96.4634 112.526 96.9323 112.526H98.5188ZM106.562 114.307C105.864 114.307 105.245 114.158 104.707 113.858C104.168 113.549 103.749 113.115 103.449 112.556C103.15 111.997 103 111.354 103 110.625V107.273C103 106.544 103.145 105.901 103.434 105.342C103.734 104.783 104.153 104.354 104.692 104.055C105.23 103.746 105.854 103.591 106.562 103.591H108.149C108.837 103.591 109.446 103.746 109.975 104.055C110.504 104.354 110.913 104.783 111.202 105.342C111.502 105.901 111.651 106.544 111.651 107.273V110.625C111.651 111.354 111.507 111.997 111.217 112.556C110.928 113.115 110.519 113.549 109.99 113.858C109.461 114.158 108.847 114.307 108.149 114.307H106.562ZM108.119 112.481C108.558 112.481 108.907 112.317 109.167 111.987C109.436 111.648 109.571 111.204 109.571 110.655V107.243C109.571 106.694 109.436 106.255 109.167 105.926C108.907 105.587 108.558 105.417 108.119 105.417H106.592C106.133 105.417 105.764 105.587 105.485 105.926C105.206 106.255 105.066 106.694 105.066 107.243V110.655C105.066 111.204 105.206 111.648 105.485 111.987C105.764 112.317 106.133 112.481 106.592 112.481H108.119ZM113.469 114.337C113.1 114.337 112.801 114.227 112.571 114.008C112.352 113.778 112.242 113.479 112.242 113.11C112.242 112.741 112.352 112.446 112.571 112.227C112.801 111.997 113.1 111.883 113.469 111.883C113.838 111.883 114.133 111.997 114.352 112.227C114.582 112.446 114.696 112.741 114.696 113.11C114.696 113.479 114.582 113.778 114.352 114.008C114.133 114.227 113.838 114.337 113.469 114.337ZM118.855 114.307C118.157 114.307 117.538 114.158 116.999 113.858C116.46 113.549 116.041 113.115 115.742 112.556C115.443 111.997 115.293 111.354 115.293 110.625V107.273C115.293 106.544 115.438 105.901 115.727 105.342C116.026 104.783 116.445 104.354 116.984 104.055C117.523 103.746 118.147 103.591 118.855 103.591H120.442C121.13 103.591 121.739 103.746 122.268 104.055C122.796 104.354 123.205 104.783 123.495 105.342C123.794 105.901 123.944 106.544 123.944 107.273V110.625C123.944 111.354 123.799 111.997 123.51 112.556C123.22 113.115 122.811 113.549 122.282 113.858C121.754 114.158 121.14 114.307 120.442 114.307H118.855ZM120.412 112.481C120.851 112.481 121.2 112.317 121.459 111.987C121.729 111.648 121.863 111.204 121.863 110.655V107.243C121.863 106.694 121.729 106.255 121.459 105.926C121.2 105.587 120.851 105.417 120.412 105.417H118.885C118.426 105.417 118.057 105.587 117.777 105.926C117.498 106.255 117.358 106.694 117.358 107.243V110.655C117.358 111.204 117.498 111.648 117.777 111.987C118.057 112.317 118.426 112.481 118.885 112.481H120.412ZM128.641 114.307C127.942 114.307 127.324 114.158 126.785 113.858C126.246 113.549 125.827 113.115 125.528 112.556C125.228 111.997 125.079 111.354 125.079 110.625V107.273C125.079 106.544 125.223 105.901 125.513 105.342C125.812 104.783 126.231 104.354 126.77 104.055C127.309 103.746 127.932 103.591 128.641 103.591H130.227C130.916 103.591 131.524 103.746 132.053 104.055C132.582 104.354 132.991 104.783 133.28 105.342C133.58 105.901 133.729 106.544 133.729 107.273V110.625C133.729 111.354 133.585 111.997 133.295 112.556C133.006 113.115 132.597 113.549 132.068 113.858C131.539 114.158 130.926 114.307 130.227 114.307H128.641ZM130.197 112.481C130.636 112.481 130.986 112.317 131.245 111.987C131.514 111.648 131.649 111.204 131.649 110.655V107.243C131.649 106.694 131.514 106.255 131.245 105.926C130.986 105.587 130.636 105.417 130.197 105.417H128.671C128.212 105.417 127.843 105.587 127.563 105.926C127.284 106.255 127.144 106.694 127.144 107.243V110.655C127.144 111.204 127.284 111.648 127.563 111.987C127.843 112.317 128.212 112.481 128.671 112.481H130.197Z" fill="#16BA7F"/>
<path d="M147.326 106.541L145.318 107.551V106.192L147.637 104.957H148.785V113.688H147.326V106.541ZM149.944 112.577C149.944 112.095 150.032 111.679 150.206 111.33C150.389 110.973 150.689 110.657 151.104 110.382L154.198 108.374C154.364 108.266 154.493 108.129 154.584 107.963C154.684 107.796 154.734 107.626 154.734 107.451V107.052C154.734 106.786 154.634 106.57 154.434 106.404C154.243 106.229 153.994 106.142 153.686 106.142H152.539C152.173 106.142 151.886 106.275 151.678 106.541C151.47 106.799 151.366 107.156 151.366 107.613H149.907C149.907 106.757 150.14 106.084 150.605 105.593C151.071 105.102 151.707 104.857 152.514 104.857H153.686C154.177 104.857 154.613 104.949 154.996 105.132C155.378 105.314 155.673 105.572 155.881 105.905C156.089 106.237 156.193 106.62 156.193 107.052V107.451C156.193 107.867 156.102 108.233 155.919 108.549C155.744 108.865 155.466 109.139 155.083 109.372L152.077 111.28C151.844 111.43 151.674 111.592 151.566 111.767C151.466 111.933 151.416 112.149 151.416 112.415H156.268V113.688H149.944V112.577ZM163.396 113.787C162.764 113.787 162.207 113.654 161.725 113.388C161.242 113.114 160.868 112.731 160.602 112.241C160.336 111.742 160.203 111.168 160.203 110.52V108.125C160.203 107.476 160.336 106.907 160.602 106.416C160.868 105.917 161.242 105.535 161.725 105.269C162.207 104.994 162.764 104.857 163.396 104.857H164.718C165.35 104.857 165.907 104.994 166.389 105.269C166.88 105.535 167.258 105.917 167.524 106.416C167.79 106.907 167.923 107.476 167.923 108.125V110.52C167.923 111.168 167.79 111.742 167.524 112.241C167.258 112.731 166.88 113.114 166.389 113.388C165.907 113.654 165.35 113.787 164.718 113.787H163.396ZM164.718 112.503C165.234 112.503 165.653 112.316 165.978 111.941C166.302 111.567 166.464 111.077 166.464 110.47V108.175C166.464 107.568 166.302 107.077 165.978 106.703C165.662 106.329 165.242 106.142 164.718 106.142H163.408C162.885 106.142 162.461 106.329 162.136 106.703C161.82 107.077 161.662 107.568 161.662 108.175V110.47C161.662 111.077 161.82 111.567 162.136 111.941C162.461 112.316 162.885 112.503 163.408 112.503H164.718ZM169.069 107.464H170.403V108.312C170.57 108.054 170.807 107.846 171.114 107.688C171.43 107.522 171.755 107.439 172.087 107.439H172.836V108.686H172.087C171.613 108.686 171.231 108.832 170.94 109.123C170.649 109.414 170.503 109.792 170.503 110.258V113.688H169.069V107.464ZM175.41 113.787C174.703 113.787 174.129 113.567 173.689 113.126C173.256 112.677 173.04 112.091 173.04 111.368V109.921C173.04 109.414 173.144 108.969 173.352 108.586C173.56 108.196 173.851 107.896 174.225 107.688C174.607 107.472 175.044 107.364 175.535 107.364H176.295C176.553 107.364 176.807 107.422 177.056 107.539C177.314 107.655 177.526 107.809 177.692 108V104.957H179.114V113.688H177.78V112.827C177.605 113.118 177.372 113.351 177.081 113.525C176.79 113.7 176.495 113.787 176.196 113.787H175.41ZM176.308 112.553C176.665 112.553 176.973 112.411 177.231 112.128C177.497 111.837 177.651 111.48 177.692 111.056V109.809C177.634 109.451 177.493 109.16 177.268 108.936C177.052 108.711 176.79 108.599 176.482 108.599H175.684C175.318 108.599 175.023 108.728 174.799 108.985C174.583 109.243 174.474 109.58 174.474 109.996V111.28C174.474 111.663 174.574 111.97 174.774 112.203C174.982 112.436 175.244 112.553 175.56 112.553H176.308ZM182.765 113.787C182.258 113.787 181.809 113.692 181.418 113.5C181.036 113.309 180.736 113.039 180.52 112.69C180.312 112.34 180.208 111.937 180.208 111.48V109.809C180.208 109.326 180.312 108.902 180.52 108.536C180.736 108.162 181.036 107.875 181.418 107.676C181.809 107.468 182.258 107.364 182.765 107.364H183.763C184.52 107.364 185.126 107.584 185.584 108.025C186.041 108.466 186.27 109.052 186.27 109.784V111.031H181.643V111.48C181.643 111.812 181.742 112.079 181.942 112.278C182.15 112.478 182.424 112.577 182.765 112.577H183.725C184.058 112.577 184.324 112.498 184.524 112.34C184.732 112.174 184.835 111.958 184.835 111.692H186.245C186.245 112.324 186.012 112.831 185.546 113.214C185.081 113.596 184.47 113.787 183.713 113.787H182.765ZM184.86 109.958V109.784C184.86 109.418 184.761 109.123 184.561 108.898C184.362 108.674 184.1 108.561 183.775 108.561H182.765C182.424 108.561 182.146 108.682 181.929 108.923C181.722 109.156 181.618 109.464 181.618 109.846V109.958H184.86ZM187.309 107.464H188.644V108.312C188.81 108.054 189.047 107.846 189.355 107.688C189.671 107.522 189.995 107.439 190.327 107.439H191.076V108.686H190.327C189.854 108.686 189.471 108.832 189.18 109.123C188.889 109.414 188.743 109.792 188.743 110.258V113.688H187.309V107.464ZM193.783 113.787C193.068 113.787 192.494 113.596 192.061 113.214C191.629 112.831 191.413 112.324 191.413 111.692H192.822C192.822 111.958 192.91 112.174 193.084 112.34C193.259 112.498 193.492 112.577 193.783 112.577H194.893C195.175 112.577 195.396 112.532 195.554 112.44C195.72 112.34 195.803 112.207 195.803 112.041V111.767C195.803 111.65 195.753 111.551 195.653 111.467C195.562 111.384 195.433 111.326 195.267 111.293L193.109 110.919C192.627 110.836 192.244 110.661 191.962 110.395C191.679 110.12 191.538 109.804 191.538 109.447V109.035C191.538 108.52 191.741 108.112 192.149 107.813C192.564 107.514 193.134 107.364 193.857 107.364H194.855C195.512 107.364 196.044 107.543 196.452 107.9C196.859 108.258 197.063 108.728 197.063 109.31H195.653C195.653 109.085 195.579 108.906 195.429 108.773C195.288 108.64 195.096 108.574 194.855 108.574H193.87C193.579 108.574 193.354 108.62 193.196 108.711C193.038 108.803 192.959 108.931 192.959 109.098V109.347C192.959 109.464 193.005 109.563 193.097 109.646C193.196 109.73 193.325 109.784 193.483 109.809L195.716 110.208C196.173 110.299 196.539 110.474 196.813 110.732C197.088 110.989 197.225 111.293 197.225 111.642V112.104C197.225 112.619 197.013 113.031 196.589 113.338C196.165 113.638 195.599 113.787 194.893 113.787H193.783Z" fill="#6E6E6E"/>
<path d="M65.7036 132.435H67.0256L69.9691 137.823L72.8377 132.435H74.1598V141.165H72.7255V135.141L70.6676 138.958C70.5511 139.157 70.4389 139.303 70.3308 139.394C70.2227 139.477 70.1021 139.519 69.9691 139.519H69.5575L67.1254 135.141V141.165H65.7036V132.435ZM77.4706 141.265C76.8387 141.265 76.3273 141.107 75.9365 140.791C75.554 140.467 75.3628 140.039 75.3628 139.506V139.057C75.3628 138.534 75.5623 138.114 75.9615 137.798C76.3689 137.482 76.901 137.324 77.5579 137.324H78.3312C78.564 137.324 78.8134 137.357 79.0795 137.424C79.3456 137.49 79.5826 137.577 79.7904 137.686V136.912C79.7904 136.654 79.7073 136.447 79.541 136.289C79.3747 136.131 79.1585 136.052 78.8924 136.052H77.8448C77.5704 136.052 77.35 136.118 77.1837 136.251C77.0174 136.376 76.9343 136.542 76.9343 136.75H75.5374C75.5374 136.176 75.7494 135.715 76.1735 135.366C76.5975 135.016 77.1546 134.842 77.8448 134.842H78.8924C79.5909 134.842 80.1521 135.033 80.5762 135.416C81.0003 135.79 81.2123 136.289 81.2123 136.912V141.165H79.8777V140.38C79.6782 140.646 79.4287 140.862 79.1294 141.028C78.8301 141.186 78.5349 141.265 78.2439 141.265H77.4706ZM78.3312 140.143C78.6638 140.143 78.9631 140.051 79.2292 139.868C79.4953 139.677 79.6824 139.427 79.7904 139.12V138.82C79.6491 138.704 79.4495 138.613 79.1918 138.546C78.934 138.471 78.6638 138.434 78.3811 138.434H77.5953C77.3459 138.434 77.1422 138.496 76.9842 138.621C76.8345 138.746 76.7597 138.908 76.7597 139.107V139.457C76.7597 139.664 76.8387 139.831 76.9967 139.955C77.1546 140.08 77.3625 140.143 77.6203 140.143H78.3312ZM82.4869 134.942H83.8214V135.752C84.0044 135.478 84.2455 135.258 84.5448 135.091C84.8442 134.925 85.1435 134.842 85.4428 134.842H86.2161C86.8564 134.842 87.3677 135.046 87.7502 135.453C88.141 135.86 88.3364 136.397 88.3364 137.062V141.165H86.9021V137.099C86.9021 136.8 86.8231 136.559 86.6651 136.376C86.5154 136.185 86.3159 136.089 86.0664 136.089H85.2932C84.9689 136.089 84.6779 136.214 84.4201 136.463C84.1623 136.704 83.996 137.016 83.9212 137.399V141.165H82.4869V134.942ZM91.5146 141.265C90.8827 141.265 90.3713 141.107 89.9805 140.791C89.598 140.467 89.4068 140.039 89.4068 139.506V139.057C89.4068 138.534 89.6063 138.114 90.0054 137.798C90.4129 137.482 90.945 137.324 91.6019 137.324H92.3752C92.608 137.324 92.8574 137.357 93.1235 137.424C93.3896 137.49 93.6266 137.577 93.8344 137.686V136.912C93.8344 136.654 93.7513 136.447 93.585 136.289C93.4187 136.131 93.2025 136.052 92.9364 136.052H91.8888C91.6144 136.052 91.394 136.118 91.2277 136.251C91.0614 136.376 90.9783 136.542 90.9783 136.75H89.5814C89.5814 136.176 89.7934 135.715 90.2175 135.366C90.6415 135.016 91.1986 134.842 91.8888 134.842H92.9364C93.6349 134.842 94.1961 135.033 94.6202 135.416C95.0442 135.79 95.2563 136.289 95.2563 136.912V141.165H93.9217V140.38C93.7222 140.646 93.4727 140.862 93.1734 141.028C92.8741 141.186 92.5789 141.265 92.2879 141.265H91.5146ZM92.3752 140.143C92.7078 140.143 93.0071 140.051 93.2732 139.868C93.5393 139.677 93.7263 139.427 93.8344 139.12V138.82C93.6931 138.704 93.4935 138.613 93.2358 138.546C92.978 138.471 92.7078 138.434 92.4251 138.434H91.6393C91.3899 138.434 91.1861 138.496 91.0282 138.621C90.8785 138.746 90.8037 138.908 90.8037 139.107V139.457C90.8037 139.664 90.8827 139.831 91.0406 139.955C91.1986 140.08 91.4065 140.143 91.6643 140.143H92.3752ZM98.8133 143.697C98.1897 143.697 97.67 143.523 97.2543 143.173C96.8385 142.824 96.6099 142.363 96.5683 141.789H97.9777C98.0026 141.997 98.0899 142.163 98.2396 142.288C98.3976 142.413 98.5888 142.475 98.8133 142.475H99.9109C100.227 142.475 100.476 142.354 100.659 142.113C100.85 141.88 100.946 141.564 100.946 141.165V140.454C100.771 140.654 100.555 140.816 100.298 140.941C100.048 141.066 99.8028 141.128 99.5616 141.128H98.6886C97.9735 141.128 97.3915 140.908 96.9425 140.467C96.5018 140.018 96.2814 139.432 96.2814 138.708V137.374C96.2814 136.875 96.3854 136.434 96.5932 136.052C96.8011 135.669 97.0921 135.374 97.4663 135.166C97.8488 134.95 98.2853 134.842 98.7759 134.842H99.5492C99.8319 134.842 100.11 134.913 100.385 135.054C100.659 135.187 100.875 135.366 101.033 135.59V134.942H102.38V141.165C102.38 141.939 102.156 142.554 101.707 143.011C101.266 143.468 100.668 143.697 99.9109 143.697H98.8133ZM99.6365 139.906C99.994 139.906 100.293 139.764 100.534 139.482C100.776 139.199 100.913 138.833 100.946 138.384V137.299C100.913 136.941 100.784 136.65 100.559 136.426C100.335 136.193 100.065 136.077 99.7487 136.077H98.8881C98.5389 136.077 98.2562 136.205 98.04 136.463C97.8238 136.713 97.7157 137.045 97.7157 137.461V138.621C97.7157 139.003 97.8114 139.315 98.0026 139.556C98.2022 139.789 98.4599 139.906 98.7759 139.906H99.6365ZM104.659 134.243C104.376 134.243 104.147 134.16 103.973 133.994C103.807 133.819 103.723 133.599 103.723 133.333C103.723 133.067 103.807 132.85 103.973 132.684C104.147 132.51 104.376 132.422 104.659 132.422C104.942 132.422 105.17 132.51 105.345 132.684C105.519 132.85 105.607 133.067 105.607 133.333C105.607 133.599 105.519 133.819 105.345 133.994C105.17 134.16 104.942 134.243 104.659 134.243ZM103.948 134.942H105.382V141.165H103.948V134.942ZM106.957 134.942H108.292V135.752C108.475 135.478 108.716 135.258 109.015 135.091C109.315 134.925 109.614 134.842 109.913 134.842H110.687C111.327 134.842 111.838 135.046 112.221 135.453C112.612 135.86 112.807 136.397 112.807 137.062V141.165H111.373V137.099C111.373 136.8 111.294 136.559 111.136 136.376C110.986 136.185 110.786 136.089 110.537 136.089H109.764C109.439 136.089 109.148 136.214 108.891 136.463C108.633 136.704 108.467 137.016 108.392 137.399V141.165H106.957V134.942ZM116.359 143.697C115.736 143.697 115.216 143.523 114.8 143.173C114.384 142.824 114.156 142.363 114.114 141.789H115.524C115.549 141.997 115.636 142.163 115.786 142.288C115.944 142.413 116.135 142.475 116.359 142.475H117.457C117.773 142.475 118.022 142.354 118.205 142.113C118.396 141.88 118.492 141.564 118.492 141.165V140.454C118.317 140.654 118.101 140.816 117.843 140.941C117.594 141.066 117.349 141.128 117.108 141.128H116.235C115.519 141.128 114.937 140.908 114.488 140.467C114.048 140.018 113.827 139.432 113.827 138.708V137.374C113.827 136.875 113.931 136.434 114.139 136.052C114.347 135.669 114.638 135.374 115.012 135.166C115.395 134.95 115.831 134.842 116.322 134.842H117.095C117.378 134.842 117.656 134.913 117.931 135.054C118.205 135.187 118.421 135.366 118.579 135.59V134.942H119.926V141.165C119.926 141.939 119.702 142.554 119.253 143.011C118.812 143.468 118.213 143.697 117.457 143.697H116.359ZM117.182 139.906C117.54 139.906 117.839 139.764 118.08 139.482C118.322 139.199 118.459 138.833 118.492 138.384V137.299C118.459 136.941 118.33 136.65 118.105 136.426C117.881 136.193 117.611 136.077 117.295 136.077H116.434C116.085 136.077 115.802 136.205 115.586 136.463C115.37 136.713 115.262 137.045 115.262 137.461V138.621C115.262 139.003 115.357 139.315 115.549 139.556C115.748 139.789 116.006 139.906 116.322 139.906H117.182ZM126.561 141.265C125.846 141.265 125.273 141.074 124.84 140.691C124.408 140.309 124.192 139.802 124.192 139.17H125.601C125.601 139.436 125.688 139.652 125.863 139.818C126.037 139.976 126.27 140.055 126.561 140.055H127.671C127.954 140.055 128.174 140.01 128.332 139.918C128.499 139.818 128.582 139.685 128.582 139.519V139.245C128.582 139.128 128.532 139.028 128.432 138.945C128.341 138.862 128.212 138.804 128.046 138.771L125.888 138.396C125.406 138.313 125.023 138.139 124.74 137.873C124.458 137.598 124.316 137.282 124.316 136.925V136.513C124.316 135.998 124.52 135.59 124.927 135.291C125.343 134.992 125.913 134.842 126.636 134.842H127.634C128.291 134.842 128.823 135.021 129.23 135.378C129.638 135.736 129.842 136.205 129.842 136.788H128.432C128.432 136.563 128.357 136.384 128.208 136.251C128.066 136.118 127.875 136.052 127.634 136.052H126.649C126.358 136.052 126.133 136.097 125.975 136.189C125.817 136.28 125.738 136.409 125.738 136.575V136.825C125.738 136.941 125.784 137.041 125.875 137.124C125.975 137.207 126.104 137.261 126.262 137.286L128.495 137.686C128.952 137.777 129.318 137.952 129.592 138.209C129.866 138.467 130.004 138.771 130.004 139.12V139.581C130.004 140.097 129.792 140.508 129.368 140.816C128.944 141.115 128.378 141.265 127.671 141.265H126.561ZM132.886 141.265C132.254 141.265 131.742 141.107 131.351 140.791C130.969 140.467 130.778 140.039 130.778 139.506V139.057C130.778 138.534 130.977 138.114 131.376 137.798C131.784 137.482 132.316 137.324 132.973 137.324H133.746C133.979 137.324 134.228 137.357 134.494 137.424C134.761 137.49 134.998 137.577 135.205 137.686V136.912C135.205 136.654 135.122 136.447 134.956 136.289C134.79 136.131 134.573 136.052 134.307 136.052H133.26C132.985 136.052 132.765 136.118 132.599 136.251C132.432 136.376 132.349 136.542 132.349 136.75H130.952C130.952 136.176 131.164 135.715 131.588 135.366C132.012 135.016 132.57 134.842 133.26 134.842H134.307C135.006 134.842 135.567 135.033 135.991 135.416C136.415 135.79 136.627 136.289 136.627 136.912V141.165H135.293V140.38C135.093 140.646 134.844 140.862 134.544 141.028C134.245 141.186 133.95 141.265 133.659 141.265H132.886ZM133.746 140.143C134.079 140.143 134.378 140.051 134.644 139.868C134.91 139.677 135.097 139.427 135.205 139.12V138.82C135.064 138.704 134.864 138.613 134.607 138.546C134.349 138.471 134.079 138.434 133.796 138.434H133.01C132.761 138.434 132.557 138.496 132.399 138.621C132.249 138.746 132.175 138.908 132.175 139.107V139.457C132.175 139.664 132.254 139.831 132.412 139.955C132.57 140.08 132.777 140.143 133.035 140.143H133.746ZM139.91 141.165C139.211 141.165 138.7 141.02 138.376 140.729C138.06 140.429 137.902 139.96 137.902 139.319V132.435H139.336V139.257C139.336 139.498 139.386 139.673 139.486 139.781C139.586 139.881 139.752 139.931 139.985 139.931H140.583V141.165H139.91ZM143.541 141.265C143.033 141.265 142.584 141.169 142.194 140.978C141.811 140.787 141.512 140.517 141.296 140.168C141.088 139.818 140.984 139.415 140.984 138.958V137.286C140.984 136.804 141.088 136.38 141.296 136.014C141.512 135.64 141.811 135.353 142.194 135.154C142.584 134.946 143.033 134.842 143.541 134.842H144.538C145.295 134.842 145.902 135.062 146.359 135.503C146.817 135.944 147.045 136.53 147.045 137.261V138.509H142.418V138.958C142.418 139.29 142.518 139.556 142.717 139.756C142.925 139.955 143.2 140.055 143.541 140.055H144.501C144.834 140.055 145.1 139.976 145.299 139.818C145.507 139.652 145.611 139.436 145.611 139.17H147.02C147.02 139.802 146.788 140.309 146.322 140.691C145.856 141.074 145.245 141.265 144.489 141.265H143.541ZM145.636 137.436V137.261C145.636 136.896 145.536 136.6 145.337 136.376C145.137 136.151 144.875 136.039 144.551 136.039H143.541C143.2 136.039 142.921 136.16 142.705 136.401C142.497 136.634 142.393 136.941 142.393 137.324V137.436H145.636ZM150.143 141.265C149.428 141.265 148.854 141.074 148.422 140.691C147.989 140.309 147.773 139.802 147.773 139.17H149.182C149.182 139.436 149.27 139.652 149.444 139.818C149.619 139.976 149.852 140.055 150.143 140.055H151.253C151.535 140.055 151.756 140.01 151.914 139.918C152.08 139.818 152.163 139.685 152.163 139.519V139.245C152.163 139.128 152.113 139.028 152.014 138.945C151.922 138.862 151.793 138.804 151.627 138.771L149.469 138.396C148.987 138.313 148.604 138.139 148.322 137.873C148.039 137.598 147.898 137.282 147.898 136.925V136.513C147.898 135.998 148.101 135.59 148.509 135.291C148.925 134.992 149.494 134.842 150.218 134.842H151.215C151.872 134.842 152.404 135.021 152.812 135.378C153.219 135.736 153.423 136.205 153.423 136.788H152.014C152.014 136.563 151.939 136.384 151.789 136.251C151.648 136.118 151.456 136.052 151.215 136.052H150.23C149.939 136.052 149.714 136.097 149.557 136.189C149.399 136.28 149.32 136.409 149.32 136.575V136.825C149.32 136.941 149.365 137.041 149.457 137.124C149.557 137.207 149.685 137.261 149.843 137.286L152.076 137.686C152.533 137.777 152.899 137.952 153.173 138.209C153.448 138.467 153.585 138.771 153.585 139.12V139.581C153.585 140.097 153.373 140.508 152.949 140.816C152.525 141.115 151.959 141.265 151.253 141.265H150.143ZM160.424 141.165C159.718 141.165 159.202 141.007 158.878 140.691C158.553 140.375 158.391 139.876 158.391 139.195V136.176H157.294V134.942H158.429V133.058H159.826V134.942H161.447V136.176H159.826V139.145C159.826 139.419 159.88 139.619 159.988 139.743C160.096 139.868 160.266 139.931 160.499 139.931H161.447V141.165H160.424ZM162.549 134.942H163.884V135.79C164.05 135.532 164.287 135.324 164.595 135.166C164.911 135 165.235 134.917 165.568 134.917H166.316V136.164H165.568C165.094 136.164 164.711 136.309 164.42 136.6C164.129 136.891 163.984 137.27 163.984 137.735V141.165H162.549V134.942ZM168.678 141.265C168.046 141.265 167.535 141.107 167.144 140.791C166.761 140.467 166.57 140.039 166.57 139.506V139.057C166.57 138.534 166.77 138.114 167.169 137.798C167.576 137.482 168.108 137.324 168.765 137.324H169.539C169.771 137.324 170.021 137.357 170.287 137.424C170.553 137.49 170.79 137.577 170.998 137.686V136.912C170.998 136.654 170.915 136.447 170.748 136.289C170.582 136.131 170.366 136.052 170.1 136.052H169.052C168.778 136.052 168.558 136.118 168.391 136.251C168.225 136.376 168.142 136.542 168.142 136.75H166.745C166.745 136.176 166.957 135.715 167.381 135.366C167.805 135.016 168.362 134.842 169.052 134.842H170.1C170.798 134.842 171.36 135.033 171.784 135.416C172.208 135.79 172.42 136.289 172.42 136.912V141.165H171.085V140.38C170.886 140.646 170.636 140.862 170.337 141.028C170.038 141.186 169.742 141.265 169.451 141.265H168.678ZM169.539 140.143C169.871 140.143 170.171 140.051 170.437 139.868C170.703 139.677 170.89 139.427 170.998 139.12V138.82C170.857 138.704 170.657 138.613 170.399 138.546C170.141 138.471 169.871 138.434 169.589 138.434H168.803C168.553 138.434 168.35 138.496 168.192 138.621C168.042 138.746 167.967 138.908 167.967 139.107V139.457C167.967 139.664 168.046 139.831 168.204 139.955C168.362 140.08 168.57 140.143 168.828 140.143H169.539ZM173.694 134.942H175.029V135.752C175.212 135.478 175.453 135.258 175.752 135.091C176.052 134.925 176.351 134.842 176.65 134.842H177.424C178.064 134.842 178.575 135.046 178.958 135.453C179.348 135.86 179.544 136.397 179.544 137.062V141.165H178.11V137.099C178.11 136.8 178.031 136.559 177.873 136.376C177.723 136.185 177.523 136.089 177.274 136.089H176.501C176.176 136.089 175.885 136.214 175.628 136.463C175.37 136.704 175.204 137.016 175.129 137.399V141.165H173.694V134.942ZM182.872 141.265C182.157 141.265 181.583 141.074 181.151 140.691C180.718 140.309 180.502 139.802 180.502 139.17H181.911C181.911 139.436 181.999 139.652 182.173 139.818C182.348 139.976 182.581 140.055 182.872 140.055H183.982C184.264 140.055 184.485 140.01 184.643 139.918C184.809 139.818 184.892 139.685 184.892 139.519V139.245C184.892 139.128 184.842 139.028 184.743 138.945C184.651 138.862 184.522 138.804 184.356 138.771L182.198 138.396C181.716 138.313 181.333 138.139 181.051 137.873C180.768 137.598 180.627 137.282 180.627 136.925V136.513C180.627 135.998 180.83 135.59 181.238 135.291C181.654 134.992 182.223 134.842 182.947 134.842H183.944C184.601 134.842 185.133 135.021 185.541 135.378C185.948 135.736 186.152 136.205 186.152 136.788H184.743C184.743 136.563 184.668 136.384 184.518 136.251C184.377 136.118 184.185 136.052 183.944 136.052H182.959C182.668 136.052 182.444 136.097 182.286 136.189C182.128 136.28 182.049 136.409 182.049 136.575V136.825C182.049 136.941 182.094 137.041 182.186 137.124C182.286 137.207 182.414 137.261 182.572 137.286L184.805 137.686C185.262 137.777 185.628 137.952 185.902 138.209C186.177 138.467 186.314 138.771 186.314 139.12V139.581C186.314 140.097 186.102 140.508 185.678 140.816C185.254 141.115 184.689 141.265 183.982 141.265H182.872ZM189.196 141.265C188.564 141.265 188.053 141.107 187.662 140.791C187.279 140.467 187.088 140.039 187.088 139.506V139.057C187.088 138.534 187.288 138.114 187.687 137.798C188.094 137.482 188.626 137.324 189.283 137.324H190.057C190.289 137.324 190.539 137.357 190.805 137.424C191.071 137.49 191.308 137.577 191.516 137.686V136.912C191.516 136.654 191.433 136.447 191.266 136.289C191.1 136.131 190.884 136.052 190.618 136.052H189.57C189.296 136.052 189.075 136.118 188.909 136.251C188.743 136.376 188.66 136.542 188.66 136.75H187.263C187.263 136.176 187.475 135.715 187.899 135.366C188.323 135.016 188.88 134.842 189.57 134.842H190.618C191.316 134.842 191.877 135.033 192.302 135.416C192.726 135.79 192.938 136.289 192.938 136.912V141.165H191.603V140.38C191.404 140.646 191.154 140.862 190.855 141.028C190.555 141.186 190.26 141.265 189.969 141.265H189.196ZM190.057 140.143C190.389 140.143 190.688 140.051 190.955 139.868C191.221 139.677 191.408 139.427 191.516 139.12V138.82C191.374 138.704 191.175 138.613 190.917 138.546C190.659 138.471 190.389 138.434 190.106 138.434H189.321C189.071 138.434 188.868 138.496 188.71 138.621C188.56 138.746 188.485 138.908 188.485 139.107V139.457C188.485 139.664 188.564 139.831 188.722 139.955C188.88 140.08 189.088 140.143 189.346 140.143H190.057ZM196.495 141.265C195.73 141.265 195.114 141.045 194.649 140.604C194.191 140.163 193.963 139.581 193.963 138.858V137.286C193.963 136.804 194.067 136.38 194.275 136.014C194.482 135.64 194.778 135.353 195.16 135.154C195.543 134.946 195.983 134.842 196.482 134.842H197.48C198.195 134.842 198.769 135.05 199.201 135.465C199.642 135.873 199.862 136.413 199.862 137.087H198.453C198.453 136.788 198.361 136.546 198.178 136.363C198.004 136.172 197.771 136.077 197.48 136.077H196.495C196.17 136.077 195.904 136.197 195.696 136.438C195.497 136.679 195.397 136.991 195.397 137.374V138.771C195.397 139.145 195.497 139.448 195.696 139.681C195.904 139.914 196.175 140.03 196.507 140.03H197.492C197.8 140.03 198.045 139.918 198.228 139.694C198.42 139.469 198.515 139.178 198.515 138.82H199.925C199.925 139.552 199.7 140.143 199.251 140.592C198.81 141.041 198.224 141.265 197.492 141.265H196.495ZM203.427 141.165C202.721 141.165 202.205 141.007 201.881 140.691C201.557 140.375 201.394 139.876 201.394 139.195V136.176H200.297V134.942H201.432V133.058H202.829V134.942H204.45V136.176H202.829V139.145C202.829 139.419 202.883 139.619 202.991 139.743C203.099 139.868 203.269 139.931 203.502 139.931H204.45V141.165H203.427ZM206.488 134.243C206.205 134.243 205.976 134.16 205.802 133.994C205.635 133.819 205.552 133.599 205.552 133.333C205.552 133.067 205.635 132.85 205.802 132.684C205.976 132.51 206.205 132.422 206.488 132.422C206.77 132.422 206.999 132.51 207.174 132.684C207.348 132.85 207.436 133.067 207.436 133.333C207.436 133.599 207.348 133.819 207.174 133.994C206.999 134.16 206.77 134.243 206.488 134.243ZM205.777 134.942H207.211V141.165H205.777V134.942ZM211.081 141.265C210.316 141.265 209.701 141.045 209.235 140.604C208.77 140.155 208.537 139.565 208.537 138.833V137.286C208.537 136.804 208.641 136.38 208.849 136.014C209.065 135.64 209.364 135.353 209.747 135.154C210.137 134.946 210.586 134.842 211.094 134.842H212.191C212.698 134.842 213.143 134.946 213.526 135.154C213.917 135.353 214.216 135.64 214.424 136.014C214.64 136.38 214.748 136.804 214.748 137.286V138.833C214.748 139.565 214.511 140.155 214.037 140.604C213.571 141.045 212.948 141.265 212.166 141.265H211.081ZM212.154 140.03C212.503 140.03 212.782 139.914 212.989 139.681C213.206 139.44 213.314 139.128 213.314 138.746V137.361C213.314 136.979 213.21 136.671 213.002 136.438C212.794 136.197 212.516 136.077 212.166 136.077H211.119C210.769 136.077 210.491 136.197 210.283 136.438C210.075 136.671 209.971 136.979 209.971 137.361V138.746C209.971 139.128 210.075 139.44 210.283 139.681C210.491 139.914 210.761 140.03 211.094 140.03H212.154ZM215.845 134.942H217.179V135.752C217.362 135.478 217.603 135.258 217.903 135.091C218.202 134.925 218.501 134.842 218.801 134.842H219.574C220.214 134.842 220.726 135.046 221.108 135.453C221.499 135.86 221.694 136.397 221.694 137.062V141.165H220.26V137.099C220.26 136.8 220.181 136.559 220.023 136.376C219.873 136.185 219.674 136.089 219.424 136.089H218.651C218.327 136.089 218.036 136.214 217.778 136.463C217.52 136.704 217.354 137.016 217.279 137.399V141.165H215.845V134.942ZM225.022 141.265C224.307 141.265 223.733 141.074 223.301 140.691C222.869 140.309 222.652 139.802 222.652 139.17H224.062C224.062 139.436 224.149 139.652 224.324 139.818C224.498 139.976 224.731 140.055 225.022 140.055H226.132C226.415 140.055 226.635 140.01 226.793 139.918C226.96 139.818 227.043 139.685 227.043 139.519V139.245C227.043 139.128 226.993 139.028 226.893 138.945C226.802 138.862 226.673 138.804 226.506 138.771L224.349 138.396C223.866 138.313 223.484 138.139 223.201 137.873C222.919 137.598 222.777 137.282 222.777 136.925V136.513C222.777 135.998 222.981 135.59 223.388 135.291C223.804 134.992 224.374 134.842 225.097 134.842H226.095C226.752 134.842 227.284 135.021 227.691 135.378C228.099 135.736 228.302 136.205 228.302 136.788H226.893C226.893 136.563 226.818 136.384 226.669 136.251C226.527 136.118 226.336 136.052 226.095 136.052H225.11C224.818 136.052 224.594 136.097 224.436 136.189C224.278 136.28 224.199 136.409 224.199 136.575V136.825C224.199 136.941 224.245 137.041 224.336 137.124C224.436 137.207 224.565 137.261 224.723 137.286L226.955 137.686C227.413 137.777 227.779 137.952 228.053 138.209C228.327 138.467 228.465 138.771 228.465 139.12V139.581C228.465 140.097 228.253 140.508 227.828 140.816C227.404 141.115 226.839 141.265 226.132 141.265H225.022ZM233.258 136.176H232.186V134.942H233.258V134.505C233.258 133.832 233.458 133.312 233.857 132.946C234.264 132.572 234.834 132.385 235.566 132.385H236.327V133.607H235.591C235.283 133.607 235.054 133.682 234.905 133.832C234.763 133.973 234.693 134.202 234.693 134.518V134.942H236.189V136.176H234.693V141.165H233.258V136.176ZM239.029 141.265C238.264 141.265 237.649 141.045 237.183 140.604C236.718 140.155 236.485 139.565 236.485 138.833V137.286C236.485 136.804 236.589 136.38 236.797 136.014C237.013 135.64 237.312 135.353 237.695 135.154C238.086 134.946 238.535 134.842 239.042 134.842H240.139C240.647 134.842 241.091 134.946 241.474 135.154C241.865 135.353 242.164 135.64 242.372 136.014C242.588 136.38 242.696 136.804 242.696 137.286V138.833C242.696 139.565 242.459 140.155 241.985 140.604C241.52 141.045 240.896 141.265 240.114 141.265H239.029ZM240.102 140.03C240.451 140.03 240.73 139.914 240.938 139.681C241.154 139.44 241.262 139.128 241.262 138.746V137.361C241.262 136.979 241.158 136.671 240.95 136.438C240.742 136.197 240.464 136.077 240.114 136.077H239.067C238.718 136.077 238.439 136.197 238.231 136.438C238.023 136.671 237.919 136.979 237.919 137.361V138.746C237.919 139.128 238.023 139.44 238.231 139.681C238.439 139.914 238.709 140.03 239.042 140.03H240.102ZM243.793 134.942H245.128V135.79C245.294 135.532 245.531 135.324 245.838 135.166C246.154 135 246.479 134.917 246.811 134.917H247.56V136.164H246.811C246.337 136.164 245.955 136.309 245.664 136.6C245.373 136.891 245.227 137.27 245.227 137.735V141.165H243.793V134.942ZM253.351 141.265C252.719 141.265 252.207 141.107 251.817 140.791C251.434 140.467 251.243 140.039 251.243 139.506V139.057C251.243 138.534 251.442 138.114 251.842 137.798C252.249 137.482 252.781 137.324 253.438 137.324H254.211C254.444 137.324 254.694 137.357 254.96 137.424C255.226 137.49 255.463 137.577 255.671 137.686V136.912C255.671 136.654 255.587 136.447 255.421 136.289C255.255 136.131 255.039 136.052 254.773 136.052H253.725C253.451 136.052 253.23 136.118 253.064 136.251C252.898 136.376 252.814 136.542 252.814 136.75H251.418C251.418 136.176 251.63 135.715 252.054 135.366C252.478 135.016 253.035 134.842 253.725 134.842H254.773C255.471 134.842 256.032 135.033 256.456 135.416C256.88 135.79 257.092 136.289 257.092 136.912V141.165H255.758V140.38C255.558 140.646 255.309 140.862 255.01 141.028C254.71 141.186 254.415 141.265 254.124 141.265H253.351ZM254.211 140.143C254.544 140.143 254.843 140.051 255.109 139.868C255.375 139.677 255.562 139.427 255.671 139.12V138.82C255.529 138.704 255.33 138.613 255.072 138.546C254.814 138.471 254.544 138.434 254.261 138.434H253.475C253.226 138.434 253.022 138.496 252.864 138.621C252.715 138.746 252.64 138.908 252.64 139.107V139.457C252.64 139.664 252.719 139.831 252.877 139.955C253.035 140.08 253.243 140.143 253.5 140.143H254.211ZM258.367 134.942H259.702V135.752C259.885 135.478 260.126 135.258 260.425 135.091C260.724 134.925 261.024 134.842 261.323 134.842H262.096C262.737 134.842 263.248 135.046 263.63 135.453C264.021 135.86 264.217 136.397 264.217 137.062V141.165H262.782V137.099C262.782 136.8 262.703 136.559 262.545 136.376C262.396 136.185 262.196 136.089 261.947 136.089H261.173C260.849 136.089 260.558 136.214 260.3 136.463C260.042 136.704 259.876 137.016 259.801 137.399V141.165H258.367V134.942ZM271.015 141.265C270.25 141.265 269.635 141.045 269.17 140.604C268.704 140.155 268.471 139.565 268.471 138.833V137.286C268.471 136.804 268.575 136.38 268.783 136.014C268.999 135.64 269.298 135.353 269.681 135.154C270.072 134.946 270.521 134.842 271.028 134.842H272.125C272.633 134.842 273.077 134.946 273.46 135.154C273.851 135.353 274.15 135.64 274.358 136.014C274.574 136.38 274.682 136.804 274.682 137.286V138.833C274.682 139.565 274.445 140.155 273.971 140.604C273.506 141.045 272.882 141.265 272.1 141.265H271.015ZM272.088 140.03C272.437 140.03 272.716 139.914 272.924 139.681C273.14 139.44 273.248 139.128 273.248 138.746V137.361C273.248 136.979 273.144 136.671 272.936 136.438C272.728 136.197 272.45 136.077 272.1 136.077H271.053C270.704 136.077 270.425 136.197 270.217 136.438C270.009 136.671 269.905 136.979 269.905 137.361V138.746C269.905 139.128 270.009 139.44 270.217 139.681C270.425 139.914 270.695 140.03 271.028 140.03H272.088ZM275.779 134.942H277.114V135.752C277.296 135.478 277.538 135.258 277.837 135.091C278.136 134.925 278.436 134.842 278.735 134.842H279.508C280.148 134.842 280.66 135.046 281.042 135.453C281.433 135.86 281.629 136.397 281.629 137.062V141.165H280.194V137.099C280.194 136.8 280.115 136.559 279.957 136.376C279.808 136.185 279.608 136.089 279.359 136.089H278.585C278.261 136.089 277.97 136.214 277.712 136.463C277.454 136.704 277.288 137.016 277.213 137.399V141.165H275.779V134.942ZM284.906 141.165C284.208 141.165 283.697 141.02 283.372 140.729C283.056 140.429 282.898 139.96 282.898 139.319V132.435H284.333V139.257C284.333 139.498 284.383 139.673 284.482 139.781C284.582 139.881 284.749 139.931 284.981 139.931H285.58V141.165H284.906ZM287.165 134.243C286.883 134.243 286.654 134.16 286.479 133.994C286.313 133.819 286.23 133.599 286.23 133.333C286.23 133.067 286.313 132.85 286.479 132.684C286.654 132.51 286.883 132.422 287.165 132.422C287.448 132.422 287.677 132.51 287.851 132.684C288.026 132.85 288.113 133.067 288.113 133.333C288.113 133.599 288.026 133.819 287.851 133.994C287.677 134.16 287.448 134.243 287.165 134.243ZM286.454 134.942H287.889V141.165H286.454V134.942ZM289.464 134.942H290.798V135.752C290.981 135.478 291.223 135.258 291.522 135.091C291.821 134.925 292.121 134.842 292.42 134.842H293.193C293.833 134.842 294.345 135.046 294.727 135.453C295.118 135.86 295.313 136.397 295.313 137.062V141.165H293.879V137.099C293.879 136.8 293.8 136.559 293.642 136.376C293.492 136.185 293.293 136.089 293.043 136.089H292.27C291.946 136.089 291.655 136.214 291.397 136.463C291.139 136.704 290.973 137.016 290.898 137.399V141.165H289.464V134.942ZM298.891 141.265C298.384 141.265 297.935 141.169 297.544 140.978C297.161 140.787 296.862 140.517 296.646 140.168C296.438 139.818 296.334 139.415 296.334 138.958V137.286C296.334 136.804 296.438 136.38 296.646 136.014C296.862 135.64 297.161 135.353 297.544 135.154C297.935 134.946 298.384 134.842 298.891 134.842H299.889C300.645 134.842 301.252 135.062 301.709 135.503C302.167 135.944 302.395 136.53 302.395 137.261V138.509H297.768V138.958C297.768 139.29 297.868 139.556 298.068 139.756C298.275 139.955 298.55 140.055 298.891 140.055H299.851C300.184 140.055 300.45 139.976 300.649 139.818C300.857 139.652 300.961 139.436 300.961 139.17H302.371C302.371 139.802 302.138 140.309 301.672 140.691C301.206 141.074 300.595 141.265 299.839 141.265H298.891ZM300.986 137.436V137.261C300.986 136.896 300.886 136.6 300.687 136.376C300.487 136.151 300.225 136.039 299.901 136.039H298.891C298.55 136.039 298.271 136.16 298.055 136.401C297.847 136.634 297.743 136.941 297.743 137.324V137.436H300.986ZM306.669 134.942H308.003V135.79C308.17 135.532 308.407 135.324 308.714 135.166C309.03 135 309.355 134.917 309.687 134.917H310.436V136.164H309.687C309.213 136.164 308.831 136.309 308.54 136.6C308.249 136.891 308.103 137.27 308.103 137.735V141.165H306.669V134.942ZM313.197 141.265C312.69 141.265 312.241 141.169 311.85 140.978C311.467 140.787 311.168 140.517 310.952 140.168C310.744 139.818 310.64 139.415 310.64 138.958V137.286C310.64 136.804 310.744 136.38 310.952 136.014C311.168 135.64 311.467 135.353 311.85 135.154C312.241 134.946 312.69 134.842 313.197 134.842H314.195C314.951 134.842 315.558 135.062 316.016 135.503C316.473 135.944 316.702 136.53 316.702 137.261V138.509H312.074V138.958C312.074 139.29 312.174 139.556 312.374 139.756C312.582 139.955 312.856 140.055 313.197 140.055H314.157C314.49 140.055 314.756 139.976 314.955 139.818C315.163 139.652 315.267 139.436 315.267 139.17H316.677C316.677 139.802 316.444 140.309 315.978 140.691C315.513 141.074 314.901 141.265 314.145 141.265H313.197ZM315.292 137.436V137.261C315.292 136.896 315.192 136.6 314.993 136.376C314.793 136.151 314.531 136.039 314.207 136.039H313.197C312.856 136.039 312.577 136.16 312.361 136.401C312.153 136.634 312.049 136.941 312.049 137.324V137.436H315.292ZM320.3 141.165C319.593 141.165 319.077 141.007 318.753 140.691C318.429 140.375 318.267 139.876 318.267 139.195V136.176H317.169V134.942H318.304V133.058H319.701V134.942H321.322V136.176H319.701V139.145C319.701 139.419 319.755 139.619 319.863 139.743C319.971 139.868 320.142 139.931 320.374 139.931H321.322V141.165H320.3ZM324.186 141.265C323.555 141.265 323.043 141.107 322.652 140.791C322.27 140.467 322.079 140.039 322.079 139.506V139.057C322.079 138.534 322.278 138.114 322.677 137.798C323.085 137.482 323.617 137.324 324.274 137.324H325.047C325.28 137.324 325.529 137.357 325.795 137.424C326.061 137.49 326.298 137.577 326.506 137.686V136.912C326.506 136.654 326.423 136.447 326.257 136.289C326.091 136.131 325.874 136.052 325.608 136.052H324.561C324.286 136.052 324.066 136.118 323.9 136.251C323.733 136.376 323.65 136.542 323.65 136.75H322.253C322.253 136.176 322.465 135.715 322.889 135.366C323.313 135.016 323.871 134.842 324.561 134.842H325.608C326.307 134.842 326.868 135.033 327.292 135.416C327.716 135.79 327.928 136.289 327.928 136.912V141.165H326.594V140.38C326.394 140.646 326.145 140.862 325.845 141.028C325.546 141.186 325.251 141.265 324.96 141.265H324.186ZM325.047 140.143C325.38 140.143 325.679 140.051 325.945 139.868C326.211 139.677 326.398 139.427 326.506 139.12V138.82C326.365 138.704 326.165 138.613 325.908 138.546C325.65 138.471 325.38 138.434 325.097 138.434H324.311C324.062 138.434 323.858 138.496 323.7 138.621C323.55 138.746 323.476 138.908 323.476 139.107V139.457C323.476 139.664 323.555 139.831 323.713 139.955C323.871 140.08 324.078 140.143 324.336 140.143H325.047ZM330.138 134.243C329.856 134.243 329.627 134.16 329.452 133.994C329.286 133.819 329.203 133.599 329.203 133.333C329.203 133.067 329.286 132.85 329.452 132.684C329.627 132.51 329.856 132.422 330.138 132.422C330.421 132.422 330.65 132.51 330.824 132.684C330.999 132.85 331.086 133.067 331.086 133.333C331.086 133.599 330.999 133.819 330.824 133.994C330.65 134.16 330.421 134.243 330.138 134.243ZM329.427 134.942H330.862V141.165H329.427V134.942ZM334.445 141.165C333.746 141.165 333.235 141.02 332.911 140.729C332.595 140.429 332.437 139.96 332.437 139.319V132.435H333.871V139.257C333.871 139.498 333.921 139.673 334.021 139.781C334.121 139.881 334.287 139.931 334.52 139.931H335.118V141.165H334.445ZM65.6537 150.942H66.9882V151.677C67.1628 151.428 67.3873 151.228 67.6617 151.079C67.9444 150.921 68.2188 150.842 68.4849 150.842H69.3081C70.0315 150.842 70.6135 151.062 71.0542 151.503C71.5032 151.935 71.7277 152.509 71.7277 153.224V154.671C71.7277 155.452 71.5074 156.08 71.0667 156.554C70.626 157.028 70.0398 157.265 69.3081 157.265H68.4724C68.2313 157.265 67.9819 157.207 67.7241 157.09C67.4663 156.966 67.2543 156.804 67.088 156.604V159.66H65.6537V150.942ZM69.1584 156.03C69.4993 156.03 69.7737 155.897 69.9816 155.631C70.1978 155.365 70.3059 155.016 70.3059 154.584V153.311C70.3059 152.945 70.2019 152.65 69.994 152.426C69.7862 152.193 69.5118 152.077 69.1709 152.077H68.3727C68.0899 152.077 67.828 152.189 67.5869 152.413C67.3541 152.63 67.1878 152.912 67.088 153.261V154.708C67.1296 155.099 67.2668 155.419 67.4996 155.669C67.7407 155.91 68.0276 156.03 68.3602 156.03H69.1584ZM74.8299 157.165C74.1314 157.165 73.6201 157.02 73.2958 156.729C72.9798 156.429 72.8218 155.96 72.8218 155.319V148.435H74.2562V155.257C74.2562 155.498 74.306 155.673 74.4058 155.781C74.5056 155.881 74.6719 155.931 74.9047 155.931H75.5034V157.165H74.8299ZM78.0616 157.265C77.4296 157.265 76.9183 157.107 76.5275 156.791C76.145 156.467 75.9538 156.039 75.9538 155.506V155.057C75.9538 154.534 76.1533 154.114 76.5524 153.798C76.9599 153.482 77.492 153.324 78.1489 153.324H78.9222C79.155 153.324 79.4044 153.357 79.6705 153.424C79.9366 153.49 80.1735 153.577 80.3814 153.686V152.912C80.3814 152.654 80.2983 152.447 80.132 152.289C79.9657 152.131 79.7495 152.052 79.4834 152.052H78.4357C78.1613 152.052 77.941 152.118 77.7747 152.251C77.6084 152.376 77.5253 152.542 77.5253 152.75H76.1284C76.1284 152.176 76.3404 151.715 76.7645 151.366C77.1885 151.016 77.7456 150.842 78.4357 150.842H79.4834C80.1819 150.842 80.7431 151.033 81.1672 151.416C81.5912 151.79 81.8033 152.289 81.8033 152.912V157.165H80.4687V156.38C80.2692 156.646 80.0197 156.862 79.7204 157.028C79.421 157.186 79.1259 157.265 78.8349 157.265H78.0616ZM78.9222 156.143C79.2548 156.143 79.5541 156.051 79.8202 155.868C80.0862 155.677 80.2733 155.427 80.3814 155.12V154.82C80.2401 154.704 80.0405 154.613 79.7827 154.546C79.525 154.471 79.2548 154.434 78.972 154.434H78.1863C77.9368 154.434 77.7331 154.496 77.5752 154.621C77.4255 154.746 77.3507 154.908 77.3507 155.107V155.457C77.3507 155.664 77.4296 155.831 77.5876 155.955C77.7456 156.08 77.9535 156.143 78.2112 156.143H78.9222ZM85.7095 157.165C85.0028 157.165 84.4872 157.007 84.163 156.691C83.8387 156.375 83.6765 155.876 83.6765 155.195V152.176H82.579V150.942H83.714V149.058H85.1108V150.942H86.7322V152.176H85.1108V155.145C85.1108 155.419 85.1649 155.619 85.273 155.743C85.3811 155.868 85.5515 155.931 85.7844 155.931H86.7322V157.165H85.7095ZM88.4206 152.176H87.348V150.942H88.4206V150.505C88.4206 149.832 88.6201 149.312 89.0193 148.946C89.4267 148.572 89.9962 148.385 90.728 148.385H91.4888V149.607H90.7529C90.4452 149.607 90.2166 149.682 90.0669 149.832C89.9256 149.973 89.8549 150.202 89.8549 150.518V150.942H91.3516V152.176H89.8549V157.165H88.4206V152.176ZM94.1915 157.265C93.4266 157.265 92.8113 157.045 92.3456 156.604C91.88 156.155 91.6472 155.565 91.6472 154.833V153.286C91.6472 152.804 91.7511 152.38 91.959 152.014C92.1752 151.64 92.4745 151.353 92.857 151.154C93.2478 150.946 93.6968 150.842 94.204 150.842H95.3016C95.8088 150.842 96.2536 150.946 96.6361 151.154C97.0269 151.353 97.3262 151.64 97.5341 152.014C97.7503 152.38 97.8584 152.804 97.8584 153.286V154.833C97.8584 155.565 97.6214 156.155 97.1475 156.604C96.6818 157.045 96.0582 157.265 95.2766 157.265H94.1915ZM95.2642 156.03C95.6134 156.03 95.8919 155.914 96.0998 155.681C96.316 155.44 96.4241 155.128 96.4241 154.746V153.361C96.4241 152.979 96.3201 152.671 96.1123 152.438C95.9044 152.197 95.6259 152.077 95.2766 152.077H94.229C93.8797 152.077 93.6012 152.197 93.3933 152.438C93.1854 152.671 93.0815 152.979 93.0815 153.361V154.746C93.0815 155.128 93.1854 155.44 93.3933 155.681C93.6012 155.914 93.8714 156.03 94.204 156.03H95.2642ZM98.9552 150.942H100.29V151.79C100.456 151.532 100.693 151.324 101.001 151.166C101.317 151 101.641 150.917 101.973 150.917H102.722V152.164H101.973C101.5 152.164 101.117 152.309 100.826 152.6C100.535 152.891 100.389 153.27 100.389 153.735V157.165H98.9552V150.942ZM110.38 150.842C110.987 150.842 111.469 151.037 111.827 151.428C112.193 151.819 112.376 152.343 112.376 153V157.165H110.941V152.987C110.941 152.713 110.879 152.496 110.754 152.339C110.63 152.172 110.463 152.089 110.255 152.089H109.657C109.382 152.089 109.149 152.189 108.958 152.388C108.767 152.58 108.642 152.842 108.584 153.174V157.165H107.162V153.024C107.162 152.742 107.1 152.517 106.975 152.351C106.85 152.176 106.684 152.089 106.476 152.089H105.915C105.641 152.089 105.399 152.214 105.192 152.463C104.992 152.704 104.863 153.02 104.805 153.411V157.165H103.371V150.942H104.705V151.727C104.863 151.453 105.063 151.237 105.304 151.079C105.545 150.921 105.79 150.842 106.04 150.842H106.751C107.067 150.842 107.349 150.925 107.599 151.091C107.848 151.249 108.044 151.474 108.185 151.765C108.368 151.474 108.588 151.249 108.846 151.091C109.104 150.925 109.378 150.842 109.669 150.842H110.38ZM114.306 157.29C114.031 157.29 113.811 157.207 113.645 157.041C113.478 156.874 113.395 156.654 113.395 156.38C113.395 156.113 113.478 155.897 113.645 155.731C113.811 155.565 114.031 155.482 114.306 155.482C114.572 155.482 114.788 155.565 114.954 155.731C115.121 155.897 115.204 156.113 115.204 156.38C115.204 156.654 115.121 156.874 114.954 157.041C114.788 157.207 114.572 157.29 114.306 157.29Z" fill="#6E6E6E"/>
<defs>
<filter id="filter0_b_5579_4054" x="-68.5751" y="-114.745" width="506.33" height="317.405" filterUnits="userSpaceOnUse" color-interpolation-filters="sRGB">
<feFlood flood-opacity="0" result="BackgroundImageFix"/>
<feGaussianBlur in="BackgroundImageFix" stdDeviation="57.3725"/>
<feComposite in2="SourceAlpha" operator="in" result="effect1_backgroundBlur_5579_4054"/>
<feBlend mode="normal" in="SourceGraphic" in2="effect1_backgroundBlur_5579_4054" result="shape"/>
</filter>
<filter id="filter1_b_5579_4054" x="-92.2802" y="-91.7196" width="553.74" height="316.911" filterUnits="userSpaceOnUse" color-interpolation-filters="sRGB">
<feFlood flood-opacity="0" result="BackgroundImageFix"/>
<feGaussianBlur in="BackgroundImageFix" stdDeviation="57.3725"/>
<feComposite in2="SourceAlpha" operator="in" result="effect1_backgroundBlur_5579_4054"/>
<feBlend mode="normal" in="SourceGraphic" in2="effect1_backgroundBlur_5579_4054" result="shape"/>
</filter>
</defs>
</svg>
