<svg width="163" height="163" viewBox="0 0 163 163" fill="none" xmlns="http://www.w3.org/2000/svg">
<rect width="163" height="163" rx="32.6" fill="#45DEF2"/>
<path fill-rule="evenodd" clip-rule="evenodd" d="M90.6548 124.794L90.6708 126.324C90.6708 128.94 87.0146 131.066 82.5126 131.066C78.0088 131.066 74.3525 128.94 74.3525 126.324V121.735L75.3455 121.942C77.4059 122.374 80.1472 122.243 83.5215 120.633C85.8266 122.156 88.2061 123.539 90.6548 124.794Z" fill="#FF85D0"/>
<path fill-rule="evenodd" clip-rule="evenodd" d="M100.993 129.203C98.3245 128.252 97.3174 124.118 98.7465 119.947C100.176 115.775 103.506 113.126 106.199 114.004L106.492 114.163C111.958 116.835 106.857 130.833 101.036 129.219C101.021 129.214 101.007 129.209 100.993 129.203Z" fill="#FF85D0"/>
<path fill-rule="evenodd" clip-rule="evenodd" d="M122.106 94.6575L122.474 94.7621C128.36 96.3031 126.123 111.031 120.098 110.595C120.002 110.583 119.84 110.549 119.624 110.498C117.067 109.78 115.475 106.102 116.023 101.957C116.597 97.6102 119.31 94.3688 122.106 94.6575Z" fill="#FF85D0"/>
<path fill-rule="evenodd" clip-rule="evenodd" d="M32.6072 73.2584L30.8999 56.2349C30.6631 53.8756 31.768 51.5818 33.7612 50.2959L60.5998 32.966C63.4317 31.138 66.8761 30.5146 70.1706 31.2319L105.582 38.9581C108.259 39.5409 110.254 41.7797 110.529 44.5038C110.612 45.3487 110.706 46.183 110.809 47.019C110.536 47.6797 110.393 48.3723 110.393 49.0844V56.2933C110.393 56.9628 110.52 57.6164 110.763 58.2417C110.52 58.8669 110.393 59.5187 110.393 60.19V63.8547C110.393 64.6128 110.556 65.3479 110.862 66.0458C110.556 66.7454 110.393 67.4805 110.393 68.2369V71.9034C110.393 76.5405 116.519 80.3044 124.065 80.3044C131.612 80.3044 137.738 76.5405 137.738 71.9034V69.7034C140.903 66.3894 149.755 69.622 148.597 78.2037C147.017 89.9223 134.055 95.2218 120.069 94.0758L122.108 94.655C119.311 94.3663 116.599 97.6077 116.024 101.954C115.476 106.099 117.068 109.778 119.625 110.495C117.526 110.007 110.166 107.904 106.002 106.878L100.172 110.717L106.199 114.002C103.506 113.124 100.176 115.774 98.7466 119.945C97.3174 124.116 98.3246 128.25 100.993 129.202C97.4274 127.956 93.9786 126.493 90.6557 124.791C88.207 123.537 85.8274 122.154 83.5224 120.63C80.1481 122.24 77.4068 122.372 75.3464 121.939L71.3249 121.098C71.7664 122.295 72.0005 123.562 72.0129 124.842L72.1299 136.262C72.1299 138.878 68.4737 141.002 63.9713 141.002C59.4684 141.002 55.8125 138.878 55.8125 136.262V126.467C52.421 124.316 48.2942 121.084 45.0871 118.852C41.3761 116.271 38.8003 112.364 37.9002 107.938C36.4741 100.922 34.8809 91.6369 34.5993 89.6725L30.4275 82.0614C28.7978 79.0875 29.6503 75.3661 32.4125 73.3965C32.4774 73.3504 32.5423 73.3044 32.6072 73.2584Z" fill="#FF85D0"/>
<path fill-rule="evenodd" clip-rule="evenodd" d="M89.54 35.4607L106.896 33.1333C109.1 32.8375 111.19 34.1889 111.821 36.318C112.357 38.1849 113.029 40.6576 113.697 43.5004C113.704 43.5323 113.712 43.5642 113.72 43.5961C112.35 44.5685 111.339 45.7375 110.809 47.0217C110.706 46.1856 110.612 45.3513 110.529 44.5065C110.254 41.7823 108.259 39.5435 105.582 38.9607L89.54 35.4607Z" fill="#FF85D0"/>
<path d="M32.6124 73.6373C32.4732 72.2502 30.9793 57.3691 30.8746 56.3259C30.6378 53.9668 31.7425 51.6737 33.7353 50.3868C39.9502 46.3743 53.5322 37.6031 60.5705 33.0593C63.4015 31.2311 66.8456 30.6071 70.1398 31.3261C77.1725 32.8616 98.8769 37.5991 105.548 39.0553C108.224 39.6402 110.221 41.8783 110.495 44.6022C111.273 52.3495 112.822 59.2878 114.296 73.9718M59.0539 128.354C55.4505 126.838 49.412 121.977 45.0673 118.95C41.3548 116.37 38.7814 112.46 37.8798 108.033C36.4542 101.016 34.8597 91.7303 34.5775 89.7665" stroke="#242728" stroke-width="2.0375" stroke-miterlimit="1.5" stroke-linejoin="round"/>
<path d="M106.215 106.817L100.268 110.624" stroke="#242728" stroke-width="2.0375" stroke-miterlimit="1.5" stroke-linejoin="round"/>
<path d="M83.4956 120.729C80.1213 122.337 77.38 122.468 75.3196 122.037L71.2715 121.189" stroke="#242728" stroke-width="2.0375" stroke-miterlimit="1.5" stroke-linejoin="round"/>
<path d="M99.5029 46.7822C89.2461 53.3477 88.4031 53.8875 80.6475 58.8513C77.4578 60.8937 73.5931 61.6022 69.8855 60.8248C65.4121 59.8867 57.5667 57.0171 57.5667 57.0171" stroke="#242728" stroke-width="2.0375" stroke-miterlimit="1.5" stroke-linejoin="round"/>
<path d="M114.538 69.4509C114.538 69.4509 116.126 69.2671 116.99 68.6792C118.376 67.7348 118.735 65.5604 118.326 63.7808L116.893 57.6634C115.907 53.3649 114.753 48.2074 113.667 43.5946C112.996 40.7525 112.325 38.2803 111.788 36.4136C111.156 34.2837 109.065 32.9315 106.861 33.227C100.644 34.0606 88.9662 35.6266 88.9662 35.6266" stroke="#242728" stroke-width="2.0375" stroke-miterlimit="1.5" stroke-linejoin="round"/>
<path d="M44.9528 63.314C44.9528 63.314 39.1621 68.6608 32.3865 73.4923C29.6254 75.4613 28.7727 79.1823 30.4036 82.1561C33.0178 86.9278 37.0044 94.1999 40.5155 100.606C41.8277 103.003 44.4263 104.406 47.1524 104.192C49.8768 103.977 52.2224 102.185 53.1433 99.6124C55.1403 94.0293 56.9486 88.9707 56.9486 88.9707" stroke="#242728" stroke-width="2.0375" stroke-miterlimit="1.5" stroke-linejoin="round"/>
<path d="M137.866 69.6273C141.031 66.3119 149.73 69.7119 148.57 78.2941C145.989 97.4011 113.168 99.4576 94.9797 84.3238" stroke="#242728" stroke-width="2.0375" stroke-miterlimit="1.5" stroke-linejoin="round"/>
<path fill-rule="evenodd" clip-rule="evenodd" d="M96.8801 88.221C97.7799 88.1295 98.668 88.467 99.2803 89.1321C101.03 91.0373 102.843 92.564 104.889 93.4202C107.603 94.5556 106.549 98.9938 103.24 98.5329C100.542 98.1567 98.802 97.6643 96.1234 96.4937C92.0691 94.7225 92.908 88.6349 96.8801 88.221Z" fill="white" stroke="#242728" stroke-width="2.0375" stroke-miterlimit="1.5" stroke-linejoin="round"/>
<path d="M98.781 88.7301C96.9792 87.2921 96.0998 85.9305 94.9802 84.3595" stroke="#242728" stroke-width="2.0375" stroke-miterlimit="1.5" stroke-linejoin="round"/>
<path d="M95.2236 95.9456C93.0851 95.0816 91.8525 94.0277 90.3299 92.8416" stroke="#242728" stroke-width="2.0375" stroke-miterlimit="1.5" stroke-linejoin="round"/>
<path d="M67.1981 112.463C67.1981 112.463 69.5008 117.314 70.9041 120.266C71.5989 121.729 71.9667 123.325 71.9846 124.944C72.0259 128.929 72.1045 136.363 72.1045 136.363C72.1049 138.98 68.4505 141.103 63.9474 141.102C59.4461 141.101 55.7898 138.976 55.7894 136.359L55.7894 126.52" stroke="#242728" stroke-width="2.0375" stroke-miterlimit="1.5" stroke-linejoin="round"/>
<path d="M90.6296 124.891L90.6455 126.421C90.6459 129.038 86.9912 131.162 82.4877 131.161C77.986 131.16 74.3294 129.034 74.3289 126.417L74.3275 121.827" stroke="#242728" stroke-width="2.0375" stroke-miterlimit="1.5" stroke-linejoin="round"/>
<path d="M106.218 114.113C103.52 113.191 100.161 115.848 98.7233 120.043C97.2858 124.237 98.3103 128.392 101.008 129.314" stroke="#242728" stroke-width="2.0375" stroke-miterlimit="1.5" stroke-linejoin="round"/>
<path d="M122.175 94.7617C119.347 94.3892 116.579 97.6552 115.997 102.05C115.416 106.446 117.241 110.317 120.069 110.689" stroke="#242728" stroke-width="2.0375" stroke-miterlimit="1.5" stroke-linejoin="round"/>
<path d="M104.986 93.4277C103.846 93.038 102.528 93.8639 102.045 95.2711C101.563 96.6782 102.098 98.1374 103.239 98.5272" stroke="#242728" stroke-width="2.0375" stroke-miterlimit="1.5" stroke-linejoin="round"/>
<path d="M94.6657 107.826L106.462 114.262C111.929 116.934 106.833 130.934 101.011 129.318C92.5908 126.376 84.8134 122.231 77.8401 116.58" stroke="#242728" stroke-width="2.0375" stroke-miterlimit="1.5" stroke-linejoin="round"/>
<path d="M121.207 94.5717L122.446 94.8582C128.333 96.4005 126.099 111.13 120.074 110.693C118.85 110.523 106.865 107.033 103.773 106.482" stroke="#242728" stroke-width="2.0375" stroke-miterlimit="1.5" stroke-linejoin="round"/>
<path fill-rule="evenodd" clip-rule="evenodd" d="M110.379 68.3374C110.379 63.7002 116.513 59.9346 124.059 59.9346C131.605 59.9346 137.728 63.7002 137.728 68.3374V72.0021C137.728 76.6392 131.605 80.4049 124.059 80.4049C116.513 80.4049 110.379 76.6392 110.379 72.0021V68.3374Z" fill="#E9FC87" stroke="#242728" stroke-width="2.0375" stroke-miterlimit="1.5" stroke-linejoin="round"/>
<path fill-rule="evenodd" clip-rule="evenodd" d="M110.379 60.2895C110.379 55.6524 116.513 51.8867 124.059 51.8867C131.605 51.8867 137.728 55.6524 137.728 60.2895V63.9542C137.728 68.5914 131.605 72.3571 124.059 72.3571C116.513 72.3571 110.379 68.5914 110.379 63.9542V60.2895Z" fill="#E9FC87" stroke="#242728" stroke-width="2.0375" stroke-miterlimit="1.5" stroke-linejoin="round"/>
<path fill-rule="evenodd" clip-rule="evenodd" d="M110.379 49.185C110.379 44.5479 116.513 40.7822 124.059 40.7822C131.605 40.7822 137.728 44.5479 137.728 49.185V56.3922C137.728 61.0294 131.605 64.7951 124.059 64.7951C116.513 64.7951 110.379 61.0294 110.379 56.3922V49.185Z" fill="#E9FC87" stroke="#242728" stroke-width="2.0375" stroke-miterlimit="1.5" stroke-linejoin="round"/>
<path fill-rule="evenodd" clip-rule="evenodd" d="M136.656 52.4521C134.572 55.4686 129.722 57.5852 124.059 57.5852C118.679 57.5852 114.029 55.6758 111.792 52.9003" fill="#E9FC87"/>
<path d="M136.656 52.4521C134.572 55.4686 129.722 57.5852 124.059 57.5852C118.679 57.5852 114.029 55.6758 111.792 52.9003" stroke="#242728" stroke-width="2.0375" stroke-miterlimit="1.5" stroke-linejoin="round"/>
<path d="M131.264 79.2184C134.275 80.7117 135.137 83.9936 133.426 86.6176" stroke="#242728" stroke-width="2.0375" stroke-miterlimit="1.5" stroke-linejoin="round"/>
</svg>
