<svg width="28" height="28" viewBox="0 0 28 28" fill="none" xmlns="http://www.w3.org/2000/svg">
<g id="vuesax/outline/status-up">
<g id="status-up">
<path id="Vector" d="M8.02637 22.05C7.54803 22.05 7.15137 21.6533 7.15137 21.175V18.76C7.15137 18.2817 7.54803 17.885 8.02637 17.885C8.5047 17.885 8.90137 18.2817 8.90137 18.76V21.175C8.90137 21.665 8.5047 22.05 8.02637 22.05Z" fill="#F2F2F2"/>
<path id="Vector_2" d="M14 22.0499C13.5217 22.0499 13.125 21.6533 13.125 21.1749V16.3333C13.125 15.8549 13.5217 15.4583 14 15.4583C14.4783 15.4583 14.875 15.8549 14.875 16.3333V21.1749C14.875 21.6649 14.4783 22.0499 14 22.0499Z" fill="#F2F2F2"/>
<path id="Vector_3" d="M19.9736 22.0499C19.4953 22.0499 19.0986 21.6532 19.0986 21.1749V13.9182C19.0986 13.4399 19.4953 13.0432 19.9736 13.0432C20.452 13.0432 20.8486 13.4399 20.8486 13.9182V21.1749C20.8486 21.6649 20.4636 22.0499 19.9736 22.0499Z" fill="#F2F2F2"/>
<path id="Vector_4" d="M8.027 15.3767C7.63033 15.3767 7.28033 15.1083 7.17533 14.7117C7.05866 14.245 7.33866 13.7667 7.817 13.65C12.1103 12.5767 15.8903 10.2317 18.772 6.88332L19.3087 6.25332C19.6237 5.89165 20.172 5.84499 20.5453 6.15999C20.907 6.47499 20.9537 7.02332 20.6387 7.39665L20.102 8.02665C16.987 11.6667 12.8803 14.1983 8.237 15.3533C8.167 15.3767 8.097 15.3767 8.027 15.3767Z" fill="#F2F2F2"/>
<path id="Vector_5" d="M19.9735 11.1069C19.4952 11.1069 19.0985 10.7102 19.0985 10.2319V7.7002H16.5552C16.0768 7.7002 15.6802 7.30353 15.6802 6.8252C15.6802 6.34686 16.0768 5.9502 16.5552 5.9502H19.9735C20.4518 5.9502 20.8485 6.34686 20.8485 6.8252V10.2435C20.8485 10.7219 20.4635 11.1069 19.9735 11.1069Z" fill="#F2F2F2"/>
<path id="Vector_6" d="M17.5002 26.5416H10.5002C4.16516 26.5416 1.4585 23.8349 1.4585 17.4999V10.4999C1.4585 4.16492 4.16516 1.45825 10.5002 1.45825H17.5002C23.8352 1.45825 26.5418 4.16492 26.5418 10.4999V17.4999C26.5418 23.8349 23.8352 26.5416 17.5002 26.5416ZM10.5002 3.20825C5.12183 3.20825 3.2085 5.12159 3.2085 10.4999V17.4999C3.2085 22.8783 5.12183 24.7916 10.5002 24.7916H17.5002C22.8785 24.7916 24.7918 22.8783 24.7918 17.4999V10.4999C24.7918 5.12159 22.8785 3.20825 17.5002 3.20825H10.5002Z" fill="#F2F2F2"/>
</g>
</g>
</svg>
