<svg width="414" height="235" viewBox="0 0 414 235" fill="none" xmlns="http://www.w3.org/2000/svg">
<rect x="22.3867" y="43" width="369.18" height="131.886" rx="12.4723" fill="#1C1C1C"/>
<rect x="23.0103" y="43.6236" width="367.932" height="130.639" rx="11.8487" stroke="#EBEAE7" stroke-opacity="0.15" stroke-width="1.24723"/>
<path d="M65.0007 81.1964H54.6072C53.8276 81.1964 53.256 81.1652 52.7675 81.0924C49.3168 80.7183 48.6309 78.6499 48.6309 75.2201V73.1413C48.6309 69.7115 49.3168 67.6431 52.7987 67.2586C53.256 67.1962 53.8276 67.165 54.6072 67.165H65.0007C65.7802 67.165 66.3519 67.1962 66.8404 67.269C70.3015 67.6535 70.977 69.7115 70.977 73.1413V75.2201C70.977 78.6499 70.2911 80.7183 66.8092 81.1028C66.3519 81.1652 65.7802 81.1964 65.0007 81.1964ZM54.6072 68.7241C53.9004 68.7241 53.4015 68.7553 52.9962 68.8072C50.8863 69.0463 50.1899 69.7011 50.1899 73.1413V75.2201C50.1899 78.6603 50.8863 79.3151 52.965 79.5542C53.4015 79.6165 53.9004 79.6373 54.6072 79.6373H65.0007C65.7075 79.6373 66.2064 79.6061 66.6117 79.5542C68.7216 79.3255 69.418 78.6603 69.418 75.2201V73.1413C69.418 69.7011 68.7216 69.0463 66.6429 68.8072C66.2064 68.7449 65.7075 68.7241 65.0007 68.7241H54.6072V68.7241Z" fill="#BCBCBC"/>
<path d="M63.2649 85.3544H56.3428C53.1208 85.3544 52.0918 84.3254 52.0918 81.1138V80.7604C52.0918 80.5837 52.0918 80.4278 52.1022 80.2719C52.1126 80.0537 52.2165 79.8562 52.3932 79.7211C52.5595 79.5859 52.7778 79.5236 52.996 79.5548C53.4118 79.6171 53.9107 79.6379 54.607 79.6379H65.0006C65.7074 79.6379 66.2063 79.6067 66.6116 79.5548C66.8299 79.5236 67.0481 79.5859 67.2144 79.7211C67.3807 79.8562 67.4847 80.0537 67.5055 80.2719C67.5159 80.4382 67.5159 80.5837 67.5159 80.7604V81.1138C67.5159 84.3254 66.4869 85.3544 63.2649 85.3544ZM53.6508 81.1762C53.6612 83.4524 54.025 83.7953 56.3428 83.7953H63.2649C65.5827 83.7953 65.9464 83.4524 65.9568 81.1762C65.6762 81.1866 65.3644 81.197 65.0006 81.197H54.607C54.2433 81.197 53.9315 81.1866 53.6508 81.1762Z" fill="#BCBCBC"/>
<path d="M66.7259 68.8173C66.6844 68.8173 66.6532 68.8173 66.6116 68.8069C66.1959 68.7446 65.697 68.7238 65.0006 68.7238H54.607C53.9003 68.7238 53.4014 68.755 52.996 68.8069C52.7778 68.8381 52.5595 68.7758 52.3932 68.6406C52.2269 68.5055 52.123 68.308 52.1022 68.0898C52.0918 67.9235 52.0918 67.778 52.0918 67.6013V67.2479C52.0918 64.0363 53.1208 63.0073 56.3428 63.0073H63.2649C66.4869 63.0073 67.5159 64.0363 67.5159 67.2479V67.6013C67.5159 67.778 67.5159 67.9339 67.5055 68.0898C67.4951 68.308 67.3911 68.5055 67.2144 68.6406C67.0793 68.755 66.9026 68.8173 66.7259 68.8173ZM54.607 67.1648H65.0006C65.3644 67.1648 65.6762 67.1751 65.9568 67.1855C65.9464 64.9093 65.5827 64.5664 63.2649 64.5664H56.3428C54.025 64.5664 53.6612 64.9093 53.6508 67.1855C53.9315 67.1751 54.2433 67.1648 54.607 67.1648Z" fill="#BCBCBC"/>
<path d="M88.3267 68.9578H90.4745L96.3414 77.2694V68.9578H98.6987V81.1807H96.551L90.684 72.8691V81.1807H88.3267V68.9578ZM103.828 81.3204C103.095 81.3204 102.443 81.1865 101.873 80.9187C101.314 80.6394 100.877 80.2552 100.563 79.7663C100.249 79.2658 100.092 78.6954 100.092 78.0551V75.8026C100.092 75.1158 100.249 74.5105 100.563 73.9867C100.877 73.4628 101.314 73.0554 101.873 72.7644C102.443 72.4733 103.095 72.3278 103.828 72.3278H105.225C106.343 72.3278 107.239 72.6421 107.914 73.2707C108.589 73.8993 108.927 74.7375 108.927 75.7852V77.636H102.466V78.0551C102.466 78.4393 102.589 78.7477 102.833 78.9806C103.077 79.2134 103.409 79.3298 103.828 79.3298H105.19C105.598 79.3298 105.924 79.2425 106.168 79.0679C106.424 78.8816 106.552 78.643 106.552 78.352H108.892C108.892 78.934 108.735 79.452 108.421 79.906C108.106 80.36 107.664 80.7092 107.094 80.9537C106.535 81.1981 105.889 81.3204 105.155 81.3204H103.828ZM106.587 75.9248V75.7852C106.587 75.3312 106.465 74.9703 106.221 74.7026C105.976 74.4232 105.65 74.2835 105.243 74.2835H103.828C103.409 74.2835 103.072 74.429 102.816 74.72C102.559 75.011 102.431 75.3952 102.431 75.8725V75.9248H106.587ZM112.683 81.1807C111.903 81.1807 111.403 80.7267 111.182 79.8187L109.418 72.4675H111.88L112.945 78.0027H112.98L114.883 72.6771H115.809C116.077 72.6771 116.292 72.7353 116.455 72.8517C116.618 72.9681 116.746 73.1485 116.839 73.393L118.463 78.0027H118.498L119.546 72.4675H122.008L120.279 79.8187C120.069 80.7267 119.569 81.1807 118.777 81.1807H117.695L115.756 75.6629L113.748 81.1807H112.683ZM131.98 81.3204C131.06 81.3204 130.245 81.1283 129.535 80.7441C128.837 80.3483 128.29 79.8012 127.894 79.1028C127.51 78.3927 127.318 77.572 127.318 76.6408V73.4977C127.318 72.5665 127.51 71.7516 127.894 71.0532C128.29 70.3431 128.837 69.796 129.535 69.4118C130.245 69.016 131.06 68.8181 131.98 68.8181H133.831C134.75 68.8181 135.559 69.016 136.258 69.4118C136.968 69.796 137.515 70.3431 137.899 71.0532C138.295 71.7516 138.493 72.5665 138.493 73.4977V76.6408C138.493 77.572 138.295 78.3927 137.899 79.1028C137.515 79.8012 136.968 80.3483 136.258 80.7441C135.559 81.1283 134.75 81.3204 133.831 81.3204H131.98ZM133.831 79.1901C134.506 79.1901 135.047 78.9456 135.455 78.4567C135.874 77.9678 136.083 77.3276 136.083 76.536V73.6025C136.083 72.8109 135.874 72.1707 135.455 71.6818C135.047 71.1929 134.506 70.9484 133.831 70.9484H131.98C131.305 70.9484 130.758 71.1929 130.339 71.6818C129.931 72.1707 129.727 72.8109 129.727 73.6025V76.536C129.727 77.3276 129.931 77.9678 130.339 78.4567C130.758 78.9456 131.305 79.1901 131.98 79.1901H133.831ZM139.883 72.4675H142.083V73.585C142.305 73.2475 142.619 72.9739 143.026 72.7644C143.445 72.5432 143.882 72.4326 144.336 72.4326H145.523V74.493H144.336C143.719 74.493 143.218 74.6793 142.834 75.0518C142.45 75.4243 142.258 75.9016 142.258 76.4836V81.1807H139.883V72.4675ZM149.054 81.3204C148.018 81.3204 147.18 81.0061 146.539 80.3774C145.911 79.7488 145.596 78.9223 145.596 77.898V75.9074C145.596 75.1973 145.748 74.5745 146.05 74.039C146.353 73.4919 146.778 73.0728 147.325 72.7818C147.872 72.4792 148.507 72.3278 149.228 72.3278H150.189C150.526 72.3278 150.87 72.4035 151.219 72.5548C151.568 72.6945 151.859 72.8866 152.092 73.1311V68.9578H154.467V81.1807H152.267V80.0282C152.034 80.4124 151.72 80.7267 151.324 80.9711C150.928 81.2039 150.515 81.3204 150.084 81.3204H149.054ZM150.346 79.2774C150.823 79.2774 151.219 79.1086 151.533 78.771C151.859 78.4218 152.045 77.962 152.092 77.3916V75.8725C152.011 75.4185 151.83 75.0576 151.551 74.7899C151.283 74.5105 150.963 74.3708 150.59 74.3708H149.525C149.06 74.3708 148.681 74.5279 148.39 74.8423C148.111 75.1566 147.971 75.5698 147.971 76.082V77.7233C147.971 78.189 148.099 78.5673 148.355 78.8583C148.611 79.1377 148.943 79.2774 149.351 79.2774H150.346ZM159.522 81.3204C158.789 81.3204 158.137 81.1865 157.566 80.9187C157.008 80.6394 156.571 80.2552 156.257 79.7663C155.942 79.2658 155.785 78.6954 155.785 78.0551V75.8026C155.785 75.1158 155.942 74.5105 156.257 73.9867C156.571 73.4628 157.008 73.0554 157.566 72.7644C158.137 72.4733 158.789 72.3278 159.522 72.3278H160.919C162.036 72.3278 162.933 72.6421 163.608 73.2707C164.283 73.8993 164.621 74.7375 164.621 75.7852V77.636H158.16V78.0551C158.16 78.4393 158.282 78.7477 158.527 78.9806C158.771 79.2134 159.103 79.3298 159.522 79.3298H160.884C161.291 79.3298 161.617 79.2425 161.862 79.0679C162.118 78.8816 162.246 78.643 162.246 78.352H164.586C164.586 78.934 164.429 79.452 164.114 79.906C163.8 80.36 163.358 80.7092 162.787 80.9537C162.229 81.1981 161.582 81.3204 160.849 81.3204H159.522ZM162.281 75.9248V75.7852C162.281 75.3312 162.159 74.9703 161.914 74.7026C161.67 74.4232 161.344 74.2835 160.936 74.2835H159.522C159.103 74.2835 158.765 74.429 158.509 74.72C158.253 75.011 158.125 75.3952 158.125 75.8725V75.9248H162.281ZM165.88 72.4675H168.08V73.585C168.301 73.2475 168.616 72.9739 169.023 72.7644C169.442 72.5432 169.879 72.4326 170.333 72.4326H171.52V74.493H170.333C169.716 74.493 169.215 74.6793 168.831 75.0518C168.447 75.4243 168.255 75.9016 168.255 76.4836V81.1807H165.88V72.4675Z" fill="#F2F2F2"/>
<path d="M94.1629 105.659C95.0709 105.819 95.7643 106.103 96.2433 106.512C96.7222 106.911 96.9617 107.43 96.9617 108.069V109.057C96.9617 109.835 96.6623 110.468 96.0637 110.957C95.465 111.446 94.6668 111.711 93.669 111.751V113.157H91.6335V111.751C90.5659 111.741 89.7277 111.426 89.1191 110.808C88.5204 110.189 88.2211 109.341 88.2211 108.263H90.2566C90.2566 108.782 90.3863 109.191 90.6457 109.491C90.9151 109.78 91.2843 109.925 91.7532 109.925H93.4146C93.8536 109.925 94.2078 109.835 94.4772 109.655C94.7566 109.466 94.8963 109.216 94.8963 108.907V108.398C94.8963 107.909 94.5371 107.605 93.8187 107.485L91.0648 107.021C90.1668 106.871 89.4833 106.587 89.0143 106.168C88.5553 105.739 88.3259 105.195 88.3259 104.537V103.698C88.3259 103.19 88.4606 102.736 88.73 102.337C89.0093 101.937 89.3985 101.623 89.8974 101.394C90.3963 101.164 90.975 101.044 91.6335 101.034V99.6275H93.669V101.034C94.6069 101.084 95.3552 101.399 95.914 101.977C96.4827 102.556 96.7671 103.314 96.7671 104.252H94.7316C94.7316 103.833 94.6169 103.499 94.3874 103.249C94.1579 102.99 93.8536 102.86 93.4744 102.86H91.7832C91.3641 102.86 91.0249 102.95 90.7654 103.13C90.516 103.309 90.3913 103.549 90.3913 103.848V104.252C90.3913 104.751 90.7355 105.06 91.424 105.18L94.1629 105.659ZM99.854 103.399L97.4443 104.611V102.696L100.348 101.154H101.919V111.631H99.854V103.399ZM102.544 112.948L102.993 112.544C103.512 112.075 103.772 111.506 103.772 110.838V109.85H105.807V110.838C105.807 111.506 105.683 112.11 105.433 112.649C105.194 113.187 104.839 113.641 104.37 114.011L103.862 114.415L102.544 112.948ZM110.074 111.751C109.416 111.751 108.837 111.626 108.338 111.376C107.839 111.127 107.45 110.778 107.171 110.329C106.901 109.87 106.767 109.346 106.767 108.757H108.817C108.817 109.106 108.932 109.391 109.161 109.61C109.391 109.82 109.695 109.925 110.074 109.925H111.361C111.79 109.925 112.135 109.795 112.394 109.536C112.653 109.266 112.783 108.912 112.783 108.473V107.261C112.534 107.48 112.234 107.66 111.885 107.799C111.536 107.939 111.202 108.009 110.882 108.009H109.88C109.201 108.009 108.602 107.879 108.084 107.62C107.575 107.35 107.176 106.976 106.886 106.497C106.607 106.018 106.467 105.465 106.467 104.836V104.237C106.467 103.609 106.622 103.055 106.931 102.576C107.24 102.087 107.679 101.708 108.248 101.439C108.817 101.169 109.471 101.034 110.209 101.034H111.257C111.965 101.034 112.589 101.169 113.127 101.439C113.676 101.708 114.1 102.087 114.4 102.576C114.699 103.065 114.849 103.629 114.849 104.267V108.473C114.849 109.121 114.704 109.695 114.415 110.194C114.125 110.683 113.716 111.067 113.187 111.346C112.658 111.616 112.05 111.751 111.361 111.751H110.074ZM110.912 106.273C111.361 106.273 111.755 106.143 112.095 105.884C112.444 105.624 112.673 105.285 112.783 104.866V104.147C112.783 103.738 112.643 103.409 112.364 103.16C112.085 102.9 111.716 102.771 111.257 102.771H110.209C109.71 102.771 109.306 102.905 108.997 103.175C108.687 103.444 108.533 103.798 108.533 104.237V104.836C108.533 105.265 108.652 105.614 108.892 105.884C109.141 106.143 109.466 106.273 109.865 106.273H110.912ZM119.319 111.751C118.601 111.751 117.967 111.636 117.418 111.406C116.869 111.167 116.44 110.838 116.131 110.419C115.832 109.99 115.682 109.501 115.682 108.952V108.248C115.682 107.869 115.827 107.495 116.116 107.126C116.406 106.757 116.785 106.462 117.254 106.243V106.228C116.884 106.008 116.585 105.729 116.356 105.39C116.136 105.05 116.026 104.711 116.026 104.372V103.713C116.026 103.185 116.166 102.721 116.445 102.322C116.735 101.912 117.139 101.598 117.658 101.379C118.187 101.149 118.79 101.034 119.469 101.034H120.756C121.434 101.034 122.033 101.149 122.552 101.379C123.081 101.598 123.485 101.912 123.764 102.322C124.054 102.721 124.198 103.185 124.198 103.713V104.372C124.198 104.701 124.083 105.041 123.854 105.39C123.634 105.729 123.34 106.008 122.971 106.228V106.243C123.44 106.462 123.819 106.757 124.108 107.126C124.398 107.495 124.542 107.869 124.542 108.248V108.952C124.542 109.501 124.388 109.99 124.078 110.419C123.779 110.838 123.355 111.167 122.806 111.406C122.258 111.636 121.624 111.751 120.906 111.751H119.319ZM120.756 105.405C121.165 105.405 121.494 105.31 121.744 105.12C122.003 104.931 122.133 104.681 122.133 104.372V103.743C122.133 103.464 122.003 103.24 121.744 103.07C121.494 102.9 121.165 102.815 120.756 102.815H119.469C119.06 102.815 118.725 102.9 118.466 103.07C118.217 103.24 118.092 103.464 118.092 103.743V104.372C118.092 104.681 118.217 104.931 118.466 105.12C118.725 105.31 119.06 105.405 119.469 105.405H120.756ZM120.906 109.97C121.374 109.97 121.754 109.87 122.043 109.67C122.332 109.461 122.477 109.186 122.477 108.847V108.293C122.477 107.944 122.317 107.665 121.998 107.455C121.689 107.246 121.275 107.141 120.756 107.141H119.469C118.95 107.141 118.531 107.246 118.212 107.455C117.902 107.665 117.748 107.944 117.748 108.293V108.847C117.748 109.186 117.892 109.461 118.182 109.67C118.471 109.87 118.85 109.97 119.319 109.97H120.906ZM128.949 111.751C128.251 111.751 127.632 111.601 127.093 111.302C126.555 110.992 126.135 110.558 125.836 109.999C125.537 109.441 125.387 108.797 125.387 108.069V104.716C125.387 103.988 125.532 103.344 125.821 102.786C126.121 102.227 126.54 101.798 127.078 101.498C127.617 101.189 128.241 101.034 128.949 101.034H130.536C131.224 101.034 131.833 101.189 132.362 101.498C132.89 101.798 133.3 102.227 133.589 102.786C133.888 103.344 134.038 103.988 134.038 104.716V108.069C134.038 108.797 133.893 109.441 133.604 109.999C133.315 110.558 132.905 110.992 132.377 111.302C131.848 111.601 131.234 111.751 130.536 111.751H128.949ZM130.506 109.925C130.945 109.925 131.294 109.76 131.553 109.431C131.823 109.092 131.958 108.647 131.958 108.099V104.686C131.958 104.138 131.823 103.698 131.553 103.369C131.294 103.03 130.945 102.86 130.506 102.86H128.979C128.52 102.86 128.151 103.03 127.872 103.369C127.592 103.698 127.453 104.138 127.453 104.686V108.099C127.453 108.647 127.592 109.092 127.872 109.431C128.151 109.76 128.52 109.925 128.979 109.925H130.506ZM135.856 111.781C135.487 111.781 135.187 111.671 134.958 111.451C134.738 111.222 134.629 110.922 134.629 110.553C134.629 110.184 134.738 109.89 134.958 109.67C135.187 109.441 135.487 109.326 135.856 109.326C136.225 109.326 136.519 109.441 136.739 109.67C136.968 109.89 137.083 110.184 137.083 110.553C137.083 110.922 136.968 111.222 136.739 111.451C136.519 111.671 136.225 111.781 135.856 111.781ZM141.242 111.751C140.543 111.751 139.925 111.601 139.386 111.302C138.847 110.992 138.428 110.558 138.129 109.999C137.829 109.441 137.68 108.797 137.68 108.069V104.716C137.68 103.988 137.824 103.344 138.114 102.786C138.413 102.227 138.832 101.798 139.371 101.498C139.91 101.189 140.533 101.034 141.242 101.034H142.828C143.517 101.034 144.125 101.189 144.654 101.498C145.183 101.798 145.592 102.227 145.882 102.786C146.181 103.344 146.331 103.988 146.331 104.716V108.069C146.331 108.797 146.186 109.441 145.896 109.999C145.607 110.558 145.198 110.992 144.669 111.302C144.14 111.601 143.527 111.751 142.828 111.751H141.242ZM142.798 109.925C143.237 109.925 143.587 109.76 143.846 109.431C144.115 109.092 144.25 108.647 144.25 108.099V104.686C144.25 104.138 144.115 103.698 143.846 103.369C143.587 103.03 143.237 102.86 142.798 102.86H141.272C140.813 102.86 140.444 103.03 140.164 103.369C139.885 103.698 139.745 104.138 139.745 104.686V108.099C139.745 108.647 139.885 109.092 140.164 109.431C140.444 109.76 140.813 109.925 141.272 109.925H142.798ZM151.027 111.751C150.329 111.751 149.71 111.601 149.172 111.302C148.633 110.992 148.214 110.558 147.914 109.999C147.615 109.441 147.465 108.797 147.465 108.069V104.716C147.465 103.988 147.61 103.344 147.899 102.786C148.199 102.227 148.618 101.798 149.157 101.498C149.695 101.189 150.319 101.034 151.027 101.034H152.614C153.302 101.034 153.911 101.189 154.44 101.498C154.969 101.798 155.378 102.227 155.667 102.786C155.967 103.344 156.116 103.988 156.116 104.716V108.069C156.116 108.797 155.972 109.441 155.682 109.999C155.393 110.558 154.984 110.992 154.455 111.302C153.926 111.601 153.312 111.751 152.614 111.751H151.027ZM152.584 109.925C153.023 109.925 153.372 109.76 153.632 109.431C153.901 109.092 154.036 108.647 154.036 108.099V104.686C154.036 104.138 153.901 103.698 153.632 103.369C153.372 103.03 153.023 102.86 152.584 102.86H151.057C150.598 102.86 150.229 103.03 149.95 103.369C149.671 103.698 149.531 104.138 149.531 104.686V108.099C149.531 108.647 149.671 109.092 149.95 109.431C150.229 109.76 150.598 109.925 151.057 109.925H152.584Z" fill="#16BA7F"/>
<path d="M169.712 103.984L167.704 104.994V103.635L170.024 102.4H171.172V111.131H169.712V103.984ZM172.331 110.021C172.331 109.539 172.418 109.123 172.593 108.774C172.776 108.416 173.075 108.1 173.491 107.826L176.584 105.818C176.751 105.71 176.879 105.572 176.971 105.406C177.071 105.24 177.121 105.069 177.121 104.895V104.496C177.121 104.23 177.021 104.013 176.821 103.847C176.63 103.672 176.381 103.585 176.073 103.585H174.925C174.56 103.585 174.273 103.718 174.065 103.984C173.857 104.242 173.753 104.6 173.753 105.057H172.294C172.294 104.2 172.527 103.527 172.992 103.036C173.458 102.546 174.094 102.3 174.9 102.3H176.073C176.563 102.3 177 102.392 177.382 102.575C177.765 102.758 178.06 103.016 178.268 103.348C178.476 103.681 178.58 104.063 178.58 104.496V104.895C178.58 105.31 178.488 105.676 178.305 105.992C178.131 106.308 177.852 106.583 177.47 106.815L174.464 108.724C174.231 108.873 174.061 109.036 173.953 109.21C173.853 109.376 173.803 109.593 173.803 109.859H178.655V111.131H172.331V110.021ZM185.783 111.231C185.151 111.231 184.594 111.098 184.111 110.832C183.629 110.557 183.255 110.175 182.989 109.684C182.723 109.185 182.59 108.611 182.59 107.963V105.568C182.59 104.92 182.723 104.35 182.989 103.86C183.255 103.361 183.629 102.978 184.111 102.712C184.594 102.438 185.151 102.3 185.783 102.3H187.105C187.737 102.3 188.294 102.438 188.776 102.712C189.267 102.978 189.645 103.361 189.911 103.86C190.177 104.35 190.31 104.92 190.31 105.568V107.963C190.31 108.611 190.177 109.185 189.911 109.684C189.645 110.175 189.267 110.557 188.776 110.832C188.294 111.098 187.737 111.231 187.105 111.231H185.783ZM187.105 109.946C187.62 109.946 188.04 109.759 188.364 109.385C188.689 109.011 188.851 108.52 188.851 107.913V105.618C188.851 105.011 188.689 104.521 188.364 104.146C188.049 103.772 187.629 103.585 187.105 103.585H185.795C185.271 103.585 184.847 103.772 184.523 104.146C184.207 104.521 184.049 105.011 184.049 105.618V107.913C184.049 108.52 184.207 109.011 184.523 109.385C184.847 109.759 185.271 109.946 185.795 109.946H187.105ZM191.456 104.907H192.79V105.755C192.956 105.498 193.193 105.29 193.501 105.132C193.817 104.965 194.141 104.882 194.474 104.882H195.222V106.129H194.474C194 106.129 193.618 106.275 193.327 106.566C193.035 106.857 192.89 107.235 192.89 107.701V111.131H191.456V104.907ZM197.797 111.231C197.09 111.231 196.516 111.01 196.075 110.57C195.643 110.121 195.427 109.534 195.427 108.811V107.364C195.427 106.857 195.531 106.412 195.739 106.03C195.947 105.639 196.238 105.34 196.612 105.132C196.994 104.916 197.431 104.807 197.921 104.807H198.682C198.94 104.807 199.193 104.866 199.443 104.982C199.701 105.098 199.913 105.252 200.079 105.443V102.4H201.501V111.131H200.166V110.27C199.992 110.561 199.759 110.794 199.468 110.969C199.177 111.143 198.882 111.231 198.582 111.231H197.797ZM198.695 109.996C199.052 109.996 199.36 109.855 199.618 109.572C199.884 109.281 200.037 108.923 200.079 108.499V107.252C200.021 106.894 199.879 106.603 199.655 106.379C199.439 106.154 199.177 106.042 198.869 106.042H198.071C197.705 106.042 197.41 106.171 197.185 106.429C196.969 106.687 196.861 107.023 196.861 107.439V108.724C196.861 109.106 196.961 109.414 197.16 109.647C197.368 109.879 197.63 109.996 197.946 109.996H198.695ZM205.152 111.231C204.645 111.231 204.196 111.135 203.805 110.944C203.422 110.753 203.123 110.482 202.907 110.133C202.699 109.784 202.595 109.381 202.595 108.923V107.252C202.595 106.77 202.699 106.346 202.907 105.98C203.123 105.606 203.422 105.319 203.805 105.119C204.196 104.911 204.645 104.807 205.152 104.807H206.15C206.906 104.807 207.513 105.028 207.971 105.468C208.428 105.909 208.657 106.495 208.657 107.227V108.474H204.029V108.923C204.029 109.256 204.129 109.522 204.329 109.721C204.536 109.921 204.811 110.021 205.152 110.021H206.112C206.445 110.021 206.711 109.942 206.91 109.784C207.118 109.618 207.222 109.401 207.222 109.135H208.632C208.632 109.767 208.399 110.274 207.933 110.657C207.467 111.039 206.856 111.231 206.1 111.231H205.152ZM207.247 107.402V107.227C207.247 106.861 207.147 106.566 206.948 106.342C206.748 106.117 206.486 106.005 206.162 106.005H205.152C204.811 106.005 204.532 106.125 204.316 106.366C204.108 106.599 204.004 106.907 204.004 107.289V107.402H207.247ZM209.696 104.907H211.03V105.755C211.197 105.498 211.434 105.29 211.741 105.132C212.057 104.965 212.382 104.882 212.714 104.882H213.463V106.129H212.714C212.24 106.129 211.858 106.275 211.567 106.566C211.276 106.857 211.13 107.235 211.13 107.701V111.131H209.696V104.907ZM216.169 111.231C215.454 111.231 214.88 111.039 214.448 110.657C214.016 110.274 213.8 109.767 213.8 109.135H215.209C215.209 109.401 215.296 109.618 215.471 109.784C215.645 109.942 215.878 110.021 216.169 110.021H217.279C217.562 110.021 217.782 109.975 217.94 109.884C218.107 109.784 218.19 109.651 218.19 109.485V109.21C218.19 109.094 218.14 108.994 218.04 108.911C217.949 108.828 217.82 108.769 217.654 108.736L215.496 108.362C215.014 108.279 214.631 108.104 214.348 107.838C214.066 107.564 213.924 107.248 213.924 106.89V106.479C213.924 105.963 214.128 105.556 214.535 105.256C214.951 104.957 215.521 104.807 216.244 104.807H217.242C217.899 104.807 218.431 104.986 218.838 105.344C219.246 105.701 219.45 106.171 219.45 106.753H218.04C218.04 106.529 217.965 106.35 217.816 106.217C217.674 106.084 217.483 106.017 217.242 106.017H216.257C215.966 106.017 215.741 106.063 215.583 106.154C215.425 106.246 215.346 106.375 215.346 106.541V106.791C215.346 106.907 215.392 107.007 215.483 107.09C215.583 107.173 215.712 107.227 215.87 107.252L218.103 107.651C218.56 107.743 218.926 107.917 219.2 108.175C219.474 108.433 219.612 108.736 219.612 109.085V109.547C219.612 110.062 219.4 110.474 218.976 110.782C218.552 111.081 217.986 111.231 217.279 111.231H216.169Z" fill="#6E6E6E"/>
<path d="M88.0903 129.878H89.4124L92.3558 135.266L95.2244 129.878H96.5465V138.608H95.1122V132.584L93.0543 136.401C92.9379 136.6 92.8256 136.746 92.7175 136.837C92.6094 136.92 92.4889 136.962 92.3558 136.962H91.9442L89.5121 132.584V138.608H88.0903V129.878ZM99.8573 138.708C99.2254 138.708 98.714 138.55 98.3232 138.234C97.9407 137.91 97.7495 137.482 97.7495 136.95V136.501C97.7495 135.977 97.9491 135.557 98.3482 135.241C98.7556 134.925 99.2878 134.767 99.9446 134.767H100.718C100.951 134.767 101.2 134.8 101.466 134.867C101.732 134.933 101.969 135.021 102.177 135.129V134.355C102.177 134.098 102.094 133.89 101.928 133.732C101.761 133.574 101.545 133.495 101.279 133.495H100.231C99.9571 133.495 99.7368 133.561 99.5705 133.694C99.4042 133.819 99.321 133.985 99.321 134.193H97.9241C97.9241 133.619 98.1361 133.158 98.5602 132.809C98.9843 132.46 99.5414 132.285 100.231 132.285H101.279C101.978 132.285 102.539 132.476 102.963 132.859C103.387 133.233 103.599 133.732 103.599 134.355V138.608H102.264V137.823C102.065 138.089 101.815 138.305 101.516 138.471C101.217 138.629 100.922 138.708 100.631 138.708H99.8573ZM100.718 137.586C101.05 137.586 101.35 137.494 101.616 137.311C101.882 137.12 102.069 136.871 102.177 136.563V136.264C102.036 136.147 101.836 136.056 101.578 135.989C101.321 135.914 101.05 135.877 100.768 135.877H99.982C99.7326 135.877 99.5289 135.939 99.3709 136.064C99.2212 136.189 99.1464 136.351 99.1464 136.55V136.9C99.1464 137.108 99.2254 137.274 99.3834 137.399C99.5414 137.523 99.7492 137.586 100.007 137.586H100.718ZM104.874 132.385H106.208V133.195C106.391 132.921 106.632 132.701 106.932 132.534C107.231 132.368 107.53 132.285 107.83 132.285H108.603C109.243 132.285 109.754 132.489 110.137 132.896C110.528 133.304 110.723 133.84 110.723 134.505V138.608H109.289V134.542C109.289 134.243 109.21 134.002 109.052 133.819C108.902 133.628 108.703 133.532 108.453 133.532H107.68C107.356 133.532 107.065 133.657 106.807 133.906C106.549 134.147 106.383 134.459 106.308 134.842V138.608H104.874V132.385ZM113.901 138.708C113.269 138.708 112.758 138.55 112.367 138.234C111.985 137.91 111.793 137.482 111.793 136.95V136.501C111.793 135.977 111.993 135.557 112.392 135.241C112.8 134.925 113.332 134.767 113.989 134.767H114.762C114.995 134.767 115.244 134.8 115.51 134.867C115.776 134.933 116.013 135.021 116.221 135.129V134.355C116.221 134.098 116.138 133.89 115.972 133.732C115.805 133.574 115.589 133.495 115.323 133.495H114.275C114.001 133.495 113.781 133.561 113.614 133.694C113.448 133.819 113.365 133.985 113.365 134.193H111.968C111.968 133.619 112.18 133.158 112.604 132.809C113.028 132.46 113.585 132.285 114.275 132.285H115.323C116.022 132.285 116.583 132.476 117.007 132.859C117.431 133.233 117.643 133.732 117.643 134.355V138.608H116.308V137.823C116.109 138.089 115.859 138.305 115.56 138.471C115.261 138.629 114.966 138.708 114.675 138.708H113.901ZM114.762 137.586C115.094 137.586 115.394 137.494 115.66 137.311C115.926 137.12 116.113 136.871 116.221 136.563V136.264C116.08 136.147 115.88 136.056 115.622 135.989C115.365 135.914 115.094 135.877 114.812 135.877H114.026C113.777 135.877 113.573 135.939 113.415 136.064C113.265 136.189 113.19 136.351 113.19 136.55V136.9C113.19 137.108 113.269 137.274 113.427 137.399C113.585 137.523 113.793 137.586 114.051 137.586H114.762ZM121.2 141.14C120.576 141.14 120.057 140.966 119.641 140.616C119.225 140.267 118.997 139.806 118.955 139.232H120.364C120.389 139.44 120.477 139.606 120.626 139.731C120.784 139.856 120.976 139.918 121.2 139.918H122.298C122.614 139.918 122.863 139.797 123.046 139.556C123.237 139.323 123.333 139.008 123.333 138.608V137.897C123.158 138.097 122.942 138.259 122.684 138.384C122.435 138.509 122.189 138.571 121.948 138.571H121.075C120.36 138.571 119.778 138.351 119.329 137.91C118.888 137.461 118.668 136.875 118.668 136.151V134.817C118.668 134.318 118.772 133.877 118.98 133.495C119.188 133.112 119.479 132.817 119.853 132.609C120.236 132.393 120.672 132.285 121.163 132.285H121.936C122.219 132.285 122.497 132.356 122.772 132.497C123.046 132.63 123.262 132.809 123.42 133.033V132.385H124.767V138.608C124.767 139.382 124.543 139.997 124.094 140.454C123.653 140.912 123.054 141.14 122.298 141.14H121.2ZM122.023 137.349C122.381 137.349 122.68 137.207 122.921 136.925C123.162 136.642 123.3 136.276 123.333 135.827V134.742C123.3 134.384 123.171 134.093 122.946 133.869C122.722 133.636 122.451 133.52 122.135 133.52H121.275C120.926 133.52 120.643 133.649 120.427 133.906C120.211 134.156 120.102 134.488 120.102 134.904V136.064C120.102 136.447 120.198 136.758 120.389 136.999C120.589 137.232 120.847 137.349 121.163 137.349H122.023ZM127.046 131.686C126.763 131.686 126.534 131.603 126.36 131.437C126.193 131.262 126.11 131.042 126.11 130.776C126.11 130.51 126.193 130.294 126.36 130.127C126.534 129.953 126.763 129.865 127.046 129.865C127.328 129.865 127.557 129.953 127.732 130.127C127.906 130.294 127.993 130.51 127.993 130.776C127.993 131.042 127.906 131.262 127.732 131.437C127.557 131.603 127.328 131.686 127.046 131.686ZM126.335 132.385H127.769V138.608H126.335V132.385ZM129.344 132.385H130.679V133.195C130.862 132.921 131.103 132.701 131.402 132.534C131.701 132.368 132.001 132.285 132.3 132.285H133.073C133.714 132.285 134.225 132.489 134.607 132.896C134.998 133.304 135.194 133.84 135.194 134.505V138.608H133.759V134.542C133.759 134.243 133.68 134.002 133.522 133.819C133.373 133.628 133.173 133.532 132.924 133.532H132.15C131.826 133.532 131.535 133.657 131.277 133.906C131.02 134.147 130.853 134.459 130.778 134.842V138.608H129.344V132.385ZM138.746 141.14C138.122 141.14 137.603 140.966 137.187 140.616C136.771 140.267 136.543 139.806 136.501 139.232H137.91C137.935 139.44 138.023 139.606 138.172 139.731C138.33 139.856 138.521 139.918 138.746 139.918H139.844C140.16 139.918 140.409 139.797 140.592 139.556C140.783 139.323 140.879 139.008 140.879 138.608V137.897C140.704 138.097 140.488 138.259 140.23 138.384C139.981 138.509 139.735 138.571 139.494 138.571H138.621C137.906 138.571 137.324 138.351 136.875 137.91C136.434 137.461 136.214 136.875 136.214 136.151V134.817C136.214 134.318 136.318 133.877 136.526 133.495C136.734 133.112 137.025 132.817 137.399 132.609C137.781 132.393 138.218 132.285 138.709 132.285H139.482C139.765 132.285 140.043 132.356 140.318 132.497C140.592 132.63 140.808 132.809 140.966 133.033V132.385H142.313V138.608C142.313 139.382 142.089 139.997 141.64 140.454C141.199 140.912 140.6 141.14 139.844 141.14H138.746ZM139.569 137.349C139.927 137.349 140.226 137.207 140.467 136.925C140.708 136.642 140.845 136.276 140.879 135.827V134.742C140.845 134.384 140.717 134.093 140.492 133.869C140.268 133.636 139.997 133.52 139.681 133.52H138.821C138.472 133.52 138.189 133.649 137.973 133.906C137.757 134.156 137.648 134.488 137.648 134.904V136.064C137.648 136.447 137.744 136.758 137.935 136.999C138.135 137.232 138.393 137.349 138.709 137.349H139.569ZM148.948 138.708C148.233 138.708 147.659 138.517 147.227 138.134C146.794 137.752 146.578 137.245 146.578 136.613H147.988C147.988 136.879 148.075 137.095 148.25 137.261C148.424 137.419 148.657 137.498 148.948 137.498H150.058C150.341 137.498 150.561 137.453 150.719 137.361C150.885 137.261 150.969 137.128 150.969 136.962V136.688C150.969 136.571 150.919 136.471 150.819 136.388C150.727 136.305 150.599 136.247 150.432 136.214L148.275 135.84C147.792 135.756 147.41 135.582 147.127 135.316C146.844 135.041 146.703 134.725 146.703 134.368V133.956C146.703 133.441 146.907 133.033 147.314 132.734C147.73 132.435 148.299 132.285 149.023 132.285H150.021C150.678 132.285 151.21 132.464 151.617 132.821C152.025 133.179 152.228 133.649 152.228 134.231H150.819C150.819 134.006 150.744 133.827 150.594 133.694C150.453 133.561 150.262 133.495 150.021 133.495H149.035C148.744 133.495 148.52 133.54 148.362 133.632C148.204 133.723 148.125 133.852 148.125 134.019V134.268C148.125 134.384 148.171 134.484 148.262 134.567C148.362 134.651 148.491 134.705 148.649 134.73L150.881 135.129C151.339 135.22 151.704 135.395 151.979 135.652C152.253 135.91 152.39 136.214 152.39 136.563V137.024C152.39 137.54 152.178 137.952 151.754 138.259C151.33 138.559 150.765 138.708 150.058 138.708H148.948ZM155.272 138.708C154.64 138.708 154.129 138.55 153.738 138.234C153.356 137.91 153.164 137.482 153.164 136.95V136.501C153.164 135.977 153.364 135.557 153.763 135.241C154.171 134.925 154.703 134.767 155.36 134.767H156.133C156.366 134.767 156.615 134.8 156.881 134.867C157.147 134.933 157.384 135.021 157.592 135.129V134.355C157.592 134.098 157.509 133.89 157.343 133.732C157.176 133.574 156.96 133.495 156.694 133.495H155.646C155.372 133.495 155.152 133.561 154.985 133.694C154.819 133.819 154.736 133.985 154.736 134.193H153.339C153.339 133.619 153.551 133.158 153.975 132.809C154.399 132.46 154.956 132.285 155.646 132.285H156.694C157.393 132.285 157.954 132.476 158.378 132.859C158.802 133.233 159.014 133.732 159.014 134.355V138.608H157.679V137.823C157.48 138.089 157.23 138.305 156.931 138.471C156.632 138.629 156.337 138.708 156.046 138.708H155.272ZM156.133 137.586C156.465 137.586 156.765 137.494 157.031 137.311C157.297 137.12 157.484 136.871 157.592 136.563V136.264C157.451 136.147 157.251 136.056 156.993 135.989C156.736 135.914 156.465 135.877 156.183 135.877H155.397C155.148 135.877 154.944 135.939 154.786 136.064C154.636 136.189 154.561 136.351 154.561 136.55V136.9C154.561 137.108 154.64 137.274 154.798 137.399C154.956 137.523 155.164 137.586 155.422 137.586H156.133ZM162.297 138.608C161.598 138.608 161.087 138.463 160.762 138.172C160.447 137.873 160.289 137.403 160.289 136.763V129.878H161.723V136.7C161.723 136.941 161.773 137.116 161.873 137.224C161.972 137.324 162.139 137.374 162.371 137.374H162.97V138.608H162.297ZM165.927 138.708C165.42 138.708 164.971 138.613 164.58 138.421C164.198 138.23 163.899 137.96 163.682 137.611C163.475 137.261 163.371 136.858 163.371 136.401V134.73C163.371 134.247 163.475 133.823 163.682 133.457C163.899 133.083 164.198 132.796 164.58 132.597C164.971 132.389 165.42 132.285 165.927 132.285H166.925C167.682 132.285 168.289 132.505 168.746 132.946C169.203 133.387 169.432 133.973 169.432 134.705V135.952H164.805V136.401C164.805 136.733 164.905 136.999 165.104 137.199C165.312 137.399 165.586 137.498 165.927 137.498H166.888C167.22 137.498 167.486 137.419 167.686 137.261C167.894 137.095 167.998 136.879 167.998 136.613H169.407C169.407 137.245 169.174 137.752 168.709 138.134C168.243 138.517 167.632 138.708 166.875 138.708H165.927ZM168.023 134.879V134.705C168.023 134.339 167.923 134.044 167.723 133.819C167.524 133.595 167.262 133.482 166.938 133.482H165.927C165.586 133.482 165.308 133.603 165.092 133.844C164.884 134.077 164.78 134.384 164.78 134.767V134.879H168.023ZM172.529 138.708C171.814 138.708 171.241 138.517 170.808 138.134C170.376 137.752 170.16 137.245 170.16 136.613H171.569C171.569 136.879 171.656 137.095 171.831 137.261C172.006 137.419 172.238 137.498 172.529 137.498H173.639C173.922 137.498 174.142 137.453 174.3 137.361C174.467 137.261 174.55 137.128 174.55 136.962V136.688C174.55 136.571 174.5 136.471 174.4 136.388C174.309 136.305 174.18 136.247 174.014 136.214L171.856 135.84C171.374 135.756 170.991 135.582 170.708 135.316C170.426 135.041 170.284 134.725 170.284 134.368V133.956C170.284 133.441 170.488 133.033 170.896 132.734C171.311 132.435 171.881 132.285 172.604 132.285H173.602C174.259 132.285 174.791 132.464 175.198 132.821C175.606 133.179 175.81 133.649 175.81 134.231H174.4C174.4 134.006 174.325 133.827 174.176 133.694C174.034 133.561 173.843 133.495 173.602 133.495H172.617C172.326 133.495 172.101 133.54 171.943 133.632C171.785 133.723 171.706 133.852 171.706 134.019V134.268C171.706 134.384 171.752 134.484 171.843 134.567C171.943 134.651 172.072 134.705 172.23 134.73L174.463 135.129C174.92 135.22 175.286 135.395 175.56 135.652C175.835 135.91 175.972 136.214 175.972 136.563V137.024C175.972 137.54 175.76 137.952 175.336 138.259C174.912 138.559 174.346 138.708 173.639 138.708H172.529ZM182.811 138.608C182.104 138.608 181.589 138.45 181.264 138.134C180.94 137.818 180.778 137.32 180.778 136.638V133.619H179.681V132.385H180.815V130.501H182.212V132.385H183.834V133.619H182.212V136.588C182.212 136.862 182.266 137.062 182.375 137.187C182.483 137.311 182.653 137.374 182.886 137.374H183.834V138.608H182.811ZM184.936 132.385H186.27V133.233C186.437 132.975 186.674 132.767 186.981 132.609C187.297 132.443 187.622 132.36 187.954 132.36H188.703V133.607H187.954C187.48 133.607 187.098 133.753 186.807 134.044C186.516 134.335 186.37 134.713 186.37 135.179V138.608H184.936V132.385ZM191.065 138.708C190.433 138.708 189.921 138.55 189.531 138.234C189.148 137.91 188.957 137.482 188.957 136.95V136.501C188.957 135.977 189.157 135.557 189.556 135.241C189.963 134.925 190.495 134.767 191.152 134.767H191.925C192.158 134.767 192.408 134.8 192.674 134.867C192.94 134.933 193.177 135.021 193.385 135.129V134.355C193.385 134.098 193.301 133.89 193.135 133.732C192.969 133.574 192.753 133.495 192.487 133.495H191.439C191.165 133.495 190.944 133.561 190.778 133.694C190.612 133.819 190.528 133.985 190.528 134.193H189.132C189.132 133.619 189.344 133.158 189.768 132.809C190.192 132.46 190.749 132.285 191.439 132.285H192.487C193.185 132.285 193.746 132.476 194.17 132.859C194.594 133.233 194.806 133.732 194.806 134.355V138.608H193.472V137.823C193.272 138.089 193.023 138.305 192.724 138.471C192.424 138.629 192.129 138.708 191.838 138.708H191.065ZM191.925 137.586C192.258 137.586 192.557 137.494 192.823 137.311C193.089 137.12 193.277 136.871 193.385 136.563V136.264C193.243 136.147 193.044 136.056 192.786 135.989C192.528 135.914 192.258 135.877 191.975 135.877H191.19C190.94 135.877 190.736 135.939 190.578 136.064C190.429 136.189 190.354 136.351 190.354 136.55V136.9C190.354 137.108 190.433 137.274 190.591 137.399C190.749 137.523 190.957 137.586 191.214 137.586H191.925ZM196.081 132.385H197.416V133.195C197.599 132.921 197.84 132.701 198.139 132.534C198.438 132.368 198.738 132.285 199.037 132.285H199.81C200.451 132.285 200.962 132.489 201.344 132.896C201.735 133.304 201.931 133.84 201.931 134.505V138.608H200.496V134.542C200.496 134.243 200.417 134.002 200.259 133.819C200.11 133.628 199.91 133.532 199.661 133.532H198.887C198.563 133.532 198.272 133.657 198.014 133.906C197.757 134.147 197.59 134.459 197.515 134.842V138.608H196.081V132.385ZM205.258 138.708C204.543 138.708 203.97 138.517 203.537 138.134C203.105 137.752 202.889 137.245 202.889 136.613H204.298C204.298 136.879 204.385 137.095 204.56 137.261C204.735 137.419 204.967 137.498 205.258 137.498H206.368C206.651 137.498 206.872 137.453 207.03 137.361C207.196 137.261 207.279 137.128 207.279 136.962V136.688C207.279 136.571 207.229 136.471 207.129 136.388C207.038 136.305 206.909 136.247 206.743 136.214L204.585 135.84C204.103 135.756 203.72 135.582 203.437 135.316C203.155 135.041 203.013 134.725 203.013 134.368V133.956C203.013 133.441 203.217 133.033 203.625 132.734C204.04 132.435 204.61 132.285 205.333 132.285H206.331C206.988 132.285 207.52 132.464 207.928 132.821C208.335 133.179 208.539 133.649 208.539 134.231H207.129C207.129 134.006 207.054 133.827 206.905 133.694C206.763 133.561 206.572 133.495 206.331 133.495H205.346C205.055 133.495 204.83 133.54 204.672 133.632C204.514 133.723 204.435 133.852 204.435 134.019V134.268C204.435 134.384 204.481 134.484 204.572 134.567C204.672 134.651 204.801 134.705 204.959 134.73L207.192 135.129C207.649 135.22 208.015 135.395 208.289 135.652C208.564 135.91 208.701 136.214 208.701 136.563V137.024C208.701 137.54 208.489 137.952 208.065 138.259C207.641 138.559 207.075 138.708 206.368 138.708H205.258ZM211.583 138.708C210.951 138.708 210.439 138.55 210.049 138.234C209.666 137.91 209.475 137.482 209.475 136.95V136.501C209.475 135.977 209.674 135.557 210.074 135.241C210.481 134.925 211.013 134.767 211.67 134.767H212.443C212.676 134.767 212.926 134.8 213.192 134.867C213.458 134.933 213.695 135.021 213.903 135.129V134.355C213.903 134.098 213.819 133.89 213.653 133.732C213.487 133.574 213.271 133.495 213.005 133.495H211.957C211.682 133.495 211.462 133.561 211.296 133.694C211.13 133.819 211.046 133.985 211.046 134.193H209.649C209.649 133.619 209.861 133.158 210.286 132.809C210.71 132.46 211.267 132.285 211.957 132.285H213.005C213.703 132.285 214.264 132.476 214.688 132.859C215.112 133.233 215.324 133.732 215.324 134.355V138.608H213.99V137.823C213.79 138.089 213.541 138.305 213.241 138.471C212.942 138.629 212.647 138.708 212.356 138.708H211.583ZM212.443 137.586C212.776 137.586 213.075 137.494 213.341 137.311C213.607 137.12 213.794 136.871 213.903 136.563V136.264C213.761 136.147 213.562 136.056 213.304 135.989C213.046 135.914 212.776 135.877 212.493 135.877H211.707C211.458 135.877 211.254 135.939 211.096 136.064C210.947 136.189 210.872 136.351 210.872 136.55V136.9C210.872 137.108 210.951 137.274 211.109 137.399C211.267 137.523 211.475 137.586 211.732 137.586H212.443ZM218.881 138.708C218.116 138.708 217.501 138.488 217.035 138.047C216.578 137.606 216.35 137.024 216.35 136.301V134.73C216.35 134.247 216.453 133.823 216.661 133.457C216.869 133.083 217.164 132.796 217.547 132.597C217.929 132.389 218.37 132.285 218.869 132.285H219.867C220.582 132.285 221.156 132.493 221.588 132.909C222.029 133.316 222.249 133.856 222.249 134.53H220.84C220.84 134.231 220.748 133.989 220.565 133.807C220.391 133.615 220.158 133.52 219.867 133.52H218.881C218.557 133.52 218.291 133.64 218.083 133.881C217.884 134.123 217.784 134.434 217.784 134.817V136.214C217.784 136.588 217.884 136.891 218.083 137.124C218.291 137.357 218.561 137.473 218.894 137.473H219.879C220.187 137.473 220.432 137.361 220.615 137.137C220.806 136.912 220.902 136.621 220.902 136.264H222.311C222.311 136.995 222.087 137.586 221.638 138.035C221.197 138.484 220.611 138.708 219.879 138.708H218.881ZM225.814 138.608C225.107 138.608 224.592 138.45 224.268 138.134C223.943 137.818 223.781 137.32 223.781 136.638V133.619H222.684V132.385H223.819V130.501H225.215V132.385H226.837V133.619H225.215V136.588C225.215 136.862 225.27 137.062 225.378 137.187C225.486 137.311 225.656 137.374 225.889 137.374H226.837V138.608H225.814ZM228.874 131.686C228.592 131.686 228.363 131.603 228.188 131.437C228.022 131.262 227.939 131.042 227.939 130.776C227.939 130.51 228.022 130.294 228.188 130.127C228.363 129.953 228.592 129.865 228.874 129.865C229.157 129.865 229.386 129.953 229.56 130.127C229.735 130.294 229.822 130.51 229.822 130.776C229.822 131.042 229.735 131.262 229.56 131.437C229.386 131.603 229.157 131.686 228.874 131.686ZM228.163 132.385H229.598V138.608H228.163V132.385ZM233.468 138.708C232.703 138.708 232.088 138.488 231.622 138.047C231.156 137.598 230.924 137.008 230.924 136.276V134.73C230.924 134.247 231.028 133.823 231.235 133.457C231.452 133.083 231.751 132.796 232.133 132.597C232.524 132.389 232.973 132.285 233.48 132.285H234.578C235.085 132.285 235.53 132.389 235.912 132.597C236.303 132.796 236.603 133.083 236.81 133.457C237.027 133.823 237.135 134.247 237.135 134.73V136.276C237.135 137.008 236.898 137.598 236.424 138.047C235.958 138.488 235.335 138.708 234.553 138.708H233.468ZM234.541 137.473C234.89 137.473 235.168 137.357 235.376 137.124C235.592 136.883 235.7 136.571 235.7 136.189V134.804C235.7 134.422 235.597 134.114 235.389 133.881C235.181 133.64 234.902 133.52 234.553 133.52H233.505C233.156 133.52 232.878 133.64 232.67 133.881C232.462 134.114 232.358 134.422 232.358 134.804V136.189C232.358 136.571 232.462 136.883 232.67 137.124C232.878 137.357 233.148 137.473 233.48 137.473H234.541ZM238.232 132.385H239.566V133.195C239.749 132.921 239.99 132.701 240.289 132.534C240.589 132.368 240.888 132.285 241.187 132.285H241.961C242.601 132.285 243.112 132.489 243.495 132.896C243.886 133.304 244.081 133.84 244.081 134.505V138.608H242.647V134.542C242.647 134.243 242.568 134.002 242.41 133.819C242.26 133.628 242.061 133.532 241.811 133.532H241.038C240.714 133.532 240.423 133.657 240.165 133.906C239.907 134.147 239.741 134.459 239.666 134.842V138.608H238.232V132.385ZM247.409 138.708C246.694 138.708 246.12 138.517 245.688 138.134C245.255 137.752 245.039 137.245 245.039 136.613H246.449C246.449 136.879 246.536 137.095 246.71 137.261C246.885 137.419 247.118 137.498 247.409 137.498H248.519C248.802 137.498 249.022 137.453 249.18 137.361C249.346 137.261 249.429 137.128 249.429 136.962V136.688C249.429 136.571 249.38 136.471 249.28 136.388C249.188 136.305 249.059 136.247 248.893 136.214L246.735 135.84C246.253 135.756 245.871 135.582 245.588 135.316C245.305 135.041 245.164 134.725 245.164 134.368V133.956C245.164 133.441 245.368 133.033 245.775 132.734C246.191 132.435 246.76 132.285 247.484 132.285H248.482C249.138 132.285 249.671 132.464 250.078 132.821C250.485 133.179 250.689 133.649 250.689 134.231H249.28C249.28 134.006 249.205 133.827 249.055 133.694C248.914 133.561 248.723 133.495 248.482 133.495H247.496C247.205 133.495 246.981 133.54 246.823 133.632C246.665 133.723 246.586 133.852 246.586 134.019V134.268C246.586 134.384 246.631 134.484 246.723 134.567C246.823 134.651 246.952 134.705 247.11 134.73L249.342 135.129C249.799 135.22 250.165 135.395 250.44 135.652C250.714 135.91 250.851 136.214 250.851 136.563V137.024C250.851 137.54 250.639 137.952 250.215 138.259C249.791 138.559 249.226 138.708 248.519 138.708H247.409ZM255.645 133.619H254.572V132.385H255.645V131.948C255.645 131.275 255.845 130.755 256.244 130.389C256.651 130.015 257.221 129.828 257.952 129.828H258.713V131.05H257.977C257.67 131.05 257.441 131.125 257.291 131.275C257.15 131.416 257.079 131.645 257.079 131.961V132.385H258.576V133.619H257.079V138.608H255.645V133.619ZM261.416 138.708C260.651 138.708 260.036 138.488 259.57 138.047C259.105 137.598 258.872 137.008 258.872 136.276V134.73C258.872 134.247 258.976 133.823 259.184 133.457C259.4 133.083 259.699 132.796 260.082 132.597C260.472 132.389 260.921 132.285 261.429 132.285H262.526C263.033 132.285 263.478 132.389 263.861 132.597C264.251 132.796 264.551 133.083 264.759 133.457C264.975 133.823 265.083 134.247 265.083 134.73V136.276C265.083 137.008 264.846 137.598 264.372 138.047C263.906 138.488 263.283 138.708 262.501 138.708H261.416ZM262.489 137.473C262.838 137.473 263.116 137.357 263.324 137.124C263.541 136.883 263.649 136.571 263.649 136.189V134.804C263.649 134.422 263.545 134.114 263.337 133.881C263.129 133.64 262.85 133.52 262.501 133.52H261.453C261.104 133.52 260.826 133.64 260.618 133.881C260.41 134.114 260.306 134.422 260.306 134.804V136.189C260.306 136.571 260.41 136.883 260.618 137.124C260.826 137.357 261.096 137.473 261.429 137.473H262.489ZM266.18 132.385H267.514V133.233C267.681 132.975 267.918 132.767 268.225 132.609C268.541 132.443 268.865 132.36 269.198 132.36H269.946V133.607H269.198C268.724 133.607 268.342 133.753 268.051 134.044C267.76 134.335 267.614 134.713 267.614 135.179V138.608H266.18V132.385ZM275.737 138.708C275.106 138.708 274.594 138.55 274.203 138.234C273.821 137.91 273.63 137.482 273.63 136.95V136.501C273.63 135.977 273.829 135.557 274.228 135.241C274.636 134.925 275.168 134.767 275.825 134.767H276.598C276.831 134.767 277.08 134.8 277.346 134.867C277.612 134.933 277.849 135.021 278.057 135.129V134.355C278.057 134.098 277.974 133.89 277.808 133.732C277.642 133.574 277.425 133.495 277.159 133.495H276.112C275.837 133.495 275.617 133.561 275.451 133.694C275.284 133.819 275.201 133.985 275.201 134.193H273.804C273.804 133.619 274.016 133.158 274.44 132.809C274.864 132.46 275.421 132.285 276.112 132.285H277.159C277.858 132.285 278.419 132.476 278.843 132.859C279.267 133.233 279.479 133.732 279.479 134.355V138.608H278.145V137.823C277.945 138.089 277.696 138.305 277.396 138.471C277.097 138.629 276.802 138.708 276.511 138.708H275.737ZM276.598 137.586C276.931 137.586 277.23 137.494 277.496 137.311C277.762 137.12 277.949 136.871 278.057 136.563V136.264C277.916 136.147 277.716 136.056 277.459 135.989C277.201 135.914 276.931 135.877 276.648 135.877H275.862C275.613 135.877 275.409 135.939 275.251 136.064C275.101 136.189 275.027 136.351 275.027 136.55V136.9C275.027 137.108 275.106 137.274 275.264 137.399C275.421 137.523 275.629 137.586 275.887 137.586H276.598ZM280.754 132.385H282.088V133.195C282.271 132.921 282.512 132.701 282.812 132.534C283.111 132.368 283.41 132.285 283.71 132.285H284.483C285.123 132.285 285.635 132.489 286.017 132.896C286.408 133.304 286.603 133.84 286.603 134.505V138.608H285.169V134.542C285.169 134.243 285.09 134.002 284.932 133.819C284.782 133.628 284.583 133.532 284.333 133.532H283.56C283.236 133.532 282.945 133.657 282.687 133.906C282.429 134.147 282.263 134.459 282.188 134.842V138.608H280.754V132.385ZM293.402 138.708C292.637 138.708 292.022 138.488 291.556 138.047C291.091 137.598 290.858 137.008 290.858 136.276V134.73C290.858 134.247 290.962 133.823 291.17 133.457C291.386 133.083 291.685 132.796 292.068 132.597C292.458 132.389 292.907 132.285 293.415 132.285H294.512C295.019 132.285 295.464 132.389 295.847 132.597C296.237 132.796 296.537 133.083 296.745 133.457C296.961 133.823 297.069 134.247 297.069 134.73V136.276C297.069 137.008 296.832 137.598 296.358 138.047C295.892 138.488 295.269 138.708 294.487 138.708H293.402ZM294.475 137.473C294.824 137.473 295.103 137.357 295.31 137.124C295.527 136.883 295.635 136.571 295.635 136.189V134.804C295.635 134.422 295.531 134.114 295.323 133.881C295.115 133.64 294.836 133.52 294.487 133.52H293.44C293.09 133.52 292.812 133.64 292.604 133.881C292.396 134.114 292.292 134.422 292.292 134.804V136.189C292.292 136.571 292.396 136.883 292.604 137.124C292.812 137.357 293.082 137.473 293.415 137.473H294.475ZM298.166 132.385H299.5V133.195C299.683 132.921 299.924 132.701 300.224 132.534C300.523 132.368 300.822 132.285 301.122 132.285H301.895C302.535 132.285 303.047 132.489 303.429 132.896C303.82 133.304 304.015 133.84 304.015 134.505V138.608H302.581V134.542C302.581 134.243 302.502 134.002 302.344 133.819C302.194 133.628 301.995 133.532 301.745 133.532H300.972C300.648 133.532 300.357 133.657 300.099 133.906C299.841 134.147 299.675 134.459 299.6 134.842V138.608H298.166V132.385ZM307.293 138.608C306.595 138.608 306.083 138.463 305.759 138.172C305.443 137.873 305.285 137.403 305.285 136.763V129.878H306.719V136.7C306.719 136.941 306.769 137.116 306.869 137.224C306.969 137.324 307.135 137.374 307.368 137.374H307.967V138.608H307.293ZM309.552 131.686C309.269 131.686 309.041 131.603 308.866 131.437C308.7 131.262 308.617 131.042 308.617 130.776C308.617 130.51 308.7 130.294 308.866 130.127C309.041 129.953 309.269 129.865 309.552 129.865C309.835 129.865 310.063 129.953 310.238 130.127C310.413 130.294 310.5 130.51 310.5 130.776C310.5 131.042 310.413 131.262 310.238 131.437C310.063 131.603 309.835 131.686 309.552 131.686ZM308.841 132.385H310.275V138.608H308.841V132.385ZM311.851 132.385H313.185V133.195C313.368 132.921 313.609 132.701 313.909 132.534C314.208 132.368 314.507 132.285 314.807 132.285H315.58C316.22 132.285 316.731 132.489 317.114 132.896C317.505 133.304 317.7 133.84 317.7 134.505V138.608H316.266V134.542C316.266 134.243 316.187 134.002 316.029 133.819C315.879 133.628 315.68 133.532 315.43 133.532H314.657C314.333 133.532 314.042 133.657 313.784 133.906C313.526 134.147 313.36 134.459 313.285 134.842V138.608H311.851V132.385ZM321.277 138.708C320.77 138.708 320.321 138.613 319.93 138.421C319.548 138.23 319.249 137.96 319.032 137.611C318.825 137.261 318.721 136.858 318.721 136.401V134.73C318.721 134.247 318.825 133.823 319.032 133.457C319.249 133.083 319.548 132.796 319.93 132.597C320.321 132.389 320.77 132.285 321.277 132.285H322.275C323.032 132.285 323.639 132.505 324.096 132.946C324.554 133.387 324.782 133.973 324.782 134.705V135.952H320.155V136.401C320.155 136.733 320.255 136.999 320.454 137.199C320.662 137.399 320.937 137.498 321.277 137.498H322.238C322.57 137.498 322.837 137.419 323.036 137.261C323.244 137.095 323.348 136.879 323.348 136.613H324.757C324.757 137.245 324.524 137.752 324.059 138.134C323.593 138.517 322.982 138.708 322.225 138.708H321.277ZM323.373 134.879V134.705C323.373 134.339 323.273 134.044 323.073 133.819C322.874 133.595 322.612 133.482 322.288 133.482H321.277C320.937 133.482 320.658 133.603 320.442 133.844C320.234 134.077 320.13 134.384 320.13 134.767V134.879H323.373ZM329.056 132.385H330.39V133.233C330.556 132.975 330.793 132.767 331.101 132.609C331.417 132.443 331.741 132.36 332.074 132.36H332.822V133.607H332.074C331.6 133.607 331.217 133.753 330.926 134.044C330.635 134.335 330.49 134.713 330.49 135.179V138.608H329.056V132.385ZM335.584 138.708C335.076 138.708 334.627 138.613 334.237 138.421C333.854 138.23 333.555 137.96 333.339 137.611C333.131 137.261 333.027 136.858 333.027 136.401V134.73C333.027 134.247 333.131 133.823 333.339 133.457C333.555 133.083 333.854 132.796 334.237 132.597C334.627 132.389 335.076 132.285 335.584 132.285H336.581C337.338 132.285 337.945 132.505 338.402 132.946C338.86 133.387 339.088 133.973 339.088 134.705V135.952H334.461V136.401C334.461 136.733 334.561 136.999 334.76 137.199C334.968 137.399 335.243 137.498 335.584 137.498H336.544C336.877 137.498 337.143 137.419 337.342 137.261C337.55 137.095 337.654 136.879 337.654 136.613H339.063C339.063 137.245 338.831 137.752 338.365 138.134C337.899 138.517 337.288 138.708 336.531 138.708H335.584ZM337.679 134.879V134.705C337.679 134.339 337.579 134.044 337.38 133.819C337.18 133.595 336.918 133.482 336.594 133.482H335.584C335.243 133.482 334.964 133.603 334.748 133.844C334.54 134.077 334.436 134.384 334.436 134.767V134.879H337.679ZM342.686 138.608C341.979 138.608 341.464 138.45 341.14 138.134C340.815 137.818 340.653 137.32 340.653 136.638V133.619H339.556V132.385H340.691V130.501H342.088V132.385H343.709V133.619H342.088V136.588C342.088 136.862 342.142 137.062 342.25 137.187C342.358 137.311 342.528 137.374 342.761 137.374H343.709V138.608H342.686ZM346.573 138.708C345.941 138.708 345.43 138.55 345.039 138.234C344.657 137.91 344.465 137.482 344.465 136.95V136.501C344.465 135.977 344.665 135.557 345.064 135.241C345.471 134.925 346.004 134.767 346.661 134.767H347.434C347.667 134.767 347.916 134.8 348.182 134.867C348.448 134.933 348.685 135.021 348.893 135.129V134.355C348.893 134.098 348.81 133.89 348.644 133.732C348.477 133.574 348.261 133.495 347.995 133.495H346.947C346.673 133.495 346.453 133.561 346.286 133.694C346.12 133.819 346.037 133.985 346.037 134.193H344.64C344.64 133.619 344.852 133.158 345.276 132.809C345.7 132.46 346.257 132.285 346.947 132.285H347.995C348.694 132.285 349.255 132.476 349.679 132.859C350.103 133.233 350.315 133.732 350.315 134.355V138.608H348.98V137.823C348.781 138.089 348.531 138.305 348.232 138.471C347.933 138.629 347.638 138.708 347.346 138.708H346.573ZM347.434 137.586C347.766 137.586 348.066 137.494 348.332 137.311C348.598 137.12 348.785 136.871 348.893 136.563V136.264C348.752 136.147 348.552 136.056 348.294 135.989C348.037 135.914 347.766 135.877 347.484 135.877H346.698C346.448 135.877 346.245 135.939 346.087 136.064C345.937 136.189 345.862 136.351 345.862 136.55V136.9C345.862 137.108 345.941 137.274 346.099 137.399C346.257 137.523 346.465 137.586 346.723 137.586H347.434ZM352.525 131.686C352.242 131.686 352.014 131.603 351.839 131.437C351.673 131.262 351.59 131.042 351.59 130.776C351.59 130.51 351.673 130.294 351.839 130.127C352.014 129.953 352.242 129.865 352.525 129.865C352.808 129.865 353.036 129.953 353.211 130.127C353.386 130.294 353.473 130.51 353.473 130.776C353.473 131.042 353.386 131.262 353.211 131.437C353.036 131.603 352.808 131.686 352.525 131.686ZM351.814 132.385H353.248V138.608H351.814V132.385ZM356.832 138.608C356.133 138.608 355.622 138.463 355.297 138.172C354.982 137.873 354.824 137.403 354.824 136.763V129.878H356.258V136.7C356.258 136.941 356.308 137.116 356.408 137.224C356.507 137.324 356.674 137.374 356.906 137.374H357.505V138.608H356.832ZM88.0404 148.385H89.3749V149.121C89.5496 148.871 89.7741 148.672 90.0485 148.522C90.3312 148.364 90.6055 148.285 90.8716 148.285H91.6948C92.4182 148.285 93.0002 148.505 93.4409 148.946C93.8899 149.378 94.1144 149.952 94.1144 150.667V152.114C94.1144 152.896 93.8941 153.523 93.4534 153.997C93.0127 154.471 92.4265 154.708 91.6948 154.708H90.8591C90.618 154.708 90.3686 154.65 90.1108 154.534C89.8531 154.409 89.641 154.247 89.4747 154.047V157.103H88.0404V148.385ZM91.5451 153.473C91.886 153.473 92.1604 153.34 92.3683 153.074C92.5845 152.808 92.6926 152.459 92.6926 152.027V150.754C92.6926 150.389 92.5886 150.093 92.3808 149.869C92.1729 149.636 91.8985 149.52 91.5576 149.52H90.7594C90.4767 149.52 90.2147 149.632 89.9736 149.856C89.7408 150.073 89.5745 150.355 89.4747 150.705V152.151C89.5163 152.542 89.6535 152.862 89.8863 153.112C90.1274 153.353 90.4143 153.473 90.7469 153.473H91.5451ZM97.2166 154.608C96.5182 154.608 96.0068 154.463 95.6825 154.172C95.3665 153.873 95.2086 153.403 95.2086 152.763V145.878H96.6429V152.7C96.6429 152.941 96.6928 153.116 96.7925 153.224C96.8923 153.324 97.0586 153.374 97.2914 153.374H97.8901V154.608H97.2166ZM100.448 154.708C99.8164 154.708 99.305 154.55 98.9142 154.234C98.5317 153.91 98.3405 153.482 98.3405 152.95V152.501C98.3405 151.977 98.54 151.557 98.9391 151.241C99.3466 150.925 99.8787 150.767 100.536 150.767H101.309C101.542 150.767 101.791 150.8 102.057 150.867C102.323 150.933 102.56 151.021 102.768 151.129V150.355C102.768 150.098 102.685 149.89 102.519 149.732C102.352 149.574 102.136 149.495 101.87 149.495H100.822C100.548 149.495 100.328 149.561 100.161 149.694C99.9951 149.819 99.912 149.985 99.912 150.193H98.5151C98.5151 149.619 98.7271 149.158 99.1512 148.809C99.5752 148.46 100.132 148.285 100.822 148.285H101.87C102.569 148.285 103.13 148.476 103.554 148.859C103.978 149.233 104.19 149.732 104.19 150.355V154.608H102.855V153.823C102.656 154.089 102.406 154.305 102.107 154.471C101.808 154.629 101.513 154.708 101.222 154.708H100.448ZM101.309 153.586C101.641 153.586 101.941 153.494 102.207 153.311C102.473 153.12 102.66 152.871 102.768 152.563V152.264C102.627 152.147 102.427 152.056 102.169 151.989C101.912 151.914 101.641 151.877 101.359 151.877H100.573C100.324 151.877 100.12 151.939 99.9619 152.064C99.8122 152.189 99.7374 152.351 99.7374 152.55V152.9C99.7374 153.108 99.8164 153.274 99.9743 153.399C100.132 153.523 100.34 153.586 100.598 153.586H101.309ZM108.096 154.608C107.389 154.608 106.874 154.45 106.55 154.134C106.225 153.818 106.063 153.32 106.063 152.638V149.619H104.966V148.385H106.101V146.501H107.498V148.385H109.119V149.619H107.498V152.588C107.498 152.862 107.552 153.062 107.66 153.187C107.768 153.311 107.938 153.374 108.171 153.374H109.119V154.608H108.096ZM110.807 149.619H109.735V148.385H110.807V147.948C110.807 147.275 111.007 146.755 111.406 146.389C111.813 146.015 112.383 145.828 113.115 145.828H113.875V147.05H113.14C112.832 147.05 112.603 147.125 112.454 147.275C112.312 147.416 112.242 147.645 112.242 147.961V148.385H113.738V149.619H112.242V154.608H110.807V149.619ZM116.578 154.708C115.813 154.708 115.198 154.488 114.732 154.047C114.267 153.598 114.034 153.008 114.034 152.276V150.73C114.034 150.247 114.138 149.823 114.346 149.457C114.562 149.083 114.861 148.796 115.244 148.597C115.635 148.389 116.084 148.285 116.591 148.285H117.688C118.196 148.285 118.64 148.389 119.023 148.597C119.414 148.796 119.713 149.083 119.921 149.457C120.137 149.823 120.245 150.247 120.245 150.73V152.276C120.245 153.008 120.008 153.598 119.534 154.047C119.069 154.488 118.445 154.708 117.663 154.708H116.578ZM117.651 153.473C118 153.473 118.279 153.357 118.487 153.124C118.703 152.883 118.811 152.571 118.811 152.189V150.804C118.811 150.422 118.707 150.114 118.499 149.881C118.291 149.64 118.013 149.52 117.663 149.52H116.616C116.266 149.52 115.988 149.64 115.78 149.881C115.572 150.114 115.468 150.422 115.468 150.804V152.189C115.468 152.571 115.572 152.883 115.78 153.124C115.988 153.357 116.258 153.473 116.591 153.473H117.651ZM121.342 148.385H122.676V149.233C122.843 148.975 123.08 148.767 123.387 148.609C123.703 148.443 124.028 148.36 124.36 148.36H125.109V149.607H124.36C123.886 149.607 123.504 149.753 123.213 150.044C122.922 150.335 122.776 150.713 122.776 151.179V154.608H121.342V148.385ZM132.767 148.285C133.374 148.285 133.856 148.48 134.214 148.871C134.579 149.262 134.762 149.786 134.762 150.443V154.608H133.328V150.43C133.328 150.156 133.266 149.94 133.141 149.782C133.016 149.615 132.85 149.532 132.642 149.532H132.043C131.769 149.532 131.536 149.632 131.345 149.832C131.154 150.023 131.029 150.285 130.971 150.617V154.608H129.549V150.468C129.549 150.185 129.487 149.96 129.362 149.794C129.237 149.619 129.071 149.532 128.863 149.532H128.302C128.027 149.532 127.786 149.657 127.578 149.906C127.379 150.147 127.25 150.463 127.192 150.854V154.608H125.757V148.385H127.092V149.17C127.25 148.896 127.449 148.68 127.691 148.522C127.932 148.364 128.177 148.285 128.426 148.285H129.137C129.453 148.285 129.736 148.368 129.985 148.534C130.235 148.692 130.43 148.917 130.572 149.208C130.755 148.917 130.975 148.692 131.233 148.534C131.49 148.368 131.765 148.285 132.056 148.285H132.767ZM136.692 154.733C136.418 154.733 136.198 154.65 136.031 154.484C135.865 154.317 135.782 154.097 135.782 153.823C135.782 153.557 135.865 153.34 136.031 153.174C136.198 153.008 136.418 152.925 136.692 152.925C136.959 152.925 137.175 153.008 137.341 153.174C137.507 153.34 137.59 153.557 137.59 153.823C137.59 154.097 137.507 154.317 137.341 154.484C137.175 154.65 136.959 154.733 136.692 154.733Z" fill="#6E6E6E"/>
<path d="M369.055 192L350.951 174H371.951L369.055 192Z" fill="#1C1C1C" stroke="#3B3B3A" stroke-width="1.25"/>
<path d="M342.951 167L373.451 164.443L370.951 176H353.951L342.951 167Z" fill="#1C1C1C"/>
</svg>
