<svg width="444" height="280" viewBox="0 0 444 280" fill="none" xmlns="http://www.w3.org/2000/svg">
<g clip-path="url(#clip0_5437_16885)">
<rect x="143.977" y="78.2085" width="156" height="69.5166" rx="13.8389" fill="#1C1C1C"/>
<path d="M133.482 106.405H140.632C141.42 106.405 142.117 106.56 142.724 106.87C143.331 107.167 143.803 107.599 144.138 108.168C144.474 108.723 144.642 109.363 144.642 110.086V111.888C144.642 112.637 144.468 113.302 144.119 113.883C143.77 114.452 143.279 114.897 142.647 115.22C142.027 115.53 141.303 115.685 140.477 115.685H136.156V119.967H133.482V106.405ZM140.438 113.36C140.89 113.36 141.258 113.218 141.542 112.934C141.826 112.637 141.968 112.249 141.968 111.771V110.202C141.968 109.75 141.839 109.395 141.581 109.137C141.336 108.865 141.006 108.73 140.593 108.73H136.156V113.36H140.438ZM149.301 120.122C148.488 120.122 147.764 119.973 147.131 119.676C146.511 119.366 146.027 118.94 145.678 118.397C145.33 117.842 145.155 117.209 145.155 116.499V113.999C145.155 113.237 145.33 112.566 145.678 111.985C146.027 111.403 146.511 110.951 147.131 110.628C147.764 110.305 148.488 110.144 149.301 110.144H150.851C152.091 110.144 153.086 110.493 153.835 111.19C154.584 111.888 154.959 112.818 154.959 113.98V116.034H147.79V116.499C147.79 116.925 147.926 117.267 148.197 117.526C148.468 117.784 148.836 117.913 149.301 117.913H150.813C151.265 117.913 151.626 117.816 151.898 117.622C152.182 117.416 152.324 117.151 152.324 116.828H154.92C154.92 117.474 154.746 118.049 154.397 118.552C154.048 119.056 153.557 119.444 152.924 119.715C152.304 119.986 151.588 120.122 150.774 120.122H149.301ZM152.363 114.135V113.98C152.363 113.476 152.227 113.076 151.956 112.779C151.684 112.469 151.323 112.314 150.871 112.314H149.301C148.836 112.314 148.462 112.475 148.178 112.798C147.893 113.121 147.751 113.547 147.751 114.077V114.135H152.363ZM156.356 110.299H158.797V111.539C159.043 111.164 159.391 110.861 159.843 110.628C160.308 110.383 160.793 110.26 161.297 110.26H162.614V112.546H161.297C160.612 112.546 160.057 112.753 159.63 113.166C159.204 113.58 158.991 114.109 158.991 114.755V119.967H156.356V110.299ZM166.815 120.122C165.639 120.122 164.696 119.812 163.986 119.192C163.276 118.572 162.92 117.758 162.92 116.751H165.517C165.517 117.099 165.633 117.384 165.865 117.603C166.111 117.81 166.427 117.913 166.815 117.913H168.558C169.333 117.913 169.721 117.7 169.721 117.274V116.944C169.721 116.815 169.656 116.699 169.527 116.596C169.398 116.479 169.223 116.402 169.004 116.363L165.652 115.782C164.864 115.653 164.238 115.375 163.773 114.949C163.321 114.51 163.095 113.999 163.095 113.418V112.779C163.095 111.952 163.431 111.306 164.102 110.841C164.787 110.376 165.736 110.144 166.95 110.144H168.461C169.546 110.144 170.418 110.435 171.077 111.016C171.749 111.584 172.084 112.34 172.084 113.283H169.488C169.488 112.998 169.391 112.772 169.198 112.605C169.017 112.437 168.771 112.353 168.461 112.353H166.989C166.149 112.353 165.73 112.546 165.73 112.934V113.244C165.73 113.386 165.781 113.509 165.885 113.612C166.001 113.702 166.162 113.767 166.369 113.806L169.895 114.445C170.631 114.574 171.226 114.852 171.678 115.278C172.13 115.692 172.356 116.163 172.356 116.693V117.39C172.356 118.23 172.007 118.895 171.309 119.386C170.625 119.876 169.708 120.122 168.558 120.122H166.815ZM177.37 120.122C176.557 120.122 175.833 119.967 175.2 119.657C174.58 119.334 174.096 118.882 173.747 118.301C173.411 117.719 173.244 117.048 173.244 116.286V114.019C173.244 113.257 173.418 112.585 173.767 112.004C174.115 111.41 174.6 110.951 175.22 110.628C175.853 110.305 176.576 110.144 177.39 110.144H179.133C179.947 110.144 180.664 110.305 181.284 110.628C181.917 110.951 182.408 111.41 182.756 112.004C183.105 112.585 183.28 113.257 183.28 114.019V116.286C183.28 117.048 183.105 117.719 182.756 118.301C182.408 118.882 181.917 119.334 181.284 119.657C180.664 119.967 179.941 120.122 179.114 120.122H177.37ZM179.075 117.855C179.553 117.855 179.934 117.694 180.218 117.371C180.503 117.035 180.645 116.602 180.645 116.073V114.193C180.645 113.664 180.503 113.237 180.218 112.915C179.934 112.579 179.56 112.411 179.095 112.411H177.428C176.963 112.411 176.589 112.579 176.305 112.915C176.021 113.237 175.878 113.664 175.878 114.193V116.073C175.878 116.602 176.021 117.035 176.305 117.371C176.589 117.694 176.957 117.855 177.409 117.855H179.075ZM184.747 110.299H187.188V111.461C187.472 111.061 187.841 110.745 188.293 110.512C188.745 110.267 189.197 110.144 189.649 110.144H190.811C191.845 110.144 192.671 110.467 193.291 111.113C193.924 111.759 194.241 112.611 194.241 113.67V119.967H191.606V113.767C191.606 113.367 191.496 113.044 191.276 112.798C191.07 112.553 190.798 112.43 190.463 112.43H189.3C188.848 112.43 188.441 112.598 188.08 112.934C187.731 113.257 187.498 113.683 187.382 114.213V119.967H184.747V110.299ZM199.038 120.122C198.03 120.122 197.217 119.87 196.597 119.366C195.977 118.862 195.667 118.197 195.667 117.371V116.654C195.667 115.84 195.99 115.188 196.635 114.697C197.281 114.193 198.134 113.941 199.193 113.941H200.375C200.711 113.941 201.072 113.987 201.46 114.077C201.847 114.167 202.202 114.29 202.525 114.445V113.438C202.525 113.115 202.415 112.856 202.196 112.663C201.989 112.456 201.712 112.353 201.363 112.353H199.697C199.335 112.353 199.044 112.437 198.825 112.605C198.605 112.772 198.495 112.998 198.495 113.283H195.938C195.938 112.34 196.28 111.584 196.965 111.016C197.662 110.435 198.573 110.144 199.697 110.144H201.363C202.499 110.144 203.416 110.448 204.114 111.055C204.811 111.649 205.16 112.443 205.16 113.438V119.967H202.719V118.804C202.409 119.205 202.028 119.528 201.576 119.773C201.124 120.006 200.678 120.122 200.239 120.122H199.038ZM200.433 118.107C200.911 118.107 201.337 117.984 201.712 117.739C202.086 117.493 202.357 117.164 202.525 116.751V116.421C202.319 116.266 202.028 116.144 201.653 116.053C201.292 115.963 200.904 115.918 200.491 115.918H199.27C198.96 115.918 198.709 115.995 198.515 116.15C198.321 116.305 198.224 116.512 198.224 116.77V117.274C198.224 117.519 198.327 117.719 198.534 117.874C198.754 118.029 199.038 118.107 199.387 118.107H200.433ZM210.236 119.967C209.086 119.967 208.24 119.728 207.698 119.25C207.168 118.759 206.904 118.004 206.904 116.983V106.405H209.538V116.828C209.538 117.138 209.61 117.364 209.752 117.506C209.894 117.648 210.12 117.719 210.43 117.719H211.476V119.967H210.236ZM213.915 109.388C213.411 109.388 213.005 109.246 212.695 108.962C212.397 108.665 212.249 108.278 212.249 107.8C212.249 107.322 212.397 106.941 212.695 106.657C213.005 106.36 213.411 106.211 213.915 106.211C214.419 106.211 214.819 106.36 215.116 106.657C215.426 106.941 215.581 107.322 215.581 107.8C215.581 108.278 215.426 108.665 215.116 108.962C214.819 109.246 214.419 109.388 213.915 109.388ZM212.598 110.299H215.233V119.967H212.598V110.299ZM226.861 119.967C225.724 119.967 224.891 119.708 224.361 119.192C223.832 118.675 223.567 117.874 223.567 116.789V112.546H221.862V110.299H223.644V107.373H226.202V110.299H228.721V112.546H226.202V116.673C226.202 117.035 226.266 117.3 226.396 117.467C226.538 117.635 226.757 117.719 227.054 117.719H228.721V119.967H226.861ZM233.633 120.122C232.819 120.122 232.095 119.967 231.463 119.657C230.843 119.334 230.358 118.882 230.01 118.301C229.674 117.719 229.506 117.048 229.506 116.286V114.019C229.506 113.257 229.68 112.585 230.029 112.004C230.378 111.41 230.862 110.951 231.482 110.628C232.115 110.305 232.838 110.144 233.652 110.144H235.396C236.209 110.144 236.926 110.305 237.546 110.628C238.179 110.951 238.67 111.41 239.019 112.004C239.367 112.585 239.542 113.257 239.542 114.019V116.286C239.542 117.048 239.367 117.719 239.019 118.301C238.67 118.882 238.179 119.334 237.546 119.657C236.926 119.967 236.203 120.122 235.376 120.122H233.633ZM235.337 117.855C235.815 117.855 236.196 117.694 236.481 117.371C236.765 117.035 236.907 116.602 236.907 116.073V114.193C236.907 113.664 236.765 113.237 236.481 112.915C236.196 112.579 235.822 112.411 235.357 112.411H233.691C233.226 112.411 232.851 112.579 232.567 112.915C232.283 113.237 232.141 113.664 232.141 114.193V116.073C232.141 116.602 232.283 117.035 232.567 117.371C232.851 117.694 233.219 117.855 233.671 117.855H235.337ZM250.427 119.967C249.29 119.967 248.457 119.708 247.928 119.192C247.398 118.675 247.133 117.874 247.133 116.789V112.546H245.428V110.299H247.211V107.373H249.768V110.299H252.287V112.546H249.768V116.673C249.768 117.035 249.833 117.3 249.962 117.467C250.104 117.635 250.324 117.719 250.621 117.719H252.287V119.967H250.427ZM253.762 110.299H256.204V111.539C256.449 111.164 256.798 110.861 257.25 110.628C257.715 110.383 258.199 110.26 258.703 110.26H260.02V112.546H258.703C258.018 112.546 257.463 112.753 257.037 113.166C256.61 113.58 256.397 114.109 256.397 114.755V119.967H253.762V110.299ZM263.55 120.122C262.543 120.122 261.729 119.87 261.109 119.366C260.489 118.862 260.179 118.197 260.179 117.371V116.654C260.179 115.84 260.502 115.188 261.148 114.697C261.793 114.193 262.646 113.941 263.705 113.941H264.887C265.223 113.941 265.584 113.987 265.972 114.077C266.359 114.167 266.715 114.29 267.037 114.445V113.438C267.037 113.115 266.928 112.856 266.708 112.663C266.501 112.456 266.224 112.353 265.875 112.353H264.209C263.847 112.353 263.557 112.437 263.337 112.605C263.117 112.772 263.008 112.998 263.008 113.283H260.45C260.45 112.34 260.792 111.584 261.477 111.016C262.174 110.435 263.085 110.144 264.209 110.144H265.875C267.012 110.144 267.929 110.448 268.626 111.055C269.324 111.649 269.672 112.443 269.672 113.438V119.967H267.231V118.804C266.921 119.205 266.54 119.528 266.088 119.773C265.636 120.006 265.19 120.122 264.751 120.122H263.55ZM264.945 118.107C265.423 118.107 265.849 117.984 266.224 117.739C266.598 117.493 266.87 117.164 267.037 116.751V116.421C266.831 116.266 266.54 116.144 266.166 116.053C265.804 115.963 265.416 115.918 265.003 115.918H263.783C263.473 115.918 263.221 115.995 263.027 116.15C262.833 116.305 262.736 116.512 262.736 116.77V117.274C262.736 117.519 262.84 117.719 263.046 117.874C263.266 118.029 263.55 118.107 263.899 118.107H264.945ZM275.099 119.967C274.724 119.967 274.408 119.87 274.149 119.676C273.904 119.47 273.691 119.147 273.51 118.707L270.178 110.299H272.948L275.234 116.944H275.273L277.579 110.299H280.349L276.455 119.967H275.099ZM284.588 120.122C283.774 120.122 283.051 119.973 282.418 119.676C281.798 119.366 281.313 118.94 280.965 118.397C280.616 117.842 280.442 117.209 280.442 116.499V113.999C280.442 113.237 280.616 112.566 280.965 111.985C281.313 111.403 281.798 110.951 282.418 110.628C283.051 110.305 283.774 110.144 284.588 110.144H286.138C287.378 110.144 288.372 110.493 289.121 111.19C289.87 111.888 290.245 112.818 290.245 113.98V116.034H283.076V116.499C283.076 116.925 283.212 117.267 283.483 117.526C283.755 117.784 284.123 117.913 284.588 117.913H286.099C286.551 117.913 286.913 117.816 287.184 117.622C287.468 117.416 287.61 117.151 287.61 116.828H290.206C290.206 117.474 290.032 118.049 289.683 118.552C289.334 119.056 288.844 119.444 288.211 119.715C287.591 119.986 286.874 120.122 286.06 120.122H284.588ZM287.649 114.135V113.98C287.649 113.476 287.513 113.076 287.242 112.779C286.971 112.469 286.609 112.314 286.157 112.314H284.588C284.123 112.314 283.748 112.475 283.464 112.798C283.18 113.121 283.038 113.547 283.038 114.077V114.135H287.649ZM294.975 119.967C293.825 119.967 292.979 119.728 292.437 119.25C291.907 118.759 291.642 118.004 291.642 116.983V106.405H294.277V116.828C294.277 117.138 294.348 117.364 294.49 117.506C294.632 117.648 294.859 117.719 295.169 117.719H296.215V119.967H294.975ZM300.746 120.122C299.933 120.122 299.209 119.973 298.576 119.676C297.956 119.366 297.472 118.94 297.123 118.397C296.775 117.842 296.6 117.209 296.6 116.499V113.999C296.6 113.237 296.775 112.566 297.123 111.985C297.472 111.403 297.956 110.951 298.576 110.628C299.209 110.305 299.933 110.144 300.746 110.144H302.296C303.536 110.144 304.531 110.493 305.28 111.19C306.029 111.888 306.404 112.818 306.404 113.98V116.034H299.235V116.499C299.235 116.925 299.371 117.267 299.642 117.526C299.913 117.784 300.281 117.913 300.746 117.913H302.258C302.71 117.913 303.071 117.816 303.343 117.622C303.627 117.416 303.769 117.151 303.769 116.828H306.365C306.365 117.474 306.191 118.049 305.842 118.552C305.493 119.056 305.002 119.444 304.369 119.715C303.749 119.986 303.033 120.122 302.219 120.122H300.746ZM303.808 114.135V113.98C303.808 113.476 303.672 113.076 303.401 112.779C303.129 112.469 302.768 112.314 302.316 112.314H300.746C300.281 112.314 299.907 112.475 299.623 112.798C299.338 113.121 299.196 113.547 299.196 114.077V114.135H303.808ZM307.801 110.299H310.242V111.539C310.488 111.164 310.836 110.861 311.288 110.628C311.753 110.383 312.238 110.26 312.742 110.26H314.059V112.546H312.742C312.057 112.546 311.502 112.753 311.075 113.166C310.649 113.58 310.436 114.109 310.436 114.755V119.967H307.801V110.299ZM318.26 120.122C317.084 120.122 316.141 119.812 315.431 119.192C314.721 118.572 314.365 117.758 314.365 116.751H316.962C316.962 117.099 317.078 117.384 317.31 117.603C317.556 117.81 317.872 117.913 318.26 117.913H320.003C320.778 117.913 321.166 117.7 321.166 117.274V116.944C321.166 116.815 321.101 116.699 320.972 116.596C320.843 116.479 320.668 116.402 320.449 116.363L317.097 115.782C316.309 115.653 315.683 115.375 315.218 114.949C314.766 114.51 314.54 113.999 314.54 113.418V112.779C314.54 111.952 314.876 111.306 315.547 110.841C316.232 110.376 317.181 110.144 318.395 110.144H319.906C320.991 110.144 321.863 110.435 322.522 111.016C323.194 111.584 323.529 112.34 323.529 113.283H320.933C320.933 112.998 320.836 112.772 320.643 112.605C320.462 112.437 320.216 112.353 319.906 112.353H318.434C317.594 112.353 317.175 112.546 317.175 112.934V113.244C317.175 113.386 317.226 113.509 317.33 113.612C317.446 113.702 317.607 113.767 317.814 113.806L321.34 114.445C322.076 114.574 322.671 114.852 323.123 115.278C323.575 115.692 323.801 116.163 323.801 116.693V117.39C323.801 118.23 323.452 118.895 322.754 119.386C322.07 119.876 321.153 120.122 320.003 120.122H318.26ZM324.301 118.649L329.532 112.527H324.534V110.299H333.291V111.616L328.06 117.739H333.194V119.967H324.301V118.649ZM337.794 120.122C336.98 120.122 336.257 119.973 335.624 119.676C335.004 119.366 334.52 118.94 334.171 118.397C333.822 117.842 333.648 117.209 333.648 116.499V113.999C333.648 113.237 333.822 112.566 334.171 111.985C334.52 111.403 335.004 110.951 335.624 110.628C336.257 110.305 336.98 110.144 337.794 110.144H339.344C340.584 110.144 341.578 110.493 342.327 111.19C343.077 111.888 343.451 112.818 343.451 113.98V116.034H336.283V116.499C336.283 116.925 336.418 117.267 336.69 117.526C336.961 117.784 337.329 117.913 337.794 117.913H339.305C339.757 117.913 340.119 117.816 340.39 117.622C340.674 117.416 340.816 117.151 340.816 116.828H343.412C343.412 117.474 343.238 118.049 342.889 118.552C342.541 119.056 342.05 119.444 341.417 119.715C340.797 119.986 340.08 120.122 339.266 120.122H337.794ZM340.855 114.135V113.98C340.855 113.476 340.719 113.076 340.448 112.779C340.177 112.469 339.815 112.314 339.363 112.314H337.794C337.329 112.314 336.954 112.475 336.67 112.798C336.386 113.121 336.244 113.547 336.244 114.077V114.135H340.855ZM348.297 120.122C347.148 120.122 346.218 119.773 345.507 119.076C344.81 118.378 344.461 117.461 344.461 116.324V114.116C344.461 113.328 344.629 112.637 344.965 112.043C345.301 111.436 345.772 110.971 346.379 110.648C346.986 110.312 347.69 110.144 348.491 110.144H349.557C349.931 110.144 350.312 110.228 350.7 110.396C351.087 110.551 351.41 110.764 351.668 111.035V106.405H354.303V119.967H351.862V118.688C351.604 119.114 351.255 119.463 350.816 119.734C350.377 119.993 349.918 120.122 349.44 120.122H348.297ZM349.731 117.855C350.26 117.855 350.7 117.668 351.048 117.293C351.41 116.906 351.617 116.395 351.668 115.763V114.077C351.578 113.573 351.378 113.173 351.068 112.876C350.771 112.566 350.415 112.411 350.002 112.411H348.82C348.304 112.411 347.884 112.585 347.561 112.934C347.251 113.283 347.096 113.741 347.096 114.309V116.131C347.096 116.647 347.238 117.067 347.522 117.39C347.806 117.7 348.174 117.855 348.627 117.855H349.731Z" fill="#F2F2F2"/>
</g>
<rect x="144.669" y="78.9004" width="154.616" height="68.1327" rx="13.1469" stroke="#EBEAE7" stroke-opacity="0.15" stroke-width="1.38389"/>
<g clip-path="url(#clip1_5437_16885)">
<rect x="118.977" y="91.7251" width="206" height="69.5166" rx="13.8389" fill="#1C1C1C"/>
<path d="M133.482 119.921H140.632C141.42 119.921 142.117 120.076 142.724 120.386C143.331 120.683 143.803 121.116 144.138 121.684C144.474 122.24 144.642 122.879 144.642 123.602V125.404C144.642 126.153 144.468 126.819 144.119 127.4C143.77 127.968 143.279 128.414 142.647 128.737C142.027 129.047 141.303 129.202 140.477 129.202H136.156V133.483H133.482V119.921ZM140.438 126.877C140.89 126.877 141.258 126.735 141.542 126.45C141.826 126.153 141.968 125.766 141.968 125.288V123.719C141.968 123.267 141.839 122.911 141.581 122.653C141.336 122.382 141.006 122.246 140.593 122.246H136.156V126.877H140.438ZM149.301 133.638C148.488 133.638 147.764 133.49 147.131 133.193C146.511 132.883 146.027 132.457 145.678 131.914C145.33 131.359 145.155 130.726 145.155 130.015V127.516C145.155 126.754 145.33 126.082 145.678 125.501C146.027 124.92 146.511 124.468 147.131 124.145C147.764 123.822 148.488 123.661 149.301 123.661H150.851C152.091 123.661 153.086 124.009 153.835 124.707C154.584 125.404 154.959 126.334 154.959 127.497V129.55H147.79V130.015C147.79 130.442 147.926 130.784 148.197 131.042C148.468 131.301 148.836 131.43 149.301 131.43H150.813C151.265 131.43 151.626 131.333 151.898 131.139C152.182 130.932 152.324 130.668 152.324 130.345H154.92C154.92 130.991 154.746 131.565 154.397 132.069C154.048 132.573 153.557 132.96 152.924 133.232C152.304 133.503 151.588 133.638 150.774 133.638H149.301ZM152.363 127.652V127.497C152.363 126.993 152.227 126.593 151.956 126.295C151.684 125.986 151.323 125.831 150.871 125.831H149.301C148.836 125.831 148.462 125.992 148.178 126.315C147.893 126.638 147.751 127.064 147.751 127.594V127.652H152.363ZM156.356 123.816H158.797V125.056C159.043 124.681 159.391 124.377 159.843 124.145C160.308 123.9 160.793 123.777 161.297 123.777H162.614V126.063H161.297C160.612 126.063 160.057 126.27 159.63 126.683C159.204 127.096 158.991 127.626 158.991 128.272V133.483H156.356V123.816ZM166.815 133.638C165.639 133.638 164.696 133.328 163.986 132.708C163.276 132.088 162.92 131.275 162.92 130.267H165.517C165.517 130.616 165.633 130.9 165.865 131.12C166.111 131.326 166.427 131.43 166.815 131.43H168.558C169.333 131.43 169.721 131.217 169.721 130.79V130.461C169.721 130.332 169.656 130.216 169.527 130.112C169.398 129.996 169.223 129.919 169.004 129.88L165.652 129.299C164.864 129.169 164.238 128.892 163.773 128.465C163.321 128.026 163.095 127.516 163.095 126.935V126.295C163.095 125.469 163.431 124.823 164.102 124.358C164.787 123.893 165.736 123.661 166.95 123.661H168.461C169.546 123.661 170.418 123.951 171.077 124.532C171.749 125.101 172.084 125.856 172.084 126.799H169.488C169.488 126.515 169.391 126.289 169.198 126.121C169.017 125.953 168.771 125.869 168.461 125.869H166.989C166.149 125.869 165.73 126.063 165.73 126.45V126.76C165.73 126.903 165.781 127.025 165.885 127.129C166.001 127.219 166.162 127.284 166.369 127.322L169.895 127.962C170.631 128.091 171.226 128.369 171.678 128.795C172.13 129.208 172.356 129.68 172.356 130.209V130.907C172.356 131.746 172.007 132.411 171.309 132.902C170.625 133.393 169.708 133.638 168.558 133.638H166.815ZM177.37 133.638C176.557 133.638 175.833 133.483 175.2 133.173C174.58 132.851 174.096 132.398 173.747 131.817C173.411 131.236 173.244 130.564 173.244 129.802V127.535C173.244 126.773 173.418 126.102 173.767 125.521C174.115 124.926 174.6 124.468 175.22 124.145C175.853 123.822 176.576 123.661 177.39 123.661H179.133C179.947 123.661 180.664 123.822 181.284 124.145C181.917 124.468 182.408 124.926 182.756 125.521C183.105 126.102 183.28 126.773 183.28 127.535V129.802C183.28 130.564 183.105 131.236 182.756 131.817C182.408 132.398 181.917 132.851 181.284 133.173C180.664 133.483 179.941 133.638 179.114 133.638H177.37ZM179.075 131.372C179.553 131.372 179.934 131.21 180.218 130.887C180.503 130.551 180.645 130.119 180.645 129.589V127.71C180.645 127.18 180.503 126.754 180.218 126.431C179.934 126.095 179.56 125.927 179.095 125.927H177.428C176.963 125.927 176.589 126.095 176.305 126.431C176.021 126.754 175.878 127.18 175.878 127.71V129.589C175.878 130.119 176.021 130.551 176.305 130.887C176.589 131.21 176.957 131.372 177.409 131.372H179.075ZM184.747 123.816H187.188V124.978C187.472 124.578 187.841 124.261 188.293 124.029C188.745 123.783 189.197 123.661 189.649 123.661H190.811C191.845 123.661 192.671 123.983 193.291 124.629C193.924 125.275 194.241 126.128 194.241 127.187V133.483H191.606V127.284C191.606 126.883 191.496 126.56 191.276 126.315C191.07 126.069 190.798 125.947 190.463 125.947H189.3C188.848 125.947 188.441 126.115 188.08 126.45C187.731 126.773 187.498 127.2 187.382 127.729V133.483H184.747V123.816ZM199.038 133.638C198.03 133.638 197.217 133.387 196.597 132.883C195.977 132.379 195.667 131.714 195.667 130.887V130.17C195.667 129.357 195.99 128.704 196.635 128.214C197.281 127.71 198.134 127.458 199.193 127.458H200.375C200.711 127.458 201.072 127.503 201.46 127.594C201.847 127.684 202.202 127.807 202.525 127.962V126.954C202.525 126.631 202.415 126.373 202.196 126.179C201.989 125.973 201.712 125.869 201.363 125.869H199.697C199.335 125.869 199.044 125.953 198.825 126.121C198.605 126.289 198.495 126.515 198.495 126.799H195.938C195.938 125.856 196.28 125.101 196.965 124.532C197.662 123.951 198.573 123.661 199.697 123.661H201.363C202.499 123.661 203.416 123.964 204.114 124.571C204.811 125.165 205.16 125.96 205.16 126.954V133.483H202.719V132.321C202.409 132.721 202.028 133.044 201.576 133.29C201.124 133.522 200.678 133.638 200.239 133.638H199.038ZM200.433 131.623C200.911 131.623 201.337 131.501 201.712 131.255C202.086 131.01 202.357 130.681 202.525 130.267V129.938C202.319 129.783 202.028 129.66 201.653 129.57C201.292 129.479 200.904 129.434 200.491 129.434H199.27C198.96 129.434 198.709 129.512 198.515 129.667C198.321 129.822 198.224 130.028 198.224 130.287V130.79C198.224 131.036 198.327 131.236 198.534 131.391C198.754 131.546 199.038 131.623 199.387 131.623H200.433ZM210.236 133.483C209.086 133.483 208.24 133.244 207.698 132.767C207.168 132.276 206.904 131.52 206.904 130.5V119.921H209.538V130.345C209.538 130.655 209.61 130.881 209.752 131.023C209.894 131.165 210.12 131.236 210.43 131.236H211.476V133.483H210.236ZM213.915 122.905C213.411 122.905 213.005 122.763 212.695 122.479C212.397 122.182 212.249 121.794 212.249 121.316C212.249 120.838 212.397 120.457 212.695 120.173C213.005 119.876 213.411 119.728 213.915 119.728C214.419 119.728 214.819 119.876 215.116 120.173C215.426 120.457 215.581 120.838 215.581 121.316C215.581 121.794 215.426 122.182 215.116 122.479C214.819 122.763 214.419 122.905 213.915 122.905ZM212.598 123.816H215.233V133.483H212.598V123.816ZM226.861 133.483C225.724 133.483 224.891 133.225 224.361 132.708C223.832 132.192 223.567 131.391 223.567 130.306V126.063H221.862V123.816H223.644V120.89H226.202V123.816H228.721V126.063H226.202V130.19C226.202 130.551 226.266 130.816 226.396 130.984C226.538 131.152 226.757 131.236 227.054 131.236H228.721V133.483H226.861ZM233.633 133.638C232.819 133.638 232.095 133.483 231.463 133.173C230.843 132.851 230.358 132.398 230.01 131.817C229.674 131.236 229.506 130.564 229.506 129.802V127.535C229.506 126.773 229.68 126.102 230.029 125.521C230.378 124.926 230.862 124.468 231.482 124.145C232.115 123.822 232.838 123.661 233.652 123.661H235.396C236.209 123.661 236.926 123.822 237.546 124.145C238.179 124.468 238.67 124.926 239.019 125.521C239.367 126.102 239.542 126.773 239.542 127.535V129.802C239.542 130.564 239.367 131.236 239.019 131.817C238.67 132.398 238.179 132.851 237.546 133.173C236.926 133.483 236.203 133.638 235.376 133.638H233.633ZM235.337 131.372C235.815 131.372 236.196 131.21 236.481 130.887C236.765 130.551 236.907 130.119 236.907 129.589V127.71C236.907 127.18 236.765 126.754 236.481 126.431C236.196 126.095 235.822 125.927 235.357 125.927H233.691C233.226 125.927 232.851 126.095 232.567 126.431C232.283 126.754 232.141 127.18 232.141 127.71V129.589C232.141 130.119 232.283 130.551 232.567 130.887C232.851 131.21 233.219 131.372 233.671 131.372H235.337ZM250.427 133.483C249.29 133.483 248.457 133.225 247.928 132.708C247.398 132.192 247.133 131.391 247.133 130.306V126.063H245.428V123.816H247.211V120.89H249.768V123.816H252.287V126.063H249.768V130.19C249.768 130.551 249.833 130.816 249.962 130.984C250.104 131.152 250.324 131.236 250.621 131.236H252.287V133.483H250.427ZM253.762 123.816H256.204V125.056C256.449 124.681 256.798 124.377 257.25 124.145C257.715 123.9 258.199 123.777 258.703 123.777H260.02V126.063H258.703C258.018 126.063 257.463 126.27 257.037 126.683C256.61 127.096 256.397 127.626 256.397 128.272V133.483H253.762V123.816ZM263.55 133.638C262.543 133.638 261.729 133.387 261.109 132.883C260.489 132.379 260.179 131.714 260.179 130.887V130.17C260.179 129.357 260.502 128.704 261.148 128.214C261.793 127.71 262.646 127.458 263.705 127.458H264.887C265.223 127.458 265.584 127.503 265.972 127.594C266.359 127.684 266.715 127.807 267.037 127.962V126.954C267.037 126.631 266.928 126.373 266.708 126.179C266.501 125.973 266.224 125.869 265.875 125.869H264.209C263.847 125.869 263.557 125.953 263.337 126.121C263.117 126.289 263.008 126.515 263.008 126.799H260.45C260.45 125.856 260.792 125.101 261.477 124.532C262.174 123.951 263.085 123.661 264.209 123.661H265.875C267.012 123.661 267.929 123.964 268.626 124.571C269.324 125.165 269.672 125.96 269.672 126.954V133.483H267.231V132.321C266.921 132.721 266.54 133.044 266.088 133.29C265.636 133.522 265.19 133.638 264.751 133.638H263.55ZM264.945 131.623C265.423 131.623 265.849 131.501 266.224 131.255C266.598 131.01 266.87 130.681 267.037 130.267V129.938C266.831 129.783 266.54 129.66 266.166 129.57C265.804 129.479 265.416 129.434 265.003 129.434H263.783C263.473 129.434 263.221 129.512 263.027 129.667C262.833 129.822 262.736 130.028 262.736 130.287V130.79C262.736 131.036 262.84 131.236 263.046 131.391C263.266 131.546 263.55 131.623 263.899 131.623H264.945ZM275.099 133.483C274.724 133.483 274.408 133.387 274.149 133.193C273.904 132.986 273.691 132.663 273.51 132.224L270.178 123.816H272.948L275.234 130.461H275.273L277.579 123.816H280.349L276.455 133.483H275.099ZM284.588 133.638C283.774 133.638 283.051 133.49 282.418 133.193C281.798 132.883 281.313 132.457 280.965 131.914C280.616 131.359 280.442 130.726 280.442 130.015V127.516C280.442 126.754 280.616 126.082 280.965 125.501C281.313 124.92 281.798 124.468 282.418 124.145C283.051 123.822 283.774 123.661 284.588 123.661H286.138C287.378 123.661 288.372 124.009 289.121 124.707C289.87 125.404 290.245 126.334 290.245 127.497V129.55H283.076V130.015C283.076 130.442 283.212 130.784 283.483 131.042C283.755 131.301 284.123 131.43 284.588 131.43H286.099C286.551 131.43 286.913 131.333 287.184 131.139C287.468 130.932 287.61 130.668 287.61 130.345H290.206C290.206 130.991 290.032 131.565 289.683 132.069C289.334 132.573 288.844 132.96 288.211 133.232C287.591 133.503 286.874 133.638 286.06 133.638H284.588ZM287.649 127.652V127.497C287.649 126.993 287.513 126.593 287.242 126.295C286.971 125.986 286.609 125.831 286.157 125.831H284.588C284.123 125.831 283.748 125.992 283.464 126.315C283.18 126.638 283.038 127.064 283.038 127.594V127.652H287.649ZM294.975 133.483C293.825 133.483 292.979 133.244 292.437 132.767C291.907 132.276 291.642 131.52 291.642 130.5V119.921H294.277V130.345C294.277 130.655 294.348 130.881 294.49 131.023C294.632 131.165 294.859 131.236 295.169 131.236H296.215V133.483H294.975ZM300.746 133.638C299.933 133.638 299.209 133.49 298.576 133.193C297.956 132.883 297.472 132.457 297.123 131.914C296.775 131.359 296.6 130.726 296.6 130.015V127.516C296.6 126.754 296.775 126.082 297.123 125.501C297.472 124.92 297.956 124.468 298.576 124.145C299.209 123.822 299.933 123.661 300.746 123.661H302.296C303.536 123.661 304.531 124.009 305.28 124.707C306.029 125.404 306.404 126.334 306.404 127.497V129.55H299.235V130.015C299.235 130.442 299.371 130.784 299.642 131.042C299.913 131.301 300.281 131.43 300.746 131.43H302.258C302.71 131.43 303.071 131.333 303.343 131.139C303.627 130.932 303.769 130.668 303.769 130.345H306.365C306.365 130.991 306.191 131.565 305.842 132.069C305.493 132.573 305.002 132.96 304.369 133.232C303.749 133.503 303.033 133.638 302.219 133.638H300.746ZM303.808 127.652V127.497C303.808 126.993 303.672 126.593 303.401 126.295C303.129 125.986 302.768 125.831 302.316 125.831H300.746C300.281 125.831 299.907 125.992 299.623 126.315C299.338 126.638 299.196 127.064 299.196 127.594V127.652H303.808ZM307.801 123.816H310.242V125.056C310.488 124.681 310.836 124.377 311.288 124.145C311.753 123.9 312.238 123.777 312.742 123.777H314.059V126.063H312.742C312.057 126.063 311.502 126.27 311.075 126.683C310.649 127.096 310.436 127.626 310.436 128.272V133.483H307.801V123.816ZM318.26 133.638C317.084 133.638 316.141 133.328 315.431 132.708C314.721 132.088 314.365 131.275 314.365 130.267H316.962C316.962 130.616 317.078 130.9 317.31 131.12C317.556 131.326 317.872 131.43 318.26 131.43H320.003C320.778 131.43 321.166 131.217 321.166 130.79V130.461C321.166 130.332 321.101 130.216 320.972 130.112C320.843 129.996 320.668 129.919 320.449 129.88L317.097 129.299C316.309 129.169 315.683 128.892 315.218 128.465C314.766 128.026 314.54 127.516 314.54 126.935V126.295C314.54 125.469 314.876 124.823 315.547 124.358C316.232 123.893 317.181 123.661 318.395 123.661H319.906C320.991 123.661 321.863 123.951 322.522 124.532C323.194 125.101 323.529 125.856 323.529 126.799H320.933C320.933 126.515 320.836 126.289 320.643 126.121C320.462 125.953 320.216 125.869 319.906 125.869H318.434C317.594 125.869 317.175 126.063 317.175 126.45V126.76C317.175 126.903 317.226 127.025 317.33 127.129C317.446 127.219 317.607 127.284 317.814 127.322L321.34 127.962C322.076 128.091 322.671 128.369 323.123 128.795C323.575 129.208 323.801 129.68 323.801 130.209V130.907C323.801 131.746 323.452 132.411 322.754 132.902C322.07 133.393 321.153 133.638 320.003 133.638H318.26ZM324.301 132.166L329.532 126.044H324.534V123.816H333.291V125.133L328.06 131.255H333.194V133.483H324.301V132.166ZM337.794 133.638C336.98 133.638 336.257 133.49 335.624 133.193C335.004 132.883 334.52 132.457 334.171 131.914C333.822 131.359 333.648 130.726 333.648 130.015V127.516C333.648 126.754 333.822 126.082 334.171 125.501C334.52 124.92 335.004 124.468 335.624 124.145C336.257 123.822 336.98 123.661 337.794 123.661H339.344C340.584 123.661 341.578 124.009 342.327 124.707C343.077 125.404 343.451 126.334 343.451 127.497V129.55H336.283V130.015C336.283 130.442 336.418 130.784 336.69 131.042C336.961 131.301 337.329 131.43 337.794 131.43H339.305C339.757 131.43 340.119 131.333 340.39 131.139C340.674 130.932 340.816 130.668 340.816 130.345H343.412C343.412 130.991 343.238 131.565 342.889 132.069C342.541 132.573 342.05 132.96 341.417 133.232C340.797 133.503 340.08 133.638 339.266 133.638H337.794ZM340.855 127.652V127.497C340.855 126.993 340.719 126.593 340.448 126.295C340.177 125.986 339.815 125.831 339.363 125.831H337.794C337.329 125.831 336.954 125.992 336.67 126.315C336.386 126.638 336.244 127.064 336.244 127.594V127.652H340.855ZM348.297 133.638C347.148 133.638 346.218 133.29 345.507 132.592C344.81 131.895 344.461 130.978 344.461 129.841V127.632C344.461 126.844 344.629 126.153 344.965 125.559C345.301 124.952 345.772 124.487 346.379 124.164C346.986 123.828 347.69 123.661 348.491 123.661H349.557C349.931 123.661 350.312 123.745 350.7 123.912C351.087 124.067 351.41 124.281 351.668 124.552V119.921H354.303V133.483H351.862V132.205C351.604 132.631 351.255 132.98 350.816 133.251C350.377 133.509 349.918 133.638 349.44 133.638H348.297ZM349.731 131.372C350.26 131.372 350.7 131.184 351.048 130.81C351.41 130.422 351.617 129.912 351.668 129.279V127.594C351.578 127.09 351.378 126.689 351.068 126.392C350.771 126.082 350.415 125.927 350.002 125.927H348.82C348.304 125.927 347.884 126.102 347.561 126.45C347.251 126.799 347.096 127.258 347.096 127.826V129.647C347.096 130.164 347.238 130.584 347.522 130.907C347.806 131.217 348.174 131.372 348.627 131.372H349.731Z" fill="#F2F2F2"/>
</g>
<rect x="119.669" y="92.417" width="204.616" height="68.1327" rx="13.1469" stroke="#EBEAE7" stroke-opacity="0.15" stroke-width="1.38389"/>
<g clip-path="url(#clip2_5437_16885)">
<rect x="96.9766" y="105.242" width="250" height="69.5166" rx="13.8389" fill="#1C1C1C"/>
<path d="M97.6838 152.309C97.4271 152.309 97.1588 152.262 96.9138 152.157C96.3654 151.924 95.9454 151.469 95.7588 150.897L95.2454 149.357C95.0121 148.657 95.2221 147.782 95.7354 147.257L98.3838 144.597C98.4188 144.562 98.4654 144.434 98.4654 144.375V141.494L93.1454 143.792C92.4338 144.095 91.7104 144.06 91.1621 143.699C90.6138 143.337 90.2871 142.684 90.2871 141.925V140.42C90.2871 139.277 91.1038 138.052 92.1421 137.644L98.4538 134.914V131.6C98.4538 130.189 99.4454 128.567 100.705 127.914C101.312 127.61 102.012 127.61 102.607 127.914C103.879 128.567 104.87 130.177 104.87 131.589V134.902L111.217 137.632C112.255 138.075 113.049 139.265 113.049 140.42V141.925C113.049 142.695 112.734 143.337 112.174 143.699C111.614 144.06 110.902 144.095 110.19 143.804L104.87 141.505V144.387C104.87 144.434 104.917 144.55 104.952 144.585L107.612 147.257C108.125 147.77 108.335 148.669 108.102 149.357L107.589 150.897C107.39 151.469 106.97 151.924 106.41 152.145C105.862 152.367 105.255 152.344 104.73 152.087C104.672 152.052 104.614 152.017 104.555 151.97L101.837 149.684C101.744 149.602 101.557 149.614 101.475 149.684L98.7571 151.97C98.7104 152.017 98.6521 152.052 98.5938 152.075C98.3138 152.239 97.9988 152.309 97.6838 152.309ZM98.8271 139.58C99.0954 139.58 99.3521 139.65 99.5738 139.802C99.9821 140.07 100.215 140.525 100.215 141.062V144.387C100.215 144.889 99.9704 145.484 99.6204 145.834L96.9721 148.494C96.9254 148.552 96.8788 148.727 96.9021 148.797L97.4154 150.349C97.4504 150.465 97.5321 150.512 97.5788 150.535C97.6138 150.547 97.6721 150.57 97.7421 150.547L100.355 148.342C101.09 147.712 102.245 147.712 102.98 148.342L105.582 150.535C105.664 150.547 105.722 150.535 105.757 150.524C105.804 150.5 105.897 150.454 105.932 150.337L106.445 148.797C106.469 148.715 106.422 148.54 106.375 148.494L103.727 145.834C103.377 145.507 103.12 144.9 103.12 144.387V141.062C103.12 140.537 103.342 140.082 103.739 139.814C104.135 139.545 104.649 139.51 105.139 139.72L110.879 142.194C111.054 142.264 111.17 142.264 111.205 142.24C111.24 142.217 111.287 142.112 111.287 141.925V140.42C111.287 139.977 110.914 139.405 110.517 139.242L104.007 136.43C103.494 136.209 103.132 135.649 103.132 135.089V131.589C103.132 130.819 102.525 129.827 101.825 129.477C101.732 129.43 101.615 129.43 101.51 129.477C100.834 129.827 100.215 130.842 100.215 131.6V135.1C100.215 135.649 99.8538 136.22 99.3404 136.442L92.8304 139.254C92.4221 139.417 92.0488 139.989 92.0488 140.42V141.925C92.0488 142.112 92.0954 142.217 92.1304 142.24C92.1654 142.264 92.2821 142.264 92.4571 142.194L98.1854 139.72C98.3954 139.627 98.6171 139.58 98.8271 139.58Z" fill="white" fill-opacity="0.5"/>
<path d="M133.482 133.438H140.632C141.42 133.438 142.117 133.593 142.724 133.903C143.331 134.2 143.803 134.633 144.138 135.201C144.474 135.756 144.642 136.396 144.642 137.119V138.921C144.642 139.67 144.468 140.335 144.119 140.916C143.77 141.485 143.279 141.93 142.647 142.253C142.027 142.563 141.303 142.718 140.477 142.718H136.156V147H133.482V133.438ZM140.438 140.393C140.89 140.393 141.258 140.251 141.542 139.967C141.826 139.67 141.968 139.283 141.968 138.805V137.235C141.968 136.783 141.839 136.428 141.581 136.17C141.336 135.898 141.006 135.763 140.593 135.763H136.156V140.393H140.438ZM149.301 147.155C148.488 147.155 147.764 147.006 147.131 146.709C146.511 146.399 146.027 145.973 145.678 145.431C145.33 144.875 145.155 144.242 145.155 143.532V141.033C145.155 140.271 145.33 139.599 145.678 139.018C146.027 138.437 146.511 137.984 147.131 137.662C147.764 137.339 148.488 137.177 149.301 137.177H150.851C152.091 137.177 153.086 137.526 153.835 138.223C154.584 138.921 154.959 139.851 154.959 141.013V143.067H147.79V143.532C147.79 143.958 147.926 144.3 148.197 144.559C148.468 144.817 148.836 144.946 149.301 144.946H150.813C151.265 144.946 151.626 144.849 151.898 144.656C152.182 144.449 152.324 144.184 152.324 143.861H154.92C154.92 144.507 154.746 145.082 154.397 145.586C154.048 146.089 153.557 146.477 152.924 146.748C152.304 147.019 151.588 147.155 150.774 147.155H149.301ZM152.363 141.168V141.013C152.363 140.51 152.227 140.109 151.956 139.812C151.684 139.502 151.323 139.347 150.871 139.347H149.301C148.836 139.347 148.462 139.509 148.178 139.831C147.893 140.154 147.751 140.581 147.751 141.11V141.168H152.363ZM156.356 137.332H158.797V138.572C159.043 138.198 159.391 137.894 159.843 137.662C160.308 137.416 160.793 137.293 161.297 137.293H162.614V139.58H161.297C160.612 139.58 160.057 139.786 159.63 140.2C159.204 140.613 158.991 141.142 158.991 141.788V147H156.356V137.332ZM166.815 147.155C165.639 147.155 164.696 146.845 163.986 146.225C163.276 145.605 162.92 144.791 162.92 143.784H165.517C165.517 144.133 165.633 144.417 165.865 144.636C166.111 144.843 166.427 144.946 166.815 144.946H168.558C169.333 144.946 169.721 144.733 169.721 144.307V143.978C169.721 143.848 169.656 143.732 169.527 143.629C169.398 143.513 169.223 143.435 169.004 143.396L165.652 142.815C164.864 142.686 164.238 142.408 163.773 141.982C163.321 141.543 163.095 141.033 163.095 140.451V139.812C163.095 138.985 163.431 138.34 164.102 137.875C164.787 137.41 165.736 137.177 166.95 137.177H168.461C169.546 137.177 170.418 137.468 171.077 138.049C171.749 138.617 172.084 139.373 172.084 140.316H169.488C169.488 140.032 169.391 139.806 169.198 139.638C169.017 139.47 168.771 139.386 168.461 139.386H166.989C166.149 139.386 165.73 139.58 165.73 139.967V140.277C165.73 140.419 165.781 140.542 165.885 140.645C166.001 140.736 166.162 140.8 166.369 140.839L169.895 141.478C170.631 141.607 171.226 141.885 171.678 142.311C172.13 142.725 172.356 143.196 172.356 143.726V144.423C172.356 145.263 172.007 145.928 171.309 146.419C170.625 146.91 169.708 147.155 168.558 147.155H166.815ZM177.37 147.155C176.557 147.155 175.833 147 175.2 146.69C174.58 146.367 174.096 145.915 173.747 145.334C173.411 144.753 173.244 144.081 173.244 143.319V141.052C173.244 140.29 173.418 139.618 173.767 139.037C174.115 138.443 174.6 137.984 175.22 137.662C175.853 137.339 176.576 137.177 177.39 137.177H179.133C179.947 137.177 180.664 137.339 181.284 137.662C181.917 137.984 182.408 138.443 182.756 139.037C183.105 139.618 183.28 140.29 183.28 141.052V143.319C183.28 144.081 183.105 144.753 182.756 145.334C182.408 145.915 181.917 146.367 181.284 146.69C180.664 147 179.941 147.155 179.114 147.155H177.37ZM179.075 144.888C179.553 144.888 179.934 144.727 180.218 144.404C180.503 144.068 180.645 143.635 180.645 143.106V141.226C180.645 140.697 180.503 140.271 180.218 139.948C179.934 139.612 179.56 139.444 179.095 139.444H177.428C176.963 139.444 176.589 139.612 176.305 139.948C176.021 140.271 175.878 140.697 175.878 141.226V143.106C175.878 143.635 176.021 144.068 176.305 144.404C176.589 144.727 176.957 144.888 177.409 144.888H179.075ZM184.747 137.332H187.188V138.495C187.472 138.094 187.841 137.778 188.293 137.545C188.745 137.3 189.197 137.177 189.649 137.177H190.811C191.845 137.177 192.671 137.5 193.291 138.146C193.924 138.792 194.241 139.644 194.241 140.703V147H191.606V140.8C191.606 140.4 191.496 140.077 191.276 139.831C191.07 139.586 190.798 139.463 190.463 139.463H189.3C188.848 139.463 188.441 139.631 188.08 139.967C187.731 140.29 187.498 140.716 187.382 141.246V147H184.747V137.332ZM199.038 147.155C198.03 147.155 197.217 146.903 196.597 146.399C195.977 145.896 195.667 145.23 195.667 144.404V143.687C195.667 142.873 195.99 142.221 196.635 141.73C197.281 141.226 198.134 140.975 199.193 140.975H200.375C200.711 140.975 201.072 141.02 201.46 141.11C201.847 141.201 202.202 141.323 202.525 141.478V140.471C202.525 140.148 202.415 139.89 202.196 139.696C201.989 139.489 201.712 139.386 201.363 139.386H199.697C199.335 139.386 199.044 139.47 198.825 139.638C198.605 139.806 198.495 140.032 198.495 140.316H195.938C195.938 139.373 196.28 138.617 196.965 138.049C197.662 137.468 198.573 137.177 199.697 137.177H201.363C202.499 137.177 203.416 137.481 204.114 138.088C204.811 138.682 205.16 139.476 205.16 140.471V147H202.719V145.838C202.409 146.238 202.028 146.561 201.576 146.806C201.124 147.039 200.678 147.155 200.239 147.155H199.038ZM200.433 145.14C200.911 145.14 201.337 145.017 201.712 144.772C202.086 144.527 202.357 144.197 202.525 143.784V143.454C202.319 143.299 202.028 143.177 201.653 143.086C201.292 142.996 200.904 142.951 200.491 142.951H199.27C198.96 142.951 198.709 143.028 198.515 143.183C198.321 143.338 198.224 143.545 198.224 143.803V144.307C198.224 144.552 198.327 144.753 198.534 144.908C198.754 145.063 199.038 145.14 199.387 145.14H200.433ZM210.236 147C209.086 147 208.24 146.761 207.698 146.283C207.168 145.792 206.904 145.037 206.904 144.016V133.438H209.538V143.861C209.538 144.171 209.61 144.397 209.752 144.539C209.894 144.682 210.12 144.753 210.43 144.753H211.476V147H210.236ZM213.915 136.422C213.411 136.422 213.005 136.279 212.695 135.995C212.397 135.698 212.249 135.311 212.249 134.833C212.249 134.355 212.397 133.974 212.695 133.69C213.005 133.393 213.411 133.244 213.915 133.244C214.419 133.244 214.819 133.393 215.116 133.69C215.426 133.974 215.581 134.355 215.581 134.833C215.581 135.311 215.426 135.698 215.116 135.995C214.819 136.279 214.419 136.422 213.915 136.422ZM212.598 137.332H215.233V147H212.598V137.332ZM226.861 147C225.724 147 224.891 146.742 224.361 146.225C223.832 145.708 223.567 144.908 223.567 143.823V139.58H221.862V137.332H223.644V134.407H226.202V137.332H228.721V139.58H226.202V143.706C226.202 144.068 226.266 144.333 226.396 144.501C226.538 144.669 226.757 144.753 227.054 144.753H228.721V147H226.861ZM233.633 147.155C232.819 147.155 232.095 147 231.463 146.69C230.843 146.367 230.358 145.915 230.01 145.334C229.674 144.753 229.506 144.081 229.506 143.319V141.052C229.506 140.29 229.68 139.618 230.029 139.037C230.378 138.443 230.862 137.984 231.482 137.662C232.115 137.339 232.838 137.177 233.652 137.177H235.396C236.209 137.177 236.926 137.339 237.546 137.662C238.179 137.984 238.67 138.443 239.019 139.037C239.367 139.618 239.542 140.29 239.542 141.052V143.319C239.542 144.081 239.367 144.753 239.019 145.334C238.67 145.915 238.179 146.367 237.546 146.69C236.926 147 236.203 147.155 235.376 147.155H233.633ZM235.337 144.888C235.815 144.888 236.196 144.727 236.481 144.404C236.765 144.068 236.907 143.635 236.907 143.106V141.226C236.907 140.697 236.765 140.271 236.481 139.948C236.196 139.612 235.822 139.444 235.357 139.444H233.691C233.226 139.444 232.851 139.612 232.567 139.948C232.283 140.271 232.141 140.697 232.141 141.226V143.106C232.141 143.635 232.283 144.068 232.567 144.404C232.851 144.727 233.219 144.888 233.671 144.888H235.337ZM250.427 147C249.29 147 248.457 146.742 247.928 146.225C247.398 145.708 247.133 144.908 247.133 143.823V139.58H245.428V137.332H247.211V134.407H249.768V137.332H252.287V139.58H249.768V143.706C249.768 144.068 249.833 144.333 249.962 144.501C250.104 144.669 250.324 144.753 250.621 144.753H252.287V147H250.427ZM253.762 137.332H256.204V138.572C256.449 138.198 256.798 137.894 257.25 137.662C257.715 137.416 258.199 137.293 258.703 137.293H260.02V139.58H258.703C258.018 139.58 257.463 139.786 257.037 140.2C256.61 140.613 256.397 141.142 256.397 141.788V147H253.762V137.332ZM263.55 147.155C262.543 147.155 261.729 146.903 261.109 146.399C260.489 145.896 260.179 145.23 260.179 144.404V143.687C260.179 142.873 260.502 142.221 261.148 141.73C261.793 141.226 262.646 140.975 263.705 140.975H264.887C265.223 140.975 265.584 141.02 265.972 141.11C266.359 141.201 266.715 141.323 267.037 141.478V140.471C267.037 140.148 266.928 139.89 266.708 139.696C266.501 139.489 266.224 139.386 265.875 139.386H264.209C263.847 139.386 263.557 139.47 263.337 139.638C263.117 139.806 263.008 140.032 263.008 140.316H260.45C260.45 139.373 260.792 138.617 261.477 138.049C262.174 137.468 263.085 137.177 264.209 137.177H265.875C267.012 137.177 267.929 137.481 268.626 138.088C269.324 138.682 269.672 139.476 269.672 140.471V147H267.231V145.838C266.921 146.238 266.54 146.561 266.088 146.806C265.636 147.039 265.19 147.155 264.751 147.155H263.55ZM264.945 145.14C265.423 145.14 265.849 145.017 266.224 144.772C266.598 144.527 266.87 144.197 267.037 143.784V143.454C266.831 143.299 266.54 143.177 266.166 143.086C265.804 142.996 265.416 142.951 265.003 142.951H263.783C263.473 142.951 263.221 143.028 263.027 143.183C262.833 143.338 262.736 143.545 262.736 143.803V144.307C262.736 144.552 262.84 144.753 263.046 144.908C263.266 145.063 263.55 145.14 263.899 145.14H264.945ZM275.099 147C274.724 147 274.408 146.903 274.149 146.709C273.904 146.503 273.691 146.18 273.51 145.741L270.178 137.332H272.948L275.234 143.978H275.273L277.579 137.332H280.349L276.455 147H275.099ZM284.588 147.155C283.774 147.155 283.051 147.006 282.418 146.709C281.798 146.399 281.313 145.973 280.965 145.431C280.616 144.875 280.442 144.242 280.442 143.532V141.033C280.442 140.271 280.616 139.599 280.965 139.018C281.313 138.437 281.798 137.984 282.418 137.662C283.051 137.339 283.774 137.177 284.588 137.177H286.138C287.378 137.177 288.372 137.526 289.121 138.223C289.87 138.921 290.245 139.851 290.245 141.013V143.067H283.076V143.532C283.076 143.958 283.212 144.3 283.483 144.559C283.755 144.817 284.123 144.946 284.588 144.946H286.099C286.551 144.946 286.913 144.849 287.184 144.656C287.468 144.449 287.61 144.184 287.61 143.861H290.206C290.206 144.507 290.032 145.082 289.683 145.586C289.334 146.089 288.844 146.477 288.211 146.748C287.591 147.019 286.874 147.155 286.06 147.155H284.588ZM287.649 141.168V141.013C287.649 140.51 287.513 140.109 287.242 139.812C286.971 139.502 286.609 139.347 286.157 139.347H284.588C284.123 139.347 283.748 139.509 283.464 139.831C283.18 140.154 283.038 140.581 283.038 141.11V141.168H287.649ZM294.975 147C293.825 147 292.979 146.761 292.437 146.283C291.907 145.792 291.642 145.037 291.642 144.016V133.438H294.277V143.861C294.277 144.171 294.348 144.397 294.49 144.539C294.632 144.682 294.859 144.753 295.169 144.753H296.215V147H294.975ZM300.746 147.155C299.933 147.155 299.209 147.006 298.576 146.709C297.956 146.399 297.472 145.973 297.123 145.431C296.775 144.875 296.6 144.242 296.6 143.532V141.033C296.6 140.271 296.775 139.599 297.123 139.018C297.472 138.437 297.956 137.984 298.576 137.662C299.209 137.339 299.933 137.177 300.746 137.177H302.296C303.536 137.177 304.531 137.526 305.28 138.223C306.029 138.921 306.404 139.851 306.404 141.013V143.067H299.235V143.532C299.235 143.958 299.371 144.3 299.642 144.559C299.913 144.817 300.281 144.946 300.746 144.946H302.258C302.71 144.946 303.071 144.849 303.343 144.656C303.627 144.449 303.769 144.184 303.769 143.861H306.365C306.365 144.507 306.191 145.082 305.842 145.586C305.493 146.089 305.002 146.477 304.369 146.748C303.749 147.019 303.033 147.155 302.219 147.155H300.746ZM303.808 141.168V141.013C303.808 140.51 303.672 140.109 303.401 139.812C303.129 139.502 302.768 139.347 302.316 139.347H300.746C300.281 139.347 299.907 139.509 299.623 139.831C299.338 140.154 299.196 140.581 299.196 141.11V141.168H303.808ZM307.801 137.332H310.242V138.572C310.488 138.198 310.836 137.894 311.288 137.662C311.753 137.416 312.238 137.293 312.742 137.293H314.059V139.58H312.742C312.057 139.58 311.502 139.786 311.075 140.2C310.649 140.613 310.436 141.142 310.436 141.788V147H307.801V137.332ZM318.26 147.155C317.084 147.155 316.141 146.845 315.431 146.225C314.721 145.605 314.365 144.791 314.365 143.784H316.962C316.962 144.133 317.078 144.417 317.31 144.636C317.556 144.843 317.872 144.946 318.26 144.946H320.003C320.778 144.946 321.166 144.733 321.166 144.307V143.978C321.166 143.848 321.101 143.732 320.972 143.629C320.843 143.513 320.668 143.435 320.449 143.396L317.097 142.815C316.309 142.686 315.683 142.408 315.218 141.982C314.766 141.543 314.54 141.033 314.54 140.451V139.812C314.54 138.985 314.876 138.34 315.547 137.875C316.232 137.41 317.181 137.177 318.395 137.177H319.906C320.991 137.177 321.863 137.468 322.522 138.049C323.194 138.617 323.529 139.373 323.529 140.316H320.933C320.933 140.032 320.836 139.806 320.643 139.638C320.462 139.47 320.216 139.386 319.906 139.386H318.434C317.594 139.386 317.175 139.58 317.175 139.967V140.277C317.175 140.419 317.226 140.542 317.33 140.645C317.446 140.736 317.607 140.8 317.814 140.839L321.34 141.478C322.076 141.607 322.671 141.885 323.123 142.311C323.575 142.725 323.801 143.196 323.801 143.726V144.423C323.801 145.263 323.452 145.928 322.754 146.419C322.07 146.91 321.153 147.155 320.003 147.155H318.26ZM324.301 145.683L329.532 139.56H324.534V137.332H333.291V138.65L328.06 144.772H333.194V147H324.301V145.683ZM337.794 147.155C336.98 147.155 336.257 147.006 335.624 146.709C335.004 146.399 334.52 145.973 334.171 145.431C333.822 144.875 333.648 144.242 333.648 143.532V141.033C333.648 140.271 333.822 139.599 334.171 139.018C334.52 138.437 335.004 137.984 335.624 137.662C336.257 137.339 336.98 137.177 337.794 137.177H339.344C340.584 137.177 341.578 137.526 342.327 138.223C343.077 138.921 343.451 139.851 343.451 141.013V143.067H336.283V143.532C336.283 143.958 336.418 144.3 336.69 144.559C336.961 144.817 337.329 144.946 337.794 144.946H339.305C339.757 144.946 340.119 144.849 340.39 144.656C340.674 144.449 340.816 144.184 340.816 143.861H343.412C343.412 144.507 343.238 145.082 342.889 145.586C342.541 146.089 342.05 146.477 341.417 146.748C340.797 147.019 340.08 147.155 339.266 147.155H337.794ZM340.855 141.168V141.013C340.855 140.51 340.719 140.109 340.448 139.812C340.177 139.502 339.815 139.347 339.363 139.347H337.794C337.329 139.347 336.954 139.509 336.67 139.831C336.386 140.154 336.244 140.581 336.244 141.11V141.168H340.855ZM348.297 147.155C347.148 147.155 346.218 146.806 345.507 146.109C344.81 145.411 344.461 144.494 344.461 143.358V141.149C344.461 140.361 344.629 139.67 344.965 139.076C345.301 138.469 345.772 138.004 346.379 137.681C346.986 137.345 347.69 137.177 348.491 137.177H349.557C349.931 137.177 350.312 137.261 350.7 137.429C351.087 137.584 351.41 137.797 351.668 138.068V133.438H354.303V147H351.862V145.721C351.604 146.148 351.255 146.496 350.816 146.768C350.377 147.026 349.918 147.155 349.44 147.155H348.297ZM349.731 144.888C350.26 144.888 350.7 144.701 351.048 144.326C351.41 143.939 351.617 143.429 351.668 142.796V141.11C351.578 140.606 351.378 140.206 351.068 139.909C350.771 139.599 350.415 139.444 350.002 139.444H348.82C348.304 139.444 347.884 139.618 347.561 139.967C347.251 140.316 347.096 140.774 347.096 141.343V143.164C347.096 143.681 347.238 144.1 347.522 144.423C347.806 144.733 348.174 144.888 348.627 144.888H349.731Z" fill="#F2F2F2"/>
</g>
<rect x="97.6685" y="105.934" width="248.616" height="68.1327" rx="13.1469" stroke="#EBEAE7" stroke-opacity="0.15" stroke-width="1.38389"/>
<rect x="81.9766" y="118.758" width="280" height="69.5166" rx="13.8389" fill="#1C1C1C"/>
<rect x="82.6685" y="119.45" width="278.616" height="68.1327" rx="13.1469" stroke="#EBEAE7" stroke-opacity="0.15" stroke-width="1.38389"/>
<path d="M97.6838 165.825C97.4271 165.825 97.1588 165.778 96.9138 165.673C96.3654 165.44 95.9454 164.985 95.7588 164.413L95.2454 162.873C95.0121 162.173 95.2221 161.298 95.7354 160.773L98.3838 158.113C98.4188 158.078 98.4654 157.95 98.4654 157.892V155.01L93.1454 157.308C92.4338 157.612 91.7104 157.577 91.1621 157.215C90.6138 156.853 90.2871 156.2 90.2871 155.442V153.937C90.2871 152.793 91.1038 151.568 92.1421 151.16L98.4538 148.43V145.117C98.4538 143.705 99.4454 142.083 100.705 141.43C101.312 141.127 102.012 141.127 102.607 141.43C103.879 142.083 104.87 143.693 104.87 145.105V148.418L111.217 151.148C112.255 151.592 113.049 152.782 113.049 153.937V155.442C113.049 156.212 112.734 156.853 112.174 157.215C111.614 157.577 110.902 157.612 110.19 157.32L104.87 155.022V157.903C104.87 157.95 104.917 158.067 104.952 158.102L107.612 160.773C108.125 161.287 108.335 162.185 108.102 162.873L107.589 164.413C107.39 164.985 106.97 165.44 106.41 165.662C105.862 165.883 105.255 165.86 104.73 165.603C104.672 165.568 104.614 165.533 104.555 165.487L101.837 163.2C101.744 163.118 101.557 163.13 101.475 163.2L98.7571 165.487C98.7104 165.533 98.6521 165.568 98.5938 165.592C98.3138 165.755 97.9988 165.825 97.6838 165.825ZM98.8271 153.097C99.0954 153.097 99.3521 153.167 99.5738 153.318C99.9821 153.587 100.215 154.042 100.215 154.578V157.903C100.215 158.405 99.9704 159 99.6204 159.35L96.9721 162.01C96.9254 162.068 96.8788 162.243 96.9021 162.313L97.4154 163.865C97.4504 163.982 97.5321 164.028 97.5788 164.052C97.6138 164.063 97.6721 164.087 97.7421 164.063L100.355 161.858C101.09 161.228 102.245 161.228 102.98 161.858L105.582 164.052C105.664 164.063 105.722 164.052 105.757 164.04C105.804 164.017 105.897 163.97 105.932 163.853L106.445 162.313C106.469 162.232 106.422 162.057 106.375 162.01L103.727 159.35C103.377 159.023 103.12 158.417 103.12 157.903V154.578C103.12 154.053 103.342 153.598 103.739 153.33C104.135 153.062 104.649 153.027 105.139 153.237L110.879 155.71C111.054 155.78 111.17 155.78 111.205 155.757C111.24 155.733 111.287 155.628 111.287 155.442V153.937C111.287 153.493 110.914 152.922 110.517 152.758L104.007 149.947C103.494 149.725 103.132 149.165 103.132 148.605V145.105C103.132 144.335 102.525 143.343 101.825 142.993C101.732 142.947 101.615 142.947 101.51 142.993C100.834 143.343 100.215 144.358 100.215 145.117V148.617C100.215 149.165 99.8538 149.737 99.3404 149.958L92.8304 152.77C92.4221 152.933 92.0488 153.505 92.0488 153.937V155.442C92.0488 155.628 92.0954 155.733 92.1304 155.757C92.1654 155.78 92.2821 155.78 92.4571 155.71L98.1854 153.237C98.3954 153.143 98.6171 153.097 98.8271 153.097Z" fill="white" fill-opacity="0.5"/>
<path d="M133.482 146.955H140.632C141.42 146.955 142.117 147.11 142.724 147.42C143.331 147.717 143.803 148.149 144.138 148.718C144.474 149.273 144.642 149.912 144.642 150.636V152.437C144.642 153.187 144.468 153.852 144.119 154.433C143.77 155.001 143.279 155.447 142.647 155.77C142.027 156.08 141.303 156.235 140.477 156.235H136.156V160.517H133.482V146.955ZM140.438 153.91C140.89 153.91 141.258 153.768 141.542 153.484C141.826 153.187 141.968 152.799 141.968 152.321V150.752C141.968 150.3 141.839 149.945 141.581 149.686C141.336 149.415 141.006 149.279 140.593 149.279H136.156V153.91H140.438ZM149.301 160.672C148.488 160.672 147.764 160.523 147.131 160.226C146.511 159.916 146.027 159.49 145.678 158.947C145.33 158.392 145.155 157.759 145.155 157.049V154.549C145.155 153.787 145.33 153.116 145.678 152.534C146.027 151.953 146.511 151.501 147.131 151.178C147.764 150.855 148.488 150.694 149.301 150.694H150.851C152.091 150.694 153.086 151.043 153.835 151.74C154.584 152.437 154.959 153.367 154.959 154.53V156.584H147.79V157.049C147.79 157.475 147.926 157.817 148.197 158.075C148.468 158.334 148.836 158.463 149.301 158.463H150.813C151.265 158.463 151.626 158.366 151.898 158.172C152.182 157.966 152.324 157.701 152.324 157.378H154.92C154.92 158.024 154.746 158.599 154.397 159.102C154.048 159.606 153.557 159.993 152.924 160.265C152.304 160.536 151.588 160.672 150.774 160.672H149.301ZM152.363 154.685V154.53C152.363 154.026 152.227 153.626 151.956 153.329C151.684 153.019 151.323 152.864 150.871 152.864H149.301C148.836 152.864 148.462 153.025 148.178 153.348C147.893 153.671 147.751 154.097 147.751 154.627V154.685H152.363ZM156.356 150.849H158.797V152.089C159.043 151.714 159.391 151.411 159.843 151.178C160.308 150.933 160.793 150.81 161.297 150.81H162.614V153.096H161.297C160.612 153.096 160.057 153.303 159.63 153.716C159.204 154.13 158.991 154.659 158.991 155.305V160.517H156.356V150.849ZM166.815 160.672C165.639 160.672 164.696 160.362 163.986 159.742C163.276 159.122 162.92 158.308 162.92 157.3H165.517C165.517 157.649 165.633 157.933 165.865 158.153C166.111 158.36 166.427 158.463 166.815 158.463H168.558C169.333 158.463 169.721 158.25 169.721 157.824V157.494C169.721 157.365 169.656 157.249 169.527 157.145C169.398 157.029 169.223 156.952 169.004 156.913L165.652 156.332C164.864 156.203 164.238 155.925 163.773 155.499C163.321 155.059 163.095 154.549 163.095 153.968V153.329C163.095 152.502 163.431 151.856 164.102 151.391C164.787 150.926 165.736 150.694 166.95 150.694H168.461C169.546 150.694 170.418 150.984 171.077 151.566C171.749 152.134 172.084 152.89 172.084 153.832H169.488C169.488 153.548 169.391 153.322 169.198 153.154C169.017 152.986 168.771 152.902 168.461 152.902H166.989C166.149 152.902 165.73 153.096 165.73 153.484V153.794C165.73 153.936 165.781 154.058 165.885 154.162C166.001 154.252 166.162 154.317 166.369 154.356L169.895 154.995C170.631 155.124 171.226 155.402 171.678 155.828C172.13 156.241 172.356 156.713 172.356 157.242V157.94C172.356 158.779 172.007 159.445 171.309 159.935C170.625 160.426 169.708 160.672 168.558 160.672H166.815ZM177.37 160.672C176.557 160.672 175.833 160.517 175.2 160.207C174.58 159.884 174.096 159.432 173.747 158.85C173.411 158.269 173.244 157.598 173.244 156.835V154.569C173.244 153.807 173.418 153.135 173.767 152.554C174.115 151.96 174.6 151.501 175.22 151.178C175.853 150.855 176.576 150.694 177.39 150.694H179.133C179.947 150.694 180.664 150.855 181.284 151.178C181.917 151.501 182.408 151.96 182.756 152.554C183.105 153.135 183.28 153.807 183.28 154.569V156.835C183.28 157.598 183.105 158.269 182.756 158.85C182.408 159.432 181.917 159.884 181.284 160.207C180.664 160.517 179.941 160.672 179.114 160.672H177.37ZM179.075 158.405C179.553 158.405 179.934 158.243 180.218 157.92C180.503 157.585 180.645 157.152 180.645 156.622V154.743C180.645 154.213 180.503 153.787 180.218 153.464C179.934 153.128 179.56 152.961 179.095 152.961H177.428C176.963 152.961 176.589 153.128 176.305 153.464C176.021 153.787 175.878 154.213 175.878 154.743V156.622C175.878 157.152 176.021 157.585 176.305 157.92C176.589 158.243 176.957 158.405 177.409 158.405H179.075ZM184.747 150.849H187.188V152.011C187.472 151.611 187.841 151.294 188.293 151.062C188.745 150.816 189.197 150.694 189.649 150.694H190.811C191.845 150.694 192.671 151.017 193.291 151.662C193.924 152.308 194.241 153.161 194.241 154.22V160.517H191.606V154.317C191.606 153.916 191.496 153.593 191.276 153.348C191.07 153.103 190.798 152.98 190.463 152.98H189.3C188.848 152.98 188.441 153.148 188.08 153.484C187.731 153.807 187.498 154.233 187.382 154.762V160.517H184.747V150.849ZM199.038 160.672C198.03 160.672 197.217 160.42 196.597 159.916C195.977 159.412 195.667 158.747 195.667 157.92V157.204C195.667 156.39 195.99 155.738 196.635 155.247C197.281 154.743 198.134 154.491 199.193 154.491H200.375C200.711 154.491 201.072 154.536 201.46 154.627C201.847 154.717 202.202 154.84 202.525 154.995V153.987C202.525 153.665 202.415 153.406 202.196 153.212C201.989 153.006 201.712 152.902 201.363 152.902H199.697C199.335 152.902 199.044 152.986 198.825 153.154C198.605 153.322 198.495 153.548 198.495 153.832H195.938C195.938 152.89 196.28 152.134 196.965 151.566C197.662 150.984 198.573 150.694 199.697 150.694H201.363C202.499 150.694 203.416 150.997 204.114 151.604C204.811 152.199 205.16 152.993 205.16 153.987V160.517H202.719V159.354C202.409 159.755 202.028 160.077 201.576 160.323C201.124 160.555 200.678 160.672 200.239 160.672H199.038ZM200.433 158.657C200.911 158.657 201.337 158.534 201.712 158.289C202.086 158.043 202.357 157.714 202.525 157.3V156.971C202.319 156.816 202.028 156.693 201.653 156.603C201.292 156.513 200.904 156.467 200.491 156.467H199.27C198.96 156.467 198.709 156.545 198.515 156.7C198.321 156.855 198.224 157.061 198.224 157.32V157.824C198.224 158.069 198.327 158.269 198.534 158.424C198.754 158.579 199.038 158.657 199.387 158.657H200.433ZM210.236 160.517C209.086 160.517 208.24 160.278 207.698 159.8C207.168 159.309 206.904 158.553 206.904 157.533V146.955H209.538V157.378C209.538 157.688 209.61 157.914 209.752 158.056C209.894 158.198 210.12 158.269 210.43 158.269H211.476V160.517H210.236ZM213.915 149.938C213.411 149.938 213.005 149.796 212.695 149.512C212.397 149.215 212.249 148.827 212.249 148.349C212.249 147.872 212.397 147.491 212.695 147.206C213.005 146.909 213.411 146.761 213.915 146.761C214.419 146.761 214.819 146.909 215.116 147.206C215.426 147.491 215.581 147.872 215.581 148.349C215.581 148.827 215.426 149.215 215.116 149.512C214.819 149.796 214.419 149.938 213.915 149.938ZM212.598 150.849H215.233V160.517H212.598V150.849ZM226.861 160.517C225.724 160.517 224.891 160.258 224.361 159.742C223.832 159.225 223.567 158.424 223.567 157.339V153.096H221.862V150.849H223.644V147.923H226.202V150.849H228.721V153.096H226.202V157.223C226.202 157.585 226.266 157.849 226.396 158.017C226.538 158.185 226.757 158.269 227.054 158.269H228.721V160.517H226.861ZM233.633 160.672C232.819 160.672 232.095 160.517 231.463 160.207C230.843 159.884 230.358 159.432 230.01 158.85C229.674 158.269 229.506 157.598 229.506 156.835V154.569C229.506 153.807 229.68 153.135 230.029 152.554C230.378 151.96 230.862 151.501 231.482 151.178C232.115 150.855 232.838 150.694 233.652 150.694H235.396C236.209 150.694 236.926 150.855 237.546 151.178C238.179 151.501 238.67 151.96 239.019 152.554C239.367 153.135 239.542 153.807 239.542 154.569V156.835C239.542 157.598 239.367 158.269 239.019 158.85C238.67 159.432 238.179 159.884 237.546 160.207C236.926 160.517 236.203 160.672 235.376 160.672H233.633ZM235.337 158.405C235.815 158.405 236.196 158.243 236.481 157.92C236.765 157.585 236.907 157.152 236.907 156.622V154.743C236.907 154.213 236.765 153.787 236.481 153.464C236.196 153.128 235.822 152.961 235.357 152.961H233.691C233.226 152.961 232.851 153.128 232.567 153.464C232.283 153.787 232.141 154.213 232.141 154.743V156.622C232.141 157.152 232.283 157.585 232.567 157.92C232.851 158.243 233.219 158.405 233.671 158.405H235.337ZM250.427 160.517C249.29 160.517 248.457 160.258 247.928 159.742C247.398 159.225 247.133 158.424 247.133 157.339V153.096H245.428V150.849H247.211V147.923H249.768V150.849H252.287V153.096H249.768V157.223C249.768 157.585 249.833 157.849 249.962 158.017C250.104 158.185 250.324 158.269 250.621 158.269H252.287V160.517H250.427ZM253.762 150.849H256.204V152.089C256.449 151.714 256.798 151.411 257.25 151.178C257.715 150.933 258.199 150.81 258.703 150.81H260.02V153.096H258.703C258.018 153.096 257.463 153.303 257.037 153.716C256.61 154.13 256.397 154.659 256.397 155.305V160.517H253.762V150.849ZM263.55 160.672C262.543 160.672 261.729 160.42 261.109 159.916C260.489 159.412 260.179 158.747 260.179 157.92V157.204C260.179 156.39 260.502 155.738 261.148 155.247C261.793 154.743 262.646 154.491 263.705 154.491H264.887C265.223 154.491 265.584 154.536 265.972 154.627C266.359 154.717 266.715 154.84 267.037 154.995V153.987C267.037 153.665 266.928 153.406 266.708 153.212C266.501 153.006 266.224 152.902 265.875 152.902H264.209C263.847 152.902 263.557 152.986 263.337 153.154C263.117 153.322 263.008 153.548 263.008 153.832H260.45C260.45 152.89 260.792 152.134 261.477 151.566C262.174 150.984 263.085 150.694 264.209 150.694H265.875C267.012 150.694 267.929 150.997 268.626 151.604C269.324 152.199 269.672 152.993 269.672 153.987V160.517H267.231V159.354C266.921 159.755 266.54 160.077 266.088 160.323C265.636 160.555 265.19 160.672 264.751 160.672H263.55ZM264.945 158.657C265.423 158.657 265.849 158.534 266.224 158.289C266.598 158.043 266.87 157.714 267.037 157.3V156.971C266.831 156.816 266.54 156.693 266.166 156.603C265.804 156.513 265.416 156.467 265.003 156.467H263.783C263.473 156.467 263.221 156.545 263.027 156.7C262.833 156.855 262.736 157.061 262.736 157.32V157.824C262.736 158.069 262.84 158.269 263.046 158.424C263.266 158.579 263.55 158.657 263.899 158.657H264.945ZM275.099 160.517C274.724 160.517 274.408 160.42 274.149 160.226C273.904 160.019 273.691 159.696 273.51 159.257L270.178 150.849H272.948L275.234 157.494H275.273L277.579 150.849H280.349L276.455 160.517H275.099ZM284.588 160.672C283.774 160.672 283.051 160.523 282.418 160.226C281.798 159.916 281.313 159.49 280.965 158.947C280.616 158.392 280.442 157.759 280.442 157.049V154.549C280.442 153.787 280.616 153.116 280.965 152.534C281.313 151.953 281.798 151.501 282.418 151.178C283.051 150.855 283.774 150.694 284.588 150.694H286.138C287.378 150.694 288.372 151.043 289.121 151.74C289.87 152.437 290.245 153.367 290.245 154.53V156.584H283.076V157.049C283.076 157.475 283.212 157.817 283.483 158.075C283.755 158.334 284.123 158.463 284.588 158.463H286.099C286.551 158.463 286.913 158.366 287.184 158.172C287.468 157.966 287.61 157.701 287.61 157.378H290.206C290.206 158.024 290.032 158.599 289.683 159.102C289.334 159.606 288.844 159.993 288.211 160.265C287.591 160.536 286.874 160.672 286.06 160.672H284.588ZM287.649 154.685V154.53C287.649 154.026 287.513 153.626 287.242 153.329C286.971 153.019 286.609 152.864 286.157 152.864H284.588C284.123 152.864 283.748 153.025 283.464 153.348C283.18 153.671 283.038 154.097 283.038 154.627V154.685H287.649ZM294.975 160.517C293.825 160.517 292.979 160.278 292.437 159.8C291.907 159.309 291.642 158.553 291.642 157.533V146.955H294.277V157.378C294.277 157.688 294.348 157.914 294.49 158.056C294.632 158.198 294.859 158.269 295.169 158.269H296.215V160.517H294.975ZM300.746 160.672C299.933 160.672 299.209 160.523 298.576 160.226C297.956 159.916 297.472 159.49 297.123 158.947C296.775 158.392 296.6 157.759 296.6 157.049V154.549C296.6 153.787 296.775 153.116 297.123 152.534C297.472 151.953 297.956 151.501 298.576 151.178C299.209 150.855 299.933 150.694 300.746 150.694H302.296C303.536 150.694 304.531 151.043 305.28 151.74C306.029 152.437 306.404 153.367 306.404 154.53V156.584H299.235V157.049C299.235 157.475 299.371 157.817 299.642 158.075C299.913 158.334 300.281 158.463 300.746 158.463H302.258C302.71 158.463 303.071 158.366 303.343 158.172C303.627 157.966 303.769 157.701 303.769 157.378H306.365C306.365 158.024 306.191 158.599 305.842 159.102C305.493 159.606 305.002 159.993 304.369 160.265C303.749 160.536 303.033 160.672 302.219 160.672H300.746ZM303.808 154.685V154.53C303.808 154.026 303.672 153.626 303.401 153.329C303.129 153.019 302.768 152.864 302.316 152.864H300.746C300.281 152.864 299.907 153.025 299.623 153.348C299.338 153.671 299.196 154.097 299.196 154.627V154.685H303.808ZM307.801 150.849H310.242V152.089C310.488 151.714 310.836 151.411 311.288 151.178C311.753 150.933 312.238 150.81 312.742 150.81H314.059V153.096H312.742C312.057 153.096 311.502 153.303 311.075 153.716C310.649 154.13 310.436 154.659 310.436 155.305V160.517H307.801V150.849ZM318.26 160.672C317.084 160.672 316.141 160.362 315.431 159.742C314.721 159.122 314.365 158.308 314.365 157.3H316.962C316.962 157.649 317.078 157.933 317.31 158.153C317.556 158.36 317.872 158.463 318.26 158.463H320.003C320.778 158.463 321.166 158.25 321.166 157.824V157.494C321.166 157.365 321.101 157.249 320.972 157.145C320.843 157.029 320.668 156.952 320.449 156.913L317.097 156.332C316.309 156.203 315.683 155.925 315.218 155.499C314.766 155.059 314.54 154.549 314.54 153.968V153.329C314.54 152.502 314.876 151.856 315.547 151.391C316.232 150.926 317.181 150.694 318.395 150.694H319.906C320.991 150.694 321.863 150.984 322.522 151.566C323.194 152.134 323.529 152.89 323.529 153.832H320.933C320.933 153.548 320.836 153.322 320.643 153.154C320.462 152.986 320.216 152.902 319.906 152.902H318.434C317.594 152.902 317.175 153.096 317.175 153.484V153.794C317.175 153.936 317.226 154.058 317.33 154.162C317.446 154.252 317.607 154.317 317.814 154.356L321.34 154.995C322.076 155.124 322.671 155.402 323.123 155.828C323.575 156.241 323.801 156.713 323.801 157.242V157.94C323.801 158.779 323.452 159.445 322.754 159.935C322.07 160.426 321.153 160.672 320.003 160.672H318.26ZM324.301 159.199L329.532 153.077H324.534V150.849H333.291V152.166L328.06 158.289H333.194V160.517H324.301V159.199ZM337.794 160.672C336.98 160.672 336.257 160.523 335.624 160.226C335.004 159.916 334.52 159.49 334.171 158.947C333.822 158.392 333.648 157.759 333.648 157.049V154.549C333.648 153.787 333.822 153.116 334.171 152.534C334.52 151.953 335.004 151.501 335.624 151.178C336.257 150.855 336.98 150.694 337.794 150.694H339.344C340.584 150.694 341.578 151.043 342.327 151.74C343.077 152.437 343.451 153.367 343.451 154.53V156.584H336.283V157.049C336.283 157.475 336.418 157.817 336.69 158.075C336.961 158.334 337.329 158.463 337.794 158.463H339.305C339.757 158.463 340.119 158.366 340.39 158.172C340.674 157.966 340.816 157.701 340.816 157.378H343.412C343.412 158.024 343.238 158.599 342.889 159.102C342.541 159.606 342.05 159.993 341.417 160.265C340.797 160.536 340.08 160.672 339.266 160.672H337.794ZM340.855 154.685V154.53C340.855 154.026 340.719 153.626 340.448 153.329C340.177 153.019 339.815 152.864 339.363 152.864H337.794C337.329 152.864 336.954 153.025 336.67 153.348C336.386 153.671 336.244 154.097 336.244 154.627V154.685H340.855ZM348.297 160.672C347.148 160.672 346.218 160.323 345.507 159.625C344.81 158.928 344.461 158.011 344.461 156.874V154.666C344.461 153.878 344.629 153.187 344.965 152.592C345.301 151.985 345.772 151.52 346.379 151.198C346.986 150.862 347.69 150.694 348.491 150.694H349.557C349.931 150.694 350.312 150.778 350.7 150.946C351.087 151.101 351.41 151.314 351.668 151.585V146.955H354.303V160.517H351.862V159.238C351.604 159.664 351.255 160.013 350.816 160.284C350.377 160.542 349.918 160.672 349.44 160.672H348.297ZM349.731 158.405C350.26 158.405 350.7 158.218 351.048 157.843C351.41 157.455 351.617 156.945 351.668 156.312V154.627C351.578 154.123 351.378 153.723 351.068 153.426C350.771 153.116 350.415 152.961 350.002 152.961H348.82C348.304 152.961 347.884 153.135 347.561 153.484C347.251 153.832 347.096 154.291 347.096 154.859V156.68C347.096 157.197 347.238 157.617 347.522 157.94C347.806 158.25 348.174 158.405 348.627 158.405H349.731Z" fill="#F2F2F2"/>
<rect x="50.9766" y="132.275" width="342" height="69.5166" rx="13.8389" fill="#1C1C1C"/>
<rect x="51.6685" y="132.967" width="340.616" height="68.1327" rx="13.1469" stroke="#EBEAE7" stroke-opacity="0.15" stroke-width="1.38389"/>
<path d="M123.684 179.342C123.427 179.342 123.159 179.295 122.914 179.19C122.365 178.957 121.945 178.502 121.759 177.93L121.245 176.39C121.012 175.69 121.222 174.815 121.735 174.29L124.384 171.63C124.419 171.595 124.465 171.467 124.465 171.408V168.527L119.145 170.825C118.434 171.128 117.71 171.093 117.162 170.732C116.614 170.37 116.287 169.717 116.287 168.958V167.453C116.287 166.31 117.104 165.085 118.142 164.677L124.454 161.947V158.633C124.454 157.222 125.445 155.6 126.705 154.947C127.312 154.643 128.012 154.643 128.607 154.947C129.879 155.6 130.87 157.21 130.87 158.622V161.935L137.217 164.665C138.255 165.108 139.049 166.298 139.049 167.453V168.958C139.049 169.728 138.734 170.37 138.174 170.732C137.614 171.093 136.902 171.128 136.19 170.837L130.87 168.538V171.42C130.87 171.467 130.917 171.583 130.952 171.618L133.612 174.29C134.125 174.803 134.335 175.702 134.102 176.39L133.589 177.93C133.39 178.502 132.97 178.957 132.41 179.178C131.862 179.4 131.255 179.377 130.73 179.12C130.672 179.085 130.614 179.05 130.555 179.003L127.837 176.717C127.744 176.635 127.557 176.647 127.475 176.717L124.757 179.003C124.71 179.05 124.652 179.085 124.594 179.108C124.314 179.272 123.999 179.342 123.684 179.342ZM124.827 166.613C125.095 166.613 125.352 166.683 125.574 166.835C125.982 167.103 126.215 167.558 126.215 168.095V171.42C126.215 171.922 125.97 172.517 125.62 172.867L122.972 175.527C122.925 175.585 122.879 175.76 122.902 175.83L123.415 177.382C123.45 177.498 123.532 177.545 123.579 177.568C123.614 177.58 123.672 177.603 123.742 177.58L126.355 175.375C127.09 174.745 128.245 174.745 128.98 175.375L131.582 177.568C131.664 177.58 131.722 177.568 131.757 177.557C131.804 177.533 131.897 177.487 131.932 177.37L132.445 175.83C132.469 175.748 132.422 175.573 132.375 175.527L129.727 172.867C129.377 172.54 129.12 171.933 129.12 171.42V168.095C129.12 167.57 129.342 167.115 129.739 166.847C130.135 166.578 130.649 166.543 131.139 166.753L136.879 169.227C137.054 169.297 137.17 169.297 137.205 169.273C137.24 169.25 137.287 169.145 137.287 168.958V167.453C137.287 167.01 136.914 166.438 136.517 166.275L130.007 163.463C129.494 163.242 129.132 162.682 129.132 162.122V158.622C129.132 157.852 128.525 156.86 127.825 156.51C127.732 156.463 127.615 156.463 127.51 156.51C126.834 156.86 126.215 157.875 126.215 158.633V162.133C126.215 162.682 125.854 163.253 125.34 163.475L118.83 166.287C118.422 166.45 118.049 167.022 118.049 167.453V168.958C118.049 169.145 118.095 169.25 118.13 169.273C118.165 169.297 118.282 169.297 118.457 169.227L124.185 166.753C124.395 166.66 124.617 166.613 124.827 166.613Z" fill="white" fill-opacity="0.5"/>
<path d="M159.482 160.471H166.632C167.42 160.471 168.117 160.626 168.724 160.936C169.331 161.233 169.803 161.666 170.138 162.234C170.474 162.79 170.642 163.429 170.642 164.152V165.954C170.642 166.703 170.468 167.368 170.119 167.95C169.77 168.518 169.279 168.964 168.647 169.286C168.027 169.596 167.303 169.751 166.477 169.751H162.156V174.033H159.482V160.471ZM166.438 167.427C166.89 167.427 167.258 167.284 167.542 167C167.826 166.703 167.968 166.316 167.968 165.838V164.269C167.968 163.816 167.839 163.461 167.581 163.203C167.336 162.932 167.006 162.796 166.593 162.796H162.156V167.427H166.438ZM175.301 174.188C174.488 174.188 173.764 174.04 173.131 173.743C172.511 173.433 172.027 173.006 171.678 172.464C171.33 171.908 171.155 171.276 171.155 170.565V168.066C171.155 167.304 171.33 166.632 171.678 166.051C172.027 165.47 172.511 165.018 173.131 164.695C173.764 164.372 174.488 164.21 175.301 164.21H176.851C178.091 164.21 179.086 164.559 179.835 165.257C180.584 165.954 180.959 166.884 180.959 168.047V170.1H173.79V170.565C173.79 170.991 173.926 171.334 174.197 171.592C174.468 171.85 174.836 171.98 175.301 171.98H176.813C177.265 171.98 177.626 171.883 177.898 171.689C178.182 171.482 178.324 171.217 178.324 170.895H180.92C180.92 171.54 180.746 172.115 180.397 172.619C180.048 173.123 179.557 173.51 178.924 173.781C178.304 174.053 177.588 174.188 176.774 174.188H175.301ZM178.363 168.202V168.047C178.363 167.543 178.227 167.142 177.956 166.845C177.684 166.535 177.323 166.38 176.871 166.38H175.301C174.836 166.38 174.462 166.542 174.178 166.865C173.893 167.188 173.751 167.614 173.751 168.143V168.202H178.363ZM182.356 164.365H184.797V165.605C185.043 165.231 185.391 164.927 185.843 164.695C186.308 164.449 186.793 164.327 187.297 164.327H188.614V166.613H187.297C186.612 166.613 186.057 166.819 185.63 167.233C185.204 167.646 184.991 168.176 184.991 168.821V174.033H182.356V164.365ZM192.815 174.188C191.639 174.188 190.696 173.878 189.986 173.258C189.276 172.638 188.92 171.825 188.92 170.817H191.517C191.517 171.166 191.633 171.45 191.865 171.67C192.111 171.876 192.427 171.98 192.815 171.98H194.558C195.333 171.98 195.721 171.766 195.721 171.34V171.011C195.721 170.882 195.656 170.765 195.527 170.662C195.398 170.546 195.223 170.468 195.004 170.43L191.652 169.848C190.864 169.719 190.238 169.441 189.773 169.015C189.321 168.576 189.095 168.066 189.095 167.485V166.845C189.095 166.019 189.431 165.373 190.102 164.908C190.787 164.443 191.736 164.21 192.95 164.21H194.461C195.546 164.21 196.418 164.501 197.077 165.082C197.749 165.651 198.084 166.406 198.084 167.349H195.488C195.488 167.065 195.391 166.839 195.198 166.671C195.017 166.503 194.771 166.419 194.461 166.419H192.989C192.149 166.419 191.73 166.613 191.73 167V167.31C191.73 167.452 191.781 167.575 191.885 167.678C192.001 167.769 192.162 167.833 192.369 167.872L195.895 168.511C196.631 168.641 197.226 168.918 197.678 169.345C198.13 169.758 198.356 170.229 198.356 170.759V171.456C198.356 172.296 198.007 172.961 197.309 173.452C196.625 173.943 195.708 174.188 194.558 174.188H192.815ZM203.37 174.188C202.557 174.188 201.833 174.033 201.2 173.723C200.58 173.4 200.096 172.948 199.747 172.367C199.411 171.786 199.244 171.114 199.244 170.352V168.085C199.244 167.323 199.418 166.652 199.767 166.07C200.115 165.476 200.6 165.018 201.22 164.695C201.853 164.372 202.576 164.21 203.39 164.21H205.133C205.947 164.21 206.664 164.372 207.284 164.695C207.917 165.018 208.408 165.476 208.756 166.07C209.105 166.652 209.28 167.323 209.28 168.085V170.352C209.28 171.114 209.105 171.786 208.756 172.367C208.408 172.948 207.917 173.4 207.284 173.723C206.664 174.033 205.941 174.188 205.114 174.188H203.37ZM205.075 171.921C205.553 171.921 205.934 171.76 206.218 171.437C206.503 171.101 206.645 170.669 206.645 170.139V168.26C206.645 167.73 206.503 167.304 206.218 166.981C205.934 166.645 205.56 166.477 205.095 166.477H203.428C202.963 166.477 202.589 166.645 202.305 166.981C202.021 167.304 201.878 167.73 201.878 168.26V170.139C201.878 170.669 202.021 171.101 202.305 171.437C202.589 171.76 202.957 171.921 203.409 171.921H205.075ZM210.747 164.365H213.188V165.528C213.472 165.127 213.841 164.811 214.293 164.578C214.745 164.333 215.197 164.21 215.649 164.21H216.811C217.845 164.21 218.671 164.533 219.291 165.179C219.924 165.825 220.241 166.677 220.241 167.737V174.033H217.606V167.833C217.606 167.433 217.496 167.11 217.276 166.865C217.07 166.619 216.798 166.497 216.463 166.497H215.3C214.848 166.497 214.441 166.664 214.08 167C213.731 167.323 213.498 167.749 213.382 168.279V174.033H210.747V164.365ZM225.038 174.188C224.03 174.188 223.217 173.936 222.597 173.433C221.977 172.929 221.667 172.264 221.667 171.437V170.72C221.667 169.906 221.99 169.254 222.635 168.763C223.281 168.26 224.134 168.008 225.193 168.008H226.375C226.711 168.008 227.072 168.053 227.46 168.143C227.847 168.234 228.202 168.357 228.525 168.511V167.504C228.525 167.181 228.415 166.923 228.196 166.729C227.989 166.522 227.712 166.419 227.363 166.419H225.697C225.335 166.419 225.044 166.503 224.825 166.671C224.605 166.839 224.495 167.065 224.495 167.349H221.938C221.938 166.406 222.28 165.651 222.965 165.082C223.662 164.501 224.573 164.21 225.697 164.21H227.363C228.499 164.21 229.416 164.514 230.114 165.121C230.811 165.715 231.16 166.509 231.16 167.504V174.033H228.719V172.871C228.409 173.271 228.028 173.594 227.576 173.839C227.124 174.072 226.678 174.188 226.239 174.188H225.038ZM226.433 172.173C226.911 172.173 227.337 172.051 227.712 171.805C228.086 171.56 228.357 171.23 228.525 170.817V170.488C228.319 170.333 228.028 170.21 227.653 170.12C227.292 170.029 226.904 169.984 226.491 169.984H225.27C224.96 169.984 224.709 170.061 224.515 170.216C224.321 170.371 224.224 170.578 224.224 170.836V171.34C224.224 171.586 224.327 171.786 224.534 171.941C224.754 172.096 225.038 172.173 225.387 172.173H226.433ZM236.236 174.033C235.086 174.033 234.24 173.794 233.698 173.316C233.168 172.826 232.904 172.07 232.904 171.05V160.471H235.538V170.895C235.538 171.205 235.61 171.431 235.752 171.573C235.894 171.715 236.12 171.786 236.43 171.786H237.476V174.033H236.236ZM239.915 163.455C239.411 163.455 239.005 163.313 238.695 163.029C238.397 162.731 238.249 162.344 238.249 161.866C238.249 161.388 238.397 161.007 238.695 160.723C239.005 160.426 239.411 160.277 239.915 160.277C240.419 160.277 240.819 160.426 241.116 160.723C241.426 161.007 241.581 161.388 241.581 161.866C241.581 162.344 241.426 162.731 241.116 163.029C240.819 163.313 240.419 163.455 239.915 163.455ZM238.598 164.365H241.233V174.033H238.598V164.365ZM242.668 172.716L247.899 166.593H242.9V164.365H251.658V165.683L246.427 171.805H251.561V174.033H242.668V172.716ZM256.161 174.188C255.347 174.188 254.624 174.04 253.991 173.743C253.371 173.433 252.886 173.006 252.538 172.464C252.189 171.908 252.015 171.276 252.015 170.565V168.066C252.015 167.304 252.189 166.632 252.538 166.051C252.886 165.47 253.371 165.018 253.991 164.695C254.624 164.372 255.347 164.21 256.161 164.21H257.711C258.951 164.21 259.945 164.559 260.694 165.257C261.443 165.954 261.818 166.884 261.818 168.047V170.1H254.65V170.565C254.65 170.991 254.785 171.334 255.056 171.592C255.328 171.85 255.696 171.98 256.161 171.98H257.672C258.124 171.98 258.486 171.883 258.757 171.689C259.041 171.482 259.183 171.217 259.183 170.895H261.779C261.779 171.54 261.605 172.115 261.256 172.619C260.907 173.123 260.417 173.51 259.784 173.781C259.164 174.053 258.447 174.188 257.633 174.188H256.161ZM259.222 168.202V168.047C259.222 167.543 259.086 167.142 258.815 166.845C258.544 166.535 258.182 166.38 257.73 166.38H256.161C255.696 166.38 255.321 166.542 255.037 166.865C254.753 167.188 254.611 167.614 254.611 168.143V168.202H259.222ZM266.664 174.188C265.515 174.188 264.585 173.839 263.874 173.142C263.177 172.445 262.828 171.527 262.828 170.391V168.182C262.828 167.394 262.996 166.703 263.332 166.109C263.667 165.502 264.139 165.037 264.746 164.714C265.353 164.378 266.057 164.21 266.858 164.21H267.923C268.298 164.21 268.679 164.294 269.066 164.462C269.454 164.617 269.777 164.83 270.035 165.102V160.471H272.67V174.033H270.229V172.754C269.971 173.181 269.622 173.529 269.183 173.801C268.744 174.059 268.285 174.188 267.807 174.188H266.664ZM268.098 171.921C268.627 171.921 269.066 171.734 269.415 171.36C269.777 170.972 269.984 170.462 270.035 169.829V168.143C269.945 167.64 269.745 167.239 269.435 166.942C269.138 166.632 268.782 166.477 268.369 166.477H267.187C266.671 166.477 266.251 166.652 265.928 167C265.618 167.349 265.463 167.808 265.463 168.376V170.197C265.463 170.714 265.605 171.134 265.889 171.456C266.173 171.766 266.541 171.921 266.993 171.921H268.098ZM283.938 174.033C282.802 174.033 281.969 173.775 281.439 173.258C280.909 172.742 280.645 171.941 280.645 170.856V166.613H278.94V164.365H280.722V161.44H283.28V164.365H285.798V166.613H283.28V170.74C283.28 171.101 283.344 171.366 283.473 171.534C283.615 171.702 283.835 171.786 284.132 171.786H285.798V174.033H283.938ZM287.274 164.365H289.715V165.605C289.96 165.231 290.309 164.927 290.761 164.695C291.226 164.449 291.71 164.327 292.214 164.327H293.532V166.613H292.214C291.53 166.613 290.974 166.819 290.548 167.233C290.122 167.646 289.909 168.176 289.909 168.821V174.033H287.274V164.365ZM297.061 174.188C296.054 174.188 295.24 173.936 294.62 173.433C294 172.929 293.69 172.264 293.69 171.437V170.72C293.69 169.906 294.013 169.254 294.659 168.763C295.305 168.26 296.157 168.008 297.216 168.008H298.398C298.734 168.008 299.096 168.053 299.483 168.143C299.871 168.234 300.226 168.357 300.549 168.511V167.504C300.549 167.181 300.439 166.923 300.219 166.729C300.013 166.522 299.735 166.419 299.386 166.419H297.72C297.359 166.419 297.068 166.503 296.848 166.671C296.629 166.839 296.519 167.065 296.519 167.349H293.962C293.962 166.406 294.304 165.651 294.988 165.082C295.686 164.501 296.596 164.21 297.72 164.21H299.386C300.523 164.21 301.44 164.514 302.138 165.121C302.835 165.715 303.184 166.509 303.184 167.504V174.033H300.743V172.871C300.433 173.271 300.052 173.594 299.599 173.839C299.147 174.072 298.702 174.188 298.263 174.188H297.061ZM298.456 172.173C298.934 172.173 299.361 172.051 299.735 171.805C300.11 171.56 300.381 171.23 300.549 170.817V170.488C300.342 170.333 300.052 170.21 299.677 170.12C299.315 170.029 298.928 169.984 298.515 169.984H297.294C296.984 169.984 296.732 170.061 296.538 170.216C296.345 170.371 296.248 170.578 296.248 170.836V171.34C296.248 171.586 296.351 171.786 296.558 171.941C296.777 172.096 297.061 172.173 297.41 172.173H298.456ZM308.61 174.033C308.236 174.033 307.919 173.936 307.661 173.743C307.415 173.536 307.202 173.213 307.021 172.774L303.689 164.365H306.46L308.746 171.011H308.784L311.09 164.365H313.861L309.966 174.033H308.61ZM318.099 174.188C317.285 174.188 316.562 174.04 315.929 173.743C315.309 173.433 314.825 173.006 314.476 172.464C314.127 171.908 313.953 171.276 313.953 170.565V168.066C313.953 167.304 314.127 166.632 314.476 166.051C314.825 165.47 315.309 165.018 315.929 164.695C316.562 164.372 317.285 164.21 318.099 164.21H319.649C320.889 164.21 321.883 164.559 322.633 165.257C323.382 165.954 323.756 166.884 323.756 168.047V170.1H316.588V170.565C316.588 170.991 316.723 171.334 316.995 171.592C317.266 171.85 317.634 171.98 318.099 171.98H319.61C320.062 171.98 320.424 171.883 320.695 171.689C320.979 171.482 321.121 171.217 321.121 170.895H323.718C323.718 171.54 323.543 172.115 323.194 172.619C322.846 173.123 322.355 173.51 321.722 173.781C321.102 174.053 320.385 174.188 319.571 174.188H318.099ZM321.16 168.202V168.047C321.16 167.543 321.025 167.142 320.753 166.845C320.482 166.535 320.12 166.38 319.668 166.38H318.099C317.634 166.38 317.259 166.542 316.975 166.865C316.691 167.188 316.549 167.614 316.549 168.143V168.202H321.16ZM328.486 174.033C327.337 174.033 326.491 173.794 325.948 173.316C325.419 172.826 325.154 172.07 325.154 171.05V160.471H327.789V170.895C327.789 171.205 327.86 171.431 328.002 171.573C328.144 171.715 328.37 171.786 328.68 171.786H329.726V174.033H328.486Z" fill="#F2F2F2"/>
<g filter="url(#filter0_b_5437_16885)">
<rect x="193.951" y="10" width="56" height="56" rx="28" fill="#16BA7F" fill-opacity="0.15"/>
<rect x="194.451" y="10.5" width="55" height="55" rx="27.5" stroke="#16BA7F" stroke-opacity="0.5"/>
<path d="M220.88 48.75C220.4 48.75 219.92 48.63 219.48 48.39C218.59 47.89 218.06 47 218.06 45.99V40.64C218.06 40.13 217.73 39.38 217.42 38.99L213.62 35C212.99 34.37 212.5 33.27 212.5 32.46V30.14C212.5 28.53 213.72 27.27 215.27 27.27H228.61C230.14 27.27 231.38 28.51 231.38 30.04V32.26C231.38 33.31 230.75 34.52 230.15 35.11C229.86 35.4 229.38 35.4 229.09 35.11C228.8 34.82 228.8 34.34 229.09 34.05C229.46 33.68 229.88 32.85 229.88 32.26V30.04C229.88 29.34 229.31 28.77 228.61 28.77H215.27C214.56 28.77 214 29.37 214 30.14V32.46C214 32.83 214.3 33.56 214.69 33.95L218.54 38C219.05 38.63 219.55 39.69 219.55 40.64V45.99C219.55 46.65 220 46.97 220.2 47.08C220.63 47.32 221.14 47.31 221.54 47.07L222.94 46.17C223.23 46 223.51 45.45 223.51 45.08C223.51 44.67 223.85 44.33 224.26 44.33C224.67 44.33 225.01 44.67 225.01 45.08C225.01 45.98 224.45 47.01 223.74 47.44L222.35 48.34C221.9 48.61 221.39 48.75 220.88 48.75Z" fill="#16BA7F"/>
<path d="M226.02 43.2701C223.84 43.2701 222.07 41.5001 222.07 39.3201C222.07 37.1401 223.84 35.3701 226.02 35.3701C228.2 35.3701 229.97 37.1401 229.97 39.3201C229.97 41.5001 228.2 43.2701 226.02 43.2701ZM226.02 36.8701C224.67 36.8701 223.57 37.9701 223.57 39.3201C223.57 40.6701 224.67 41.7701 226.02 41.7701C227.37 41.7701 228.47 40.6701 228.47 39.3201C228.47 37.9701 227.37 36.8701 226.02 36.8701Z" fill="#16BA7F"/>
<path d="M229.822 43.8701C229.632 43.8701 229.442 43.8001 229.292 43.6501L228.292 42.6501C228.002 42.3601 228.002 41.8801 228.292 41.5901C228.582 41.3001 229.062 41.3001 229.352 41.5901L230.352 42.5901C230.642 42.8801 230.642 43.3601 230.352 43.6501C230.212 43.7901 230.012 43.8701 229.822 43.8701Z" fill="#16BA7F"/>
</g>
<line x1="222.951" y1="66" x2="222.951" y2="133" stroke="#16BA7F" stroke-opacity="0.5" stroke-width="2"/>
<defs>
<filter id="filter0_b_5437_16885" x="173.951" y="-10" width="96" height="96" filterUnits="userSpaceOnUse" color-interpolation-filters="sRGB">
<feFlood flood-opacity="0" result="BackgroundImageFix"/>
<feGaussianBlur in="BackgroundImageFix" stdDeviation="10"/>
<feComposite in2="SourceAlpha" operator="in" result="effect1_backgroundBlur_5437_16885"/>
<feBlend mode="normal" in="SourceGraphic" in2="effect1_backgroundBlur_5437_16885" result="shape"/>
</filter>
<clipPath id="clip0_5437_16885">
<rect x="143.977" y="78.2085" width="156" height="69.5166" rx="13.8389" fill="white"/>
</clipPath>
<clipPath id="clip1_5437_16885">
<rect x="118.977" y="91.7251" width="206" height="69.5166" rx="13.8389" fill="white"/>
</clipPath>
<clipPath id="clip2_5437_16885">
<rect x="96.9766" y="105.242" width="250" height="69.5166" rx="13.8389" fill="white"/>
</clipPath>
</defs>
</svg>
