<svg width="494" height="235" viewBox="0 0 494 235" fill="none" xmlns="http://www.w3.org/2000/svg">
<rect x="74.4102" y="13" width="147.008" height="45.7188" rx="11.8111" fill="#1C1C1C"/>
<rect x="75.0007" y="13.5906" width="145.827" height="44.5376" rx="11.2205" stroke="#EBEAE7" stroke-opacity="0.15" stroke-width="1.18111"/>
<path d="M103.328 35.6553H100.536C100.201 35.6553 99.9238 35.3777 99.9238 35.043V29.3363C99.9238 28.7321 100.161 28.1688 100.585 27.7443C101.01 27.3198 101.573 27.083 102.177 27.083H102.185C103.206 27.0912 104.169 27.4912 104.904 28.2178C105.639 28.9607 106.039 29.9404 106.039 30.9609V32.9366C106.047 34.5613 104.953 35.6553 103.328 35.6553ZM101.148 34.4307H103.328C104.275 34.4307 104.822 33.8837 104.822 32.9366V30.9609C104.822 30.2588 104.545 29.5894 104.047 29.0832C103.549 28.5934 102.879 28.3158 102.185 28.3076C102.185 28.3076 102.185 28.3076 102.177 28.3076C101.908 28.3076 101.646 28.4137 101.451 28.6097C101.255 28.8056 101.148 29.0587 101.148 29.3363V34.4307V34.4307Z" fill="#F2F2F2"/>
<path d="M94.8193 45.1093C94.4356 45.1093 94.0764 44.9623 93.807 44.6847L92.4518 43.3213C92.3783 43.2478 92.264 43.2397 92.1823 43.305L90.7781 44.35C90.3454 44.6766 89.7739 44.7337 89.2841 44.4888C88.7943 44.2439 88.4922 43.754 88.4922 43.207V30.9609C88.4922 28.4954 89.9046 27.083 92.3701 27.083H102.167C102.502 27.083 102.779 27.3606 102.779 27.6953C102.779 28.03 102.502 28.3076 102.167 28.3076C101.604 28.3076 101.146 28.7648 101.146 29.3281V43.207C101.146 43.754 100.844 44.2439 100.355 44.4888C99.8647 44.7337 99.2932 44.6847 98.8605 44.3582L97.4645 43.3132C97.3829 43.2478 97.2686 43.2642 97.2032 43.3295L95.8317 44.7011C95.5623 44.9623 95.203 45.1093 94.8193 45.1093ZM92.2966 42.0396C92.6722 42.0396 93.0396 42.1784 93.3171 42.4641L94.6724 43.8275C94.7214 43.8765 94.7867 43.8846 94.8193 43.8846C94.852 43.8846 94.9173 43.8765 94.9663 43.8275L96.3379 42.4559C96.844 41.9498 97.6441 41.9008 98.2074 42.3335L99.5953 43.3703C99.6851 43.4356 99.7668 43.4111 99.8076 43.3866C99.8484 43.3621 99.9219 43.3132 99.9219 43.207V29.3281C99.9219 28.9607 100.012 28.6097 100.167 28.3076H92.3701C90.5577 28.3076 89.7168 29.1485 89.7168 30.9609V43.207C89.7168 43.3213 89.7903 43.3703 89.8311 43.3948C89.8801 43.4193 89.9617 43.4356 90.0434 43.3703L91.4394 42.3253C91.6925 42.1375 91.9946 42.0396 92.2966 42.0396Z" fill="#F2F2F2"/>
<path d="M97.2705 37.2964H94.8213C94.4866 37.2964 94.209 37.0188 94.209 36.6841C94.209 36.3494 94.4866 36.0718 94.8213 36.0718H97.2705C97.6052 36.0718 97.8828 36.3494 97.8828 36.6841C97.8828 37.0188 97.6052 37.2964 97.2705 37.2964Z" fill="#F2F2F2"/>
<path d="M97.2705 34.0308H94.8213C94.4866 34.0308 94.209 33.7532 94.209 33.4185C94.209 33.0837 94.4866 32.8062 94.8213 32.8062H97.2705C97.6052 32.8062 97.8828 33.0837 97.8828 33.4185C97.8828 33.7532 97.6052 34.0308 97.2705 34.0308Z" fill="#F2F2F2"/>
<path d="M92.3457 34.2349C91.8967 34.2349 91.5293 33.8675 91.5293 33.4185C91.5293 32.9694 91.8967 32.6021 92.3457 32.6021C92.7947 32.6021 93.1621 32.9694 93.1621 33.4185C93.1621 33.8675 92.7947 34.2349 92.3457 34.2349Z" fill="#F2F2F2"/>
<path d="M92.3457 37.5C91.8967 37.5 91.5293 37.1326 91.5293 36.6836C91.5293 36.2346 91.8967 35.8672 92.3457 35.8672C92.7947 35.8672 93.1621 36.2346 93.1621 36.6836C93.1621 37.1326 92.7947 37.5 92.3457 37.5Z" fill="#F2F2F2"/>
<path d="M125.401 41.3594C124.568 41.3594 123.963 41.1765 123.587 40.8107C123.221 40.445 123.039 39.8557 123.039 39.043V34.9892H121.697V33.7548H123.054V31.4536H124.456V33.7548H126.437V34.9892H124.456V39.0125C124.456 39.4087 124.532 39.6932 124.684 39.8659C124.847 40.0386 125.106 40.125 125.462 40.125H126.437V41.3594H125.401ZM127.955 33.7548H129.311V34.8673C129.515 34.532 129.809 34.2577 130.195 34.0444C130.592 33.831 131.003 33.7243 131.43 33.7243H132.222V34.9892H131.43C130.81 34.9892 130.312 35.1823 129.936 35.5683C129.56 35.9442 129.372 36.4421 129.372 37.0618V41.3594H127.955V33.7548ZM135.234 41.4813C134.472 41.4813 133.863 41.2883 133.405 40.9022C132.948 40.506 132.72 39.9827 132.72 39.3325V38.8296C132.72 38.1895 132.958 37.6765 133.436 37.2904C133.913 36.8942 134.538 36.6961 135.31 36.6961H136.27C136.575 36.6961 136.9 36.7418 137.246 36.8332C137.591 36.9247 137.886 37.0517 138.13 37.2142V36.1017C138.13 35.7258 138.013 35.4261 137.779 35.2026C137.545 34.9689 137.241 34.8521 136.865 34.8521H135.615C135.229 34.8521 134.919 34.9435 134.685 35.1264C134.452 35.3093 134.335 35.548 134.335 35.8426H132.933C132.933 35.1823 133.177 34.6489 133.664 34.2425C134.162 33.8361 134.812 33.6329 135.615 33.6329H136.865C137.667 33.6329 138.312 33.8615 138.8 34.3187C139.288 34.7657 139.532 35.3601 139.532 36.1017V41.3594H138.206V40.3383C137.972 40.6838 137.667 40.9631 137.291 41.1765C136.916 41.3797 136.535 41.4813 136.148 41.4813H135.234ZM136.225 40.3078C136.672 40.3078 137.068 40.1808 137.413 39.9269C137.759 39.6627 137.998 39.3122 138.13 38.8753V38.4181C137.937 38.2454 137.672 38.1083 137.337 38.0067C137.002 37.9051 136.656 37.8543 136.301 37.8543H135.326C134.97 37.8543 134.68 37.9457 134.457 38.1286C134.233 38.3115 134.122 38.5553 134.122 38.8601V39.3173C134.122 39.6221 134.228 39.8659 134.442 40.0488C134.665 40.2215 134.96 40.3078 135.326 40.3078H136.225ZM141.276 33.7548H142.632V34.8064C142.855 34.4609 143.15 34.1815 143.516 33.9682C143.892 33.7447 144.262 33.6329 144.628 33.6329H145.634C146.366 33.6329 146.955 33.8767 147.402 34.3644C147.859 34.8521 148.088 35.4921 148.088 36.2846V41.3594H146.67V36.2846C146.67 35.868 146.564 35.5328 146.35 35.2788C146.137 35.0146 145.858 34.8826 145.512 34.8826H144.567C144.13 34.8826 143.734 35.0502 143.379 35.3855C143.023 35.7207 142.794 36.1576 142.693 36.6961V41.3594H141.276V33.7548ZM152.173 41.4813C151.35 41.4813 150.689 41.2578 150.192 40.8107C149.694 40.3536 149.445 39.7541 149.445 39.0125H150.832C150.832 39.3884 150.953 39.6932 151.197 39.9269C151.441 40.1605 151.766 40.2774 152.173 40.2774H153.514C153.9 40.2774 154.21 40.2062 154.443 40.064C154.677 39.9116 154.794 39.7135 154.794 39.4697V39.0277C154.794 38.8652 154.723 38.7229 154.581 38.601C154.448 38.4689 154.276 38.3826 154.062 38.3419L151.426 37.8847C150.867 37.7832 150.42 37.5749 150.085 37.2599C149.75 36.9348 149.582 36.5589 149.582 36.1322V35.6293C149.582 35.0299 149.821 34.5473 150.298 34.1815C150.776 33.8158 151.416 33.6329 152.218 33.6329H153.499C154.26 33.6329 154.87 33.8412 155.327 34.2577C155.795 34.6743 156.028 35.228 156.028 35.9188H154.641C154.631 35.5937 154.52 35.3347 154.306 35.1416C154.103 34.9384 153.834 34.8368 153.499 34.8368H152.234C151.858 34.8368 151.558 34.913 151.334 35.0654C151.121 35.2178 151.014 35.421 151.014 35.675V36.056C151.014 36.2186 151.086 36.3608 151.228 36.4827C151.37 36.6046 151.553 36.691 151.776 36.7418L154.443 37.2142C154.972 37.3056 155.398 37.5088 155.723 37.8238C156.059 38.1387 156.226 38.5045 156.226 38.921V39.5154C156.226 40.1046 155.977 40.5822 155.48 40.9479C154.982 41.3035 154.327 41.4813 153.514 41.4813H152.173ZM159.873 41.4813C159.111 41.4813 158.501 41.2883 158.044 40.9022C157.587 40.506 157.358 39.9827 157.358 39.3325V38.8296C157.358 38.1895 157.597 37.6765 158.075 37.2904C158.552 36.8942 159.177 36.6961 159.949 36.6961H160.909C161.214 36.6961 161.539 36.7418 161.884 36.8332C162.23 36.9247 162.525 37.0517 162.768 37.2142V36.1017C162.768 35.7258 162.651 35.4261 162.418 35.2026C162.184 34.9689 161.879 34.8521 161.503 34.8521H160.254C159.868 34.8521 159.558 34.9435 159.324 35.1264C159.091 35.3093 158.974 35.548 158.974 35.8426H157.572C157.572 35.1823 157.815 34.6489 158.303 34.2425C158.801 33.8361 159.451 33.6329 160.254 33.6329H161.503C162.306 33.6329 162.951 33.8615 163.439 34.3187C163.927 34.7657 164.17 35.3601 164.17 36.1017V41.3594H162.845V40.3383C162.611 40.6838 162.306 40.9631 161.93 41.1765C161.554 41.3797 161.173 41.4813 160.787 41.4813H159.873ZM160.863 40.3078C161.31 40.3078 161.707 40.1808 162.052 39.9269C162.398 39.6627 162.636 39.3122 162.768 38.8753V38.4181C162.575 38.2454 162.311 38.1083 161.976 38.0067C161.641 37.9051 161.295 37.8543 160.94 37.8543H159.964C159.609 37.8543 159.319 37.9457 159.096 38.1286C158.872 38.3115 158.76 38.5553 158.76 38.8601V39.3173C158.76 39.6221 158.867 39.8659 159.08 40.0488C159.304 40.2215 159.599 40.3078 159.964 40.3078H160.863ZM168.535 41.4813C167.662 41.4813 166.956 41.2222 166.417 40.7041C165.879 40.1758 165.609 39.4849 165.609 38.6315V36.5894C165.609 35.6953 165.874 34.9791 166.402 34.4406C166.94 33.9021 167.646 33.6329 168.52 33.6329H169.755C170.588 33.6329 171.258 33.8666 171.766 34.3339C172.274 34.8013 172.528 35.421 172.528 36.1932H171.126C171.126 35.7969 170.999 35.482 170.745 35.2483C170.501 35.0045 170.171 34.8826 169.755 34.8826H168.535C168.088 34.8826 167.723 35.0451 167.438 35.3702C167.164 35.6852 167.027 36.1068 167.027 36.6351V38.5858C167.027 39.0836 167.169 39.4849 167.453 39.7897C167.738 40.0843 168.104 40.2316 168.551 40.2316H169.77C170.197 40.2316 170.537 40.0843 170.791 39.7897C171.055 39.4849 171.187 39.0836 171.187 38.5858H172.589C172.589 39.4493 172.33 40.1504 171.812 40.6888C171.294 41.2171 170.613 41.4813 169.77 41.4813H168.535ZM176.933 41.3594C176.1 41.3594 175.495 41.1765 175.12 40.8107C174.754 40.445 174.571 39.8557 174.571 39.043V34.9892H173.23V33.7548H174.586V31.4536H175.988V33.7548H177.969V34.9892H175.988V39.0125C175.988 39.4087 176.064 39.6932 176.217 39.8659C176.379 40.0386 176.638 40.125 176.994 40.125H177.969V41.3594H176.933ZM180.478 32.749C180.184 32.749 179.945 32.6627 179.762 32.4899C179.579 32.3071 179.488 32.0734 179.488 31.7889C179.488 31.5044 179.579 31.2759 179.762 31.1031C179.945 30.9203 180.184 30.8288 180.478 30.8288C180.773 30.8288 181.006 30.9203 181.179 31.1031C181.362 31.2759 181.453 31.5044 181.453 31.7889C181.453 32.0734 181.362 32.3071 181.179 32.4899C181.006 32.6627 180.773 32.749 180.478 32.749ZM179.762 33.7548H181.179V41.3594H179.762V33.7548ZM185.942 41.4813C185.048 41.4813 184.327 41.2121 183.778 40.6736C183.24 40.1351 182.971 39.429 182.971 38.5553V36.5741C182.971 35.6902 183.245 34.9791 183.794 34.4406C184.342 33.9021 185.069 33.6329 185.973 33.6329H187.253C188.157 33.6329 188.884 33.9021 189.432 34.4406C189.981 34.9791 190.255 35.6902 190.255 36.5741V38.5553C190.255 39.429 189.976 40.1351 189.417 40.6736C188.868 41.2121 188.142 41.4813 187.238 41.4813H185.942ZM187.223 40.2316C187.71 40.2316 188.101 40.0742 188.396 39.7592C188.691 39.4443 188.838 39.0226 188.838 38.4943V36.6199C188.838 36.0916 188.691 35.6699 188.396 35.355C188.111 35.04 187.73 34.8826 187.253 34.8826H185.973C185.495 34.8826 185.109 35.04 184.815 35.355C184.53 35.6699 184.388 36.0916 184.388 36.6199V38.4943C184.388 39.0226 184.53 39.4443 184.815 39.7592C185.099 40.0742 185.48 40.2316 185.958 40.2316H187.223ZM191.781 33.7548H193.137V34.8064C193.361 34.4609 193.656 34.1815 194.021 33.9682C194.397 33.7447 194.768 33.6329 195.134 33.6329H196.14C196.871 33.6329 197.46 33.8767 197.907 34.3644C198.365 34.8521 198.593 35.4921 198.593 36.2846V41.3594H197.176V36.2846C197.176 35.868 197.069 35.5328 196.856 35.2788C196.642 35.0146 196.363 34.8826 196.018 34.8826H195.073C194.636 34.8826 194.24 35.0502 193.884 35.3855C193.529 35.7207 193.3 36.1576 193.198 36.6961V41.3594H191.781V33.7548ZM202.678 41.4813C201.855 41.4813 201.195 41.2578 200.697 40.8107C200.199 40.3536 199.95 39.7541 199.95 39.0125H201.337C201.337 39.3884 201.459 39.6932 201.703 39.9269C201.947 40.1605 202.272 40.2774 202.678 40.2774H204.019C204.405 40.2774 204.715 40.2062 204.949 40.064C205.183 39.9116 205.299 39.7135 205.299 39.4697V39.0277C205.299 38.8652 205.228 38.7229 205.086 38.601C204.954 38.4689 204.781 38.3826 204.568 38.3419L201.931 37.8847C201.373 37.7832 200.926 37.5749 200.59 37.2599C200.255 36.9348 200.087 36.5589 200.087 36.1322V35.6293C200.087 35.0299 200.326 34.5473 200.804 34.1815C201.281 33.8158 201.921 33.6329 202.724 33.6329H204.004C204.766 33.6329 205.376 33.8412 205.833 34.2577C206.3 34.6743 206.534 35.228 206.534 35.9188H205.147C205.137 35.5937 205.025 35.3347 204.812 35.1416C204.609 34.9384 204.339 34.8368 204.004 34.8368H202.739C202.363 34.8368 202.064 34.913 201.84 35.0654C201.627 35.2178 201.52 35.421 201.52 35.675V36.056C201.52 36.2186 201.591 36.3608 201.733 36.4827C201.876 36.6046 202.058 36.691 202.282 36.7418L204.949 37.2142C205.477 37.3056 205.904 37.5088 206.229 37.8238C206.564 38.1387 206.732 38.5045 206.732 38.921V39.5154C206.732 40.1046 206.483 40.5822 205.985 40.9479C205.487 41.3035 204.832 41.4813 204.019 41.4813H202.678Z" fill="#F2F2F2"/>
<rect x="0.527344" y="94.6406" width="220.892" height="45.7188" rx="11.8111" fill="#FA4666" fill-opacity="0.15"/>
<rect x="1.1179" y="95.2312" width="219.711" height="44.5376" rx="11.2205" stroke="#FA4666" stroke-opacity="0.15" stroke-width="1.18111"/>
<path d="M29.4454 117.296H26.6533C26.3186 117.296 26.041 117.018 26.041 116.684V110.977C26.041 110.373 26.2778 109.809 26.7023 109.385C27.1268 108.96 27.6902 108.724 28.2943 108.724H28.3025C29.323 108.732 30.2863 109.132 31.0211 109.858C31.7559 110.601 32.1559 111.581 32.1559 112.602V114.577C32.1641 116.202 31.0701 117.296 29.4454 117.296ZM27.2656 116.071H29.4454C30.3925 116.071 30.9395 115.524 30.9395 114.577V112.602C30.9395 111.899 30.6619 111.23 30.1639 110.724C29.6659 110.234 28.9964 109.956 28.3025 109.948C28.3025 109.948 28.3025 109.948 28.2943 109.948C28.0249 109.948 27.7636 110.054 27.5677 110.25C27.3718 110.446 27.2656 110.699 27.2656 110.977V116.071V116.071Z" fill="#FA4666"/>
<path d="M20.9365 126.75C20.5528 126.75 20.1936 126.603 19.9242 126.325L18.5689 124.962C18.4955 124.888 18.3812 124.88 18.2995 124.946L16.8953 125.991C16.4626 126.317 15.8911 126.374 15.4013 126.129C14.9114 125.884 14.6094 125.395 14.6094 124.848V112.602C14.6094 110.136 16.0218 108.724 18.4873 108.724H28.2842C28.6189 108.724 28.8965 109.001 28.8965 109.336C28.8965 109.671 28.6189 109.948 28.2842 109.948C27.7209 109.948 27.2637 110.405 27.2637 110.969V124.848C27.2637 125.395 26.9616 125.884 26.4718 126.129C25.9819 126.374 25.4104 126.325 24.9777 125.999L23.5817 124.954C23.5 124.888 23.3857 124.905 23.3204 124.97L21.9489 126.342C21.6795 126.603 21.3202 126.75 20.9365 126.75ZM18.4138 123.68C18.7894 123.68 19.1568 123.819 19.4343 124.105L20.7896 125.468C20.8386 125.517 20.9039 125.525 20.9365 125.525C20.9692 125.525 21.0345 125.517 21.0835 125.468L22.455 124.097C22.9612 123.59 23.7613 123.541 24.3246 123.974L25.7125 125.011C25.8023 125.076 25.8839 125.052 25.9248 125.027C25.9656 125.003 26.0391 124.954 26.0391 124.848V110.969C26.0391 110.601 26.1289 110.25 26.284 109.948H18.4873C16.6749 109.948 15.834 110.789 15.834 112.602V124.848C15.834 124.962 15.9075 125.011 15.9483 125.035C15.9973 125.06 16.0789 125.076 16.1605 125.011L17.5566 123.966C17.8097 123.778 18.1118 123.68 18.4138 123.68Z" fill="#FA4666"/>
<path d="M23.3877 118.937H20.9385C20.6038 118.937 20.3262 118.659 20.3262 118.325C20.3262 117.99 20.6038 117.712 20.9385 117.712H23.3877C23.7224 117.712 24 117.99 24 118.325C24 118.659 23.7224 118.937 23.3877 118.937Z" fill="#FA4666"/>
<path d="M23.3877 115.671H20.9385C20.6038 115.671 20.3262 115.394 20.3262 115.059C20.3262 114.724 20.6038 114.447 20.9385 114.447H23.3877C23.7224 114.447 24 114.724 24 115.059C24 115.394 23.7224 115.671 23.3877 115.671Z" fill="#FA4666"/>
<path d="M18.4629 115.875C18.0139 115.875 17.6465 115.508 17.6465 115.059C17.6465 114.61 18.0139 114.243 18.4629 114.243C18.9119 114.243 19.2793 114.61 19.2793 115.059C19.2793 115.508 18.9119 115.875 18.4629 115.875Z" fill="#FA4666"/>
<path d="M18.4629 119.141C18.0139 119.141 17.6465 118.773 17.6465 118.324C17.6465 117.875 18.0139 117.508 18.4629 117.508C18.9119 117.508 19.2793 117.875 19.2793 118.324C19.2793 118.773 18.9119 119.141 18.4629 119.141Z" fill="#FA4666"/>
<path d="M49.1709 116.63H47.8603V115.395H49.1709V114.832C49.1709 113.998 49.3995 113.364 49.8567 112.927C50.3139 112.49 50.9743 112.271 51.8379 112.271H52.5846V113.491H51.8379C51.4112 113.491 51.0962 113.602 50.893 113.826C50.6898 114.039 50.5882 114.379 50.5882 114.847V115.395H52.417V116.63H50.5882V123H49.1709V116.63ZM53.7003 115.395H55.0566V116.508C55.2598 116.173 55.5545 115.898 55.9405 115.685C56.3368 115.472 56.7482 115.365 57.1749 115.365H57.9674V116.63H57.1749C56.5552 116.63 56.0574 116.823 55.6814 117.209C55.3055 117.585 55.1176 118.083 55.1176 118.702V123H53.7003V115.395ZM60.9792 123.122C60.2172 123.122 59.6077 122.929 59.1505 122.543C58.6933 122.147 58.4647 121.623 58.4647 120.973V120.47C58.4647 119.83 58.7035 119.317 59.181 118.931C59.6585 118.535 60.2833 118.337 61.0554 118.337H62.0155C62.3203 118.337 62.6454 118.382 62.9909 118.474C63.3363 118.565 63.6309 118.692 63.8747 118.855V117.742C63.8747 117.366 63.7579 117.067 63.5242 116.843C63.2906 116.61 62.9858 116.493 62.6099 116.493H61.3602C60.9741 116.493 60.6643 116.584 60.4306 116.767C60.1969 116.95 60.0801 117.189 60.0801 117.483H58.6781C58.6781 116.823 58.9219 116.29 59.4096 115.883C59.9074 115.477 60.5576 115.274 61.3602 115.274H62.6099C63.4125 115.274 64.0576 115.502 64.5453 115.959C65.033 116.406 65.2768 117.001 65.2768 117.742V123H63.9509V121.979C63.7173 122.324 63.4125 122.604 63.0366 122.817C62.6607 123.02 62.2797 123.122 61.8936 123.122H60.9792ZM61.9698 121.948C62.4168 121.948 62.8131 121.821 63.1585 121.567C63.5039 121.303 63.7427 120.953 63.8747 120.516V120.059C63.6817 119.886 63.4176 119.749 63.0823 119.647C62.747 119.546 62.4016 119.495 62.046 119.495H61.0707C60.7151 119.495 60.4255 119.586 60.202 119.769C59.9785 119.952 59.8667 120.196 59.8667 120.501V120.958C59.8667 121.263 59.9734 121.507 60.1868 121.689C60.4103 121.862 60.7049 121.948 61.0707 121.948H61.9698ZM69.398 123.122C68.6564 123.122 68.0569 122.873 67.5998 122.375C67.1527 121.877 66.9292 121.222 66.9292 120.409V115.395H68.3465V120.44C68.3465 120.866 68.4532 121.212 68.6665 121.476C68.8799 121.74 69.1593 121.872 69.5047 121.872H70.4191C70.8458 121.872 71.2369 121.7 71.5925 121.354C71.9481 121.009 72.1818 120.572 72.2935 120.044V115.395H73.7108V123H72.3697V121.903C72.1259 122.258 71.8211 122.553 71.4554 122.787C71.0896 123.01 70.7289 123.122 70.3734 123.122H69.398ZM78.0252 123.122C77.1921 123.122 76.5165 122.853 75.9983 122.314C75.4903 121.776 75.2363 121.065 75.2363 120.181V118.382C75.2363 117.773 75.3583 117.234 75.6021 116.767C75.8459 116.29 76.1863 115.924 76.6231 115.67C77.0702 115.406 77.5832 115.274 78.1623 115.274H79.1986C79.5237 115.274 79.8438 115.35 80.1587 115.502C80.4737 115.655 80.7277 115.858 80.9207 116.112V112.332H82.3532V123H80.9969V121.918C80.7734 122.274 80.4788 122.563 80.113 122.787C79.7473 123.01 79.3815 123.122 79.0158 123.122H78.0252ZM79.0767 121.872C79.5542 121.872 79.9708 121.679 80.3264 121.293C80.6819 120.897 80.8801 120.43 80.9207 119.891V118.169C80.8496 117.671 80.6616 117.275 80.3568 116.98C80.0622 116.676 79.7066 116.523 79.2901 116.523H78.269C77.7915 116.523 77.4004 116.701 77.0956 117.057C76.8009 117.402 76.6536 117.864 76.6536 118.443V120.135C76.6536 120.653 76.7908 121.075 77.0651 121.4C77.3496 121.715 77.7051 121.872 78.1319 121.872H79.0767ZM86.558 123.122C85.8164 123.122 85.217 122.873 84.7598 122.375C84.3127 121.877 84.0892 121.222 84.0892 120.409V115.395H85.5065V120.44C85.5065 120.866 85.6132 121.212 85.8265 121.476C86.0399 121.74 86.3193 121.872 86.6647 121.872H87.5791C88.0058 121.872 88.3969 121.7 88.7525 121.354C89.1081 121.009 89.3418 120.572 89.4536 120.044V115.395H90.8708V123H89.5298V121.903C89.2859 122.258 88.9811 122.553 88.6154 122.787C88.2496 123.01 87.889 123.122 87.5334 123.122H86.558ZM94.9718 123C94.1692 123 93.5901 122.832 93.2345 122.497C92.8789 122.152 92.7011 121.598 92.7011 120.836V112.332H94.1184V120.79C94.1184 121.136 94.1895 121.385 94.3318 121.537C94.474 121.689 94.7077 121.766 95.0328 121.766H95.6424V123H94.9718ZM99.2899 123.122C98.3958 123.122 97.6745 122.868 97.1259 122.36C96.5874 121.842 96.3182 121.166 96.3182 120.333V118.23C96.3182 117.336 96.5874 116.62 97.1259 116.081C97.6745 115.543 98.3958 115.274 99.2899 115.274H100.54C101.403 115.274 102.099 115.538 102.627 116.066C103.156 116.594 103.42 117.295 103.42 118.169V119.602H97.7354V120.333C97.7354 120.8 97.8777 121.176 98.1621 121.461C98.4466 121.745 98.8225 121.888 99.2899 121.888H100.463C100.921 121.888 101.291 121.771 101.576 121.537C101.86 121.293 102.003 120.973 102.003 120.577H103.389C103.389 121.339 103.12 121.954 102.582 122.421C102.043 122.888 101.332 123.122 100.448 123.122H99.2899ZM102.003 118.474V118.169C102.003 117.661 101.865 117.255 101.591 116.95C101.327 116.645 100.976 116.493 100.54 116.493H99.2899C98.8225 116.493 98.4466 116.655 98.1621 116.98C97.8777 117.295 97.7354 117.717 97.7354 118.245V118.474H102.003ZM104.861 115.395H106.217V116.447C106.44 116.102 106.735 115.822 107.101 115.609C107.477 115.385 107.848 115.274 108.213 115.274H109.219C109.951 115.274 110.54 115.517 110.987 116.005C111.444 116.493 111.673 117.133 111.673 117.925V123H110.255V117.925C110.255 117.509 110.149 117.173 109.935 116.919C109.722 116.655 109.443 116.523 109.097 116.523H108.152C107.716 116.523 107.319 116.691 106.964 117.026C106.608 117.361 106.38 117.798 106.278 118.337V123H104.861V115.395ZM116.505 123C115.671 123 115.067 122.817 114.691 122.451C114.325 122.086 114.142 121.496 114.142 120.684V116.63H112.801V115.395H114.158V113.094H115.56V115.395H117.541V116.63H115.56V120.653C115.56 121.049 115.636 121.334 115.788 121.507C115.951 121.679 116.21 121.766 116.565 121.766H117.541V123H116.505ZM125.941 123C125.107 123 124.503 122.817 124.127 122.451C123.761 122.086 123.578 121.496 123.578 120.684V116.63H122.237V115.395H123.594V113.094H124.996V115.395H126.977V116.63H124.996V120.653C124.996 121.049 125.072 121.334 125.224 121.507C125.387 121.679 125.646 121.766 126.002 121.766H126.977V123H125.941ZM128.495 115.395H129.851V116.508C130.055 116.173 130.349 115.898 130.735 115.685C131.132 115.472 131.543 115.365 131.97 115.365H132.762V116.63H131.97C131.35 116.63 130.852 116.823 130.476 117.209C130.1 117.585 129.912 118.083 129.912 118.702V123H128.495V115.395ZM135.774 123.122C135.012 123.122 134.402 122.929 133.945 122.543C133.488 122.147 133.259 121.623 133.259 120.973V120.47C133.259 119.83 133.498 119.317 133.976 118.931C134.453 118.535 135.078 118.337 135.85 118.337H136.81C137.115 118.337 137.44 118.382 137.786 118.474C138.131 118.565 138.426 118.692 138.67 118.855V117.742C138.67 117.366 138.553 117.067 138.319 116.843C138.085 116.61 137.781 116.493 137.405 116.493H136.155C135.769 116.493 135.459 116.584 135.225 116.767C134.992 116.95 134.875 117.189 134.875 117.483H133.473C133.473 116.823 133.717 116.29 134.204 115.883C134.702 115.477 135.352 115.274 136.155 115.274H137.405C138.207 115.274 138.852 115.502 139.34 115.959C139.828 116.406 140.072 117.001 140.072 117.742V123H138.746V121.979C138.512 122.324 138.207 122.604 137.831 122.817C137.455 123.02 137.074 123.122 136.688 123.122H135.774ZM136.765 121.948C137.212 121.948 137.608 121.821 137.953 121.567C138.299 121.303 138.537 120.953 138.67 120.516V120.059C138.477 119.886 138.212 119.749 137.877 119.647C137.542 119.546 137.196 119.495 136.841 119.495H135.865C135.51 119.495 135.22 119.586 134.997 119.769C134.773 119.952 134.662 120.196 134.662 120.501V120.958C134.662 121.263 134.768 121.507 134.982 121.689C135.205 121.862 135.5 121.948 135.865 121.948H136.765ZM141.815 115.395H143.172V116.447C143.395 116.102 143.69 115.822 144.056 115.609C144.432 115.385 144.802 115.274 145.168 115.274H146.174C146.905 115.274 147.495 115.517 147.942 116.005C148.399 116.493 148.628 117.133 148.628 117.925V123H147.21V117.925C147.21 117.509 147.104 117.173 146.89 116.919C146.677 116.655 146.397 116.523 146.052 116.523H145.107C144.67 116.523 144.274 116.691 143.919 117.026C143.563 117.361 143.334 117.798 143.233 118.337V123H141.815V115.395ZM152.713 123.122C151.89 123.122 151.229 122.898 150.731 122.451C150.234 121.994 149.985 121.395 149.985 120.653H151.372C151.372 121.029 151.493 121.334 151.737 121.567C151.981 121.801 152.306 121.918 152.713 121.918H154.054C154.44 121.918 154.75 121.847 154.983 121.705C155.217 121.552 155.334 121.354 155.334 121.11V120.668C155.334 120.506 155.263 120.364 155.12 120.242C154.988 120.11 154.816 120.023 154.602 119.983L151.966 119.525C151.407 119.424 150.96 119.216 150.625 118.901C150.289 118.575 150.122 118.2 150.122 117.773V117.27C150.122 116.67 150.361 116.188 150.838 115.822C151.316 115.456 151.956 115.274 152.758 115.274H154.038C154.8 115.274 155.41 115.482 155.867 115.898C156.335 116.315 156.568 116.869 156.568 117.559H155.181C155.171 117.234 155.059 116.975 154.846 116.782C154.643 116.579 154.374 116.477 154.038 116.477H152.774C152.398 116.477 152.098 116.554 151.874 116.706C151.661 116.858 151.554 117.062 151.554 117.316V117.697C151.554 117.859 151.625 118.001 151.768 118.123C151.91 118.245 152.093 118.332 152.316 118.382L154.983 118.855C155.512 118.946 155.938 119.149 156.263 119.464C156.599 119.779 156.766 120.145 156.766 120.562V121.156C156.766 121.745 156.517 122.223 156.02 122.589C155.522 122.944 154.866 123.122 154.054 123.122H152.713ZM160.413 123.122C159.651 123.122 159.041 122.929 158.584 122.543C158.127 122.147 157.898 121.623 157.898 120.973V120.47C157.898 119.83 158.137 119.317 158.614 118.931C159.092 118.535 159.717 118.337 160.489 118.337H161.449C161.754 118.337 162.079 118.382 162.424 118.474C162.77 118.565 163.064 118.692 163.308 118.855V117.742C163.308 117.366 163.191 117.067 162.958 116.843C162.724 116.61 162.419 116.493 162.043 116.493H160.794C160.408 116.493 160.098 116.584 159.864 116.767C159.63 116.95 159.514 117.189 159.514 117.483H158.112C158.112 116.823 158.355 116.29 158.843 115.883C159.341 115.477 159.991 115.274 160.794 115.274H162.043C162.846 115.274 163.491 115.502 163.979 115.959C164.466 116.406 164.71 117.001 164.71 117.742V123H163.384V121.979C163.151 122.324 162.846 122.604 162.47 122.817C162.094 123.02 161.713 123.122 161.327 123.122H160.413ZM161.403 121.948C161.85 121.948 162.247 121.821 162.592 121.567C162.937 121.303 163.176 120.953 163.308 120.516V120.059C163.115 119.886 162.851 119.749 162.516 119.647C162.181 119.546 161.835 119.495 161.48 119.495H160.504C160.149 119.495 159.859 119.586 159.636 119.769C159.412 119.952 159.3 120.196 159.3 120.501V120.958C159.3 121.263 159.407 121.507 159.62 121.689C159.844 121.862 160.138 121.948 160.504 121.948H161.403ZM169.075 123.122C168.202 123.122 167.496 122.863 166.957 122.345C166.419 121.816 166.149 121.126 166.149 120.272V118.23C166.149 117.336 166.414 116.62 166.942 116.081C167.48 115.543 168.186 115.274 169.06 115.274H170.295C171.128 115.274 171.798 115.507 172.306 115.975C172.814 116.442 173.068 117.062 173.068 117.834H171.666C171.666 117.438 171.539 117.123 171.285 116.889C171.041 116.645 170.711 116.523 170.295 116.523H169.075C168.628 116.523 168.263 116.686 167.978 117.011C167.704 117.326 167.567 117.747 167.567 118.276V120.226C167.567 120.724 167.709 121.126 167.993 121.43C168.278 121.725 168.644 121.872 169.091 121.872H170.31C170.736 121.872 171.077 121.725 171.331 121.43C171.595 121.126 171.727 120.724 171.727 120.226H173.129C173.129 121.09 172.87 121.791 172.352 122.329C171.834 122.858 171.153 123.122 170.31 123.122H169.075ZM177.473 123C176.64 123 176.035 122.817 175.659 122.451C175.294 122.086 175.111 121.496 175.111 120.684V116.63H173.77V115.395H175.126V113.094H176.528V115.395H178.509V116.63H176.528V120.653C176.528 121.049 176.604 121.334 176.757 121.507C176.919 121.679 177.178 121.766 177.534 121.766H178.509V123H177.473ZM181.018 114.39C180.723 114.39 180.485 114.303 180.302 114.131C180.119 113.948 180.028 113.714 180.028 113.43C180.028 113.145 180.119 112.916 180.302 112.744C180.485 112.561 180.723 112.469 181.018 112.469C181.313 112.469 181.546 112.561 181.719 112.744C181.902 112.916 181.993 113.145 181.993 113.43C181.993 113.714 181.902 113.948 181.719 114.131C181.546 114.303 181.313 114.39 181.018 114.39ZM180.302 115.395H181.719V123H180.302V115.395ZM186.482 123.122C185.588 123.122 184.867 122.853 184.318 122.314C183.78 121.776 183.511 121.07 183.511 120.196V118.215C183.511 117.331 183.785 116.62 184.334 116.081C184.882 115.543 185.609 115.274 186.513 115.274H187.793C188.697 115.274 189.424 115.543 189.972 116.081C190.521 116.62 190.795 117.331 190.795 118.215V120.196C190.795 121.07 190.516 121.776 189.957 122.314C189.408 122.853 188.682 123.122 187.778 123.122H186.482ZM187.762 121.872C188.25 121.872 188.641 121.715 188.936 121.4C189.231 121.085 189.378 120.663 189.378 120.135V118.26C189.378 117.732 189.231 117.311 188.936 116.996C188.651 116.681 188.27 116.523 187.793 116.523H186.513C186.035 116.523 185.649 116.681 185.355 116.996C185.07 117.311 184.928 117.732 184.928 118.26V120.135C184.928 120.663 185.07 121.085 185.355 121.4C185.639 121.715 186.02 121.872 186.498 121.872H187.762ZM192.321 115.395H193.677V116.447C193.901 116.102 194.195 115.822 194.561 115.609C194.937 115.385 195.308 115.274 195.674 115.274H196.68C197.411 115.274 198 115.517 198.447 116.005C198.904 116.493 199.133 117.133 199.133 117.925V123H197.716V117.925C197.716 117.509 197.609 117.173 197.396 116.919C197.182 116.655 196.903 116.523 196.558 116.523H195.613C195.176 116.523 194.78 116.691 194.424 117.026C194.068 117.361 193.84 117.798 193.738 118.337V123H192.321V115.395ZM203.218 123.122C202.395 123.122 201.735 122.898 201.237 122.451C200.739 121.994 200.49 121.395 200.49 120.653H201.877C201.877 121.029 201.999 121.334 202.243 121.567C202.487 121.801 202.812 121.918 203.218 121.918H204.559C204.945 121.918 205.255 121.847 205.489 121.705C205.722 121.552 205.839 121.354 205.839 121.11V120.668C205.839 120.506 205.768 120.364 205.626 120.242C205.494 120.11 205.321 120.023 205.108 119.983L202.471 119.525C201.913 119.424 201.466 119.216 201.13 118.901C200.795 118.575 200.627 118.2 200.627 117.773V117.27C200.627 116.67 200.866 116.188 201.344 115.822C201.821 115.456 202.461 115.274 203.264 115.274H204.544C205.306 115.274 205.916 115.482 206.373 115.898C206.84 116.315 207.074 116.869 207.074 117.559H205.687C205.677 117.234 205.565 116.975 205.352 116.782C205.148 116.579 204.879 116.477 204.544 116.477H203.279C202.903 116.477 202.603 116.554 202.38 116.706C202.167 116.858 202.06 117.062 202.06 117.316V117.697C202.06 117.859 202.131 118.001 202.273 118.123C202.415 118.245 202.598 118.332 202.822 118.382L205.489 118.855C206.017 118.946 206.444 119.149 206.769 119.464C207.104 119.779 207.272 120.145 207.272 120.562V121.156C207.272 121.745 207.023 122.223 206.525 122.589C206.027 122.944 205.372 123.122 204.559 123.122H203.218Z" fill="#F2F2F2"/>
<rect x="74.4102" y="176.281" width="147.008" height="45.7188" rx="11.8111" fill="#1C1C1C"/>
<rect x="75.0007" y="176.872" width="145.827" height="44.5376" rx="11.2205" stroke="#EBEAE7" stroke-opacity="0.15" stroke-width="1.18111"/>
<path d="M103.328 198.937H100.536C100.201 198.937 99.9238 198.659 99.9238 198.324V192.618C99.9238 192.013 100.161 191.45 100.585 191.026C101.01 190.601 101.573 190.364 102.177 190.364H102.185C103.206 190.372 104.169 190.772 104.904 191.499C105.639 192.242 106.039 193.222 106.039 194.242V196.218C106.047 197.843 104.953 198.937 103.328 198.937ZM101.148 197.712H103.328C104.275 197.712 104.822 197.165 104.822 196.218V194.242C104.822 193.54 104.545 192.871 104.047 192.364C103.549 191.875 102.879 191.597 102.185 191.589C102.185 191.589 102.185 191.589 102.177 191.589C101.908 191.589 101.646 191.695 101.451 191.891C101.255 192.087 101.148 192.34 101.148 192.618V197.712V197.712Z" fill="#F2F2F2"/>
<path d="M94.8193 208.391C94.4356 208.391 94.0764 208.244 93.807 207.966L92.4518 206.603C92.3783 206.529 92.264 206.521 92.1823 206.586L90.7781 207.631C90.3454 207.958 89.7739 208.015 89.2841 207.77C88.7943 207.525 88.4922 207.035 88.4922 206.488V194.242C88.4922 191.777 89.9046 190.364 92.3701 190.364H102.167C102.502 190.364 102.779 190.642 102.779 190.977C102.779 191.311 102.502 191.589 102.167 191.589C101.604 191.589 101.146 192.046 101.146 192.609V206.488C101.146 207.035 100.844 207.525 100.355 207.77C99.8647 208.015 99.2932 207.966 98.8605 207.639L97.4645 206.594C97.3829 206.529 97.2686 206.545 97.2032 206.611L95.8317 207.982C95.5623 208.244 95.203 208.391 94.8193 208.391ZM92.2966 205.321C92.6722 205.321 93.0396 205.46 93.3171 205.745L94.6724 207.109C94.7214 207.158 94.7867 207.166 94.8193 207.166C94.852 207.166 94.9173 207.158 94.9663 207.109L96.3379 205.737C96.844 205.231 97.6441 205.182 98.2074 205.615L99.5953 206.652C99.6851 206.717 99.7668 206.692 99.8076 206.668C99.8484 206.643 99.9219 206.594 99.9219 206.488V192.609C99.9219 192.242 100.012 191.891 100.167 191.589H92.3701C90.5577 191.589 89.7168 192.43 89.7168 194.242V206.488C89.7168 206.603 89.7903 206.652 89.8311 206.676C89.8801 206.701 89.9617 206.717 90.0434 206.652L91.4394 205.607C91.6925 205.419 91.9946 205.321 92.2966 205.321Z" fill="#F2F2F2"/>
<path d="M97.2705 200.578H94.8213C94.4866 200.578 94.209 200.3 94.209 199.965C94.209 199.631 94.4866 199.353 94.8213 199.353H97.2705C97.6052 199.353 97.8828 199.631 97.8828 199.965C97.8828 200.3 97.6052 200.578 97.2705 200.578Z" fill="#F2F2F2"/>
<path d="M97.2705 197.312H94.8213C94.4866 197.312 94.209 197.034 94.209 196.7C94.209 196.365 94.4866 196.087 94.8213 196.087H97.2705C97.6052 196.087 97.8828 196.365 97.8828 196.7C97.8828 197.034 97.6052 197.312 97.2705 197.312Z" fill="#F2F2F2"/>
<path d="M92.3457 197.516C91.8967 197.516 91.5293 197.149 91.5293 196.7C91.5293 196.251 91.8967 195.883 92.3457 195.883C92.7947 195.883 93.1621 196.251 93.1621 196.7C93.1621 197.149 92.7947 197.516 92.3457 197.516Z" fill="#F2F2F2"/>
<path d="M92.3457 200.781C91.8967 200.781 91.5293 200.414 91.5293 199.965C91.5293 199.516 91.8967 199.148 92.3457 199.148C92.7947 199.148 93.1621 199.516 93.1621 199.965C93.1621 200.414 92.7947 200.781 92.3457 200.781Z" fill="#F2F2F2"/>
<path d="M125.401 204.641C124.568 204.641 123.963 204.458 123.587 204.092C123.221 203.726 123.039 203.137 123.039 202.324V198.27H121.697V197.036H123.054V194.735H124.456V197.036H126.437V198.27H124.456V202.294C124.456 202.69 124.532 202.974 124.684 203.147C124.847 203.32 125.106 203.406 125.462 203.406H126.437V204.641H125.401ZM127.955 197.036H129.311V198.149C129.515 197.813 129.809 197.539 130.195 197.326C130.592 197.112 131.003 197.006 131.43 197.006H132.222V198.27H131.43C130.81 198.27 130.312 198.464 129.936 198.85C129.56 199.225 129.372 199.723 129.372 200.343V204.641H127.955V197.036ZM135.234 204.763C134.472 204.763 133.863 204.57 133.405 204.183C132.948 203.787 132.72 203.264 132.72 202.614V202.111C132.72 201.471 132.958 200.958 133.436 200.572C133.913 200.175 134.538 199.977 135.31 199.977H136.27C136.575 199.977 136.9 200.023 137.246 200.114C137.591 200.206 137.886 200.333 138.13 200.495V199.383C138.13 199.007 138.013 198.707 137.779 198.484C137.545 198.25 137.241 198.133 136.865 198.133H135.615C135.229 198.133 134.919 198.225 134.685 198.408C134.452 198.591 134.335 198.829 134.335 199.124H132.933C132.933 198.464 133.177 197.93 133.664 197.524C134.162 197.117 134.812 196.914 135.615 196.914H136.865C137.667 196.914 138.312 197.143 138.8 197.6C139.288 198.047 139.532 198.641 139.532 199.383V204.641H138.206V203.62C137.972 203.965 137.667 204.244 137.291 204.458C136.916 204.661 136.535 204.763 136.148 204.763H135.234ZM136.225 203.589C136.672 203.589 137.068 203.462 137.413 203.208C137.759 202.944 137.998 202.593 138.13 202.157V201.699C137.937 201.527 137.672 201.39 137.337 201.288C137.002 201.186 136.656 201.136 136.301 201.136H135.326C134.97 201.136 134.68 201.227 134.457 201.41C134.233 201.593 134.122 201.837 134.122 202.141V202.599C134.122 202.903 134.228 203.147 134.442 203.33C134.665 203.503 134.96 203.589 135.326 203.589H136.225ZM141.276 197.036H142.632V198.088C142.855 197.742 143.15 197.463 143.516 197.249C143.892 197.026 144.262 196.914 144.628 196.914H145.634C146.366 196.914 146.955 197.158 147.402 197.646C147.859 198.133 148.088 198.773 148.088 199.566V204.641H146.67V199.566C146.67 199.149 146.564 198.814 146.35 198.56C146.137 198.296 145.858 198.164 145.512 198.164H144.567C144.13 198.164 143.734 198.331 143.379 198.667C143.023 199.002 142.794 199.439 142.693 199.977V204.641H141.276V197.036ZM152.173 204.763C151.35 204.763 150.689 204.539 150.192 204.092C149.694 203.635 149.445 203.035 149.445 202.294H150.832C150.832 202.67 150.953 202.974 151.197 203.208C151.441 203.442 151.766 203.559 152.173 203.559H153.514C153.9 203.559 154.21 203.487 154.443 203.345C154.677 203.193 154.794 202.995 154.794 202.751V202.309C154.794 202.146 154.723 202.004 154.581 201.882C154.448 201.75 154.276 201.664 154.062 201.623L151.426 201.166C150.867 201.064 150.42 200.856 150.085 200.541C149.75 200.216 149.582 199.84 149.582 199.413V198.911C149.582 198.311 149.821 197.829 150.298 197.463C150.776 197.097 151.416 196.914 152.218 196.914H153.499C154.26 196.914 154.87 197.122 155.327 197.539C155.795 197.956 156.028 198.509 156.028 199.2H154.641C154.631 198.875 154.52 198.616 154.306 198.423C154.103 198.22 153.834 198.118 153.499 198.118H152.234C151.858 198.118 151.558 198.194 151.334 198.347C151.121 198.499 151.014 198.702 151.014 198.956V199.337C151.014 199.5 151.086 199.642 151.228 199.764C151.37 199.886 151.553 199.972 151.776 200.023L154.443 200.495C154.972 200.587 155.398 200.79 155.723 201.105C156.059 201.42 156.226 201.786 156.226 202.202V202.797C156.226 203.386 155.977 203.863 155.48 204.229C154.982 204.585 154.327 204.763 153.514 204.763H152.173ZM159.873 204.763C159.111 204.763 158.501 204.57 158.044 204.183C157.587 203.787 157.358 203.264 157.358 202.614V202.111C157.358 201.471 157.597 200.958 158.075 200.572C158.552 200.175 159.177 199.977 159.949 199.977H160.909C161.214 199.977 161.539 200.023 161.884 200.114C162.23 200.206 162.525 200.333 162.768 200.495V199.383C162.768 199.007 162.651 198.707 162.418 198.484C162.184 198.25 161.879 198.133 161.503 198.133H160.254C159.868 198.133 159.558 198.225 159.324 198.408C159.091 198.591 158.974 198.829 158.974 199.124H157.572C157.572 198.464 157.815 197.93 158.303 197.524C158.801 197.117 159.451 196.914 160.254 196.914H161.503C162.306 196.914 162.951 197.143 163.439 197.6C163.927 198.047 164.17 198.641 164.17 199.383V204.641H162.845V203.62C162.611 203.965 162.306 204.244 161.93 204.458C161.554 204.661 161.173 204.763 160.787 204.763H159.873ZM160.863 203.589C161.31 203.589 161.707 203.462 162.052 203.208C162.398 202.944 162.636 202.593 162.768 202.157V201.699C162.575 201.527 162.311 201.39 161.976 201.288C161.641 201.186 161.295 201.136 160.94 201.136H159.964C159.609 201.136 159.319 201.227 159.096 201.41C158.872 201.593 158.76 201.837 158.76 202.141V202.599C158.76 202.903 158.867 203.147 159.08 203.33C159.304 203.503 159.599 203.589 159.964 203.589H160.863ZM168.535 204.763C167.662 204.763 166.956 204.503 166.417 203.985C165.879 203.457 165.609 202.766 165.609 201.913V199.871C165.609 198.977 165.874 198.26 166.402 197.722C166.94 197.183 167.646 196.914 168.52 196.914H169.755C170.588 196.914 171.258 197.148 171.766 197.615C172.274 198.083 172.528 198.702 172.528 199.474H171.126C171.126 199.078 170.999 198.763 170.745 198.53C170.501 198.286 170.171 198.164 169.755 198.164H168.535C168.088 198.164 167.723 198.326 167.438 198.651C167.164 198.966 167.027 199.388 167.027 199.916V201.867C167.027 202.365 167.169 202.766 167.453 203.071C167.738 203.366 168.104 203.513 168.551 203.513H169.77C170.197 203.513 170.537 203.366 170.791 203.071C171.055 202.766 171.187 202.365 171.187 201.867H172.589C172.589 202.731 172.33 203.432 171.812 203.97C171.294 204.498 170.613 204.763 169.77 204.763H168.535ZM176.933 204.641C176.1 204.641 175.495 204.458 175.12 204.092C174.754 203.726 174.571 203.137 174.571 202.324V198.27H173.23V197.036H174.586V194.735H175.988V197.036H177.969V198.27H175.988V202.294C175.988 202.69 176.064 202.974 176.217 203.147C176.379 203.32 176.638 203.406 176.994 203.406H177.969V204.641H176.933ZM180.478 196.03C180.184 196.03 179.945 195.944 179.762 195.771C179.579 195.588 179.488 195.355 179.488 195.07C179.488 194.786 179.579 194.557 179.762 194.384C179.945 194.202 180.184 194.11 180.478 194.11C180.773 194.11 181.006 194.202 181.179 194.384C181.362 194.557 181.453 194.786 181.453 195.07C181.453 195.355 181.362 195.588 181.179 195.771C181.006 195.944 180.773 196.03 180.478 196.03ZM179.762 197.036H181.179V204.641H179.762V197.036ZM185.942 204.763C185.048 204.763 184.327 204.493 183.778 203.955C183.24 203.416 182.971 202.71 182.971 201.837V199.855C182.971 198.971 183.245 198.26 183.794 197.722C184.342 197.183 185.069 196.914 185.973 196.914H187.253C188.157 196.914 188.884 197.183 189.432 197.722C189.981 198.26 190.255 198.971 190.255 199.855V201.837C190.255 202.71 189.976 203.416 189.417 203.955C188.868 204.493 188.142 204.763 187.238 204.763H185.942ZM187.223 203.513C187.71 203.513 188.101 203.355 188.396 203.04C188.691 202.726 188.838 202.304 188.838 201.776V199.901C188.838 199.373 188.691 198.951 188.396 198.636C188.111 198.321 187.73 198.164 187.253 198.164H185.973C185.495 198.164 185.109 198.321 184.815 198.636C184.53 198.951 184.388 199.373 184.388 199.901V201.776C184.388 202.304 184.53 202.726 184.815 203.04C185.099 203.355 185.48 203.513 185.958 203.513H187.223ZM191.781 197.036H193.137V198.088C193.361 197.742 193.656 197.463 194.021 197.249C194.397 197.026 194.768 196.914 195.134 196.914H196.14C196.871 196.914 197.46 197.158 197.907 197.646C198.365 198.133 198.593 198.773 198.593 199.566V204.641H197.176V199.566C197.176 199.149 197.069 198.814 196.856 198.56C196.642 198.296 196.363 198.164 196.018 198.164H195.073C194.636 198.164 194.24 198.331 193.884 198.667C193.529 199.002 193.3 199.439 193.198 199.977V204.641H191.781V197.036ZM202.678 204.763C201.855 204.763 201.195 204.539 200.697 204.092C200.199 203.635 199.95 203.035 199.95 202.294H201.337C201.337 202.67 201.459 202.974 201.703 203.208C201.947 203.442 202.272 203.559 202.678 203.559H204.019C204.405 203.559 204.715 203.487 204.949 203.345C205.183 203.193 205.299 202.995 205.299 202.751V202.309C205.299 202.146 205.228 202.004 205.086 201.882C204.954 201.75 204.781 201.664 204.568 201.623L201.931 201.166C201.373 201.064 200.926 200.856 200.59 200.541C200.255 200.216 200.087 199.84 200.087 199.413V198.911C200.087 198.311 200.326 197.829 200.804 197.463C201.281 197.097 201.921 196.914 202.724 196.914H204.004C204.766 196.914 205.376 197.122 205.833 197.539C206.3 197.956 206.534 198.509 206.534 199.2H205.147C205.137 198.875 205.025 198.616 204.812 198.423C204.609 198.22 204.339 198.118 204.004 198.118H202.739C202.363 198.118 202.064 198.194 201.84 198.347C201.627 198.499 201.52 198.702 201.52 198.956V199.337C201.52 199.5 201.591 199.642 201.733 199.764C201.876 199.886 202.058 199.972 202.282 200.023L204.949 200.495C205.477 200.587 205.904 200.79 206.229 201.105C206.564 201.42 206.732 201.786 206.732 202.202V202.797C206.732 203.386 206.483 203.863 205.985 204.229C205.487 204.585 204.832 204.763 204.019 204.763H202.678Z" fill="#F2F2F2"/>
<path d="M221.81 40.6631V40.6631C261.881 40.6631 294.365 73.1469 294.365 113.218V116.716M294.365 116.716H221.81M294.365 116.716V121.39C294.365 161.678 261.705 194.337 221.418 194.337V194.337M294.365 116.716H371.202" stroke="#F2F2F2" stroke-width="0.784051"/>
<path d="M382.589 127.04C379.076 127.04 376.246 124.339 376.246 120.987V114.996H371.203V110.96H376.246V106.925H380.475V110.96H386.493V114.996H380.475V120.987C380.475 122.135 381.386 123.005 382.589 123.005H386.493V127.04H382.589Z" fill="white"/>
<path d="M404.52 116.951V119.497H393.459V120.956C393.459 122.073 394.402 122.973 395.574 122.973H398.176C399.347 122.973 400.291 122.073 400.291 120.956V120.645H404.52V120.956C404.52 124.308 401.69 127.04 398.176 127.04H395.574C392.093 127.04 389.23 124.277 389.23 120.956V117.013C389.23 113.692 392.093 110.96 395.574 110.96H398.176C401.657 110.96 404.487 113.63 404.52 116.951ZM393.459 117.479H400.291V117.013C400.291 115.896 399.38 114.996 398.176 114.996H395.574C394.37 114.996 393.459 115.927 393.459 117.013V117.479Z" fill="white"/>
<path d="M407.448 110.96H411.677V112.947L414.019 110.96H414.117C416.036 110.96 417.142 111.767 417.696 113.319L420.461 110.96H420.558C423.454 110.96 424.527 112.792 424.527 116.393V127.04H420.298V116.486L418.086 118.379V127.04H413.857V116.486L411.677 118.348V127.04H407.448V110.96Z" fill="white"/>
<path d="M428.225 105H432.454V112.605L435.024 110.96H437.171C440.652 110.96 443.515 113.692 443.515 117.013V120.987C443.515 124.308 440.652 127.04 437.171 127.04H435.024L432.454 125.395V127.04H428.225V105ZM432.454 120.521L436.325 123.005H437.171C438.342 123.005 439.286 122.104 439.286 120.987V117.013C439.286 115.927 438.342 114.996 437.171 114.996H436.325L432.454 117.479V120.521Z" fill="white"/>
<path d="M455.198 122.973C456.369 122.973 457.313 122.073 457.313 120.956V117.013C457.313 115.896 456.402 114.996 455.198 114.996H452.595C451.392 114.996 450.481 115.896 450.481 117.013V120.956C450.481 122.073 451.424 122.973 452.595 122.973H455.198ZM446.252 120.956V117.013C446.252 113.692 449.114 110.96 452.595 110.96H455.198C458.711 110.96 461.542 113.661 461.542 117.013V120.956C461.542 124.339 458.711 127.04 455.198 127.04H452.595C449.114 127.04 446.252 124.308 446.252 120.956Z" fill="white"/>
<path d="M472.744 126H468.115L474.127 108.182H479.861L485.873 126H481.244L477.059 112.671H476.92L472.744 126ZM472.126 118.988H481.801V122.259H472.126V118.988ZM492.098 108.182V126H487.791V108.182H492.098Z" fill="white"/>
</svg>
