<svg width="414" height="248" viewBox="0 0 414 248" fill="none" xmlns="http://www.w3.org/2000/svg">
<g clip-path="url(#clip0_5426_3554)">
<rect x="128.977" y="68.7085" width="156" height="69.5166" rx="13.8389" fill="#1C1C1C"/>
<path d="M118.482 96.9047H125.632C126.42 96.9047 127.117 97.0597 127.724 97.3697C128.331 97.6668 128.803 98.0995 129.138 98.6678C129.474 99.2232 129.642 99.8625 129.642 100.586V102.388C129.642 103.137 129.468 103.802 129.119 104.383C128.77 104.952 128.279 105.397 127.647 105.72C127.027 106.03 126.303 106.185 125.477 106.185H121.156V110.467H118.482V96.9047ZM125.438 103.86C125.89 103.86 126.258 103.718 126.542 103.434C126.826 103.137 126.968 102.749 126.968 102.271V100.702C126.968 100.25 126.839 99.8948 126.581 99.6365C126.336 99.3653 126.006 99.2296 125.593 99.2296H121.156V103.86H125.438ZM134.301 110.622C133.488 110.622 132.764 110.473 132.131 110.176C131.511 109.866 131.027 109.44 130.678 108.897C130.33 108.342 130.155 107.709 130.155 106.999V104.499C130.155 103.737 130.33 103.066 130.678 102.485C131.027 101.903 131.511 101.451 132.131 101.128C132.764 100.805 133.488 100.644 134.301 100.644H135.851C137.091 100.644 138.086 100.993 138.835 101.69C139.584 102.388 139.959 103.318 139.959 104.48V106.534H132.79V106.999C132.79 107.425 132.926 107.767 133.197 108.026C133.468 108.284 133.836 108.413 134.301 108.413H135.813C136.265 108.413 136.626 108.316 136.898 108.122C137.182 107.916 137.324 107.651 137.324 107.328H139.92C139.92 107.974 139.746 108.549 139.397 109.052C139.048 109.556 138.557 109.944 137.924 110.215C137.304 110.486 136.588 110.622 135.774 110.622H134.301ZM137.363 104.635V104.48C137.363 103.976 137.227 103.576 136.956 103.279C136.684 102.969 136.323 102.814 135.871 102.814H134.301C133.836 102.814 133.462 102.975 133.178 103.298C132.893 103.621 132.751 104.047 132.751 104.577V104.635H137.363ZM141.356 100.799H143.797V102.039C144.043 101.664 144.391 101.361 144.843 101.128C145.308 100.883 145.793 100.76 146.297 100.76H147.614V103.046H146.297C145.612 103.046 145.057 103.253 144.63 103.666C144.204 104.08 143.991 104.609 143.991 105.255V110.467H141.356V100.799ZM151.815 110.622C150.639 110.622 149.696 110.312 148.986 109.692C148.276 109.072 147.92 108.258 147.92 107.251H150.517C150.517 107.599 150.633 107.884 150.865 108.103C151.111 108.31 151.427 108.413 151.815 108.413H153.558C154.333 108.413 154.721 108.2 154.721 107.774V107.444C154.721 107.315 154.656 107.199 154.527 107.096C154.398 106.979 154.223 106.902 154.004 106.863L150.652 106.282C149.864 106.153 149.238 105.875 148.773 105.449C148.321 105.01 148.095 104.499 148.095 103.918V103.279C148.095 102.452 148.431 101.806 149.102 101.341C149.787 100.876 150.736 100.644 151.95 100.644H153.461C154.546 100.644 155.418 100.935 156.077 101.516C156.749 102.084 157.084 102.84 157.084 103.783H154.488C154.488 103.498 154.391 103.272 154.198 103.105C154.017 102.937 153.771 102.853 153.461 102.853H151.989C151.149 102.853 150.73 103.046 150.73 103.434V103.744C150.73 103.886 150.781 104.009 150.885 104.112C151.001 104.202 151.162 104.267 151.369 104.306L154.895 104.945C155.631 105.074 156.226 105.352 156.678 105.778C157.13 106.192 157.356 106.663 157.356 107.193V107.89C157.356 108.73 157.007 109.395 156.309 109.886C155.625 110.376 154.708 110.622 153.558 110.622H151.815ZM162.37 110.622C161.557 110.622 160.833 110.467 160.2 110.157C159.58 109.834 159.096 109.382 158.747 108.801C158.411 108.219 158.244 107.548 158.244 106.786V104.519C158.244 103.757 158.418 103.085 158.767 102.504C159.115 101.91 159.6 101.451 160.22 101.128C160.853 100.805 161.576 100.644 162.39 100.644H164.133C164.947 100.644 165.664 100.805 166.284 101.128C166.917 101.451 167.408 101.91 167.756 102.504C168.105 103.085 168.28 103.757 168.28 104.519V106.786C168.28 107.548 168.105 108.219 167.756 108.801C167.408 109.382 166.917 109.834 166.284 110.157C165.664 110.467 164.941 110.622 164.114 110.622H162.37ZM164.075 108.355C164.553 108.355 164.934 108.194 165.218 107.871C165.503 107.535 165.645 107.102 165.645 106.573V104.693C165.645 104.164 165.503 103.737 165.218 103.415C164.934 103.079 164.56 102.911 164.095 102.911H162.428C161.963 102.911 161.589 103.079 161.305 103.415C161.021 103.737 160.878 104.164 160.878 104.693V106.573C160.878 107.102 161.021 107.535 161.305 107.871C161.589 108.194 161.957 108.355 162.409 108.355H164.075ZM169.747 100.799H172.188V101.961C172.472 101.561 172.841 101.245 173.293 101.012C173.745 100.767 174.197 100.644 174.649 100.644H175.811C176.845 100.644 177.671 100.967 178.291 101.613C178.924 102.259 179.241 103.111 179.241 104.17V110.467H176.606V104.267C176.606 103.867 176.496 103.544 176.276 103.298C176.07 103.053 175.798 102.93 175.463 102.93H174.3C173.848 102.93 173.441 103.098 173.08 103.434C172.731 103.757 172.498 104.183 172.382 104.713V110.467H169.747V100.799ZM184.038 110.622C183.03 110.622 182.217 110.37 181.597 109.866C180.977 109.362 180.667 108.697 180.667 107.871V107.154C180.667 106.34 180.99 105.688 181.635 105.197C182.281 104.693 183.134 104.441 184.193 104.441H185.375C185.711 104.441 186.072 104.487 186.46 104.577C186.847 104.667 187.202 104.79 187.525 104.945V103.938C187.525 103.615 187.415 103.356 187.196 103.163C186.989 102.956 186.712 102.853 186.363 102.853H184.697C184.335 102.853 184.044 102.937 183.825 103.105C183.605 103.272 183.495 103.498 183.495 103.783H180.938C180.938 102.84 181.28 102.084 181.965 101.516C182.662 100.935 183.573 100.644 184.697 100.644H186.363C187.499 100.644 188.416 100.948 189.114 101.555C189.811 102.149 190.16 102.943 190.16 103.938V110.467H187.719V109.304C187.409 109.705 187.028 110.028 186.576 110.273C186.124 110.506 185.678 110.622 185.239 110.622H184.038ZM185.433 108.607C185.911 108.607 186.337 108.484 186.712 108.239C187.086 107.993 187.357 107.664 187.525 107.251V106.921C187.319 106.766 187.028 106.644 186.653 106.553C186.292 106.463 185.904 106.418 185.491 106.418H184.27C183.96 106.418 183.709 106.495 183.515 106.65C183.321 106.805 183.224 107.012 183.224 107.27V107.774C183.224 108.019 183.327 108.219 183.534 108.374C183.754 108.529 184.038 108.607 184.387 108.607H185.433ZM195.236 110.467C194.086 110.467 193.24 110.228 192.698 109.75C192.168 109.259 191.904 108.504 191.904 107.483V96.9047H194.538V107.328C194.538 107.638 194.61 107.864 194.752 108.006C194.894 108.148 195.12 108.219 195.43 108.219H196.476V110.467H195.236ZM198.915 99.8884C198.411 99.8884 198.005 99.7463 197.695 99.4621C197.397 99.1651 197.249 98.7776 197.249 98.2997C197.249 97.8218 197.397 97.4407 197.695 97.1566C198.005 96.8595 198.411 96.711 198.915 96.711C199.419 96.711 199.819 96.8595 200.116 97.1566C200.426 97.4407 200.581 97.8218 200.581 98.2997C200.581 98.7776 200.426 99.1651 200.116 99.4621C199.819 99.7463 199.419 99.8884 198.915 99.8884ZM197.598 100.799H200.233V110.467H197.598V100.799ZM211.861 110.467C210.724 110.467 209.891 110.208 209.361 109.692C208.832 109.175 208.567 108.374 208.567 107.289V103.046H206.862V100.799H208.644V97.8734H211.202V100.799H213.721V103.046H211.202V107.173C211.202 107.535 211.266 107.8 211.396 107.967C211.538 108.135 211.757 108.219 212.054 108.219H213.721V110.467H211.861ZM218.633 110.622C217.819 110.622 217.095 110.467 216.463 110.157C215.843 109.834 215.358 109.382 215.01 108.801C214.674 108.219 214.506 107.548 214.506 106.786V104.519C214.506 103.757 214.68 103.085 215.029 102.504C215.378 101.91 215.862 101.451 216.482 101.128C217.115 100.805 217.838 100.644 218.652 100.644H220.396C221.209 100.644 221.926 100.805 222.546 101.128C223.179 101.451 223.67 101.91 224.019 102.504C224.367 103.085 224.542 103.757 224.542 104.519V106.786C224.542 107.548 224.367 108.219 224.019 108.801C223.67 109.382 223.179 109.834 222.546 110.157C221.926 110.467 221.203 110.622 220.376 110.622H218.633ZM220.337 108.355C220.815 108.355 221.196 108.194 221.481 107.871C221.765 107.535 221.907 107.102 221.907 106.573V104.693C221.907 104.164 221.765 103.737 221.481 103.415C221.196 103.079 220.822 102.911 220.357 102.911H218.691C218.226 102.911 217.851 103.079 217.567 103.415C217.283 103.737 217.141 104.164 217.141 104.693V106.573C217.141 107.102 217.283 107.535 217.567 107.871C217.851 108.194 218.219 108.355 218.671 108.355H220.337ZM235.427 110.467C234.29 110.467 233.457 110.208 232.928 109.692C232.398 109.175 232.133 108.374 232.133 107.289V103.046H230.428V100.799H232.211V97.8734H234.768V100.799H237.287V103.046H234.768V107.173C234.768 107.535 234.833 107.8 234.962 107.967C235.104 108.135 235.324 108.219 235.621 108.219H237.287V110.467H235.427ZM238.762 100.799H241.204V102.039C241.449 101.664 241.798 101.361 242.25 101.128C242.715 100.883 243.199 100.76 243.703 100.76H245.02V103.046H243.703C243.018 103.046 242.463 103.253 242.037 103.666C241.61 104.08 241.397 104.609 241.397 105.255V110.467H238.762V100.799ZM248.55 110.622C247.543 110.622 246.729 110.37 246.109 109.866C245.489 109.362 245.179 108.697 245.179 107.871V107.154C245.179 106.34 245.502 105.688 246.148 105.197C246.793 104.693 247.646 104.441 248.705 104.441H249.887C250.223 104.441 250.584 104.487 250.972 104.577C251.359 104.667 251.715 104.79 252.037 104.945V103.938C252.037 103.615 251.928 103.356 251.708 103.163C251.501 102.956 251.224 102.853 250.875 102.853H249.209C248.847 102.853 248.557 102.937 248.337 103.105C248.117 103.272 248.008 103.498 248.008 103.783H245.45C245.45 102.84 245.792 102.084 246.477 101.516C247.174 100.935 248.085 100.644 249.209 100.644H250.875C252.012 100.644 252.929 100.948 253.626 101.555C254.324 102.149 254.672 102.943 254.672 103.938V110.467H252.231V109.304C251.921 109.705 251.54 110.028 251.088 110.273C250.636 110.506 250.19 110.622 249.751 110.622H248.55ZM249.945 108.607C250.423 108.607 250.849 108.484 251.224 108.239C251.598 107.993 251.87 107.664 252.037 107.251V106.921C251.831 106.766 251.54 106.644 251.166 106.553C250.804 106.463 250.416 106.418 250.003 106.418H248.783C248.473 106.418 248.221 106.495 248.027 106.65C247.833 106.805 247.736 107.012 247.736 107.27V107.774C247.736 108.019 247.84 108.219 248.046 108.374C248.266 108.529 248.55 108.607 248.899 108.607H249.945ZM260.099 110.467C259.724 110.467 259.408 110.37 259.149 110.176C258.904 109.97 258.691 109.647 258.51 109.207L255.178 100.799H257.948L260.234 107.444H260.273L262.579 100.799H265.349L261.455 110.467H260.099ZM269.588 110.622C268.774 110.622 268.051 110.473 267.418 110.176C266.798 109.866 266.313 109.44 265.965 108.897C265.616 108.342 265.442 107.709 265.442 106.999V104.499C265.442 103.737 265.616 103.066 265.965 102.485C266.313 101.903 266.798 101.451 267.418 101.128C268.051 100.805 268.774 100.644 269.588 100.644H271.138C272.378 100.644 273.372 100.993 274.121 101.69C274.87 102.388 275.245 103.318 275.245 104.48V106.534H268.076V106.999C268.076 107.425 268.212 107.767 268.483 108.026C268.755 108.284 269.123 108.413 269.588 108.413H271.099C271.551 108.413 271.913 108.316 272.184 108.122C272.468 107.916 272.61 107.651 272.61 107.328H275.206C275.206 107.974 275.032 108.549 274.683 109.052C274.334 109.556 273.844 109.944 273.211 110.215C272.591 110.486 271.874 110.622 271.06 110.622H269.588ZM272.649 104.635V104.48C272.649 103.976 272.513 103.576 272.242 103.279C271.971 102.969 271.609 102.814 271.157 102.814H269.588C269.123 102.814 268.748 102.975 268.464 103.298C268.18 103.621 268.038 104.047 268.038 104.577V104.635H272.649ZM279.975 110.467C278.825 110.467 277.979 110.228 277.437 109.75C276.907 109.259 276.642 108.504 276.642 107.483V96.9047H279.277V107.328C279.277 107.638 279.348 107.864 279.49 108.006C279.632 108.148 279.859 108.219 280.169 108.219H281.215V110.467H279.975ZM285.746 110.622C284.933 110.622 284.209 110.473 283.576 110.176C282.956 109.866 282.472 109.44 282.123 108.897C281.775 108.342 281.6 107.709 281.6 106.999V104.499C281.6 103.737 281.775 103.066 282.123 102.485C282.472 101.903 282.956 101.451 283.576 101.128C284.209 100.805 284.933 100.644 285.746 100.644H287.296C288.536 100.644 289.531 100.993 290.28 101.69C291.029 102.388 291.404 103.318 291.404 104.48V106.534H284.235V106.999C284.235 107.425 284.371 107.767 284.642 108.026C284.913 108.284 285.281 108.413 285.746 108.413H287.258C287.71 108.413 288.071 108.316 288.343 108.122C288.627 107.916 288.769 107.651 288.769 107.328H291.365C291.365 107.974 291.191 108.549 290.842 109.052C290.493 109.556 290.002 109.944 289.369 110.215C288.749 110.486 288.033 110.622 287.219 110.622H285.746ZM288.808 104.635V104.48C288.808 103.976 288.672 103.576 288.401 103.279C288.129 102.969 287.768 102.814 287.316 102.814H285.746C285.281 102.814 284.907 102.975 284.623 103.298C284.338 103.621 284.196 104.047 284.196 104.577V104.635H288.808ZM292.801 100.799H295.242V102.039C295.488 101.664 295.836 101.361 296.288 101.128C296.753 100.883 297.238 100.76 297.742 100.76H299.059V103.046H297.742C297.057 103.046 296.502 103.253 296.075 103.666C295.649 104.08 295.436 104.609 295.436 105.255V110.467H292.801V100.799ZM303.26 110.622C302.084 110.622 301.141 110.312 300.431 109.692C299.721 109.072 299.365 108.258 299.365 107.251H301.962C301.962 107.599 302.078 107.884 302.31 108.103C302.556 108.31 302.872 108.413 303.26 108.413H305.003C305.778 108.413 306.166 108.2 306.166 107.774V107.444C306.166 107.315 306.101 107.199 305.972 107.096C305.843 106.979 305.668 106.902 305.449 106.863L302.097 106.282C301.309 106.153 300.683 105.875 300.218 105.449C299.766 105.01 299.54 104.499 299.54 103.918V103.279C299.54 102.452 299.876 101.806 300.547 101.341C301.232 100.876 302.181 100.644 303.395 100.644H304.906C305.991 100.644 306.863 100.935 307.522 101.516C308.194 102.084 308.529 102.84 308.529 103.783H305.933C305.933 103.498 305.836 103.272 305.643 103.105C305.462 102.937 305.216 102.853 304.906 102.853H303.434C302.594 102.853 302.175 103.046 302.175 103.434V103.744C302.175 103.886 302.226 104.009 302.33 104.112C302.446 104.202 302.607 104.267 302.814 104.306L306.34 104.945C307.076 105.074 307.671 105.352 308.123 105.778C308.575 106.192 308.801 106.663 308.801 107.193V107.89C308.801 108.73 308.452 109.395 307.754 109.886C307.07 110.376 306.153 110.622 305.003 110.622H303.26ZM309.301 109.149L314.532 103.027H309.534V100.799H318.291V102.116L313.06 108.239H318.194V110.467H309.301V109.149ZM322.794 110.622C321.98 110.622 321.257 110.473 320.624 110.176C320.004 109.866 319.52 109.44 319.171 108.897C318.822 108.342 318.648 107.709 318.648 106.999V104.499C318.648 103.737 318.822 103.066 319.171 102.485C319.52 101.903 320.004 101.451 320.624 101.128C321.257 100.805 321.98 100.644 322.794 100.644H324.344C325.584 100.644 326.578 100.993 327.327 101.69C328.077 102.388 328.451 103.318 328.451 104.48V106.534H321.283V106.999C321.283 107.425 321.418 107.767 321.69 108.026C321.961 108.284 322.329 108.413 322.794 108.413H324.305C324.757 108.413 325.119 108.316 325.39 108.122C325.674 107.916 325.816 107.651 325.816 107.328H328.412C328.412 107.974 328.238 108.549 327.889 109.052C327.541 109.556 327.05 109.944 326.417 110.215C325.797 110.486 325.08 110.622 324.266 110.622H322.794ZM325.855 104.635V104.48C325.855 103.976 325.719 103.576 325.448 103.279C325.177 102.969 324.815 102.814 324.363 102.814H322.794C322.329 102.814 321.954 102.975 321.67 103.298C321.386 103.621 321.244 104.047 321.244 104.577V104.635H325.855ZM333.297 110.622C332.148 110.622 331.218 110.273 330.507 109.576C329.81 108.878 329.461 107.961 329.461 106.824V104.616C329.461 103.828 329.629 103.137 329.965 102.543C330.301 101.936 330.772 101.471 331.379 101.148C331.986 100.812 332.69 100.644 333.491 100.644H334.557C334.931 100.644 335.312 100.728 335.7 100.896C336.087 101.051 336.41 101.264 336.668 101.535V96.9047H339.303V110.467H336.862V109.188C336.604 109.614 336.255 109.963 335.816 110.234C335.377 110.493 334.918 110.622 334.44 110.622H333.297ZM334.731 108.355C335.26 108.355 335.7 108.168 336.048 107.793C336.41 107.406 336.617 106.895 336.668 106.263V104.577C336.578 104.073 336.378 103.673 336.068 103.376C335.771 103.066 335.415 102.911 335.002 102.911H333.82C333.304 102.911 332.884 103.085 332.561 103.434C332.251 103.783 332.096 104.241 332.096 104.809V106.631C332.096 107.147 332.238 107.567 332.522 107.89C332.806 108.2 333.174 108.355 333.627 108.355H334.731Z" fill="#F2F2F2"/>
</g>
<rect x="129.669" y="69.4004" width="154.616" height="68.1327" rx="13.1469" stroke="#EBEAE7" stroke-opacity="0.15" stroke-width="1.38389"/>
<g clip-path="url(#clip1_5426_3554)">
<rect x="103.977" y="82.2251" width="206" height="69.5166" rx="13.8389" fill="#1C1C1C"/>
<path d="M118.482 110.421H125.632C126.42 110.421 127.117 110.576 127.724 110.886C128.331 111.183 128.803 111.616 129.138 112.184C129.474 112.74 129.642 113.379 129.642 114.102V115.904C129.642 116.653 129.468 117.319 129.119 117.9C128.77 118.468 128.279 118.914 127.647 119.237C127.027 119.547 126.303 119.702 125.477 119.702H121.156V123.983H118.482V110.421ZM125.438 117.377C125.89 117.377 126.258 117.235 126.542 116.95C126.826 116.653 126.968 116.266 126.968 115.788V114.219C126.968 113.767 126.839 113.411 126.581 113.153C126.336 112.882 126.006 112.746 125.593 112.746H121.156V117.377H125.438ZM134.301 124.138C133.488 124.138 132.764 123.99 132.131 123.693C131.511 123.383 131.027 122.957 130.678 122.414C130.33 121.859 130.155 121.226 130.155 120.515V118.016C130.155 117.254 130.33 116.582 130.678 116.001C131.027 115.42 131.511 114.968 132.131 114.645C132.764 114.322 133.488 114.161 134.301 114.161H135.851C137.091 114.161 138.086 114.509 138.835 115.207C139.584 115.904 139.959 116.834 139.959 117.997V120.05H132.79V120.515C132.79 120.942 132.926 121.284 133.197 121.542C133.468 121.801 133.836 121.93 134.301 121.93H135.813C136.265 121.93 136.626 121.833 136.898 121.639C137.182 121.432 137.324 121.168 137.324 120.845H139.92C139.92 121.491 139.746 122.065 139.397 122.569C139.048 123.073 138.557 123.46 137.924 123.732C137.304 124.003 136.588 124.138 135.774 124.138H134.301ZM137.363 118.152V117.997C137.363 117.493 137.227 117.093 136.956 116.795C136.684 116.486 136.323 116.331 135.871 116.331H134.301C133.836 116.331 133.462 116.492 133.178 116.815C132.893 117.138 132.751 117.564 132.751 118.094V118.152H137.363ZM141.356 114.316H143.797V115.556C144.043 115.181 144.391 114.877 144.843 114.645C145.308 114.4 145.793 114.277 146.297 114.277H147.614V116.563H146.297C145.612 116.563 145.057 116.77 144.63 117.183C144.204 117.596 143.991 118.126 143.991 118.772V123.983H141.356V114.316ZM151.815 124.138C150.639 124.138 149.696 123.828 148.986 123.208C148.276 122.588 147.92 121.775 147.92 120.767H150.517C150.517 121.116 150.633 121.4 150.865 121.62C151.111 121.826 151.427 121.93 151.815 121.93H153.558C154.333 121.93 154.721 121.717 154.721 121.29V120.961C154.721 120.832 154.656 120.716 154.527 120.612C154.398 120.496 154.223 120.419 154.004 120.38L150.652 119.799C149.864 119.669 149.238 119.392 148.773 118.965C148.321 118.526 148.095 118.016 148.095 117.435V116.795C148.095 115.969 148.431 115.323 149.102 114.858C149.787 114.393 150.736 114.161 151.95 114.161H153.461C154.546 114.161 155.418 114.451 156.077 115.032C156.749 115.601 157.084 116.356 157.084 117.299H154.488C154.488 117.015 154.391 116.789 154.198 116.621C154.017 116.453 153.771 116.369 153.461 116.369H151.989C151.149 116.369 150.73 116.563 150.73 116.95V117.26C150.73 117.403 150.781 117.525 150.885 117.629C151.001 117.719 151.162 117.784 151.369 117.822L154.895 118.462C155.631 118.591 156.226 118.869 156.678 119.295C157.13 119.708 157.356 120.18 157.356 120.709V121.407C157.356 122.246 157.007 122.911 156.309 123.402C155.625 123.893 154.708 124.138 153.558 124.138H151.815ZM162.37 124.138C161.557 124.138 160.833 123.983 160.2 123.673C159.58 123.351 159.096 122.898 158.747 122.317C158.411 121.736 158.244 121.064 158.244 120.302V118.035C158.244 117.273 158.418 116.602 158.767 116.021C159.115 115.426 159.6 114.968 160.22 114.645C160.853 114.322 161.576 114.161 162.39 114.161H164.133C164.947 114.161 165.664 114.322 166.284 114.645C166.917 114.968 167.408 115.426 167.756 116.021C168.105 116.602 168.28 117.273 168.28 118.035V120.302C168.28 121.064 168.105 121.736 167.756 122.317C167.408 122.898 166.917 123.351 166.284 123.673C165.664 123.983 164.941 124.138 164.114 124.138H162.37ZM164.075 121.872C164.553 121.872 164.934 121.71 165.218 121.387C165.503 121.051 165.645 120.619 165.645 120.089V118.21C165.645 117.68 165.503 117.254 165.218 116.931C164.934 116.595 164.56 116.427 164.095 116.427H162.428C161.963 116.427 161.589 116.595 161.305 116.931C161.021 117.254 160.878 117.68 160.878 118.21V120.089C160.878 120.619 161.021 121.051 161.305 121.387C161.589 121.71 161.957 121.872 162.409 121.872H164.075ZM169.747 114.316H172.188V115.478C172.472 115.078 172.841 114.761 173.293 114.529C173.745 114.283 174.197 114.161 174.649 114.161H175.811C176.845 114.161 177.671 114.483 178.291 115.129C178.924 115.775 179.241 116.628 179.241 117.687V123.983H176.606V117.784C176.606 117.383 176.496 117.06 176.276 116.815C176.07 116.569 175.798 116.447 175.463 116.447H174.3C173.848 116.447 173.441 116.615 173.08 116.95C172.731 117.273 172.498 117.7 172.382 118.229V123.983H169.747V114.316ZM184.038 124.138C183.03 124.138 182.217 123.887 181.597 123.383C180.977 122.879 180.667 122.214 180.667 121.387V120.67C180.667 119.857 180.99 119.204 181.635 118.714C182.281 118.21 183.134 117.958 184.193 117.958H185.375C185.711 117.958 186.072 118.003 186.46 118.094C186.847 118.184 187.202 118.307 187.525 118.462V117.454C187.525 117.131 187.415 116.873 187.196 116.679C186.989 116.473 186.712 116.369 186.363 116.369H184.697C184.335 116.369 184.044 116.453 183.825 116.621C183.605 116.789 183.495 117.015 183.495 117.299H180.938C180.938 116.356 181.28 115.601 181.965 115.032C182.662 114.451 183.573 114.161 184.697 114.161H186.363C187.499 114.161 188.416 114.464 189.114 115.071C189.811 115.665 190.16 116.46 190.16 117.454V123.983H187.719V122.821C187.409 123.221 187.028 123.544 186.576 123.79C186.124 124.022 185.678 124.138 185.239 124.138H184.038ZM185.433 122.123C185.911 122.123 186.337 122.001 186.712 121.755C187.086 121.51 187.357 121.181 187.525 120.767V120.438C187.319 120.283 187.028 120.16 186.653 120.07C186.292 119.979 185.904 119.934 185.491 119.934H184.27C183.96 119.934 183.709 120.012 183.515 120.167C183.321 120.322 183.224 120.528 183.224 120.787V121.29C183.224 121.536 183.327 121.736 183.534 121.891C183.754 122.046 184.038 122.123 184.387 122.123H185.433ZM195.236 123.983C194.086 123.983 193.24 123.744 192.698 123.267C192.168 122.776 191.904 122.02 191.904 121V110.421H194.538V120.845C194.538 121.155 194.61 121.381 194.752 121.523C194.894 121.665 195.12 121.736 195.43 121.736H196.476V123.983H195.236ZM198.915 113.405C198.411 113.405 198.005 113.263 197.695 112.979C197.397 112.682 197.249 112.294 197.249 111.816C197.249 111.338 197.397 110.957 197.695 110.673C198.005 110.376 198.411 110.228 198.915 110.228C199.419 110.228 199.819 110.376 200.116 110.673C200.426 110.957 200.581 111.338 200.581 111.816C200.581 112.294 200.426 112.682 200.116 112.979C199.819 113.263 199.419 113.405 198.915 113.405ZM197.598 114.316H200.233V123.983H197.598V114.316ZM211.861 123.983C210.724 123.983 209.891 123.725 209.361 123.208C208.832 122.692 208.567 121.891 208.567 120.806V116.563H206.862V114.316H208.644V111.39H211.202V114.316H213.721V116.563H211.202V120.69C211.202 121.051 211.266 121.316 211.396 121.484C211.538 121.652 211.757 121.736 212.054 121.736H213.721V123.983H211.861ZM218.633 124.138C217.819 124.138 217.095 123.983 216.463 123.673C215.843 123.351 215.358 122.898 215.01 122.317C214.674 121.736 214.506 121.064 214.506 120.302V118.035C214.506 117.273 214.68 116.602 215.029 116.021C215.378 115.426 215.862 114.968 216.482 114.645C217.115 114.322 217.838 114.161 218.652 114.161H220.396C221.209 114.161 221.926 114.322 222.546 114.645C223.179 114.968 223.67 115.426 224.019 116.021C224.367 116.602 224.542 117.273 224.542 118.035V120.302C224.542 121.064 224.367 121.736 224.019 122.317C223.67 122.898 223.179 123.351 222.546 123.673C221.926 123.983 221.203 124.138 220.376 124.138H218.633ZM220.337 121.872C220.815 121.872 221.196 121.71 221.481 121.387C221.765 121.051 221.907 120.619 221.907 120.089V118.21C221.907 117.68 221.765 117.254 221.481 116.931C221.196 116.595 220.822 116.427 220.357 116.427H218.691C218.226 116.427 217.851 116.595 217.567 116.931C217.283 117.254 217.141 117.68 217.141 118.21V120.089C217.141 120.619 217.283 121.051 217.567 121.387C217.851 121.71 218.219 121.872 218.671 121.872H220.337ZM235.427 123.983C234.29 123.983 233.457 123.725 232.928 123.208C232.398 122.692 232.133 121.891 232.133 120.806V116.563H230.428V114.316H232.211V111.39H234.768V114.316H237.287V116.563H234.768V120.69C234.768 121.051 234.833 121.316 234.962 121.484C235.104 121.652 235.324 121.736 235.621 121.736H237.287V123.983H235.427ZM238.762 114.316H241.204V115.556C241.449 115.181 241.798 114.877 242.25 114.645C242.715 114.4 243.199 114.277 243.703 114.277H245.02V116.563H243.703C243.018 116.563 242.463 116.77 242.037 117.183C241.61 117.596 241.397 118.126 241.397 118.772V123.983H238.762V114.316ZM248.55 124.138C247.543 124.138 246.729 123.887 246.109 123.383C245.489 122.879 245.179 122.214 245.179 121.387V120.67C245.179 119.857 245.502 119.204 246.148 118.714C246.793 118.21 247.646 117.958 248.705 117.958H249.887C250.223 117.958 250.584 118.003 250.972 118.094C251.359 118.184 251.715 118.307 252.037 118.462V117.454C252.037 117.131 251.928 116.873 251.708 116.679C251.501 116.473 251.224 116.369 250.875 116.369H249.209C248.847 116.369 248.557 116.453 248.337 116.621C248.117 116.789 248.008 117.015 248.008 117.299H245.45C245.45 116.356 245.792 115.601 246.477 115.032C247.174 114.451 248.085 114.161 249.209 114.161H250.875C252.012 114.161 252.929 114.464 253.626 115.071C254.324 115.665 254.672 116.46 254.672 117.454V123.983H252.231V122.821C251.921 123.221 251.54 123.544 251.088 123.79C250.636 124.022 250.19 124.138 249.751 124.138H248.55ZM249.945 122.123C250.423 122.123 250.849 122.001 251.224 121.755C251.598 121.51 251.87 121.181 252.037 120.767V120.438C251.831 120.283 251.54 120.16 251.166 120.07C250.804 119.979 250.416 119.934 250.003 119.934H248.783C248.473 119.934 248.221 120.012 248.027 120.167C247.833 120.322 247.736 120.528 247.736 120.787V121.29C247.736 121.536 247.84 121.736 248.046 121.891C248.266 122.046 248.55 122.123 248.899 122.123H249.945ZM260.099 123.983C259.724 123.983 259.408 123.887 259.149 123.693C258.904 123.486 258.691 123.163 258.51 122.724L255.178 114.316H257.948L260.234 120.961H260.273L262.579 114.316H265.349L261.455 123.983H260.099ZM269.588 124.138C268.774 124.138 268.051 123.99 267.418 123.693C266.798 123.383 266.313 122.957 265.965 122.414C265.616 121.859 265.442 121.226 265.442 120.515V118.016C265.442 117.254 265.616 116.582 265.965 116.001C266.313 115.42 266.798 114.968 267.418 114.645C268.051 114.322 268.774 114.161 269.588 114.161H271.138C272.378 114.161 273.372 114.509 274.121 115.207C274.87 115.904 275.245 116.834 275.245 117.997V120.05H268.076V120.515C268.076 120.942 268.212 121.284 268.483 121.542C268.755 121.801 269.123 121.93 269.588 121.93H271.099C271.551 121.93 271.913 121.833 272.184 121.639C272.468 121.432 272.61 121.168 272.61 120.845H275.206C275.206 121.491 275.032 122.065 274.683 122.569C274.334 123.073 273.844 123.46 273.211 123.732C272.591 124.003 271.874 124.138 271.06 124.138H269.588ZM272.649 118.152V117.997C272.649 117.493 272.513 117.093 272.242 116.795C271.971 116.486 271.609 116.331 271.157 116.331H269.588C269.123 116.331 268.748 116.492 268.464 116.815C268.18 117.138 268.038 117.564 268.038 118.094V118.152H272.649ZM279.975 123.983C278.825 123.983 277.979 123.744 277.437 123.267C276.907 122.776 276.642 122.02 276.642 121V110.421H279.277V120.845C279.277 121.155 279.348 121.381 279.49 121.523C279.632 121.665 279.859 121.736 280.169 121.736H281.215V123.983H279.975ZM285.746 124.138C284.933 124.138 284.209 123.99 283.576 123.693C282.956 123.383 282.472 122.957 282.123 122.414C281.775 121.859 281.6 121.226 281.6 120.515V118.016C281.6 117.254 281.775 116.582 282.123 116.001C282.472 115.42 282.956 114.968 283.576 114.645C284.209 114.322 284.933 114.161 285.746 114.161H287.296C288.536 114.161 289.531 114.509 290.28 115.207C291.029 115.904 291.404 116.834 291.404 117.997V120.05H284.235V120.515C284.235 120.942 284.371 121.284 284.642 121.542C284.913 121.801 285.281 121.93 285.746 121.93H287.258C287.71 121.93 288.071 121.833 288.343 121.639C288.627 121.432 288.769 121.168 288.769 120.845H291.365C291.365 121.491 291.191 122.065 290.842 122.569C290.493 123.073 290.002 123.46 289.369 123.732C288.749 124.003 288.033 124.138 287.219 124.138H285.746ZM288.808 118.152V117.997C288.808 117.493 288.672 117.093 288.401 116.795C288.129 116.486 287.768 116.331 287.316 116.331H285.746C285.281 116.331 284.907 116.492 284.623 116.815C284.338 117.138 284.196 117.564 284.196 118.094V118.152H288.808ZM292.801 114.316H295.242V115.556C295.488 115.181 295.836 114.877 296.288 114.645C296.753 114.4 297.238 114.277 297.742 114.277H299.059V116.563H297.742C297.057 116.563 296.502 116.77 296.075 117.183C295.649 117.596 295.436 118.126 295.436 118.772V123.983H292.801V114.316ZM303.26 124.138C302.084 124.138 301.141 123.828 300.431 123.208C299.721 122.588 299.365 121.775 299.365 120.767H301.962C301.962 121.116 302.078 121.4 302.31 121.62C302.556 121.826 302.872 121.93 303.26 121.93H305.003C305.778 121.93 306.166 121.717 306.166 121.29V120.961C306.166 120.832 306.101 120.716 305.972 120.612C305.843 120.496 305.668 120.419 305.449 120.38L302.097 119.799C301.309 119.669 300.683 119.392 300.218 118.965C299.766 118.526 299.54 118.016 299.54 117.435V116.795C299.54 115.969 299.876 115.323 300.547 114.858C301.232 114.393 302.181 114.161 303.395 114.161H304.906C305.991 114.161 306.863 114.451 307.522 115.032C308.194 115.601 308.529 116.356 308.529 117.299H305.933C305.933 117.015 305.836 116.789 305.643 116.621C305.462 116.453 305.216 116.369 304.906 116.369H303.434C302.594 116.369 302.175 116.563 302.175 116.95V117.26C302.175 117.403 302.226 117.525 302.33 117.629C302.446 117.719 302.607 117.784 302.814 117.822L306.34 118.462C307.076 118.591 307.671 118.869 308.123 119.295C308.575 119.708 308.801 120.18 308.801 120.709V121.407C308.801 122.246 308.452 122.911 307.754 123.402C307.07 123.893 306.153 124.138 305.003 124.138H303.26ZM309.301 122.666L314.532 116.544H309.534V114.316H318.291V115.633L313.06 121.755H318.194V123.983H309.301V122.666ZM322.794 124.138C321.98 124.138 321.257 123.99 320.624 123.693C320.004 123.383 319.52 122.957 319.171 122.414C318.822 121.859 318.648 121.226 318.648 120.515V118.016C318.648 117.254 318.822 116.582 319.171 116.001C319.52 115.42 320.004 114.968 320.624 114.645C321.257 114.322 321.98 114.161 322.794 114.161H324.344C325.584 114.161 326.578 114.509 327.327 115.207C328.077 115.904 328.451 116.834 328.451 117.997V120.05H321.283V120.515C321.283 120.942 321.418 121.284 321.69 121.542C321.961 121.801 322.329 121.93 322.794 121.93H324.305C324.757 121.93 325.119 121.833 325.39 121.639C325.674 121.432 325.816 121.168 325.816 120.845H328.412C328.412 121.491 328.238 122.065 327.889 122.569C327.541 123.073 327.05 123.46 326.417 123.732C325.797 124.003 325.08 124.138 324.266 124.138H322.794ZM325.855 118.152V117.997C325.855 117.493 325.719 117.093 325.448 116.795C325.177 116.486 324.815 116.331 324.363 116.331H322.794C322.329 116.331 321.954 116.492 321.67 116.815C321.386 117.138 321.244 117.564 321.244 118.094V118.152H325.855ZM333.297 124.138C332.148 124.138 331.218 123.79 330.507 123.092C329.81 122.395 329.461 121.478 329.461 120.341V118.132C329.461 117.344 329.629 116.653 329.965 116.059C330.301 115.452 330.772 114.987 331.379 114.664C331.986 114.328 332.69 114.161 333.491 114.161H334.557C334.931 114.161 335.312 114.245 335.7 114.412C336.087 114.567 336.41 114.781 336.668 115.052V110.421H339.303V123.983H336.862V122.705C336.604 123.131 336.255 123.48 335.816 123.751C335.377 124.009 334.918 124.138 334.44 124.138H333.297ZM334.731 121.872C335.26 121.872 335.7 121.684 336.048 121.31C336.41 120.922 336.617 120.412 336.668 119.779V118.094C336.578 117.59 336.378 117.189 336.068 116.892C335.771 116.582 335.415 116.427 335.002 116.427H333.82C333.304 116.427 332.884 116.602 332.561 116.95C332.251 117.299 332.096 117.758 332.096 118.326V120.147C332.096 120.664 332.238 121.084 332.522 121.407C332.806 121.717 333.174 121.872 333.627 121.872H334.731Z" fill="#F2F2F2"/>
</g>
<rect x="104.669" y="82.917" width="204.616" height="68.1327" rx="13.1469" stroke="#EBEAE7" stroke-opacity="0.15" stroke-width="1.38389"/>
<g clip-path="url(#clip2_5426_3554)">
<rect x="81.9766" y="95.7417" width="250" height="69.5166" rx="13.8389" fill="#1C1C1C"/>
<path d="M82.6838 142.809C82.4271 142.809 82.1588 142.762 81.9138 142.657C81.3654 142.424 80.9454 141.969 80.7588 141.397L80.2454 139.857C80.0121 139.157 80.2221 138.282 80.7354 137.757L83.3838 135.097C83.4188 135.062 83.4654 134.934 83.4654 134.875V131.994L78.1454 134.292C77.4338 134.595 76.7104 134.56 76.1621 134.199C75.6138 133.837 75.2871 133.184 75.2871 132.425V130.92C75.2871 129.777 76.1038 128.552 77.1421 128.144L83.4538 125.414V122.1C83.4538 120.689 84.4454 119.067 85.7054 118.414C86.3121 118.11 87.0121 118.11 87.6071 118.414C88.8788 119.067 89.8704 120.677 89.8704 122.089V125.402L96.2171 128.132C97.2554 128.575 98.0488 129.765 98.0488 130.92V132.425C98.0488 133.195 97.7338 133.837 97.1738 134.199C96.6138 134.56 95.9021 134.595 95.1904 134.304L89.8704 132.005V134.887C89.8704 134.934 89.9171 135.05 89.9521 135.085L92.6121 137.757C93.1254 138.27 93.3354 139.169 93.1021 139.857L92.5888 141.397C92.3904 141.969 91.9704 142.424 91.4104 142.645C90.8621 142.867 90.2554 142.844 89.7304 142.587C89.6721 142.552 89.6138 142.517 89.5554 142.47L86.8371 140.184C86.7438 140.102 86.5571 140.114 86.4754 140.184L83.7571 142.47C83.7104 142.517 83.6521 142.552 83.5938 142.575C83.3138 142.739 82.9988 142.809 82.6838 142.809ZM83.8271 130.08C84.0954 130.08 84.3521 130.15 84.5738 130.302C84.9821 130.57 85.2154 131.025 85.2154 131.562V134.887C85.2154 135.389 84.9704 135.984 84.6204 136.334L81.9721 138.994C81.9254 139.052 81.8788 139.227 81.9021 139.297L82.4154 140.849C82.4504 140.965 82.5321 141.012 82.5788 141.035C82.6138 141.047 82.6721 141.07 82.7421 141.047L85.3554 138.842C86.0904 138.212 87.2454 138.212 87.9804 138.842L90.5821 141.035C90.6638 141.047 90.7221 141.035 90.7571 141.024C90.8038 141 90.8971 140.954 90.9321 140.837L91.4454 139.297C91.4688 139.215 91.4221 139.04 91.3754 138.994L88.7271 136.334C88.3771 136.007 88.1204 135.4 88.1204 134.887V131.562C88.1204 131.037 88.3421 130.582 88.7388 130.314C89.1354 130.045 89.6488 130.01 90.1388 130.22L95.8788 132.694C96.0538 132.764 96.1704 132.764 96.2054 132.74C96.2404 132.717 96.2871 132.612 96.2871 132.425V130.92C96.2871 130.477 95.9138 129.905 95.5171 129.742L89.0071 126.93C88.4938 126.709 88.1321 126.149 88.1321 125.589V122.089C88.1321 121.319 87.5254 120.327 86.8254 119.977C86.7321 119.93 86.6154 119.93 86.5104 119.977C85.8338 120.327 85.2154 121.342 85.2154 122.1V125.6C85.2154 126.149 84.8538 126.72 84.3404 126.942L77.8304 129.754C77.4221 129.917 77.0488 130.489 77.0488 130.92V132.425C77.0488 132.612 77.0954 132.717 77.1304 132.74C77.1654 132.764 77.2821 132.764 77.4571 132.694L83.1854 130.22C83.3954 130.127 83.6171 130.08 83.8271 130.08Z" fill="white" fill-opacity="0.5"/>
<path d="M118.482 123.938H125.632C126.42 123.938 127.117 124.093 127.724 124.403C128.331 124.7 128.803 125.133 129.138 125.701C129.474 126.256 129.642 126.896 129.642 127.619V129.421C129.642 130.17 129.468 130.835 129.119 131.416C128.77 131.985 128.279 132.43 127.647 132.753C127.027 133.063 126.303 133.218 125.477 133.218H121.156V137.5H118.482V123.938ZM125.438 130.893C125.89 130.893 126.258 130.751 126.542 130.467C126.826 130.17 126.968 129.783 126.968 129.305V127.735C126.968 127.283 126.839 126.928 126.581 126.67C126.336 126.398 126.006 126.263 125.593 126.263H121.156V130.893H125.438ZM134.301 137.655C133.488 137.655 132.764 137.506 132.131 137.209C131.511 136.899 131.027 136.473 130.678 135.931C130.33 135.375 130.155 134.742 130.155 134.032V131.533C130.155 130.771 130.33 130.099 130.678 129.518C131.027 128.937 131.511 128.484 132.131 128.162C132.764 127.839 133.488 127.677 134.301 127.677H135.851C137.091 127.677 138.086 128.026 138.835 128.723C139.584 129.421 139.959 130.351 139.959 131.513V133.567H132.79V134.032C132.79 134.458 132.926 134.8 133.197 135.059C133.468 135.317 133.836 135.446 134.301 135.446H135.813C136.265 135.446 136.626 135.349 136.898 135.156C137.182 134.949 137.324 134.684 137.324 134.361H139.92C139.92 135.007 139.746 135.582 139.397 136.086C139.048 136.589 138.557 136.977 137.924 137.248C137.304 137.519 136.588 137.655 135.774 137.655H134.301ZM137.363 131.668V131.513C137.363 131.01 137.227 130.609 136.956 130.312C136.684 130.002 136.323 129.847 135.871 129.847H134.301C133.836 129.847 133.462 130.009 133.178 130.331C132.893 130.654 132.751 131.081 132.751 131.61V131.668H137.363ZM141.356 127.832H143.797V129.072C144.043 128.698 144.391 128.394 144.843 128.162C145.308 127.916 145.793 127.793 146.297 127.793H147.614V130.08H146.297C145.612 130.08 145.057 130.286 144.63 130.7C144.204 131.113 143.991 131.642 143.991 132.288V137.5H141.356V127.832ZM151.815 137.655C150.639 137.655 149.696 137.345 148.986 136.725C148.276 136.105 147.92 135.291 147.92 134.284H150.517C150.517 134.633 150.633 134.917 150.865 135.136C151.111 135.343 151.427 135.446 151.815 135.446H153.558C154.333 135.446 154.721 135.233 154.721 134.807V134.478C154.721 134.348 154.656 134.232 154.527 134.129C154.398 134.013 154.223 133.935 154.004 133.896L150.652 133.315C149.864 133.186 149.238 132.908 148.773 132.482C148.321 132.043 148.095 131.533 148.095 130.951V130.312C148.095 129.485 148.431 128.84 149.102 128.375C149.787 127.91 150.736 127.677 151.95 127.677H153.461C154.546 127.677 155.418 127.968 156.077 128.549C156.749 129.117 157.084 129.873 157.084 130.816H154.488C154.488 130.532 154.391 130.306 154.198 130.138C154.017 129.97 153.771 129.886 153.461 129.886H151.989C151.149 129.886 150.73 130.08 150.73 130.467V130.777C150.73 130.919 150.781 131.042 150.885 131.145C151.001 131.236 151.162 131.3 151.369 131.339L154.895 131.978C155.631 132.107 156.226 132.385 156.678 132.811C157.13 133.225 157.356 133.696 157.356 134.226V134.923C157.356 135.763 157.007 136.428 156.309 136.919C155.625 137.41 154.708 137.655 153.558 137.655H151.815ZM162.37 137.655C161.557 137.655 160.833 137.5 160.2 137.19C159.58 136.867 159.096 136.415 158.747 135.834C158.411 135.253 158.244 134.581 158.244 133.819V131.552C158.244 130.79 158.418 130.118 158.767 129.537C159.115 128.943 159.6 128.484 160.22 128.162C160.853 127.839 161.576 127.677 162.39 127.677H164.133C164.947 127.677 165.664 127.839 166.284 128.162C166.917 128.484 167.408 128.943 167.756 129.537C168.105 130.118 168.28 130.79 168.28 131.552V133.819C168.28 134.581 168.105 135.253 167.756 135.834C167.408 136.415 166.917 136.867 166.284 137.19C165.664 137.5 164.941 137.655 164.114 137.655H162.37ZM164.075 135.388C164.553 135.388 164.934 135.227 165.218 134.904C165.503 134.568 165.645 134.135 165.645 133.606V131.726C165.645 131.197 165.503 130.771 165.218 130.448C164.934 130.112 164.56 129.944 164.095 129.944H162.428C161.963 129.944 161.589 130.112 161.305 130.448C161.021 130.771 160.878 131.197 160.878 131.726V133.606C160.878 134.135 161.021 134.568 161.305 134.904C161.589 135.227 161.957 135.388 162.409 135.388H164.075ZM169.747 127.832H172.188V128.995C172.472 128.594 172.841 128.278 173.293 128.045C173.745 127.8 174.197 127.677 174.649 127.677H175.811C176.845 127.677 177.671 128 178.291 128.646C178.924 129.292 179.241 130.144 179.241 131.203V137.5H176.606V131.3C176.606 130.9 176.496 130.577 176.276 130.331C176.07 130.086 175.798 129.963 175.463 129.963H174.3C173.848 129.963 173.441 130.131 173.08 130.467C172.731 130.79 172.498 131.216 172.382 131.746V137.5H169.747V127.832ZM184.038 137.655C183.03 137.655 182.217 137.403 181.597 136.899C180.977 136.396 180.667 135.73 180.667 134.904V134.187C180.667 133.373 180.99 132.721 181.635 132.23C182.281 131.726 183.134 131.475 184.193 131.475H185.375C185.711 131.475 186.072 131.52 186.46 131.61C186.847 131.701 187.202 131.823 187.525 131.978V130.971C187.525 130.648 187.415 130.39 187.196 130.196C186.989 129.989 186.712 129.886 186.363 129.886H184.697C184.335 129.886 184.044 129.97 183.825 130.138C183.605 130.306 183.495 130.532 183.495 130.816H180.938C180.938 129.873 181.28 129.117 181.965 128.549C182.662 127.968 183.573 127.677 184.697 127.677H186.363C187.499 127.677 188.416 127.981 189.114 128.588C189.811 129.182 190.16 129.976 190.16 130.971V137.5H187.719V136.338C187.409 136.738 187.028 137.061 186.576 137.306C186.124 137.539 185.678 137.655 185.239 137.655H184.038ZM185.433 135.64C185.911 135.64 186.337 135.517 186.712 135.272C187.086 135.027 187.357 134.697 187.525 134.284V133.954C187.319 133.799 187.028 133.677 186.653 133.586C186.292 133.496 185.904 133.451 185.491 133.451H184.27C183.96 133.451 183.709 133.528 183.515 133.683C183.321 133.838 183.224 134.045 183.224 134.303V134.807C183.224 135.052 183.327 135.253 183.534 135.408C183.754 135.563 184.038 135.64 184.387 135.64H185.433ZM195.236 137.5C194.086 137.5 193.24 137.261 192.698 136.783C192.168 136.292 191.904 135.537 191.904 134.516V123.938H194.538V134.361C194.538 134.671 194.61 134.897 194.752 135.039C194.894 135.182 195.12 135.253 195.43 135.253H196.476V137.5H195.236ZM198.915 126.922C198.411 126.922 198.005 126.779 197.695 126.495C197.397 126.198 197.249 125.811 197.249 125.333C197.249 124.855 197.397 124.474 197.695 124.19C198.005 123.893 198.411 123.744 198.915 123.744C199.419 123.744 199.819 123.893 200.116 124.19C200.426 124.474 200.581 124.855 200.581 125.333C200.581 125.811 200.426 126.198 200.116 126.495C199.819 126.779 199.419 126.922 198.915 126.922ZM197.598 127.832H200.233V137.5H197.598V127.832ZM211.861 137.5C210.724 137.5 209.891 137.242 209.361 136.725C208.832 136.208 208.567 135.408 208.567 134.323V130.08H206.862V127.832H208.644V124.907H211.202V127.832H213.721V130.08H211.202V134.206C211.202 134.568 211.266 134.833 211.396 135.001C211.538 135.169 211.757 135.253 212.054 135.253H213.721V137.5H211.861ZM218.633 137.655C217.819 137.655 217.095 137.5 216.463 137.19C215.843 136.867 215.358 136.415 215.01 135.834C214.674 135.253 214.506 134.581 214.506 133.819V131.552C214.506 130.79 214.68 130.118 215.029 129.537C215.378 128.943 215.862 128.484 216.482 128.162C217.115 127.839 217.838 127.677 218.652 127.677H220.396C221.209 127.677 221.926 127.839 222.546 128.162C223.179 128.484 223.67 128.943 224.019 129.537C224.367 130.118 224.542 130.79 224.542 131.552V133.819C224.542 134.581 224.367 135.253 224.019 135.834C223.67 136.415 223.179 136.867 222.546 137.19C221.926 137.5 221.203 137.655 220.376 137.655H218.633ZM220.337 135.388C220.815 135.388 221.196 135.227 221.481 134.904C221.765 134.568 221.907 134.135 221.907 133.606V131.726C221.907 131.197 221.765 130.771 221.481 130.448C221.196 130.112 220.822 129.944 220.357 129.944H218.691C218.226 129.944 217.851 130.112 217.567 130.448C217.283 130.771 217.141 131.197 217.141 131.726V133.606C217.141 134.135 217.283 134.568 217.567 134.904C217.851 135.227 218.219 135.388 218.671 135.388H220.337ZM235.427 137.5C234.29 137.5 233.457 137.242 232.928 136.725C232.398 136.208 232.133 135.408 232.133 134.323V130.08H230.428V127.832H232.211V124.907H234.768V127.832H237.287V130.08H234.768V134.206C234.768 134.568 234.833 134.833 234.962 135.001C235.104 135.169 235.324 135.253 235.621 135.253H237.287V137.5H235.427ZM238.762 127.832H241.204V129.072C241.449 128.698 241.798 128.394 242.25 128.162C242.715 127.916 243.199 127.793 243.703 127.793H245.02V130.08H243.703C243.018 130.08 242.463 130.286 242.037 130.7C241.61 131.113 241.397 131.642 241.397 132.288V137.5H238.762V127.832ZM248.55 137.655C247.543 137.655 246.729 137.403 246.109 136.899C245.489 136.396 245.179 135.73 245.179 134.904V134.187C245.179 133.373 245.502 132.721 246.148 132.23C246.793 131.726 247.646 131.475 248.705 131.475H249.887C250.223 131.475 250.584 131.52 250.972 131.61C251.359 131.701 251.715 131.823 252.037 131.978V130.971C252.037 130.648 251.928 130.39 251.708 130.196C251.501 129.989 251.224 129.886 250.875 129.886H249.209C248.847 129.886 248.557 129.97 248.337 130.138C248.117 130.306 248.008 130.532 248.008 130.816H245.45C245.45 129.873 245.792 129.117 246.477 128.549C247.174 127.968 248.085 127.677 249.209 127.677H250.875C252.012 127.677 252.929 127.981 253.626 128.588C254.324 129.182 254.672 129.976 254.672 130.971V137.5H252.231V136.338C251.921 136.738 251.54 137.061 251.088 137.306C250.636 137.539 250.19 137.655 249.751 137.655H248.55ZM249.945 135.64C250.423 135.64 250.849 135.517 251.224 135.272C251.598 135.027 251.87 134.697 252.037 134.284V133.954C251.831 133.799 251.54 133.677 251.166 133.586C250.804 133.496 250.416 133.451 250.003 133.451H248.783C248.473 133.451 248.221 133.528 248.027 133.683C247.833 133.838 247.736 134.045 247.736 134.303V134.807C247.736 135.052 247.84 135.253 248.046 135.408C248.266 135.563 248.55 135.64 248.899 135.64H249.945ZM260.099 137.5C259.724 137.5 259.408 137.403 259.149 137.209C258.904 137.003 258.691 136.68 258.51 136.241L255.178 127.832H257.948L260.234 134.478H260.273L262.579 127.832H265.349L261.455 137.5H260.099ZM269.588 137.655C268.774 137.655 268.051 137.506 267.418 137.209C266.798 136.899 266.313 136.473 265.965 135.931C265.616 135.375 265.442 134.742 265.442 134.032V131.533C265.442 130.771 265.616 130.099 265.965 129.518C266.313 128.937 266.798 128.484 267.418 128.162C268.051 127.839 268.774 127.677 269.588 127.677H271.138C272.378 127.677 273.372 128.026 274.121 128.723C274.87 129.421 275.245 130.351 275.245 131.513V133.567H268.076V134.032C268.076 134.458 268.212 134.8 268.483 135.059C268.755 135.317 269.123 135.446 269.588 135.446H271.099C271.551 135.446 271.913 135.349 272.184 135.156C272.468 134.949 272.61 134.684 272.61 134.361H275.206C275.206 135.007 275.032 135.582 274.683 136.086C274.334 136.589 273.844 136.977 273.211 137.248C272.591 137.519 271.874 137.655 271.06 137.655H269.588ZM272.649 131.668V131.513C272.649 131.01 272.513 130.609 272.242 130.312C271.971 130.002 271.609 129.847 271.157 129.847H269.588C269.123 129.847 268.748 130.009 268.464 130.331C268.18 130.654 268.038 131.081 268.038 131.61V131.668H272.649ZM279.975 137.5C278.825 137.5 277.979 137.261 277.437 136.783C276.907 136.292 276.642 135.537 276.642 134.516V123.938H279.277V134.361C279.277 134.671 279.348 134.897 279.49 135.039C279.632 135.182 279.859 135.253 280.169 135.253H281.215V137.5H279.975ZM285.746 137.655C284.933 137.655 284.209 137.506 283.576 137.209C282.956 136.899 282.472 136.473 282.123 135.931C281.775 135.375 281.6 134.742 281.6 134.032V131.533C281.6 130.771 281.775 130.099 282.123 129.518C282.472 128.937 282.956 128.484 283.576 128.162C284.209 127.839 284.933 127.677 285.746 127.677H287.296C288.536 127.677 289.531 128.026 290.28 128.723C291.029 129.421 291.404 130.351 291.404 131.513V133.567H284.235V134.032C284.235 134.458 284.371 134.8 284.642 135.059C284.913 135.317 285.281 135.446 285.746 135.446H287.258C287.71 135.446 288.071 135.349 288.343 135.156C288.627 134.949 288.769 134.684 288.769 134.361H291.365C291.365 135.007 291.191 135.582 290.842 136.086C290.493 136.589 290.002 136.977 289.369 137.248C288.749 137.519 288.033 137.655 287.219 137.655H285.746ZM288.808 131.668V131.513C288.808 131.01 288.672 130.609 288.401 130.312C288.129 130.002 287.768 129.847 287.316 129.847H285.746C285.281 129.847 284.907 130.009 284.623 130.331C284.338 130.654 284.196 131.081 284.196 131.61V131.668H288.808ZM292.801 127.832H295.242V129.072C295.488 128.698 295.836 128.394 296.288 128.162C296.753 127.916 297.238 127.793 297.742 127.793H299.059V130.08H297.742C297.057 130.08 296.502 130.286 296.075 130.7C295.649 131.113 295.436 131.642 295.436 132.288V137.5H292.801V127.832ZM303.26 137.655C302.084 137.655 301.141 137.345 300.431 136.725C299.721 136.105 299.365 135.291 299.365 134.284H301.962C301.962 134.633 302.078 134.917 302.31 135.136C302.556 135.343 302.872 135.446 303.26 135.446H305.003C305.778 135.446 306.166 135.233 306.166 134.807V134.478C306.166 134.348 306.101 134.232 305.972 134.129C305.843 134.013 305.668 133.935 305.449 133.896L302.097 133.315C301.309 133.186 300.683 132.908 300.218 132.482C299.766 132.043 299.54 131.533 299.54 130.951V130.312C299.54 129.485 299.876 128.84 300.547 128.375C301.232 127.91 302.181 127.677 303.395 127.677H304.906C305.991 127.677 306.863 127.968 307.522 128.549C308.194 129.117 308.529 129.873 308.529 130.816H305.933C305.933 130.532 305.836 130.306 305.643 130.138C305.462 129.97 305.216 129.886 304.906 129.886H303.434C302.594 129.886 302.175 130.08 302.175 130.467V130.777C302.175 130.919 302.226 131.042 302.33 131.145C302.446 131.236 302.607 131.3 302.814 131.339L306.34 131.978C307.076 132.107 307.671 132.385 308.123 132.811C308.575 133.225 308.801 133.696 308.801 134.226V134.923C308.801 135.763 308.452 136.428 307.754 136.919C307.07 137.41 306.153 137.655 305.003 137.655H303.26ZM309.301 136.183L314.532 130.06H309.534V127.832H318.291V129.15L313.06 135.272H318.194V137.5H309.301V136.183ZM322.794 137.655C321.98 137.655 321.257 137.506 320.624 137.209C320.004 136.899 319.52 136.473 319.171 135.931C318.822 135.375 318.648 134.742 318.648 134.032V131.533C318.648 130.771 318.822 130.099 319.171 129.518C319.52 128.937 320.004 128.484 320.624 128.162C321.257 127.839 321.98 127.677 322.794 127.677H324.344C325.584 127.677 326.578 128.026 327.327 128.723C328.077 129.421 328.451 130.351 328.451 131.513V133.567H321.283V134.032C321.283 134.458 321.418 134.8 321.69 135.059C321.961 135.317 322.329 135.446 322.794 135.446H324.305C324.757 135.446 325.119 135.349 325.39 135.156C325.674 134.949 325.816 134.684 325.816 134.361H328.412C328.412 135.007 328.238 135.582 327.889 136.086C327.541 136.589 327.05 136.977 326.417 137.248C325.797 137.519 325.08 137.655 324.266 137.655H322.794ZM325.855 131.668V131.513C325.855 131.01 325.719 130.609 325.448 130.312C325.177 130.002 324.815 129.847 324.363 129.847H322.794C322.329 129.847 321.954 130.009 321.67 130.331C321.386 130.654 321.244 131.081 321.244 131.61V131.668H325.855ZM333.297 137.655C332.148 137.655 331.218 137.306 330.507 136.609C329.81 135.911 329.461 134.994 329.461 133.858V131.649C329.461 130.861 329.629 130.17 329.965 129.576C330.301 128.969 330.772 128.504 331.379 128.181C331.986 127.845 332.69 127.677 333.491 127.677H334.557C334.931 127.677 335.312 127.761 335.7 127.929C336.087 128.084 336.41 128.297 336.668 128.568V123.938H339.303V137.5H336.862V136.221C336.604 136.648 336.255 136.996 335.816 137.268C335.377 137.526 334.918 137.655 334.44 137.655H333.297ZM334.731 135.388C335.26 135.388 335.7 135.201 336.048 134.826C336.41 134.439 336.617 133.929 336.668 133.296V131.61C336.578 131.106 336.378 130.706 336.068 130.409C335.771 130.099 335.415 129.944 335.002 129.944H333.82C333.304 129.944 332.884 130.118 332.561 130.467C332.251 130.816 332.096 131.274 332.096 131.843V133.664C332.096 134.181 332.238 134.6 332.522 134.923C332.806 135.233 333.174 135.388 333.627 135.388H334.731Z" fill="#F2F2F2"/>
</g>
<rect x="82.6685" y="96.4336" width="248.616" height="68.1327" rx="13.1469" stroke="#EBEAE7" stroke-opacity="0.15" stroke-width="1.38389"/>
<rect x="66.9766" y="109.258" width="280" height="69.5166" rx="13.8389" fill="#1C1C1C"/>
<rect x="67.6685" y="109.95" width="278.616" height="68.1327" rx="13.1469" stroke="#EBEAE7" stroke-opacity="0.15" stroke-width="1.38389"/>
<path d="M82.6838 156.325C82.4271 156.325 82.1588 156.278 81.9138 156.173C81.3654 155.94 80.9454 155.485 80.7588 154.913L80.2454 153.373C80.0121 152.673 80.2221 151.798 80.7354 151.273L83.3838 148.613C83.4188 148.578 83.4654 148.45 83.4654 148.392V145.51L78.1454 147.808C77.4338 148.112 76.7104 148.077 76.1621 147.715C75.6138 147.353 75.2871 146.7 75.2871 145.942V144.437C75.2871 143.293 76.1038 142.068 77.1421 141.66L83.4538 138.93V135.617C83.4538 134.205 84.4454 132.583 85.7054 131.93C86.3121 131.627 87.0121 131.627 87.6071 131.93C88.8788 132.583 89.8704 134.193 89.8704 135.605V138.918L96.2171 141.648C97.2554 142.092 98.0488 143.282 98.0488 144.437V145.942C98.0488 146.712 97.7338 147.353 97.1738 147.715C96.6138 148.077 95.9021 148.112 95.1904 147.82L89.8704 145.522V148.403C89.8704 148.45 89.9171 148.567 89.9521 148.602L92.6121 151.273C93.1254 151.787 93.3354 152.685 93.1021 153.373L92.5888 154.913C92.3904 155.485 91.9704 155.94 91.4104 156.162C90.8621 156.383 90.2554 156.36 89.7304 156.103C89.6721 156.068 89.6138 156.033 89.5554 155.987L86.8371 153.7C86.7438 153.618 86.5571 153.63 86.4754 153.7L83.7571 155.987C83.7104 156.033 83.6521 156.068 83.5938 156.092C83.3138 156.255 82.9988 156.325 82.6838 156.325ZM83.8271 143.597C84.0954 143.597 84.3521 143.667 84.5738 143.818C84.9821 144.087 85.2154 144.542 85.2154 145.078V148.403C85.2154 148.905 84.9704 149.5 84.6204 149.85L81.9721 152.51C81.9254 152.568 81.8788 152.743 81.9021 152.813L82.4154 154.365C82.4504 154.482 82.5321 154.528 82.5788 154.552C82.6138 154.563 82.6721 154.587 82.7421 154.563L85.3554 152.358C86.0904 151.728 87.2454 151.728 87.9804 152.358L90.5821 154.552C90.6638 154.563 90.7221 154.552 90.7571 154.54C90.8038 154.517 90.8971 154.47 90.9321 154.353L91.4454 152.813C91.4688 152.732 91.4221 152.557 91.3754 152.51L88.7271 149.85C88.3771 149.523 88.1204 148.917 88.1204 148.403V145.078C88.1204 144.553 88.3421 144.098 88.7388 143.83C89.1354 143.562 89.6488 143.527 90.1388 143.737L95.8788 146.21C96.0538 146.28 96.1704 146.28 96.2054 146.257C96.2404 146.233 96.2871 146.128 96.2871 145.942V144.437C96.2871 143.993 95.9138 143.422 95.5171 143.258L89.0071 140.447C88.4938 140.225 88.1321 139.665 88.1321 139.105V135.605C88.1321 134.835 87.5254 133.843 86.8254 133.493C86.7321 133.447 86.6154 133.447 86.5104 133.493C85.8338 133.843 85.2154 134.858 85.2154 135.617V139.117C85.2154 139.665 84.8538 140.237 84.3404 140.458L77.8304 143.27C77.4221 143.433 77.0488 144.005 77.0488 144.437V145.942C77.0488 146.128 77.0954 146.233 77.1304 146.257C77.1654 146.28 77.2821 146.28 77.4571 146.21L83.1854 143.737C83.3954 143.643 83.6171 143.597 83.8271 143.597Z" fill="white" fill-opacity="0.5"/>
<path d="M118.482 137.455H125.632C126.42 137.455 127.117 137.61 127.724 137.92C128.331 138.217 128.803 138.649 129.138 139.218C129.474 139.773 129.642 140.412 129.642 141.136V142.937C129.642 143.687 129.468 144.352 129.119 144.933C128.77 145.501 128.279 145.947 127.647 146.27C127.027 146.58 126.303 146.735 125.477 146.735H121.156V151.017H118.482V137.455ZM125.438 144.41C125.89 144.41 126.258 144.268 126.542 143.984C126.826 143.687 126.968 143.299 126.968 142.821V141.252C126.968 140.8 126.839 140.445 126.581 140.186C126.336 139.915 126.006 139.779 125.593 139.779H121.156V144.41H125.438ZM134.301 151.172C133.488 151.172 132.764 151.023 132.131 150.726C131.511 150.416 131.027 149.99 130.678 149.447C130.33 148.892 130.155 148.259 130.155 147.549V145.049C130.155 144.287 130.33 143.616 130.678 143.034C131.027 142.453 131.511 142.001 132.131 141.678C132.764 141.355 133.488 141.194 134.301 141.194H135.851C137.091 141.194 138.086 141.543 138.835 142.24C139.584 142.937 139.959 143.867 139.959 145.03V147.084H132.79V147.549C132.79 147.975 132.926 148.317 133.197 148.575C133.468 148.834 133.836 148.963 134.301 148.963H135.813C136.265 148.963 136.626 148.866 136.898 148.672C137.182 148.466 137.324 148.201 137.324 147.878H139.92C139.92 148.524 139.746 149.099 139.397 149.602C139.048 150.106 138.557 150.493 137.924 150.765C137.304 151.036 136.588 151.172 135.774 151.172H134.301ZM137.363 145.185V145.03C137.363 144.526 137.227 144.126 136.956 143.829C136.684 143.519 136.323 143.364 135.871 143.364H134.301C133.836 143.364 133.462 143.525 133.178 143.848C132.893 144.171 132.751 144.597 132.751 145.127V145.185H137.363ZM141.356 141.349H143.797V142.589C144.043 142.214 144.391 141.911 144.843 141.678C145.308 141.433 145.793 141.31 146.297 141.31H147.614V143.596H146.297C145.612 143.596 145.057 143.803 144.63 144.216C144.204 144.63 143.991 145.159 143.991 145.805V151.017H141.356V141.349ZM151.815 151.172C150.639 151.172 149.696 150.862 148.986 150.242C148.276 149.622 147.92 148.808 147.92 147.8H150.517C150.517 148.149 150.633 148.433 150.865 148.653C151.111 148.86 151.427 148.963 151.815 148.963H153.558C154.333 148.963 154.721 148.75 154.721 148.324V147.994C154.721 147.865 154.656 147.749 154.527 147.645C154.398 147.529 154.223 147.452 154.004 147.413L150.652 146.832C149.864 146.703 149.238 146.425 148.773 145.999C148.321 145.559 148.095 145.049 148.095 144.468V143.829C148.095 143.002 148.431 142.356 149.102 141.891C149.787 141.426 150.736 141.194 151.95 141.194H153.461C154.546 141.194 155.418 141.484 156.077 142.066C156.749 142.634 157.084 143.39 157.084 144.332H154.488C154.488 144.048 154.391 143.822 154.198 143.654C154.017 143.486 153.771 143.402 153.461 143.402H151.989C151.149 143.402 150.73 143.596 150.73 143.984V144.294C150.73 144.436 150.781 144.558 150.885 144.662C151.001 144.752 151.162 144.817 151.369 144.856L154.895 145.495C155.631 145.624 156.226 145.902 156.678 146.328C157.13 146.741 157.356 147.213 157.356 147.742V148.44C157.356 149.279 157.007 149.945 156.309 150.435C155.625 150.926 154.708 151.172 153.558 151.172H151.815ZM162.37 151.172C161.557 151.172 160.833 151.017 160.2 150.707C159.58 150.384 159.096 149.932 158.747 149.35C158.411 148.769 158.244 148.098 158.244 147.335V145.069C158.244 144.307 158.418 143.635 158.767 143.054C159.115 142.46 159.6 142.001 160.22 141.678C160.853 141.355 161.576 141.194 162.39 141.194H164.133C164.947 141.194 165.664 141.355 166.284 141.678C166.917 142.001 167.408 142.46 167.756 143.054C168.105 143.635 168.28 144.307 168.28 145.069V147.335C168.28 148.098 168.105 148.769 167.756 149.35C167.408 149.932 166.917 150.384 166.284 150.707C165.664 151.017 164.941 151.172 164.114 151.172H162.37ZM164.075 148.905C164.553 148.905 164.934 148.743 165.218 148.42C165.503 148.085 165.645 147.652 165.645 147.122V145.243C165.645 144.713 165.503 144.287 165.218 143.964C164.934 143.628 164.56 143.461 164.095 143.461H162.428C161.963 143.461 161.589 143.628 161.305 143.964C161.021 144.287 160.878 144.713 160.878 145.243V147.122C160.878 147.652 161.021 148.085 161.305 148.42C161.589 148.743 161.957 148.905 162.409 148.905H164.075ZM169.747 141.349H172.188V142.511C172.472 142.111 172.841 141.794 173.293 141.562C173.745 141.316 174.197 141.194 174.649 141.194H175.811C176.845 141.194 177.671 141.517 178.291 142.162C178.924 142.808 179.241 143.661 179.241 144.72V151.017H176.606V144.817C176.606 144.416 176.496 144.093 176.276 143.848C176.07 143.603 175.798 143.48 175.463 143.48H174.3C173.848 143.48 173.441 143.648 173.08 143.984C172.731 144.307 172.498 144.733 172.382 145.262V151.017H169.747V141.349ZM184.038 151.172C183.03 151.172 182.217 150.92 181.597 150.416C180.977 149.912 180.667 149.247 180.667 148.42V147.704C180.667 146.89 180.99 146.238 181.635 145.747C182.281 145.243 183.134 144.991 184.193 144.991H185.375C185.711 144.991 186.072 145.036 186.46 145.127C186.847 145.217 187.202 145.34 187.525 145.495V144.487C187.525 144.165 187.415 143.906 187.196 143.712C186.989 143.506 186.712 143.402 186.363 143.402H184.697C184.335 143.402 184.044 143.486 183.825 143.654C183.605 143.822 183.495 144.048 183.495 144.332H180.938C180.938 143.39 181.28 142.634 181.965 142.066C182.662 141.484 183.573 141.194 184.697 141.194H186.363C187.499 141.194 188.416 141.497 189.114 142.104C189.811 142.699 190.16 143.493 190.16 144.487V151.017H187.719V149.854C187.409 150.255 187.028 150.577 186.576 150.823C186.124 151.055 185.678 151.172 185.239 151.172H184.038ZM185.433 149.157C185.911 149.157 186.337 149.034 186.712 148.789C187.086 148.543 187.357 148.214 187.525 147.8V147.471C187.319 147.316 187.028 147.193 186.653 147.103C186.292 147.013 185.904 146.967 185.491 146.967H184.27C183.96 146.967 183.709 147.045 183.515 147.2C183.321 147.355 183.224 147.561 183.224 147.82V148.324C183.224 148.569 183.327 148.769 183.534 148.924C183.754 149.079 184.038 149.157 184.387 149.157H185.433ZM195.236 151.017C194.086 151.017 193.24 150.778 192.698 150.3C192.168 149.809 191.904 149.053 191.904 148.033V137.455H194.538V147.878C194.538 148.188 194.61 148.414 194.752 148.556C194.894 148.698 195.12 148.769 195.43 148.769H196.476V151.017H195.236ZM198.915 140.438C198.411 140.438 198.005 140.296 197.695 140.012C197.397 139.715 197.249 139.327 197.249 138.849C197.249 138.372 197.397 137.991 197.695 137.706C198.005 137.409 198.411 137.261 198.915 137.261C199.419 137.261 199.819 137.409 200.116 137.706C200.426 137.991 200.581 138.372 200.581 138.849C200.581 139.327 200.426 139.715 200.116 140.012C199.819 140.296 199.419 140.438 198.915 140.438ZM197.598 141.349H200.233V151.017H197.598V141.349ZM211.861 151.017C210.724 151.017 209.891 150.758 209.361 150.242C208.832 149.725 208.567 148.924 208.567 147.839V143.596H206.862V141.349H208.644V138.423H211.202V141.349H213.721V143.596H211.202V147.723C211.202 148.085 211.266 148.349 211.396 148.517C211.538 148.685 211.757 148.769 212.054 148.769H213.721V151.017H211.861ZM218.633 151.172C217.819 151.172 217.095 151.017 216.463 150.707C215.843 150.384 215.358 149.932 215.01 149.35C214.674 148.769 214.506 148.098 214.506 147.335V145.069C214.506 144.307 214.68 143.635 215.029 143.054C215.378 142.46 215.862 142.001 216.482 141.678C217.115 141.355 217.838 141.194 218.652 141.194H220.396C221.209 141.194 221.926 141.355 222.546 141.678C223.179 142.001 223.67 142.46 224.019 143.054C224.367 143.635 224.542 144.307 224.542 145.069V147.335C224.542 148.098 224.367 148.769 224.019 149.35C223.67 149.932 223.179 150.384 222.546 150.707C221.926 151.017 221.203 151.172 220.376 151.172H218.633ZM220.337 148.905C220.815 148.905 221.196 148.743 221.481 148.42C221.765 148.085 221.907 147.652 221.907 147.122V145.243C221.907 144.713 221.765 144.287 221.481 143.964C221.196 143.628 220.822 143.461 220.357 143.461H218.691C218.226 143.461 217.851 143.628 217.567 143.964C217.283 144.287 217.141 144.713 217.141 145.243V147.122C217.141 147.652 217.283 148.085 217.567 148.42C217.851 148.743 218.219 148.905 218.671 148.905H220.337ZM235.427 151.017C234.29 151.017 233.457 150.758 232.928 150.242C232.398 149.725 232.133 148.924 232.133 147.839V143.596H230.428V141.349H232.211V138.423H234.768V141.349H237.287V143.596H234.768V147.723C234.768 148.085 234.833 148.349 234.962 148.517C235.104 148.685 235.324 148.769 235.621 148.769H237.287V151.017H235.427ZM238.762 141.349H241.204V142.589C241.449 142.214 241.798 141.911 242.25 141.678C242.715 141.433 243.199 141.31 243.703 141.31H245.02V143.596H243.703C243.018 143.596 242.463 143.803 242.037 144.216C241.61 144.63 241.397 145.159 241.397 145.805V151.017H238.762V141.349ZM248.55 151.172C247.543 151.172 246.729 150.92 246.109 150.416C245.489 149.912 245.179 149.247 245.179 148.42V147.704C245.179 146.89 245.502 146.238 246.148 145.747C246.793 145.243 247.646 144.991 248.705 144.991H249.887C250.223 144.991 250.584 145.036 250.972 145.127C251.359 145.217 251.715 145.34 252.037 145.495V144.487C252.037 144.165 251.928 143.906 251.708 143.712C251.501 143.506 251.224 143.402 250.875 143.402H249.209C248.847 143.402 248.557 143.486 248.337 143.654C248.117 143.822 248.008 144.048 248.008 144.332H245.45C245.45 143.39 245.792 142.634 246.477 142.066C247.174 141.484 248.085 141.194 249.209 141.194H250.875C252.012 141.194 252.929 141.497 253.626 142.104C254.324 142.699 254.672 143.493 254.672 144.487V151.017H252.231V149.854C251.921 150.255 251.54 150.577 251.088 150.823C250.636 151.055 250.19 151.172 249.751 151.172H248.55ZM249.945 149.157C250.423 149.157 250.849 149.034 251.224 148.789C251.598 148.543 251.87 148.214 252.037 147.8V147.471C251.831 147.316 251.54 147.193 251.166 147.103C250.804 147.013 250.416 146.967 250.003 146.967H248.783C248.473 146.967 248.221 147.045 248.027 147.2C247.833 147.355 247.736 147.561 247.736 147.82V148.324C247.736 148.569 247.84 148.769 248.046 148.924C248.266 149.079 248.55 149.157 248.899 149.157H249.945ZM260.099 151.017C259.724 151.017 259.408 150.92 259.149 150.726C258.904 150.519 258.691 150.196 258.51 149.757L255.178 141.349H257.948L260.234 147.994H260.273L262.579 141.349H265.349L261.455 151.017H260.099ZM269.588 151.172C268.774 151.172 268.051 151.023 267.418 150.726C266.798 150.416 266.313 149.99 265.965 149.447C265.616 148.892 265.442 148.259 265.442 147.549V145.049C265.442 144.287 265.616 143.616 265.965 143.034C266.313 142.453 266.798 142.001 267.418 141.678C268.051 141.355 268.774 141.194 269.588 141.194H271.138C272.378 141.194 273.372 141.543 274.121 142.24C274.87 142.937 275.245 143.867 275.245 145.03V147.084H268.076V147.549C268.076 147.975 268.212 148.317 268.483 148.575C268.755 148.834 269.123 148.963 269.588 148.963H271.099C271.551 148.963 271.913 148.866 272.184 148.672C272.468 148.466 272.61 148.201 272.61 147.878H275.206C275.206 148.524 275.032 149.099 274.683 149.602C274.334 150.106 273.844 150.493 273.211 150.765C272.591 151.036 271.874 151.172 271.06 151.172H269.588ZM272.649 145.185V145.03C272.649 144.526 272.513 144.126 272.242 143.829C271.971 143.519 271.609 143.364 271.157 143.364H269.588C269.123 143.364 268.748 143.525 268.464 143.848C268.18 144.171 268.038 144.597 268.038 145.127V145.185H272.649ZM279.975 151.017C278.825 151.017 277.979 150.778 277.437 150.3C276.907 149.809 276.642 149.053 276.642 148.033V137.455H279.277V147.878C279.277 148.188 279.348 148.414 279.49 148.556C279.632 148.698 279.859 148.769 280.169 148.769H281.215V151.017H279.975ZM285.746 151.172C284.933 151.172 284.209 151.023 283.576 150.726C282.956 150.416 282.472 149.99 282.123 149.447C281.775 148.892 281.6 148.259 281.6 147.549V145.049C281.6 144.287 281.775 143.616 282.123 143.034C282.472 142.453 282.956 142.001 283.576 141.678C284.209 141.355 284.933 141.194 285.746 141.194H287.296C288.536 141.194 289.531 141.543 290.28 142.24C291.029 142.937 291.404 143.867 291.404 145.03V147.084H284.235V147.549C284.235 147.975 284.371 148.317 284.642 148.575C284.913 148.834 285.281 148.963 285.746 148.963H287.258C287.71 148.963 288.071 148.866 288.343 148.672C288.627 148.466 288.769 148.201 288.769 147.878H291.365C291.365 148.524 291.191 149.099 290.842 149.602C290.493 150.106 290.002 150.493 289.369 150.765C288.749 151.036 288.033 151.172 287.219 151.172H285.746ZM288.808 145.185V145.03C288.808 144.526 288.672 144.126 288.401 143.829C288.129 143.519 287.768 143.364 287.316 143.364H285.746C285.281 143.364 284.907 143.525 284.623 143.848C284.338 144.171 284.196 144.597 284.196 145.127V145.185H288.808ZM292.801 141.349H295.242V142.589C295.488 142.214 295.836 141.911 296.288 141.678C296.753 141.433 297.238 141.31 297.742 141.31H299.059V143.596H297.742C297.057 143.596 296.502 143.803 296.075 144.216C295.649 144.63 295.436 145.159 295.436 145.805V151.017H292.801V141.349ZM303.26 151.172C302.084 151.172 301.141 150.862 300.431 150.242C299.721 149.622 299.365 148.808 299.365 147.8H301.962C301.962 148.149 302.078 148.433 302.31 148.653C302.556 148.86 302.872 148.963 303.26 148.963H305.003C305.778 148.963 306.166 148.75 306.166 148.324V147.994C306.166 147.865 306.101 147.749 305.972 147.645C305.843 147.529 305.668 147.452 305.449 147.413L302.097 146.832C301.309 146.703 300.683 146.425 300.218 145.999C299.766 145.559 299.54 145.049 299.54 144.468V143.829C299.54 143.002 299.876 142.356 300.547 141.891C301.232 141.426 302.181 141.194 303.395 141.194H304.906C305.991 141.194 306.863 141.484 307.522 142.066C308.194 142.634 308.529 143.39 308.529 144.332H305.933C305.933 144.048 305.836 143.822 305.643 143.654C305.462 143.486 305.216 143.402 304.906 143.402H303.434C302.594 143.402 302.175 143.596 302.175 143.984V144.294C302.175 144.436 302.226 144.558 302.33 144.662C302.446 144.752 302.607 144.817 302.814 144.856L306.34 145.495C307.076 145.624 307.671 145.902 308.123 146.328C308.575 146.741 308.801 147.213 308.801 147.742V148.44C308.801 149.279 308.452 149.945 307.754 150.435C307.07 150.926 306.153 151.172 305.003 151.172H303.26ZM309.301 149.699L314.532 143.577H309.534V141.349H318.291V142.666L313.06 148.789H318.194V151.017H309.301V149.699ZM322.794 151.172C321.98 151.172 321.257 151.023 320.624 150.726C320.004 150.416 319.52 149.99 319.171 149.447C318.822 148.892 318.648 148.259 318.648 147.549V145.049C318.648 144.287 318.822 143.616 319.171 143.034C319.52 142.453 320.004 142.001 320.624 141.678C321.257 141.355 321.98 141.194 322.794 141.194H324.344C325.584 141.194 326.578 141.543 327.327 142.24C328.077 142.937 328.451 143.867 328.451 145.03V147.084H321.283V147.549C321.283 147.975 321.418 148.317 321.69 148.575C321.961 148.834 322.329 148.963 322.794 148.963H324.305C324.757 148.963 325.119 148.866 325.39 148.672C325.674 148.466 325.816 148.201 325.816 147.878H328.412C328.412 148.524 328.238 149.099 327.889 149.602C327.541 150.106 327.05 150.493 326.417 150.765C325.797 151.036 325.08 151.172 324.266 151.172H322.794ZM325.855 145.185V145.03C325.855 144.526 325.719 144.126 325.448 143.829C325.177 143.519 324.815 143.364 324.363 143.364H322.794C322.329 143.364 321.954 143.525 321.67 143.848C321.386 144.171 321.244 144.597 321.244 145.127V145.185H325.855ZM333.297 151.172C332.148 151.172 331.218 150.823 330.507 150.125C329.81 149.428 329.461 148.511 329.461 147.374V145.166C329.461 144.378 329.629 143.687 329.965 143.092C330.301 142.485 330.772 142.02 331.379 141.698C331.986 141.362 332.69 141.194 333.491 141.194H334.557C334.931 141.194 335.312 141.278 335.7 141.446C336.087 141.601 336.41 141.814 336.668 142.085V137.455H339.303V151.017H336.862V149.738C336.604 150.164 336.255 150.513 335.816 150.784C335.377 151.042 334.918 151.172 334.44 151.172H333.297ZM334.731 148.905C335.26 148.905 335.7 148.718 336.048 148.343C336.41 147.955 336.617 147.445 336.668 146.812V145.127C336.578 144.623 336.378 144.223 336.068 143.926C335.771 143.616 335.415 143.461 335.002 143.461H333.82C333.304 143.461 332.884 143.635 332.561 143.984C332.251 144.332 332.096 144.791 332.096 145.359V147.18C332.096 147.697 332.238 148.117 332.522 148.44C332.806 148.75 333.174 148.905 333.627 148.905H334.731Z" fill="#F2F2F2"/>
<rect x="44.9941" y="122.775" width="323.962" height="69.5166" rx="13.8389" fill="#1C1C1C"/>
<rect x="45.6861" y="123.467" width="322.578" height="68.1327" rx="13.1469" stroke="#EBEAE7" stroke-opacity="0.15" stroke-width="1.38389"/>
<path d="M82.6818 169.842C82.4252 169.842 82.1568 169.795 81.9118 169.69C81.3635 169.457 80.9435 169.002 80.7568 168.43L80.2435 166.89C80.0102 166.19 80.2202 165.315 80.7335 164.79L83.3818 162.13C83.4168 162.095 83.4635 161.967 83.4635 161.908V159.027L78.1435 161.325C77.4318 161.628 76.7085 161.593 76.1602 161.232C75.6118 160.87 75.2852 160.217 75.2852 159.458V157.953C75.2852 156.81 76.1018 155.585 77.1402 155.177L83.4518 152.447V149.133C83.4518 147.722 84.4435 146.1 85.7035 145.447C86.3102 145.143 87.0102 145.143 87.6052 145.447C88.8768 146.1 89.8685 147.71 89.8685 149.122V152.435L96.2152 155.165C97.2535 155.608 98.0468 156.798 98.0468 157.953V159.458C98.0468 160.228 97.7318 160.87 97.1718 161.232C96.6118 161.593 95.9002 161.628 95.1885 161.337L89.8685 159.038V161.92C89.8685 161.967 89.9152 162.083 89.9502 162.118L92.6102 164.79C93.1235 165.303 93.3335 166.202 93.1002 166.89L92.5868 168.43C92.3885 169.002 91.9685 169.457 91.4085 169.678C90.8602 169.9 90.2535 169.877 89.7285 169.62C89.6702 169.585 89.6118 169.55 89.5535 169.503L86.8352 167.217C86.7418 167.135 86.5552 167.147 86.4735 167.217L83.7552 169.503C83.7085 169.55 83.6502 169.585 83.5918 169.608C83.3118 169.772 82.9968 169.842 82.6818 169.842ZM83.8252 157.113C84.0935 157.113 84.3502 157.183 84.5718 157.335C84.9802 157.603 85.2135 158.058 85.2135 158.595V161.92C85.2135 162.422 84.9685 163.017 84.6185 163.367L81.9702 166.027C81.9235 166.085 81.8768 166.26 81.9002 166.33L82.4135 167.882C82.4485 167.998 82.5302 168.045 82.5768 168.068C82.6118 168.08 82.6702 168.103 82.7402 168.08L85.3535 165.875C86.0885 165.245 87.2435 165.245 87.9785 165.875L90.5802 168.068C90.6618 168.08 90.7202 168.068 90.7552 168.057C90.8018 168.033 90.8952 167.987 90.9302 167.87L91.4435 166.33C91.4668 166.248 91.4202 166.073 91.3735 166.027L88.7252 163.367C88.3752 163.04 88.1185 162.433 88.1185 161.92V158.595C88.1185 158.07 88.3402 157.615 88.7368 157.347C89.1335 157.078 89.6468 157.043 90.1368 157.253L95.8768 159.727C96.0518 159.797 96.1685 159.797 96.2035 159.773C96.2385 159.75 96.2852 159.645 96.2852 159.458V157.953C96.2852 157.51 95.9118 156.938 95.5152 156.775L89.0052 153.963C88.4918 153.742 88.1302 153.182 88.1302 152.622V149.122C88.1302 148.352 87.5235 147.36 86.8235 147.01C86.7302 146.963 86.6135 146.963 86.5085 147.01C85.8318 147.36 85.2135 148.375 85.2135 149.133V152.633C85.2135 153.182 84.8518 153.753 84.3385 153.975L77.8285 156.787C77.4202 156.95 77.0468 157.522 77.0468 157.953V159.458C77.0468 159.645 77.0935 159.75 77.1285 159.773C77.1635 159.797 77.2802 159.797 77.4552 159.727L83.1835 157.253C83.3935 157.16 83.6152 157.113 83.8252 157.113Z" fill="white" fill-opacity="0.5"/>
<path d="M118.481 150.971H125.63C126.418 150.971 127.115 151.126 127.722 151.436C128.329 151.733 128.801 152.166 129.136 152.734C129.472 153.29 129.64 153.929 129.64 154.652V156.454C129.64 157.203 129.466 157.868 129.117 158.45C128.768 159.018 128.277 159.464 127.645 159.786C127.025 160.096 126.301 160.251 125.475 160.251H121.154V164.533H118.481V150.971ZM125.436 157.927C125.888 157.927 126.256 157.784 126.54 157.5C126.824 157.203 126.966 156.816 126.966 156.338V154.769C126.966 154.316 126.837 153.961 126.579 153.703C126.334 153.432 126.004 153.296 125.591 153.296H121.154V157.927H125.436ZM134.299 164.688C133.486 164.688 132.762 164.54 132.129 164.243C131.509 163.933 131.025 163.506 130.676 162.964C130.328 162.408 130.153 161.776 130.153 161.065V158.566C130.153 157.804 130.328 157.132 130.676 156.551C131.025 155.97 131.509 155.518 132.129 155.195C132.762 154.872 133.486 154.71 134.299 154.71H135.849C137.089 154.71 138.084 155.059 138.833 155.757C139.582 156.454 139.957 157.384 139.957 158.547V160.6H132.788V161.065C132.788 161.491 132.924 161.834 133.195 162.092C133.466 162.35 133.834 162.48 134.299 162.48H135.811C136.263 162.48 136.624 162.383 136.896 162.189C137.18 161.982 137.322 161.717 137.322 161.395H139.918C139.918 162.04 139.744 162.615 139.395 163.119C139.046 163.623 138.555 164.01 137.922 164.281C137.302 164.553 136.586 164.688 135.772 164.688H134.299ZM137.361 158.702V158.547C137.361 158.043 137.225 157.642 136.954 157.345C136.682 157.035 136.321 156.88 135.869 156.88H134.299C133.834 156.88 133.46 157.042 133.176 157.365C132.892 157.688 132.749 158.114 132.749 158.643V158.702H137.361ZM141.354 154.865H143.795V156.105C144.041 155.731 144.389 155.427 144.842 155.195C145.306 154.949 145.791 154.827 146.295 154.827H147.612V157.113H146.295C145.61 157.113 145.055 157.319 144.628 157.733C144.202 158.146 143.989 158.676 143.989 159.321V164.533H141.354V154.865ZM151.813 164.688C150.637 164.688 149.694 164.378 148.984 163.758C148.274 163.138 147.918 162.325 147.918 161.317H150.515C150.515 161.666 150.631 161.95 150.863 162.17C151.109 162.376 151.425 162.48 151.813 162.48H153.556C154.331 162.48 154.719 162.266 154.719 161.84V161.511C154.719 161.382 154.654 161.265 154.525 161.162C154.396 161.046 154.222 160.968 154.002 160.93L150.65 160.348C149.862 160.219 149.236 159.941 148.771 159.515C148.319 159.076 148.093 158.566 148.093 157.985V157.345C148.093 156.519 148.429 155.873 149.1 155.408C149.785 154.943 150.734 154.71 151.948 154.71H153.459C154.544 154.71 155.416 155.001 156.075 155.582C156.747 156.151 157.082 156.906 157.082 157.849H154.486C154.486 157.565 154.389 157.339 154.196 157.171C154.015 157.003 153.769 156.919 153.459 156.919H151.987C151.147 156.919 150.728 157.113 150.728 157.5V157.81C150.728 157.952 150.779 158.075 150.883 158.178C150.999 158.269 151.16 158.333 151.367 158.372L154.893 159.011C155.629 159.141 156.224 159.418 156.676 159.845C157.128 160.258 157.354 160.729 157.354 161.259V161.956C157.354 162.796 157.005 163.461 156.308 163.952C155.623 164.443 154.706 164.688 153.556 164.688H151.813ZM162.368 164.688C161.555 164.688 160.831 164.533 160.198 164.223C159.578 163.9 159.094 163.448 158.745 162.867C158.41 162.286 158.242 161.614 158.242 160.852V158.585C158.242 157.823 158.416 157.152 158.765 156.57C159.113 155.976 159.598 155.518 160.218 155.195C160.851 154.872 161.574 154.71 162.388 154.71H164.131C164.945 154.71 165.662 154.872 166.282 155.195C166.915 155.518 167.406 155.976 167.754 156.57C168.103 157.152 168.278 157.823 168.278 158.585V160.852C168.278 161.614 168.103 162.286 167.754 162.867C167.406 163.448 166.915 163.9 166.282 164.223C165.662 164.533 164.939 164.688 164.112 164.688H162.368ZM164.073 162.421C164.551 162.421 164.932 162.26 165.216 161.937C165.501 161.601 165.643 161.169 165.643 160.639V158.76C165.643 158.23 165.501 157.804 165.216 157.481C164.932 157.145 164.558 156.977 164.093 156.977H162.426C161.962 156.977 161.587 157.145 161.303 157.481C161.019 157.804 160.877 158.23 160.877 158.76V160.639C160.877 161.169 161.019 161.601 161.303 161.937C161.587 162.26 161.955 162.421 162.407 162.421H164.073ZM169.745 154.865H172.186V156.028C172.471 155.627 172.839 155.311 173.291 155.078C173.743 154.833 174.195 154.71 174.647 154.71H175.809C176.843 154.71 177.669 155.033 178.289 155.679C178.922 156.325 179.239 157.177 179.239 158.237V164.533H176.604V158.333C176.604 157.933 176.494 157.61 176.274 157.365C176.068 157.119 175.796 156.997 175.461 156.997H174.298C173.846 156.997 173.439 157.164 173.078 157.5C172.729 157.823 172.496 158.249 172.38 158.779V164.533H169.745V154.865ZM184.036 164.688C183.028 164.688 182.215 164.436 181.595 163.933C180.975 163.429 180.665 162.764 180.665 161.937V161.22C180.665 160.406 180.988 159.754 181.633 159.263C182.279 158.76 183.132 158.508 184.191 158.508H185.373C185.709 158.508 186.07 158.553 186.458 158.643C186.845 158.734 187.2 158.857 187.523 159.011V158.004C187.523 157.681 187.414 157.423 187.194 157.229C186.987 157.022 186.71 156.919 186.361 156.919H184.695C184.333 156.919 184.042 157.003 183.823 157.171C183.603 157.339 183.493 157.565 183.493 157.849H180.936C180.936 156.906 181.278 156.151 181.963 155.582C182.66 155.001 183.571 154.71 184.695 154.71H186.361C187.497 154.71 188.415 155.014 189.112 155.621C189.809 156.215 190.158 157.009 190.158 158.004V164.533H187.717V163.371C187.407 163.771 187.026 164.094 186.574 164.339C186.122 164.572 185.676 164.688 185.237 164.688H184.036ZM185.431 162.673C185.909 162.673 186.335 162.551 186.71 162.305C187.084 162.06 187.355 161.73 187.523 161.317V160.988C187.317 160.833 187.026 160.71 186.651 160.62C186.29 160.529 185.902 160.484 185.489 160.484H184.268C183.958 160.484 183.707 160.561 183.513 160.716C183.319 160.871 183.222 161.078 183.222 161.336V161.84C183.222 162.086 183.326 162.286 183.532 162.441C183.752 162.596 184.036 162.673 184.385 162.673H185.431ZM195.234 164.533C194.084 164.533 193.238 164.294 192.696 163.816C192.166 163.326 191.902 162.57 191.902 161.55V150.971H194.537V161.395C194.537 161.705 194.608 161.931 194.75 162.073C194.892 162.215 195.118 162.286 195.428 162.286H196.474V164.533H195.234ZM198.913 153.955C198.409 153.955 198.003 153.813 197.693 153.529C197.396 153.231 197.247 152.844 197.247 152.366C197.247 151.888 197.396 151.507 197.693 151.223C198.003 150.926 198.409 150.777 198.913 150.777C199.417 150.777 199.817 150.926 200.114 151.223C200.424 151.507 200.579 151.888 200.579 152.366C200.579 152.844 200.424 153.231 200.114 153.529C199.817 153.813 199.417 153.955 198.913 153.955ZM197.596 154.865H200.231V164.533H197.596V154.865ZM211.859 164.533C210.722 164.533 209.889 164.275 209.359 163.758C208.83 163.242 208.565 162.441 208.565 161.356V157.113H206.86V154.865H208.642V151.94H211.2V154.865H213.719V157.113H211.2V161.24C211.2 161.601 211.264 161.866 211.394 162.034C211.536 162.202 211.755 162.286 212.052 162.286H213.719V164.533H211.859ZM218.631 164.688C217.817 164.688 217.094 164.533 216.461 164.223C215.841 163.9 215.356 163.448 215.008 162.867C214.672 162.286 214.504 161.614 214.504 160.852V158.585C214.504 157.823 214.678 157.152 215.027 156.57C215.376 155.976 215.86 155.518 216.48 155.195C217.113 154.872 217.836 154.71 218.65 154.71H220.394C221.207 154.71 221.924 154.872 222.544 155.195C223.177 155.518 223.668 155.976 224.017 156.57C224.365 157.152 224.54 157.823 224.54 158.585V160.852C224.54 161.614 224.365 162.286 224.017 162.867C223.668 163.448 223.177 163.9 222.544 164.223C221.924 164.533 221.201 164.688 220.374 164.688H218.631ZM220.336 162.421C220.813 162.421 221.194 162.26 221.479 161.937C221.763 161.601 221.905 161.169 221.905 160.639V158.76C221.905 158.23 221.763 157.804 221.479 157.481C221.194 157.145 220.82 156.977 220.355 156.977H218.689C218.224 156.977 217.849 157.145 217.565 157.481C217.281 157.804 217.139 158.23 217.139 158.76V160.639C217.139 161.169 217.281 161.601 217.565 161.937C217.849 162.26 218.217 162.421 218.669 162.421H220.336ZM235.425 164.533C234.288 164.533 233.455 164.275 232.926 163.758C232.396 163.242 232.131 162.441 232.131 161.356V157.113H230.426V154.865H232.209V151.94H234.766V154.865H237.285V157.113H234.766V161.24C234.766 161.601 234.831 161.866 234.96 162.034C235.102 162.202 235.322 162.286 235.619 162.286H237.285V164.533H235.425ZM238.76 154.865H241.202V156.105C241.447 155.731 241.796 155.427 242.248 155.195C242.713 154.949 243.197 154.827 243.701 154.827H245.018V157.113H243.701C243.016 157.113 242.461 157.319 242.035 157.733C241.608 158.146 241.395 158.676 241.395 159.321V164.533H238.76V154.865ZM248.548 164.688C247.541 164.688 246.727 164.436 246.107 163.933C245.487 163.429 245.177 162.764 245.177 161.937V161.22C245.177 160.406 245.5 159.754 246.146 159.263C246.792 158.76 247.644 158.508 248.703 158.508H249.885C250.221 158.508 250.582 158.553 250.97 158.643C251.357 158.734 251.713 158.857 252.036 159.011V158.004C252.036 157.681 251.926 157.423 251.706 157.229C251.499 157.022 251.222 156.919 250.873 156.919H249.207C248.845 156.919 248.555 157.003 248.335 157.171C248.115 157.339 248.006 157.565 248.006 157.849H245.448C245.448 156.906 245.791 156.151 246.475 155.582C247.173 155.001 248.083 154.71 249.207 154.71H250.873C252.01 154.71 252.927 155.014 253.624 155.621C254.322 156.215 254.67 157.009 254.67 158.004V164.533H252.229V163.371C251.919 163.771 251.538 164.094 251.086 164.339C250.634 164.572 250.188 164.688 249.749 164.688H248.548ZM249.943 162.673C250.421 162.673 250.847 162.551 251.222 162.305C251.596 162.06 251.868 161.73 252.036 161.317V160.988C251.829 160.833 251.538 160.71 251.164 160.62C250.802 160.529 250.415 160.484 250.001 160.484H248.781C248.471 160.484 248.219 160.561 248.025 160.716C247.831 160.871 247.734 161.078 247.734 161.336V161.84C247.734 162.086 247.838 162.286 248.044 162.441C248.264 162.596 248.548 162.673 248.897 162.673H249.943ZM260.097 164.533C259.722 164.533 259.406 164.436 259.147 164.243C258.902 164.036 258.689 163.713 258.508 163.274L255.176 154.865H257.946L260.232 161.511H260.271L262.577 154.865H265.347L261.453 164.533H260.097ZM269.586 164.688C268.772 164.688 268.049 164.54 267.416 164.243C266.796 163.933 266.311 163.506 265.963 162.964C265.614 162.408 265.44 161.776 265.44 161.065V158.566C265.44 157.804 265.614 157.132 265.963 156.551C266.311 155.97 266.796 155.518 267.416 155.195C268.049 154.872 268.772 154.71 269.586 154.71H271.136C272.376 154.71 273.37 155.059 274.119 155.757C274.868 156.454 275.243 157.384 275.243 158.547V160.6H268.074V161.065C268.074 161.491 268.21 161.834 268.481 162.092C268.753 162.35 269.121 162.48 269.586 162.48H271.097C271.549 162.48 271.911 162.383 272.182 162.189C272.466 161.982 272.608 161.717 272.608 161.395H275.204C275.204 162.04 275.03 162.615 274.681 163.119C274.332 163.623 273.842 164.01 273.209 164.281C272.589 164.553 271.872 164.688 271.058 164.688H269.586ZM272.647 158.702V158.547C272.647 158.043 272.511 157.642 272.24 157.345C271.969 157.035 271.607 156.88 271.155 156.88H269.586C269.121 156.88 268.746 157.042 268.462 157.365C268.178 157.688 268.036 158.114 268.036 158.643V158.702H272.647ZM279.973 164.533C278.823 164.533 277.977 164.294 277.435 163.816C276.905 163.326 276.64 162.57 276.64 161.55V150.971H279.275V161.395C279.275 161.705 279.346 161.931 279.488 162.073C279.631 162.215 279.857 162.286 280.167 162.286H281.213V164.533H279.973ZM285.744 164.688C284.931 164.688 284.207 164.54 283.574 164.243C282.954 163.933 282.47 163.506 282.121 162.964C281.773 162.408 281.598 161.776 281.598 161.065V158.566C281.598 157.804 281.773 157.132 282.121 156.551C282.47 155.97 282.954 155.518 283.574 155.195C284.207 154.872 284.931 154.71 285.744 154.71H287.294C288.534 154.71 289.529 155.059 290.278 155.757C291.027 156.454 291.402 157.384 291.402 158.547V160.6H284.233V161.065C284.233 161.491 284.369 161.834 284.64 162.092C284.911 162.35 285.279 162.48 285.744 162.48H287.256C287.708 162.48 288.069 162.383 288.341 162.189C288.625 161.982 288.767 161.717 288.767 161.395H291.363C291.363 162.04 291.189 162.615 290.84 163.119C290.491 163.623 290 164.01 289.367 164.281C288.747 164.553 288.031 164.688 287.217 164.688H285.744ZM288.806 158.702V158.547C288.806 158.043 288.67 157.642 288.399 157.345C288.127 157.035 287.766 156.88 287.314 156.88H285.744C285.279 156.88 284.905 157.042 284.621 157.365C284.337 157.688 284.194 158.114 284.194 158.643V158.702H288.806ZM292.799 154.865H295.24V156.105C295.486 155.731 295.834 155.427 296.287 155.195C296.751 154.949 297.236 154.827 297.74 154.827H299.057V157.113H297.74C297.055 157.113 296.5 157.319 296.073 157.733C295.647 158.146 295.434 158.676 295.434 159.321V164.533H292.799V154.865ZM303.258 164.688C302.082 164.688 301.139 164.378 300.429 163.758C299.719 163.138 299.363 162.325 299.363 161.317H301.96C301.96 161.666 302.076 161.95 302.308 162.17C302.554 162.376 302.87 162.48 303.258 162.48H305.001C305.776 162.48 306.164 162.266 306.164 161.84V161.511C306.164 161.382 306.099 161.265 305.97 161.162C305.841 161.046 305.667 160.968 305.447 160.93L302.095 160.348C301.307 160.219 300.681 159.941 300.216 159.515C299.764 159.076 299.538 158.566 299.538 157.985V157.345C299.538 156.519 299.874 155.873 300.545 155.408C301.23 154.943 302.179 154.71 303.393 154.71H304.904C305.989 154.71 306.861 155.001 307.52 155.582C308.192 156.151 308.527 156.906 308.527 157.849H305.931C305.931 157.565 305.834 157.339 305.641 157.171C305.46 157.003 305.214 156.919 304.904 156.919H303.432C302.592 156.919 302.173 157.113 302.173 157.5V157.81C302.173 157.952 302.224 158.075 302.328 158.178C302.444 158.269 302.605 158.333 302.812 158.372L306.338 159.011C307.074 159.141 307.669 159.418 308.121 159.845C308.573 160.258 308.799 160.729 308.799 161.259V161.956C308.799 162.796 308.45 163.461 307.753 163.952C307.068 164.443 306.151 164.688 305.001 164.688H303.258ZM309.299 163.216L314.53 157.093H309.532V154.865H318.289V156.183L313.058 162.305H318.192V164.533H309.299V163.216ZM322.792 164.688C321.978 164.688 321.255 164.54 320.622 164.243C320.002 163.933 319.518 163.506 319.169 162.964C318.82 162.408 318.646 161.776 318.646 161.065V158.566C318.646 157.804 318.82 157.132 319.169 156.551C319.518 155.97 320.002 155.518 320.622 155.195C321.255 154.872 321.978 154.71 322.792 154.71H324.342C325.582 154.71 326.576 155.059 327.326 155.757C328.075 156.454 328.449 157.384 328.449 158.547V160.6H321.281V161.065C321.281 161.491 321.416 161.834 321.688 162.092C321.959 162.35 322.327 162.48 322.792 162.48H324.303C324.755 162.48 325.117 162.383 325.388 162.189C325.672 161.982 325.814 161.717 325.814 161.395H328.41C328.41 162.04 328.236 162.615 327.887 163.119C327.539 163.623 327.048 164.01 326.415 164.281C325.795 164.553 325.078 164.688 324.264 164.688H322.792ZM325.853 158.702V158.547C325.853 158.043 325.717 157.642 325.446 157.345C325.175 157.035 324.813 156.88 324.361 156.88H322.792C322.327 156.88 321.952 157.042 321.668 157.365C321.384 157.688 321.242 158.114 321.242 158.643V158.702H325.853ZM333.295 164.688C332.146 164.688 331.216 164.339 330.505 163.642C329.808 162.945 329.459 162.027 329.459 160.891V158.682C329.459 157.894 329.627 157.203 329.963 156.609C330.299 156.002 330.77 155.537 331.377 155.214C331.984 154.878 332.688 154.71 333.489 154.71H334.555C334.929 154.71 335.31 154.794 335.698 154.962C336.085 155.117 336.408 155.33 336.666 155.602V150.971H339.301V164.533H336.86V163.254C336.602 163.681 336.253 164.029 335.814 164.301C335.375 164.559 334.916 164.688 334.438 164.688H333.295ZM334.729 162.421C335.259 162.421 335.698 162.234 336.046 161.86C336.408 161.472 336.615 160.962 336.666 160.329V158.643C336.576 158.14 336.376 157.739 336.066 157.442C335.769 157.132 335.414 156.977 335 156.977H333.818C333.302 156.977 332.882 157.152 332.559 157.5C332.249 157.849 332.094 158.308 332.094 158.876V160.697C332.094 161.214 332.236 161.634 332.52 161.956C332.804 162.266 333.173 162.421 333.625 162.421H334.729Z" fill="#F2F2F2"/>
<g filter="url(#filter0_b_5426_3554)">
<rect x="178.951" y="0.5" width="56" height="56" rx="28" fill="#16BA7F" fill-opacity="0.15"/>
<rect x="179.451" y="1" width="55" height="55" rx="27.5" stroke="#16BA7F" stroke-opacity="0.5"/>
<path d="M205.88 39.25C205.4 39.25 204.92 39.13 204.48 38.89C203.59 38.39 203.06 37.5 203.06 36.49V31.14C203.06 30.63 202.73 29.88 202.42 29.49L198.62 25.5C197.99 24.87 197.5 23.77 197.5 22.96V20.64C197.5 19.03 198.72 17.77 200.27 17.77H213.61C215.14 17.77 216.38 19.01 216.38 20.54V22.76C216.38 23.81 215.75 25.02 215.15 25.61C214.86 25.9 214.38 25.9 214.09 25.61C213.8 25.32 213.8 24.84 214.09 24.55C214.46 24.18 214.88 23.35 214.88 22.76V20.54C214.88 19.84 214.31 19.27 213.61 19.27H200.27C199.56 19.27 199 19.87 199 20.64V22.96C199 23.33 199.3 24.06 199.69 24.45L203.54 28.5C204.05 29.13 204.55 30.19 204.55 31.14V36.49C204.55 37.15 205 37.47 205.2 37.58C205.63 37.82 206.14 37.81 206.54 37.57L207.94 36.67C208.23 36.5 208.51 35.95 208.51 35.58C208.51 35.17 208.85 34.83 209.26 34.83C209.67 34.83 210.01 35.17 210.01 35.58C210.01 36.48 209.45 37.51 208.74 37.94L207.35 38.84C206.9 39.11 206.39 39.25 205.88 39.25Z" fill="#16BA7F"/>
<path d="M211.02 33.7701C208.84 33.7701 207.07 32.0001 207.07 29.8201C207.07 27.6401 208.84 25.8701 211.02 25.8701C213.2 25.8701 214.97 27.6401 214.97 29.8201C214.97 32.0001 213.2 33.7701 211.02 33.7701ZM211.02 27.3701C209.67 27.3701 208.57 28.4701 208.57 29.8201C208.57 31.1701 209.67 32.2701 211.02 32.2701C212.37 32.2701 213.47 31.1701 213.47 29.8201C213.47 28.4701 212.37 27.3701 211.02 27.3701Z" fill="#16BA7F"/>
<path d="M214.822 34.3701C214.632 34.3701 214.442 34.3001 214.292 34.1501L213.292 33.1501C213.002 32.8601 213.002 32.3801 213.292 32.0901C213.582 31.8001 214.062 31.8001 214.352 32.0901L215.352 33.0901C215.642 33.3801 215.642 33.8601 215.352 34.1501C215.212 34.2901 215.012 34.3701 214.822 34.3701Z" fill="#16BA7F"/>
</g>
<line x1="207.951" y1="56.5" x2="207.951" y2="123.5" stroke="#16BA7F" stroke-opacity="0.5" stroke-width="2"/>
<defs>
<filter id="filter0_b_5426_3554" x="158.951" y="-19.5" width="96" height="96" filterUnits="userSpaceOnUse" color-interpolation-filters="sRGB">
<feFlood flood-opacity="0" result="BackgroundImageFix"/>
<feGaussianBlur in="BackgroundImageFix" stdDeviation="10"/>
<feComposite in2="SourceAlpha" operator="in" result="effect1_backgroundBlur_5426_3554"/>
<feBlend mode="normal" in="SourceGraphic" in2="effect1_backgroundBlur_5426_3554" result="shape"/>
</filter>
<clipPath id="clip0_5426_3554">
<rect x="128.977" y="68.7085" width="156" height="69.5166" rx="13.8389" fill="white"/>
</clipPath>
<clipPath id="clip1_5426_3554">
<rect x="103.977" y="82.2251" width="206" height="69.5166" rx="13.8389" fill="white"/>
</clipPath>
<clipPath id="clip2_5426_3554">
<rect x="81.9766" y="95.7417" width="250" height="69.5166" rx="13.8389" fill="white"/>
</clipPath>
</defs>
</svg>
