<svg width="164" height="163" viewBox="0 0 164 163" fill="none" xmlns="http://www.w3.org/2000/svg">
<rect x="0.63623" width="163" height="163" rx="32.6" fill="#FA467B"/>
<path fill-rule="evenodd" clip-rule="evenodd" d="M127.122 78.9137C131.283 79.2104 134.145 77.8967 137.522 75.1769C137.691 75.0389 139.198 70.5868 139.364 70.4436C139.384 70.4298 139.404 70.416 139.422 70.4022L142.137 60.4932C142.416 59.567 142.162 58.5685 141.47 57.8631L122.284 39.9931C121.927 39.6292 121.388 39.474 120.875 39.5912C120.363 39.7068 119.957 40.0759 119.813 40.5553L112.492 64.9509C112.213 65.8788 112.468 66.8791 113.162 67.5862L117.453 71.9428C126.99 78.9137 135.603 85.6253 127.122 78.9137Z" fill="#E9FC87"/>
<path fill-rule="evenodd" clip-rule="evenodd" d="M85.6591 116.925C84.6585 117.558 83.5212 118.291 82.8924 118.672C80.3171 120.233 77.1987 120.774 74.2061 120.181C73.2839 119.998 71.7876 119.795 70.5282 119.577C70.982 120.764 71.2226 122.018 71.2372 123.287L71.2426 123.875C71.7602 126.169 74.957 128.094 78.7279 128.28C82.774 128.48 85.9598 126.604 85.8359 124.093L85.6591 116.925Z" fill="#FF85D0"/>
<path fill-rule="evenodd" clip-rule="evenodd" d="M107.3 118.365C108.503 115.202 108.412 111.583 105.901 110.421L105.631 110.283C103.15 109.515 100.081 111.828 98.7636 115.471C97.4459 119.113 98.3754 122.721 100.834 123.552C100.847 123.556 100.86 123.561 100.872 123.565C103.564 124.272 106.088 121.548 107.3 118.365Z" fill="#FF85D0"/>
<path fill-rule="evenodd" clip-rule="evenodd" d="M108.089 103.347C107.916 103.481 107.732 103.609 107.539 103.724L100.825 107.796L105.902 110.418C108.414 111.58 108.505 115.199 107.302 118.362C110.778 117.215 112.919 114.678 112.088 112.682L108.089 103.347Z" fill="#FF85D0"/>
<path fill-rule="evenodd" clip-rule="evenodd" d="M129.922 75.3678C129.904 75.3816 129.883 75.3955 129.863 75.4092C129.698 75.5524 129.052 78.0031 128.883 78.1411C125.506 80.8609 121.507 81.7163 117.346 81.4197C117.308 81.4214 117.268 81.4231 117.229 81.4266L117.211 81.4094C114.213 81.1766 111.135 80.3504 108.148 79.1949L104.282 42.6904C104.03 40.3121 102.19 38.3579 99.7237 37.8492L75.5712 32.8579C72.5348 32.2302 69.3599 32.7752 66.75 34.3705L42.0161 49.5011C40.1789 50.6239 39.1601 52.6262 39.3788 54.6855L39.716 57.8813L37.8533 58.1572C34.7641 58.6177 32.526 61.191 32.6426 64.147L33.3607 82.4959C33.4555 84.8794 35.0174 86.9887 37.3521 87.8855C39.1729 88.5823 41.1977 88.4426 42.8635 87.5665C43.64 94.9464 44.5512 104.503 44.5512 104.503C44.7681 107.228 45.0798 109.408 45.4789 111.127C45.7979 112.505 46.3446 113.828 47.101 115.044C48.5062 117.305 51.4041 121.77 54.3858 125.301V134.486C54.3858 137.065 58.1894 139.157 62.8716 139.157C67.5538 139.157 71.3556 137.065 71.3556 134.486L71.2353 123.286C71.2207 122.017 70.9802 120.763 70.5264 119.577C71.7857 119.794 73.2821 119.997 74.2043 120.18C77.1969 120.773 80.3153 120.232 82.8906 118.671C83.5194 118.29 84.6567 117.557 85.6572 116.924C85.7356 116.874 85.814 116.826 85.8905 116.777C90.5672 119.575 95.5629 121.806 100.834 123.552C98.3751 122.721 97.4455 119.113 98.7632 115.47C100.081 111.828 103.15 109.515 105.631 110.282L100.823 107.799L107.537 103.727C107.73 103.611 107.914 103.484 108.087 103.349C109.587 102.187 110.391 100.383 110.194 98.5303C110.134 97.9543 110.065 96.9194 109.992 96.057C121.873 97.1246 133.293 92.756 137.946 86.5162C138.196 86.1833 139.918 84.4862 140.068 82.0993C140.312 78.2377 137.646 75.385 134.788 74.4917C133.919 74.2209 132.036 73.8604 129.922 75.3678Z" fill="#FF85D0"/>
<path fill-rule="evenodd" clip-rule="evenodd" d="M84.5472 34.7115L99.7237 37.8486C102.19 38.3574 104.03 40.3115 104.282 42.6899L105.266 51.9824C105.682 51.7617 106.573 51.246 107.111 50.6147C108.264 49.2591 108.499 46.9412 108.091 45.2424L106.657 39.4147L103.422 25.9898C102.908 23.8547 101.123 22.1989 98.8561 21.7557C96.5889 21.3124 94.256 22.161 92.8891 23.9288L84.5472 34.7115Z" fill="#FF85D0"/>
<path d="M86.1244 117.028C85.0291 117.692 84.0164 118.307 83.1214 118.85C80.5466 120.411 77.4273 120.954 74.4344 120.36C73.325 120.14 72.063 119.89 70.7038 119.62M39.9591 58.0638L39.6213 54.8685C39.4036 52.809 40.4223 50.8068 42.2593 49.6829C47.9873 46.1788 60.5086 38.5182 66.9956 34.55C69.6053 32.9533 72.7808 32.4078 75.8159 33.0348C82.2984 34.3737 93.8177 36.7532 99.9667 38.0229C102.433 38.532 104.274 40.4864 104.525 42.8644L108.384 79.369M110.166 96.2264L110.428 98.7042C110.647 100.772 109.62 102.781 107.77 103.903C106.033 104.956 103.675 106.386 101.055 107.975M56.7253 127.785C53.0843 124.184 49.0729 118.02 47.3342 115.228C46.5794 114.011 46.0319 112.689 45.7116 111.311C45.3165 109.591 45.0026 107.412 44.7855 104.687C44.7855 104.687 43.8865 95.2137 43.0978 87.753" stroke="#242728" stroke-width="1.91525" stroke-miterlimit="1.5" stroke-linejoin="round"/>
<path d="M94.395 44.7646C84.9409 50.4984 84.1638 50.9688 77.0153 55.3039C74.075 57.0863 70.5132 57.7055 67.0966 57.0287" stroke="#242728" stroke-width="1.91525" stroke-miterlimit="1.5" stroke-linejoin="round"/>
<path d="M105.281 52.2744C105.281 52.2744 106.635 51.6358 107.354 50.7913C108.508 49.4347 108.743 47.1161 108.334 45.4175L106.901 39.5892C105.913 35.4871 104.729 30.5719 103.669 26.1635C103.154 24.0275 101.369 22.3728 99.1028 21.9289C96.8355 21.4855 94.5046 22.3348 93.1359 24.1033C90.2156 27.8791 87.0264 32.001 84.6812 35.0327" stroke="#242728" stroke-width="1.91525" stroke-miterlimit="1.5" stroke-linejoin="round"/>
<path d="M58.5409 55.2878C58.5409 55.2878 45.6802 57.2021 38.0993 58.3309C35.01 58.7907 32.7722 61.3637 32.8876 64.3209C33.0728 69.0661 33.3573 76.2984 33.607 82.6698C33.6994 85.0526 35.2624 87.162 37.5985 88.058C39.9331 88.9536 42.607 88.469 44.4283 86.8202C48.3798 83.2404 51.9592 79.9967 51.9592 79.9967" stroke="#242728" stroke-width="1.91525" stroke-miterlimit="1.5" stroke-linejoin="round"/>
<path d="M33.2645 76.843C32.8833 76.6145 32.4706 76.4087 32.0197 76.2331C29.8336 75.3858 27.5031 75.9989 25.5643 75.8629" stroke="#242728" stroke-width="1.91525" stroke-miterlimit="1.5" stroke-linejoin="round"/>
<path fill-rule="evenodd" clip-rule="evenodd" d="M20.6512 76.4994C20.729 77.2274 23.9355 77.5136 24.7053 77.44C25.4751 77.3663 26.0369 76.7158 25.9592 75.9878C25.8812 75.2586 25.1932 74.7276 24.4234 74.8013C23.6536 74.875 20.5733 75.7703 20.6512 76.4994Z" fill="#FF85D0" stroke="#242728" stroke-width="1.91525" stroke-miterlimit="1.5" stroke-linejoin="round"/>
<path d="M103.771 77.3941C104.417 77.712 105.581 78.2335 107.676 79.0846C115.062 82.0844 123.09 83.1849 129.129 78.3188C129.299 78.1824 129.945 75.7299 130.11 75.5878C132.246 74.0318 134.156 74.3964 135.034 74.6708C137.891 75.5634 140.557 78.4169 140.315 82.2798C140.165 84.6669 138.442 86.3645 138.194 86.6971C130.882 96.5042 106.857 101.688 90.5935 88.4035" stroke="#242728" stroke-width="1.91525" stroke-miterlimit="1.5" stroke-linejoin="round"/>
<path d="M117.619 81.5878C115.027 81.7306 113.418 83.693 113.838 85.9496" stroke="#242728" stroke-width="1.91525" stroke-miterlimit="1.5" stroke-linejoin="round"/>
<path fill-rule="evenodd" clip-rule="evenodd" d="M91.4997 91.9897C92.6035 91.6069 93.8411 91.8811 94.6494 92.6876C97.8624 95.878 101.482 97.4358 105.282 98.2591C105.766 98.3672 106.108 98.7771 106.105 99.2479C106.103 99.7191 105.758 100.128 105.273 100.233C100.668 101.257 96.1241 100.883 91.64 99.0286C88.2087 97.6086 88.5802 93.0086 91.4997 91.9897Z" fill="white" stroke="#242728" stroke-width="1.91525" stroke-miterlimit="1.5" stroke-linejoin="round"/>
<path d="M94.0902 92.2502C92.4292 90.9947 91.6184 89.806 90.5863 88.4345" stroke="#242728" stroke-width="1.91525" stroke-miterlimit="1.5" stroke-linejoin="round"/>
<path d="M90.5774 98.5499C88.6066 97.7961 87.4709 96.8764 86.0678 95.8412" stroke="#242728" stroke-width="1.91525" stroke-miterlimit="1.5" stroke-linejoin="round"/>
<path d="M66.5095 111.119C66.5095 111.119 68.8798 115.85 70.3393 118.762C71.0743 120.231 71.4653 121.834 71.482 123.46C71.5251 127.398 71.6012 134.663 71.6012 134.663C71.6005 137.241 67.7991 139.334 63.116 139.335C58.4348 139.336 54.6333 137.244 54.634 134.666L54.6365 125.753" stroke="#242728" stroke-width="1.91525" stroke-miterlimit="1.5" stroke-linejoin="round"/>
<path d="M108.305 103.45L112.333 112.858C113.169 114.866 110.999 117.419 107.489 118.557" stroke="#242728" stroke-width="1.91525" stroke-miterlimit="1.5" stroke-linejoin="round"/>
<path d="M85.9028 117.22L86.081 124.266C86.2034 126.778 83.0183 128.655 78.9716 128.456C74.9264 128.256 71.5417 126.055 71.4193 123.543" stroke="#242728" stroke-width="1.91525" stroke-miterlimit="1.5" stroke-linejoin="round"/>
<path d="M105.917 110.466C103.43 109.66 100.334 111.979 99.0095 115.641C97.6852 119.303 98.6307 122.93 101.118 123.736" stroke="#242728" stroke-width="1.91525" stroke-miterlimit="1.5" stroke-linejoin="round"/>
<path d="M95.2749 104.981L106.144 110.595C111.181 112.926 106.479 125.15 101.115 123.741C93.3555 121.176 86.1898 117.56 79.7657 112.629" stroke="#242728" stroke-width="1.91525" stroke-miterlimit="1.5" stroke-linejoin="round"/>
<path d="M130.923 55.7449L134.214 59.0996" stroke="#242728" stroke-width="1.01875" stroke-miterlimit="1.5" stroke-linecap="round" stroke-linejoin="round"/>
<path d="M133.188 61.7253L136.479 65.0801" stroke="#242728" stroke-width="1.01875" stroke-miterlimit="1.5" stroke-linecap="round" stroke-linejoin="round"/>
<path d="M130.03 58.7351L131.683 60.4209" stroke="#242728" stroke-width="1.01875" stroke-miterlimit="1.5" stroke-linecap="round" stroke-linejoin="round"/>
<path d="M135.419 56.0749L138.709 59.4297" stroke="#242728" stroke-width="1.01875" stroke-miterlimit="1.5" stroke-linecap="round" stroke-linejoin="round"/>
<path d="M137.776 75.4259C137.776 75.4259 140.938 65.2486 142.259 60.9956C142.613 59.8555 142.317 58.6241 141.481 57.7394C139.097 55.2248 125.878 43.4341 122.987 40.3831C122.539 39.9123 121.857 39.707 121.205 39.845C120.552 39.9847 120.031 40.4486 119.84 41.0557C118.014 46.911 114.028 59.6943 112.537 64.4699C112.18 65.6168 112.48 66.8586 113.33 67.7451C114.882 69.3629 126.738 78.9146 126.738 78.9146" stroke="#242728" stroke-width="1.01875" stroke-miterlimit="1.5" stroke-linecap="round" stroke-linejoin="round"/>
<path d="M117.668 58.5818L115.416 65.9479L127.813 76.057L131.554 63.8191L128.945 63.7193L125.923 62.4162L124.259 61.3484L123.156 59.8696L120.673 59.9695L118.719 58.5696L117.668 58.5818Z" fill="#7CCFE1"/>
<path d="M129.995 68.9846L127.469 66.7032L125.627 64.2749L123.466 64.3497L120.672 63.8318L118.294 61.4041L116.551 61.7334L115.302 65.8251L127.836 76.0574L129.995 68.9846Z" fill="#432F94"/>
<path d="M115.933 63.7329L118.085 64.6326L119.861 66.5148L122.229 66.4586L123.636 67.609L125.471 67.2308C125.471 67.2308 126.902 69.2788 127.165 69.4934C127.427 69.708 129.555 70.5683 129.555 70.5683L127.853 76.0587L115.303 65.8002L115.933 63.734L115.933 63.7329Z" fill="#432F94"/>
<path d="M120.791 68.3583L123.051 69.5289L123.671 70.7159L125.618 70.7682L126.889 72.5796L128.947 72.5026L128.638 73.5166L127.864 76.0568L115.302 65.773L115.576 64.8718L120.791 68.3583Z" fill="#FA467B"/>
<path d="M127.783 76.1118L115.842 66.3772C115.542 66.133 115.391 65.6353 115.504 65.2655L119.82 51.1514" stroke="#1C1C1C" stroke-width="1.01875" stroke-miterlimit="10" stroke-linecap="round"/>
</svg>
