<svg width="414" height="176" viewBox="0 0 414 176" fill="none" xmlns="http://www.w3.org/2000/svg">
<g filter="url(#filter0_b_5618_5257)">
<path d="M53.4375 17.7479C53.4375 11.0351 58.8793 5.59326 65.5921 5.59326H348.456C355.168 5.59326 360.61 11.0351 360.61 17.7479V90.9867C360.61 97.6995 355.168 103.141 348.456 103.141H65.5921C58.8793 103.141 53.4375 97.6995 53.4375 90.9867V17.7479Z" fill="#1F1F1F"/>
<path d="M54.0452 17.7479C54.0452 11.3707 59.215 6.20099 65.5921 6.20099H348.456C354.833 6.20099 360.002 11.3707 360.002 17.7479V90.9867C360.002 97.3639 354.833 102.534 348.456 102.534H65.5921C59.215 102.534 54.0452 97.3639 54.0452 90.9867V17.7479Z" stroke="#EBEAE7" stroke-opacity="0.15" stroke-width="1.21546"/>
</g>
<g filter="url(#filter1_b_5618_5257)">
<rect x="27.1367" y="31.1411" width="359.777" height="97" rx="12.1546" fill="#282828"/>
<rect x="27.7445" y="31.7488" width="358.562" height="95.7845" rx="11.5469" stroke="#EBEAE7" stroke-opacity="0.15" stroke-width="1.21546"/>
</g>
<rect x="2.20898" y="56.1411" width="409.63" height="114.265" rx="13.8389" fill="#1C1C1C"/>
<rect x="2.90093" y="56.8331" width="408.246" height="112.881" rx="13.1469" stroke="#EBEAE7" stroke-opacity="0.15" stroke-width="1.38389"/>
<path d="M49.4916 98.5228H37.9592C37.0943 98.5228 36.46 98.4882 35.918 98.4075C32.0893 97.9923 31.3281 95.6974 31.3281 91.8917V89.5852C31.3281 85.7795 32.0893 83.4846 35.9526 83.0579C36.46 82.9887 37.0943 82.9541 37.9592 82.9541H49.4916C50.3566 82.9541 50.9908 82.9887 51.5329 83.0694C55.3731 83.4961 56.1227 85.7795 56.1227 89.5852V91.8917C56.1227 95.6974 55.3616 97.9923 51.4983 98.419C50.9908 98.4882 50.3566 98.5228 49.4916 98.5228ZM37.9592 84.684C37.175 84.684 36.6215 84.7186 36.1717 84.7762C33.8307 85.0415 33.058 85.768 33.058 89.5852V91.8917C33.058 95.7089 33.8307 96.4355 36.1371 96.7007C36.6215 96.7699 37.175 96.793 37.9592 96.793H49.4916C50.2758 96.793 50.8294 96.7584 51.2791 96.7007C53.6202 96.447 54.3929 95.7089 54.3929 91.8917V89.5852C54.3929 85.768 53.6202 85.0415 51.3137 84.7762C50.8294 84.707 50.2758 84.684 49.4916 84.684H37.9592Z" fill="#BCBCBC"/>
<path d="M47.5653 103.135H39.8847C36.3097 103.135 35.168 101.994 35.168 98.4303V98.0382C35.168 97.8421 35.168 97.6691 35.1795 97.4961C35.191 97.254 35.3064 97.0348 35.5024 96.8849C35.6869 96.735 35.9291 96.6658 36.1713 96.7004C36.6326 96.7696 37.1861 96.7927 37.9588 96.7927H49.4912C50.2754 96.7927 50.8289 96.7581 51.2787 96.7004C51.5209 96.6658 51.7631 96.735 51.9476 96.8849C52.1321 97.0348 52.2474 97.254 52.2705 97.4961C52.282 97.6807 52.282 97.8421 52.282 98.0382V98.4303C52.282 101.994 51.1403 103.135 47.5653 103.135ZM36.8978 98.4995C36.9094 101.025 37.313 101.406 39.8847 101.406H47.5653C50.137 101.406 50.5406 101.025 50.5522 98.4995C50.2408 98.511 49.8948 98.5225 49.4912 98.5225H37.9588C37.5552 98.5225 37.2092 98.511 36.8978 98.4995Z" fill="#BCBCBC"/>
<path d="M51.4056 84.7874C51.3594 84.7874 51.3248 84.7874 51.2787 84.7759C50.8174 84.7067 50.2639 84.6836 49.4912 84.6836H37.9588C37.1746 84.6836 36.621 84.7182 36.1713 84.7759C35.9291 84.8105 35.6869 84.7413 35.5024 84.5914C35.3179 84.4415 35.2026 84.2223 35.1795 83.9802C35.168 83.7956 35.168 83.6342 35.168 83.4381V83.046C35.168 79.4825 36.3097 78.3408 39.8847 78.3408H47.5653C51.1403 78.3408 52.282 79.4825 52.282 83.046V83.4381C52.282 83.6342 52.282 83.8072 52.2705 83.9802C52.259 84.2223 52.1436 84.4415 51.9476 84.5914C51.7977 84.7182 51.6016 84.7874 51.4056 84.7874ZM37.9588 82.9538H49.4912C49.8948 82.9538 50.2408 82.9653 50.5522 82.9768C50.5406 80.4512 50.137 80.0707 47.5653 80.0707H39.8847C37.313 80.0707 36.9094 80.4512 36.8978 82.9768C37.2092 82.9653 37.5552 82.9538 37.9588 82.9538Z" fill="#BCBCBC"/>
<path d="M75.3731 84.1762H82.5804C83.7557 84.1762 84.6986 84.4926 85.409 85.1255C86.1323 85.7584 86.494 86.5915 86.494 87.6248V88.9811C86.494 89.6527 86.3003 90.2404 85.9128 90.7441C85.5382 91.2349 84.9892 91.6095 84.2659 91.8678V91.9066C84.6793 92.1778 84.9892 92.4878 85.1959 92.8366C85.4155 93.1853 85.6286 93.6697 85.8353 94.2896L86.9202 97.7383H84.1497L83.1228 94.5221C82.9549 93.9667 82.7224 93.5534 82.4254 93.2822C82.1283 93.0109 81.7602 92.8753 81.321 92.8753H78.0468V97.7383H75.3731V84.1762ZM82.0766 90.5698C82.6191 90.5698 83.0454 90.4277 83.3553 90.1435C83.6653 89.8464 83.8203 89.4654 83.8203 89.0004V87.7411C83.8203 87.3665 83.7041 87.0694 83.4716 86.8499C83.2391 86.6174 82.9291 86.5011 82.5416 86.5011H78.0468V90.5698H82.0766ZM91.7974 97.8933C90.9837 97.8933 90.2604 97.7447 89.6275 97.4477C89.0075 97.1377 88.5232 96.7114 88.1744 96.169C87.8257 95.6136 87.6513 94.9807 87.6513 94.2703V91.771C87.6513 91.0089 87.8257 90.3373 88.1744 89.756C88.5232 89.1748 89.0075 88.7227 89.6275 88.3998C90.2604 88.0769 90.9837 87.9155 91.7974 87.9155H93.3474C94.5873 87.9155 95.5819 88.2642 96.331 88.9617C97.0802 89.6592 97.4548 90.5891 97.4548 91.7516V93.8053H90.2862V94.2703C90.2862 94.6965 90.4219 95.0388 90.6931 95.2971C90.9643 95.5554 91.3324 95.6846 91.7974 95.6846H93.3086C93.7607 95.6846 94.1224 95.5877 94.3936 95.394C94.6778 95.1873 94.8198 94.9225 94.8198 94.5996H97.416C97.416 95.2454 97.2416 95.8202 96.8929 96.3239C96.5442 96.8277 96.0533 97.2152 95.4204 97.4864C94.8005 97.7577 94.0836 97.8933 93.2699 97.8933H91.7974ZM94.8586 91.9066V91.7516C94.8586 91.2479 94.723 90.8475 94.4517 90.5504C94.1805 90.2404 93.8188 90.0854 93.3668 90.0854H91.7974C91.3324 90.0854 90.9579 90.2468 90.6737 90.5698C90.3896 90.8927 90.2475 91.3189 90.2475 91.8485V91.9066H94.8586ZM102.281 97.8933C101.106 97.8933 100.163 97.5833 99.4527 96.9633C98.7423 96.3433 98.3872 95.5296 98.3872 94.5221H100.983C100.983 94.8709 101.1 95.155 101.332 95.3746C101.577 95.5813 101.894 95.6846 102.281 95.6846H104.025C104.8 95.6846 105.188 95.4715 105.188 95.0452V94.7159C105.188 94.5867 105.123 94.4705 104.994 94.3671C104.865 94.2509 104.69 94.1734 104.471 94.1346L101.119 93.5534C100.331 93.4242 99.7046 93.1465 99.2396 92.7203C98.7876 92.2812 98.5615 91.771 98.5615 91.1897V90.5504C98.5615 89.7237 98.8973 89.0779 99.569 88.6129C100.254 88.148 101.203 87.9155 102.417 87.9155H103.928C105.013 87.9155 105.885 88.2061 106.544 88.7873C107.215 89.3556 107.551 90.1112 107.551 91.0541H104.955C104.955 90.77 104.858 90.5439 104.664 90.376C104.484 90.2081 104.238 90.1241 103.928 90.1241H102.456C101.616 90.1241 101.196 90.3179 101.196 90.7054V91.0154C101.196 91.1574 101.248 91.2801 101.351 91.3835C101.468 91.4739 101.629 91.5385 101.836 91.5772L105.362 92.2166C106.098 92.3457 106.692 92.6234 107.144 93.0497C107.596 93.463 107.822 93.9344 107.822 94.464V95.1615C107.822 96.001 107.474 96.6662 106.776 97.157C106.092 97.6479 105.175 97.8933 104.025 97.8933H102.281ZM112.857 97.8933C112.043 97.8933 111.319 97.7447 110.687 97.4477C110.067 97.1377 109.582 96.7114 109.233 96.169C108.885 95.6136 108.71 94.9807 108.71 94.2703V91.771C108.71 91.0089 108.885 90.3373 109.233 89.756C109.582 89.1748 110.067 88.7227 110.687 88.3998C111.319 88.0769 112.043 87.9155 112.857 87.9155H114.406C115.646 87.9155 116.641 88.2642 117.39 88.9617C118.139 89.6592 118.514 90.5891 118.514 91.7516V93.8053H111.345V94.2703C111.345 94.6965 111.481 95.0388 111.752 95.2971C112.023 95.5554 112.392 95.6846 112.857 95.6846H114.368C114.82 95.6846 115.181 95.5877 115.453 95.394C115.737 95.1873 115.879 94.9225 115.879 94.5996H118.475C118.475 95.2454 118.301 95.8202 117.952 96.3239C117.603 96.8277 117.112 97.2152 116.48 97.4864C115.86 97.7577 115.143 97.8933 114.329 97.8933H112.857ZM115.918 91.9066V91.7516C115.918 91.2479 115.782 90.8475 115.511 90.5504C115.24 90.2404 114.878 90.0854 114.426 90.0854H112.857C112.392 90.0854 112.017 90.2468 111.733 90.5698C111.449 90.8927 111.307 91.3189 111.307 91.8485V91.9066H115.918ZM119.911 88.0705H122.352V89.3104C122.598 88.9358 122.947 88.6323 123.399 88.3998C123.864 88.1544 124.348 88.0317 124.852 88.0317H126.169V90.3179H124.852C124.167 90.3179 123.612 90.5245 123.185 90.9379C122.759 91.3512 122.546 91.8808 122.546 92.5266V97.7383H119.911V88.0705ZM131.078 97.7383C130.703 97.7383 130.386 97.6414 130.128 97.4477C129.883 97.241 129.67 96.9181 129.489 96.4789L126.156 88.0705H128.927L131.213 94.7159H131.252L133.557 88.0705H136.328L132.434 97.7383H131.078ZM139.755 97.8933C138.748 97.8933 137.934 97.6414 137.314 97.1377C136.694 96.6339 136.384 95.9688 136.384 95.1421V94.4253C136.384 93.6115 136.707 92.9593 137.353 92.4684C137.999 91.9647 138.851 91.7128 139.91 91.7128H141.092C141.428 91.7128 141.79 91.758 142.177 91.8485C142.565 91.9389 142.92 92.0616 143.243 92.2166V91.2091C143.243 90.8862 143.133 90.6279 142.913 90.4341C142.707 90.2275 142.429 90.1241 142.08 90.1241H140.414C140.053 90.1241 139.762 90.2081 139.542 90.376C139.323 90.5439 139.213 90.77 139.213 91.0541H136.656C136.656 90.1112 136.998 89.3556 137.682 88.7873C138.38 88.2061 139.29 87.9155 140.414 87.9155H142.08C143.217 87.9155 144.134 88.219 144.832 88.8261C145.529 89.4202 145.878 90.2146 145.878 91.2091V97.7383H143.437V96.5758C143.127 96.9762 142.746 97.2991 142.293 97.5445C141.841 97.777 141.396 97.8933 140.957 97.8933H139.755ZM141.15 95.8783C141.628 95.8783 142.055 95.7556 142.429 95.5102C142.804 95.2648 143.075 94.9355 143.243 94.5221V94.1928C143.036 94.0378 142.746 93.9151 142.371 93.8247C142.009 93.7342 141.622 93.689 141.209 93.689H139.988C139.678 93.689 139.426 93.7665 139.232 93.9215C139.039 94.0765 138.942 94.2832 138.942 94.5415V95.0452C138.942 95.2906 139.045 95.4909 139.252 95.6458C139.471 95.8008 139.755 95.8783 140.104 95.8783H141.15ZM151.845 97.7383C150.708 97.7383 149.875 97.48 149.345 96.9633C148.816 96.4467 148.551 95.6458 148.551 94.5609V90.3179H146.846V88.0705H148.629V85.1449H151.186V88.0705H153.705V90.3179H151.186V94.4446C151.186 94.8063 151.251 95.0711 151.38 95.239C151.522 95.4069 151.741 95.4909 152.039 95.4909H153.705V97.7383H151.845ZM156.846 87.1599C156.343 87.1599 155.936 87.0178 155.626 86.7336C155.329 86.4365 155.18 86.0491 155.18 85.5712C155.18 85.0933 155.329 84.7122 155.626 84.4281C155.936 84.131 156.343 83.9825 156.846 83.9825C157.35 83.9825 157.751 84.131 158.048 84.4281C158.358 84.7122 158.513 85.0933 158.513 85.5712C158.513 86.0491 158.358 86.4365 158.048 86.7336C157.751 87.0178 157.35 87.1599 156.846 87.1599ZM155.529 88.0705H158.164V97.7383H155.529V88.0705ZM164.113 97.8933C163.3 97.8933 162.576 97.7383 161.944 97.4283C161.324 97.1054 160.839 96.6533 160.49 96.0721C160.155 95.4909 159.987 94.8192 159.987 94.0571V91.7903C159.987 91.0283 160.161 90.3566 160.51 89.7754C160.859 89.1813 161.343 88.7227 161.963 88.3998C162.596 88.0769 163.319 87.9155 164.133 87.9155H165.877C166.69 87.9155 167.407 88.0769 168.027 88.3998C168.66 88.7227 169.151 89.1813 169.5 89.7754C169.848 90.3566 170.023 91.0283 170.023 91.7903V94.0571C170.023 94.8192 169.848 95.4909 169.5 96.0721C169.151 96.6533 168.66 97.1054 168.027 97.4283C167.407 97.7383 166.684 97.8933 165.857 97.8933H164.113ZM165.818 95.6265C166.296 95.6265 166.677 95.465 166.961 95.1421C167.246 94.8063 167.388 94.3736 167.388 93.844V91.9647C167.388 91.4351 167.246 91.0089 166.961 90.686C166.677 90.3502 166.303 90.1823 165.838 90.1823H164.172C163.707 90.1823 163.332 90.3502 163.048 90.686C162.764 91.0089 162.622 91.4351 162.622 91.9647V93.844C162.622 94.3736 162.764 94.8063 163.048 95.1421C163.332 95.465 163.7 95.6265 164.152 95.6265H165.818ZM171.49 88.0705H173.931V89.2329C174.216 88.8325 174.584 88.5161 175.036 88.2836C175.488 88.0382 175.94 87.9155 176.392 87.9155H177.554C178.588 87.9155 179.414 88.2384 180.034 88.8842C180.667 89.53 180.984 90.3825 180.984 91.4416V97.7383H178.349V91.5385C178.349 91.1381 178.239 90.8152 178.019 90.5698C177.813 90.3243 177.542 90.2016 177.206 90.2016H176.043C175.591 90.2016 175.184 90.3696 174.823 90.7054C174.474 91.0283 174.241 91.4545 174.125 91.9841V97.7383H171.49V88.0705Z" fill="#F2F2F2"/>
<path d="M75.111 119.961H76.5779L79.8439 125.939L83.0268 119.961H84.4937V129.648H82.9022V122.964L80.6188 127.199C80.4897 127.42 80.3651 127.582 80.2452 127.683C80.1252 127.775 79.9915 127.821 79.8439 127.821H79.3872L76.6886 122.964V129.648H75.111V119.961ZM88.1673 129.759C87.4661 129.759 86.8987 129.584 86.4651 129.233C86.0407 128.873 85.8285 128.398 85.8285 127.808V127.309C85.8285 126.728 86.0499 126.262 86.4928 125.912C86.9448 125.561 87.5353 125.386 88.2642 125.386H89.1222C89.3805 125.386 89.6573 125.423 89.9525 125.497C90.2477 125.57 90.5107 125.667 90.7413 125.787V124.929C90.7413 124.643 90.649 124.412 90.4645 124.237C90.28 124.062 90.0401 123.974 89.7449 123.974H88.5824C88.278 123.974 88.0335 124.048 87.849 124.196C87.6645 124.334 87.5722 124.519 87.5722 124.749H86.0223C86.0223 124.113 86.2575 123.601 86.728 123.213C87.1986 122.826 87.8167 122.632 88.5824 122.632H89.7449C90.5199 122.632 91.1426 122.844 91.6132 123.268C92.0837 123.684 92.3189 124.237 92.3189 124.929V129.648H90.8382V128.776C90.6168 129.072 90.34 129.311 90.0078 129.496C89.6757 129.671 89.3482 129.759 89.0253 129.759H88.1673ZM89.1222 128.513C89.4912 128.513 89.8233 128.412 90.1186 128.209C90.4138 127.997 90.6214 127.72 90.7413 127.379V127.046C90.5845 126.917 90.363 126.816 90.077 126.742C89.791 126.659 89.4912 126.617 89.1775 126.617H88.3057C88.0289 126.617 87.8029 126.687 87.6276 126.825C87.4615 126.963 87.3785 127.143 87.3785 127.365V127.752C87.3785 127.983 87.4661 128.167 87.6414 128.306C87.8167 128.444 88.0473 128.513 88.3333 128.513H89.1222ZM93.7332 122.743H95.214V123.642C95.4169 123.338 95.6845 123.093 96.0166 122.909C96.3487 122.724 96.6809 122.632 97.013 122.632H97.871C98.5814 122.632 99.1488 122.858 99.5732 123.31C100.007 123.762 100.224 124.357 100.224 125.095V129.648H98.6322V125.137C98.6322 124.805 98.5445 124.537 98.3692 124.334C98.2032 124.122 97.9817 124.016 97.705 124.016H96.8469C96.4871 124.016 96.1642 124.154 95.8782 124.431C95.5922 124.698 95.4077 125.044 95.3247 125.469V129.648H93.7332V122.743ZM103.75 129.759C103.049 129.759 102.481 129.584 102.048 129.233C101.623 128.873 101.411 128.398 101.411 127.808V127.309C101.411 126.728 101.633 126.262 102.076 125.912C102.528 125.561 103.118 125.386 103.847 125.386H104.705C104.963 125.386 105.24 125.423 105.535 125.497C105.83 125.57 106.093 125.667 106.324 125.787V124.929C106.324 124.643 106.232 124.412 106.047 124.237C105.863 124.062 105.623 123.974 105.328 123.974H104.165C103.861 123.974 103.616 124.048 103.432 124.196C103.247 124.334 103.155 124.519 103.155 124.749H101.605C101.605 124.113 101.84 123.601 102.311 123.213C102.781 122.826 103.399 122.632 104.165 122.632H105.328C106.103 122.632 106.725 122.844 107.196 123.268C107.666 123.684 107.902 124.237 107.902 124.929V129.648H106.421V128.776C106.2 129.072 105.923 129.311 105.591 129.496C105.258 129.671 104.931 129.759 104.608 129.759H103.75ZM104.705 128.513C105.074 128.513 105.406 128.412 105.701 128.209C105.997 127.997 106.204 127.72 106.324 127.379V127.046C106.167 126.917 105.946 126.816 105.66 126.742C105.374 126.659 105.074 126.617 104.76 126.617H103.888C103.612 126.617 103.386 126.687 103.21 126.825C103.044 126.963 102.961 127.143 102.961 127.365V127.752C102.961 127.983 103.049 128.167 103.224 128.306C103.399 128.444 103.63 128.513 103.916 128.513H104.705ZM111.848 132.457C111.157 132.457 110.58 132.264 110.119 131.876C109.657 131.489 109.404 130.977 109.357 130.34H110.921C110.949 130.571 111.046 130.755 111.212 130.894C111.387 131.032 111.599 131.101 111.848 131.101H113.066C113.417 131.101 113.694 130.967 113.897 130.7C114.109 130.442 114.215 130.091 114.215 129.648V128.859C114.021 129.081 113.781 129.261 113.495 129.399C113.219 129.537 112.946 129.607 112.679 129.607H111.71C110.917 129.607 110.271 129.362 109.773 128.873C109.284 128.375 109.039 127.725 109.039 126.922V125.441C109.039 124.888 109.155 124.399 109.385 123.974C109.616 123.55 109.939 123.222 110.354 122.992C110.778 122.752 111.263 122.632 111.807 122.632H112.665C112.979 122.632 113.288 122.71 113.592 122.867C113.897 123.015 114.137 123.213 114.312 123.462V122.743H115.806V129.648C115.806 130.506 115.557 131.189 115.059 131.696C114.57 132.204 113.906 132.457 113.066 132.457H111.848ZM112.762 128.25C113.159 128.25 113.491 128.094 113.758 127.78C114.026 127.466 114.178 127.06 114.215 126.562V125.358C114.178 124.961 114.035 124.639 113.786 124.389C113.537 124.131 113.237 124.002 112.886 124.002H111.932C111.544 124.002 111.23 124.145 110.99 124.431C110.751 124.708 110.631 125.077 110.631 125.538V126.825C110.631 127.249 110.737 127.595 110.949 127.863C111.17 128.121 111.456 128.25 111.807 128.25H112.762ZM118.334 121.968C118.021 121.968 117.767 121.875 117.573 121.691C117.389 121.497 117.297 121.253 117.297 120.957C117.297 120.662 117.389 120.422 117.573 120.238C117.767 120.044 118.021 119.947 118.334 119.947C118.648 119.947 118.902 120.044 119.096 120.238C119.289 120.422 119.386 120.662 119.386 120.957C119.386 121.253 119.289 121.497 119.096 121.691C118.902 121.875 118.648 121.968 118.334 121.968ZM117.546 122.743H119.137V129.648H117.546V122.743ZM120.885 122.743H122.366V123.642C122.569 123.338 122.836 123.093 123.168 122.909C123.5 122.724 123.833 122.632 124.165 122.632H125.023C125.733 122.632 126.301 122.858 126.725 123.31C127.159 123.762 127.375 124.357 127.375 125.095V129.648H125.784V125.137C125.784 124.805 125.696 124.537 125.521 124.334C125.355 124.122 125.133 124.016 124.857 124.016H123.999C123.639 124.016 123.316 124.154 123.03 124.431C122.744 124.698 122.559 125.044 122.476 125.469V129.648H120.885V122.743ZM131.317 132.457C130.625 132.457 130.048 132.264 129.587 131.876C129.126 131.489 128.872 130.977 128.826 130.34H130.39C130.417 130.571 130.514 130.755 130.68 130.894C130.856 131.032 131.068 131.101 131.317 131.101H132.535C132.885 131.101 133.162 130.967 133.365 130.7C133.577 130.442 133.683 130.091 133.683 129.648V128.859C133.49 129.081 133.25 129.261 132.964 129.399C132.687 129.537 132.415 129.607 132.147 129.607H131.179C130.385 129.607 129.739 129.362 129.241 128.873C128.752 128.375 128.508 127.725 128.508 126.922V125.441C128.508 124.888 128.623 124.399 128.854 123.974C129.084 123.55 129.407 123.222 129.822 122.992C130.247 122.752 130.731 122.632 131.275 122.632H132.133C132.447 122.632 132.756 122.71 133.061 122.867C133.365 123.015 133.605 123.213 133.78 123.462V122.743H135.275V129.648C135.275 130.506 135.026 131.189 134.528 131.696C134.039 132.204 133.374 132.457 132.535 132.457H131.317ZM132.23 128.25C132.627 128.25 132.959 128.094 133.227 127.78C133.494 127.466 133.646 127.06 133.683 126.562V125.358C133.646 124.961 133.503 124.639 133.254 124.389C133.005 124.131 132.705 124.002 132.355 124.002H131.4C131.012 124.002 130.699 124.145 130.459 124.431C130.219 124.708 130.099 125.077 130.099 125.538V126.825C130.099 127.249 130.205 127.595 130.417 127.863C130.639 128.121 130.925 128.25 131.275 128.25H132.23ZM142.637 129.759C141.843 129.759 141.207 129.547 140.727 129.122C140.247 128.698 140.007 128.135 140.007 127.434H141.571C141.571 127.729 141.668 127.969 141.862 128.154C142.056 128.329 142.314 128.417 142.637 128.417H143.868C144.182 128.417 144.427 128.366 144.602 128.264C144.786 128.154 144.879 128.006 144.879 127.821V127.517C144.879 127.388 144.823 127.277 144.713 127.185C144.611 127.093 144.468 127.028 144.284 126.991L141.89 126.576C141.354 126.484 140.93 126.29 140.616 125.995C140.303 125.69 140.146 125.34 140.146 124.943V124.486C140.146 123.914 140.372 123.462 140.824 123.13C141.285 122.798 141.917 122.632 142.72 122.632H143.827C144.556 122.632 145.146 122.83 145.598 123.227C146.05 123.624 146.276 124.145 146.276 124.791H144.713C144.713 124.542 144.63 124.343 144.464 124.196C144.307 124.048 144.095 123.974 143.827 123.974H142.734C142.411 123.974 142.162 124.025 141.986 124.126C141.811 124.228 141.723 124.371 141.723 124.555V124.832C141.723 124.961 141.774 125.072 141.876 125.164C141.986 125.257 142.129 125.317 142.305 125.344L144.782 125.787C145.289 125.889 145.695 126.082 146 126.368C146.304 126.654 146.456 126.991 146.456 127.379V127.891C146.456 128.463 146.221 128.919 145.751 129.261C145.28 129.593 144.653 129.759 143.868 129.759H142.637ZM149.654 129.759C148.953 129.759 148.385 129.584 147.952 129.233C147.527 128.873 147.315 128.398 147.315 127.808V127.309C147.315 126.728 147.537 126.262 147.979 125.912C148.432 125.561 149.022 125.386 149.751 125.386H150.609C150.867 125.386 151.144 125.423 151.439 125.497C151.734 125.57 151.997 125.667 152.228 125.787V124.929C152.228 124.643 152.136 124.412 151.951 124.237C151.767 124.062 151.527 123.974 151.232 123.974H150.069C149.765 123.974 149.52 124.048 149.336 124.196C149.151 124.334 149.059 124.519 149.059 124.749H147.509C147.509 124.113 147.744 123.601 148.215 123.213C148.685 122.826 149.303 122.632 150.069 122.632H151.232C152.007 122.632 152.629 122.844 153.1 123.268C153.57 123.684 153.806 124.237 153.806 124.929V129.648H152.325V128.776C152.103 129.072 151.827 129.311 151.495 129.496C151.162 129.671 150.835 129.759 150.512 129.759H149.654ZM150.609 128.513C150.978 128.513 151.31 128.412 151.605 128.209C151.9 127.997 152.108 127.72 152.228 127.379V127.046C152.071 126.917 151.85 126.816 151.564 126.742C151.278 126.659 150.978 126.617 150.664 126.617H149.792C149.516 126.617 149.29 126.687 149.114 126.825C148.948 126.963 148.865 127.143 148.865 127.365V127.752C148.865 127.983 148.953 128.167 149.128 128.306C149.303 128.444 149.534 128.513 149.82 128.513H150.609ZM157.448 129.648C156.673 129.648 156.106 129.487 155.746 129.164C155.395 128.832 155.22 128.31 155.22 127.6V119.961H156.811V127.531C156.811 127.798 156.867 127.992 156.977 128.112C157.088 128.223 157.273 128.278 157.531 128.278H158.195V129.648H157.448ZM161.477 129.759C160.914 129.759 160.416 129.653 159.982 129.441C159.558 129.228 159.225 128.929 158.986 128.541C158.755 128.154 158.64 127.706 158.64 127.199V125.344C158.64 124.809 158.755 124.339 158.986 123.933C159.225 123.518 159.558 123.199 159.982 122.978C160.416 122.747 160.914 122.632 161.477 122.632H162.584C163.423 122.632 164.097 122.876 164.604 123.365C165.112 123.854 165.365 124.505 165.365 125.317V126.701H160.231V127.199C160.231 127.568 160.342 127.863 160.563 128.084C160.794 128.306 161.098 128.417 161.477 128.417H162.542C162.911 128.417 163.206 128.329 163.428 128.154C163.659 127.969 163.774 127.729 163.774 127.434H165.338C165.338 128.135 165.079 128.698 164.563 129.122C164.046 129.547 163.368 129.759 162.528 129.759H161.477ZM163.802 125.51V125.317C163.802 124.911 163.691 124.583 163.469 124.334C163.248 124.085 162.957 123.96 162.598 123.96H161.477C161.098 123.96 160.789 124.094 160.549 124.362C160.319 124.62 160.203 124.961 160.203 125.386V125.51H163.802ZM168.802 129.759C168.009 129.759 167.372 129.547 166.892 129.122C166.412 128.698 166.173 128.135 166.173 127.434H167.736C167.736 127.729 167.833 127.969 168.027 128.154C168.221 128.329 168.479 128.417 168.802 128.417H170.034C170.347 128.417 170.592 128.366 170.767 128.264C170.952 128.154 171.044 128.006 171.044 127.821V127.517C171.044 127.388 170.989 127.277 170.878 127.185C170.776 127.093 170.633 127.028 170.449 126.991L168.055 126.576C167.52 126.484 167.095 126.29 166.782 125.995C166.468 125.69 166.311 125.34 166.311 124.943V124.486C166.311 123.914 166.537 123.462 166.989 123.13C167.45 122.798 168.082 122.632 168.885 122.632H169.992C170.721 122.632 171.311 122.83 171.764 123.227C172.216 123.624 172.442 124.145 172.442 124.791H170.878C170.878 124.542 170.795 124.343 170.629 124.196C170.472 124.048 170.26 123.974 169.992 123.974H168.899C168.576 123.974 168.327 124.025 168.152 124.126C167.976 124.228 167.889 124.371 167.889 124.555V124.832C167.889 124.961 167.939 125.072 168.041 125.164C168.152 125.257 168.295 125.317 168.47 125.344L170.947 125.787C171.454 125.889 171.86 126.082 172.165 126.368C172.469 126.654 172.622 126.991 172.622 127.379V127.891C172.622 128.463 172.386 128.919 171.916 129.261C171.445 129.593 170.818 129.759 170.034 129.759H168.802ZM180.21 129.648C179.426 129.648 178.854 129.473 178.494 129.122C178.134 128.772 177.954 128.218 177.954 127.462V124.113H176.737V122.743H177.996V120.653H179.546V122.743H181.345V124.113H179.546V127.406C179.546 127.711 179.606 127.932 179.726 128.071C179.846 128.209 180.035 128.278 180.293 128.278H181.345V129.648H180.21ZM182.568 122.743H184.049V123.684C184.233 123.398 184.496 123.167 184.837 122.992C185.188 122.807 185.548 122.715 185.917 122.715H186.747V124.099H185.917C185.391 124.099 184.967 124.26 184.644 124.583C184.321 124.906 184.159 125.326 184.159 125.843V129.648H182.568V122.743ZM189.368 129.759C188.667 129.759 188.1 129.584 187.666 129.233C187.242 128.873 187.029 128.398 187.029 127.808V127.309C187.029 126.728 187.251 126.262 187.694 125.912C188.146 125.561 188.736 125.386 189.465 125.386H190.323C190.581 125.386 190.858 125.423 191.153 125.497C191.449 125.57 191.712 125.667 191.942 125.787V124.929C191.942 124.643 191.85 124.412 191.666 124.237C191.481 124.062 191.241 123.974 190.946 123.974H189.783C189.479 123.974 189.234 124.048 189.05 124.196C188.865 124.334 188.773 124.519 188.773 124.749H187.223C187.223 124.113 187.458 123.601 187.929 123.213C188.4 122.826 189.018 122.632 189.783 122.632H190.946C191.721 122.632 192.344 122.844 192.814 123.268C193.285 123.684 193.52 124.237 193.52 124.929V129.648H192.039V128.776C191.818 129.072 191.541 129.311 191.209 129.496C190.877 129.671 190.549 129.759 190.226 129.759H189.368ZM190.323 128.513C190.692 128.513 191.024 128.412 191.32 128.209C191.615 127.997 191.822 127.72 191.942 127.379V127.046C191.785 126.917 191.564 126.816 191.278 126.742C190.992 126.659 190.692 126.617 190.378 126.617H189.507C189.23 126.617 189.004 126.687 188.829 126.825C188.662 126.963 188.579 127.143 188.579 127.365V127.752C188.579 127.983 188.667 128.167 188.842 128.306C189.018 128.444 189.248 128.513 189.534 128.513H190.323ZM194.934 122.743H196.415V123.642C196.618 123.338 196.885 123.093 197.218 122.909C197.55 122.724 197.882 122.632 198.214 122.632H199.072C199.782 122.632 200.35 122.858 200.774 123.31C201.208 123.762 201.425 124.357 201.425 125.095V129.648H199.833V125.137C199.833 124.805 199.745 124.537 199.57 124.334C199.404 124.122 199.183 124.016 198.906 124.016H198.048C197.688 124.016 197.365 124.154 197.079 124.431C196.793 124.698 196.609 125.044 196.526 125.469V129.648H194.934V122.743ZM205.117 129.759C204.324 129.759 203.687 129.547 203.207 129.122C202.728 128.698 202.488 128.135 202.488 127.434H204.052C204.052 127.729 204.148 127.969 204.342 128.154C204.536 128.329 204.794 128.417 205.117 128.417H206.349C206.662 128.417 206.907 128.366 207.082 128.264C207.267 128.154 207.359 128.006 207.359 127.821V127.517C207.359 127.388 207.304 127.277 207.193 127.185C207.091 127.093 206.948 127.028 206.764 126.991L204.37 126.576C203.835 126.484 203.41 126.29 203.097 125.995C202.783 125.69 202.626 125.34 202.626 124.943V124.486C202.626 123.914 202.852 123.462 203.304 123.13C203.766 122.798 204.397 122.632 205.2 122.632H206.307C207.036 122.632 207.627 122.83 208.079 123.227C208.531 123.624 208.757 124.145 208.757 124.791H207.193C207.193 124.542 207.11 124.343 206.944 124.196C206.787 124.048 206.575 123.974 206.307 123.974H205.214C204.891 123.974 204.642 124.025 204.467 124.126C204.291 124.228 204.204 124.371 204.204 124.555V124.832C204.204 124.961 204.254 125.072 204.356 125.164C204.467 125.257 204.61 125.317 204.785 125.344L207.262 125.787C207.77 125.889 208.175 126.082 208.48 126.368C208.784 126.654 208.937 126.991 208.937 127.379V127.891C208.937 128.463 208.701 128.919 208.231 129.261C207.76 129.593 207.133 129.759 206.349 129.759H205.117ZM212.134 129.759C211.433 129.759 210.866 129.584 210.432 129.233C210.008 128.873 209.795 128.398 209.795 127.808V127.309C209.795 126.728 210.017 126.262 210.46 125.912C210.912 125.561 211.502 125.386 212.231 125.386H213.089C213.347 125.386 213.624 125.423 213.919 125.497C214.215 125.57 214.478 125.667 214.708 125.787V124.929C214.708 124.643 214.616 124.412 214.432 124.237C214.247 124.062 214.007 123.974 213.712 123.974H212.549C212.245 123.974 212 124.048 211.816 124.196C211.631 124.334 211.539 124.519 211.539 124.749H209.989C209.989 124.113 210.224 123.601 210.695 123.213C211.166 122.826 211.784 122.632 212.549 122.632H213.712C214.487 122.632 215.11 122.844 215.58 123.268C216.051 123.684 216.286 124.237 216.286 124.929V129.648H214.805V128.776C214.584 129.072 214.307 129.311 213.975 129.496C213.643 129.671 213.315 129.759 212.992 129.759H212.134ZM213.089 128.513C213.458 128.513 213.79 128.412 214.086 128.209C214.381 127.997 214.588 127.72 214.708 127.379V127.046C214.551 126.917 214.33 126.816 214.044 126.742C213.758 126.659 213.458 126.617 213.144 126.617H212.273C211.996 126.617 211.77 126.687 211.595 126.825C211.428 126.963 211.345 127.143 211.345 127.365V127.752C211.345 127.983 211.433 128.167 211.608 128.306C211.784 128.444 212.014 128.513 212.3 128.513H213.089ZM220.233 129.759C219.384 129.759 218.701 129.514 218.185 129.025C217.677 128.536 217.423 127.891 217.423 127.088V125.344C217.423 124.809 217.539 124.339 217.769 123.933C218 123.518 218.328 123.199 218.752 122.978C219.176 122.747 219.665 122.632 220.219 122.632H221.326C222.119 122.632 222.756 122.863 223.236 123.324C223.725 123.776 223.969 124.376 223.969 125.123H222.405C222.405 124.791 222.304 124.523 222.101 124.32C221.907 124.108 221.649 124.002 221.326 124.002H220.233C219.873 124.002 219.578 124.136 219.347 124.403C219.126 124.671 219.015 125.017 219.015 125.441V126.991C219.015 127.406 219.126 127.743 219.347 128.001C219.578 128.26 219.877 128.389 220.247 128.389H221.34C221.681 128.389 221.953 128.264 222.156 128.015C222.368 127.766 222.475 127.443 222.475 127.046H224.038C224.038 127.858 223.789 128.513 223.291 129.012C222.802 129.51 222.152 129.759 221.34 129.759H220.233ZM227.925 129.648C227.141 129.648 226.569 129.473 226.209 129.122C225.849 128.772 225.669 128.218 225.669 127.462V124.113H224.452V122.743H225.711V120.653H227.261V122.743H229.06V124.113H227.261V127.406C227.261 127.711 227.321 127.932 227.441 128.071C227.561 128.209 227.75 128.278 228.008 128.278H229.06V129.648H227.925ZM231.321 121.968C231.007 121.968 230.753 121.875 230.56 121.691C230.375 121.497 230.283 121.253 230.283 120.957C230.283 120.662 230.375 120.422 230.56 120.238C230.753 120.044 231.007 119.947 231.321 119.947C231.634 119.947 231.888 120.044 232.082 120.238C232.276 120.422 232.372 120.662 232.372 120.957C232.372 121.253 232.276 121.497 232.082 121.691C231.888 121.875 231.634 121.968 231.321 121.968ZM230.532 122.743H232.123V129.648H230.532V122.743ZM236.417 129.759C235.569 129.759 234.886 129.514 234.369 129.025C233.853 128.527 233.594 127.872 233.594 127.06V125.344C233.594 124.809 233.71 124.339 233.94 123.933C234.18 123.518 234.512 123.199 234.937 122.978C235.37 122.747 235.869 122.632 236.431 122.632H237.649C238.212 122.632 238.705 122.747 239.13 122.978C239.563 123.199 239.896 123.518 240.126 123.933C240.366 124.339 240.486 124.809 240.486 125.344V127.06C240.486 127.872 240.223 128.527 239.697 129.025C239.181 129.514 238.489 129.759 237.621 129.759H236.417ZM237.608 128.389C237.995 128.389 238.304 128.26 238.535 128.001C238.775 127.734 238.895 127.388 238.895 126.963V125.427C238.895 125.003 238.779 124.662 238.549 124.403C238.318 124.136 238.009 124.002 237.621 124.002H236.459C236.071 124.002 235.762 124.136 235.532 124.403C235.301 124.662 235.186 125.003 235.186 125.427V126.963C235.186 127.388 235.301 127.734 235.532 128.001C235.762 128.26 236.062 128.389 236.431 128.389H237.608ZM241.703 122.743H243.184V123.642C243.387 123.338 243.654 123.093 243.986 122.909C244.319 122.724 244.651 122.632 244.983 122.632H245.841C246.551 122.632 247.119 122.858 247.543 123.31C247.977 123.762 248.193 124.357 248.193 125.095V129.648H246.602V125.137C246.602 124.805 246.514 124.537 246.339 124.334C246.173 124.122 245.952 124.016 245.675 124.016H244.817C244.457 124.016 244.134 124.154 243.848 124.431C243.562 124.698 243.378 125.044 243.295 125.469V129.648H241.703V122.743ZM251.886 129.759C251.093 129.759 250.456 129.547 249.976 129.122C249.496 128.698 249.257 128.135 249.257 127.434H250.82C250.82 127.729 250.917 127.969 251.111 128.154C251.305 128.329 251.563 128.417 251.886 128.417H253.118C253.431 128.417 253.676 128.366 253.851 128.264C254.036 128.154 254.128 128.006 254.128 127.821V127.517C254.128 127.388 254.072 127.277 253.962 127.185C253.86 127.093 253.717 127.028 253.533 126.991L251.139 126.576C250.604 126.484 250.179 126.29 249.865 125.995C249.552 125.69 249.395 125.34 249.395 124.943V124.486C249.395 123.914 249.621 123.462 250.073 123.13C250.534 122.798 251.166 122.632 251.969 122.632H253.076C253.805 122.632 254.395 122.83 254.847 123.227C255.3 123.624 255.526 124.145 255.526 124.791H253.962C253.962 124.542 253.879 124.343 253.713 124.196C253.556 124.048 253.344 123.974 253.076 123.974H251.983C251.66 123.974 251.411 124.025 251.236 124.126C251.06 124.228 250.973 124.371 250.973 124.555V124.832C250.973 124.961 251.023 125.072 251.125 125.164C251.236 125.257 251.379 125.317 251.554 125.344L254.031 125.787C254.538 125.889 254.944 126.082 255.249 126.368C255.553 126.654 255.705 126.991 255.705 127.379V127.891C255.705 128.463 255.47 128.919 255 129.261C254.529 129.593 253.902 129.759 253.118 129.759H251.886ZM261.025 124.113H259.834V122.743H261.025V122.258C261.025 121.511 261.246 120.934 261.689 120.528C262.141 120.113 262.773 119.906 263.585 119.906H264.429V121.262H263.612C263.271 121.262 263.017 121.345 262.851 121.511C262.694 121.668 262.616 121.921 262.616 122.272V122.743H264.277V124.113H262.616V129.648H261.025V124.113ZM267.428 129.759C266.579 129.759 265.896 129.514 265.38 129.025C264.863 128.527 264.605 127.872 264.605 127.06V125.344C264.605 124.809 264.72 124.339 264.951 123.933C265.191 123.518 265.523 123.199 265.947 122.978C266.381 122.747 266.879 122.632 267.442 122.632H268.66C269.222 122.632 269.716 122.747 270.14 122.978C270.574 123.199 270.906 123.518 271.137 123.933C271.377 124.339 271.496 124.809 271.496 125.344V127.06C271.496 127.872 271.234 128.527 270.708 129.025C270.191 129.514 269.499 129.759 268.632 129.759H267.428ZM268.618 128.389C269.005 128.389 269.315 128.26 269.545 128.001C269.785 127.734 269.905 127.388 269.905 126.963V125.427C269.905 125.003 269.79 124.662 269.559 124.403C269.328 124.136 269.019 124.002 268.632 124.002H267.469C267.082 124.002 266.773 124.136 266.542 124.403C266.312 124.662 266.196 125.003 266.196 125.427V126.963C266.196 127.388 266.312 127.734 266.542 128.001C266.773 128.26 267.073 128.389 267.442 128.389H268.618ZM272.713 122.743H274.194V123.684C274.379 123.398 274.642 123.167 274.983 122.992C275.334 122.807 275.693 122.715 276.062 122.715H276.893V124.099H276.062C275.537 124.099 275.112 124.26 274.789 124.583C274.466 124.906 274.305 125.326 274.305 125.843V129.648H272.713V122.743ZM283.318 129.759C282.617 129.759 282.05 129.584 281.616 129.233C281.192 128.873 280.98 128.398 280.98 127.808V127.309C280.98 126.728 281.201 126.262 281.644 125.912C282.096 125.561 282.686 125.386 283.415 125.386H284.273C284.532 125.386 284.808 125.423 285.104 125.497C285.399 125.57 285.662 125.667 285.892 125.787V124.929C285.892 124.643 285.8 124.412 285.616 124.237C285.431 124.062 285.191 123.974 284.896 123.974H283.734C283.429 123.974 283.185 124.048 283 124.196C282.816 124.334 282.723 124.519 282.723 124.749H281.173C281.173 124.113 281.409 123.601 281.879 123.213C282.35 122.826 282.968 122.632 283.734 122.632H284.896C285.671 122.632 286.294 122.844 286.764 123.268C287.235 123.684 287.47 124.237 287.47 124.929V129.648H285.989V128.776C285.768 129.072 285.491 129.311 285.159 129.496C284.827 129.671 284.499 129.759 284.176 129.759H283.318ZM284.273 128.513C284.642 128.513 284.974 128.412 285.27 128.209C285.565 127.997 285.773 127.72 285.892 127.379V127.046C285.736 126.917 285.514 126.816 285.228 126.742C284.942 126.659 284.642 126.617 284.329 126.617H283.457C283.18 126.617 282.954 126.687 282.779 126.825C282.613 126.963 282.53 127.143 282.53 127.365V127.752C282.53 127.983 282.617 128.167 282.793 128.306C282.968 128.444 283.198 128.513 283.484 128.513H284.273ZM288.884 122.743H290.365V123.642C290.568 123.338 290.836 123.093 291.168 122.909C291.5 122.724 291.832 122.632 292.164 122.632H293.022C293.733 122.632 294.3 122.858 294.724 123.31C295.158 123.762 295.375 124.357 295.375 125.095V129.648H293.783V125.137C293.783 124.805 293.696 124.537 293.52 124.334C293.354 124.122 293.133 124.016 292.856 124.016H291.998C291.638 124.016 291.315 124.154 291.029 124.431C290.743 124.698 290.559 125.044 290.476 125.469V129.648H288.884V122.743ZM302.919 129.759C302.07 129.759 301.387 129.514 300.87 129.025C300.354 128.527 300.095 127.872 300.095 127.06V125.344C300.095 124.809 300.211 124.339 300.441 123.933C300.681 123.518 301.013 123.199 301.438 122.978C301.871 122.747 302.37 122.632 302.932 122.632H304.15C304.713 122.632 305.207 122.747 305.631 122.978C306.065 123.199 306.397 123.518 306.627 123.933C306.867 124.339 306.987 124.809 306.987 125.344V127.06C306.987 127.872 306.724 128.527 306.198 129.025C305.682 129.514 304.99 129.759 304.123 129.759H302.919ZM304.109 128.389C304.496 128.389 304.805 128.26 305.036 128.001C305.276 127.734 305.396 127.388 305.396 126.963V125.427C305.396 125.003 305.28 124.662 305.05 124.403C304.819 124.136 304.51 124.002 304.123 124.002H302.96C302.573 124.002 302.264 124.136 302.033 124.403C301.802 124.662 301.687 125.003 301.687 125.427V126.963C301.687 127.388 301.802 127.734 302.033 128.001C302.264 128.26 302.563 128.389 302.932 128.389H304.109ZM308.204 122.743H309.685V123.642C309.888 123.338 310.155 123.093 310.488 122.909C310.82 122.724 311.152 122.632 311.484 122.632H312.342C313.052 122.632 313.62 122.858 314.044 123.31C314.478 123.762 314.695 124.357 314.695 125.095V129.648H313.103V125.137C313.103 124.805 313.015 124.537 312.84 124.334C312.674 124.122 312.453 124.016 312.176 124.016H311.318C310.958 124.016 310.635 124.154 310.349 124.431C310.063 124.698 309.879 125.044 309.796 125.469V129.648H308.204V122.743ZM318.332 129.648C317.557 129.648 316.989 129.487 316.63 129.164C316.279 128.832 316.104 128.31 316.104 127.6V119.961H317.695V127.531C317.695 127.798 317.75 127.992 317.861 128.112C317.972 128.223 318.156 128.278 318.415 128.278H319.079V129.648H318.332ZM320.838 121.968C320.524 121.968 320.271 121.875 320.077 121.691C319.892 121.497 319.8 121.253 319.8 120.957C319.8 120.662 319.892 120.422 320.077 120.238C320.271 120.044 320.524 119.947 320.838 119.947C321.152 119.947 321.405 120.044 321.599 120.238C321.793 120.422 321.89 120.662 321.89 120.957C321.89 121.253 321.793 121.497 321.599 121.691C321.405 121.875 321.152 121.968 320.838 121.968ZM320.049 122.743H321.641V129.648H320.049V122.743ZM323.389 122.743H324.869V123.642C325.072 123.338 325.34 123.093 325.672 122.909C326.004 122.724 326.336 122.632 326.668 122.632H327.526C328.237 122.632 328.804 122.858 329.229 123.31C329.662 123.762 329.879 124.357 329.879 125.095V129.648H328.287V125.137C328.287 124.805 328.2 124.537 328.025 124.334C327.858 124.122 327.637 124.016 327.36 124.016H326.502C326.142 124.016 325.82 124.154 325.534 124.431C325.248 124.698 325.063 125.044 324.98 125.469V129.648H323.389V122.743ZM333.848 129.759C333.285 129.759 332.787 129.653 332.354 129.441C331.929 129.228 331.597 128.929 331.357 128.541C331.127 128.154 331.011 127.706 331.011 127.199V125.344C331.011 124.809 331.127 124.339 331.357 123.933C331.597 123.518 331.929 123.199 332.354 122.978C332.787 122.747 333.285 122.632 333.848 122.632H334.955C335.795 122.632 336.468 122.876 336.976 123.365C337.483 123.854 337.737 124.505 337.737 125.317V126.701H332.603V127.199C332.603 127.568 332.713 127.863 332.935 128.084C333.166 128.306 333.47 128.417 333.848 128.417H334.914C335.283 128.417 335.578 128.329 335.799 128.154C336.03 127.969 336.145 127.729 336.145 127.434H337.709C337.709 128.135 337.451 128.698 336.934 129.122C336.418 129.547 335.74 129.759 334.9 129.759H333.848ZM336.173 125.51V125.317C336.173 124.911 336.062 124.583 335.841 124.334C335.62 124.085 335.329 123.96 334.969 123.96H333.848C333.47 123.96 333.161 124.094 332.921 124.362C332.69 124.62 332.575 124.961 332.575 125.386V125.51H336.173ZM342.479 122.743H343.959V123.684C344.144 123.398 344.407 123.167 344.748 122.992C345.099 122.807 345.459 122.715 345.828 122.715H346.658V124.099H345.828C345.302 124.099 344.877 124.26 344.554 124.583C344.232 124.906 344.07 125.326 344.07 125.843V129.648H342.479V122.743ZM349.722 129.759C349.159 129.759 348.661 129.653 348.227 129.441C347.803 129.228 347.471 128.929 347.231 128.541C347 128.154 346.885 127.706 346.885 127.199V125.344C346.885 124.809 347 124.339 347.231 123.933C347.471 123.518 347.803 123.199 348.227 122.978C348.661 122.747 349.159 122.632 349.722 122.632H350.829C351.668 122.632 352.342 122.876 352.849 123.365C353.357 123.854 353.611 124.505 353.611 125.317V126.701H348.476V127.199C348.476 127.568 348.587 127.863 348.808 128.084C349.039 128.306 349.344 128.417 349.722 128.417H350.787C351.156 128.417 351.452 128.329 351.673 128.154C351.904 127.969 352.019 127.729 352.019 127.434H353.583C353.583 128.135 353.325 128.698 352.808 129.122C352.291 129.547 351.613 129.759 350.774 129.759H349.722ZM352.047 125.51V125.317C352.047 124.911 351.936 124.583 351.715 124.334C351.493 124.085 351.203 123.96 350.843 123.96H349.722C349.344 123.96 349.034 124.094 348.795 124.362C348.564 124.62 348.449 124.961 348.449 125.386V125.51H352.047ZM357.603 129.648C356.819 129.648 356.247 129.473 355.887 129.122C355.527 128.772 355.347 128.218 355.347 127.462V124.113H354.129V122.743H355.388V120.653H356.938V122.743H358.738V124.113H356.938V127.406C356.938 127.711 356.998 127.932 357.118 128.071C357.238 128.209 357.427 128.278 357.686 128.278H358.738V129.648H357.603ZM361.916 129.759C361.214 129.759 360.647 129.584 360.213 129.233C359.789 128.873 359.577 128.398 359.577 127.808V127.309C359.577 126.728 359.798 126.262 360.241 125.912C360.693 125.561 361.284 125.386 362.012 125.386H362.87C363.129 125.386 363.406 125.423 363.701 125.497C363.996 125.57 364.259 125.667 364.49 125.787V124.929C364.49 124.643 364.397 124.412 364.213 124.237C364.028 124.062 363.788 123.974 363.493 123.974H362.331C362.026 123.974 361.782 124.048 361.597 124.196C361.413 124.334 361.32 124.519 361.32 124.749H359.771C359.771 124.113 360.006 123.601 360.476 123.213C360.947 122.826 361.565 122.632 362.331 122.632H363.493C364.268 122.632 364.891 122.844 365.361 123.268C365.832 123.684 366.067 124.237 366.067 124.929V129.648H364.586V128.776C364.365 129.072 364.088 129.311 363.756 129.496C363.424 129.671 363.096 129.759 362.774 129.759H361.916ZM362.87 128.513C363.239 128.513 363.572 128.412 363.867 128.209C364.162 127.997 364.37 127.72 364.49 127.379V127.046C364.333 126.917 364.111 126.816 363.825 126.742C363.539 126.659 363.239 126.617 362.926 126.617H362.054C361.777 126.617 361.551 126.687 361.376 126.825C361.21 126.963 361.127 127.143 361.127 127.365V127.752C361.127 127.983 361.214 128.167 361.39 128.306C361.565 128.444 361.796 128.513 362.082 128.513H362.87ZM368.519 121.968C368.206 121.968 367.952 121.875 367.758 121.691C367.574 121.497 367.482 121.253 367.482 120.957C367.482 120.662 367.574 120.422 367.758 120.238C367.952 120.044 368.206 119.947 368.519 119.947C368.833 119.947 369.087 120.044 369.281 120.238C369.474 120.422 369.571 120.662 369.571 120.957C369.571 121.253 369.474 121.497 369.281 121.691C369.087 121.875 368.833 121.968 368.519 121.968ZM367.731 122.743H369.322V129.648H367.731V122.743ZM373.298 129.648C372.523 129.648 371.956 129.487 371.596 129.164C371.245 128.832 371.07 128.31 371.07 127.6V119.961H372.661V127.531C372.661 127.798 372.717 127.992 372.827 128.112C372.938 128.223 373.123 128.278 373.381 128.278H374.045V129.648H373.298ZM75.0556 139.743H76.5364V140.559C76.7301 140.282 76.9792 140.061 77.2837 139.895C77.5973 139.72 77.9018 139.632 78.197 139.632H79.1104C79.913 139.632 80.5589 139.876 81.0478 140.365C81.546 140.845 81.7951 141.482 81.7951 142.275V143.88C81.7951 144.748 81.5506 145.444 81.0617 145.97C80.5727 146.496 79.9223 146.759 79.1104 146.759H78.1832C77.9156 146.759 77.6389 146.694 77.3529 146.565C77.0669 146.427 76.8316 146.247 76.6471 146.025V149.416H75.0556V139.743ZM78.9443 145.389C79.3226 145.389 79.627 145.241 79.8577 144.946C80.0976 144.651 80.2175 144.263 80.2175 143.784V142.372C80.2175 141.966 80.1022 141.639 79.8715 141.389C79.6409 141.131 79.3364 141.002 78.9582 141.002H78.0725C77.7588 141.002 77.4682 141.126 77.2006 141.376C76.9423 141.615 76.7578 141.929 76.6471 142.317V143.922C76.6932 144.356 76.8454 144.711 77.1038 144.988C77.3713 145.255 77.6896 145.389 78.0586 145.389H78.9443ZM85.2372 146.648C84.4622 146.648 83.8949 146.487 83.535 146.164C83.1845 145.832 83.0092 145.31 83.0092 144.6V136.961H84.6006V144.531C84.6006 144.798 84.656 144.992 84.7667 145.112C84.8774 145.223 85.0619 145.278 85.3203 145.278H85.9845V146.648H85.2372ZM88.823 146.759C88.1218 146.759 87.5544 146.584 87.1208 146.233C86.6964 145.873 86.4842 145.398 86.4842 144.808V144.309C86.4842 143.728 86.7057 143.262 87.1485 142.912C87.6006 142.561 88.191 142.386 88.9199 142.386H89.7779C90.0362 142.386 90.313 142.423 90.6082 142.497C90.9034 142.57 91.1664 142.667 91.397 142.787V141.929C91.397 141.643 91.3048 141.412 91.1203 141.237C90.9357 141.062 90.6959 140.974 90.4006 140.974H89.2382C88.9337 140.974 88.6892 141.048 88.5047 141.196C88.3202 141.334 88.2279 141.519 88.2279 141.749H86.678C86.678 141.113 86.9132 140.601 87.3838 140.213C87.8543 139.826 88.4724 139.632 89.2382 139.632H90.4006C91.1756 139.632 91.7984 139.844 92.2689 140.268C92.7394 140.684 92.9747 141.237 92.9747 141.929V146.648H91.4939V145.776C91.2725 146.072 90.9957 146.311 90.6636 146.496C90.3314 146.671 90.0039 146.759 89.681 146.759H88.823ZM89.7779 145.513C90.1469 145.513 90.4791 145.412 90.7743 145.209C91.0695 144.997 91.2771 144.72 91.397 144.379V144.046C91.2402 143.917 91.0188 143.816 90.7328 143.742C90.4468 143.659 90.1469 143.617 89.8332 143.617H88.9614C88.6846 143.617 88.4586 143.687 88.2833 143.825C88.1172 143.963 88.0342 144.143 88.0342 144.365V144.752C88.0342 144.983 88.1218 145.167 88.2971 145.306C88.4724 145.444 88.7031 145.513 88.9891 145.513H89.7779ZM97.3089 146.648C96.5247 146.648 95.9527 146.473 95.5929 146.122C95.2331 145.772 95.0532 145.218 95.0532 144.462V141.113H93.8354V139.743H95.0947V137.653H96.6447V139.743H98.4437V141.113H96.6447V144.406C96.6447 144.711 96.7046 144.932 96.8246 145.071C96.9445 145.209 97.1336 145.278 97.392 145.278H98.4437V146.648H97.3089ZM100.317 141.113H99.1269V139.743H100.317V139.258C100.317 138.511 100.538 137.934 100.981 137.528C101.433 137.113 102.065 136.906 102.877 136.906H103.721V138.262H102.905C102.564 138.262 102.31 138.345 102.144 138.511C101.987 138.668 101.909 138.921 101.909 139.272V139.743H103.569V141.113H101.909V146.648H100.317V141.113ZM106.72 146.759C105.872 146.759 105.189 146.514 104.672 146.025C104.156 145.527 103.897 144.872 103.897 144.06V142.344C103.897 141.809 104.013 141.339 104.243 140.933C104.483 140.518 104.815 140.199 105.24 139.978C105.673 139.747 106.171 139.632 106.734 139.632H107.952C108.515 139.632 109.008 139.747 109.433 139.978C109.866 140.199 110.198 140.518 110.429 140.933C110.669 141.339 110.789 141.809 110.789 142.344V144.06C110.789 144.872 110.526 145.527 110 146.025C109.483 146.514 108.792 146.759 107.924 146.759H106.72ZM107.91 145.389C108.298 145.389 108.607 145.26 108.838 145.001C109.078 144.734 109.197 144.388 109.197 143.963V142.427C109.197 142.003 109.082 141.662 108.852 141.403C108.621 141.136 108.312 141.002 107.924 141.002H106.762C106.374 141.002 106.065 141.136 105.835 141.403C105.604 141.662 105.489 142.003 105.489 142.427V143.963C105.489 144.388 105.604 144.734 105.835 145.001C106.065 145.26 106.365 145.389 106.734 145.389H107.91ZM112.006 139.743H113.487V140.684C113.671 140.398 113.934 140.167 114.275 139.992C114.626 139.807 114.986 139.715 115.355 139.715H116.185V141.099H115.355C114.829 141.099 114.405 141.26 114.082 141.583C113.759 141.906 113.597 142.326 113.597 142.843V146.648H112.006V139.743ZM124.683 139.632C125.356 139.632 125.891 139.849 126.288 140.282C126.694 140.716 126.897 141.297 126.897 142.026V146.648H125.305V142.012C125.305 141.708 125.236 141.468 125.098 141.293C124.959 141.108 124.775 141.016 124.544 141.016H123.88C123.576 141.016 123.317 141.126 123.105 141.348C122.893 141.56 122.754 141.851 122.69 142.22V146.648H121.112V142.054C121.112 141.74 121.043 141.491 120.905 141.306C120.766 141.113 120.582 141.016 120.351 141.016H119.728C119.424 141.016 119.156 141.154 118.926 141.431C118.704 141.698 118.561 142.049 118.497 142.483V146.648H116.905V139.743H118.386V140.614C118.561 140.31 118.783 140.07 119.05 139.895C119.318 139.72 119.59 139.632 119.867 139.632H120.656C121.006 139.632 121.32 139.724 121.597 139.909C121.873 140.084 122.09 140.333 122.247 140.656C122.45 140.333 122.694 140.084 122.98 139.909C123.266 139.724 123.571 139.632 123.894 139.632H124.683ZM129.038 146.787C128.734 146.787 128.489 146.694 128.305 146.51C128.12 146.325 128.028 146.081 128.028 145.776C128.028 145.481 128.12 145.241 128.305 145.057C128.489 144.872 128.734 144.78 129.038 144.78C129.334 144.78 129.574 144.872 129.758 145.057C129.943 145.241 130.035 145.481 130.035 145.776C130.035 146.081 129.943 146.325 129.758 146.51C129.574 146.694 129.334 146.787 129.038 146.787Z" fill="#6E6E6E"/>
<defs>
<filter id="filter0_b_5618_5257" x="-73.88" y="-121.724" width="561.807" height="352.183" filterUnits="userSpaceOnUse" color-interpolation-filters="sRGB">
<feFlood flood-opacity="0" result="BackgroundImageFix"/>
<feGaussianBlur in="BackgroundImageFix" stdDeviation="63.6587"/>
<feComposite in2="SourceAlpha" operator="in" result="effect1_backgroundBlur_5618_5257"/>
<feBlend mode="normal" in="SourceGraphic" in2="effect1_backgroundBlur_5618_5257" result="shape"/>
</filter>
<filter id="filter1_b_5618_5257" x="-100.181" y="-96.1764" width="614.412" height="351.635" filterUnits="userSpaceOnUse" color-interpolation-filters="sRGB">
<feFlood flood-opacity="0" result="BackgroundImageFix"/>
<feGaussianBlur in="BackgroundImageFix" stdDeviation="63.6587"/>
<feComposite in2="SourceAlpha" operator="in" result="effect1_backgroundBlur_5618_5257"/>
<feBlend mode="normal" in="SourceGraphic" in2="effect1_backgroundBlur_5618_5257" result="shape"/>
</filter>
</defs>
</svg>
