<svg width="370" height="178" viewBox="0 0 370 178" fill="none" xmlns="http://www.w3.org/2000/svg">
<g filter="url(#filter0_b_5618_5184)">
<path d="M46.9902 11.2332C46.9902 5.18325 51.8947 0.278809 57.9446 0.278809H312.875C318.925 0.278809 323.83 5.18325 323.83 11.2332V77.2397C323.83 83.2896 318.925 88.1941 312.875 88.1941H57.9446C51.8947 88.1941 46.9902 83.2896 46.9902 77.2397V11.2332Z" fill="#1F1F1F"/>
<path d="M47.538 11.2332C47.538 5.48575 52.1972 0.826527 57.9446 0.826527H312.875C318.623 0.826527 323.282 5.48575 323.282 11.2332V77.2397C323.282 82.9872 318.623 87.6464 312.875 87.6464H57.9446C52.1972 87.6464 47.538 82.9872 47.538 77.2397V11.2332Z" stroke="#EBEAE7" stroke-opacity="0.15" stroke-width="1.09544"/>
</g>
<g filter="url(#filter1_b_5618_5184)">
<rect x="23.2852" y="23.3042" width="324.25" height="87.4213" rx="10.9544" fill="#282828"/>
<rect x="23.8329" y="23.8519" width="323.154" height="86.3259" rx="10.4067" stroke="#EBEAE7" stroke-opacity="0.15" stroke-width="1.09544"/>
</g>
<rect x="0.820312" y="45.8354" width="369.18" height="131.886" rx="12.4723" fill="#1C1C1C"/>
<rect x="1.44393" y="46.4591" width="367.932" height="130.639" rx="11.8487" stroke="#EBEAE7" stroke-opacity="0.15" stroke-width="1.24723"/>
<path d="M43.4343 84.0318H33.0408C32.2612 84.0318 31.6896 84.0006 31.2011 83.9279C27.7504 83.5537 27.0645 81.4854 27.0645 78.0555V75.9768C27.0645 72.5469 27.7504 70.4786 31.2323 70.094C31.6896 70.0317 32.2612 70.0005 33.0408 70.0005H43.4343C44.2138 70.0005 44.7855 70.0317 45.274 70.1044C48.735 70.489 49.4106 72.5469 49.4106 75.9768V78.0555C49.4106 81.4854 48.7247 83.5537 45.2428 83.9383C44.7855 84.0006 44.2138 84.0318 43.4343 84.0318ZM33.0408 71.5595C32.334 71.5595 31.8351 71.5907 31.4298 71.6427C29.3199 71.8817 28.6235 72.5365 28.6235 75.9768V78.0555C28.6235 81.4958 29.3199 82.1506 31.3986 82.3896C31.8351 82.452 32.334 82.4728 33.0408 82.4728H43.4343C44.1411 82.4728 44.64 82.4416 45.0453 82.3896C47.1552 82.161 47.8516 81.4958 47.8516 78.0555V75.9768C47.8516 72.5365 47.1552 71.8817 45.0765 71.6427C44.64 71.5803 44.1411 71.5595 43.4343 71.5595H33.0408Z" fill="#BCBCBC"/>
<path d="M41.6985 88.1898H34.7764C31.5544 88.1898 30.5254 87.1609 30.5254 83.9493V83.5959C30.5254 83.4192 30.5254 83.2633 30.5358 83.1074C30.5462 82.8891 30.6501 82.6916 30.8268 82.5565C30.9931 82.4214 31.2114 82.359 31.4296 82.3902C31.8454 82.4526 32.3443 82.4734 33.0406 82.4734H43.4342C44.141 82.4734 44.6399 82.4422 45.0452 82.3902C45.2635 82.359 45.4817 82.4214 45.648 82.5565C45.8143 82.6916 45.9183 82.8891 45.9391 83.1074C45.9494 83.2737 45.9494 83.4192 45.9494 83.5959V83.9493C45.9494 87.1609 44.9205 88.1898 41.6985 88.1898ZM32.0844 84.0116C32.0948 86.2878 32.4586 86.6308 34.7764 86.6308H41.6985C44.0162 86.6308 44.38 86.2878 44.3904 84.0116C44.1098 84.022 43.798 84.0324 43.4342 84.0324H33.0406C32.6769 84.0324 32.3651 84.022 32.0844 84.0116Z" fill="#BCBCBC"/>
<path d="M45.1595 71.6528C45.118 71.6528 45.0868 71.6528 45.0452 71.6424C44.6295 71.58 44.1306 71.5592 43.4342 71.5592H33.0406C32.3339 71.5592 31.835 71.5904 31.4296 71.6424C31.2114 71.6736 30.9931 71.6112 30.8268 71.4761C30.6605 71.341 30.5566 71.1435 30.5358 70.9252C30.5254 70.7589 30.5254 70.6134 30.5254 70.4367V70.0833C30.5254 66.8717 31.5544 65.8428 34.7764 65.8428H41.6985C44.9205 65.8428 45.9494 66.8717 45.9494 70.0833V70.4367C45.9494 70.6134 45.9494 70.7693 45.9391 70.9252C45.9287 71.1435 45.8247 71.341 45.648 71.4761C45.5129 71.5904 45.3362 71.6528 45.1595 71.6528ZM33.0406 70.0002H43.4342C43.798 70.0002 44.1098 70.0106 44.3904 70.021C44.38 67.7448 44.0162 67.4018 41.6985 67.4018H34.7764C32.4586 67.4018 32.0948 67.7448 32.0844 70.021C32.3651 70.0106 32.6769 70.0002 33.0406 70.0002Z" fill="#BCBCBC"/>
<path d="M66.7603 71.7933H68.9081L74.775 80.1048V71.7933H77.1323V84.0161H74.9846L69.1176 75.7046V84.0161H66.7603V71.7933ZM82.2619 84.1558C81.5285 84.1558 80.8767 84.0219 80.3063 83.7542C79.7475 83.4748 79.311 83.0907 78.9967 82.6018C78.6824 82.1012 78.5252 81.5308 78.5252 80.8906V78.6381C78.5252 77.9513 78.6824 77.3459 78.9967 76.8221C79.311 76.2983 79.7475 75.8908 80.3063 75.5998C80.8767 75.3088 81.5285 75.1633 82.2619 75.1633H83.6588C84.7763 75.1633 85.6727 75.4776 86.3478 76.1062C87.023 76.7348 87.3606 77.5729 87.3606 78.6206V80.4715H80.8999V80.8906C80.8999 81.2747 81.0222 81.5832 81.2666 81.816C81.5111 82.0488 81.8428 82.1652 82.2619 82.1652H83.6239C84.0313 82.1652 84.3573 82.0779 84.6017 81.9033C84.8578 81.7171 84.9859 81.4784 84.9859 81.1874H87.3257C87.3257 81.7694 87.1685 82.2875 86.8542 82.7414C86.5399 83.1954 86.0976 83.5447 85.5272 83.7891C84.9684 84.0336 84.3223 84.1558 83.589 84.1558H82.2619ZM85.0208 78.7603V78.6206C85.0208 78.1666 84.8986 77.8057 84.6541 77.538C84.4096 77.2586 84.0837 77.1189 83.6763 77.1189H82.2619C81.8428 77.1189 81.5053 77.2645 81.2492 77.5555C80.9931 77.8465 80.865 78.2306 80.865 78.7079V78.7603H85.0208ZM91.1169 84.0161C90.337 84.0161 89.8364 83.5621 89.6153 82.6541L87.8517 75.303H90.3137L91.3788 80.8382H91.4138L93.317 75.5125H94.2425C94.5102 75.5125 94.7256 75.5707 94.8885 75.6871C95.0515 75.8035 95.1796 75.984 95.2727 76.2284L96.8966 80.8382H96.9315L97.9792 75.303H100.441L98.7125 82.6541C98.503 83.5621 98.0025 84.0161 97.2109 84.0161H96.1283L94.1901 78.4984L92.1821 84.0161H91.1169ZM110.413 84.1558C109.494 84.1558 108.679 83.9637 107.969 83.5796C107.27 83.1838 106.723 82.6367 106.328 81.9382C105.943 81.2281 105.751 80.4075 105.751 79.4762V76.3332C105.751 75.4019 105.943 74.5871 106.328 73.8886C106.723 73.1785 107.27 72.6314 107.969 72.2473C108.679 71.8515 109.494 71.6536 110.413 71.6536H112.264C113.184 71.6536 113.993 71.8515 114.691 72.2473C115.402 72.6314 115.949 73.1785 116.333 73.8886C116.729 74.5871 116.926 75.4019 116.926 76.3332V79.4762C116.926 80.4075 116.729 81.2281 116.333 81.9382C115.949 82.6367 115.402 83.1838 114.691 83.5796C113.993 83.9637 113.184 84.1558 112.264 84.1558H110.413ZM112.264 82.0255C112.94 82.0255 113.481 81.7811 113.888 81.2922C114.307 80.8033 114.517 80.163 114.517 79.3714V76.438C114.517 75.6464 114.307 75.0061 113.888 74.5172C113.481 74.0283 112.94 73.7839 112.264 73.7839H110.413C109.738 73.7839 109.191 74.0283 108.772 74.5172C108.365 75.0061 108.161 75.6464 108.161 76.438V79.3714C108.161 80.163 108.365 80.8033 108.772 81.2922C109.191 81.7811 109.738 82.0255 110.413 82.0255H112.264ZM118.317 75.303H120.517V76.4205C120.738 76.0829 121.053 75.8094 121.46 75.5998C121.879 75.3786 122.316 75.2681 122.77 75.2681H123.957V77.3285H122.77C122.153 77.3285 121.652 77.5147 121.268 77.8872C120.884 78.2597 120.692 78.737 120.692 79.3191V84.0161H118.317V75.303ZM127.487 84.1558C126.451 84.1558 125.613 83.8415 124.973 83.2129C124.344 82.5843 124.03 81.7578 124.03 80.7334V78.7428C124.03 78.0327 124.181 77.41 124.484 76.8745C124.787 76.3274 125.212 75.9083 125.759 75.6173C126.306 75.3146 126.94 75.1633 127.662 75.1633H128.622C128.96 75.1633 129.303 75.239 129.653 75.3903C130.002 75.53 130.293 75.722 130.526 75.9665V71.7933H132.9V84.0161H130.7V82.8637C130.467 83.2478 130.153 83.5621 129.757 83.8066C129.362 84.0394 128.948 84.1558 128.518 84.1558H127.487ZM128.779 82.1128C129.257 82.1128 129.653 81.9441 129.967 81.6065C130.293 81.2572 130.479 80.7974 130.526 80.227V78.7079C130.444 78.2539 130.264 77.8931 129.984 77.6253C129.717 77.3459 129.396 77.2062 129.024 77.2062H127.959C127.493 77.2062 127.115 77.3634 126.824 77.6777C126.544 77.992 126.405 78.4052 126.405 78.9174V80.5588C126.405 81.0244 126.533 81.4028 126.789 81.6938C127.045 81.9732 127.377 82.1128 127.784 82.1128H128.779ZM137.956 84.1558C137.222 84.1558 136.57 84.0219 136 83.7542C135.441 83.4748 135.005 83.0907 134.69 82.6018C134.376 82.1012 134.219 81.5308 134.219 80.8906V78.6381C134.219 77.9513 134.376 77.3459 134.69 76.8221C135.005 76.2983 135.441 75.8908 136 75.5998C136.57 75.3088 137.222 75.1633 137.956 75.1633H139.353C140.47 75.1633 141.366 75.4776 142.042 76.1062C142.717 76.7348 143.054 77.5729 143.054 78.6206V80.4715H136.594V80.8906C136.594 81.2747 136.716 81.5832 136.96 81.816C137.205 82.0488 137.537 82.1652 137.956 82.1652H139.318C139.725 82.1652 140.051 82.0779 140.295 81.9033C140.552 81.7171 140.68 81.4784 140.68 81.1874H143.019C143.019 81.7694 142.862 82.2875 142.548 82.7414C142.234 83.1954 141.791 83.5447 141.221 83.7891C140.662 84.0336 140.016 84.1558 139.283 84.1558H137.956ZM140.714 78.7603V78.6206C140.714 78.1666 140.592 77.8057 140.348 77.538C140.103 77.2586 139.777 77.1189 139.37 77.1189H137.956C137.537 77.1189 137.199 77.2645 136.943 77.5555C136.687 77.8465 136.559 78.2306 136.559 78.7079V78.7603H140.714ZM144.314 75.303H146.514V76.4205C146.735 76.0829 147.049 75.8094 147.457 75.5998C147.876 75.3786 148.312 75.2681 148.766 75.2681H149.954V77.3285H148.766C148.149 77.3285 147.649 77.5147 147.265 77.8872C146.88 78.2597 146.688 78.737 146.688 79.3191V84.0161H144.314V75.303Z" fill="#F2F2F2"/>
<path d="M72.5965 108.495C73.5045 108.654 74.1979 108.939 74.6769 109.348C75.1558 109.747 75.3953 110.266 75.3953 110.904V111.892C75.3953 112.67 75.0959 113.304 74.4973 113.793C73.8986 114.282 73.1004 114.546 72.1026 114.586V115.993H70.0671V114.586C68.9995 114.576 68.1613 114.262 67.5527 113.643C66.954 113.025 66.6547 112.176 66.6547 111.099H68.6902C68.6902 111.618 68.8199 112.027 69.0793 112.326C69.3487 112.615 69.7179 112.76 70.1868 112.76H71.8481C72.2872 112.76 72.6414 112.67 72.9108 112.491C73.1902 112.301 73.3299 112.052 73.3299 111.742V111.233C73.3299 110.745 72.9706 110.44 72.2522 110.321L69.4984 109.857C68.6004 109.707 67.9169 109.423 67.4479 109.003C66.9889 108.574 66.7595 108.031 66.7595 107.372V106.534C66.7595 106.025 66.8942 105.571 67.1636 105.172C67.4429 104.773 67.8321 104.459 68.331 104.229C68.8299 104 69.4086 103.88 70.0671 103.87V102.463H72.1026V103.87C73.0405 103.92 73.7888 104.234 74.3476 104.813C74.9163 105.391 75.2007 106.15 75.2007 107.088H73.1652C73.1652 106.669 73.0505 106.334 72.821 106.085C72.5915 105.826 72.2872 105.696 71.908 105.696H70.2168C69.7977 105.696 69.4585 105.786 69.199 105.965C68.9496 106.145 68.8249 106.384 68.8249 106.684V107.088C68.8249 107.587 69.1691 107.896 69.8576 108.016L72.5965 108.495ZM78.2876 106.235L75.8779 107.447V105.531L78.7815 103.99H80.353V114.466H78.2876V106.235ZM80.9781 115.783L81.4271 115.379C81.9459 114.91 82.2054 114.342 82.2054 113.673V112.685H84.2408V113.673C84.2408 114.342 84.1161 114.945 83.8667 115.484C83.6272 116.023 83.273 116.477 82.804 116.846L82.2952 117.25L80.9781 115.783ZM88.5078 114.586C87.8492 114.586 87.2705 114.461 86.7716 114.212C86.2727 113.962 85.8836 113.613 85.6042 113.164C85.3348 112.705 85.2001 112.181 85.2001 111.593H87.2506C87.2506 111.942 87.3653 112.226 87.5948 112.446C87.8243 112.655 88.1286 112.76 88.5078 112.76H89.7949C90.2239 112.76 90.5682 112.63 90.8276 112.371C91.087 112.102 91.2167 111.747 91.2167 111.308V110.096C90.9673 110.316 90.668 110.495 90.3187 110.635C89.9695 110.775 89.6353 110.844 89.316 110.844H88.3132C87.6347 110.844 87.036 110.715 86.5172 110.455C86.0083 110.186 85.6092 109.812 85.3198 109.333C85.0405 108.854 84.9008 108.3 84.9008 107.671V107.073C84.9008 106.444 85.0554 105.89 85.3647 105.411C85.6741 104.923 86.1131 104.543 86.6818 104.274C87.2506 104.005 87.9041 103.87 88.6425 103.87H89.6901C90.3986 103.87 91.0222 104.005 91.561 104.274C92.1098 104.543 92.5338 104.923 92.8332 105.411C93.1325 105.9 93.2822 106.464 93.2822 107.103V111.308C93.2822 111.957 93.1375 112.531 92.8481 113.03C92.5588 113.518 92.1497 113.903 91.6208 114.182C91.092 114.451 90.4834 114.586 89.7949 114.586H88.5078ZM89.3459 109.108C89.7949 109.108 90.189 108.979 90.5283 108.719C90.8775 108.46 91.107 108.12 91.2167 107.701V106.983C91.2167 106.574 91.0771 106.245 90.7977 105.995C90.5183 105.736 90.1491 105.606 89.6901 105.606H88.6425C88.1436 105.606 87.7395 105.741 87.4302 106.01C87.1208 106.28 86.9662 106.634 86.9662 107.073V107.671C86.9662 108.1 87.0859 108.45 87.3254 108.719C87.5748 108.979 87.8991 109.108 88.2982 109.108H89.3459ZM97.7526 114.586C97.0342 114.586 96.4007 114.471 95.8519 114.242C95.3031 114.002 94.874 113.673 94.5647 113.254C94.2654 112.825 94.1157 112.336 94.1157 111.787V111.084C94.1157 110.705 94.2604 110.33 94.5498 109.961C94.8391 109.592 95.2183 109.298 95.6872 109.078V109.063C95.3181 108.844 95.0187 108.564 94.7892 108.225C94.5697 107.886 94.46 107.547 94.46 107.207V106.549C94.46 106.02 94.5997 105.556 94.879 105.157C95.1684 104.748 95.5725 104.434 96.0913 104.214C96.6202 103.985 97.2238 103.87 97.9023 103.87H99.1895C99.8679 103.87 100.467 103.985 100.985 104.214C101.514 104.434 101.918 104.748 102.198 105.157C102.487 105.556 102.632 106.02 102.632 106.549V107.207C102.632 107.537 102.517 107.876 102.288 108.225C102.068 108.564 101.774 108.844 101.405 109.063V109.078C101.873 109.298 102.253 109.592 102.542 109.961C102.831 110.33 102.976 110.705 102.976 111.084V111.787C102.976 112.336 102.821 112.825 102.512 113.254C102.213 113.673 101.789 114.002 101.24 114.242C100.691 114.471 100.058 114.586 99.3391 114.586H97.7526ZM99.1895 108.24C99.5985 108.24 99.9278 108.145 100.177 107.956C100.437 107.766 100.566 107.517 100.566 107.207V106.579C100.566 106.299 100.437 106.075 100.177 105.905C99.9278 105.736 99.5985 105.651 99.1895 105.651H97.9023C97.4932 105.651 97.159 105.736 96.8995 105.905C96.6501 106.075 96.5254 106.299 96.5254 106.579V107.207C96.5254 107.517 96.6501 107.766 96.8995 107.956C97.159 108.145 97.4932 108.24 97.9023 108.24H99.1895ZM99.3391 112.805C99.8081 112.805 100.187 112.705 100.477 112.506C100.766 112.296 100.911 112.022 100.911 111.682V111.129C100.911 110.78 100.751 110.5 100.432 110.291C100.122 110.081 99.7083 109.976 99.1895 109.976H97.9023C97.3835 109.976 96.9644 110.081 96.6451 110.291C96.3358 110.5 96.1811 110.78 96.1811 111.129V111.682C96.1811 112.022 96.3258 112.296 96.6152 112.506C96.9045 112.705 97.2837 112.805 97.7526 112.805H99.3391ZM107.383 114.586C106.684 114.586 106.066 114.436 105.527 114.137C104.988 113.828 104.569 113.394 104.27 112.835C103.97 112.276 103.821 111.633 103.821 110.904V107.552C103.821 106.823 103.965 106.18 104.255 105.621C104.554 105.062 104.973 104.633 105.512 104.334C106.051 104.025 106.674 103.87 107.383 103.87H108.969C109.658 103.87 110.266 104.025 110.795 104.334C111.324 104.633 111.733 105.062 112.022 105.621C112.322 106.18 112.472 106.823 112.472 107.552V110.904C112.472 111.633 112.327 112.276 112.037 112.835C111.748 113.394 111.339 113.828 110.81 114.137C110.281 114.436 109.668 114.586 108.969 114.586H107.383ZM108.939 112.76C109.378 112.76 109.728 112.595 109.987 112.266C110.256 111.927 110.391 111.483 110.391 110.934V107.522C110.391 106.973 110.256 106.534 109.987 106.205C109.728 105.865 109.378 105.696 108.939 105.696H107.413C106.954 105.696 106.585 105.865 106.305 106.205C106.026 106.534 105.886 106.973 105.886 107.522V110.934C105.886 111.483 106.026 111.927 106.305 112.266C106.585 112.595 106.954 112.76 107.413 112.76H108.939ZM114.289 114.616C113.92 114.616 113.621 114.506 113.391 114.287C113.172 114.057 113.062 113.758 113.062 113.389C113.062 113.02 113.172 112.725 113.391 112.506C113.621 112.276 113.92 112.161 114.289 112.161C114.659 112.161 114.953 112.276 115.172 112.506C115.402 112.725 115.517 113.02 115.517 113.389C115.517 113.758 115.402 114.057 115.172 114.287C114.953 114.506 114.659 114.616 114.289 114.616ZM119.675 114.586C118.977 114.586 118.358 114.436 117.82 114.137C117.281 113.828 116.862 113.394 116.562 112.835C116.263 112.276 116.113 111.633 116.113 110.904V107.552C116.113 106.823 116.258 106.18 116.547 105.621C116.847 105.062 117.266 104.633 117.805 104.334C118.343 104.025 118.967 103.87 119.675 103.87H121.262C121.95 103.87 122.559 104.025 123.088 104.334C123.617 104.633 124.026 105.062 124.315 105.621C124.614 106.18 124.764 106.823 124.764 107.552V110.904C124.764 111.633 124.619 112.276 124.33 112.835C124.041 113.394 123.632 113.828 123.103 114.137C122.574 114.436 121.96 114.586 121.262 114.586H119.675ZM121.232 112.76C121.671 112.76 122.02 112.595 122.28 112.266C122.549 111.927 122.684 111.483 122.684 110.934V107.522C122.684 106.973 122.549 106.534 122.28 106.205C122.02 105.865 121.671 105.696 121.232 105.696H119.705C119.246 105.696 118.877 105.865 118.598 106.205C118.318 106.534 118.179 106.973 118.179 107.522V110.934C118.179 111.483 118.318 111.927 118.598 112.266C118.877 112.595 119.246 112.76 119.705 112.76H121.232ZM129.461 114.586C128.763 114.586 128.144 114.436 127.605 114.137C127.066 113.828 126.647 113.394 126.348 112.835C126.049 112.276 125.899 111.633 125.899 110.904V107.552C125.899 106.823 126.044 106.18 126.333 105.621C126.632 105.062 127.051 104.633 127.59 104.334C128.129 104.025 128.753 103.87 129.461 103.87H131.048C131.736 103.87 132.345 104.025 132.874 104.334C133.402 104.633 133.811 105.062 134.101 105.621C134.4 106.18 134.55 106.823 134.55 107.552V110.904C134.55 111.633 134.405 112.276 134.116 112.835C133.826 113.394 133.417 113.828 132.888 114.137C132.36 114.436 131.746 114.586 131.048 114.586H129.461ZM131.018 112.76C131.457 112.76 131.806 112.595 132.065 112.266C132.335 111.927 132.469 111.483 132.469 110.934V107.522C132.469 106.973 132.335 106.534 132.065 106.205C131.806 105.865 131.457 105.696 131.018 105.696H129.491C129.032 105.696 128.663 105.865 128.383 106.205C128.104 106.534 127.964 106.973 127.964 107.522V110.934C127.964 111.483 128.104 111.927 128.383 112.266C128.663 112.595 129.032 112.76 129.491 112.76H131.018Z" fill="#16BA7F"/>
<path d="M148.146 106.82L146.138 107.83V106.47L148.458 105.236H149.605V113.966H148.146V106.82ZM150.765 112.856C150.765 112.374 150.852 111.958 151.027 111.609C151.21 111.252 151.509 110.936 151.925 110.661L155.018 108.653C155.184 108.545 155.313 108.408 155.404 108.242C155.504 108.075 155.554 107.905 155.554 107.73V107.331C155.554 107.065 155.454 106.849 155.255 106.682C155.064 106.508 154.814 106.421 154.506 106.421H153.359C152.993 106.421 152.706 106.554 152.498 106.82C152.291 107.077 152.187 107.435 152.187 107.892H150.727C150.727 107.036 150.96 106.362 151.426 105.872C151.891 105.381 152.528 105.136 153.334 105.136H154.506C154.997 105.136 155.434 105.227 155.816 105.41C156.199 105.593 156.494 105.851 156.702 106.184C156.909 106.516 157.013 106.899 157.013 107.331V107.73C157.013 108.146 156.922 108.512 156.739 108.828C156.564 109.144 156.286 109.418 155.903 109.651L152.898 111.559C152.665 111.709 152.494 111.871 152.386 112.046C152.286 112.212 152.236 112.428 152.236 112.694H157.088V113.966H150.765V112.856ZM164.216 114.066C163.584 114.066 163.027 113.933 162.545 113.667C162.063 113.393 161.689 113.01 161.423 112.52C161.156 112.021 161.023 111.447 161.023 110.798V108.404C161.023 107.755 161.156 107.186 161.423 106.695C161.689 106.196 162.063 105.814 162.545 105.548C163.027 105.273 163.584 105.136 164.216 105.136H165.538C166.17 105.136 166.727 105.273 167.21 105.548C167.7 105.814 168.079 106.196 168.345 106.695C168.611 107.186 168.744 107.755 168.744 108.404V110.798C168.744 111.447 168.611 112.021 168.345 112.52C168.079 113.01 167.7 113.393 167.21 113.667C166.727 113.933 166.17 114.066 165.538 114.066H164.216ZM165.538 112.781C166.054 112.781 166.474 112.594 166.798 112.22C167.122 111.846 167.285 111.355 167.285 110.748V108.454C167.285 107.847 167.122 107.356 166.798 106.982C166.482 106.608 166.062 106.421 165.538 106.421H164.229C163.705 106.421 163.281 106.608 162.957 106.982C162.641 107.356 162.483 107.847 162.483 108.454V110.748C162.483 111.355 162.641 111.846 162.957 112.22C163.281 112.594 163.705 112.781 164.229 112.781H165.538ZM169.889 107.743H171.224V108.591C171.39 108.333 171.627 108.125 171.935 107.967C172.251 107.801 172.575 107.718 172.908 107.718H173.656V108.965H172.908C172.434 108.965 172.051 109.11 171.76 109.401C171.469 109.692 171.324 110.071 171.324 110.536V113.966H169.889V107.743ZM176.23 114.066C175.523 114.066 174.95 113.846 174.509 113.405C174.077 112.956 173.86 112.37 173.86 111.646V110.2C173.86 109.692 173.964 109.248 174.172 108.865C174.38 108.474 174.671 108.175 175.045 107.967C175.428 107.751 175.864 107.643 176.355 107.643H177.116C177.373 107.643 177.627 107.701 177.876 107.817C178.134 107.934 178.346 108.088 178.513 108.279V105.236H179.934V113.966H178.6V113.106C178.425 113.397 178.192 113.63 177.901 113.804C177.61 113.979 177.315 114.066 177.016 114.066H176.23ZM177.128 112.831C177.486 112.831 177.793 112.69 178.051 112.407C178.317 112.116 178.471 111.759 178.513 111.335V110.087C178.454 109.73 178.313 109.439 178.089 109.214C177.872 108.99 177.61 108.878 177.303 108.878H176.505C176.139 108.878 175.844 109.006 175.619 109.264C175.403 109.522 175.295 109.859 175.295 110.275V111.559C175.295 111.942 175.395 112.249 175.594 112.482C175.802 112.715 176.064 112.831 176.38 112.831H177.128ZM183.585 114.066C183.078 114.066 182.629 113.97 182.238 113.779C181.856 113.588 181.557 113.318 181.34 112.969C181.133 112.619 181.029 112.216 181.029 111.759V110.087C181.029 109.605 181.133 109.181 181.34 108.815C181.557 108.441 181.856 108.154 182.238 107.955C182.629 107.747 183.078 107.643 183.585 107.643H184.583C185.34 107.643 185.947 107.863 186.404 108.304C186.861 108.745 187.09 109.331 187.09 110.062V111.31H182.463V111.759C182.463 112.091 182.563 112.357 182.762 112.557C182.97 112.756 183.244 112.856 183.585 112.856H184.546C184.878 112.856 185.144 112.777 185.344 112.619C185.552 112.453 185.656 112.237 185.656 111.971H187.065C187.065 112.603 186.832 113.11 186.367 113.492C185.901 113.875 185.29 114.066 184.533 114.066H183.585ZM185.681 110.237V110.062C185.681 109.697 185.581 109.401 185.381 109.177C185.182 108.952 184.92 108.84 184.596 108.84H183.585C183.244 108.84 182.966 108.961 182.75 109.202C182.542 109.435 182.438 109.742 182.438 110.125V110.237H185.681ZM188.129 107.743H189.464V108.591C189.63 108.333 189.867 108.125 190.175 107.967C190.491 107.801 190.815 107.718 191.148 107.718H191.896V108.965H191.148C190.674 108.965 190.291 109.11 190 109.401C189.709 109.692 189.564 110.071 189.564 110.536V113.966H188.129V107.743ZM194.603 114.066C193.888 114.066 193.314 113.875 192.882 113.492C192.449 113.11 192.233 112.603 192.233 111.971H193.643C193.643 112.237 193.73 112.453 193.904 112.619C194.079 112.777 194.312 112.856 194.603 112.856H195.713C195.996 112.856 196.216 112.811 196.374 112.719C196.54 112.619 196.623 112.486 196.623 112.32V112.046C196.623 111.929 196.574 111.829 196.474 111.746C196.382 111.663 196.253 111.605 196.087 111.572L193.929 111.197C193.447 111.114 193.065 110.94 192.782 110.674C192.499 110.399 192.358 110.083 192.358 109.726V109.314C192.358 108.799 192.562 108.391 192.969 108.092C193.385 107.793 193.954 107.643 194.678 107.643H195.676C196.332 107.643 196.865 107.822 197.272 108.179C197.679 108.537 197.883 109.006 197.883 109.589H196.474C196.474 109.364 196.399 109.185 196.249 109.052C196.108 108.919 195.917 108.853 195.676 108.853H194.69C194.399 108.853 194.175 108.898 194.017 108.99C193.859 109.081 193.78 109.21 193.78 109.377V109.626C193.78 109.742 193.825 109.842 193.917 109.925C194.017 110.008 194.146 110.062 194.304 110.087L196.536 110.487C196.993 110.578 197.359 110.753 197.634 111.01C197.908 111.268 198.045 111.572 198.045 111.921V112.382C198.045 112.898 197.833 113.309 197.409 113.617C196.985 113.916 196.42 114.066 195.713 114.066H194.603Z" fill="#6E6E6E"/>
<path d="M66.5239 132.714H67.846L70.7894 138.102L73.658 132.714H74.9801V141.444H73.5458V135.42L71.4879 139.237C71.3715 139.436 71.2592 139.582 71.1511 139.673C71.043 139.756 70.9225 139.798 70.7894 139.798H70.3778L67.9457 135.42V141.444H66.5239V132.714ZM78.2909 141.544C77.659 141.544 77.1476 141.386 76.7568 141.07C76.3743 140.746 76.1831 140.318 76.1831 139.786V139.337C76.1831 138.813 76.3827 138.393 76.7818 138.077C77.1892 137.761 77.7213 137.603 78.3782 137.603H79.1515C79.3843 137.603 79.6338 137.636 79.8998 137.703C80.1659 137.769 80.4029 137.856 80.6108 137.965V137.191C80.6108 136.934 80.5276 136.726 80.3613 136.568C80.195 136.41 79.9788 136.331 79.7128 136.331H78.6651C78.3907 136.331 78.1703 136.397 78.004 136.53C77.8378 136.655 77.7546 136.821 77.7546 137.029H76.3577C76.3577 136.455 76.5697 135.994 76.9938 135.645C77.4179 135.295 77.9749 135.121 78.6651 135.121H79.7128C80.4112 135.121 80.9725 135.312 81.3965 135.695C81.8206 136.069 82.0326 136.568 82.0326 137.191V141.444H80.6981V140.659C80.4985 140.925 80.2491 141.141 79.9497 141.307C79.6504 141.465 79.3552 141.544 79.0642 141.544H78.2909ZM79.1515 140.422C79.4841 140.422 79.7834 140.33 80.0495 140.147C80.3156 139.956 80.5027 139.707 80.6108 139.399V139.1C80.4694 138.983 80.2698 138.892 80.0121 138.825C79.7543 138.75 79.4841 138.713 79.2014 138.713H78.4156C78.1662 138.713 77.9625 138.775 77.8045 138.9C77.6548 139.025 77.58 139.187 77.58 139.386V139.736C77.58 139.944 77.659 140.11 77.817 140.235C77.9749 140.359 78.1828 140.422 78.4406 140.422H79.1515ZM83.3072 135.221H84.6417V136.031C84.8247 135.757 85.0658 135.537 85.3651 135.37C85.6645 135.204 85.9638 135.121 86.2631 135.121H87.0364C87.6767 135.121 88.188 135.325 88.5705 135.732C88.9613 136.139 89.1567 136.676 89.1567 137.341V141.444H87.7224V137.378C87.7224 137.079 87.6434 136.838 87.4854 136.655C87.3358 136.464 87.1362 136.368 86.8868 136.368H86.1135C85.7892 136.368 85.4982 136.493 85.2404 136.742C84.9826 136.983 84.8164 137.295 84.7415 137.678V141.444H83.3072V135.221ZM92.3349 141.544C91.703 141.544 91.1916 141.386 90.8008 141.07C90.4183 140.746 90.2271 140.318 90.2271 139.786V139.337C90.2271 138.813 90.4266 138.393 90.8258 138.077C91.2332 137.761 91.7653 137.603 92.4222 137.603H93.1955C93.4283 137.603 93.6777 137.636 93.9438 137.703C94.2099 137.769 94.4469 137.856 94.6547 137.965V137.191C94.6547 136.934 94.5716 136.726 94.4053 136.568C94.239 136.41 94.0228 136.331 93.7567 136.331H92.7091C92.4347 136.331 92.2143 136.397 92.048 136.53C91.8817 136.655 91.7986 136.821 91.7986 137.029H90.4017C90.4017 136.455 90.6137 135.994 91.0378 135.645C91.4618 135.295 92.0189 135.121 92.7091 135.121H93.7567C94.4552 135.121 95.0164 135.312 95.4405 135.695C95.8646 136.069 96.0766 136.568 96.0766 137.191V141.444H94.742V140.659C94.5425 140.925 94.293 141.141 93.9937 141.307C93.6944 141.465 93.3992 141.544 93.1082 141.544H92.3349ZM93.1955 140.422C93.5281 140.422 93.8274 140.33 94.0935 140.147C94.3596 139.956 94.5466 139.707 94.6547 139.399V139.1C94.5134 138.983 94.3138 138.892 94.0561 138.825C93.7983 138.75 93.5281 138.713 93.2454 138.713H92.4596C92.2102 138.713 92.0065 138.775 91.8485 138.9C91.6988 139.025 91.624 139.187 91.624 139.386V139.736C91.624 139.944 91.703 140.11 91.861 140.235C92.0189 140.359 92.2268 140.422 92.4846 140.422H93.1955ZM99.6336 143.976C99.01 143.976 98.4903 143.802 98.0746 143.452C97.6588 143.103 97.4302 142.642 97.3886 142.068H98.798C98.8229 142.276 98.9102 142.442 99.0599 142.567C99.2179 142.692 99.4091 142.754 99.6336 142.754H100.731C101.047 142.754 101.297 142.633 101.48 142.392C101.671 142.159 101.766 141.843 101.766 141.444V140.733C101.592 140.933 101.376 141.095 101.118 141.22C100.868 141.345 100.623 141.407 100.382 141.407H99.5089C98.7938 141.407 98.2118 141.187 97.7628 140.746C97.3221 140.297 97.1017 139.711 97.1017 138.987V137.653C97.1017 137.154 97.2057 136.713 97.4136 136.331C97.6214 135.948 97.9124 135.653 98.2866 135.445C98.6691 135.229 99.1056 135.121 99.5962 135.121H100.369C100.652 135.121 100.931 135.192 101.205 135.333C101.48 135.466 101.696 135.645 101.854 135.869V135.221H103.201V141.444C103.201 142.218 102.976 142.833 102.527 143.29C102.087 143.748 101.488 143.976 100.731 143.976H99.6336ZM100.457 140.185C100.814 140.185 101.114 140.043 101.355 139.761C101.596 139.478 101.733 139.112 101.766 138.663V137.578C101.733 137.22 101.604 136.929 101.38 136.705C101.155 136.472 100.885 136.356 100.569 136.356H99.7085C99.3592 136.356 99.0765 136.485 98.8603 136.742C98.6442 136.992 98.5361 137.324 98.5361 137.74V138.9C98.5361 139.282 98.6317 139.594 98.8229 139.835C99.0225 140.068 99.2802 140.185 99.5962 140.185H100.457ZM105.479 134.522C105.196 134.522 104.968 134.439 104.793 134.273C104.627 134.098 104.544 133.878 104.544 133.612C104.544 133.346 104.627 133.129 104.793 132.963C104.968 132.789 105.196 132.701 105.479 132.701C105.762 132.701 105.99 132.789 106.165 132.963C106.34 133.129 106.427 133.346 106.427 133.612C106.427 133.878 106.34 134.098 106.165 134.273C105.99 134.439 105.762 134.522 105.479 134.522ZM104.768 135.221H106.203V141.444H104.768V135.221ZM107.778 135.221H109.112V136.031C109.295 135.757 109.536 135.537 109.836 135.37C110.135 135.204 110.434 135.121 110.734 135.121H111.507C112.147 135.121 112.659 135.325 113.041 135.732C113.432 136.139 113.627 136.676 113.627 137.341V141.444H112.193V137.378C112.193 137.079 112.114 136.838 111.956 136.655C111.806 136.464 111.607 136.368 111.357 136.368H110.584C110.26 136.368 109.969 136.493 109.711 136.742C109.453 136.983 109.287 137.295 109.212 137.678V141.444H107.778V135.221ZM117.18 143.976C116.556 143.976 116.036 143.802 115.621 143.452C115.205 143.103 114.976 142.642 114.935 142.068H116.344C116.369 142.276 116.456 142.442 116.606 142.567C116.764 142.692 116.955 142.754 117.18 142.754H118.277C118.593 142.754 118.843 142.633 119.025 142.392C119.217 142.159 119.312 141.843 119.312 141.444V140.733C119.138 140.933 118.922 141.095 118.664 141.22C118.414 141.345 118.169 141.407 117.928 141.407H117.055C116.34 141.407 115.758 141.187 115.309 140.746C114.868 140.297 114.648 139.711 114.648 138.987V137.653C114.648 137.154 114.752 136.713 114.96 136.331C115.167 135.948 115.458 135.653 115.833 135.445C116.215 135.229 116.652 135.121 117.142 135.121H117.915C118.198 135.121 118.477 135.192 118.751 135.333C119.025 135.466 119.242 135.645 119.4 135.869V135.221H120.747V141.444C120.747 142.218 120.522 142.833 120.073 143.29C119.632 143.748 119.034 143.976 118.277 143.976H117.18ZM118.003 140.185C118.36 140.185 118.66 140.043 118.901 139.761C119.142 139.478 119.279 139.112 119.312 138.663V137.578C119.279 137.22 119.15 136.929 118.926 136.705C118.701 136.472 118.431 136.356 118.115 136.356H117.254C116.905 136.356 116.622 136.485 116.406 136.742C116.19 136.992 116.082 137.324 116.082 137.74V138.9C116.082 139.282 116.178 139.594 116.369 139.835C116.568 140.068 116.826 140.185 117.142 140.185H118.003ZM127.382 141.544C126.667 141.544 126.093 141.353 125.66 140.97C125.228 140.588 125.012 140.081 125.012 139.449H126.421C126.421 139.715 126.509 139.931 126.683 140.097C126.858 140.255 127.091 140.334 127.382 140.334H128.492C128.774 140.334 128.995 140.289 129.153 140.197C129.319 140.097 129.402 139.964 129.402 139.798V139.524C129.402 139.407 129.352 139.307 129.252 139.224C129.161 139.141 129.032 139.083 128.866 139.05L126.708 138.675C126.226 138.592 125.843 138.418 125.561 138.152C125.278 137.877 125.137 137.561 125.137 137.204V136.792C125.137 136.277 125.34 135.869 125.748 135.57C126.163 135.271 126.733 135.121 127.456 135.121H128.454C129.111 135.121 129.643 135.3 130.051 135.657C130.458 136.015 130.662 136.485 130.662 137.067H129.252C129.252 136.842 129.178 136.663 129.028 136.53C128.887 136.397 128.695 136.331 128.454 136.331H127.469C127.178 136.331 126.953 136.376 126.795 136.468C126.637 136.559 126.558 136.688 126.558 136.855V137.104C126.558 137.22 126.604 137.32 126.696 137.403C126.795 137.486 126.924 137.541 127.082 137.565L129.315 137.965C129.772 138.056 130.138 138.231 130.412 138.488C130.687 138.746 130.824 139.05 130.824 139.399V139.86C130.824 140.376 130.612 140.787 130.188 141.095C129.764 141.394 129.198 141.544 128.492 141.544H127.382ZM133.706 141.544C133.074 141.544 132.563 141.386 132.172 141.07C131.789 140.746 131.598 140.318 131.598 139.786V139.337C131.598 138.813 131.798 138.393 132.197 138.077C132.604 137.761 133.136 137.603 133.793 137.603H134.566C134.799 137.603 135.049 137.636 135.315 137.703C135.581 137.769 135.818 137.856 136.026 137.965V137.191C136.026 136.934 135.943 136.726 135.776 136.568C135.61 136.41 135.394 136.331 135.128 136.331H134.08C133.806 136.331 133.585 136.397 133.419 136.53C133.253 136.655 133.17 136.821 133.17 137.029H131.773C131.773 136.455 131.985 135.994 132.409 135.645C132.833 135.295 133.39 135.121 134.08 135.121H135.128C135.826 135.121 136.387 135.312 136.811 135.695C137.236 136.069 137.448 136.568 137.448 137.191V141.444H136.113V140.659C135.913 140.925 135.664 141.141 135.365 141.307C135.065 141.465 134.77 141.544 134.479 141.544H133.706ZM134.566 140.422C134.899 140.422 135.198 140.33 135.464 140.147C135.731 139.956 135.918 139.707 136.026 139.399V139.1C135.884 138.983 135.685 138.892 135.427 138.825C135.169 138.75 134.899 138.713 134.616 138.713H133.831C133.581 138.713 133.377 138.775 133.219 138.9C133.07 139.025 132.995 139.187 132.995 139.386V139.736C132.995 139.944 133.074 140.11 133.232 140.235C133.39 140.359 133.598 140.422 133.856 140.422H134.566ZM140.73 141.444C140.032 141.444 139.52 141.299 139.196 141.008C138.88 140.708 138.722 140.239 138.722 139.598V132.714H140.156V139.536C140.156 139.777 140.206 139.952 140.306 140.06C140.406 140.16 140.572 140.21 140.805 140.21H141.404V141.444H140.73ZM144.361 141.544C143.854 141.544 143.405 141.448 143.014 141.257C142.631 141.066 142.332 140.796 142.116 140.447C141.908 140.097 141.804 139.694 141.804 139.237V137.565C141.804 137.083 141.908 136.659 142.116 136.293C142.332 135.919 142.631 135.632 143.014 135.433C143.405 135.225 143.854 135.121 144.361 135.121H145.359C146.115 135.121 146.722 135.341 147.18 135.782C147.637 136.223 147.866 136.809 147.866 137.541V138.788H143.238V139.237C143.238 139.569 143.338 139.835 143.538 140.035C143.746 140.235 144.02 140.334 144.361 140.334H145.321C145.654 140.334 145.92 140.255 146.12 140.097C146.327 139.931 146.431 139.715 146.431 139.449H147.841C147.841 140.081 147.608 140.588 147.142 140.97C146.677 141.353 146.066 141.544 145.309 141.544H144.361ZM146.456 137.715V137.541C146.456 137.175 146.357 136.879 146.157 136.655C145.957 136.43 145.696 136.318 145.371 136.318H144.361C144.02 136.318 143.742 136.439 143.525 136.68C143.317 136.913 143.214 137.22 143.214 137.603V137.715H146.456ZM150.963 141.544C150.248 141.544 149.674 141.353 149.242 140.97C148.809 140.588 148.593 140.081 148.593 139.449H150.003C150.003 139.715 150.09 139.931 150.265 140.097C150.439 140.255 150.672 140.334 150.963 140.334H152.073C152.356 140.334 152.576 140.289 152.734 140.197C152.9 140.097 152.984 139.964 152.984 139.798V139.524C152.984 139.407 152.934 139.307 152.834 139.224C152.742 139.141 152.614 139.083 152.447 139.05L150.29 138.675C149.807 138.592 149.425 138.418 149.142 138.152C148.859 137.877 148.718 137.561 148.718 137.204V136.792C148.718 136.277 148.922 135.869 149.329 135.57C149.745 135.271 150.314 135.121 151.038 135.121H152.036C152.693 135.121 153.225 135.3 153.632 135.657C154.04 136.015 154.243 136.485 154.243 137.067H152.834C152.834 136.842 152.759 136.663 152.609 136.53C152.468 136.397 152.277 136.331 152.036 136.331H151.05C150.759 136.331 150.535 136.376 150.377 136.468C150.219 136.559 150.14 136.688 150.14 136.855V137.104C150.14 137.22 150.186 137.32 150.277 137.403C150.377 137.486 150.506 137.541 150.664 137.565L152.896 137.965C153.354 138.056 153.719 138.231 153.994 138.488C154.268 138.746 154.405 139.05 154.405 139.399V139.86C154.405 140.376 154.193 140.787 153.769 141.095C153.345 141.394 152.78 141.544 152.073 141.544H150.963ZM161.245 141.444C160.538 141.444 160.022 141.286 159.698 140.97C159.374 140.654 159.212 140.156 159.212 139.474V136.455H158.114V135.221H159.249V133.337H160.646V135.221H162.267V136.455H160.646V139.424C160.646 139.698 160.7 139.898 160.808 140.022C160.916 140.147 161.087 140.21 161.319 140.21H162.267V141.444H161.245ZM163.37 135.221H164.704V136.069C164.87 135.811 165.107 135.603 165.415 135.445C165.731 135.279 166.055 135.196 166.388 135.196H167.136V136.443H166.388C165.914 136.443 165.531 136.588 165.24 136.879C164.949 137.17 164.804 137.549 164.804 138.014V141.444H163.37V135.221ZM169.498 141.544C168.866 141.544 168.355 141.386 167.964 141.07C167.582 140.746 167.391 140.318 167.391 139.786V139.337C167.391 138.813 167.59 138.393 167.989 138.077C168.397 137.761 168.929 137.603 169.586 137.603H170.359C170.592 137.603 170.841 137.636 171.107 137.703C171.373 137.769 171.61 137.856 171.818 137.965V137.191C171.818 136.934 171.735 136.726 171.569 136.568C171.402 136.41 171.186 136.331 170.92 136.331H169.873C169.598 136.331 169.378 136.397 169.212 136.53C169.045 136.655 168.962 136.821 168.962 137.029H167.565C167.565 136.455 167.777 135.994 168.201 135.645C168.625 135.295 169.182 135.121 169.873 135.121H170.92C171.619 135.121 172.18 135.312 172.604 135.695C173.028 136.069 173.24 136.568 173.24 137.191V141.444H171.906V140.659C171.706 140.925 171.457 141.141 171.157 141.307C170.858 141.465 170.563 141.544 170.272 141.544H169.498ZM170.359 140.422C170.692 140.422 170.991 140.33 171.257 140.147C171.523 139.956 171.71 139.707 171.818 139.399V139.1C171.677 138.983 171.477 138.892 171.22 138.825C170.962 138.75 170.692 138.713 170.409 138.713H169.623C169.374 138.713 169.17 138.775 169.012 138.9C168.862 139.025 168.787 139.187 168.787 139.386V139.736C168.787 139.944 168.866 140.11 169.024 140.235C169.182 140.359 169.39 140.422 169.648 140.422H170.359ZM174.515 135.221H175.849V136.031C176.032 135.757 176.273 135.537 176.573 135.37C176.872 135.204 177.171 135.121 177.471 135.121H178.244C178.884 135.121 179.395 135.325 179.778 135.732C180.169 136.139 180.364 136.676 180.364 137.341V141.444H178.93V137.378C178.93 137.079 178.851 136.838 178.693 136.655C178.543 136.464 178.344 136.368 178.094 136.368H177.321C176.997 136.368 176.706 136.493 176.448 136.742C176.19 136.983 176.024 137.295 175.949 137.678V141.444H174.515V135.221ZM183.692 141.544C182.977 141.544 182.403 141.353 181.971 140.97C181.538 140.588 181.322 140.081 181.322 139.449H182.732C182.732 139.715 182.819 139.931 182.994 140.097C183.168 140.255 183.401 140.334 183.692 140.334H184.802C185.085 140.334 185.305 140.289 185.463 140.197C185.629 140.097 185.713 139.964 185.713 139.798V139.524C185.713 139.407 185.663 139.307 185.563 139.224C185.471 139.141 185.343 139.083 185.176 139.05L183.019 138.675C182.536 138.592 182.154 138.418 181.871 138.152C181.588 137.877 181.447 137.561 181.447 137.204V136.792C181.447 136.277 181.651 135.869 182.058 135.57C182.474 135.271 183.043 135.121 183.767 135.121H184.765C185.422 135.121 185.954 135.3 186.361 135.657C186.769 136.015 186.972 136.485 186.972 137.067H185.563C185.563 136.842 185.488 136.663 185.338 136.53C185.197 136.397 185.006 136.331 184.765 136.331H183.779C183.488 136.331 183.264 136.376 183.106 136.468C182.948 136.559 182.869 136.688 182.869 136.855V137.104C182.869 137.22 182.915 137.32 183.006 137.403C183.106 137.486 183.235 137.541 183.393 137.565L185.625 137.965C186.083 138.056 186.448 138.231 186.723 138.488C186.997 138.746 187.134 139.05 187.134 139.399V139.86C187.134 140.376 186.922 140.787 186.498 141.095C186.074 141.394 185.509 141.544 184.802 141.544H183.692ZM190.016 141.544C189.384 141.544 188.873 141.386 188.482 141.07C188.1 140.746 187.908 140.318 187.908 139.786V139.337C187.908 138.813 188.108 138.393 188.507 138.077C188.915 137.761 189.447 137.603 190.104 137.603H190.877C191.11 137.603 191.359 137.636 191.625 137.703C191.891 137.769 192.128 137.856 192.336 137.965V137.191C192.336 136.934 192.253 136.726 192.087 136.568C191.92 136.41 191.704 136.331 191.438 136.331H190.39C190.116 136.331 189.896 136.397 189.729 136.53C189.563 136.655 189.48 136.821 189.48 137.029H188.083C188.083 136.455 188.295 135.994 188.719 135.645C189.143 135.295 189.7 135.121 190.39 135.121H191.438C192.137 135.121 192.698 135.312 193.122 135.695C193.546 136.069 193.758 136.568 193.758 137.191V141.444H192.423V140.659C192.224 140.925 191.974 141.141 191.675 141.307C191.376 141.465 191.081 141.544 190.79 141.544H190.016ZM190.877 140.422C191.209 140.422 191.509 140.33 191.775 140.147C192.041 139.956 192.228 139.707 192.336 139.399V139.1C192.195 138.983 191.995 138.892 191.737 138.825C191.48 138.75 191.209 138.713 190.927 138.713H190.141C189.892 138.713 189.688 138.775 189.53 138.9C189.38 139.025 189.305 139.187 189.305 139.386V139.736C189.305 139.944 189.384 140.11 189.542 140.235C189.7 140.359 189.908 140.422 190.166 140.422H190.877ZM197.315 141.544C196.55 141.544 195.935 141.324 195.469 140.883C195.012 140.442 194.783 139.86 194.783 139.137V137.565C194.783 137.083 194.887 136.659 195.095 136.293C195.303 135.919 195.598 135.632 195.98 135.433C196.363 135.225 196.804 135.121 197.303 135.121H198.3C199.015 135.121 199.589 135.329 200.021 135.745C200.462 136.152 200.682 136.692 200.682 137.366H199.273C199.273 137.067 199.182 136.825 198.999 136.643C198.824 136.451 198.591 136.356 198.3 136.356H197.315C196.991 136.356 196.725 136.476 196.517 136.717C196.317 136.958 196.217 137.27 196.217 137.653V139.05C196.217 139.424 196.317 139.727 196.517 139.96C196.725 140.193 196.995 140.309 197.327 140.309H198.313C198.62 140.309 198.866 140.197 199.049 139.973C199.24 139.748 199.335 139.457 199.335 139.1H200.745C200.745 139.831 200.52 140.422 200.071 140.871C199.631 141.32 199.044 141.544 198.313 141.544H197.315ZM204.248 141.444C203.541 141.444 203.025 141.286 202.701 140.97C202.377 140.654 202.215 140.156 202.215 139.474V136.455H201.117V135.221H202.252V133.337H203.649V135.221H205.27V136.455H203.649V139.424C203.649 139.698 203.703 139.898 203.811 140.022C203.919 140.147 204.09 140.21 204.323 140.21H205.27V141.444H204.248ZM207.308 134.522C207.025 134.522 206.797 134.439 206.622 134.273C206.456 134.098 206.373 133.878 206.373 133.612C206.373 133.346 206.456 133.129 206.622 132.963C206.797 132.789 207.025 132.701 207.308 132.701C207.591 132.701 207.819 132.789 207.994 132.963C208.169 133.129 208.256 133.346 208.256 133.612C208.256 133.878 208.169 134.098 207.994 134.273C207.819 134.439 207.591 134.522 207.308 134.522ZM206.597 135.221H208.031V141.444H206.597V135.221ZM211.902 141.544C211.137 141.544 210.521 141.324 210.056 140.883C209.59 140.434 209.357 139.844 209.357 139.112V137.565C209.357 137.083 209.461 136.659 209.669 136.293C209.885 135.919 210.184 135.632 210.567 135.433C210.958 135.225 211.407 135.121 211.914 135.121H213.012C213.519 135.121 213.964 135.225 214.346 135.433C214.737 135.632 215.036 135.919 215.244 136.293C215.46 136.659 215.568 137.083 215.568 137.565V139.112C215.568 139.844 215.331 140.434 214.857 140.883C214.392 141.324 213.768 141.544 212.987 141.544H211.902ZM212.974 140.309C213.323 140.309 213.602 140.193 213.81 139.96C214.026 139.719 214.134 139.407 214.134 139.025V137.64C214.134 137.258 214.03 136.95 213.822 136.717C213.614 136.476 213.336 136.356 212.987 136.356H211.939C211.59 136.356 211.311 136.476 211.103 136.717C210.895 136.95 210.791 137.258 210.791 137.64V139.025C210.791 139.407 210.895 139.719 211.103 139.96C211.311 140.193 211.581 140.309 211.914 140.309H212.974ZM216.665 135.221H218V136.031C218.183 135.757 218.424 135.537 218.723 135.37C219.022 135.204 219.322 135.121 219.621 135.121H220.394C221.035 135.121 221.546 135.325 221.928 135.732C222.319 136.139 222.515 136.676 222.515 137.341V141.444H221.08V137.378C221.08 137.079 221.001 136.838 220.843 136.655C220.694 136.464 220.494 136.368 220.245 136.368H219.471C219.147 136.368 218.856 136.493 218.598 136.742C218.341 136.983 218.174 137.295 218.099 137.678V141.444H216.665V135.221ZM225.843 141.544C225.127 141.544 224.554 141.353 224.121 140.97C223.689 140.588 223.473 140.081 223.473 139.449H224.882C224.882 139.715 224.969 139.931 225.144 140.097C225.319 140.255 225.551 140.334 225.843 140.334H226.953C227.235 140.334 227.456 140.289 227.614 140.197C227.78 140.097 227.863 139.964 227.863 139.798V139.524C227.863 139.407 227.813 139.307 227.713 139.224C227.622 139.141 227.493 139.083 227.327 139.05L225.169 138.675C224.687 138.592 224.304 138.418 224.022 138.152C223.739 137.877 223.598 137.561 223.598 137.204V136.792C223.598 136.277 223.801 135.869 224.209 135.57C224.624 135.271 225.194 135.121 225.917 135.121H226.915C227.572 135.121 228.104 135.3 228.512 135.657C228.919 136.015 229.123 136.485 229.123 137.067H227.713C227.713 136.842 227.639 136.663 227.489 136.53C227.348 136.397 227.156 136.331 226.915 136.331H225.93C225.639 136.331 225.414 136.376 225.256 136.468C225.098 136.559 225.019 136.688 225.019 136.855V137.104C225.019 137.22 225.065 137.32 225.157 137.403C225.256 137.486 225.385 137.541 225.543 137.565L227.776 137.965C228.233 138.056 228.599 138.231 228.873 138.488C229.148 138.746 229.285 139.05 229.285 139.399V139.86C229.285 140.376 229.073 140.787 228.649 141.095C228.225 141.394 227.659 141.544 226.953 141.544H225.843ZM234.079 136.455H233.006V135.221H234.079V134.784C234.079 134.111 234.278 133.591 234.677 133.225C235.085 132.851 235.654 132.664 236.386 132.664H237.147V133.886H236.411C236.103 133.886 235.875 133.961 235.725 134.111C235.584 134.252 235.513 134.481 235.513 134.797V135.221H237.01V136.455H235.513V141.444H234.079V136.455ZM239.85 141.544C239.085 141.544 238.469 141.324 238.004 140.883C237.538 140.434 237.305 139.844 237.305 139.112V137.565C237.305 137.083 237.409 136.659 237.617 136.293C237.833 135.919 238.133 135.632 238.515 135.433C238.906 135.225 239.355 135.121 239.862 135.121H240.96C241.467 135.121 241.912 135.225 242.294 135.433C242.685 135.632 242.984 135.919 243.192 136.293C243.408 136.659 243.517 137.083 243.517 137.565V139.112C243.517 139.844 243.28 140.434 242.806 140.883C242.34 141.324 241.716 141.544 240.935 141.544H239.85ZM240.922 140.309C241.271 140.309 241.55 140.193 241.758 139.96C241.974 139.719 242.082 139.407 242.082 139.025V137.64C242.082 137.258 241.978 136.95 241.77 136.717C241.563 136.476 241.284 136.356 240.935 136.356H239.887C239.538 136.356 239.259 136.476 239.051 136.717C238.844 136.95 238.74 137.258 238.74 137.64V139.025C238.74 139.407 238.844 139.719 239.051 139.96C239.259 140.193 239.53 140.309 239.862 140.309H240.922ZM244.613 135.221H245.948V136.069C246.114 135.811 246.351 135.603 246.659 135.445C246.975 135.279 247.299 135.196 247.632 135.196H248.38V136.443H247.632C247.158 136.443 246.775 136.588 246.484 136.879C246.193 137.17 246.048 137.549 246.048 138.014V141.444H244.613V135.221ZM254.171 141.544C253.539 141.544 253.028 141.386 252.637 141.07C252.254 140.746 252.063 140.318 252.063 139.786V139.337C252.063 138.813 252.263 138.393 252.662 138.077C253.069 137.761 253.601 137.603 254.258 137.603H255.032C255.264 137.603 255.514 137.636 255.78 137.703C256.046 137.769 256.283 137.856 256.491 137.965V137.191C256.491 136.934 256.408 136.726 256.241 136.568C256.075 136.41 255.859 136.331 255.593 136.331H254.545C254.271 136.331 254.05 136.397 253.884 136.53C253.718 136.655 253.635 136.821 253.635 137.029H252.238C252.238 136.455 252.45 135.994 252.874 135.645C253.298 135.295 253.855 135.121 254.545 135.121H255.593C256.291 135.121 256.853 135.312 257.277 135.695C257.701 136.069 257.913 136.568 257.913 137.191V141.444H256.578V140.659C256.379 140.925 256.129 141.141 255.83 141.307C255.531 141.465 255.235 141.544 254.944 141.544H254.171ZM255.032 140.422C255.364 140.422 255.664 140.33 255.93 140.147C256.196 139.956 256.383 139.707 256.491 139.399V139.1C256.35 138.983 256.15 138.892 255.892 138.825C255.634 138.75 255.364 138.713 255.082 138.713H254.296C254.046 138.713 253.843 138.775 253.685 138.9C253.535 139.025 253.46 139.187 253.46 139.386V139.736C253.46 139.944 253.539 140.11 253.697 140.235C253.855 140.359 254.063 140.422 254.321 140.422H255.032ZM259.187 135.221H260.522V136.031C260.705 135.757 260.946 135.537 261.245 135.37C261.545 135.204 261.844 135.121 262.143 135.121H262.917C263.557 135.121 264.068 135.325 264.451 135.732C264.841 136.139 265.037 136.676 265.037 137.341V141.444H263.603V137.378C263.603 137.079 263.524 136.838 263.366 136.655C263.216 136.464 263.016 136.368 262.767 136.368H261.994C261.669 136.368 261.378 136.493 261.121 136.742C260.863 136.983 260.697 137.295 260.622 137.678V141.444H259.187V135.221ZM271.836 141.544C271.071 141.544 270.455 141.324 269.99 140.883C269.524 140.434 269.291 139.844 269.291 139.112V137.565C269.291 137.083 269.395 136.659 269.603 136.293C269.819 135.919 270.119 135.632 270.501 135.433C270.892 135.225 271.341 135.121 271.848 135.121H272.946C273.453 135.121 273.898 135.225 274.28 135.433C274.671 135.632 274.97 135.919 275.178 136.293C275.394 136.659 275.503 137.083 275.503 137.565V139.112C275.503 139.844 275.266 140.434 274.792 140.883C274.326 141.324 273.702 141.544 272.921 141.544H271.836ZM272.908 140.309C273.258 140.309 273.536 140.193 273.744 139.96C273.96 139.719 274.068 139.407 274.068 139.025V137.64C274.068 137.258 273.964 136.95 273.756 136.717C273.549 136.476 273.27 136.356 272.921 136.356H271.873C271.524 136.356 271.245 136.476 271.037 136.717C270.83 136.95 270.726 137.258 270.726 137.64V139.025C270.726 139.407 270.83 139.719 271.037 139.96C271.245 140.193 271.516 140.309 271.848 140.309H272.908ZM276.599 135.221H277.934V136.031C278.117 135.757 278.358 135.537 278.657 135.37C278.957 135.204 279.256 135.121 279.555 135.121H280.329C280.969 135.121 281.48 135.325 281.863 135.732C282.253 136.139 282.449 136.676 282.449 137.341V141.444H281.015V137.378C281.015 137.079 280.936 136.838 280.778 136.655C280.628 136.464 280.428 136.368 280.179 136.368H279.406C279.081 136.368 278.79 136.493 278.533 136.742C278.275 136.983 278.108 137.295 278.034 137.678V141.444H276.599V135.221ZM285.727 141.444C285.028 141.444 284.517 141.299 284.193 141.008C283.877 140.708 283.719 140.239 283.719 139.598V132.714H285.153V139.536C285.153 139.777 285.203 139.952 285.303 140.06C285.403 140.16 285.569 140.21 285.802 140.21H286.4V141.444H285.727ZM287.986 134.522C287.703 134.522 287.474 134.439 287.3 134.273C287.133 134.098 287.05 133.878 287.05 133.612C287.05 133.346 287.133 133.129 287.3 132.963C287.474 132.789 287.703 132.701 287.986 132.701C288.268 132.701 288.497 132.789 288.672 132.963C288.846 133.129 288.934 133.346 288.934 133.612C288.934 133.878 288.846 134.098 288.672 134.273C288.497 134.439 288.268 134.522 287.986 134.522ZM287.275 135.221H288.709V141.444H287.275V135.221ZM290.284 135.221H291.619V136.031C291.802 135.757 292.043 135.537 292.342 135.37C292.642 135.204 292.941 135.121 293.24 135.121H294.013C294.654 135.121 295.165 135.325 295.548 135.732C295.938 136.139 296.134 136.676 296.134 137.341V141.444H294.699V137.378C294.699 137.079 294.62 136.838 294.462 136.655C294.313 136.464 294.113 136.368 293.864 136.368H293.091C292.766 136.368 292.475 136.493 292.217 136.742C291.96 136.983 291.793 137.295 291.719 137.678V141.444H290.284V135.221ZM299.711 141.544C299.204 141.544 298.755 141.448 298.364 141.257C297.982 141.066 297.682 140.796 297.466 140.447C297.258 140.097 297.154 139.694 297.154 139.237V137.565C297.154 137.083 297.258 136.659 297.466 136.293C297.682 135.919 297.982 135.632 298.364 135.433C298.755 135.225 299.204 135.121 299.711 135.121H300.709C301.466 135.121 302.072 135.341 302.53 135.782C302.987 136.223 303.216 136.809 303.216 137.541V138.788H298.589V139.237C298.589 139.569 298.688 139.835 298.888 140.035C299.096 140.235 299.37 140.334 299.711 140.334H300.671C301.004 140.334 301.27 140.255 301.47 140.097C301.678 139.931 301.781 139.715 301.781 139.449H303.191C303.191 140.081 302.958 140.588 302.492 140.97C302.027 141.353 301.416 141.544 300.659 141.544H299.711ZM301.806 137.715V137.541C301.806 137.175 301.707 136.879 301.507 136.655C301.308 136.43 301.046 136.318 300.721 136.318H299.711C299.37 136.318 299.092 136.439 298.875 136.68C298.668 136.913 298.564 137.22 298.564 137.603V137.715H301.806ZM307.489 135.221H308.824V136.069C308.99 135.811 309.227 135.603 309.535 135.445C309.851 135.279 310.175 135.196 310.507 135.196H311.256V136.443H310.507C310.034 136.443 309.651 136.588 309.36 136.879C309.069 137.17 308.924 137.549 308.924 138.014V141.444H307.489V135.221ZM314.017 141.544C313.51 141.544 313.061 141.448 312.67 141.257C312.288 141.066 311.988 140.796 311.772 140.447C311.564 140.097 311.46 139.694 311.46 139.237V137.565C311.46 137.083 311.564 136.659 311.772 136.293C311.988 135.919 312.288 135.632 312.67 135.433C313.061 135.225 313.51 135.121 314.017 135.121H315.015C315.772 135.121 316.379 135.341 316.836 135.782C317.293 136.223 317.522 136.809 317.522 137.541V138.788H312.895V139.237C312.895 139.569 312.994 139.835 313.194 140.035C313.402 140.235 313.676 140.334 314.017 140.334H314.978C315.31 140.334 315.576 140.255 315.776 140.097C315.984 139.931 316.088 139.715 316.088 139.449H317.497C317.497 140.081 317.264 140.588 316.798 140.97C316.333 141.353 315.722 141.544 314.965 141.544H314.017ZM316.113 137.715V137.541C316.113 137.175 316.013 136.879 315.813 136.655C315.614 136.43 315.352 136.318 315.027 136.318H314.017C313.676 136.318 313.398 136.439 313.182 136.68C312.974 136.913 312.87 137.22 312.87 137.603V137.715H316.113ZM321.12 141.444C320.413 141.444 319.898 141.286 319.573 140.97C319.249 140.654 319.087 140.156 319.087 139.474V136.455H317.989V135.221H319.124V133.337H320.521V135.221H322.143V136.455H320.521V139.424C320.521 139.698 320.575 139.898 320.683 140.022C320.791 140.147 320.962 140.21 321.195 140.21H322.143V141.444H321.12ZM325.007 141.544C324.375 141.544 323.864 141.386 323.473 141.07C323.09 140.746 322.899 140.318 322.899 139.786V139.337C322.899 138.813 323.099 138.393 323.498 138.077C323.905 137.761 324.437 137.603 325.094 137.603H325.867C326.1 137.603 326.35 137.636 326.616 137.703C326.882 137.769 327.119 137.856 327.327 137.965V137.191C327.327 136.934 327.244 136.726 327.077 136.568C326.911 136.41 326.695 136.331 326.429 136.331H325.381C325.107 136.331 324.886 136.397 324.72 136.53C324.554 136.655 324.471 136.821 324.471 137.029H323.074C323.074 136.455 323.286 135.994 323.71 135.645C324.134 135.295 324.691 135.121 325.381 135.121H326.429C327.127 135.121 327.688 135.312 328.112 135.695C328.536 136.069 328.748 136.568 328.748 137.191V141.444H327.414V140.659C327.214 140.925 326.965 141.141 326.666 141.307C326.366 141.465 326.071 141.544 325.78 141.544H325.007ZM325.867 140.422C326.2 140.422 326.499 140.33 326.765 140.147C327.031 139.956 327.219 139.707 327.327 139.399V139.1C327.185 138.983 326.986 138.892 326.728 138.825C326.47 138.75 326.2 138.713 325.917 138.713H325.132C324.882 138.713 324.678 138.775 324.52 138.9C324.371 139.025 324.296 139.187 324.296 139.386V139.736C324.296 139.944 324.375 140.11 324.533 140.235C324.691 140.359 324.899 140.422 325.156 140.422H325.867ZM330.959 134.522C330.676 134.522 330.447 134.439 330.273 134.273C330.106 134.098 330.023 133.878 330.023 133.612C330.023 133.346 330.106 133.129 330.273 132.963C330.447 132.789 330.676 132.701 330.959 132.701C331.241 132.701 331.47 132.789 331.645 132.963C331.819 133.129 331.906 133.346 331.906 133.612C331.906 133.878 331.819 134.098 331.645 134.273C331.47 134.439 331.241 134.522 330.959 134.522ZM330.248 135.221H331.682V141.444H330.248V135.221ZM335.265 141.444C334.567 141.444 334.055 141.299 333.731 141.008C333.415 140.708 333.257 140.239 333.257 139.598V132.714H334.691V139.536C334.691 139.777 334.741 139.952 334.841 140.06C334.941 140.16 335.107 140.21 335.34 140.21H335.939V141.444H335.265ZM66.474 151.221H67.8085V151.957C67.9832 151.707 68.2077 151.508 68.482 151.358C68.7648 151.2 69.0391 151.121 69.3052 151.121H70.1284C70.8518 151.121 71.4338 151.341 71.8745 151.782C72.3235 152.214 72.548 152.788 72.548 153.503V154.95C72.548 155.731 72.3277 156.359 71.887 156.833C71.4463 157.307 70.8601 157.544 70.1284 157.544H69.2927C69.0516 157.544 68.8022 157.486 68.5444 157.37C68.2866 157.245 68.0746 157.083 67.9083 156.883V159.939H66.474V151.221ZM69.9787 156.309C70.3196 156.309 70.594 156.176 70.8019 155.91C71.0181 155.644 71.1262 155.295 71.1262 154.863V153.59C71.1262 153.225 71.0222 152.929 70.8144 152.705C70.6065 152.472 70.3321 152.356 69.9912 152.356H69.193C68.9103 152.356 68.6483 152.468 68.4072 152.692C68.1744 152.909 68.0081 153.191 67.9083 153.541V154.987C67.9499 155.378 68.0871 155.698 68.3199 155.948C68.561 156.189 68.8479 156.309 69.1805 156.309H69.9787ZM75.6502 157.444C74.9518 157.444 74.4404 157.299 74.1161 157.008C73.8001 156.708 73.6422 156.239 73.6422 155.598V148.714H75.0765V155.536C75.0765 155.777 75.1264 155.952 75.2261 156.06C75.3259 156.16 75.4922 156.21 75.725 156.21H76.3237V157.444H75.6502ZM78.8819 157.544C78.25 157.544 77.7386 157.386 77.3478 157.07C76.9653 156.746 76.7741 156.318 76.7741 155.786V155.337C76.7741 154.813 76.9736 154.393 77.3727 154.077C77.7802 153.761 78.3123 153.603 78.9692 153.603H79.7425C79.9753 153.603 80.2247 153.636 80.4908 153.703C80.7569 153.769 80.9939 153.856 81.2017 153.965V153.191C81.2017 152.934 81.1186 152.726 80.9523 152.568C80.786 152.41 80.5698 152.331 80.3037 152.331H79.2561C78.9817 152.331 78.7613 152.397 78.595 152.53C78.4287 152.655 78.3456 152.821 78.3456 153.029H76.9487C76.9487 152.455 77.1607 151.994 77.5848 151.645C78.0088 151.295 78.5659 151.121 79.2561 151.121H80.3037C81.0022 151.121 81.5634 151.312 81.9875 151.695C82.4115 152.069 82.6236 152.568 82.6236 153.191V157.444H81.289V156.659C81.0895 156.925 80.84 157.141 80.5407 157.307C80.2414 157.465 79.9462 157.544 79.6552 157.544H78.8819ZM79.7425 156.422C80.0751 156.422 80.3744 156.33 80.6405 156.147C80.9066 155.956 81.0936 155.707 81.2017 155.399V155.1C81.0604 154.983 80.8608 154.892 80.6031 154.825C80.3453 154.75 80.0751 154.713 79.7924 154.713H79.0066C78.7572 154.713 78.5534 154.775 78.3955 154.9C78.2458 155.025 78.171 155.187 78.171 155.386V155.736C78.171 155.944 78.25 156.11 78.4079 156.235C78.5659 156.359 78.7738 156.422 79.0316 156.422H79.7425ZM86.5298 157.444C85.8231 157.444 85.3075 157.286 84.9833 156.97C84.659 156.654 84.4968 156.156 84.4968 155.474V152.455H83.3993V151.221H84.5343V149.337H85.9312V151.221H87.5526V152.455H85.9312V155.424C85.9312 155.698 85.9852 155.898 86.0933 156.022C86.2014 156.147 86.3718 156.21 86.6047 156.21H87.5526V157.444H86.5298ZM89.2409 152.455H88.1683V151.221H89.2409V150.784C89.2409 150.111 89.4405 149.591 89.8396 149.225C90.247 148.851 90.8166 148.664 91.5483 148.664H92.3091V149.886H91.5732C91.2656 149.886 91.0369 149.961 90.8872 150.111C90.7459 150.252 90.6752 150.481 90.6752 150.797V151.221H92.1719V152.455H90.6752V157.444H89.2409V152.455ZM95.0119 157.544C94.2469 157.544 93.6316 157.324 93.166 156.883C92.7003 156.434 92.4675 155.844 92.4675 155.112V153.565C92.4675 153.083 92.5714 152.659 92.7793 152.293C92.9955 151.919 93.2948 151.632 93.6773 151.433C94.0681 151.225 94.5171 151.121 95.0243 151.121H96.1219C96.6291 151.121 97.0739 151.225 97.4564 151.433C97.8472 151.632 98.1466 151.919 98.3544 152.293C98.5706 152.659 98.6787 153.083 98.6787 153.565V155.112C98.6787 155.844 98.4417 156.434 97.9678 156.883C97.5022 157.324 96.8785 157.544 96.0969 157.544H95.0119ZM96.0845 156.309C96.4337 156.309 96.7122 156.193 96.9201 155.96C97.1363 155.719 97.2444 155.407 97.2444 155.025V153.64C97.2444 153.258 97.1405 152.95 96.9326 152.717C96.7247 152.476 96.4462 152.356 96.0969 152.356H95.0493C94.7001 152.356 94.4215 152.476 94.2136 152.717C94.0058 152.95 93.9018 153.258 93.9018 153.64V155.025C93.9018 155.407 94.0058 155.719 94.2136 155.96C94.4215 156.193 94.6917 156.309 95.0243 156.309H96.0845ZM99.7755 151.221H101.11V152.069C101.276 151.811 101.513 151.603 101.821 151.445C102.137 151.279 102.461 151.196 102.794 151.196H103.542V152.443H102.794C102.32 152.443 101.937 152.588 101.646 152.879C101.355 153.17 101.21 153.549 101.21 154.014V157.444H99.7755V151.221ZM111.2 151.121C111.807 151.121 112.29 151.316 112.647 151.707C113.013 152.098 113.196 152.622 113.196 153.279V157.444H111.762V153.266C111.762 152.992 111.699 152.776 111.575 152.618C111.45 152.451 111.284 152.368 111.076 152.368H110.477C110.203 152.368 109.97 152.468 109.779 152.667C109.587 152.859 109.463 153.121 109.404 153.453V157.444H107.983V153.304C107.983 153.021 107.92 152.796 107.795 152.63C107.671 152.455 107.504 152.368 107.297 152.368H106.735C106.461 152.368 106.22 152.493 106.012 152.742C105.812 152.983 105.683 153.299 105.625 153.69V157.444H104.191V151.221H105.526V152.006C105.683 151.732 105.883 151.516 106.124 151.358C106.365 151.2 106.611 151.121 106.86 151.121H107.571C107.887 151.121 108.17 151.204 108.419 151.37C108.669 151.528 108.864 151.753 109.005 152.044C109.188 151.753 109.409 151.528 109.666 151.37C109.924 151.204 110.198 151.121 110.489 151.121H111.2ZM115.126 157.569C114.852 157.569 114.631 157.486 114.465 157.32C114.299 157.153 114.216 156.933 114.216 156.659C114.216 156.393 114.299 156.176 114.465 156.01C114.631 155.844 114.852 155.761 115.126 155.761C115.392 155.761 115.608 155.844 115.775 156.01C115.941 156.176 116.024 156.393 116.024 156.659C116.024 156.933 115.941 157.153 115.775 157.32C115.608 157.486 115.392 157.569 115.126 157.569Z" fill="#6E6E6E"/>
<defs>
<filter id="filter0_b_5618_5184" x="-67.7548" y="-114.466" width="506.33" height="317.406" filterUnits="userSpaceOnUse" color-interpolation-filters="sRGB">
<feFlood flood-opacity="0" result="BackgroundImageFix"/>
<feGaussianBlur in="BackgroundImageFix" stdDeviation="57.3725"/>
<feComposite in2="SourceAlpha" operator="in" result="effect1_backgroundBlur_5618_5184"/>
<feBlend mode="normal" in="SourceGraphic" in2="effect1_backgroundBlur_5618_5184" result="shape"/>
</filter>
<filter id="filter1_b_5618_5184" x="-91.4598" y="-91.4408" width="553.74" height="316.911" filterUnits="userSpaceOnUse" color-interpolation-filters="sRGB">
<feFlood flood-opacity="0" result="BackgroundImageFix"/>
<feGaussianBlur in="BackgroundImageFix" stdDeviation="57.3725"/>
<feComposite in2="SourceAlpha" operator="in" result="effect1_backgroundBlur_5618_5184"/>
<feBlend mode="normal" in="SourceGraphic" in2="effect1_backgroundBlur_5618_5184" result="shape"/>
</filter>
</defs>
</svg>
