<svg width="44" height="43" viewBox="0 0 44 43" fill="none" xmlns="http://www.w3.org/2000/svg">
<path fill-rule="evenodd" clip-rule="evenodd" d="M10.2067 13.882C0.0589827 23.1332 12.0236 36.1323 19.411 41.5896C19.4995 41.655 19.6184 41.6481 19.7028 41.5769L22.2945 39.3899C22.3955 39.3046 22.4045 39.1494 22.3211 39.0476C14.6686 29.709 24.8788 21.5088 32.5964 30.3771C32.6828 30.4764 32.8371 30.4933 32.9381 30.4081L34.9939 28.6733C35.0906 28.5916 35.1023 28.4425 35.0273 28.3411C24.8014 14.5256 33.4884 15.123 39.1767 19.6936C39.2665 19.7658 39.3954 19.7651 39.4837 19.6905L40.0511 19.2117C40.1462 19.1315 40.1684 18.9982 40.0962 18.8974C39.1566 17.5864 33.0897 9.19784 30.6194 7.69355C30.5208 7.63354 30.4192 7.57057 30.3142 7.50552C27.5627 5.80082 22.5069 2.6684 10.2067 13.882ZM27.6716 13.2108C27.9662 13.5599 27.9209 14.0825 27.5705 14.3782C27.2201 14.6739 26.6973 14.6306 26.4028 14.2816C26.1082 13.9325 26.1535 13.4099 26.5039 13.1142C26.8543 12.8185 27.3771 12.8618 27.6716 13.2108ZM19.0926 15.2389C19.0915 15.1071 18.9838 15.0014 18.8518 15.0029C18.7199 15.0044 18.6138 15.1125 18.6148 15.2444C18.623 16.3059 18.8693 17.8321 19.6095 18.9262C19.9831 19.4784 20.4894 19.9301 21.1616 20.1447C21.8341 20.3594 22.6432 20.3273 23.6045 19.9665C23.7281 19.9201 23.7911 19.7824 23.7451 19.659C23.6991 19.5356 23.5616 19.4732 23.438 19.5196C22.5514 19.8524 21.8551 19.8643 21.3086 19.6898C20.7617 19.5152 20.335 19.1446 20.0057 18.6578C19.34 17.674 19.1004 16.2559 19.0926 15.2389Z" fill="#FB4875"/>
</svg>
