<svg width="26" height="27" viewBox="0 0 26 27" fill="none" xmlns="http://www.w3.org/2000/svg">
<path fill-rule="evenodd" clip-rule="evenodd" d="M17.7903 5.83402C12.045 -0.458532 3.9843 6.97185 0.601363 11.5585C0.56083 11.6134 0.565131 11.6872 0.60937 11.7395L1.96769 13.3467C2.02062 13.4093 2.11693 13.4148 2.18007 13.363C7.97134 8.61015 13.0645 14.942 7.56513 19.7351C7.50355 19.7887 7.49311 19.8845 7.54604 19.9471L8.62349 21.222C8.67419 21.282 8.76676 21.2891 8.82961 21.2425C17.3977 14.8907 17.0311 20.2815 14.1975 23.8133C14.1528 23.8691 14.1533 23.949 14.1996 24.0038L14.4969 24.3557C14.5468 24.4146 14.6295 24.4284 14.692 24.3835C15.5051 23.7999 20.7075 20.0313 21.6398 18.4977C21.677 18.4365 21.7161 18.3734 21.7564 18.3082C22.8129 16.6001 24.7543 13.4614 17.7903 5.83402ZM18.2149 16.6711C17.9984 16.8541 17.6741 16.8262 17.4904 16.6089C17.3068 16.3916 17.3334 16.0672 17.5498 15.8843C17.7663 15.7013 18.0906 15.7292 18.2743 15.9465C18.4579 16.1637 18.4313 16.4882 18.2149 16.6711ZM16.9524 11.3486C17.0342 11.3479 17.0997 11.2809 17.0987 11.1991C17.0977 11.1172 17.0306 11.0514 16.9488 11.0521C16.2901 11.0577 15.3431 11.2112 14.6646 11.6711C14.3221 11.9031 14.0421 12.2175 13.9092 12.6347C13.7763 13.0522 13.7966 13.5542 14.0209 14.1505C14.0498 14.2272 14.1353 14.2662 14.2118 14.2376C14.2884 14.2091 14.327 14.1237 14.2982 14.047C14.0913 13.497 14.0835 13.065 14.1916 12.7257C14.2996 12.3863 14.5294 12.1214 14.8313 11.9168C15.4415 11.5033 16.3213 11.3539 16.9524 11.3486Z" fill="#45DEF2"/>
</svg>
