<svg width="25" height="26" viewBox="0 0 25 26" fill="none" xmlns="http://www.w3.org/2000/svg">
<path fill-rule="evenodd" clip-rule="evenodd" d="M22.6931 6.42293C19.396 -3.51211 6.63399 0.790843 0.543265 4.24398C0.470289 4.28535 0.438214 4.37024 0.461654 4.45111L1.18138 6.93403C1.20942 7.03078 1.31472 7.08517 1.4115 7.05862C10.2875 4.62412 12.8333 14.2769 4.26467 16.9026C4.16872 16.932 4.1091 17.0342 4.13715 17.1309L4.70806 19.1004C4.73492 19.1931 4.83518 19.2475 4.92901 19.2267C17.7206 16.3877 14.6117 22.2525 9.66517 24.7971C9.58708 24.8373 9.54761 24.9273 9.57215 25.0119L9.72971 25.5555C9.75612 25.6466 9.84205 25.7034 9.93461 25.6843C11.1389 25.4364 18.8617 23.8115 20.6752 22.5574C20.7475 22.5074 20.8229 22.4561 20.9007 22.4032C22.9409 21.0154 26.6897 18.4654 22.6931 6.42293ZM17.7465 18.7942C17.4121 18.8911 17.0621 18.6976 16.9648 18.3619C16.8675 18.0262 17.0597 17.6755 17.3941 17.5786C17.7285 17.4817 18.0785 17.6752 18.1758 18.0109C18.2731 18.3466 18.0809 18.6973 17.7465 18.7942ZM18.9936 12.1907C19.0857 12.2309 19.1927 12.1886 19.2325 12.0963C19.2724 12.0039 19.23 11.8965 19.1378 11.8563C18.3961 11.533 17.2568 11.2314 16.2653 11.4077C15.765 11.4967 15.2935 11.7093 14.9356 12.1109C14.5776 12.5128 14.3491 13.0862 14.3024 13.8675C14.2964 13.968 14.3728 14.0545 14.473 14.0608C14.5732 14.067 14.6593 13.9906 14.6653 13.8901C14.7083 13.1695 14.9159 12.6809 15.2069 12.3543C15.498 12.0275 15.8883 11.8453 16.3295 11.7668C17.221 11.6082 18.2828 11.8809 18.9936 12.1907Z" fill="#DB39CB"/>
</svg>
