
<svg width="53" height="50" viewBox="0 0 53 50" fill="none" xmlns="http://www.w3.org/2000/svg">
<path d="M6.53367 27.0692C9.46255 18.8457 29.0635 49.1873 36.4983 34.4419L31.7671 47.4859C28.8382 55.7093 2.92891 37.2775 3.8147e-05 45.2174L6.53367 27.0692Z" fill="url(#paint0_linear_4002_1365)"/>
<path d="M36.2737 35.0139C39.4278 26.5069 23.8823 17.1492 28.1629 10.0601L21.6293 21.6863C17.5739 29.059 34.6966 40.1181 31.7677 48.3415L36.2737 35.0139Z" fill="url(#paint1_linear_4002_1365)"/>
<path d="M32.672 1.55776C37.178 -5.81498 47.3163 15.7361 52.2729 9.21405L45.9646 17.4375C41.008 23.9595 28.166 11.7661 23.4348 18.0046L32.672 1.55776Z" fill="url(#paint2_linear_4002_1365)"/>
<defs>
<linearGradient id="paint0_linear_4002_1365" x1="31.1525" y1="53.4601" x2="3.21297" y2="34.9823" gradientUnits="userSpaceOnUse">
<stop offset="0.0921788" stop-color="#6134BA"/>
<stop offset="0.2933" stop-color="#B23CC9"/>
<stop offset="0.8101" stop-color="#FF4D6A"/>
<stop offset="1" stop-color="#FFA6B5"/>
</linearGradient>
<linearGradient id="paint1_linear_4002_1365" x1="35.3427" y1="40.8395" x2="14.4686" y2="13.4386" gradientUnits="userSpaceOnUse">
<stop offset="0.0921788" stop-color="#6134BA"/>
<stop offset="0.2933" stop-color="#B23CC9"/>
<stop offset="0.8101" stop-color="#FF4D6A"/>
<stop offset="1" stop-color="#FFA6B5"/>
</linearGradient>
<linearGradient id="paint2_linear_4002_1365" x1="46.2955" y1="21.8634" x2="27.7949" y2="10.8087" gradientUnits="userSpaceOnUse">
<stop offset="0.0921788" stop-color="#6134BA"/>
<stop offset="0.2933" stop-color="#B23CC9"/>
<stop offset="0.8101" stop-color="#FF4D6A"/>
<stop offset="1" stop-color="#FFA6B5"/>
</linearGradient>
</defs>
</svg>
