<svg width="35" height="31" viewBox="0 0 35 31" fill="none" xmlns="http://www.w3.org/2000/svg">
<path fill-rule="evenodd" clip-rule="evenodd" d="M14.207 1.52668C0.482096 1.09455 0.0102904 18.7554 1.50851 27.817C1.52646 27.9255 1.61649 28.0034 1.72667 28.0111L5.10959 28.2475C5.24141 28.2567 5.356 28.1517 5.36707 28.0205C6.38257 15.9898 19.4202 17.2194 18.7791 28.9581C18.7719 29.0896 18.8708 29.2092 19.0026 29.2184L21.686 29.4059C21.8123 29.4148 21.9246 29.3159 21.9414 29.1909C24.2294 12.1556 30.0455 18.6358 30.9424 25.8775C30.9565 25.9919 31.0495 26.0811 31.1648 26.0892L31.9054 26.141C32.0295 26.1496 32.1384 26.0695 32.1567 25.9469C32.3959 24.3518 33.8871 14.1072 33.1627 11.307C33.1338 11.1953 33.1048 11.0794 33.0748 10.9595C32.2884 7.8198 30.8433 2.05047 14.207 1.52668ZM27.2044 13.2118C27.1726 13.6674 26.776 14.0109 26.3187 13.9789C25.8613 13.947 25.5163 13.5517 25.5482 13.0961C25.58 12.6405 25.9766 12.297 26.434 12.329C26.8913 12.361 27.2363 12.7562 27.2044 13.2118ZM19.6367 8.69037C19.7279 8.59507 19.7241 8.4442 19.6284 8.35338C19.5327 8.26255 19.3813 8.26618 19.2902 8.36147C18.5566 9.12871 17.67 10.3953 17.4389 11.6959C17.3223 12.3523 17.3708 13.029 17.7036 13.6513C18.0365 14.2738 18.6393 14.8145 19.5803 15.2252C19.7014 15.2781 19.8425 15.2232 19.8955 15.1026C19.9484 14.982 19.8933 14.8414 19.7722 14.7886C18.9043 14.4097 18.3965 13.9333 18.1259 13.4273C17.8552 12.9211 17.8073 12.358 17.9101 11.7793C18.1179 10.6098 18.9339 9.42546 19.6367 8.69037Z" fill="#DB39CB"/>
</svg>
