<svg width="43" height="43" viewBox="0 0 43 43" fill="none" xmlns="http://www.w3.org/2000/svg">
<path fill-rule="evenodd" clip-rule="evenodd" d="M28.3999 9.39966C18.2686 0.130585 6.40528 13.2222 1.63873 21.0731C1.58161 21.1672 1.59918 21.2849 1.67775 21.3625L4.09031 23.7457C4.18432 23.8386 4.3397 23.8335 4.43356 23.7412C13.0415 15.2753 22.1319 24.7017 13.9982 33.19C13.9071 33.285 13.9042 33.4402 13.9982 33.5331L15.9119 35.4235C16.0019 35.5124 16.1516 35.5106 16.2457 35.4267C29.0794 23.9928 29.2704 32.6982 25.2332 38.7767C25.1694 38.8727 25.1818 39.0009 25.264 39.0822L25.7922 39.6039C25.8807 39.6913 26.0155 39.7014 26.1093 39.6204C27.3299 38.566 35.1352 31.765 36.4098 29.1687C36.4606 29.0652 36.5142 28.9582 36.5694 28.8478C38.0182 25.9534 40.6804 20.6349 28.3999 9.39966ZM30.6484 26.7323C30.3275 27.0572 29.8029 27.0594 29.4767 26.7372C29.1505 26.415 29.1463 25.8904 29.4673 25.5655C29.7882 25.2406 30.3128 25.2384 30.639 25.5606C30.9652 25.8828 30.9694 26.4074 30.6484 26.7323ZM27.8525 18.3719C27.9837 18.3589 28.0792 18.242 28.0657 18.1108C28.0523 17.9795 27.935 17.8836 27.8038 17.8966C26.7474 18.0007 25.2497 18.3841 24.2271 19.2204C23.711 19.6423 23.3069 20.1874 23.154 20.8763C23.0011 21.5655 23.1062 22.3684 23.5525 23.293C23.6099 23.412 23.7528 23.4622 23.8715 23.4053C23.9902 23.3483 24.04 23.2057 23.9825 23.0867C23.5709 22.2339 23.496 21.5416 23.6204 20.9815C23.7447 20.421 24.0753 19.9626 24.5303 19.5905C25.4498 18.8387 26.8404 18.4717 27.8525 18.3719Z" fill="#AD61D4"/>
</svg>
