<svg width="41" height="39" viewBox="0 0 41 39" fill="none" xmlns="http://www.w3.org/2000/svg">
<path fill-rule="evenodd" clip-rule="evenodd" d="M11.4227 8.40835C-0.972819 14.3169 6.70499 30.2285 12.191 37.5947C12.2567 37.6829 12.3724 37.7109 12.4739 37.6672L15.5887 36.3263C15.7101 36.274 15.7637 36.1281 15.7134 36.0065C11.1001 24.8491 23.2505 19.9645 28.0626 30.6907C28.1165 30.8108 28.2592 30.8717 28.3806 30.8195L30.8514 29.7559C30.9676 29.7058 31.0221 29.5665 30.9797 29.4477C25.2027 13.2593 33.3426 16.3517 37.4599 22.3763C37.5249 22.4714 37.6484 22.5082 37.7546 22.4624L38.4365 22.1689C38.5508 22.1197 38.6107 21.9986 38.5709 21.8812C38.0521 20.354 34.6804 10.5658 32.7529 8.40946C32.676 8.32343 32.597 8.23367 32.5154 8.14095C30.377 5.7112 26.4476 1.24648 11.4227 8.40835ZM28.331 12.834C28.5116 13.2535 28.3166 13.7405 27.8955 13.9218C27.4744 14.1031 26.9866 13.91 26.806 13.4905C26.6254 13.071 26.8204 12.5839 27.2415 12.4027C27.6626 12.2214 28.1504 12.4145 28.331 12.834ZM19.5325 12.2854C19.5698 12.1589 19.4973 12.0265 19.3706 11.9897C19.244 11.9528 19.111 12.0255 19.0737 12.152C18.7735 13.1701 18.5664 14.7022 18.9573 15.9641C19.1546 16.6008 19.508 17.18 20.089 17.5804C20.6703 17.981 21.4539 18.1851 22.4785 18.1188C22.6103 18.1102 22.7105 17.9968 22.7023 17.8653C22.6941 17.7339 22.5806 17.6342 22.4488 17.6428C21.5038 17.704 20.8341 17.5134 20.3616 17.1878C19.8889 16.862 19.5882 16.3835 19.4143 15.8221C19.0628 14.6875 19.2449 13.2609 19.5325 12.2854Z" fill="#432F94"/>
</svg>
