<svg width="35" height="30" viewBox="0 0 35 30" fill="none" xmlns="http://www.w3.org/2000/svg">
<path fill-rule="evenodd" clip-rule="evenodd" d="M14.2959 1.37238C0.570964 0.940257 0.0991575 18.6011 1.59738 27.6627C1.61533 27.7712 1.70536 27.8491 1.81554 27.8568L5.19846 28.0932C5.33028 28.1024 5.44486 27.9974 5.45594 27.8662C6.47144 15.8355 19.5091 17.0652 18.8679 28.8038C18.8608 28.9353 18.9596 29.0549 19.0915 29.0641L21.7749 29.2516C21.9011 29.2605 22.0134 29.1616 22.0302 29.0366C24.3182 12.0013 30.1344 18.4815 31.0313 25.7232C31.0454 25.8376 31.1383 25.9269 31.2537 25.9349L31.9943 25.9867C32.1184 25.9953 32.2272 25.9152 32.2456 25.7926C32.4848 24.1975 33.9759 13.9529 33.2516 11.1528C33.2227 11.041 33.1936 10.9251 33.1636 10.8052C32.3772 7.66551 30.9322 1.89617 14.2959 1.37238ZM27.2933 13.0575C27.2615 13.5131 26.8649 13.8566 26.4075 13.8246C25.9502 13.7927 25.6052 13.3974 25.637 12.9418C25.6689 12.4862 26.0655 12.1427 26.5228 12.1747C26.9802 12.2067 27.3251 12.6019 27.2933 13.0575ZM19.7256 8.53607C19.8167 8.44078 19.813 8.2899 19.7173 8.19908C19.6216 8.10826 19.4701 8.11188 19.379 8.20718C18.6454 8.97441 17.7589 10.241 17.5278 11.5416C17.4112 12.198 17.4597 12.8747 17.7925 13.497C18.1254 14.1195 18.7282 14.6602 19.6692 15.0709C19.7903 15.1238 19.9313 15.0689 19.9843 14.9483C20.0373 14.8277 19.9821 14.6871 19.8611 14.6343C18.9932 14.2554 18.4854 13.779 18.2148 13.273C17.9441 12.7668 17.8962 12.2037 17.999 11.625C18.2068 10.4555 19.0227 9.27116 19.7256 8.53607Z" fill="#432F94"/>
</svg>
