<svg width="42" height="43" viewBox="0 0 42 43" fill="none" xmlns="http://www.w3.org/2000/svg">
<path fill-rule="evenodd" clip-rule="evenodd" d="M29.802 10.5489C21.5264 -0.408987 7.47899 10.3054 1.36344 17.1579C1.29017 17.24 1.28602 17.359 1.34916 17.4496L3.28778 20.232C3.36332 20.3404 3.51704 20.3637 3.62612 20.29C13.6309 13.5317 20.8542 24.4549 11.3118 31.3214C11.2049 31.3983 11.1738 31.5504 11.2493 31.6588L12.7871 33.8659C12.8595 33.9697 13.0069 33.9951 13.1148 33.9298C27.8148 25.022 26.4185 33.6168 21.3426 38.8592C21.2625 38.942 21.2513 39.0703 21.3174 39.1652L21.7418 39.7743C21.8129 39.8764 21.9436 39.9109 22.0506 39.8483C23.4427 39.0336 32.3552 33.7664 34.0809 31.4454C34.1498 31.3528 34.2219 31.2574 34.2963 31.1589C36.2476 28.5764 39.8331 23.8311 29.802 10.5489ZM28.8591 28.0013C28.4844 28.2624 27.9681 28.1691 27.706 27.7929C27.4439 27.4167 27.5352 26.9001 27.91 26.639C28.2847 26.3779 28.801 26.4712 29.0631 26.8474C29.3252 27.2236 29.2338 27.7402 28.8591 28.0013ZM27.6311 19.2717C27.7625 19.2828 27.8776 19.1853 27.8883 19.0538C27.899 18.9223 27.8011 18.8066 27.6697 18.7955C26.612 18.7057 25.0696 18.8101 23.9118 19.4463C23.3276 19.7673 22.8311 20.2298 22.5554 20.8793C22.2796 21.5292 22.2369 22.3378 22.5075 23.3282C22.5423 23.4556 22.6736 23.5311 22.8007 23.4966C22.9278 23.4622 23.0026 23.3311 22.9678 23.2036C22.7182 22.2902 22.7706 21.5958 22.9948 21.0676C23.2191 20.5392 23.6275 20.1485 24.1426 19.8655C25.1836 19.2935 26.6177 19.1857 27.6311 19.2717Z" fill="#E9FC87"/>
</svg>
