<svg width="413" height="193" viewBox="0 0 413 193" fill="none" xmlns="http://www.w3.org/2000/svg">
<path d="M379.155 174.983C379.155 177.24 377.335 179.06 375.078 179.06C372.82 179.06 371 177.24 371 174.983V146.283C371 144.025 372.82 142.205 375.078 142.205C377.335 142.205 379.155 144.025 379.155 146.283V174.983Z" fill="#E9FC87"/>
<path d="M367.5 158.103C367.5 160.676 365.547 162.75 363.125 162.75C360.703 162.75 358.75 160.676 358.75 158.103V125.397C358.75 122.824 360.703 120.75 363.125 120.75C365.547 120.75 367.5 122.824 367.5 125.397V158.103Z" fill="#E9FC87"/>
<path d="M393.75 162.962C393.75 165.747 391.794 168 389.375 168C386.956 168 385 165.747 385 162.962V122.288C385 119.503 386.956 117.25 389.375 117.25C391.794 117.25 393.75 119.503 393.75 122.288V162.962Z" fill="#E9FC87"/>
<path d="M236.74 164.22C236.74 166.285 235.06 167.965 232.995 167.965C230.93 167.965 229.25 166.285 229.25 164.22V133.245C229.25 131.18 230.93 129.5 232.995 129.5C235.06 129.5 236.74 131.18 236.74 133.245V164.22Z" fill="#E9FC87"/>
<path d="M185.99 189C185.99 191.065 184.31 192.745 182.245 192.745C180.18 192.745 178.5 191.065 178.5 189V143.028C178.5 140.963 180.18 139.283 182.245 139.283C184.31 139.283 185.99 140.963 185.99 143.028V189Z" fill="#E9FC87"/>
<path d="M87.99 168.245C87.99 170.31 86.31 171.99 84.245 171.99C82.18 171.99 80.5 170.31 80.5 168.245V122.272C80.5 120.207 82.18 118.527 84.245 118.527C86.31 118.527 87.99 120.207 87.99 122.272V168.245Z" fill="#E9FC87"/>
<path d="M200.655 167.475C200.655 170.258 198.398 172.533 195.598 172.533C192.815 172.533 190.54 170.275 190.54 167.475V137.813C190.54 135.03 192.798 132.755 195.598 132.755C198.38 132.755 200.655 135.013 200.655 137.813V167.475Z" fill="#E9FC87"/>
<path d="M218.365 178.22C218.365 181.002 216.107 183.278 213.307 183.278C210.525 183.278 208.25 181.02 208.25 178.22V148.557C208.25 145.775 210.507 143.5 213.307 143.5C216.09 143.5 218.365 145.757 218.365 148.557V178.22Z" fill="#E9FC87"/>
<path d="M256.865 150.22C256.865 153.002 254.607 155.278 251.807 155.278C249.025 155.278 246.75 153.02 246.75 150.22V120.557C246.75 117.775 249.007 115.5 251.807 115.5C254.59 115.5 256.865 117.757 256.865 120.557V150.22Z" fill="#E9FC87"/>
<path d="M164.115 151.97C164.115 154.752 161.857 157.028 159.057 157.028C156.275 157.028 154 154.77 154 151.97V122.307C154 119.525 156.257 117.25 159.057 117.25C161.84 117.25 164.115 119.507 164.115 122.307V151.97Z" fill="#E9FC87"/>
<path d="M113.75 153.465C113.75 156.648 111.407 159.25 108.5 159.25C105.612 159.25 103.25 156.668 103.25 153.465V119.535C103.25 116.352 105.593 113.75 108.5 113.75C111.388 113.75 113.75 116.332 113.75 119.535V153.465Z" fill="#E9FC87"/>
<path d="M98 162.245C98 164.448 96.4377 166.25 94.5 166.25C92.5744 166.25 91 164.462 91 162.245V138.755C91 136.552 92.5623 134.75 94.5 134.75C96.4256 134.75 98 136.538 98 138.755V162.245Z" fill="#E9FC87"/>
<path d="M103.25 176.245C103.25 178.448 101.688 180.25 99.75 180.25C97.8244 180.25 96.25 178.462 96.25 176.245V152.755C96.25 150.552 97.8123 148.75 99.75 148.75C101.676 148.75 103.25 150.538 103.25 152.755V176.245Z" fill="#E9FC87"/>
<path d="M133 125.272C133 127.598 131.438 129.5 129.5 129.5C127.574 129.5 126 127.613 126 125.272V100.478C126 98.1517 127.562 96.25 129.5 96.25C131.426 96.25 133 98.137 133 100.478V125.272Z" fill="#E9FC87"/>
<path d="M413 125.272C413 127.598 411.438 129.5 409.5 129.5C407.574 129.5 406 127.613 406 125.272V100.478C406 98.1517 407.562 96.25 409.5 96.25C411.426 96.25 413 98.137 413 100.478V125.272Z" fill="#E9FC87"/>
<path d="M103.978 103.25C101.652 103.25 99.75 101.297 99.75 98.875C99.75 96.468 101.637 94.5 103.978 94.5L128.772 94.5C131.098 94.5 133 96.4529 133 98.875C133 101.282 131.113 103.25 128.772 103.25L103.978 103.25Z" fill="#E9FC87"/>
<path d="M383.978 103.25C381.652 103.25 379.75 101.297 379.75 98.875C379.75 96.468 381.637 94.5 383.978 94.5L408.772 94.5C411.098 94.5 413 96.4529 413 98.875C413 101.282 411.113 103.25 408.772 103.25L383.978 103.25Z" fill="#E9FC87"/>
<path d="M22.75 133.679C22.75 134.27 21.1801 134.75 19.25 134.75C17.3199 134.75 15.75 134.27 15.75 133.679V106.071C15.75 105.48 17.3199 105 19.25 105C21.1801 105 22.75 105.48 22.75 106.071V133.679Z" fill="#E9FC87"/>
<path d="M42 149.248C42 151.88 40.0481 154 37.625 154C35.2019 154 33.25 151.88 33.25 149.248V116.752C33.25 114.12 35.2019 112 37.625 112C40.0481 112 42 114.12 42 116.752V149.248Z" fill="#E9FC87"/>
<path d="M8.75 136.998C8.75 139.63 6.79808 141.75 4.375 141.75C1.95192 141.75 0 139.63 0 136.998V104.502C0 101.87 1.95192 99.75 4.375 99.75C6.79808 99.75 8.75 101.87 8.75 104.502V136.998Z" fill="#E9FC87"/>
<path d="M22.75 138.444C22.75 140.267 21.1801 141.75 19.25 141.75C17.3199 141.75 15.75 140.267 15.75 138.444V132.806C15.75 130.983 17.3199 129.5 19.25 129.5C21.1801 129.5 22.75 130.983 22.75 132.806V138.444Z" fill="#E9FC87"/>
<path d="M22.75 157.694C22.75 159.517 21.1801 161 19.25 161C17.3199 161 15.75 159.517 15.75 157.694V152.056C15.75 150.233 17.3199 148.75 19.25 148.75C21.1801 148.75 22.75 150.233 22.75 152.056V157.694Z" fill="#E9FC87"/>
<path d="M80.4841 123.855H18.9882C12.9465 123.855 8.27138 122.56 4.96283 119.971C1.65428 117.382 0 113.642 0 108.751V102.709L80.2683 1.72619H110.261V97.5303H129.249V123.855H110.261V152.769H80.4841V123.855ZM81.3472 98.825V39.0553H81.1314L33.8767 98.825H81.3472Z" fill="#E9FC87"/>
<path d="M194.002 154.495C183.932 154.495 175.014 152.337 167.246 148.022C159.478 143.562 153.436 137.305 149.121 129.249C144.805 121.194 142.648 111.915 142.648 101.414V53.0807C142.648 42.5796 144.733 33.3013 148.905 25.2457C153.22 17.1901 159.262 11.0045 167.03 6.68902C174.798 2.22967 183.789 0 194.002 0H216.874C226.8 0 235.575 2.22967 243.199 6.68902C250.823 11.0045 256.721 17.1901 260.892 25.2457C265.208 33.3013 267.366 42.5796 267.366 53.0807V101.414C267.366 111.915 265.28 121.194 261.108 129.249C256.936 137.305 251.038 143.562 243.414 148.022C235.79 152.337 226.944 154.495 216.874 154.495H194.002ZM216.443 128.17C222.772 128.17 227.807 125.797 231.547 121.05C235.431 116.159 237.373 109.758 237.373 101.846V52.6491C237.373 44.7373 235.431 38.4079 231.547 33.6609C227.807 28.77 222.772 26.3245 216.443 26.3245H194.434C187.816 26.3245 182.494 28.77 178.466 33.6609C174.438 38.4079 172.424 44.7373 172.424 52.6491V101.846C172.424 109.758 174.438 116.159 178.466 121.05C182.494 125.797 187.816 128.17 194.434 128.17H216.443Z" fill="#E9FC87"/>
<path d="M359.896 123.855H298.4C292.358 123.855 287.683 122.56 284.375 119.971C281.066 117.382 279.412 113.642 279.412 108.751V102.709L359.68 1.72619H389.673V97.5303H408.661V123.855H389.673V152.769H359.896V123.855ZM360.759 98.825V39.0553H360.543L313.289 98.825H360.759Z" fill="#E9FC87"/>
</svg>
