<svg width="1587" height="679" viewBox="0 0 1587 679" fill="none" xmlns="http://www.w3.org/2000/svg">
<path d="M748.824 457.918C746.682 460.861 742.817 462.069 740.191 460.625L709.796 443.91C707.166 442.464 706.773 438.907 708.911 435.969C711.052 433.026 714.917 431.817 717.544 433.262L747.938 449.976C750.568 451.423 750.961 454.98 748.824 457.918Z" fill="#F9F9F9"/>
<path d="M758.953 433.023C756.812 435.966 752.926 437.163 750.275 435.705L734.632 427.103C731.977 425.643 731.564 422.075 733.702 419.137C735.843 416.194 739.728 414.996 742.379 416.454L758.022 425.057C760.678 426.517 761.09 430.085 758.953 433.023Z" fill="#F9F9F9"/>
<path d="M791.842 451.299C789.663 454.221 785.817 455.39 783.252 453.919L776.457 450.022C773.888 448.548 773.576 444.986 775.751 442.07C777.93 439.148 781.776 437.979 784.341 439.45L791.136 443.347C793.705 444.821 794.017 448.382 791.842 451.299Z" fill="#F9F9F9"/>
<path d="M834.85 438.605C832.709 441.548 828.857 442.764 826.247 441.328L824.303 440.259C821.689 438.822 821.309 435.272 823.447 432.334C825.588 429.391 829.44 428.175 832.05 429.611L833.994 430.68C836.608 432.117 836.988 435.667 834.85 438.605Z" fill="#F9F9F9"/>
<path d="M719.27 426.432C717.036 429.503 717.386 433.175 720.042 434.636L735.184 442.963C732.524 441.5 732.182 437.825 734.412 434.76C736.643 431.694 740.612 430.39 743.269 431.851L728.126 423.524C725.465 422.061 721.501 423.367 719.27 426.432Z" fill="#F9F9F9"/>
<path d="M742.839 408.929C740.605 411.999 740.955 415.671 743.611 417.132L758.754 425.459C756.093 423.996 755.751 420.322 757.982 417.256C760.212 414.19 764.181 412.886 766.838 414.347L751.696 406.02C749.035 404.557 745.07 405.863 742.839 408.929Z" fill="#F9F9F9"/>
<path d="M840.733 416.869C842.918 413.771 842.52 410.135 839.853 408.745L771.059 372.574C768.388 371.182 764.455 372.566 762.274 375.659C760.09 378.756 760.488 382.392 763.155 383.782L831.948 419.953C834.62 421.346 838.552 419.961 840.733 416.869Z" fill="#F9F9F9"/>
<path d="M799.628 424.925C801.769 421.982 801.359 418.422 798.72 416.971L760.632 396.026C757.989 394.572 754.114 395.783 751.977 398.721C749.836 401.663 750.246 405.223 752.885 406.674L790.973 427.62C793.616 429.073 797.49 427.863 799.628 424.925Z" fill="#F9F9F9"/>
<path d="M764.204 390.535C766.345 387.592 770.235 386.398 772.892 387.858L799.21 402.695C796.549 401.231 792.66 402.433 790.522 405.372C788.385 408.31 788.806 411.882 791.463 413.343L765.145 398.507C762.484 397.044 762.067 393.473 764.204 390.535Z" fill="#F9F9F9"/>
<path fill-rule="evenodd" clip-rule="evenodd" d="M515.009 241.795C481.177 254.318 447.347 266.841 413.517 279.363C533.174 342.174 595.661 379.901 714.12 446.245C746.659 428.96 762.743 402.46 795.279 385.175C678.143 323.464 633.402 299.706 515.009 241.795Z" fill="#F9F9F9"/>
<path fill-rule="evenodd" clip-rule="evenodd" d="M662.33 187.27C629.888 198.055 597.444 208.841 565 219.627C708.412 290.39 851.448 363.797 994.215 438.969C1024.12 423.31 1054.02 407.651 1083.92 391.992C943.689 321.644 803.189 253.119 662.33 187.27Z" fill="#F9F9F9"/>
<path fill-rule="evenodd" clip-rule="evenodd" d="M824.188 133.461C794.741 143.251 765.293 153.041 735.845 162.831C874.64 225.078 1013.09 289.979 1151.29 356.717C1178.11 342.672 1204.93 328.626 1231.76 314.58C1096.17 252.138 960.337 191.513 824.188 133.461Z" fill="#F9F9F9"/>
<path fill-rule="evenodd" clip-rule="evenodd" d="M970.794 84.7207C944.137 93.5826 917.48 102.445 890.823 111.307C1024.84 166.3 1158.57 223.762 1292.07 282.995C1316.04 270.442 1340.02 257.888 1363.99 245.335C1233.15 189.912 1102.1 136.171 970.794 84.7207Z" fill="#F9F9F9"/>
<path fill-rule="evenodd" clip-rule="evenodd" d="M1103.45 40.6191C1079.38 48.6195 1055.32 56.6193 1031.25 64.6196C1160.39 113.491 1289.29 164.479 1418 217.049C1439.35 205.868 1460.71 194.687 1482.06 183.507C1356.02 134.308 1229.83 86.5337 1103.45 40.6191Z" fill="#F9F9F9"/>
<path fill-rule="evenodd" clip-rule="evenodd" d="M1223 0.875C1201.32 8.08094 1179.65 15.2869 1157.97 22.4933C1282.17 66.2673 1406.2 111.672 1530.1 158.351C1549.06 148.421 1568.02 138.492 1586.99 128.562C1465.77 84.8588 1344.45 42.2098 1223 0.875Z" fill="#F9F9F9"/>
<path opacity="0.1" d="M465.646 433.077C488.229 446.133 524.822 446.133 547.405 433.077C569.988 420.022 569.988 398.822 547.405 385.766C524.822 372.711 488.229 372.711 465.646 385.766C443.063 398.822 443.063 420.022 465.646 433.077Z" fill="black"/>
<path d="M554.698 327.431L553.874 404.888L553.873 404.897L553.873 404.905C553.901 411.558 549.495 418.423 540.121 423.692L540.12 423.692C530.853 428.915 518.675 431.478 506.464 431.345C494.253 431.212 482.134 428.384 472.984 422.956L472.983 422.956C463.841 417.54 459.543 410.647 459.626 404.046L459.626 404.044L460.45 326.145L554.698 327.431Z" fill="#432F94" stroke="black" stroke-width="2.2975"/>
<path d="M473.682 305.368C454.713 316.088 454.504 333.784 473.264 344.894C491.993 356.003 522.581 356.332 541.55 345.642C560.518 334.922 560.727 317.226 541.968 306.116C523.209 295.007 492.65 294.678 473.682 305.368Z" fill="#8371CC"/>
<path d="M551.736 325.97C551.736 327.227 551.467 328.485 551.049 329.772C549.586 334.294 545.642 338.516 539.489 341.989C530.916 346.78 519.535 349.356 507.317 349.266C495.189 349.116 483.838 346.301 475.355 341.301C469.41 337.767 465.527 333.515 464.153 329.084C463.675 327.766 463.466 326.389 463.466 325.041C463.585 319.142 467.887 313.453 475.713 309.081C484.227 304.23 495.667 301.655 507.825 301.805C520.013 301.895 531.364 304.769 539.818 309.77C547.554 314.351 551.736 320.101 551.706 326L551.736 325.97Z" fill="#263238"/>
<path d="M551.049 329.772C549.585 334.294 545.642 338.516 539.489 341.989C530.916 346.78 519.535 349.355 507.317 349.266C495.189 349.116 483.838 346.301 475.355 341.301C469.41 337.767 465.527 333.515 464.153 329.084C465.617 324.562 469.56 320.34 475.713 316.926C484.227 312.075 495.667 309.5 507.825 309.59C520.013 309.74 531.364 312.585 539.817 317.585C545.762 321.118 549.585 325.341 551.019 329.742L551.049 329.772Z" fill="white"/>
<path opacity="0.6" d="M551.049 329.772C549.585 334.294 545.642 338.516 539.489 341.989C530.916 346.78 519.535 349.355 507.317 349.266C495.189 349.116 483.838 346.301 475.355 341.301C469.41 337.767 465.527 333.515 464.153 329.084C465.617 324.562 469.56 320.34 475.713 316.926C484.227 312.075 495.667 309.5 507.825 309.59C520.013 309.74 531.364 312.585 539.817 317.585C545.762 321.118 549.585 325.341 551.019 329.742L551.049 329.772Z" fill="white"/>
<path d="M528.167 355.913C530.288 354.715 531.991 355.733 531.961 358.159C531.961 360.584 530.199 363.549 528.078 364.746C525.957 365.944 524.254 364.926 524.284 362.501C524.284 360.075 526.046 357.111 528.167 355.913Z" fill="#263238"/>
<path d="M459.134 338.875C453.817 349.356 443.272 374.329 456.983 384.48C457.551 384.899 458.089 385.258 458.656 385.647L458.596 390.708C457.222 389.869 455.818 388.911 454.444 387.923C433.952 372.712 457.073 333.605 458.059 331.988C458.328 331.509 458.746 331.24 459.224 331.09L459.104 338.875H459.134Z" fill="#E0E0E0"/>
<path d="M529.99 361.302C529.422 362.5 514.486 391.126 489.962 396.846C487.124 397.534 484.346 397.834 481.508 397.834C473.891 397.834 466.273 395.468 458.656 390.677L458.716 385.617C468.872 392.683 479.059 395.109 489.036 392.773C511.678 387.443 526.196 359.596 526.285 359.326C526.823 358.278 528.138 357.919 529.123 358.428C530.169 358.967 530.587 360.224 530.019 361.272L529.99 361.302Z" fill="#E0E0E0"/>
<g clip-path="url(#clip0_583_1302)">
<path fill-rule="evenodd" clip-rule="evenodd" d="M1015.54 196.488C1013.65 195.797 1011.53 196.289 1010.15 197.742C1005.23 202.882 999.763 205.669 994.013 207.258C992.958 207.548 992.25 208.53 992.308 209.619C992.367 210.709 993.173 211.613 994.253 211.794C1001.35 213.03 1008.37 212.196 1015.3 209.178C1021.17 206.622 1020.53 198.329 1015.54 196.488Z" fill="white" stroke="#242728" stroke-width="2.2975" stroke-miterlimit="1.5" stroke-linejoin="round"/>
<path fill-rule="evenodd" clip-rule="evenodd" d="M1011.48 207.657C999.584 206.231 988.744 202.482 979.136 195.996C966.215 187.428 960.092 176.476 958.981 163.758C961.252 155.573 969.116 148.733 979.164 156.21L980.125 162.758C987.936 174.059 997.173 175.73 1006.81 174.72L1005.16 163.066L998.533 159.027C995.881 157.412 993.994 154.8 993.295 151.784L982.262 104.049C981.273 99.7684 983.148 95.3357 986.913 93.0494C990.681 90.7601 995.494 91.1328 998.863 93.9689L1013.88 106.612L1057.21 92.5586C1062.26 90.9154 1067.77 91.3535 1072.5 93.7702L1128.23 122.236C1132.48 124.411 1134.59 129.284 1133.26 133.86L1124.21 164.833C1129.6 167.107 1132.58 172.931 1131.23 178.638L1121.08 221.287L1126.42 220.495C1132.96 225.882 1135.61 232.638 1131.83 241.658L1108.89 250.965C1105.89 252.183 1102.44 251.468 1100.18 249.157L1094.75 243.612L1089.46 245.271L1095.23 256.556C1090.62 267.391 1083.16 273.778 1071.87 274.166C1064.16 265.847 1058.01 255.795 1053.37 244.091L1043.09 238.894C1034 246.579 1024.9 253.959 1015.63 258.168C1002.67 257.081 996.798 249.443 998.96 234.362L1014.14 222.228C1013.61 221.222 1013.24 220.113 1013.08 218.954L1011.48 207.657Z" fill="#EF88AD"/>
<path d="M1001.4 232.523C1005.89 229.862 1012.93 233.36 1017.1 240.332C1021.26 247.303 1021 255.126 1016.51 257.787" stroke="#242728" stroke-width="2.2975" stroke-miterlimit="1.5" stroke-linejoin="round"/>
<path d="M1013.98 221.864L1001.02 232.89C992.212 239.734 1006.64 262.884 1016.49 257.798C1026.1 252.007 1034.14 246.135 1042.11 238.388" stroke="#242728" stroke-width="2.2975" stroke-miterlimit="1.5" stroke-linejoin="round"/>
<path d="M1015.59 107.474C1010.55 103.43 1005.13 99.0838 999.99 94.9543C995.801 91.5931 990.726 90.6483 986.997 92.5348C983.271 94.422 981.577 98.7929 982.667 103.719C986.299 120.11 990.6 139.541 992.752 149.25C993.618 153.166 995.952 157.086 999.357 159.622C1001.48 161.201 1004.56 162.071 1004.56 162.071" stroke="#242728" stroke-width="2.2975" stroke-miterlimit="1.5" stroke-linejoin="round"/>
<path d="M1004.09 109.338C1000.78 106.683 996.783 105.937 993.843 107.426" stroke="#242728" stroke-width="2.2975" stroke-miterlimit="1.5" stroke-linejoin="round"/>
<path d="M1089.14 245.27L1101.84 241.517M1104.47 232.407L1105.94 227.384M1011.46 207.562L1013.08 218.953C1013.53 222.165 1015.53 224.958 1018.44 226.427L1053.37 244.09M1124.22 164.807L1133.26 133.859C1134.59 129.283 1132.49 124.41 1128.23 122.235L1072.5 93.7691C1067.77 91.3524 1062.26 90.9143 1057.21 92.5575L1005.85 109.211C1001.25 110.705 998.383 115.277 999.06 120.052L1006.81 174.719" stroke="#242728" stroke-width="2.2975" stroke-miterlimit="1.5" stroke-linejoin="round"/>
<path d="M1019.4 122.676C1040.33 133.263 1042.05 134.131 1057.87 142.136C1064.38 145.427 1071.93 146.042 1078.89 143.85C1087.29 141.203 1094.11 139.262 1104.89 135.864" stroke="#242728" stroke-width="2.2975" stroke-miterlimit="1.5" stroke-linejoin="round"/>
<path d="M1082.98 235.333L1094.31 252.673C1100.06 263.052 1076.81 280.711 1069.36 271.697C1060.53 259.453 1053.47 246.225 1048.55 231.797" stroke="#242728" stroke-width="2.2975" stroke-miterlimit="1.5" stroke-linejoin="round"/>
<path d="M1029.27 180.946C1027.79 176.93 1025.63 174.054 1020.62 174.581C1019.37 174.676 1017.17 174.762 1013.27 174.77C999.513 174.801 986.092 174.673 980.032 162.572C979.863 162.233 979.274 156.354 979.115 156.008C979.115 156.008 976.36 152.836 973.322 152.58C968.189 152.148 961.968 155.092 959.611 161.654C958.155 165.709 959.664 169.674 959.819 170.391C964.38 191.528 998.534 216.182 1033.56 205.05" stroke="#242728" stroke-width="2.2975" stroke-miterlimit="1.5" stroke-linejoin="round"/>
<path fill-rule="evenodd" clip-rule="evenodd" d="M1039.02 203.79C1037.13 203.098 1035.02 203.591 1033.63 205.044C1028.14 210.792 1021.95 213.596 1015.45 215.076C1014.62 215.27 1014.03 216.008 1014.04 216.857C1014.04 217.707 1014.63 218.445 1015.46 218.634C1023.35 220.486 1031.12 219.818 1038.79 216.48C1044.66 213.925 1044.02 205.631 1039.02 203.79Z" fill="white" stroke="#242728" stroke-width="2.2975" stroke-miterlimit="1.5" stroke-linejoin="round"/>
<path d="M1034.6 204.262C1037.44 202.002 1038.83 199.861 1040.59 197.39" stroke="#242728" stroke-width="2.2975" stroke-miterlimit="1.5" stroke-linejoin="round"/>
<path d="M1040.61 215.61C1043.99 214.25 1045.93 212.592 1048.33 210.725" stroke="#242728" stroke-width="2.2975" stroke-miterlimit="1.5" stroke-linejoin="round"/>
<path d="M994.27 173.343C998.249 175.309 999.387 179.635 997.123 183.095" stroke="#242728" stroke-width="2.2975" stroke-miterlimit="1.5" stroke-linejoin="round"/>
<path d="M1083.61 150.066C1083.61 150.066 1108.69 159.165 1123.48 164.528C1129.5 166.714 1132.94 173.042 1131.48 179.26C1129.15 189.239 1125.58 204.447 1122.44 217.845C1121.27 222.856 1117.25 226.712 1112.18 227.693C1107.11 228.675 1101.94 226.6 1098.96 222.393C1092.49 213.261 1086.63 204.986 1086.63 204.986" stroke="#242728" stroke-width="2.2975" stroke-miterlimit="1.5" stroke-linejoin="round"/>
<path d="M1086.7 166.189L1112.76 171.991" stroke="#242728" stroke-width="2.2975" stroke-miterlimit="1.5" stroke-linejoin="round"/>
<path d="M1094.76 243.604C1097.88 247.81 1103.04 252.928 1109.03 251.469C1111.28 250.92 1122.1 245.841 1128.29 243.167C1131.36 241.841 1133.42 238.904 1133.62 235.571C1133.98 229.708 1131.9 224.826 1126.65 221.222C1124.58 219.787 1120.81 221.623 1120.81 221.623" stroke="#242728" stroke-width="2.2975" stroke-miterlimit="1.5" stroke-linejoin="round"/>
<path d="M979.831 160.408L974.54 104.781" stroke="#242728" stroke-width="2.2975" stroke-miterlimit="1.5" stroke-linejoin="round"/>
<path fill-rule="evenodd" clip-rule="evenodd" d="M974.54 104.783C976.976 103.443 979.559 102.354 982.523 101.903C984.46 101.598 986.444 101.739 988.319 102.318C991.213 103.201 996.691 104.891 1000.83 106.167C1004.34 107.25 1008.09 107.275 1011.62 106.239C1011.76 106.198 1011.89 106.157 1012.03 106.117C1012.73 105.912 1013.48 106.162 1013.92 106.744C1014.35 107.327 1014.38 108.117 1013.98 108.724C1013.21 109.889 1012.34 111.201 1011.49 112.493C1008.64 116.822 1004.04 119.697 998.887 120.362C996.17 120.713 993.466 121.063 991.996 121.252C991.064 121.372 990.15 121.589 989.261 121.9C983.19 124.048 979.734 127.115 977.101 131.701L974.54 104.783Z" fill="#E9FC87"/>
<path d="M998.635 115.133L994.889 115.027C994.33 115.011 994.056 114.791 994.068 114.365L994.076 114.076L998.871 108.131L1000.04 108.164L999.868 114.115L1000.97 114.146L1000.94 115.198L999.838 115.167L999.788 116.934L998.585 116.9L998.635 115.133ZM998.702 114.107L998.825 109.772L998.812 109.772L995.419 114.014L998.702 114.107Z" fill="black"/>
<path d="M989.406 116.303C988.87 116.345 988.387 116.26 987.958 116.048C987.529 115.837 987.185 115.522 986.925 115.104C986.665 114.678 986.513 114.18 986.469 113.61L986.223 110.419C986.18 109.85 986.254 109.339 986.446 108.886C986.638 108.425 986.93 108.057 987.322 107.782C987.714 107.508 988.177 107.35 988.713 107.309L990.045 107.206C990.573 107.166 991.047 107.251 991.468 107.463C991.897 107.675 992.237 107.994 992.489 108.421C992.749 108.839 992.9 109.333 992.944 109.902L993.19 113.093C993.234 113.663 993.16 114.178 992.968 114.639C992.783 115.091 992.5 115.455 992.116 115.728C991.733 116.002 991.273 116.16 990.737 116.201L989.406 116.303ZM990.63 115.135C991.082 115.1 991.434 114.905 991.684 114.548C991.935 114.192 992.039 113.738 991.996 113.185L991.751 109.994C991.708 109.441 991.536 109.008 991.234 108.694C990.932 108.381 990.554 108.241 990.102 108.276L988.821 108.375C988.36 108.41 988 108.606 987.741 108.963C987.482 109.32 987.374 109.775 987.417 110.328L987.662 113.518C987.705 114.071 987.881 114.504 988.192 114.817C988.502 115.13 988.888 115.269 989.349 115.234L990.63 115.135Z" fill="black"/>
<path d="M983.137 117.226L979.13 118.42C978.531 118.598 978.164 118.459 978.028 118.004L977.936 117.695L980.945 109.722L982.192 109.351L984.088 115.717L985.268 115.365L985.603 116.491L984.424 116.842L984.986 118.732L983.7 119.115L983.137 117.226ZM982.85 116.115L981.468 111.478L981.455 111.482L979.338 117.161L982.85 116.115Z" fill="black"/>
<path fill-rule="evenodd" clip-rule="evenodd" d="M974.54 104.783C976.976 103.443 979.559 102.354 982.523 101.903C984.46 101.598 986.444 101.739 988.319 102.318C991.213 103.201 996.691 104.891 1000.83 106.167C1004.34 107.25 1008.09 107.275 1011.62 106.239C1011.76 106.198 1011.89 106.157 1012.03 106.117C1012.73 105.912 1013.48 106.162 1013.92 106.744C1014.35 107.327 1014.38 108.117 1013.98 108.724C1013.21 109.889 1012.34 111.201 1011.49 112.493C1008.64 116.822 1004.04 119.697 998.887 120.362C996.17 120.713 993.466 121.063 991.996 121.252C991.064 121.372 990.15 121.589 989.261 121.9C983.19 124.048 979.734 127.115 977.101 131.701L974.54 104.783Z" stroke="#242728" stroke-width="2.2975" stroke-miterlimit="1.5" stroke-linejoin="round"/>
<path fill-rule="evenodd" clip-rule="evenodd" d="M1045.72 107.2C1045.72 107.062 1045.71 106.924 1045.72 106.785C1045.81 102.973 1048.22 99.1818 1052.94 96.287C1062.56 90.3905 1078.15 90.4289 1087.74 96.3721C1092.82 99.5211 1095.2 103.701 1094.88 107.812L1094.86 115.714C1095.16 119.826 1092.76 123.994 1087.66 127.119C1078.04 133.015 1062.45 132.977 1052.87 127.034C1048.04 124.044 1045.65 120.126 1045.69 116.219L1045.72 107.2Z" fill="#E9FC87"/>
<path fill-rule="evenodd" clip-rule="evenodd" d="M1044.78 107.211L1044.78 107.208C1044.78 107.06 1044.78 106.912 1044.78 106.763C1044.88 102.685 1047.4 98.5907 1052.45 95.4945C1062.34 89.4312 1078.37 89.47 1088.23 95.5817C1093.66 98.9468 1096.14 103.455 1095.82 107.849C1095.82 107.849 1095.8 115.684 1095.8 115.681C1096.1 120.078 1093.6 124.574 1088.15 127.913C1078.26 133.976 1062.23 133.937 1052.37 127.826C1047.21 124.627 1044.72 120.395 1044.76 116.215L1044.78 107.211ZM1046.65 107.204L1046.63 116.223C1046.63 116.225 1046.63 116.227 1046.63 116.23C1046.59 119.862 1048.88 123.464 1053.36 126.244C1062.68 132.019 1077.82 132.055 1087.17 126.326C1091.9 123.425 1094.2 119.6 1093.93 115.781C1093.93 115.758 1093.93 115.736 1093.93 115.713L1093.95 107.81C1093.95 107.788 1093.95 107.765 1093.95 107.742C1094.24 103.925 1091.96 100.089 1087.24 97.1642C1077.93 91.3889 1062.78 91.3521 1053.43 97.0812C1049.04 99.7748 1046.74 103.262 1046.65 106.809C1046.65 106.934 1046.65 107.058 1046.65 107.183C1046.65 107.19 1046.65 107.196 1046.65 107.204Z" fill="#242728"/>
<path fill-rule="evenodd" clip-rule="evenodd" d="M1048.36 115.218L1049.73 113.95C1050.73 115.022 1051.97 116.029 1053.45 116.946C1056.57 118.879 1060.34 120.162 1064.33 120.805C1068.93 121.546 1073.82 121.435 1078.33 120.468C1081.59 119.77 1084.65 118.627 1087.25 117.029C1092.35 113.905 1094.62 109.706 1093.91 105.609L1095.75 105.289C1096.58 110.031 1094.13 114.999 1088.23 118.616C1085.46 120.319 1082.2 121.546 1078.72 122.291C1073.99 123.304 1068.86 123.422 1064.03 122.644C1059.79 121.961 1055.77 120.585 1052.46 118.528C1050.82 117.516 1049.46 116.4 1048.36 115.218Z" fill="#242728"/>
<path fill-rule="evenodd" clip-rule="evenodd" d="M1045.76 88.7997C1045.76 88.6618 1045.76 88.5232 1045.76 88.385C1045.86 84.5722 1048.27 80.7814 1052.99 77.8866C1062.6 71.9901 1078.19 72.0285 1087.78 77.9717C1092.86 81.1207 1095.24 85.3007 1094.93 89.4115L1094.91 97.3135C1095.2 101.426 1092.8 105.594 1087.7 108.718C1078.09 114.614 1062.5 114.576 1052.91 108.634C1048.09 105.644 1045.7 101.726 1045.74 97.8191L1045.76 88.7997Z" fill="#E9FC87"/>
<path fill-rule="evenodd" clip-rule="evenodd" d="M1044.83 88.8104L1044.83 88.8081C1044.82 88.6594 1044.82 88.5114 1044.83 88.363C1044.93 84.285 1047.45 80.1903 1052.5 77.0941C1062.39 71.0309 1078.42 71.0696 1088.28 77.1814C1093.7 80.5464 1096.18 85.0546 1095.86 89.4483C1095.86 89.4483 1095.84 97.2833 1095.84 97.281C1096.15 101.677 1093.64 106.173 1088.2 109.513C1078.31 115.576 1062.28 115.537 1052.42 109.425C1047.26 106.227 1044.76 101.994 1044.8 97.815L1044.83 88.8104ZM1046.7 88.8032L1046.67 97.8225C1046.67 97.8248 1046.67 97.8271 1046.67 97.8293C1046.64 101.462 1048.92 105.063 1053.41 107.844C1062.72 113.618 1077.87 113.655 1087.21 107.926C1091.95 105.024 1094.25 101.2 1093.97 97.3811C1093.97 97.3579 1093.97 97.3354 1093.97 97.3123L1093.99 89.4098C1093.99 89.3873 1093.99 89.3643 1093.99 89.3413C1094.29 85.5242 1092 81.6882 1087.29 78.7638C1077.97 72.9886 1062.82 72.9517 1053.48 78.6808C1049.09 81.3744 1046.79 84.8618 1046.7 88.4088C1046.7 88.5335 1046.7 88.6579 1046.7 88.7829C1046.7 88.7897 1046.7 88.7959 1046.7 88.8032Z" fill="#242728"/>
<path fill-rule="evenodd" clip-rule="evenodd" d="M1090.97 95.653L1092.34 96.9279C1091.23 98.1046 1089.86 99.2133 1088.22 100.217C1084.89 102.258 1080.87 103.615 1076.62 104.277C1071.79 105.031 1066.66 104.889 1061.93 103.852C1058.46 103.09 1055.21 101.847 1052.44 100.13C1046.56 96.4845 1044.14 91.5051 1044.99 86.7672L1046.83 87.0963C1046.09 91.1891 1048.35 95.3992 1053.43 98.5482C1056.03 100.159 1059.08 101.317 1062.34 102.031C1066.84 103.02 1071.73 103.155 1076.33 102.436C1080.33 101.813 1084.11 100.549 1087.24 98.6306C1088.72 97.7207 1089.97 96.7198 1090.97 95.653Z" fill="#242728"/>
</g>
<path fill-rule="evenodd" clip-rule="evenodd" d="M690.921 219.976C677.585 220.042 664.682 218.437 652.491 214.089C644.049 211.078 646.885 192.123 655.27 188.312C635.959 180.826 625.349 167.018 619.292 149.903C617.829 138.002 634.104 127.701 642.642 138.587L642.618 144.589C652.322 157.686 663.996 160.681 676.342 160.242L678.833 109.29L674.598 106.28L672.547 97.6311L680.559 55.3974C681.177 52.1258 683.745 49.5718 687.02 48.9665L690.932 48.2452C693.856 47.7031 696.84 48.8161 698.697 51.1373L716.005 72.7804L733.358 68.0528C739.07 66.4957 745.166 67.2829 750.295 70.2401L798.904 98.2526C802.515 100.335 804.658 104.258 804.454 108.423L804.087 115.95L807.258 115.886C810.036 115.827 812.718 116.883 814.715 118.814C816.708 120.746 817.852 123.393 817.886 126.169L818.367 165.539C818.416 169.642 816.211 173.439 812.624 175.427C809.037 177.414 804.65 177.27 801.199 175.054L798.94 221.218C798.868 222.734 798.487 224.182 797.858 225.49C794.257 235.502 789.58 244.473 783.455 252.034L784.877 271.648C778.605 282.186 761.811 284.629 752.071 274.095L750.736 252.325C742.296 262.949 726.237 261.356 718.638 252.987L718.256 240.544L695.492 251.764C685.393 257.887 675.909 237.391 682.921 228.074L692.618 220.946L690.921 219.976Z" fill="#E9FC87"/>
<path d="M722.346 237.924C724.498 239.152 726.488 240.29 728.246 241.293C733.304 244.181 739.295 244.968 744.928 243.482C747.016 242.932 749.391 242.306 751.95 241.632M798.8 223.895L801.385 174.876M804.14 114.884L804.456 108.427C804.659 104.265 802.516 100.339 798.906 98.2589C787.65 91.7723 763.044 77.5918 750.296 70.2461C745.167 67.2905 739.07 66.5031 733.36 68.0595C721.164 71.3828 699.492 77.289 687.923 80.4408C683.283 81.7047 679.982 85.8131 679.747 90.6183C679.079 104.283 677.673 133.053 676.407 158.955M674.752 192.811L674.232 203.454C674.028 207.632 676.188 211.571 679.822 213.646C683.234 215.594 687.866 218.238 693.013 221.178" stroke="#242728" stroke-width="2.2975" stroke-miterlimit="1.5" stroke-linejoin="round"/>
<path d="M699.224 93.4551C717.797 104.061 719.324 104.931 733.368 112.95C739.144 116.247 745.984 117.145 752.415 115.451" stroke="#242728" stroke-width="2.2975" stroke-miterlimit="1.5" stroke-linejoin="round"/>
<path d="M672.763 96.1166C672.161 99.5708 672.844 104.209 675.18 106.824C676.634 108.451 679.275 109.603 679.275 109.603M716.703 72.9387C711.93 67.0726 705.44 59.0971 699.496 51.7912C696.711 48.3692 692.189 46.8889 687.921 48.0008C683.655 49.1137 680.428 52.6137 679.667 56.9577C678.101 65.9228 676.352 75.9187 674.893 84.2608" stroke="#242728" stroke-width="2.2975" stroke-miterlimit="1.5" stroke-linejoin="round"/>
<path d="M768.51 111.127C768.51 111.127 793.174 113.726 807.712 115.258C813.636 115.883 818.158 120.838 818.242 126.795C818.377 136.352 818.578 150.92 818.757 163.754C818.826 168.553 816.069 172.946 811.717 174.974C807.367 177.002 802.231 176.287 798.596 173.149C790.711 166.336 783.569 160.163 783.569 160.163" stroke="#242728" stroke-width="2.2975" stroke-miterlimit="1.5" stroke-linejoin="round"/>
<path d="M775.34 120.482L803.065 122.266" stroke="#242728" stroke-width="2.2975" stroke-miterlimit="1.5" stroke-linejoin="round"/>
<path d="M698.377 63.3301L705.515 76.3566" stroke="#242728" stroke-width="2.2975" stroke-miterlimit="1.5" stroke-linejoin="round"/>
<path d="M698.983 166.111C697.104 161.713 694.539 158.625 688.997 159.498C687.621 159.674 685.178 159.895 680.84 160.126C665.551 160.941 650.432 157.746 643.006 144.584C642.798 144.215 643.344 139.156 643.147 138.779C640.406 134.436 636.738 133.87 634.978 133.811C629.248 133.621 622.501 137.26 620.255 144.719C618.867 149.327 620.771 153.667 620.984 154.458C627.258 177.793 666.626 203.373 704.926 188.958" stroke="#242728" stroke-width="2.2975" stroke-miterlimit="1.5" stroke-linejoin="round"/>
<path d="M661.311 158.334C665.849 160.305 667.363 165.069 665.046 169.057" stroke="#242728" stroke-width="2.2975" stroke-miterlimit="1.5" stroke-linejoin="round"/>
<path fill-rule="evenodd" clip-rule="evenodd" d="M709.578 188.116C707.439 187.454 705.112 188.125 703.657 189.825C697.872 196.552 691.146 200.035 684.002 202.059C683.091 202.324 682.482 203.181 682.537 204.127C682.588 205.075 683.288 205.864 684.221 206.027C693.087 207.638 701.693 206.445 710.034 202.281C716.416 199.093 715.237 189.881 709.578 188.116Z" fill="white" stroke="#242728" stroke-width="2.2975" stroke-miterlimit="1.5" stroke-linejoin="round"/>
<path d="M704.678 188.895C707.709 186.21 709.129 183.741 710.952 180.884" stroke="#242728" stroke-width="2.2975" stroke-miterlimit="1.5" stroke-linejoin="round"/>
<path d="M712.008 201.217C715.68 199.51 717.747 197.55 720.31 195.333" stroke="#242728" stroke-width="2.2975" stroke-miterlimit="1.5" stroke-linejoin="round"/>
<path d="M798.729 223.62C795.358 235.558 789.136 245.384 779.38 256.681" stroke="#242728" stroke-width="2.2975" stroke-miterlimit="1.5" stroke-linejoin="round"/>
<path d="M759.094 224.142C759.094 224.142 755.068 233.883 752.589 239.879C751.341 242.905 750.761 246.165 750.895 249.435C751.216 257.355 751.815 271.965 751.815 271.965C752.08 277.148 759.527 280.986 768.438 280.531C777.345 280.076 784.364 275.5 784.099 270.317L782.566 253.071" stroke="#242728" stroke-width="2.2975" stroke-miterlimit="1.5" stroke-linejoin="round"/>
<path d="M717.91 240.565L718.346 251.243C718.611 256.426 726.058 260.263 734.969 259.809C743.876 259.354 750.895 254.777 750.63 249.595" stroke="#242728" stroke-width="2.2975" stroke-miterlimit="1.5" stroke-linejoin="round"/>
<path d="M684.045 226.664C688.695 224.803 694.823 229.164 697.718 236.397C700.614 243.63 699.187 251.015 694.537 252.877" stroke="#242728" stroke-width="2.2975" stroke-miterlimit="1.5" stroke-linejoin="round"/>
<path d="M664.912 191.413C666.223 194.533 666.338 198.859 664.947 203.243C662.592 210.67 656.801 215.469 652.027 213.955" stroke="#242728" stroke-width="2.2975" stroke-miterlimit="1.5" stroke-linejoin="round"/>
<path d="M703.73 214.596L683.624 226.941C674.279 232.117 684.476 256.232 694.538 252.877C709.039 246.964 722.303 238.997 734.022 228.46" stroke="#242728" stroke-width="2.2975" stroke-miterlimit="1.5" stroke-linejoin="round"/>
<path d="M655.274 187.962C647.607 192.602 643.721 210.772 652.027 213.956C664.89 217.945 678.011 220.179 691.447 220.28" stroke="#242728" stroke-width="2.2975" stroke-miterlimit="1.5" stroke-linejoin="round"/>
<path fill-rule="evenodd" clip-rule="evenodd" d="M646.936 76.7435C657.773 84.9669 669.779 86.911 682.377 85.6559C682.988 85.597 683.567 85.9405 683.807 86.5041C684.047 87.068 683.894 87.7227 683.431 88.1236L683.427 88.1246C670.654 99.1816 658.198 103.378 646.225 95.6007C646.346 92.4586 646.818 79.8868 646.936 76.7435Z" fill="#242728"/>
<path d="M671.244 93.3655L667.625 94.3355C667.084 94.4804 666.758 94.347 666.648 93.9354L666.573 93.6569L669.467 86.5881L670.593 86.2864L672.134 92.0371L673.2 91.7516L673.472 92.7686L672.407 93.0541L672.864 94.7611L671.702 95.0725L671.244 93.3655ZM671.015 92.363L669.892 88.1741L669.88 88.1773L667.843 93.2129L671.015 92.363Z" fill="#E9FC87"/>
<path d="M659.711 96.2232C659.176 96.1772 658.713 96.0151 658.324 95.7372C657.935 95.4592 657.646 95.0929 657.458 94.6383C657.27 94.1754 657.2 93.6593 657.249 93.0902L657.524 89.9017C657.573 89.3327 657.729 88.8403 657.992 88.4245C658.256 88.0004 658.604 87.6846 659.035 87.4772C659.466 87.2698 659.949 87.1891 660.484 87.2351L661.815 87.3496C662.342 87.3949 662.796 87.5562 663.177 87.8334C663.566 88.1114 663.851 88.4815 664.03 88.9438C664.219 89.3984 664.288 89.9102 664.24 90.4793L663.965 93.6678C663.916 94.2369 663.76 94.7335 663.496 95.1576C663.241 95.5741 662.902 95.8864 662.479 96.0945C662.057 96.3027 661.578 96.3837 661.042 96.3377L659.711 96.2232ZM661.109 95.2685C661.561 95.3073 661.939 95.1713 662.244 94.8603C662.549 94.5493 662.725 94.1176 662.773 93.5653L663.047 90.3767C663.094 89.8244 662.995 89.369 662.747 89.0105C662.5 88.652 662.15 88.4533 661.698 88.4144L660.418 88.3043C659.957 88.2647 659.571 88.4001 659.257 88.7104C658.944 89.0206 658.764 89.452 658.716 90.0043L658.442 93.1928C658.394 93.7451 658.499 94.2009 658.754 94.5602C659.01 94.9194 659.368 95.1188 659.828 95.1584L661.109 95.2685Z" fill="#E9FC87"/>
<path d="M652.367 92.1541L648.225 91.5787C647.607 91.4927 647.33 91.2142 647.395 90.7433L647.44 90.4247L653.484 84.4172L654.772 84.5962L653.858 91.1754L655.077 91.3447L654.915 92.5082L653.696 92.3389L653.425 94.2918L652.095 94.1071L652.367 92.1541ZM652.566 91.0241L653.232 86.2317L653.218 86.2297L648.937 90.5199L652.566 91.0241Z" fill="#E9FC87"/>
<path d="M642.961 143.863L646.318 75.3559" stroke="#242728" stroke-width="2.2975" stroke-miterlimit="1.5" stroke-linejoin="round"/>
<path fill-rule="evenodd" clip-rule="evenodd" d="M646.319 75.356L645.542 95.9621C657.877 104.202 670.737 100.046 683.909 88.6456C684.604 88.0488 684.829 87.0706 684.472 86.2279C684.111 85.3853 683.248 84.8727 682.335 84.9615C669.496 86.2395 657.283 84.1649 646.319 75.356Z" stroke="#242728" stroke-width="2.2975" stroke-miterlimit="1.5" stroke-linejoin="round"/>
<path fill-rule="evenodd" clip-rule="evenodd" d="M723.587 79.4974C723.594 79.3768 723.601 79.2558 723.613 79.1354C723.928 75.8121 726.254 72.6492 730.536 70.4092C739.257 65.8466 752.809 66.8295 760.781 72.6022C765.005 75.6609 766.82 79.4554 766.294 83.0254L765.795 89.9234C765.799 93.5317 763.456 97.0245 758.834 99.4422C750.114 104.004 736.561 103.022 728.59 97.2498C724.58 94.3454 722.741 90.7789 723.014 87.3706L723.587 79.4974Z" fill="#FF85D0"/>
<path fill-rule="evenodd" clip-rule="evenodd" d="M722.546 79.4424C722.547 79.441 722.547 79.4346 722.547 79.4326C722.554 79.3007 722.564 79.1691 722.577 79.0373C722.919 75.4186 725.391 71.926 730.053 69.4869C739.089 64.7597 753.132 65.7773 761.392 71.7587C765.986 75.0857 767.886 79.2533 767.331 83.1379C767.331 83.1379 766.837 89.9622 766.836 89.9586C766.826 93.8838 764.345 97.7355 759.318 100.366C750.282 105.093 736.239 104.075 727.979 98.0933C723.611 94.9305 721.681 91.006 721.976 87.2931L722.546 79.4424ZM724.625 79.5734L724.053 87.4467C724.053 87.4486 724.053 87.4516 724.052 87.454C723.804 90.5572 725.55 93.7625 729.201 96.4062C736.884 101.97 749.947 102.917 758.352 98.5199C762.551 96.3228 764.757 93.2046 764.753 89.9248C764.753 89.8995 764.754 89.8738 764.756 89.8483L765.256 82.9504C765.257 82.9247 765.26 82.8994 765.264 82.8741C765.741 79.6298 764.009 76.2259 760.17 73.4457C752.487 67.8822 739.425 66.9352 731.02 71.3326C727.118 73.3735 724.937 76.2062 724.649 79.2339C724.641 79.3394 724.632 79.4445 724.627 79.5503C724.627 79.5583 724.626 79.566 724.625 79.5734Z" fill="#242728"/>
<path fill-rule="evenodd" clip-rule="evenodd" d="M725.216 86.8025L726.838 85.4958C727.628 86.4772 728.631 87.4182 729.843 88.2962C732.413 90.1572 735.59 91.4943 738.99 92.2912C742.92 93.2117 747.145 93.4111 751.098 92.8458C753.947 92.4382 756.653 91.6348 758.994 90.4098C763.513 88.0457 765.722 84.6089 765.357 81.0682L767.429 80.8544C767.869 85.1242 765.41 89.4045 759.96 92.2555C757.418 93.5852 754.484 94.4658 751.393 94.9085C747.189 95.5091 742.694 95.2982 738.516 94.3191C734.836 93.4567 731.403 91.9978 728.621 89.9833C727.246 88.9875 726.113 87.9163 725.216 86.8025Z" fill="#242728"/>
<path fill-rule="evenodd" clip-rule="evenodd" d="M724.752 63.4368C724.758 63.3163 724.766 63.1952 724.778 63.0748C725.093 59.7516 727.419 56.5886 731.701 54.3486C740.422 49.7861 753.974 50.7689 761.946 56.5417C766.169 59.6003 767.984 63.3949 767.459 66.9648L766.96 73.8628C766.964 77.4712 764.62 80.964 759.999 83.3816C751.278 87.9438 737.726 86.9614 729.755 81.1892C725.744 78.2848 723.906 74.7184 724.179 71.31L724.752 63.4368Z" fill="#FF85D0"/>
<path fill-rule="evenodd" clip-rule="evenodd" d="M723.711 63.3819C723.711 63.3805 723.712 63.374 723.712 63.3721C723.719 63.2401 723.729 63.1085 723.741 62.9768C724.084 59.3581 726.556 55.8654 731.218 53.4264C740.254 48.6991 754.296 49.7167 762.556 55.6981C767.15 59.0252 769.05 63.1928 768.496 67.0774C768.496 67.0774 768.001 73.9016 768 73.898C767.991 77.8233 765.51 81.675 760.482 84.305C751.446 89.0323 737.403 88.0141 729.143 82.0327C724.776 78.87 722.845 74.9455 723.14 71.2325L723.711 63.3819ZM725.79 63.5129L725.217 71.3861C725.217 71.3881 725.218 71.3911 725.217 71.3935C724.969 74.4966 726.715 77.702 730.365 80.3457C738.049 85.9097 751.111 86.8564 759.516 82.4593C763.716 80.2622 765.922 77.1441 765.918 73.8642C765.918 73.8389 765.918 73.8132 765.92 73.7877L766.421 66.8899C766.421 66.8642 766.425 66.8388 766.429 66.8135C766.906 63.5693 765.173 60.1654 761.334 57.3851C753.651 51.8217 740.59 50.8746 732.184 55.2721C728.283 57.313 726.101 60.1457 725.814 63.1734C725.805 63.2789 725.797 63.3839 725.791 63.4898C725.792 63.4977 725.79 63.5055 725.79 63.5129Z" fill="#242728"/>
<path fill-rule="evenodd" clip-rule="evenodd" d="M763.483 72.0058L764.899 73.5328C763.851 74.5056 762.575 75.4021 761.071 76.1891C758.027 77.7813 754.42 78.7297 750.654 79.0522C746.379 79.4185 741.9 78.9787 737.827 77.7779C734.831 76.894 732.055 75.5993 729.732 73.9168C724.75 70.3095 722.934 65.7193 723.986 61.5576L726.005 62.068C725.133 65.519 726.823 69.2385 730.954 72.2298C733.094 73.7798 735.655 74.9651 738.416 75.7794C742.246 76.9089 746.456 77.3212 750.477 76.9771C753.957 76.679 757.293 75.8142 760.105 74.3434C761.431 73.6495 762.559 72.8629 763.483 72.0058Z" fill="#242728"/>
<g clip-path="url(#clip1_583_1302)">
<path d="M162.081 350.216C160.46 352.289 159.454 356.228 159.871 358.975C160.068 360.346 160.595 361.186 161.253 361.396L526.032 483.193L529.165 470.84L164.414 349.015C163.738 348.769 162.931 349.154 162.104 350.22L162.081 350.216Z" fill="#BBBBBB"/>
<path d="M523.627 480.629C524.332 483.425 526.584 484.069 528.662 482.074C530.74 480.079 531.866 476.16 531.13 473.359C530.425 470.564 528.173 469.92 526.095 471.915C524.017 473.91 522.891 477.829 523.627 480.629Z" fill="#37474F"/>
<path d="M564.889 447.496C564.889 447.496 564.868 447.623 564.857 447.686C564.754 448.288 565.151 448.845 565.72 448.975L596.423 454.726C597.029 454.829 597.62 454.44 597.717 453.87C597.819 453.267 597.422 452.71 596.854 452.581L566.151 446.83C565.609 446.737 565.098 447.042 564.916 447.533L564.889 447.496Z" fill="#BBBBBB"/>
<path d="M586.835 438.803C598.054 440.909 610.255 451.307 614.069 462.037C615.994 467.487 615.392 471.985 612.844 474.813L612.813 474.808L559.015 537.257L520.374 504.544L574.204 442.1L574.236 442.105C576.62 439.086 581.019 437.714 586.835 438.803Z" fill="#DB39CB"/>
<path opacity="0.1" d="M586.835 438.803C598.054 440.909 610.255 451.307 614.069 462.037C615.994 467.487 615.392 471.985 612.844 474.813L612.813 474.808L559.015 537.257L520.374 504.544L574.204 442.1L574.236 442.105C576.62 439.086 581.019 437.714 586.835 438.803Z" fill="white"/>
<path opacity="0.1" d="M586.835 438.803C598.054 440.909 610.255 451.307 614.069 462.037C615.994 467.487 615.392 471.985 612.844 474.813L612.813 474.808L559.015 537.257L520.374 504.544L574.204 442.1L574.236 442.105C576.62 439.086 581.019 437.714 586.835 438.803Z" fill="white"/>
<path d="M560.239 524.48C556.426 513.75 544.256 503.358 533.005 501.246C521.787 499.139 515.741 506.135 519.555 516.866C523.368 527.597 535.569 537.994 546.788 540.1C558.007 542.207 564.053 535.211 560.239 524.48Z" fill="#DB39CB"/>
<path opacity="0.4" d="M560.239 524.48C556.426 513.75 544.256 503.358 533.005 501.246C521.787 499.139 515.741 506.135 519.555 516.866C523.368 527.597 535.569 537.994 546.788 540.1C558.007 542.207 564.053 535.211 560.239 524.48Z" fill="white"/>
<path d="M545.207 521.66C544.204 518.88 541.06 516.158 538.133 515.627C535.206 515.096 533.655 516.887 534.62 519.694C535.622 522.475 538.766 525.196 541.693 525.727C544.615 526.29 546.172 524.467 545.207 521.66Z" fill="#455A64"/>
<path d="M580.185 502.571C577.75 499.867 577.368 495.835 579.325 493.565L601.975 467.293C603.935 465.02 607.496 465.373 609.928 468.072C612.363 470.777 612.744 474.809 610.787 477.079L588.138 503.35C586.178 505.624 582.616 505.271 580.185 502.571Z" fill="#F9F9F9"/>
<path d="M566.406 503.39C563.971 500.685 563.59 496.653 565.547 494.383L588.196 468.112C590.156 465.838 593.717 466.191 596.149 468.891C598.584 471.595 598.966 475.627 597.009 477.897L574.359 504.169C572.399 506.442 568.838 506.09 566.406 503.39Z" fill="#F9F9F9"/>
<path d="M559.406 516.39C556.971 513.685 556.59 509.653 558.547 507.383L581.196 481.112C583.156 478.838 586.717 479.191 589.149 481.891C591.584 484.595 591.966 488.627 590.009 490.897L567.359 517.169C565.399 519.442 561.838 519.09 559.406 516.39Z" fill="#F9F9F9"/>
<path d="M555.406 503.39C552.971 500.685 552.59 496.653 554.547 494.383L577.196 468.112C579.156 465.838 582.717 466.191 585.149 468.891C587.584 471.595 587.966 475.627 586.009 477.897L563.359 504.169C561.399 506.442 557.838 506.09 555.406 503.39Z" fill="#F9F9F9"/>
<path d="M562.406 481.39C559.971 478.685 559.59 474.653 561.547 472.383L584.196 446.112C586.156 443.838 589.717 444.191 592.149 446.891C594.584 449.595 594.966 453.627 593.009 455.897L570.359 482.169C568.399 484.442 564.838 484.09 562.406 481.39Z" fill="#F9F9F9"/>
<path d="M543.318 503.852C540.883 501.148 540.293 497.358 541.992 495.387L561.663 472.571C563.365 470.596 566.717 471.191 569.149 473.891C571.584 476.595 572.175 480.385 570.475 482.356L550.805 505.172C549.102 507.147 545.75 506.552 543.318 503.852Z" fill="#F9F9F9"/>
<path d="M535.277 496.702C532.913 494.077 532.426 490.298 534.182 488.261L554.504 464.689C556.263 462.649 559.604 463.127 561.964 465.748C564.328 468.373 564.815 472.152 563.059 474.188L542.736 497.761C540.978 499.801 537.637 499.323 535.277 496.702Z" fill="#F9F9F9"/>
<path d="M549.277 482.247C546.913 479.621 546.59 475.653 548.547 473.383L571.196 447.112C573.156 444.838 576.66 445.127 579.02 447.748C581.384 450.373 581.708 454.341 579.751 456.611L557.101 482.882C555.141 485.156 551.638 484.867 549.277 482.247Z" fill="#F9F9F9"/>
<path d="M562.406 523.39C559.971 520.685 559.59 516.653 561.547 514.383L584.196 488.112C586.156 485.838 589.717 486.191 592.149 488.891C594.584 491.595 594.966 495.627 593.009 497.897L570.359 524.169C568.399 526.442 564.838 526.09 562.406 523.39Z" fill="#F9F9F9"/>
<path d="M501.58 507.247C501.029 508.752 500.977 510.211 501.468 511.567C502.285 513.892 504.566 515.52 507.87 516.148L539.657 522.084C540.263 522.187 540.854 521.798 540.951 521.228C541.053 520.625 540.656 520.068 540.088 519.939L508.301 514.003C505.82 513.548 504.144 512.414 503.59 510.852C503.036 509.289 503.626 507.367 505.295 505.465L548.83 454.938C552.551 450.613 560.153 447.96 565.81 449.022C566.416 449.125 567.007 448.736 567.104 448.165C567.206 447.563 566.809 447.006 566.241 446.876C559.914 445.701 551.371 448.683 547.202 453.519L503.667 504.046C502.766 505.1 502.088 506.192 501.67 507.295L501.58 507.247Z" fill="#BBBBBB"/>
</g>
<defs>
<clipPath id="clip0_583_1302">
<rect width="180.928" height="213.093" fill="white" transform="translate(958 66)"/>
</clipPath>
<clipPath id="clip1_583_1302">
<rect width="610.177" height="124.176" fill="white" transform="translate(601.515 549.422) rotate(-170.335)"/>
</clipPath>
</defs>
</svg>
