<svg width="264" height="299" viewBox="0 0 264 299" fill="none" xmlns="http://www.w3.org/2000/svg">
<g clip-path="url(#clip0_466_16629)">
<path fill-rule="evenodd" clip-rule="evenodd" d="M59.3517 209.774L50.0096 143.515C44.5733 150.337 23.2907 151.808 20.9361 132.977L15.759 104.111L6.80859 50.1212C9.09705 42.0927 13.8774 36.9762 21.9785 35.7238C21.9785 35.7238 33.6852 36.1464 38.6232 37.0882C42.2593 31.7071 50.63 28.3267 60.6585 25.654L131.295 2.62228C139.539 -0.0708419 148.515 0.647184 156.23 4.60796L247.081 51.2614C254.018 54.8251 257.456 62.8128 255.279 70.3118L240.526 121.074C249.309 124.801 254.18 134.346 251.968 143.698L235.425 213.597C231.703 219.839 226.928 223.066 221.344 223.983L225.229 234.852L225.478 261.233C218.501 273.946 187.673 274.231 180.024 261.188V248.837L170.291 251.729L169.64 278.421C162.912 289.264 134.748 293.846 124.588 278.818L124.384 257.334L118.775 247.839L99.3589 238.12L80.1663 262.644C76.5403 265.041 72.6806 265.749 68.3478 263.148C55.6192 255.505 50.391 245.004 51.8658 227.72L62.352 217.146C61.4773 215.496 59.6212 211.673 59.3517 209.774Z" fill="#E9FC87"/>
<path d="M38.6309 37.0996C38.6309 37.0996 32.7278 36.4681 25.7242 35.7175C20.377 35.1461 15.0681 37.1293 11.4007 41.0716C7.73333 45.0144 6.13341 50.4554 7.08646 55.7588C11.0958 78.1037 17.2086 112.173 21.198 134.388C22.1408 139.644 25.4802 144.158 30.2263 146.595C34.978 149.033 40.5846 149.112 45.3979 146.811C48.2118 145.468 50.1607 144.535 50.1607 144.535" stroke="black" stroke-width="3.54697" stroke-miterlimit="1.5" stroke-linejoin="round"/>
<path d="M170.291 251.729L190.994 245.579M240.536 121.033L255.279 70.3118C257.456 62.8128 254.018 54.8251 247.081 51.2614L156.23 4.60796C148.515 0.647184 139.539 -0.0708418 131.295 2.62228L47.5787 29.9152C40.0675 32.3639 35.3992 39.8578 36.5027 47.6826L59.3517 209.774C60.0942 215.038 63.359 219.615 68.0936 222.023L128.753 252.833" stroke="#242728" stroke-width="4" stroke-miterlimit="1.5" stroke-linejoin="round"/>
<path d="M69.6523 51.9712C103.773 69.3227 106.578 70.7457 132.378 83.8647C142.989 89.2582 155.292 90.2666 166.637 86.6742C180.326 82.3355 191.455 79.1544 209.03 73.5851" stroke="#242728" stroke-width="3.99669" stroke-miterlimit="1.5" stroke-linejoin="round"/>
<path d="M174.359 96.9074C174.359 96.9074 215.266 111.791 239.38 120.565C249.206 124.14 254.807 134.504 252.426 144.695C248.605 161.047 242.773 185.969 237.639 207.924C235.722 216.136 229.164 222.456 220.892 224.07C212.624 225.683 204.177 222.288 199.317 215.398C188.774 200.441 179.225 186.889 179.225 186.889" stroke="black" stroke-width="3.99644" stroke-miterlimit="1.5" stroke-linejoin="round"/>
<path d="M118.476 247.985L124.389 257.327L124.198 276.352C124.2 283.592 134.386 289.471 146.934 289.476C159.476 289.478 169.661 283.604 169.658 276.364L169.65 251.826L162.817 236.777" stroke="black" stroke-width="4.01292" stroke-miterlimit="1.5" stroke-linejoin="round"/>
<path d="M180.205 248.775L180.035 258.725C180.032 265.962 190.223 271.844 202.766 271.847C215.314 271.851 225.494 265.975 225.491 258.735L225.49 238.39C225.486 235.614 225.027 232.858 224.118 230.233L222.09 224.359" stroke="black" stroke-width="4.01292" stroke-miterlimit="1.5" stroke-linejoin="round"/>
<path d="M80.1697 261.743L80.2702 261.852L99.5775 238.016M62.3569 216.894L53.5801 226.159" stroke="black" stroke-width="3.99562" stroke-miterlimit="1.5" stroke-linecap="round" stroke-linejoin="round"/>
<path d="M67.2183 262.532C75.8305 267.545 82.525 263.557 82.1708 253.624C81.8166 243.691 74.5478 231.574 65.9356 226.561C57.3234 221.548 50.6289 225.536 50.9832 235.469C51.3374 245.402 58.6061 257.518 67.2183 262.532Z" stroke="black" stroke-width="3.21723" stroke-miterlimit="1.5" stroke-linecap="round" stroke-linejoin="round"/>
<path d="M91.6325 197.002C85.6359 203.721 66.2796 202.661 66.233 184.397C66.1648 159.118 37.0104 157.609 29.8984 181.026" stroke="black" stroke-width="4.0022" stroke-miterlimit="1.5" stroke-linecap="round" stroke-linejoin="round"/>
<path fill-rule="evenodd" clip-rule="evenodd" d="M24.1336 194.712C26.4886 195.699 32.4532 186.951 33.4477 184.614C34.4422 182.277 33.3344 179.576 30.9795 178.589C28.6245 177.602 25.902 178.697 24.9075 181.034C23.913 183.371 21.7787 193.724 24.1336 194.712Z" fill="#E9FC87" stroke="black" stroke-width="3.98373" stroke-miterlimit="1.5" stroke-linejoin="round"/>
</g>
<defs>
<clipPath id="clip0_466_16629">
<rect width="263.426" height="298.84" fill="white"/>
</clipPath>
</defs>
</svg>
