<svg width="478" height="450" viewBox="0 0 478 450" fill="none" xmlns="http://www.w3.org/2000/svg">
<path fill-rule="evenodd" clip-rule="evenodd" d="M242.856 376.377L242.918 382.245C242.918 392.276 228.898 400.426 211.636 400.426C194.367 400.426 180.348 392.276 180.348 382.245V364.648L184.155 365.442C192.055 367.1 202.566 366.597 215.505 360.423C224.343 366.264 233.467 371.569 242.856 376.377Z" fill="#FF85D0"/>
<path fill-rule="evenodd" clip-rule="evenodd" d="M282.493 393.288C272.26 389.641 268.398 373.79 273.878 357.796C279.358 341.801 292.127 331.641 302.454 335.01L303.576 335.621C324.537 345.862 304.976 399.536 282.656 393.349C282.601 393.329 282.547 393.309 282.493 393.288Z" fill="#FF85D0"/>
<path fill-rule="evenodd" clip-rule="evenodd" d="M363.453 260.824L364.861 261.225C387.433 267.134 378.853 323.606 355.75 321.935C355.383 321.888 354.764 321.759 353.935 321.562C344.131 318.811 338.025 304.705 340.126 288.813C342.329 272.146 352.731 259.717 363.453 260.824Z" fill="#FF85D0"/>
<path fill-rule="evenodd" clip-rule="evenodd" d="M20.277 178.782L13.7304 113.508C12.8228 104.462 17.0591 95.6665 24.7017 90.7358L127.611 24.2868C138.469 17.2779 151.676 14.8872 164.308 17.6378L300.089 47.2629C310.355 49.4973 318.004 58.0816 319.057 68.5271C319.377 71.7667 319.737 74.9657 320.132 78.1713C319.085 80.7046 318.534 83.3602 318.534 86.0904V113.732C318.534 116.299 319.023 118.805 319.955 121.203C319.023 123.6 318.534 126.1 318.534 128.674V142.725C318.534 145.632 319.159 148.451 320.336 151.127C319.159 153.809 318.534 156.628 318.534 159.528V173.587C318.534 191.367 342.024 205.799 370.96 205.799C399.896 205.799 423.386 191.367 423.386 173.587V165.151C435.522 152.444 469.462 164.839 465.022 197.744C458.964 242.678 409.265 262.998 355.635 258.604L363.454 260.825C352.732 259.718 342.33 272.146 340.127 288.813C338.026 304.705 344.132 318.812 353.935 321.562C345.886 319.688 317.664 311.626 301.7 307.694L279.345 322.411L302.454 335.009C292.127 331.641 279.359 341.801 273.879 357.795C268.399 373.79 272.261 389.641 282.493 393.288C268.82 388.514 255.597 382.904 242.856 376.377C233.466 371.569 224.342 366.264 215.504 360.423C202.566 366.597 192.054 367.1 184.154 365.443L168.734 362.217C170.427 366.808 171.325 371.664 171.372 376.574L171.821 420.359C171.821 430.391 157.802 438.534 140.538 438.534C123.272 438.534 109.254 430.391 109.254 420.359V382.802C96.2503 374.557 80.4266 362.162 68.1295 353.605C53.9001 343.709 44.0234 328.727 40.5723 311.755C35.104 284.854 28.9952 249.252 27.9155 241.72L11.9192 212.536C5.67036 201.133 8.93926 186.864 19.5305 179.312C19.7794 179.135 20.0282 178.959 20.277 178.782Z" fill="#FF85D0"/>
<path fill-rule="evenodd" clip-rule="evenodd" d="M238.58 33.8422L305.127 24.918C313.578 23.7838 321.594 28.9657 324.015 37.1292C326.068 44.2876 328.645 53.7689 331.208 64.6694C331.235 64.7916 331.262 64.9139 331.296 65.0362C326.041 68.7648 322.165 73.2471 320.132 78.171C319.738 74.9654 319.378 71.7664 319.058 68.5268C318.004 58.0813 310.356 49.497 300.089 47.2626L238.58 33.8422Z" fill="#FF85D0"/>
<path d="M20.2986 180.238C19.7647 174.919 14.0368 117.859 13.6352 113.859C12.7272 104.814 16.9629 96.021 24.604 91.0866C48.4341 75.7015 100.513 42.0693 127.5 24.6468C138.355 17.6369 151.561 15.2443 164.192 18.0012C191.158 23.8888 274.38 42.0539 299.959 47.6376C310.221 49.8802 317.879 58.4619 318.928 68.9065C321.91 98.6122 327.851 125.216 333.503 181.52M121.685 390.042C107.868 384.228 84.7141 365.587 68.0548 353.983C53.8199 344.089 43.9525 329.098 40.4957 312.121C35.0293 285.218 28.9153 249.612 27.8332 242.083" stroke="#242728" stroke-width="4" stroke-miterlimit="1.5" stroke-linejoin="round"/>
<path d="M302.522 307.461L279.719 322.056" stroke="#242728" stroke-width="4" stroke-miterlimit="1.5" stroke-linejoin="round"/>
<path d="M215.405 360.8C202.466 366.967 191.955 367.469 184.055 365.819L168.533 362.566" stroke="#242728" stroke-width="4" stroke-miterlimit="1.5" stroke-linejoin="round"/>
<path d="M276.785 77.2549C237.457 102.429 234.224 104.499 204.487 123.532C192.256 131.363 177.438 134.08 163.222 131.099C146.069 127.502 115.987 116.499 115.987 116.499" stroke="#242728" stroke-width="4" stroke-miterlimit="1.5" stroke-linejoin="round"/>
<path d="M334.429 164.182C334.429 164.182 340.521 163.477 343.831 161.223C349.145 157.602 350.522 149.264 348.954 142.441L343.459 118.984C339.68 102.502 335.256 82.7268 331.091 65.0397C328.519 54.142 325.945 44.6626 323.886 37.5051C321.462 29.3384 313.445 24.1537 304.994 25.2866C281.155 28.4831 236.379 34.4874 236.379 34.4874" stroke="#242728" stroke-width="4" stroke-miterlimit="1.5" stroke-linejoin="round"/>
<path d="M67.6191 140.651C67.6191 140.651 45.4158 161.153 19.4358 179.678C8.84856 187.228 5.57915 201.496 11.8324 212.899C21.8562 231.195 37.1421 259.079 50.6052 283.644C55.6364 292.833 65.6006 298.214 76.0532 297.391C86.4996 296.569 95.4933 289.695 99.0246 279.832C106.682 258.425 113.616 239.028 113.616 239.028" stroke="#242728" stroke-width="4" stroke-miterlimit="1.5" stroke-linejoin="round"/>
<path d="M423.878 164.86C436.012 152.148 469.367 165.185 464.921 198.092C455.023 271.355 329.176 279.24 259.435 221.212" stroke="#242728" stroke-width="4" stroke-miterlimit="1.5" stroke-linejoin="round"/>
<path fill-rule="evenodd" clip-rule="evenodd" d="M266.729 236.153C270.179 235.802 273.584 237.096 275.932 239.646C282.643 246.952 289.591 252.806 297.437 256.088C307.844 260.442 303.805 277.459 291.114 275.692C280.771 274.25 274.098 272.362 263.827 267.873C248.282 261.082 251.499 237.74 266.729 236.153Z" fill="white" stroke="#242728" stroke-width="4" stroke-miterlimit="1.5" stroke-linejoin="round"/>
<path d="M274.015 238.106C267.106 232.592 263.734 227.371 259.441 221.347" stroke="#242728" stroke-width="4" stroke-miterlimit="1.5" stroke-linejoin="round"/>
<path d="M260.38 265.77C252.18 262.457 247.454 258.416 241.616 253.869" stroke="#242728" stroke-width="4" stroke-miterlimit="1.5" stroke-linejoin="round"/>
<path d="M152.914 329.103C152.914 329.103 161.743 347.703 167.124 359.023C169.788 364.632 171.198 370.752 171.267 376.958C171.425 392.24 171.727 420.742 171.727 420.742C171.728 430.776 157.716 438.918 140.45 438.915C123.19 438.909 109.171 430.761 109.169 420.726L109.169 383" stroke="#242728" stroke-width="4" stroke-miterlimit="1.5" stroke-linejoin="round"/>
<path d="M242.757 376.759L242.818 382.625C242.819 392.66 228.806 400.802 211.538 400.799C194.277 400.793 180.256 392.644 180.254 382.609L180.249 365.007" stroke="#242728" stroke-width="4" stroke-miterlimit="1.5" stroke-linejoin="round"/>
<path d="M302.529 335.435C292.184 331.899 279.305 342.086 273.793 358.171C268.281 374.254 272.209 390.185 282.555 393.721" stroke="#242728" stroke-width="4" stroke-miterlimit="1.5" stroke-linejoin="round"/>
<path d="M363.717 261.231C352.875 259.803 342.259 272.326 340.03 289.179C337.802 306.032 344.8 320.875 355.642 322.304" stroke="#242728" stroke-width="4" stroke-miterlimit="1.5" stroke-linejoin="round"/>
<path d="M297.805 256.124C293.431 254.629 288.377 257.796 286.528 263.192C284.679 268.587 286.73 274.182 291.104 275.677" stroke="#242728" stroke-width="4" stroke-miterlimit="1.5" stroke-linejoin="round"/>
<path d="M258.232 311.325L303.464 336.003C324.426 346.248 304.885 399.929 282.564 393.732C250.276 382.452 220.455 366.557 193.717 344.892" stroke="#242728" stroke-width="4" stroke-miterlimit="1.5" stroke-linejoin="round"/>
<path d="M360.001 260.5L364.753 261.599C387.325 267.512 378.76 323.991 355.655 322.315C350.965 321.664 305.01 308.283 293.153 306.169" stroke="#242728" stroke-width="4" stroke-miterlimit="1.5" stroke-linejoin="round"/>
<path fill-rule="evenodd" clip-rule="evenodd" d="M318.484 159.906C318.484 142.126 342.003 127.687 370.939 127.687C399.874 127.687 423.349 142.126 423.349 159.906V173.958C423.349 191.739 399.874 206.178 370.939 206.178C342.003 206.178 318.484 191.739 318.484 173.958V159.906Z" fill="#E9FC87" stroke="#242728" stroke-width="4" stroke-miterlimit="1.5" stroke-linejoin="round"/>
<path fill-rule="evenodd" clip-rule="evenodd" d="M318.484 129.048C318.484 111.268 342.003 96.8286 370.939 96.8286C399.874 96.8286 423.349 111.268 423.349 129.048V143.1C423.349 160.88 399.874 175.319 370.939 175.319C342.003 175.319 318.484 160.88 318.484 143.1V129.048Z" fill="#E9FC87" stroke="#242728" stroke-width="4" stroke-miterlimit="1.5" stroke-linejoin="round"/>
<path fill-rule="evenodd" clip-rule="evenodd" d="M318.484 86.4693C318.484 68.6889 342.003 54.25 370.939 54.25C399.874 54.25 423.349 68.6889 423.349 86.4693V114.104C423.349 131.885 399.874 146.324 370.939 146.324C342.003 146.324 318.484 131.885 318.484 114.104V86.4693Z" fill="#E9FC87" stroke="#242728" stroke-width="4" stroke-miterlimit="1.5" stroke-linejoin="round"/>
<path fill-rule="evenodd" clip-rule="evenodd" d="M419.241 98.9995C411.251 110.566 392.652 118.682 370.939 118.682C350.309 118.682 332.479 111.36 323.902 100.718" fill="#E9FC87"/>
<path d="M419.241 98.9995C411.251 110.566 392.652 118.682 370.939 118.682C350.309 118.682 332.479 111.36 323.902 100.718" stroke="#242728" stroke-width="4" stroke-miterlimit="1.5" stroke-linejoin="round"/>
<path d="M398.562 201.633C410.107 207.359 413.413 219.943 406.851 230.004" stroke="#242728" stroke-width="4" stroke-miterlimit="1.5" stroke-linejoin="round"/>
</svg>
