<svg width="381" height="423" viewBox="0 0 381 423" fill="none" xmlns="http://www.w3.org/2000/svg">
<path fill-rule="evenodd" clip-rule="evenodd" d="M45.377 198.929C39.8793 196.41 35.4247 191.979 32.8838 186.39L10.9909 138.211C4.69155 124.342 1.63672 109.218 2.06021 93.9871L3.52687 41.3917C3.89742 28.1426 10.7187 15.9143 21.7974 8.64692C32.8761 1.37958 46.8057 -0.0116384 59.1095 4.91896C65.2122 7.42963 71.2471 10.8629 77.2213 15.128C88.9957 23.5448 98.1615 35.0998 103.674 48.485C104.567 50.6479 105.459 52.8184 106.336 54.951C115.101 51.5707 124.493 49.7859 134.074 49.7859C148.571 49.7859 161.064 54.0888 171.455 61.2578C189.022 53.9527 209.742 49.9218 229.918 49.9218C269.242 49.9218 306.948 65.538 334.747 93.3369C362.553 121.143 378.169 158.849 378.169 198.165V337.205C378.169 372.422 304.52 372.422 304.52 337.205V306.373L250.413 333.424V398.716C250.413 426.908 175.463 428.307 175.463 396.644V338.641L157.056 329.438V346.816C157.056 377.625 86.7349 374.993 81.9329 346.075C69.4174 346.476 56.9317 336.509 56.9317 321.165V220.164C42.1021 223.62 23.4083 224.64 7.55023 221.978C6.2344 221.699 5.28188 220.557 5.2365 219.211C5.19113 217.872 6.06064 216.67 7.35379 216.299C19.5971 212.609 33.7614 206.907 45.377 198.929Z" fill="#74BCF1"/>
<path d="M157.047 328.774V346.818C157.047 377.892 85.5163 374.95 81.8184 345.321M170.962 61.4636C188.628 54.0299 209.552 49.916 229.918 49.916C269.234 49.916 306.947 65.54 334.746 93.3388C362.545 121.138 378.168 158.85 378.168 198.167V337.199C378.168 372.424 304.519 372.424 304.519 337.199V306.368L250.411 333.426V398.71C250.411 426.91 175.454 428.309 175.454 396.646V338.643L119.432 310.633" stroke="#242728" stroke-width="4" stroke-miterlimit="1.5" stroke-linejoin="round"/>
<path d="M188.85 84.0704C197.686 81.17 207.294 81.9339 215.734 86.3543C236.755 97.3685 253.203 115.307 262.367 144.215C265.756 154.892 266.782 166.266 265.463 177.456" stroke="#F9F9F9" stroke-width="3" stroke-miterlimit="1.5" stroke-linecap="round" stroke-linejoin="round"/>
<path d="M129.693 242.625C117.1 245.701 103.691 245.888 89.7812 244.791C107.457 240.123 124.089 232.928 137.839 220.836" stroke="#F9F9F9" stroke-width="3" stroke-miterlimit="1.5" stroke-linecap="round" stroke-linejoin="round"/>
<path d="M9.26367 219.973C18.4968 217.192 40.319 210.024 56.9343 194.515" stroke="#F9F9F9" stroke-width="3" stroke-miterlimit="1.5" stroke-linecap="round" stroke-linejoin="round"/>
<path d="M23.3008 15.0155C34.1047 7.92837 47.6962 6.57165 59.6875 11.38C65.6389 13.821 71.5314 17.1839 77.3501 21.3358" stroke="#F9F9F9" stroke-width="3" stroke-miterlimit="1.5" stroke-linecap="round" stroke-linejoin="round"/>
<path d="M108.984 61.6617C116.753 59.0813 125.078 57.7192 133.564 57.7192C146.42 57.7192 157.493 61.0038 166.703 66.4763" stroke="#F9F9F9" stroke-width="3" stroke-miterlimit="1.5" stroke-linecap="round" stroke-linejoin="round"/>
<path d="M122.336 247.748L121.683 247.958C121.683 247.958 116.952 268.464 114.781 278.29C112.611 288.112 109.742 301.875 105.96 321.161C98.4982 359.245 56.9355 349.163 56.9355 321.161V126.926C56.9355 106.466 65.0622 86.8477 79.5277 72.3821C87.2211 64.6845 96.3742 58.783 106.335 54.9468C115.105 51.5691 124.498 49.7856 134.076 49.7856C158.207 49.7856 176.774 61.7022 189.338 78.8851" stroke="#242728" stroke-width="3.99927" stroke-miterlimit="1.5" stroke-linejoin="round"/>
<path d="M45.3656 198.925C39.8664 196.401 35.4036 191.965 32.8704 186.385L10.9728 138.209C4.67128 124.334 1.61504 109.207 2.03875 93.9806L3.50897 41.3782C3.87859 28.1351 10.7026 15.9106 21.7821 8.64447C32.8615 1.36933 46.7897 -0.0191143 59.0862 4.91212C65.1984 7.4183 71.2293 10.8619 77.1973 15.117C88.98 23.537 98.1488 35.0946 103.657 48.4819C104.549 50.6365 105.442 52.8088 106.317 54.9364M162.697 90.7175C162.697 90.7175 173.028 85.5426 182.575 80.7737C193.907 75.1122 207.23 75.049 218.616 80.6112C241.884 91.9341 260.05 110.442 270.219 140.201C273.96 151.199 275.132 162.91 273.644 174.44C272.536 183.338 270.976 195.355 269.443 207.282C265.783 235.589 249.322 260.642 224.792 275.237C223.972 275.733 223.151 276.22 222.331 276.707C215.479 280.781 207.168 281.584 199.667 278.889C192.167 276.193 186.261 270.288 183.575 262.787C176.39 242.729 168.304 220.155 168.304 220.155" stroke="#242728" stroke-width="4.00549" stroke-miterlimit="1.5" stroke-linejoin="round"/>
<path d="M61.4707 126.603V322.292C61.6598 334.543 71.6189 342.233 81.9339 341.243" stroke="#F9F9F9" stroke-width="3" stroke-miterlimit="1.5" stroke-linecap="round" stroke-linejoin="round"/>
<path d="M139.241 212.772C126.967 226.853 105.785 236.15 88.4074 241.409C87.0991 241.79 86.2219 243.022 86.2975 244.387C86.3731 245.747 87.3789 246.877 88.725 247.112C111.132 250.65 144.519 247.836 173.089 233.47" stroke="#242728" stroke-width="3.9681" stroke-miterlimit="1.5" stroke-linejoin="round"/>
<path d="M56.9345 189.205C53.5768 192.762 49.6518 196.001 45.3791 198.928C33.7635 206.905 19.5999 212.609 7.35662 216.298C6.06348 216.667 5.18566 217.873 5.2386 219.213C5.28397 220.56 6.23723 221.697 7.55306 221.976C23.4036 224.637 42.0973 223.621 56.9345 220.166" stroke="#242728" stroke-width="3.9681" stroke-miterlimit="1.5" stroke-linejoin="round"/>
<path d="M229.166 55.1709C266.893 55.1709 303.067 70.1529 329.737 96.8228C356.414 123.5 371.396 159.674 371.396 197.394V330.787" stroke="#F9F9F9" stroke-width="3" stroke-miterlimit="1.5" stroke-linecap="round" stroke-linejoin="round"/>
</svg>
