<svg width="185" height="197" viewBox="0 0 185 197" fill="none" xmlns="http://www.w3.org/2000/svg">
<path fill-rule="evenodd" clip-rule="evenodd" d="M54.97 123.895C42.7538 122.424 31.6176 118.556 21.7473 111.865C8.47356 103.026 2.18285 91.7267 1.04199 78.6068C3.37499 70.1625 11.454 63.1059 21.7762 70.8195L22.7631 77.575C30.7876 89.2335 40.2766 90.9576 50.1758 89.916L48.4774 77.8922L41.6739 73.7261C38.9499 72.0597 37.0111 69.3646 36.2933 66.2529L24.9583 17.0069C23.9425 12.5909 25.8685 8.01783 29.7365 5.6592C33.6078 3.29736 38.5526 3.68191 42.0136 6.60776L57.4376 19.6508L101.95 5.15284C107.145 3.45757 112.801 3.90955 117.663 6.40278L174.914 35.7702C179.285 38.0134 181.452 43.0415 180.08 47.762L170.783 79.7157C176.318 82.0616 179.388 88.0703 177.994 93.9572L167.569 137.957L173.059 137.14C179.772 142.697 182.493 149.667 178.615 158.973L155.045 168.574C151.962 169.831 148.424 169.094 146.101 166.709L140.518 160.989L135.083 162.7L141.009 174.343C136.272 185.521 128.616 192.109 117.019 192.51C109.094 183.928 102.78 173.558 98.0054 161.483L87.4461 156.121C78.1109 164.049 68.7597 171.664 59.2387 176.006C45.9265 174.884 39.8922 167.004 42.113 151.445L57.71 138.928C57.1588 137.89 56.7839 136.746 56.6141 135.551L54.97 123.895Z" fill="#C67AF5"/>
<path d="M44.6182 149.584C49.2601 146.819 56.4969 150.403 60.7661 157.586C65.035 164.768 64.7306 172.847 60.0887 175.613" stroke="#141411" stroke-width="2" stroke-miterlimit="1.5" stroke-linejoin="round"/>
<path d="M57.4761 138.584L44.1779 149.898C35.1311 156.918 50.041 180.786 60.1571 175.577C70.0331 169.643 78.2874 163.621 86.4659 155.669" stroke="#141411" stroke-width="2" stroke-miterlimit="1.5" stroke-linejoin="round"/>
<path d="M59.1956 20.6667C54.0171 16.4779 48.451 11.9758 43.1617 7.6984C38.8555 4.21678 33.6386 3.21859 29.8062 5.14218C25.9773 7.06648 24.2379 11.558 25.36 16.6357C29.0972 33.5285 33.5237 53.5559 35.7388 63.5627C36.6298 67.5993 39.0303 71.6461 42.53 74.2747C44.7095 75.9109 47.8812 76.8222 47.8812 76.8222" stroke="#141411" stroke-width="2" stroke-miterlimit="1.5" stroke-linejoin="round"/>
<path d="M47.379 22.4725C43.9862 19.7443 39.8758 18.9621 36.8564 20.4694" stroke="#141411" stroke-width="2" stroke-miterlimit="1.5" stroke-linejoin="round"/>
<path d="M134.759 162.7L147.805 158.829M150.503 149.43L152.01 144.248M54.9532 123.799L56.6133 135.551C57.0812 138.864 59.1385 141.745 62.1221 143.261L98.0046 161.483M170.789 79.6903L180.079 47.7621C181.451 43.0417 179.284 38.0136 174.913 35.7703L117.662 6.40295C112.801 3.90973 107.144 3.45775 101.95 5.15301L49.1944 22.3333C44.4611 23.8747 41.5193 28.592 42.2147 33.5175L50.175 89.9162" stroke="#141411" stroke-width="2" stroke-miterlimit="1.5" stroke-linejoin="round"/>
<path d="M63.1104 36.2246C84.6123 47.1471 86.3795 48.0428 102.638 56.301C109.325 59.6961 117.077 60.3308 124.227 58.0695C132.853 55.3384 139.866 53.336 150.941 49.8302" stroke="#141411" stroke-width="2" stroke-miterlimit="1.5" stroke-linejoin="round"/>
<path d="M128.384 152.547L140.111 170.427C146.062 181.124 122.202 199.206 114.5 189.906C105.37 177.279 98.0545 163.645 92.9489 148.785" stroke="#141411" stroke-width="2" stroke-miterlimit="1.5" stroke-linejoin="round"/>
<path d="M73.2576 96.3364C71.733 92.194 69.5138 89.227 64.3633 89.7712C63.0869 89.8689 60.8243 89.9575 56.8146 89.9665C42.6815 89.9989 28.8941 89.8678 22.6691 77.3855C22.4946 77.0356 21.8907 70.9706 21.7268 70.6136C21.7268 70.6136 18.8971 67.3417 15.7752 67.0781C10.5028 66.6328 4.11103 69.6706 1.68916 76.4397C0.192624 80.6228 1.74297 84.7125 1.90187 85.4519C6.58653 107.257 41.6735 132.687 77.6595 121.201" stroke="#141411" stroke-width="2" stroke-miterlimit="1.5" stroke-linejoin="round"/>
<path d="M37.2796 88.4927C41.3746 90.5315 42.5563 94.9938 40.2399 98.5537" stroke="#141411" stroke-width="2" stroke-miterlimit="1.5" stroke-linejoin="round"/>
<path fill-rule="evenodd" clip-rule="evenodd" d="M67.6858 123.726C67.3076 123.538 77.7258 121.768 77.6988 121.384C77.6988 121.384 79.6752 125.922 75.1975 127.585C71.762 128.86 69.0369 125.701 67.6858 123.726Z" fill="#141411"/>
<path d="M129.091 64.5698C129.091 64.5698 154.903 73.8962 170.118 79.3944C176.318 81.6348 179.845 88.1497 178.333 94.5626C175.906 104.853 172.203 120.535 168.942 134.352C167.725 139.519 163.579 143.501 158.355 144.523C153.134 145.545 147.805 143.417 144.743 139.087C138.1 129.688 132.083 121.171 132.083 121.171" stroke="#141411" stroke-width="2" stroke-miterlimit="1.5" stroke-linejoin="round"/>
<path d="M132.248 81.1377L159.023 87.0793" stroke="#141411" stroke-width="2" stroke-miterlimit="1.5" stroke-linejoin="round"/>
<path d="M140.495 161.048C143.677 165.36 148.962 170.6 155.122 169.072C157.441 168.497 168.578 163.225 174.954 160.447C178.117 159.07 180.245 156.04 180.459 152.611C180.856 146.58 178.748 141.568 173.368 137.885C171.241 136.419 167.363 138.324 167.363 138.324" stroke="#141411" stroke-width="2" stroke-miterlimit="1.5" stroke-linejoin="round"/>
<path d="M22.4595 75.1517L17.0244 17.7637" stroke="#141411" stroke-width="2" stroke-miterlimit="1.5" stroke-linejoin="round"/>
<path fill-rule="evenodd" clip-rule="evenodd" d="M17.0244 17.7636C19.5273 16.3818 22.1807 15.2582 25.2252 14.7929C27.2153 14.4776 29.2534 14.6237 31.1794 15.2204C34.1533 16.1315 39.7807 17.8751 44.0301 19.1916C47.6353 20.3091 51.4938 20.335 55.1151 19.2656C55.2561 19.2237 55.397 19.1817 55.538 19.14C56.2559 18.9282 57.0314 19.1868 57.4768 19.7874C57.9223 20.3882 57.9479 21.2035 57.5377 21.8294C56.7494 23.0321 55.8617 24.3851 54.9868 25.7185C52.061 30.1845 47.3309 33.1498 42.0368 33.8366C39.2456 34.1981 36.4671 34.5589 34.9577 34.7544C33.9995 34.8784 33.0605 35.1024 32.1472 35.4226C25.9109 37.6389 22.3602 40.8025 19.6554 45.5339L17.0244 17.7636Z" fill="#E9FC87"/>
<path fill-rule="evenodd" clip-rule="evenodd" d="M17.0244 17.7636C19.5273 16.3818 22.1807 15.2582 25.2252 14.7929C27.2153 14.4776 29.2534 14.6237 31.1794 15.2204C34.1533 16.1315 39.7807 17.8751 44.0301 19.1916C47.6353 20.3091 51.4938 20.335 55.1151 19.2656C55.2561 19.2237 55.397 19.1817 55.538 19.14C56.2559 18.9282 57.0314 19.1868 57.4768 19.7874C57.9223 20.3882 57.9479 21.2035 57.5377 21.8294C56.7494 23.0321 55.8617 24.3851 54.9868 25.7185C52.061 30.1845 47.3309 33.1498 42.0368 33.8366C39.2456 34.1981 36.4671 34.5589 34.9577 34.7544C33.9995 34.8784 33.0605 35.1024 32.1472 35.4226C25.9109 37.6389 22.3602 40.8025 19.6554 45.5339L17.0244 17.7636Z" stroke="#141411" stroke-width="2" stroke-miterlimit="1.5" stroke-linejoin="round"/>
</svg>
