<svg width="500" height="500" viewBox="0 0 500 500" fill="none" xmlns="http://www.w3.org/2000/svg">
<g clip-path="url(#clip0_466_16032)">
<path fill-rule="evenodd" clip-rule="evenodd" d="M92.718 259.981L72.0773 184.861C69.2184 175.018 73.7339 164.527 82.8452 159.846L143.392 128.853C143.118 131.093 142.977 133.326 142.977 135.519C142.977 144.259 145.235 151.12 149.043 155.56C150.539 157.305 152.269 158.669 154.193 159.632L176.437 170.431C181.841 174.617 189.349 175.005 197.645 170.592L282.82 125.302C290.155 121.403 296.641 113.172 300.495 103.85L307.863 106.251L316.186 99.123C324.376 92.1152 334.315 90.3432 341.623 94.596C348.55 98.6282 351.429 109.829 349.906 119.959L361.208 123.644C371.068 126.86 377.2 136.696 375.757 146.98L355.657 289.65C362.658 298.55 371.989 308.815 382.904 316.364C395.429 325.03 410.031 330.126 425.582 325.492C425.642 325.472 425.709 325.452 425.776 325.432C426.771 325.137 427.8 324.99 428.855 324.99C429.977 324.99 431.073 325.157 432.128 325.485C439.47 327.765 445 337.555 445 349.263C445 360.758 439.677 370.4 432.536 372.908C432.476 372.928 432.422 372.948 432.362 372.968C431.527 373.149 430.632 373.329 429.69 373.51C412.623 376.78 378.295 379.682 345.177 365.044C344.896 365.532 344.595 366.021 344.268 366.509L371.582 389.859C390.446 404.57 359.505 454.394 338.423 443.467C338.37 443.434 338.323 443.407 338.27 443.374C317.749 430.956 300.589 418.358 283.568 401.742L261.418 413.002C262.527 428.388 262.547 443.829 261.578 459.315C258.352 484.264 196.035 478.633 194.613 453.15L195.167 420.712L180.378 416.326L181.086 435.757C181.353 445.848 168.421 453.658 152.229 453.196C136.03 452.735 122.664 444.169 122.397 434.085L121.368 395.516L116.585 368.114C114.22 365.018 112.484 361.4 111.562 357.455L92.1569 274.404C91.0012 269.476 91.2752 264.515 92.718 259.981Z" fill="#FF85D0"/>
<path d="M370.746 390.866C361.108 385.124 346.039 392.64 337.121 407.642C328.204 422.643 328.793 439.487 338.431 445.23" stroke="#242728" stroke-width="3.9963" stroke-miterlimit="1.5" stroke-linejoin="round"/>
<path d="M343.856 367.915L371.588 391.614C390.452 406.322 359.502 456.147 338.419 445.221C317.833 432.779 300.624 420.161 283.564 403.509" stroke="#242728" stroke-width="3.9994" stroke-miterlimit="1.5" stroke-linejoin="round"/>
<path d="M306.734 108.986C309.909 106.267 313.078 103.557 316.187 100.894C324.382 93.8819 334.321 92.111 341.632 96.3585C348.937 100.607 352.268 110.092 350.147 120.628" stroke="#242728" stroke-width="3.55132" stroke-miterlimit="1.5" stroke-linejoin="round"/>
<path d="M300.497 105.61L361.211 125.403C371.077 128.62 377.209 138.463 375.759 148.74L355.66 291.41M92.7271 261.741L72.0796 186.621C69.2206 176.778 73.7363 166.286 82.8476 161.606L143.394 130.612M195.169 422.472L167.969 414.401M344.424 366.61C342.52 371.371 338.933 375.35 334.264 377.73L259.47 415.752" stroke="#242728" stroke-width="4.00125" stroke-miterlimit="1.5" stroke-linejoin="round"/>
<path d="M332.215 154.373C287.396 177.163 283.712 179.032 249.823 196.264C235.885 203.348 219.725 204.672 204.823 199.954C186.842 194.255 171.172 186.975 148.087 179.664" stroke="#242728" stroke-width="3.99535" stroke-miterlimit="1.5" stroke-linejoin="round"/>
<path d="M195.369 410.359L194.609 454.911C196.038 480.392 258.35 486.022 261.573 461.08C263.605 428.681 261.311 396.504 253.745 364.599" stroke="#242728" stroke-width="3.99671" stroke-miterlimit="1.5" stroke-linejoin="round"/>
<path d="M319.675 268.392C328.182 264.881 335.866 264.097 342.299 272.774C346.971 278.708 382.659 340.05 425.584 327.244C425.648 327.225 425.712 327.205 425.777 327.186C428.323 326.414 430.42 326.497 432.132 327.243M432.536 374.663C432.479 374.69 432.422 374.71 432.366 374.722C431.529 374.902 430.635 375.085 429.688 375.267C410.956 378.858 371.406 382.007 335.504 361.988" stroke="#242728" stroke-width="3.99789" stroke-miterlimit="1.5" stroke-linejoin="round"/>
<path d="M425.588 327.257C425.648 327.236 425.715 327.215 425.782 327.194C426.777 326.908 427.806 326.755 428.861 326.755C429.983 326.755 431.079 326.922 432.134 327.257C439.475 329.529 445 339.315 445 351.032C445 362.525 439.676 372.165 432.542 374.674C432.481 374.695 432.428 374.709 432.368 374.73C431.5 375.023 430.605 375.204 429.689 375.274" stroke="#242728" stroke-width="3.99602" stroke-miterlimit="1.5" stroke-linejoin="round"/>
<path fill-rule="evenodd" clip-rule="evenodd" d="M288.324 329.843C292.745 327.338 298.304 328.158 301.809 331.844C311.339 341.769 321.821 347.603 332.829 351.15C335.443 351.976 337.135 354.513 336.893 357.246C336.644 359.978 334.534 362.172 331.813 362.524C317.951 364.232 304.238 362.206 290.677 356.27C278.858 351.094 279.341 335.044 288.324 329.843Z" fill="white" stroke="#242728" stroke-width="4.00125" stroke-miterlimit="1.5" stroke-linejoin="round"/>
<path d="M299.656 330.002C293.567 325.134 290.594 320.526 286.81 315.208" stroke="#242728" stroke-width="4.00125" stroke-miterlimit="1.5" stroke-linejoin="round"/>
<path d="M289.911 355.924C282.681 353.002 275.389 347.944 270.246 343.931" stroke="#242728" stroke-width="4.00125" stroke-miterlimit="1.5" stroke-linejoin="round"/>
<path d="M382.906 318.135C374.017 314.722 365.697 319.813 363.505 328.419" stroke="#242728" stroke-width="4.00171" stroke-miterlimit="1.5" stroke-linejoin="round"/>
<path d="M194.694 213.392C194.694 213.392 140.961 232.941 109.289 244.466C96.3815 249.162 89.0242 262.775 92.152 276.16C97.1712 297.638 104.83 330.371 111.574 359.209C114.092 369.995 122.706 378.297 133.572 380.415C144.432 382.534 155.527 378.075 161.91 369.025C175.759 349.38 188.302 331.58 188.302 331.58" stroke="#242728" stroke-width="3.99741" stroke-miterlimit="1.5" stroke-linejoin="round"/>
<path d="M180.397 418.074L181.093 437.508C181.358 447.596 168.424 455.413 152.222 454.956C136.027 454.496 122.658 445.936 122.392 435.849L121.38 397.286L117.21 373.398" stroke="#242728" stroke-width="3.99451" stroke-miterlimit="1.5" stroke-linejoin="round"/>
<path d="M428.861 375.309C437.776 375.309 445.002 364.44 445.002 351.031C445.002 337.623 437.776 326.754 428.861 326.754C419.946 326.754 412.719 337.623 412.719 351.031C412.719 364.44 419.946 375.309 428.861 375.309Z" stroke="#242728" stroke-width="3.99602" stroke-miterlimit="1.5" stroke-linejoin="round"/>
<path fill-rule="evenodd" clip-rule="evenodd" d="M154.194 159.632C152.27 158.669 150.54 157.305 149.044 155.56C145.236 151.12 142.979 144.259 142.979 135.519C142.979 133.326 143.119 131.093 143.393 128.853C145.771 109.401 158.042 89.0126 172.804 81.1623C173.439 80.828 174.06 80.5201 174.688 80.2393C179.871 56.354 195.202 32.8699 213.277 23.2609C221.707 18.7808 229.536 17.9449 236.016 20.1983L263.156 33.5788C263.223 33.6189 263.303 33.6523 263.37 33.6924C271.459 37.738 277.017 47.0459 278.306 60.3058L294.765 68.4306C300.463 70.3631 304.217 76.7756 304.217 86.311C304.217 92.0817 302.841 98.1667 300.496 103.85C296.642 113.172 290.156 121.403 282.821 125.302L197.647 170.592C189.35 175.005 181.842 174.617 176.438 170.431L154.194 159.632Z" fill="#E9FC87"/>
<path fill-rule="evenodd" clip-rule="evenodd" d="M181.211 113.997L177.885 111.809C183.102 103.887 189.64 97.3799 196.713 93.6175C197.075 93.4245 197.438 93.2383 197.796 93.0681C203.313 68.9354 218.908 45.438 237.187 35.7137C249.187 29.33 260.062 29.9949 267.937 35.966C275.657 41.8193 280.584 52.9753 280.584 68.1563C280.584 69.0454 280.569 69.936 280.532 70.831C280.978 70.5605 281.429 70.3075 281.885 70.0649C288.62 66.4817 294.728 66.9219 299.148 70.2795C303.412 73.5126 306.205 79.6541 306.205 88.0434C306.205 103.986 296.107 122.22 283.75 128.794L198.578 174.105C189.511 178.929 181.304 178.382 175.356 173.872C169.564 169.48 165.828 161.126 165.828 149.729L169.807 149.731C169.807 159.577 172.755 166.906 177.76 170.701C182.615 174.375 189.314 174.521 196.713 170.585L281.885 125.274C293.148 119.282 302.225 102.58 302.225 88.0478C302.225 81.2027 300.22 76.0925 296.744 73.4499C293.418 70.9279 288.822 70.8795 283.75 73.5779C282.304 74.347 280.89 75.3065 279.532 76.4097C278.911 76.9076 278.045 76.9939 277.341 76.62C276.636 76.2395 276.222 75.4772 276.299 74.6738C276.496 72.4901 276.605 70.3132 276.605 68.1607C276.605 54.5239 272.46 44.3956 265.533 39.1367C258.751 34.0012 249.389 33.7346 239.052 39.2335C221.416 48.6161 206.531 71.5754 201.469 94.8773C201.339 95.4877 200.92 96.0052 200.345 96.2644C199.759 96.529 199.174 96.8204 198.578 97.1373C192.039 100.616 186.034 106.671 181.211 113.997Z" fill="#242728"/>
<path fill-rule="evenodd" clip-rule="evenodd" d="M155.09 159.606L153.308 163.168C151.152 162.089 149.209 160.562 147.541 158.615C143.479 153.884 140.992 146.597 140.992 137.285C140.992 115.344 154.867 90.2201 171.877 81.1706C172.239 80.9777 172.602 80.7914 172.96 80.6213C178.477 56.4874 194.072 32.989 212.351 23.2641C221.361 18.4706 229.744 17.6671 236.677 20.069C238.48 20.694 240.184 21.5387 241.785 22.5855L239.604 25.9186C238.278 25.0466 236.863 24.3486 235.371 23.8322C229.335 21.7423 222.061 22.6109 214.217 26.7842C196.58 36.1672 181.695 59.1276 176.633 82.4306C176.503 83.041 176.084 83.5585 175.509 83.8177C174.923 84.0823 174.338 84.3737 173.742 84.6907C157.826 93.1585 144.971 116.744 144.971 137.287C144.971 145.449 147.002 151.876 150.557 156.021C151.873 157.554 153.396 158.756 155.09 159.606Z" fill="#242728"/>
<path fill-rule="evenodd" clip-rule="evenodd" d="M235.138 23.7445L236.894 20.1738L264.028 33.554C264.108 33.5941 264.182 33.6342 264.262 33.6676L262.478 37.2317C262.411 37.1983 262.345 37.1715 262.285 37.138L262.271 37.1315L235.138 23.7445ZM177.023 170.6L175.239 174.165L153.303 163.178L155.08 159.614L177.023 170.6Z" fill="#242728"/>
<path fill-rule="evenodd" clip-rule="evenodd" d="M277.43 63.8607L279.193 60.2832L295.799 68.4746C295.879 68.5147 295.953 68.5547 296.033 68.5882L294.25 72.1523C294.183 72.1189 294.116 72.092 294.056 72.0586L294.042 72.0521L277.43 63.8607Z" fill="#242728"/>
<path d="M111.383 355.044C109.949 354.217 98.436 358.16 87.8129 347.618C81.6628 341.515 79.3131 333.368 75.5427 327.316" stroke="#242728" stroke-width="3.99895" stroke-miterlimit="1.5" stroke-linejoin="round"/>
<path fill-rule="evenodd" clip-rule="evenodd" d="M69.3699 310.21C71.9997 309.15 78.4462 319.048 79.5043 321.681C80.5624 324.314 79.2827 327.314 76.6528 328.373C74.023 329.433 71.0253 328.157 69.9672 325.524C68.9091 322.891 66.74 311.27 69.3699 310.21Z" fill="#FF85D0" stroke="#242728" stroke-width="3.99895" stroke-miterlimit="1.5" stroke-linejoin="round"/>
</g>
<defs>
<clipPath id="clip0_466_16032">
<rect width="500" height="500" fill="white"/>
</clipPath>
</defs>
</svg>
