<svg width="81" height="80" viewBox="0 0 81 80" fill="none" xmlns="http://www.w3.org/2000/svg">
<path d="M40.5013 6.66675C36.1239 6.66675 31.7894 7.52894 27.7452 9.2041C23.701 10.8793 20.0264 13.3346 16.9311 16.4299C10.6799 22.6811 7.16797 31.1595 7.16797 40.0001C7.16797 54.7334 16.7346 67.2334 29.968 71.6667C31.6346 71.9334 32.168 70.9001 32.168 70.0001V64.3667C22.9346 66.3667 20.968 59.9001 20.968 59.9001C19.4346 56.0334 17.268 55.0001 17.268 55.0001C14.2346 52.9334 17.5013 53.0001 17.5013 53.0001C20.8346 53.2334 22.6013 56.4334 22.6013 56.4334C25.5013 61.5001 30.4013 60.0001 32.3013 59.2001C32.6013 57.0334 33.468 55.5667 34.4013 54.7334C27.0013 53.9001 19.2346 51.0334 19.2346 38.3334C19.2346 34.6334 20.5013 31.6667 22.668 29.3001C22.3346 28.4667 21.168 25.0001 23.0013 20.5001C23.0013 20.5001 25.8013 19.6001 32.168 23.9001C34.8013 23.1667 37.668 22.8001 40.5013 22.8001C43.3346 22.8001 46.2013 23.1667 48.8346 23.9001C55.2013 19.6001 58.0013 20.5001 58.0013 20.5001C59.8346 25.0001 58.668 28.4667 58.3346 29.3001C60.5013 31.6667 61.768 34.6334 61.768 38.3334C61.768 51.0667 53.968 53.8667 46.5346 54.7001C47.7346 55.7334 48.8346 57.7668 48.8346 60.8668V70.0001C48.8346 70.9001 49.368 71.9668 51.068 71.6667C64.3013 67.2001 73.8346 54.7334 73.8346 40.0001C73.8346 35.6227 72.9724 31.2882 71.2973 27.244C69.6221 23.1998 67.1668 19.5251 64.0715 16.4299C60.9762 13.3346 57.3016 10.8793 53.2574 9.2041C49.2132 7.52894 44.8787 6.66675 40.5013 6.66675Z" fill="white"/>
</svg>
