<svg width="26" height="26" viewBox="0 0 26 26" fill="none" xmlns="http://www.w3.org/2000/svg">
<path d="M13 23.8332C18.9831 23.8332 23.8333 18.9829 23.8333 12.9998C23.8333 7.01675 18.9831 2.1665 13 2.1665C7.01691 2.1665 2.16666 7.01675 2.16666 12.9998C2.16666 18.9829 7.01691 23.8332 13 23.8332Z" fill="#84EA9A"/>
<path d="M11.4617 16.8786C11.245 16.8786 11.0392 16.7919 10.8875 16.6402L7.82167 13.5744C7.5075 13.2602 7.5075 12.7402 7.82167 12.4261C8.13584 12.1119 8.65584 12.1119 8.97 12.4261L11.4617 14.9177L17.03 9.34939C17.3442 9.03523 17.8642 9.03523 18.1783 9.34939C18.4925 9.66356 18.4925 10.1836 18.1783 10.4977L12.0358 16.6402C11.8842 16.7919 11.6783 16.8786 11.4617 16.8786Z" fill="#1C1C1C"/>
</svg>
