<svg width="56" height="56" viewBox="0 0 56 56" fill="none" xmlns="http://www.w3.org/2000/svg">
<path d="M51.2637 42.7701C51.2637 43.6101 51.077 44.4734 50.6803 45.3134C50.2837 46.1534 49.7703 46.9468 49.0937 47.6934C47.9503 48.9534 46.6903 49.8634 45.267 50.4468C43.867 51.0301 42.3503 51.3334 40.717 51.3334C38.337 51.3334 35.7937 50.7734 33.1103 49.6301C30.427 48.4868 27.7437 46.9468 25.0837 45.0101C22.4003 43.0501 19.857 40.8801 17.4303 38.4767C15.027 36.0501 12.857 33.5068 10.9203 30.8468C9.00699 28.1868 7.46699 25.5268 6.34699 22.8901C5.22699 20.2301 4.66699 17.6867 4.66699 15.2601C4.66699 13.6734 4.94699 12.1567 5.50699 10.7567C6.06699 9.33342 6.95366 8.02675 8.19033 6.86008C9.68366 5.39008 11.317 4.66675 13.0437 4.66675C13.697 4.66675 14.3503 4.80675 14.9337 5.08675C15.5403 5.36675 16.077 5.78675 16.497 6.39341L21.9103 14.0234C22.3303 14.6067 22.6337 15.1434 22.8437 15.6567C23.0537 16.1467 23.1703 16.6367 23.1703 17.0801C23.1703 17.6401 23.007 18.2001 22.6803 18.7367C22.377 19.2734 21.9337 19.8334 21.3737 20.3934L19.6003 22.2367C19.3437 22.4934 19.227 22.7968 19.227 23.1701C19.227 23.3568 19.2503 23.5201 19.297 23.7067C19.367 23.8934 19.437 24.0334 19.4837 24.1734C19.9037 24.9434 20.627 25.9468 21.6537 27.1601C22.7037 28.3734 23.8237 29.6101 25.037 30.8468C26.297 32.0834 27.5103 33.2267 28.747 34.2767C29.9603 35.3034 30.9637 36.0034 31.757 36.4234C31.8737 36.4701 32.0137 36.5401 32.177 36.6101C32.3637 36.6801 32.5503 36.7034 32.7603 36.7034C33.157 36.7034 33.4603 36.5634 33.717 36.3068L35.4903 34.5568C36.0737 33.9734 36.6337 33.5301 37.1703 33.2501C37.707 32.9234 38.2437 32.7601 38.827 32.7601C39.2703 32.7601 39.737 32.8534 40.2503 33.0634C40.7637 33.2734 41.3003 33.5768 41.8837 33.9734L49.607 39.4568C50.2137 39.8768 50.6337 40.3667 50.8903 40.9501C51.1237 41.5334 51.2637 42.1168 51.2637 42.7701Z" stroke="#84EA9A" stroke-width="2.8" stroke-miterlimit="10"/>
<path d="M43.1667 21.0002C43.1667 19.6002 42.07 17.4535 40.4367 15.7035C38.9433 14.0935 36.96 12.8335 35 12.8335" stroke="#EAEAEA" stroke-width="1.8" stroke-linecap="round" stroke-linejoin="round" stroke-dasharray="5.6 5.6"/>
<path d="M51.3333 21.0001C51.3333 11.9701 44.03 4.66675 35 4.66675" stroke="#EAEAEA" stroke-width="2.8" stroke-linecap="round" stroke-linejoin="round" stroke-dasharray="5.6 5.6"/>
</svg>
