<svg width="80" height="81" viewBox="0 0 80 81" fill="none" xmlns="http://www.w3.org/2000/svg">
<path d="M22.2346 47.1753H13.3346C9.66797 47.1753 6.66797 50.1753 6.66797 53.842V70.5086C6.66797 72.342 8.16797 73.842 10.0013 73.842H22.2346C24.068 73.842 25.568 72.342 25.568 70.5086V50.5086C25.568 48.6753 24.068 47.1753 22.2346 47.1753Z" fill="#E9FC87"/>
<path d="M44.4339 33.8418H35.5339C31.8672 33.8418 28.8672 36.8418 28.8672 40.5085V70.5085C28.8672 72.3418 30.3672 73.8418 32.2005 73.8418H47.7672C49.6005 73.8418 51.1005 72.3418 51.1005 70.5085V40.5085C51.1005 36.8418 48.1339 33.8418 44.4339 33.8418Z" fill="#E9FC87"/>
<path d="M66.6669 57.1753H57.7669C55.9336 57.1753 54.4336 58.6753 54.4336 60.5086V70.5086C54.4336 72.342 55.9336 73.842 57.7669 73.842H70.0003C71.8336 73.842 73.3336 72.342 73.3336 70.5086V63.842C73.3336 60.1753 70.3336 57.1753 66.6669 57.1753Z" fill="#E9FC87"/>
<path d="M50.0315 16.6752C51.0648 15.6419 51.4648 14.4086 51.1315 13.3419C50.7982 12.2752 49.7648 11.5086 48.2982 11.2752L45.0982 10.7419C44.9648 10.7419 44.6648 10.5086 44.5982 10.3752L42.8315 6.84189C41.4982 4.14189 38.4648 4.14189 37.1315 6.84189L35.3648 10.3752C35.3315 10.5086 35.0315 10.7419 34.8982 10.7419L31.6982 11.2752C30.2315 11.5086 29.2315 12.2752 28.8648 13.3419C28.5315 14.4086 28.9315 15.6419 29.9648 16.6752L32.4315 19.1752C32.5648 19.2752 32.6648 19.6752 32.6315 19.8086L31.9315 22.8752C31.3982 25.1752 32.2648 26.2086 32.8315 26.6086C33.3982 27.0086 34.6315 27.5419 36.6648 26.3419L39.6648 24.5752C39.7982 24.4752 40.2315 24.4752 40.3648 24.5752L43.3315 26.3419C44.2648 26.9086 45.0315 27.0752 45.6315 27.0752C46.3315 27.0752 46.8315 26.8086 47.1315 26.6086C47.6982 26.2086 48.5648 25.1752 48.0315 22.8752L47.3315 19.8086C47.2982 19.6419 47.3982 19.2752 47.5315 19.1752L50.0315 16.6752Z" fill="#E9FC87"/>
</svg>
