<svg width="81" height="81" viewBox="0 0 81 81" fill="none" xmlns="http://www.w3.org/2000/svg">
<path d="M22.7327 47.1582H13.8327C10.166 47.1582 7.16602 50.1582 7.16602 53.8249V70.4915C7.16602 72.3249 8.66602 73.8249 10.4993 73.8249H22.7327C24.566 73.8249 26.066 72.3249 26.066 70.4915V50.4915C26.066 48.6582 24.566 47.1582 22.7327 47.1582Z" fill="url(#paint0_linear_1374_752)"/>
<path d="M44.9339 33.8242H36.0339C32.3672 33.8242 29.3672 36.8242 29.3672 40.4909V70.4909C29.3672 72.3242 30.8672 73.8242 32.7005 73.8242H48.2672C50.1005 73.8242 51.6005 72.3242 51.6005 70.4909V40.4909C51.6005 36.8242 48.6339 33.8242 44.9339 33.8242Z" fill="url(#paint1_linear_1374_752)"/>
<path d="M67.1669 57.1582H58.2669C56.4336 57.1582 54.9336 58.6582 54.9336 60.4915V70.4915C54.9336 72.3249 56.4336 73.8249 58.2669 73.8249H70.5003C72.3336 73.8249 73.8336 72.3249 73.8336 70.4915V63.8249C73.8336 60.1582 70.8336 57.1582 67.1669 57.1582Z" fill="url(#paint2_linear_1374_752)"/>
<path d="M50.5335 16.6581C51.5668 15.6248 51.9668 14.3915 51.6335 13.3248C51.3001 12.2581 50.2668 11.4915 48.8001 11.2581L45.6001 10.7248C45.4668 10.7248 45.1668 10.4915 45.1001 10.3581L43.3335 6.8248C42.0001 4.1248 38.9668 4.1248 37.6335 6.8248L35.8668 10.3581C35.8335 10.4915 35.5335 10.7248 35.4001 10.7248L32.2001 11.2581C30.7335 11.4915 29.7335 12.2581 29.3668 13.3248C29.0335 14.3915 29.4335 15.6248 30.4668 16.6581L32.9335 19.1581C33.0668 19.2581 33.1668 19.6581 33.1335 19.7915L32.4335 22.8581C31.9001 25.1581 32.7668 26.1915 33.3335 26.5915C33.9001 26.9915 35.1335 27.5248 37.1668 26.3248L40.1668 24.5581C40.3001 24.4581 40.7335 24.4581 40.8668 24.5581L43.8335 26.3248C44.7668 26.8915 45.5335 27.0581 46.1335 27.0581C46.8335 27.0581 47.3335 26.7915 47.6335 26.5915C48.2001 26.1915 49.0668 25.1581 48.5335 22.8581L47.8335 19.7915C47.8001 19.6248 47.9001 19.2581 48.0335 19.1581L50.5335 16.6581Z" fill="url(#paint3_linear_1374_752)"/>
<defs>
<linearGradient id="paint0_linear_1374_752" x1="7.16602" y1="73.8249" x2="49.9398" y2="61.8352" gradientUnits="userSpaceOnUse">
<stop stop-color="#F77577"/>
<stop offset="0.452015" stop-color="#DB39CB"/>
<stop offset="0.973958" stop-color="#CA6FE5"/>
</linearGradient>
<linearGradient id="paint1_linear_1374_752" x1="29.3672" y1="73.8242" x2="81.1367" y2="62.444" gradientUnits="userSpaceOnUse">
<stop stop-color="#F77577"/>
<stop offset="0.452015" stop-color="#DB39CB"/>
<stop offset="0.973958" stop-color="#CA6FE5"/>
</linearGradient>
<linearGradient id="paint2_linear_1374_752" x1="54.9336" y1="73.8249" x2="93.3426" y2="56.599" gradientUnits="userSpaceOnUse">
<stop stop-color="#F77577"/>
<stop offset="0.452015" stop-color="#DB39CB"/>
<stop offset="0.973958" stop-color="#CA6FE5"/>
</linearGradient>
<linearGradient id="paint3_linear_1374_752" x1="29.252" y1="27.0622" x2="76.6024" y2="8.13877" gradientUnits="userSpaceOnUse">
<stop stop-color="#F77577"/>
<stop offset="0.452015" stop-color="#DB39CB"/>
<stop offset="0.973958" stop-color="#CA6FE5"/>
</linearGradient>
</defs>
</svg>
