<svg width="264" height="299" viewBox="0 0 264 299" fill="none" xmlns="http://www.w3.org/2000/svg">
<g clip-path="url(#clip0_363_8533)">
<path fill-rule="evenodd" clip-rule="evenodd" d="M59.3556 209.774L50.0135 143.515C44.5772 150.337 23.2946 151.808 20.94 132.977L15.7629 104.111L6.8125 50.1212C9.10095 42.0927 13.8813 36.9762 21.9824 35.7238C21.9824 35.7238 33.6892 36.1464 38.6271 37.0882C42.2632 31.7071 50.6339 28.3267 60.6624 25.654L131.299 2.62228C139.543 -0.0708419 148.519 0.647184 156.233 4.60796L247.085 51.2614C254.022 54.8251 257.459 62.8128 255.283 70.3118L240.53 121.074C249.312 124.801 254.184 134.346 251.972 143.698L235.429 213.597C231.707 219.839 226.931 223.066 221.348 223.983L225.233 234.852L225.482 261.233C218.505 273.946 187.677 274.231 180.028 261.188V248.837L170.295 251.729L169.644 278.421C162.916 289.264 134.752 293.846 124.592 278.818L124.388 257.334L118.779 247.839L99.3628 238.12L80.1702 262.644C76.5442 265.041 72.6845 265.749 68.3517 263.148C55.6231 255.505 50.3949 245.004 51.8697 227.72L62.3559 217.146C61.4812 215.496 59.6251 211.673 59.3556 209.774Z" fill="#E9FC87"/>
<path d="M38.6328 37.0996C38.6328 37.0996 32.7298 36.4681 25.7262 35.7175C20.379 35.1461 15.07 37.1293 11.4027 41.0716C7.73528 45.0144 6.13536 50.4554 7.08841 55.7588C11.0978 78.1037 17.2106 112.173 21.2 134.388C22.1427 139.644 25.4821 144.158 30.2283 146.595C34.98 149.033 40.5865 149.112 45.3999 146.811C48.2137 145.468 50.1627 144.535 50.1627 144.535" stroke="black" stroke-width="3.54697" stroke-miterlimit="1.5" stroke-linejoin="round"/>
<path d="M170.293 251.729L190.996 245.579M240.538 121.033L255.281 70.3118C257.457 62.8128 254.02 54.8251 247.083 51.2614L156.232 4.60796C148.517 0.647184 139.541 -0.0708418 131.297 2.62228L47.5807 29.9152C40.0694 32.3639 35.4011 39.8578 36.5046 47.6826L59.3537 209.774C60.0962 215.038 63.361 219.615 68.0955 222.023L128.755 252.833" stroke="#242728" stroke-width="4" stroke-miterlimit="1.5" stroke-linejoin="round"/>
<path d="M69.6523 51.9712C103.773 69.3227 106.578 70.7457 132.378 83.8647C142.989 89.2582 155.292 90.2666 166.637 86.6742C180.326 82.3355 191.455 79.1544 209.03 73.5851" stroke="#242728" stroke-width="3.99669" stroke-miterlimit="1.5" stroke-linejoin="round"/>
<path d="M174.359 96.9074C174.359 96.9074 215.266 111.791 239.38 120.565C249.206 124.14 254.807 134.504 252.426 144.695C248.605 161.047 242.773 185.969 237.639 207.924C235.722 216.136 229.164 222.456 220.892 224.07C212.624 225.683 204.177 222.288 199.317 215.398C188.774 200.441 179.225 186.889 179.225 186.889" stroke="black" stroke-width="3.99644" stroke-miterlimit="1.5" stroke-linejoin="round"/>
<path d="M118.476 247.985L124.389 257.327L124.198 276.352C124.2 283.592 134.386 289.471 146.934 289.476C159.476 289.478 169.661 283.604 169.658 276.364L169.65 251.826L162.817 236.777" stroke="black" stroke-width="4.01292" stroke-miterlimit="1.5" stroke-linejoin="round"/>
<path d="M180.207 248.775L180.037 258.725C180.034 265.962 190.225 271.844 202.768 271.847C215.316 271.851 225.496 265.975 225.493 258.735L225.492 238.39C225.488 235.614 225.028 232.858 224.12 230.234L222.092 224.359" stroke="black" stroke-width="4.01292" stroke-miterlimit="1.5" stroke-linejoin="round"/>
<path d="M80.1716 261.743L80.2722 261.852L99.5795 238.016M62.3589 216.894L53.582 226.159" stroke="black" stroke-width="3.99562" stroke-miterlimit="1.5" stroke-linecap="round" stroke-linejoin="round"/>
<path d="M67.2203 262.532C75.8325 267.545 82.5269 263.557 82.1727 253.624C81.8185 243.691 74.5498 231.574 65.9376 226.561C57.3254 221.548 50.6309 225.536 50.9851 235.469C51.3393 245.402 58.6081 257.518 67.2203 262.532Z" stroke="black" stroke-width="3.21723" stroke-miterlimit="1.5" stroke-linecap="round" stroke-linejoin="round"/>
<path d="M91.6364 197.002C85.6398 203.721 66.2835 202.661 66.2369 184.397C66.1687 159.118 37.0143 157.609 29.9023 181.026" stroke="black" stroke-width="4.0022" stroke-miterlimit="1.5" stroke-linecap="round" stroke-linejoin="round"/>
<path fill-rule="evenodd" clip-rule="evenodd" d="M24.1375 194.711C26.4925 195.698 32.4571 186.951 33.4516 184.613C34.4461 182.276 33.3383 179.576 30.9834 178.589C28.6284 177.601 25.9059 178.696 24.9114 181.033C23.917 183.371 21.7826 193.724 24.1375 194.711Z" fill="#E9FC87" stroke="black" stroke-width="3.98373" stroke-miterlimit="1.5" stroke-linejoin="round"/>
</g>
<defs>
<clipPath id="clip0_363_8533">
<rect width="263.426" height="298.84" fill="white"/>
</clipPath>
</defs>
</svg>
