<svg width="23" height="23" viewBox="0 0 23 23" fill="none" xmlns="http://www.w3.org/2000/svg">
<path d="M10.2564 1.67067C10.5815 0.365123 12.4371 0.365123 12.7623 1.67067L14.2827 7.77505C14.3981 8.23857 14.76 8.60048 15.2236 8.71593L21.3279 10.2363C22.6335 10.5615 22.6335 12.4171 21.3279 12.7423L15.2236 14.2627C14.76 14.3781 14.3981 14.74 14.2827 15.2035L12.7623 21.3079C12.4371 22.6135 10.5815 22.6135 10.2564 21.3079L8.73595 15.2035C8.6205 14.74 8.25859 14.3781 7.79507 14.2627L1.69069 12.7423C0.385142 12.4171 0.385143 10.5615 1.69069 10.2363L7.79507 8.71593C8.25859 8.60048 8.6205 8.23857 8.73595 7.77505L10.2564 1.67067Z" fill="white"/>
</svg>
